<?xml version="1.0" encoding="UTF-8"?>
<!DOCTYPE svg PUBLIC "-//W3C//DTD SVG 1.1//EN" "http://www.w3.org/Graphics/SVG/1.1/DTD/svg11.dtd">
<svg version="1.1" xmlns="http://www.w3.org/2000/svg" xmlns:xlink="http://www.w3.org/1999/xlink" x="0" y="0" width="560" height="525" viewBox="0, 0, 560, 525">
  <defs>
    <radialGradient id="Gradient_1" gradientUnits="userSpaceOnUse" cx="63.784" cy="167.386" r="16.907">
      <stop offset="0" stop-color="#E8858A"/>
      <stop offset="1" stop-color="#F6C39A"/>
    </radialGradient>
    <radialGradient id="Gradient_2" gradientUnits="userSpaceOnUse" cx="160.253" cy="163.733" r="16.9">
      <stop offset="0" stop-color="#E8858A"/>
      <stop offset="1" stop-color="#F6C39A"/>
    </radialGradient>
    <radialGradient id="Gradient_3" gradientUnits="userSpaceOnUse" cx="490.966" cy="167.386" r="16.905">
      <stop offset="0" stop-color="#E8858A"/>
      <stop offset="1" stop-color="#F6C39A"/>
    </radialGradient>
    <radialGradient id="Gradient_4" gradientUnits="userSpaceOnUse" cx="394.496" cy="163.733" r="16.902">
      <stop offset="0" stop-color="#E8858A"/>
      <stop offset="1" stop-color="#F6C39A"/>
    </radialGradient>
  </defs>
  <g id="Layer_1">
    <path d="M191.444,336.155 C196.679,342.63 205.917,343.851 212.06,338.87 C218.212,333.899 218.954,324.622 213.71,318.138 C208.476,311.673 199.247,310.462 193.085,315.442 C186.952,320.423 186.2,329.7 191.444,336.155" fill="#F6C39A"/>
    <path d="M116.005,240.647 C119.384,255.052 155.985,302.015 165.175,312.874 C168.212,316.497 182.841,334.495 185.351,332.991 C186.649,332.2 203.622,312.142 209.911,309.446 C209.364,309.681 197.831,292.894 197.05,291.839 C180.175,269.095 164.091,244.397 145.038,223.421" fill="#FFFFFE"/>
    <path d="M114.144,241.084 C114.63,243.138 115.624,245.534 117.001,248.296 C119.413,253.115 123.019,259.001 127.212,265.312 C133.5,274.774 141.103,285.171 147.896,294.105 C154.69,303.042 160.662,310.499 163.716,314.109 L163.71,314.102 C164.427,314.957 165.833,316.665 167.576,318.731 C170.196,321.834 173.582,325.751 176.667,328.934 C178.213,330.527 179.677,331.936 180.983,332.997 C181.638,333.528 182.251,333.974 182.865,334.324 C183.173,334.499 183.483,334.652 183.822,334.773 C184.162,334.892 184.535,334.988 184.993,334.991 C185.395,334.994 185.883,334.898 186.323,334.637 L186.345,334.623 C186.561,334.488 186.656,334.401 186.772,334.304 C186.981,334.121 187.188,333.916 187.447,333.655 C188.396,332.688 189.968,330.964 191.925,328.84 C194.852,325.661 198.613,321.614 202.145,318.162 C203.909,316.436 205.618,314.86 207.114,313.628 C208.598,312.397 209.917,311.512 210.664,311.203 C211.618,310.794 212.072,309.697 211.685,308.734 C211.298,307.771 210.212,307.292 209.24,307.656 L209.898,309.411 L209.898,307.537 C209.779,307.539 209.552,307.542 209.24,307.656 L209.898,309.411 L209.898,307.537 L209.898,309.355 L210.711,307.726 C210.573,307.665 210.364,307.548 209.898,307.537 L209.898,309.355 L210.711,307.726 L210.116,308.918 L211.01,307.921 C210.988,307.909 210.965,307.861 210.711,307.726 L210.116,308.918 L211.01,307.921 L210.95,307.987 L211.011,307.922 L211.01,307.921 L210.95,307.987 L211.011,307.922 C210.996,307.909 210.882,307.79 210.74,307.622 C210.187,306.973 209.149,305.601 207.953,303.958 C206.15,301.485 203.943,298.353 202.125,295.757 C201.216,294.458 200.404,293.293 199.786,292.407 C199.477,291.964 199.216,291.591 199.015,291.305 C198.811,291.015 198.678,290.826 198.585,290.701 C181.754,268.021 165.644,243.27 146.453,222.136 C145.743,221.354 144.534,221.296 143.753,222.006 C142.972,222.716 142.913,223.925 143.623,224.706 C162.538,245.525 178.596,270.168 195.515,292.977 C195.54,293.011 195.63,293.138 195.752,293.311 C196.686,294.635 199.678,298.957 202.514,302.942 C203.934,304.938 205.315,306.849 206.398,308.284 C206.941,309.002 207.406,309.598 207.788,310.05 C207.981,310.279 208.148,310.467 208.334,310.651 C208.431,310.744 208.527,310.835 208.688,310.954 C208.772,311.013 208.871,311.082 209.037,311.162 C209.205,311.236 209.44,311.351 209.898,311.359 C210.026,311.358 210.262,311.353 210.582,311.236 L209.911,309.446 L209.158,307.689 C208.128,308.136 207.092,308.816 205.95,309.675 C203.966,311.177 201.706,313.242 199.371,315.528 C195.875,318.953 192.232,322.866 189.355,325.988 C187.917,327.548 186.671,328.91 185.743,329.902 C185.28,330.397 184.895,330.801 184.618,331.079 C184.481,331.217 184.369,331.324 184.302,331.385 L184.246,331.434 L184.873,332.207 L184.356,331.359 C184.264,331.416 184.248,331.434 184.246,331.434 L184.873,332.207 L184.356,331.359 L185.351,332.991 L184.378,331.345 L184.993,332.386 L184.993,331.168 C184.865,331.166 184.616,331.203 184.378,331.345 L184.993,332.386 L184.993,331.168 L184.993,331.722 L185.133,331.181 C185.133,331.182 185.092,331.169 184.993,331.168 L184.993,331.722 L185.133,331.181 C185.13,331.183 184.983,331.133 184.776,331.014 C184.379,330.793 183.768,330.353 183.07,329.762 C181.841,328.727 180.317,327.232 178.717,325.549 C176.314,323.022 173.726,320.062 171.528,317.481 C169.327,314.897 167.521,312.698 166.639,311.646 L166.634,311.639 C164.367,308.961 160.363,303.998 155.6,297.861 C148.454,288.653 139.583,276.779 132.207,265.894 C128.519,260.454 125.203,255.258 122.673,250.789 C121.408,248.556 120.339,246.504 119.52,244.707 C118.701,242.914 118.135,241.368 117.866,240.211 C117.625,239.183 116.596,238.546 115.568,238.787 C114.541,239.028 113.903,240.056 114.144,241.084" fill="#8A8B8A"/>
    <path d="M31.035,468.343 L58.71,484.573 L88.671,450.97 L100.116,414.163 L72.431,397.942 L61.376,434.095 L31.035,468.343" fill="#F6C39A"/>
    <path d="M29.716,464.495 C30.429,464.212 31.181,463.528 32.031,463.147 C35.488,461.683 56.611,439.866 59.169,435.511 L87.86,452.356 C87.792,452.327 62.841,480.13 61.015,483.011 C63.212,485.784 64.257,487.835 65.966,490.433 C67.245,492.366 68.417,494.397 69.452,496.477 C71.611,500.804 73.603,504.573 70.361,508.88 C67.206,513.06 59.335,509.778 55.341,507.894 C50.048,505.413 45.869,502.952 41.786,498.597 C37.675,494.241 33.779,489.544 30.097,484.993 C27.753,482.093 24.589,479.026 23.72,475.247 C22.91,471.77 25.39,468.899 27.509,466.224 C28.486,464.993 28.554,464.964 29.716,464.495" fill="#C4E6F0"/>
    <path d="M34.277,461.409 C34.687,461.644 34.345,461.985 34.257,463.05 C34.14,464.29 32.49,468.685 32.245,469.983 C31.992,471.419 32.46,474.007 32.617,475.423 C33.408,483.626 45.204,492.552 55.341,499.212 C57.802,500.833 61.425,503.763 64.277,501.546 C67.665,498.909 66.913,492.679 66.699,491.429 C69.072,492.688 72.617,498.929 73.242,501.331 C75.195,509.017 71.952,521.712 59.892,519.661 C44.951,517.093 16.347,490.149 16.288,485.921 C16.24,481.019 21.288,472.571 24.199,468.929 C25.917,466.79 27.441,464.436 29.423,462.522 C30.331,461.644 33.251,460.843 34.277,461.409" fill="#295385"/>
    <path d="M68.115,492.962 C68.115,492.962 58.574,485.95 48.779,500.257 L41.835,493.489 C41.835,493.489 54.804,482.415 63.212,485.95 L68.115,492.962" fill="#295385"/>
    <path d="M136.474,490.53 L168.075,484.876 L153.778,404.456 L122.187,410.12 L136.474,490.53" fill="#F6C39A"/>
    <path d="M132.978,488.46 C133.339,487.786 133.476,486.78 133.876,485.931 C135.536,482.571 134.579,481.009 133.974,477.601 C133.329,474.017 132.86,470.364 132.226,466.8 C131.337,461.829 130.438,456.858 129.56,451.868 L161.142,446.214 C161.073,446.233 167.079,478.977 167.548,482.366 C171.034,483.04 174.394,483.753 177.392,484.622 C179.618,485.247 181.845,486.038 183.964,486.946 C188.417,488.831 192.392,490.403 192.724,495.784 C193.026,501.019 184.921,503.645 180.663,504.788 C175.028,506.351 170.243,507.19 164.315,506.536 C158.358,505.901 152.353,504.866 146.591,503.792 C142.929,503.108 138.534,502.845 135.419,500.53 C132.528,498.421 132.558,494.622 132.431,491.214 C132.362,489.642 132.401,489.583 132.978,488.46" fill="#C4E6F0"/>
    <path d="M134.442,483.157 C134.911,483.06 134.872,483.548 135.478,484.417 C136.21,485.442 137.821,489.847 138.476,490.979 C139.208,492.249 141.249,493.899 142.284,494.886 C148.222,500.608 162.987,499.729 175.019,498.196 C177.938,497.835 182.606,497.708 183.329,494.163 C184.179,489.964 179.569,485.716 178.603,484.895 C181.21,484.31 187.958,486.751 190.009,488.177 C196.483,492.737 201.493,503.343 191.776,510.784 C181.942,518.274 139.491,516.653 136.708,513.47 C133.495,509.769 131.815,500.091 131.679,495.423 C131.581,492.669 131.2,489.905 131.483,487.161 C131.61,485.901 133.31,483.392 134.442,483.157" fill="#295385"/>
    <path d="M180.663,485.149 C180.663,485.149 168.856,486.009 170.692,503.255 L161.034,502.62 C161.034,502.62 163.69,485.784 172.382,482.991 L180.663,485.149" fill="#295385"/>
    <path d="M107.069,371.477 L106.942,371.477 L61.865,367.542 L47.079,418.431 L103.866,428.489 L108.017,395.56 L119.257,428.489 L170.146,419.622 L155.351,371.692 L107.069,371.477" fill="#1A1919"/>
    <path d="M91.347,192.854 L123.974,192.854 L123.974,226.624 L91.347,226.624 z" fill="#F6C39A"/>
    <path d="M183.72,98.255 C181.171,85.804 177.743,74.173 168.72,64.739 C153.3,48.587 131.483,38.577 109.022,38.861 C61.611,39.466 21.396,68.938 27.343,129.827 C26.249,129.573 25.117,129.388 23.935,129.388 C15.79,129.388 12.06,135.921 12.06,143.958 C12.06,151.995 15.79,158.528 23.935,158.528 C26.699,158.528 29.267,157.718 31.474,156.409 C44.511,189.026 65.165,209.085 109.022,209.739 C138.612,209.31 164.56,199.251 177.772,171.722 C191.659,142.796 185.438,106.634 183.72,98.255" fill="#F6C39A"/>
    <path d="M80.692,167.395 C80.692,176.712 73.124,184.28 63.779,184.28 C54.462,184.28 46.874,176.712 46.874,167.395 C46.874,158.05 54.462,150.491 63.779,150.491 C73.124,150.491 80.692,158.05 80.692,167.395 z" fill="url(#Gradient_1)"/>
    <path d="M143.358,163.743 C143.358,173.06 150.907,180.628 160.243,180.628 C169.579,180.628 177.147,173.06 177.147,163.743 C177.147,154.397 169.579,146.839 160.243,146.839 C150.907,146.839 143.358,154.397 143.358,163.743 z" fill="url(#Gradient_2)"/>
    <path d="M87.235,138.001 C87.235,142.698 83.749,146.497 79.452,146.497 C75.156,146.497 71.689,142.698 71.689,138.001 C71.689,133.323 75.156,129.505 79.452,129.505 C83.749,129.505 87.235,133.323 87.235,138.001" fill="#1A1919"/>
    <path d="M162.968,138.519 C162.636,143.216 158.886,146.77 154.618,146.477 C150.331,146.194 147.128,142.151 147.46,137.483 C147.792,132.796 151.542,129.241 155.81,129.524 C160.087,129.808 163.3,133.841 162.968,138.519" fill="#1A1919"/>
    <path d="M85.498,181.712 C85.574,182.375 85.79,182.909 86.041,183.4 C86.487,184.251 87.083,184.999 87.759,185.742 C88.772,186.847 89.977,187.906 91.131,188.813 C91.708,189.266 92.271,189.679 92.794,190.036 C93.318,190.393 93.794,190.691 94.239,190.93 L94.225,190.922 C98.344,193.157 103.002,194.194 107.152,194.678 L107.156,194.678 C107.929,194.767 108.704,194.809 109.475,194.809 C113.305,194.808 117.065,193.76 120.441,191.961 C123.817,190.16 126.819,187.604 129.137,184.518 C129.48,184.061 129.629,183.482 129.551,182.916 L127.913,183.144 L129.566,183.144 L129.551,182.916 L127.913,183.144 L129.566,183.144 L127.705,183.144 L129.475,183.713 C129.55,183.48 129.566,183.289 129.566,183.144 L127.705,183.144 L129.475,183.713 L127.571,183.102 L128.675,184.767 C129.082,184.507 129.375,184.058 129.475,183.713 L127.571,183.102 L128.675,184.767 L127.594,183.136 L127.594,185.097 C127.858,185.098 128.271,185.034 128.675,184.767 L127.594,183.136 L127.594,185.097 L127.594,183.236 L127.227,185.06 C127.369,185.089 127.502,185.097 127.594,185.097 L127.594,183.236 L127.227,185.06 C128.402,185.296 129.546,184.535 129.782,183.361 C130.019,182.186 129.258,181.042 128.083,180.805 C127.898,180.768 127.724,180.756 127.594,180.757 C127.351,180.757 127.06,180.792 126.746,180.909 C126.274,181.074 125.782,181.486 125.537,181.943 C125.282,182.4 125.227,182.824 125.226,183.144 C125.226,183.278 125.236,183.402 125.252,183.515 L127.401,183.216 L125.666,181.913 C123.743,184.477 121.211,186.633 118.399,188.131 C115.587,189.631 112.505,190.47 109.475,190.469 C108.863,190.469 108.253,190.435 107.647,190.366 L107.65,190.367 C103.851,189.932 99.682,188.958 96.3,187.111 L96.287,187.103 C95.919,186.908 95.247,186.477 94.518,185.938 C93.418,185.128 92.14,184.052 91.189,183.056 C90.714,182.561 90.321,182.083 90.081,181.717 C89.961,181.535 89.88,181.383 89.84,181.29 L89.807,181.203 L89.78,181.21 L89.807,181.205 L89.807,181.203 L89.78,181.21 L89.807,181.205 L89.402,181.287 L89.813,181.243 L89.807,181.205 L89.402,181.287 L89.813,181.243 C89.683,180.051 88.612,179.191 87.421,179.32 C86.229,179.45 85.368,180.521 85.498,181.712" fill="#E57266"/>
    <path d="M71.741,125.442 C72.749,123.589 73.961,122.215 75.249,121.318 C76.541,120.422 77.896,119.985 79.322,119.982 C81.112,119.984 83.082,120.685 85.129,122.366 C85.808,122.925 86.812,122.828 87.372,122.149 C87.931,121.469 87.834,120.465 87.155,119.905 C84.673,117.857 81.973,116.793 79.322,116.795 C77.219,116.792 75.19,117.47 73.426,118.704 C71.659,119.937 70.144,121.709 68.941,123.919 C68.52,124.692 68.806,125.66 69.579,126.081 C70.352,126.501 71.32,126.216 71.741,125.443" fill="#6A4136"/>
    <path d="M147.019,120.322 C149.332,118.183 151.702,117.207 153.815,117.209 C155.083,117.211 156.286,117.547 157.444,118.262 C158.598,118.978 159.707,120.09 160.684,121.671 C161.147,122.419 162.129,122.651 162.878,122.189 C163.626,121.726 163.858,120.744 163.396,119.995 C162.204,118.066 160.76,116.569 159.124,115.554 C157.491,114.538 155.666,114.019 153.815,114.022 C150.705,114.024 147.596,115.442 144.854,117.984 C144.208,118.582 144.169,119.59 144.767,120.236 C145.365,120.882 146.374,120.921 147.019,120.323" fill="#6A4136"/>
    <path d="M103.365,171.319 C104.124,169.312 105,167.944 105.775,167.17 C106.162,166.78 106.518,166.537 106.819,166.396 C107.122,166.254 107.368,166.205 107.609,166.204 C107.866,166.205 108.134,166.262 108.463,166.424 C108.952,166.664 109.569,167.173 110.188,168.03 C110.808,168.883 111.424,170.068 111.947,171.562 C112.328,172.649 113.518,173.221 114.605,172.84 C115.692,172.459 116.264,171.269 115.883,170.182 C115.038,167.783 113.955,165.846 112.596,164.411 C111.916,163.696 111.16,163.107 110.319,162.688 C109.482,162.27 108.553,162.032 107.609,162.033 C106.727,162.032 105.846,162.241 105.039,162.623 C103.822,163.2 102.771,164.136 101.855,165.342 C100.939,166.552 100.147,168.045 99.465,169.839 C99.056,170.915 99.598,172.12 100.675,172.529 C101.751,172.938 102.956,172.396 103.365,171.32" fill="#ED9973"/>
    <path d="M108.085,20.775 C73.769,20.775 38.583,36.331 26.494,69.71 C22.236,81.468 23.495,118.265 23.779,121.136 C23.994,123.323 24.072,123.235 25.966,123.831 C28.867,124.749 30.156,126.028 31.288,128.831 C32.451,131.731 33.193,134.612 33.837,137.64 C34.277,139.7 34.804,141.751 35.273,143.821 C35.517,144.827 36.747,147.972 36.337,148.948 C37.06,147.21 35.702,113.919 37.441,109.573 C40.556,101.78 47.997,97.444 52.9,91.058 C58.408,83.909 63.476,78.509 71.132,73.235 C65.722,80.56 56.933,90.286 55.81,99.319 C70.068,92.659 84.013,85.042 97.05,76.78 C94.013,82.786 89.374,88.538 87.05,94.749 C101.269,89.983 113.69,78.509 127.597,74.28 C124.472,79.837 121.122,85.628 118.417,91.253 C124.091,86.712 130.507,83.06 136.64,79.202 C141.923,75.882 149.569,68.538 156.103,69.114 C164.306,69.847 169.765,78.128 177.558,79.993 C190.595,83.118 189.589,68.89 185.487,60.94 C166.142,23.324 118.036,20.775 108.085,20.775" fill="#694336"/>
    <path d="M136.239,41.722 C136.513,42.865 106.571,54.72 94.911,61.634 C87.362,66.116 76.415,73.431 75.429,72.767 C74.785,72.337 78.466,67.308 93.046,57.229 C104.403,49.388 136.005,40.658 136.239,41.722" fill="#5E4036"/>
    <path d="M162.196,51.146 C162.45,52.288 132.509,64.153 120.868,71.077 C113.329,75.55 102.362,82.854 101.376,82.2 C100.731,81.761 104.413,76.751 118.993,66.683 C130.36,58.821 161.952,50.111 162.196,51.146" fill="#5E4036"/>
    <path d="M34.12,112.561 C33.925,112.561 33.73,112.542 33.544,112.474 C32.411,112.151 36.747,82.532 51.591,64.886 C77.382,34.202 121.171,37.21 120.624,38.255 C120.077,39.3 83.681,37.22 56.767,68.45 C42.148,85.384 35.038,112.561 34.12,112.561" fill="#5E4036"/>
    <path d="M64.472,149.554 L27.011,124.769 L27.011,129.974 L66.259,161.321 L64.472,149.554" fill="#FFFFFE"/>
    <path d="M40.175,174.163 L73.603,189.886 L74.257,195.374 C74.257,195.374 45.849,187.102 40.175,174.163" fill="#FFFFFE"/>
    <path d="M160.614,155.589 L186.601,131.136 L186.601,137.356 L160.468,166.546 L160.614,155.589" fill="#FFFFFE"/>
    <path d="M179.14,168.968 L152.577,189.583 L151.923,195.071 C151.923,195.071 173.476,181.907 179.14,168.968" fill="#FFFFFE"/>
    <path d="M82.46,221.565 L134.95,221.565 L110.507,274.397 L82.46,221.565" fill="#5AC1D8"/>
    <path d="M176.981,393.714 C176.073,394.27 159.296,287.923 157.919,268.099 C156.728,250.667 152.567,223.772 145.009,221.165 C144.569,221.019 126.679,216.116 122.968,216.116 C122.968,216.116 118.534,239.329 117.899,239.329 C117.274,239.329 92.343,216.116 92.343,216.116 C88.622,216.116 70.761,221.116 70.302,221.165 C62.001,222.073 38.505,269.251 33.007,397.806 C33.007,397.806 140.155,416.487 176.981,393.714" fill="#FFFFFE"/>
    <path d="M176.981,393.714 L176.981,391.802 L176.981,393.692 L178.103,392.17 C177.9,392.02 177.522,391.806 176.981,391.802 L176.981,393.692 L178.103,392.17 L177.01,393.653 L178.48,392.542 C178.409,392.452 178.313,392.328 178.103,392.17 L177.01,393.653 L178.48,392.542 L177.192,393.515 L178.663,392.846 C178.638,392.797 178.611,392.721 178.48,392.542 L177.192,393.515 L178.663,392.846 L177.981,393.156 L178.688,392.905 L178.663,392.846 L177.981,393.156 L178.688,392.905 C178.681,392.892 178.618,392.677 178.548,392.38 C178.263,391.196 177.757,388.574 177.113,384.957 C174.851,372.268 170.807,347.062 167.19,323.006 C165.382,310.977 163.679,299.233 162.359,289.481 C161.04,279.737 160.101,271.952 159.825,267.966 C159.223,259.167 157.881,248.023 155.714,238.642 C154.626,233.947 153.341,229.698 151.78,226.34 C150.996,224.66 150.145,223.198 149.16,222 C148.176,220.81 147.037,219.848 145.632,219.358 L145.613,219.352 L145.449,219.302 C145.05,219.186 143.729,218.822 141.872,218.328 C139.091,217.589 135.149,216.571 131.542,215.732 C129.738,215.313 128.019,214.938 126.555,214.665 C125.823,214.528 125.155,214.416 124.561,214.336 C123.964,214.257 123.453,214.206 122.968,214.205 C122.05,214.205 121.262,214.856 121.09,215.758 C121.09,215.758 121.021,216.118 120.899,216.751 C120.472,218.968 119.392,224.517 118.353,229.497 C117.834,231.986 117.324,234.336 116.917,236.037 C116.714,236.885 116.533,237.576 116.404,238.003 C116.341,238.213 116.285,238.365 116.279,238.377 L117.23,238.784 L116.377,238.206 C116.283,238.35 116.281,238.378 116.279,238.377 L117.23,238.784 L116.377,238.206 L117.807,239.174 L116.69,237.859 C116.5,238.025 116.43,238.133 116.377,238.206 L117.807,239.174 L116.69,237.859 L117.886,239.267 L117.115,237.589 C116.918,237.68 116.787,237.778 116.69,237.859 L117.886,239.267 L117.115,237.589 L117.899,239.296 L117.899,237.418 C117.582,237.417 117.31,237.499 117.115,237.589 L117.899,239.296 L117.899,237.418 L117.899,239.271 L118.526,237.526 C118.412,237.491 118.26,237.425 117.899,237.418 L117.899,239.271 L118.526,237.526 L118,238.991 L118.813,237.66 C118.777,237.642 118.736,237.605 118.526,237.526 L118,238.991 L118.813,237.66 L118.473,238.216 L118.835,237.675 L118.813,237.66 L118.473,238.216 L118.835,237.675 C118.834,237.676 118.63,237.523 118.374,237.309 C117.375,236.483 115.289,234.624 112.775,232.345 C108.997,228.919 104.213,224.51 100.375,220.96 C98.456,219.185 96.773,217.624 95.57,216.507 C94.367,215.39 93.647,214.719 93.645,214.717 C93.293,214.389 92.824,214.205 92.343,214.205 C91.675,214.208 90.94,214.301 90.041,214.444 C86.937,214.949 82.028,216.151 77.78,217.24 C75.662,217.784 73.718,218.298 72.282,218.679 C71.564,218.869 70.972,219.026 70.554,219.135 C70.346,219.189 70.179,219.232 70.07,219.259 L69.958,219.285 L69.953,219.287 L70.251,220.682 L70.1,219.264 C69.953,219.282 69.962,219.286 69.953,219.287 L70.251,220.682 L70.1,219.264 L70.094,219.265 C69.151,219.373 68.308,219.761 67.503,220.304 C66,221.333 64.543,222.959 62.967,225.266 C60.228,229.301 57.197,235.457 54.065,244.113 C44.688,270.064 34.49,318.496 31.098,397.724 C31.057,398.68 31.736,399.524 32.679,399.688 C32.737,399.696 74.151,406.924 114.527,406.928 C126.836,406.927 139.052,406.256 150.009,404.486 C160.965,402.709 170.668,399.856 177.987,395.339 C178.713,394.89 179.053,394.013 178.82,393.191 C178.586,392.37 177.836,391.802 176.981,391.802 L176.981,393.714 L175.976,392.088 C169.348,396.195 160.063,398.994 149.398,400.712 C138.733,402.437 126.695,403.106 114.527,403.105 C94.561,403.106 74.242,401.31 58.931,399.513 C51.274,398.614 44.869,397.716 40.381,397.042 C38.137,396.705 36.372,396.425 35.17,396.229 C34.569,396.131 34.109,396.054 33.8,396.002 C33.49,395.95 33.336,395.923 33.335,395.923 L33.007,397.806 L34.917,397.887 C37.66,333.718 44.899,289.907 52.448,262.119 C56.219,248.228 60.075,238.337 63.437,231.961 C65.113,228.775 66.673,226.468 67.97,225.013 C68.616,224.285 69.195,223.774 69.648,223.468 C70.102,223.157 70.416,223.071 70.51,223.065 L70.504,223.065 C70.635,223.05 70.669,223.041 70.715,223.032 C70.862,223.002 70.979,222.972 71.177,222.922 C71.885,222.741 73.354,222.347 75.24,221.851 C78.065,221.107 81.806,220.139 85.141,219.362 C86.807,218.973 88.373,218.632 89.655,218.392 C90.296,218.273 90.866,218.178 91.332,218.116 C91.796,218.054 92.165,218.026 92.343,218.027 L92.343,216.116 L91.04,217.515 C91.042,217.516 97.276,223.321 103.593,229.129 C106.752,232.034 109.93,234.938 112.366,237.124 C113.585,238.218 114.616,239.131 115.379,239.783 C115.762,240.111 116.074,240.371 116.33,240.572 C116.461,240.675 116.573,240.759 116.707,240.85 C116.776,240.896 116.847,240.943 116.97,241.008 C117.034,241.04 117.109,241.078 117.234,241.123 C117.364,241.164 117.529,241.233 117.899,241.24 C118.273,241.24 118.583,241.132 118.795,241.021 C119.216,240.79 119.354,240.588 119.469,240.452 C119.669,240.18 119.72,240.039 119.789,239.891 C119.904,239.619 119.985,239.368 120.08,239.053 C120.421,237.905 120.866,235.991 121.372,233.675 C122.882,226.755 124.843,216.483 124.845,216.475 L122.968,216.116 L122.968,218.027 C123.232,218.024 123.87,218.086 124.662,218.215 C127.477,218.66 132.394,219.833 136.588,220.903 C138.69,221.438 140.622,221.949 142.05,222.333 C142.764,222.525 143.352,222.685 143.771,222.801 C143.98,222.859 144.147,222.906 144.265,222.939 L144.399,222.977 L144.429,222.986 L144.69,222.122 L144.404,222.978 L144.429,222.986 L144.69,222.122 L144.404,222.978 L145.009,221.165 L144.385,222.972 C144.87,223.133 145.514,223.583 146.21,224.43 C147.433,225.9 148.704,228.482 149.809,231.715 C151.482,236.568 152.852,242.881 153.885,249.376 C154.919,255.873 155.625,262.564 156.012,268.229 C156.365,273.296 157.667,283.604 159.444,296.331 C162.107,315.406 165.832,339.824 168.987,359.484 C170.564,369.315 171.999,377.954 173.087,384.146 C173.632,387.244 174.09,389.727 174.439,391.459 C174.615,392.327 174.761,393.002 174.888,393.504 C174.953,393.758 175.008,393.961 175.083,394.178 C175.125,394.291 175.162,394.401 175.268,394.597 C175.327,394.697 175.394,394.823 175.58,395.023 C175.677,395.123 175.807,395.246 176.027,395.373 C176.243,395.496 176.575,395.625 176.981,395.625 L176.981,393.714 L175.976,392.088 L176.981,393.714" fill="#8A8B8A"/>
    <path d="M121.913,279.573 C121.913,282.561 119.481,285.003 116.493,285.003 C113.485,285.003 111.054,282.561 111.054,279.573 C111.054,276.575 113.485,274.144 116.493,274.144 C119.481,274.144 121.913,276.575 121.913,279.573" fill="#FFFFFE"/>
    <path d="M121.913,279.573 L120.639,279.573 C120.638,280.718 120.176,281.751 119.422,282.509 C118.665,283.265 117.636,283.728 116.493,283.728 C115.338,283.728 114.304,283.263 113.546,282.508 C112.791,281.75 112.328,280.718 112.328,279.573 C112.328,278.422 112.791,277.392 113.546,276.635 C114.303,275.882 115.336,275.418 116.493,275.418 C117.638,275.418 118.667,275.88 119.422,276.634 C120.176,277.391 120.638,278.422 120.639,279.573 L123.187,279.573 C123.186,275.871 120.188,272.871 116.493,272.869 C112.783,272.869 109.78,275.87 109.779,279.573 C109.781,283.267 112.78,286.275 116.493,286.277 C120.191,286.273 123.184,283.266 123.187,279.573 L121.913,279.573" fill="#8A8B8A"/>
    <path d="M121.913,322.102 C121.913,325.091 119.481,327.532 116.493,327.532 C113.485,327.532 111.054,325.091 111.054,322.102 C111.054,319.095 113.485,316.663 116.493,316.663 C119.481,316.663 121.913,319.095 121.913,322.102" fill="#FFFFFE"/>
    <path d="M121.913,322.102 L120.639,322.102 C120.638,323.247 120.176,324.28 119.422,325.038 C118.665,325.794 117.636,326.257 116.493,326.258 C115.338,326.257 114.304,325.792 113.546,325.037 C112.791,324.279 112.328,323.247 112.328,322.102 C112.328,319.797 114.188,317.937 116.493,317.937 C117.638,317.938 118.666,318.399 119.422,319.154 C120.175,319.912 120.638,320.945 120.639,322.102 L123.187,322.102 C123.186,318.393 120.188,315.39 116.493,315.389 C114.642,315.388 112.955,316.141 111.745,317.354 C110.531,318.565 109.779,320.252 109.779,322.102 C109.781,325.797 112.78,328.804 116.493,328.806 C120.191,328.802 123.184,325.796 123.187,322.102 L121.913,322.102" fill="#8A8B8A"/>
    <path d="M121.913,364.622 C121.913,367.63 119.481,370.061 116.493,370.061 C113.485,370.061 111.054,367.63 111.054,364.622 C111.054,361.624 113.485,359.192 116.493,359.192 C119.481,359.192 121.913,361.624 121.913,364.622" fill="#FFFFFE"/>
    <path d="M121.913,364.622 L120.639,364.622 C120.638,365.779 120.175,366.813 119.422,367.57 C118.666,368.325 117.638,368.787 116.493,368.787 C114.188,368.787 112.328,366.927 112.328,364.622 C112.328,363.471 112.791,362.44 113.546,361.684 C114.303,360.93 115.336,360.467 116.493,360.467 C117.638,360.467 118.667,360.929 119.422,361.683 C120.176,362.439 120.638,363.471 120.639,364.622 L123.187,364.622 C123.186,360.92 120.188,357.92 116.493,357.918 C112.783,357.918 109.78,360.919 109.779,364.622 C109.779,366.473 110.531,368.16 111.745,369.371 C112.955,370.583 114.642,371.336 116.493,371.336 C120.188,371.334 123.186,368.331 123.187,364.622 L121.913,364.622" fill="#8A8B8A"/>
    <path d="M191.659,78.519 C206.884,58.782 184.325,35.667 184.325,35.667 C147.323,-1.989 93.505,7.552 93.505,7.552 C93.505,7.552 37.724,12.103 13.349,58.938 C13.349,58.938 -4.053,82.552 22.47,109.739 L24.335,122.22 L28.554,111.263 C33.613,102.386 52.929,75.12 102.499,67.708 C154.218,59.974 176.601,84.925 182.636,90.931 L191.659,78.519" fill="#FFFFFE"/>
    <path d="M191.659,78.519 L193.172,79.686 C197.275,74.382 198.856,68.708 198.847,63.359 C198.846,59.393 198.003,55.602 196.764,52.154 C194.902,46.982 192.15,42.563 189.861,39.411 C187.572,36.261 185.74,34.382 185.693,34.332 L185.688,34.328 C173.154,21.57 158.721,14.12 145.083,9.873 C131.441,5.625 118.583,4.562 109.08,4.561 C99.447,4.562 93.255,5.655 93.171,5.67 L93.505,7.552 L93.349,5.647 C93.222,5.66 79.105,6.813 61.84,13.914 C53.209,17.467 43.787,22.51 34.953,29.665 C26.121,36.819 17.879,46.092 11.654,58.056 L13.349,58.938 L11.81,57.804 C11.742,57.898 10.261,59.921 8.784,63.446 C7.308,66.969 5.833,72.006 5.833,78.091 C5.831,82.726 6.694,87.966 9.044,93.547 C11.391,99.129 15.22,105.046 21.102,111.074 L22.47,109.739 L20.58,110.022 L22.445,122.502 C22.573,123.358 23.266,124.025 24.126,124.119 C24.987,124.214 25.808,123.714 26.119,122.906 L30.338,111.949 L28.554,111.263 L30.215,112.209 C32.644,107.946 38.578,99.124 49.991,90.458 C61.407,81.793 78.3,73.262 102.782,69.598 C109.524,68.59 115.749,68.146 121.489,68.146 C140.343,68.15 153.962,72.919 163.546,78.294 C168.337,80.984 172.116,83.829 175.021,86.323 C177.93,88.821 179.944,90.947 181.287,92.285 C181.684,92.68 182.229,92.88 182.788,92.836 C183.346,92.791 183.852,92.507 184.182,92.054 L193.205,79.642 L191.659,78.519 L193.172,79.686 L191.659,78.519 L190.113,77.394 L181.09,89.807 L182.636,90.931 L183.984,89.576 C182.708,88.307 180.564,86.043 177.51,83.422 C172.924,79.484 166.242,74.697 157.039,70.907 C147.837,67.114 136.115,64.322 121.489,64.323 C115.552,64.323 109.137,64.782 102.216,65.818 C77.127,69.566 59.578,78.374 47.679,87.414 C35.776,96.453 29.523,105.702 26.893,110.316 L26.77,110.576 L25.155,114.772 L24.36,109.456 C24.301,109.061 24.117,108.69 23.838,108.404 C18.249,102.674 14.714,97.167 12.567,92.065 C10.421,86.961 9.656,82.256 9.655,78.091 C9.655,72.629 10.983,68.089 12.309,64.923 C12.972,63.341 13.633,62.105 14.121,61.276 C14.364,60.862 14.565,60.549 14.7,60.346 C14.767,60.244 14.818,60.17 14.851,60.124 L14.884,60.077 L14.89,60.069 L14.32,59.654 L14.888,60.072 L14.89,60.069 L14.32,59.654 L14.888,60.072 C14.954,59.981 14.992,59.921 15.044,59.821 C21.006,48.367 28.877,39.508 37.36,32.636 C50.079,22.329 64.187,16.514 75.111,13.295 C80.571,11.685 85.232,10.723 88.516,10.165 C90.159,9.886 91.456,9.708 92.338,9.6 C92.778,9.546 93.115,9.51 93.338,9.487 C93.45,9.476 93.534,9.468 93.588,9.463 L93.66,9.457 L93.839,9.434 L93.893,9.425 C94.515,9.319 100.321,8.384 109.08,8.384 C118.299,8.383 130.785,9.422 143.946,13.523 C157.111,17.625 170.938,24.772 182.962,37.007 L182.957,37.002 L182.96,37.005 C183.088,37.135 186.156,40.335 189.149,45.214 C192.153,50.093 195.036,56.633 195.025,63.359 C195.015,67.979 193.725,72.696 190.146,77.351 L190.113,77.394 L191.659,78.519" fill="#8A8B8A"/>
    <path d="M22.487,102.873 L26.803,92.541 L25.683,92.073 L26.719,92.707 C29.214,88.629 35.277,80.217 46.848,71.906 C58.42,63.595 75.501,55.373 100.1,51.692 C107.936,50.52 115.178,50.013 121.844,50.013 C158.844,50.019 178.191,65.616 183.104,70.206 L183.935,69.319 L183.07,70.172 L190.609,77.818 C191.08,78.296 191.848,78.301 192.326,77.831 C192.803,77.36 192.809,76.591 192.338,76.113 L184.799,68.467 L184.764,68.433 C179.548,63.538 159.553,47.579 121.844,47.585 C115.054,47.585 107.692,48.101 99.741,49.291 C74.781,53.022 57.306,61.401 45.431,69.933 C33.554,78.465 27.279,87.138 24.647,91.439 L24.562,91.605 L20.246,101.937 C19.987,102.556 20.279,103.267 20.898,103.526 C21.517,103.784 22.228,103.492 22.487,102.873" fill="#8A8B8A"/>
    <path d="M30.87,85.163 L21.866,75.68 C21.404,75.194 20.636,75.174 20.15,75.636 C19.663,76.098 19.643,76.866 20.105,77.352 L29.109,86.835 C29.571,87.321 30.339,87.341 30.826,86.879 C31.312,86.418 31.332,85.649 30.87,85.163" fill="#8A8B8A"/>
    <path d="M40.63,75.708 C40.582,75.436 40.502,75.235 40.41,75.019 C40.236,74.622 39.997,74.197 39.701,73.701 C38.671,71.986 36.923,69.454 35.436,66.888 C34.693,65.609 34.02,64.326 33.546,63.171 C33.068,62.02 32.807,60.989 32.813,60.312 C32.813,59.959 32.875,59.718 32.955,59.563 C33.039,59.407 33.125,59.307 33.338,59.188 L32.763,58.118 L33.325,59.194 L33.102,58.767 L33.102,59.256 C33.13,59.257 33.223,59.248 33.325,59.194 L33.102,58.767 L33.102,59.256 L33.102,59.149 L33.089,59.256 L33.102,59.256 L33.102,59.149 L33.089,59.256 C33.107,59.246 33.43,59.356 33.787,59.597 C34.337,59.951 35.011,60.538 35.559,61.089 C35.834,61.364 36.08,61.632 36.27,61.854 C36.457,62.072 36.596,62.264 36.618,62.303 L36.621,62.309 C37.952,64.457 38.871,67.684 39.082,70.28 C39.138,70.949 39.726,71.445 40.394,71.389 C41.062,71.332 41.559,70.745 41.502,70.077 C41.244,67.107 40.288,63.654 38.69,61.037 L38.694,61.043 C38.587,60.868 38.469,60.71 38.325,60.529 C37.828,59.911 37.029,59.072 36.14,58.329 C35.695,57.958 35.232,57.615 34.749,57.341 C34.26,57.075 33.767,56.841 33.102,56.828 C32.822,56.827 32.502,56.884 32.201,57.042 L32.188,57.048 C31.577,57.372 31.082,57.878 30.789,58.464 C30.493,59.05 30.385,59.684 30.385,60.312 C30.396,61.791 30.939,63.337 31.679,64.963 C32.799,67.39 34.432,69.962 35.806,72.096 C36.492,73.161 37.114,74.115 37.563,74.858 C37.787,75.229 37.968,75.548 38.087,75.785 C38.147,75.903 38.19,76 38.215,76.063 L38.238,76.129 L38.24,76.133 L38.523,76.065 L38.236,76.113 L38.24,76.133 L38.523,76.065 L38.236,76.113 C38.347,76.775 38.974,77.22 39.635,77.108 C40.297,76.997 40.742,76.37 40.63,75.709" fill="#8A8B8A"/>
    <path d="M177.57,64.646 L183.41,52.927 C183.709,52.327 183.465,51.598 182.865,51.299 C182.264,51 181.535,51.244 181.236,51.844 L175.396,63.563 C175.097,64.163 175.342,64.892 175.942,65.191 C176.542,65.49 177.271,65.246 177.57,64.646" fill="#8A8B8A"/>
    <path d="M165.713,57.043 L165.407,57.085 L165.716,57.067 L165.713,57.043 L165.407,57.085 L165.716,57.067 L165.716,57.06 C165.713,56.996 165.746,56.708 165.826,56.338 C166.105,55.01 166.871,52.556 167.565,49.922 C168.257,47.273 168.895,44.433 168.9,42.046 C168.896,40.932 168.768,39.899 168.33,38.976 C168.11,38.518 167.799,38.087 167.383,37.747 C166.969,37.406 166.456,37.17 165.907,37.064 C165.786,37.04 165.666,37.029 165.552,37.029 C165.084,37.033 164.712,37.191 164.41,37.371 C163.884,37.693 163.494,38.116 163.116,38.585 C162.559,39.29 162.067,40.115 161.674,40.869 C161.478,41.246 161.308,41.604 161.172,41.921 C161.036,42.243 160.934,42.508 160.863,42.78 L160.865,42.774 C160.484,44.241 160.319,45.855 160.319,47.468 C160.319,49.116 160.492,50.761 160.815,52.235 C160.958,52.89 161.605,53.305 162.26,53.162 C162.916,53.018 163.331,52.371 163.187,51.716 C162.906,50.434 162.747,48.944 162.747,47.468 C162.746,46.025 162.9,44.592 163.215,43.385 L163.217,43.378 C163.224,43.347 163.267,43.212 163.334,43.046 C163.571,42.45 164.103,41.398 164.662,40.582 C164.939,40.174 165.229,39.82 165.448,39.62 C165.556,39.519 165.645,39.46 165.677,39.443 L165.688,39.437 L165.552,39.114 L165.552,39.458 L165.688,39.437 L165.552,39.114 L165.552,39.458 L165.552,38.864 L165.438,39.446 L165.552,39.458 L165.552,38.864 L165.438,39.446 C165.632,39.487 165.742,39.545 165.845,39.627 C165.993,39.747 166.152,39.971 166.277,40.385 C166.401,40.794 166.473,41.369 166.472,42.046 C166.473,43.157 166.288,44.537 165.998,45.985 C165.563,48.162 164.901,50.498 164.341,52.472 C164.061,53.46 163.807,54.358 163.617,55.119 C163.522,55.499 163.444,55.846 163.386,56.161 C163.329,56.48 163.289,56.759 163.287,57.06 C163.287,57.158 163.292,57.261 163.308,57.377 C163.4,58.041 164.013,58.505 164.678,58.413 C165.342,58.321 165.806,57.707 165.714,57.043" fill="#8A8B8A"/>
    <path d="M118.775,34.694 L118.922,48.229 C118.929,48.9 119.478,49.438 120.149,49.43 C120.819,49.423 121.357,48.873 121.35,48.203 L121.203,34.668 C121.196,33.997 120.647,33.459 119.976,33.467 C119.305,33.474 118.768,34.023 118.775,34.694" fill="#8A8B8A"/>
    <path d="M66.027,47.298 L72.931,57.444 C73.308,57.998 74.064,58.142 74.618,57.764 C75.172,57.387 75.316,56.632 74.939,56.077 L68.034,45.931 C67.657,45.377 66.902,45.233 66.347,45.611 C65.793,45.988 65.649,46.743 66.027,47.298" fill="#8A8B8A"/>
    <path d="M64.472,149.554 L71.357,195.081 C83.866,201.897 99.394,205.345 119.091,205.618 C136.122,205.394 149.94,202.835 161.415,197.806 L168.593,149.554 C121.288,134.798 64.472,149.554 64.472,149.554" fill="#FFFFFE"/>
    <path d="M542.06,187.474 C544.589,190.628 548.632,191.487 555.321,187.444 C554.032,192.532 556.601,199.417 552.382,202.923 C529.599,221.946 507.001,194.905 498.729,184.817 C484.618,167.61 476.952,144.749 477.157,122.552 C477.294,107.718 481.171,100.647 496.659,98.03 C505.644,96.526 515.468,97.386 522.343,103.948 C530.604,111.829 531.62,120.091 532.919,130.706 C534.735,145.501 535.771,160.159 537.958,174.905 C538.671,179.72 539.735,184.563 542.06,187.474" fill="#8E5435"/>
    <path d="M363.173,335.364 C357.733,341.673 348.466,342.61 342.489,337.435 C336.493,332.269 336.044,322.972 341.483,316.663 C346.923,310.364 356.181,309.446 362.187,314.612 C368.163,319.788 368.612,329.085 363.173,335.364" fill="#F6C39A"/>
    <path d="M441.571,242.269 C437.743,256.565 399.696,302.366 390.155,312.923 C387.011,316.448 371.815,333.987 369.364,332.395 C368.085,331.565 351.757,310.979 345.556,308.089 C346.093,308.343 358.144,291.927 358.954,290.901 C376.542,268.694 393.388,244.515 413.104,224.144" fill="#FFFFFE"/>
    <path d="M439.725,241.774 C439.318,243.31 438.36,245.504 436.972,248.068 C434.544,252.57 430.819,258.26 426.483,264.362 C419.977,273.52 412.089,283.628 405.054,292.301 C398.021,300.972 391.826,308.224 388.737,311.641 L388.729,311.65 C387.21,313.353 382.971,318.219 378.706,322.649 C376.578,324.86 374.442,326.96 372.688,328.461 C371.815,329.21 371.032,329.809 370.446,330.179 C370.155,330.363 369.913,330.489 369.767,330.549 L369.64,330.594 L369.684,330.774 L369.659,330.591 L369.64,330.594 L369.684,330.774 L369.659,330.591 L369.751,331.269 L369.751,330.586 L369.659,330.591 L369.751,331.269 L369.751,330.586 L369.751,331.796 L370.401,330.79 C370.139,330.619 369.874,330.583 369.751,330.586 L369.751,331.796 L370.401,330.79 L370.405,330.792 L369.788,331.742 L370.51,330.868 L370.405,330.792 L369.788,331.742 L370.51,330.868 L370.422,330.974 L370.513,330.871 L370.51,330.868 L370.422,330.974 L370.513,330.871 C370.489,330.851 370.331,330.697 370.131,330.481 C369.357,329.654 367.835,327.881 365.951,325.701 C363.118,322.422 359.429,318.183 355.886,314.486 C354.113,312.637 352.377,310.923 350.78,309.518 C349.171,308.111 347.75,307.014 346.363,306.356 L345.556,308.089 L344.79,309.84 C345.124,309.984 345.394,310.001 345.57,310.002 C346.037,309.992 346.263,309.877 346.429,309.807 C346.739,309.652 346.848,309.547 346.972,309.449 C347.189,309.263 347.353,309.091 347.552,308.876 C347.916,308.479 348.355,307.957 348.873,307.319 C350.677,305.098 353.411,301.492 355.789,298.322 C356.977,296.739 358.073,295.268 358.91,294.145 C359.329,293.583 359.683,293.108 359.951,292.751 C360.215,292.398 360.407,292.144 360.452,292.088 C378.086,269.817 394.904,245.69 414.478,225.473 C415.212,224.714 415.192,223.504 414.434,222.77 C413.675,222.036 412.465,222.056 411.731,222.814 C391.871,243.339 374.997,267.572 357.456,289.715 C357.381,289.809 357.288,289.931 357.152,290.112 C356.155,291.436 353.052,295.631 350.112,299.501 C348.644,301.433 347.216,303.284 346.132,304.63 C345.591,305.302 345.132,305.851 344.82,306.198 C344.667,306.369 344.545,306.493 344.509,306.526 L344.501,306.532 L345.115,307.231 L344.616,306.449 C344.518,306.513 344.502,306.533 344.501,306.532 L345.115,307.231 L344.616,306.449 L345.495,307.824 L344.871,306.317 C344.738,306.373 344.667,306.418 344.616,306.449 L345.495,307.824 L344.871,306.317 L345.57,308.005 L345.57,306.18 C345.204,306.185 345.006,306.266 344.871,306.317 L345.57,308.005 L345.57,306.18 L345.57,308.057 L346.322,306.338 C345.995,306.197 345.734,306.181 345.57,306.18 L345.57,308.057 L346.322,306.338 C345.365,305.919 344.243,306.351 343.814,307.302 C343.384,308.253 343.802,309.38 344.748,309.821 C345.282,310.065 346.135,310.629 347.106,311.416 C348.819,312.796 350.942,314.851 353.138,317.144 C356.438,320.587 359.924,324.574 362.688,327.77 C364.071,329.37 365.274,330.77 366.195,331.819 C366.656,332.343 367.046,332.779 367.365,333.12 C367.525,333.291 367.667,333.438 367.804,333.571 L368.019,333.768 C368.099,333.835 368.18,333.904 368.324,333.999 L368.327,334.001 C368.8,334.308 369.325,334.411 369.751,334.408 C370.346,334.402 370.801,334.254 371.233,334.079 C372.032,333.742 372.782,333.247 373.618,332.623 C375.066,331.532 376.719,330.029 378.468,328.322 C381.086,325.764 383.898,322.754 386.293,320.117 C388.687,317.484 390.668,315.218 391.581,314.195 L391.573,314.204 C393.992,311.528 398.165,306.677 403.148,300.659 C410.62,291.632 419.894,279.998 427.684,269.244 C431.58,263.866 435.104,258.709 437.855,254.186 C439.231,251.924 440.414,249.82 441.357,247.912 C442.3,246.001 443.005,244.294 443.417,242.763 C443.69,241.743 443.085,240.695 442.065,240.422 C441.046,240.149 439.998,240.755 439.725,241.774" fill="#8A8B8A"/>
    <path d="M523.72,468.343 L496.034,484.573 L466.073,450.97 L454.628,414.163 L482.313,397.942 L493.368,434.095 L523.72,468.343" fill="#F6C39A"/>
    <path d="M525.038,464.495 C524.325,464.212 523.563,463.528 522.714,463.147 C519.267,461.683 497.538,439.3 494.989,434.925 L466.894,452.356 C466.952,452.327 492.099,479.7 493.925,482.591 C491.718,485.354 490.497,487.835 488.788,490.433 C487.499,492.366 486.327,494.397 485.282,496.477 C483.134,500.804 481.142,504.573 484.394,508.88 C487.538,513.06 495.409,509.778 499.403,507.894 C504.696,505.413 508.876,502.952 512.958,498.597 C517.069,494.241 520.976,489.544 524.647,484.993 C526.981,482.093 530.155,479.026 531.034,475.247 C531.845,471.77 529.354,468.899 527.245,466.224 C526.259,464.993 526.2,464.964 525.038,464.495" fill="#C4E6F0"/>
    <path d="M520.478,461.409 C520.058,461.644 520.399,461.985 520.497,463.05 C520.604,464.29 522.255,468.685 522.499,469.983 C522.753,471.419 522.274,474.007 522.128,475.423 C521.337,483.626 509.54,492.552 499.413,499.212 C496.942,500.833 493.319,503.763 490.468,501.546 C487.079,498.909 487.831,492.679 488.036,491.429 C485.673,492.688 482.138,498.929 481.503,501.331 C479.55,509.017 482.802,521.712 494.853,519.661 C509.794,517.093 538.407,490.149 538.446,485.921 C538.495,481.019 533.456,472.571 530.546,468.929 C528.837,466.79 527.304,464.436 525.321,462.522 C524.413,461.644 521.493,460.843 520.478,461.409" fill="#E67492"/>
    <path d="M486.63,492.962 C486.63,492.962 496.171,485.95 505.966,500.257 L512.909,493.489 C512.909,493.489 499.95,482.415 491.522,485.95 L486.63,492.962" fill="#E67492"/>
    <path d="M418.271,490.53 L386.669,484.876 L400.966,404.456 L432.558,410.12 L418.271,490.53" fill="#F6C39A"/>
    <path d="M421.767,488.46 C421.405,487.786 421.269,486.78 420.878,485.931 C419.208,482.571 420.165,481.009 420.771,477.601 C421.425,474.017 421.884,470.364 422.519,466.8 C423.407,461.829 424.296,456.858 425.194,451.868 L393.603,446.214 C393.671,446.233 387.665,478.977 387.196,482.366 C383.71,483.04 380.351,483.753 377.362,484.622 C375.126,485.247 372.909,486.038 370.771,486.946 C366.327,488.831 362.353,490.403 362.03,495.784 C361.718,501.019 369.833,503.645 374.081,504.788 C379.716,506.351 384.501,507.19 390.429,506.536 C396.396,505.901 402.392,504.866 408.144,503.792 C411.815,503.108 416.21,502.845 419.335,500.53 C422.206,498.421 422.187,494.622 422.313,491.214 C422.382,489.642 422.353,489.583 421.767,488.46" fill="#C4E6F0"/>
    <path d="M420.302,483.157 C419.833,483.06 419.882,483.548 419.257,484.417 C418.534,485.442 416.923,489.847 416.269,490.979 C415.536,492.249 413.485,493.899 412.47,494.886 C406.522,500.608 391.757,499.729 379.726,498.196 C376.796,497.835 372.147,497.708 371.425,494.163 C370.556,489.964 375.165,485.716 376.142,484.895 C373.524,484.31 366.776,486.751 364.735,488.177 C358.261,492.737 353.251,503.343 362.968,510.784 C372.802,518.274 415.263,516.653 418.036,513.47 C421.259,509.769 422.929,500.091 423.075,495.423 C423.163,492.669 423.544,489.905 423.261,487.161 C423.134,485.901 421.435,483.392 420.302,483.157" fill="#E67492"/>
    <path d="M374.081,485.149 C374.081,485.149 385.888,486.009 384.052,503.255 L393.71,502.62 C393.71,502.62 391.054,485.784 382.372,482.991 L374.081,485.149" fill="#E67492"/>
    <path d="M524.765,414.808 L501.669,356.546 L447.802,371.477 L447.685,371.477 L399.394,371.692 L383.144,414.808 C383.144,414.808 454.95,443.489 524.765,414.808" fill="#1A1919"/>
    <path d="M430.771,192.854 L463.388,192.854 L463.388,226.624 L430.771,226.624 z" fill="#F6C39A"/>
    <path d="M376.972,171.722 C390.185,199.251 416.122,209.31 445.722,209.739 C489.579,209.085 510.243,189.026 523.28,156.409 C525.487,157.718 528.046,158.528 530.819,158.528 C538.964,158.528 542.685,151.995 542.685,143.958 C542.685,135.921 538.964,129.388 530.819,129.388 C529.638,129.388 528.505,129.573 527.411,129.827 C533.349,68.938 493.144,39.466 445.722,38.861 C423.251,38.577 401.464,48.587 386.024,64.739 C377.011,74.173 373.573,85.804 371.024,98.255 C369.306,106.634 363.085,142.796 376.972,171.722" fill="#F6C39A"/>
    <path d="M474.062,167.395 C474.062,176.712 481.62,184.28 490.966,184.28 C500.292,184.28 507.87,176.712 507.87,167.395 C507.87,158.05 500.292,150.491 490.966,150.491 C481.62,150.491 474.062,158.05 474.062,167.395 z" fill="url(#Gradient_3)"/>
    <path d="M411.396,163.743 C411.396,173.06 403.837,180.628 394.501,180.628 C385.165,180.628 377.597,173.06 377.597,163.743 C377.597,154.397 385.165,146.839 394.501,146.839 C403.837,146.839 411.396,154.397 411.396,163.743 z" fill="url(#Gradient_4)"/>
    <path d="M467.519,138.001 C467.519,142.698 470.985,146.497 475.292,146.497 C479.589,146.497 483.065,142.698 483.065,138.001 C483.065,133.323 479.589,129.505 475.292,129.505 C470.985,129.505 467.519,133.323 467.519,138.001" fill="#1A1919"/>
    <path d="M391.776,138.519 C392.118,143.216 395.858,146.77 400.136,146.477 C404.433,146.194 407.626,142.151 407.284,137.483 C406.962,132.796 403.222,129.241 398.935,129.524 C394.657,129.808 391.444,133.841 391.776,138.519" fill="#1A1919"/>
    <path d="M464.93,181.252 L465.294,181.29 L464.937,181.208 L464.93,181.252 L465.294,181.29 L464.937,181.208 L464.932,181.225 C464.915,181.28 464.839,181.452 464.698,181.67 C464.452,182.058 464.02,182.586 463.492,183.13 C462.699,183.95 461.694,184.82 460.756,185.545 C459.825,186.268 458.924,186.862 458.467,187.103 L458.454,187.111 C455.073,188.957 450.894,189.932 447.084,190.366 C446.483,190.435 445.874,190.469 445.263,190.469 C442.241,190.47 439.159,189.632 436.346,188.131 C433.534,186.633 431,184.477 429.078,181.913 L427.343,183.216 L429.506,183.388 L429.515,183.155 C429.514,182.97 429.499,182.749 429.426,182.48 C429.37,182.279 429.28,182.05 429.131,181.821 C428.913,181.474 428.543,181.149 428.162,180.978 C427.78,180.801 427.425,180.757 427.151,180.757 C427.039,180.757 426.873,180.763 426.668,180.804 C425.492,181.036 424.727,182.178 424.96,183.354 C425.192,184.529 426.334,185.294 427.51,185.061 L427.151,183.249 L427.151,185.097 C427.225,185.097 427.349,185.093 427.51,185.061 L427.151,183.249 L427.151,185.097 L427.151,183.158 L426.438,184.959 C426.726,185.072 426.973,185.097 427.151,185.097 L427.151,183.158 L426.438,184.959 L427.181,183.083 L425.807,184.56 C425.996,184.738 426.225,184.876 426.438,184.959 L427.181,183.083 L425.807,184.56 L427.166,183.099 L425.266,183.714 C425.344,183.962 425.518,184.293 425.807,184.56 L427.166,183.099 L425.266,183.714 L426.992,183.155 L425.175,183.155 C425.176,183.278 425.185,183.46 425.266,183.714 L426.992,183.155 L425.175,183.155 L426.579,183.155 L425.179,183.044 L425.175,183.155 L426.579,183.155 L425.179,183.044 C425.137,183.571 425.29,184.095 425.607,184.518 C427.925,187.605 430.928,190.16 434.305,191.961 C437.68,193.76 441.439,194.808 445.263,194.809 C446.033,194.809 446.807,194.767 447.579,194.678 C451.741,194.194 456.409,193.158 460.529,190.922 L460.515,190.93 C461.188,190.568 461.956,190.059 462.811,189.431 C464.085,188.49 465.503,187.305 466.699,186.056 C467.298,185.428 467.842,184.787 468.292,184.104 C468.733,183.413 469.127,182.698 469.247,181.703 C469.371,180.51 468.506,179.444 467.314,179.319 C466.122,179.195 465.055,180.06 464.931,181.252" fill="#E57266"/>
    <path d="M485.803,123.919 C484.6,121.709 483.085,119.937 481.318,118.704 C479.555,117.47 477.525,116.792 475.424,116.795 C472.773,116.793 470.075,117.858 467.598,119.906 C466.919,120.467 466.823,121.471 467.383,122.15 C467.943,122.829 468.948,122.925 469.627,122.365 C471.668,120.685 473.635,119.984 475.424,119.982 C476.849,119.985 478.203,120.421 479.495,121.318 C480.783,122.215 481.995,123.589 483.003,125.442 C483.424,126.215 484.392,126.501 485.165,126.081 C485.938,125.66 486.224,124.692 485.803,123.919" fill="#6A4136"/>
    <path d="M409.891,117.985 C407.153,115.442 404.043,114.024 400.932,114.022 C399.08,114.019 397.255,114.537 395.621,115.554 C393.984,116.569 392.54,118.066 391.348,119.995 C390.885,120.744 391.117,121.726 391.866,122.189 C392.615,122.652 393.597,122.42 394.06,121.671 C395.037,120.09 396.146,118.979 397.301,118.262 C398.459,117.547 399.663,117.211 400.932,117.209 C403.046,117.207 405.416,118.183 407.724,120.321 C408.369,120.92 409.377,120.882 409.976,120.237 C410.574,119.592 410.537,118.584 409.892,117.985" fill="#6A4136"/>
    <path d="M455.279,169.838 C454.367,167.449 453.269,165.586 451.927,164.229 C451.255,163.554 450.515,163.006 449.706,162.623 C448.898,162.241 448.017,162.032 447.136,162.033 C446.192,162.032 445.263,162.27 444.426,162.689 C443.165,163.319 442.098,164.322 441.183,165.582 C440.269,166.846 439.5,168.384 438.87,170.184 C438.49,171.272 439.063,172.461 440.151,172.841 C441.239,173.221 442.428,172.647 442.808,171.56 C443.5,169.567 444.367,168.128 445.174,167.285 C445.576,166.861 445.957,166.585 446.283,166.423 C446.612,166.262 446.879,166.205 447.136,166.204 C447.376,166.205 447.622,166.254 447.925,166.395 C448.375,166.606 448.954,167.055 449.565,167.863 C450.177,168.666 450.809,169.815 451.379,171.32 C451.788,172.396 452.993,172.938 454.07,172.529 C455.146,172.12 455.688,170.915 455.279,169.839" fill="#ED9973"/>
    <path d="M418.505,41.722 C418.231,42.865 448.173,54.72 459.833,61.634 C467.382,66.116 478.339,73.431 479.315,72.767 C479.96,72.337 476.278,67.308 461.698,57.229 C450.351,49.388 418.739,40.658 418.505,41.722" fill="#5E4036"/>
    <path d="M490.272,149.554 L527.743,124.769 L527.743,129.974 L488.485,161.321 L490.272,149.554" fill="#FFFFFE"/>
    <path d="M514.569,174.163 L481.142,189.886 L480.487,195.374 C480.487,195.374 508.905,187.102 514.569,174.163" fill="#FFFFFE"/>
    <path d="M394.14,155.589 L368.144,131.136 L368.144,137.356 L394.276,166.546 L394.14,155.589" fill="#FFFFFE"/>
    <path d="M375.604,168.968 L402.177,189.583 L402.821,195.071 C402.821,195.071 381.269,181.907 375.604,168.968" fill="#FFFFFE"/>
    <path d="M472.304,221.565 L419.804,221.565 L444.247,274.397 L472.304,221.565" fill="#E67492"/>
    <path d="M377.763,393.714 C378.671,394.27 395.458,287.923 396.825,268.099 C398.017,250.667 402.177,223.772 409.735,221.165 C410.175,221.019 428.065,216.116 431.776,216.116 C431.776,216.116 436.22,239.329 436.845,239.329 C437.47,239.329 462.401,216.116 462.401,216.116 C466.112,216.116 479.11,219.886 479.569,219.935 C487.86,220.852 521.278,266.175 526.786,394.72 C526.786,394.72 414.589,416.487 377.763,393.714" fill="#FFFFFE"/>
    <path d="M377.763,393.714 L377.763,395.625 C378.031,395.625 378.274,395.568 378.464,395.493 C378.846,395.337 379.034,395.153 379.163,395.024 C379.406,394.758 379.46,394.621 379.523,394.507 C379.627,394.291 379.664,394.168 379.711,394.024 C379.796,393.753 379.872,393.453 379.962,393.065 C380.303,391.586 380.816,388.883 381.476,385.169 C383.779,372.192 387.806,347.076 391.402,323.146 C393.199,311.183 394.888,299.519 396.199,289.82 C397.51,280.114 398.443,272.405 398.732,268.23 C399.32,259.598 400.655,248.579 402.755,239.503 C403.801,234.969 405.047,230.916 406.429,227.954 C407.117,226.473 407.84,225.27 408.534,224.43 C409.229,223.583 409.874,223.133 410.358,222.972 L409.735,221.165 L410.34,222.978 L409.946,221.796 L410.315,222.986 L410.34,222.978 L409.946,221.796 L410.315,222.986 L410.333,222.981 C410.452,222.946 410.857,222.832 411.441,222.673 C413.496,222.111 417.903,220.935 422.168,219.906 C424.3,219.391 426.399,218.913 428.137,218.568 C429.005,218.395 429.783,218.256 430.418,218.163 C431.048,218.069 431.553,218.025 431.776,218.027 L431.776,216.116 L429.899,216.475 C429.9,216.48 431.011,222.288 432.204,228.106 C432.8,231.017 433.416,233.927 433.927,236.133 C434.184,237.239 434.412,238.163 434.61,238.856 C434.71,239.207 434.798,239.491 434.906,239.768 C434.964,239.911 435.017,240.045 435.143,240.256 C435.211,240.364 435.29,240.495 435.488,240.69 C435.589,240.786 435.724,240.901 435.939,241.016 C436.152,241.129 436.465,241.24 436.845,241.24 C437.215,241.233 437.38,241.164 437.51,241.123 C437.75,241.033 437.834,240.974 437.923,240.923 C438.082,240.825 438.184,240.748 438.309,240.654 C438.763,240.305 439.429,239.735 440.337,238.939 C443.488,236.172 449.316,230.828 454.374,226.16 C459.429,221.495 463.702,217.516 463.704,217.515 L462.401,216.116 L462.401,218.027 C462.708,218.026 463.254,218.073 463.911,218.17 C466.24,218.505 469.975,219.4 473.117,220.212 C474.692,220.618 476.129,221.004 477.2,221.292 C477.736,221.436 478.18,221.556 478.511,221.643 C478.677,221.687 478.814,221.722 478.929,221.75 L479.096,221.789 C479.161,221.802 479.194,221.814 479.367,221.835 L479.359,221.834 C479.485,221.842 479.888,221.956 480.434,222.283 C481.469,222.886 482.981,224.18 484.716,226.203 C487.767,229.743 491.56,235.499 495.558,243.76 C507.57,268.553 521.5,315.91 524.876,394.801 L526.786,394.72 L526.422,392.843 C526.421,392.843 526.24,392.879 525.878,392.947 C520.467,393.969 475.452,402.196 434.779,402.191 C423.436,402.192 412.435,401.551 402.763,399.955 C393.091,398.365 384.755,395.799 378.768,392.088 L377.763,393.714 L377.763,395.625 L377.763,393.714 L376.757,395.339 C383.417,399.45 392.175,402.078 402.141,403.727 C412.107,405.37 423.291,406.013 434.779,406.014 C478.678,406.008 527.088,396.604 527.15,396.596 C528.078,396.416 528.736,395.583 528.696,394.638 C525.934,330.209 516.18,286.559 506.016,258.81 C500.931,244.933 495.749,235.035 491.246,228.473 C488.991,225.191 486.91,222.743 485.046,221.028 C484.111,220.171 483.231,219.495 482.376,218.99 C481.519,218.489 480.69,218.141 479.78,218.035 L479.771,218.034 L479.608,219.569 L479.901,218.053 C479.884,218.05 479.862,218.044 479.771,218.034 L479.608,219.569 L479.901,218.053 L479.777,218.692 L479.912,218.055 L479.901,218.053 L479.777,218.692 L479.912,218.055 C479.912,218.055 479.81,218.031 479.675,217.996 C479.151,217.861 478.026,217.554 476.609,217.176 C474.479,216.609 471.67,215.877 469.048,215.282 C467.736,214.985 466.471,214.721 465.346,214.528 C464.215,214.336 463.25,214.208 462.401,214.205 C461.92,214.205 461.451,214.389 461.099,214.717 C461.098,214.718 460.71,215.079 460.028,215.714 C457.639,217.933 451.656,223.486 446.208,228.478 C443.484,230.974 440.892,233.331 438.957,235.056 C437.99,235.917 437.186,236.622 436.624,237.097 C436.345,237.333 436.123,237.513 435.996,237.61 L435.924,237.664 L435.909,237.675 L436.509,238.574 L436.013,237.614 L435.909,237.675 L436.509,238.574 L436.013,237.614 L436.789,239.115 L436.223,237.524 C436.114,237.564 436.056,237.593 436.013,237.614 L436.789,239.115 L436.223,237.524 L436.844,239.272 L436.845,237.418 C436.489,237.425 436.337,237.489 436.223,237.524 L436.844,239.272 L436.845,237.418 L436.845,239.295 L437.719,237.633 C437.518,237.526 437.214,237.418 436.845,237.418 L436.845,239.295 L437.719,237.633 L436.881,239.226 L438.32,238.14 C438.231,238.037 438.119,237.857 437.719,237.633 L436.881,239.226 L438.32,238.14 L437.385,238.846 L438.469,238.382 C438.463,238.38 438.468,238.346 438.32,238.14 L437.385,238.846 L438.469,238.382 C438.463,238.373 438.4,238.199 438.331,237.963 C438.057,237.046 437.605,235.13 437.111,232.86 C436.365,229.444 435.5,225.163 434.822,221.741 C434.483,220.03 434.191,218.533 433.983,217.465 C433.776,216.396 433.654,215.758 433.654,215.757 C433.481,214.856 432.694,214.205 431.776,214.205 C431.113,214.208 430.38,214.299 429.482,214.439 C426.38,214.935 421.466,216.116 417.212,217.198 C415.09,217.739 413.144,218.253 411.701,218.642 C410.98,218.835 410.385,218.998 409.956,219.116 C409.741,219.176 409.567,219.224 409.438,219.261 L409.275,219.308 L409.131,219.352 L409.112,219.358 C407.707,219.848 406.568,220.81 405.584,222 C403.869,224.096 402.522,227.001 401.321,230.47 C399.533,235.669 398.143,242.139 397.084,248.774 C396.029,255.407 395.313,262.193 394.918,267.968 C394.587,272.787 393.289,283.123 391.518,295.803 C388.861,314.838 385.136,339.243 381.985,358.879 C380.409,368.696 378.976,377.323 377.892,383.485 C377.35,386.564 376.896,389.029 376.558,390.703 C376.389,391.537 376.248,392.178 376.15,392.568 C376.102,392.759 376.06,392.895 376.056,392.905 L377.067,393.262 L376.132,392.745 C376.058,392.883 376.058,392.906 376.056,392.905 L377.067,393.262 L376.132,392.745 L377.67,393.596 L376.399,392.383 C376.227,392.569 376.175,392.673 376.132,392.745 L377.67,393.596 L376.399,392.383 L377.75,393.672 L376.826,392.05 C376.613,392.173 376.489,392.291 376.399,392.383 L377.75,393.672 L376.826,392.05 L377.763,393.695 L377.763,391.802 C377.362,391.802 377.036,391.929 376.826,392.05 L377.763,393.695 L377.763,391.802 C376.908,391.802 376.158,392.369 375.924,393.191 C375.69,394.013 376.031,394.89 376.757,395.339 L377.763,393.714" fill="#8A8B8A"/>
    <path d="M432.831,279.573 C432.831,282.561 435.263,285.003 438.251,285.003 C441.259,285.003 443.69,282.561 443.69,279.573 C443.69,276.575 441.259,274.144 438.251,274.144 C435.263,274.144 432.831,276.575 432.831,279.573" fill="#FFFFFE"/>
    <path d="M432.831,279.573 L431.557,279.573 C431.56,283.266 434.553,286.273 438.251,286.277 C441.964,286.275 444.963,283.267 444.965,279.573 C444.964,275.87 441.961,272.869 438.251,272.869 C434.556,272.871 431.558,275.871 431.557,279.573 L434.105,279.573 C434.106,278.422 434.568,277.391 435.322,276.634 C436.077,275.88 437.106,275.418 438.251,275.418 C439.408,275.418 440.441,275.882 441.198,276.635 C441.953,277.392 442.416,278.422 442.416,279.573 C442.416,280.718 441.953,281.75 441.198,282.508 C440.44,283.263 439.406,283.728 438.251,283.728 C437.107,283.728 436.079,283.265 435.323,282.509 C434.568,281.751 434.105,280.718 434.105,279.573 L432.831,279.573" fill="#8A8B8A"/>
    <path d="M432.831,322.102 C432.831,325.091 435.263,327.532 438.251,327.532 C441.259,327.532 443.69,325.091 443.69,322.102 C443.69,319.095 441.259,316.663 438.251,316.663 C435.263,316.663 432.831,319.095 432.831,322.102" fill="#FFFFFE"/>
    <path d="M432.831,322.102 L431.557,322.102 C431.56,325.796 434.553,328.802 438.251,328.806 C441.964,328.804 444.963,325.797 444.965,322.102 C444.965,320.252 444.212,318.565 443,317.354 C441.789,316.141 440.102,315.388 438.251,315.389 C434.555,315.39 431.558,318.393 431.557,322.102 L434.105,322.102 C434.106,320.945 434.569,319.912 435.323,319.154 C436.078,318.399 437.106,317.938 438.251,317.937 C440.556,317.937 442.416,319.797 442.416,322.102 C442.416,323.247 441.953,324.279 441.198,325.037 C440.44,325.792 439.406,326.257 438.251,326.258 C437.107,326.257 436.079,325.794 435.323,325.038 C434.568,324.28 434.105,323.247 434.105,322.102 L432.831,322.102" fill="#8A8B8A"/>
    <path d="M432.831,364.622 C432.831,367.63 435.263,370.061 438.251,370.061 C441.259,370.061 443.69,367.63 443.69,364.622 C443.69,361.624 441.259,359.192 438.251,359.192 C435.263,359.192 432.831,361.624 432.831,364.622" fill="#FFFFFE"/>
    <path d="M432.831,364.622 L431.557,364.622 C431.558,368.331 434.555,371.334 438.251,371.336 C440.102,371.336 441.789,370.583 443,369.371 C444.212,368.16 444.965,366.473 444.965,364.622 C444.964,360.919 441.961,357.918 438.251,357.918 C434.556,357.92 431.558,360.92 431.557,364.622 L434.105,364.622 C434.106,363.471 434.568,362.439 435.322,361.683 C436.077,360.929 437.106,360.467 438.251,360.467 C439.408,360.467 440.441,360.93 441.198,361.684 C441.953,362.44 442.416,363.471 442.416,364.622 C442.416,366.927 440.556,368.787 438.251,368.787 C437.106,368.787 436.078,368.325 435.323,367.57 C434.569,366.813 434.106,365.779 434.105,364.622 L432.831,364.622" fill="#8A8B8A"/>
    <path d="M490.272,149.554 L483.378,195.081 C470.878,201.897 455.351,205.345 435.653,205.618 C418.622,205.394 404.804,202.835 393.329,197.806 L386.151,149.554 C433.466,134.798 490.272,149.554 490.272,149.554" fill="#FFFFFE"/>
    <path d="M456.806,12.952 C406.903,10.452 364.14,35.423 371.356,103.138 L371.249,103.089 C373.231,103.489 375.712,103.948 376.532,103.997 C387.978,104.612 398.319,105.081 409.101,101.37 C421.024,97.278 432.509,92.122 444.384,87.913 C441.552,92.952 436.161,96.39 432.802,100.784 C455.058,100.042 474.931,84.505 492.372,72.62 C496.776,81.39 505.536,89.368 512.089,96.507 C516.347,101.136 520.663,105.804 525.429,109.915 C532.177,115.735 533.495,108.675 535.976,102.435 C538.261,96.663 541.542,90.306 541.298,84.017 C541.063,78.108 539.501,71.966 537.538,66.419 C533.739,55.569 527.206,45.863 518.856,38.001 C502.265,22.396 479.354,14.085 456.806,12.952" fill="#965535"/>
    <path d="M390.39,97.366 C390.185,96.224 413.212,90.696 423.368,87.61 C434.628,84.231 444.638,79.124 456.571,72.845 C464.276,68.763 489.403,50.003 490.419,50.56 C491.454,51.087 477.489,66.946 458.554,76.565 C446.308,82.776 436.21,88.138 424.599,91.653 C414.257,94.798 390.565,98.421 390.39,97.366" fill="#794535"/>
    <path d="M392.343,91.644 C392.011,91.624 391.679,91.546 391.376,91.36 C390.38,90.765 402.655,69.026 437.099,52.249 C461.61,40.325 483.886,43.245 483.876,44.398 C483.866,45.56 459.159,48.079 441.933,56.145 C424.081,64.505 393.104,91.683 392.343,91.644" fill="#794535"/>
    <path d="M380.692,97.073 C380.497,97.063 380.312,97.015 380.116,96.946 C379.022,96.585 384.794,67.386 400.409,50.609 C427.548,21.449 470.858,26.595 470.272,27.62 C469.696,28.626 433.671,24.759 405.37,54.397 C390.028,70.481 381.62,97.112 380.692,97.073" fill="#794535"/>
    <path d="M522.714,107.552 C522.831,106.302 532.411,88.206 517.606,53.763 C517.245,52.933 523.446,107.581 522.714,107.552" fill="#794535"/>
    <path d="M361.181,86.849 C345.731,67.142 368.759,43.958 368.759,43.958 C403.231,3.968 463.524,11.878 463.524,11.878 C463.524,11.878 518.446,16.771 542.812,66.761 C542.812,66.761 560.478,90.335 533.388,117.62 L531.454,130.101 L527.187,119.144 C522.06,110.286 502.46,83.06 452.001,75.784 C399.364,68.186 376.493,93.196 370.331,99.222 L361.181,86.849" fill="#FFFFFE"/>
    <path d="M361.181,86.849 L362.699,85.658 C359.086,81.034 357.786,76.354 357.776,71.762 C357.775,68.342 358.524,64.973 359.675,61.836 C361.399,57.13 364.027,52.963 366.224,50 C367.321,48.517 368.309,47.334 369.017,46.528 C369.371,46.125 369.654,45.816 369.846,45.612 C369.943,45.509 370.016,45.433 370.063,45.383 L370.115,45.33 L370.127,45.318 L370.22,45.218 C382.275,31.233 397.585,23.222 412.357,18.699 C427.122,14.178 441.318,13.17 450.951,13.171 C454.762,13.171 457.859,13.328 459.995,13.484 C461.063,13.562 461.891,13.64 462.448,13.698 C462.726,13.726 462.936,13.75 463.075,13.767 L463.229,13.785 L463.273,13.791 L463.353,13.8 L463.38,13.802 C464.075,13.866 477.701,15.262 494.021,22.684 C502.182,26.394 511.016,31.606 519.268,38.894 C527.522,46.185 535.198,55.547 541.077,67.606 C541.127,67.708 541.199,67.826 541.268,67.917 L541.878,67.46 L541.265,67.914 L541.268,67.917 L541.878,67.46 L541.265,67.914 C541.281,67.935 542.614,69.743 543.929,72.878 C545.245,76.015 546.542,80.468 546.542,85.817 C546.54,89.984 545.76,94.7 543.564,99.825 C541.367,104.949 537.748,110.489 532.019,116.261 C531.734,116.547 531.543,116.926 531.481,117.325 L530.646,122.712 L528.984,118.443 C528.942,118.337 528.913,118.275 528.856,118.177 C526.189,113.569 519.843,104.332 507.745,95.323 C495.651,86.313 477.808,77.553 452.276,73.875 C445.355,72.875 438.93,72.431 432.974,72.431 C413.018,72.427 398.342,77.431 388.006,83.135 C382.837,85.986 378.749,89.008 375.615,91.65 C372.486,94.287 370.288,96.566 368.982,97.842 L370.331,99.222 L371.882,98.074 L362.732,85.701 L362.699,85.658 L361.181,86.849 L359.629,87.996 L368.78,100.369 C369.112,100.817 369.621,101.1 370.177,101.144 C370.734,101.189 371.281,100.991 371.68,100.601 C373.054,99.256 375.119,97.115 378.102,94.6 C382.57,90.834 389.055,86.268 398.034,82.632 C407.014,78.998 418.49,76.291 432.974,76.29 C438.738,76.29 444.978,76.719 451.725,77.693 C476.653,81.291 493.839,89.781 505.441,98.418 C517.04,107.055 523.057,115.86 525.517,120.11 L527.187,119.144 L525.389,119.843 L529.656,130.8 C529.973,131.615 530.795,132.113 531.664,132.018 C532.532,131.923 533.227,131.259 533.36,130.396 L535.294,117.915 L533.388,117.62 L534.757,118.979 C540.783,112.909 544.705,106.958 547.111,101.345 C549.518,95.734 550.401,90.468 550.4,85.817 C550.399,79.746 548.908,74.728 547.416,71.22 C545.922,67.709 544.425,65.698 544.355,65.604 L542.812,66.761 L544.545,65.915 C538.335,53.171 530.16,43.281 521.413,35.643 C508.287,24.184 493.891,17.779 482.774,14.225 C471.654,10.672 463.799,9.967 463.696,9.957 L463.524,11.878 L463.775,9.965 C463.71,9.957 458.785,9.313 450.951,9.313 C441.051,9.315 426.5,10.337 411.228,15.01 C395.962,19.681 379.943,28.029 367.298,42.699 L368.759,43.958 L367.39,42.599 C367.326,42.665 364.014,46 360.673,51.277 C359.002,53.916 357.324,57.043 356.053,60.507 C354.783,63.971 353.918,67.779 353.917,71.762 C353.907,77.102 355.514,82.762 359.662,88.039 L361.181,86.849 L359.629,87.996 L361.181,86.849" fill="#8A8B8A"/>
    <path d="M535.649,109.79 L531.284,99.457 L531.196,99.288 C528.528,94.994 522.164,86.337 510.095,77.836 C498.029,69.335 480.261,61.002 454.852,57.335 C446.911,56.19 439.545,55.691 432.74,55.691 C394.097,55.686 373.576,71.789 368.241,76.708 L368.206,76.742 L360.501,84.418 C360.021,84.895 360.02,85.671 360.498,86.151 C360.975,86.631 361.751,86.632 362.231,86.154 L369.936,78.478 L369.071,77.61 L369.901,78.512 C374.927,73.898 394.8,58.148 432.74,58.142 C439.426,58.142 446.673,58.632 454.502,59.761 C479.551,63.379 496.925,71.559 508.684,79.84 C520.441,88.122 526.587,96.515 529.114,100.581 L530.155,99.935 L529.026,100.411 L533.391,110.743 C533.655,111.367 534.374,111.659 534.997,111.396 C535.621,111.132 535.913,110.413 535.65,109.79" fill="#8A8B8A"/>
    <path d="M526.671,94.732 L535.87,85.22 C536.341,84.734 536.328,83.957 535.841,83.487 C535.355,83.017 534.579,83.029 534.108,83.516 L524.909,93.028 C524.438,93.514 524.451,94.29 524.938,94.761 C525.424,95.231 526.2,95.218 526.671,94.732" fill="#8A8B8A"/>
    <path d="M517.407,84.025 L517.16,83.981 L517.402,84.048 L517.407,84.025 L517.16,83.981 L517.402,84.048 C517.4,84.028 517.541,83.7 517.776,83.303 C518.188,82.588 518.876,81.546 519.663,80.352 C520.846,78.557 522.26,76.403 523.397,74.282 C523.966,73.22 524.467,72.166 524.835,71.148 C525.201,70.129 525.445,69.148 525.448,68.184 C525.448,67.552 525.336,66.913 525.031,66.324 C524.73,65.735 524.223,65.232 523.604,64.913 L523.596,64.908 C523.292,64.752 522.971,64.696 522.691,64.697 C522.308,64.699 521.984,64.787 521.681,64.9 C521.155,65.102 520.678,65.399 520.208,65.738 C519.506,66.247 518.834,66.859 518.274,67.427 C517.994,67.711 517.745,67.983 517.534,68.23 C517.323,68.48 517.157,68.69 517.014,68.917 L517.016,68.914 C515.388,71.537 514.389,74.984 514.12,77.972 C514.061,78.646 514.56,79.241 515.234,79.3 C515.908,79.359 516.503,78.86 516.562,78.186 C516.781,75.588 517.735,72.374 519.095,70.213 L519.097,70.21 C519.112,70.184 519.187,70.077 519.292,69.949 C519.665,69.488 520.422,68.703 521.17,68.091 C521.544,67.783 521.92,67.517 522.221,67.35 C522.371,67.266 522.502,67.207 522.591,67.177 L522.686,67.15 L522.702,67.148 L522.691,67.048 L522.691,67.148 L522.702,67.148 L522.691,67.048 L522.691,67.148 L522.691,66.67 L522.476,67.089 C522.577,67.141 522.667,67.149 522.691,67.148 L522.691,66.67 L522.476,67.089 L522.468,67.085 C522.688,67.205 522.774,67.305 522.856,67.454 C522.934,67.603 522.997,67.837 522.997,68.184 C523.009,68.999 522.601,70.342 521.903,71.806 C520.865,74.014 519.245,76.532 517.849,78.651 C517.15,79.713 516.508,80.676 516.011,81.48 C515.763,81.883 515.55,82.245 515.379,82.576 C515.21,82.916 515.073,83.191 514.993,83.597 C514.875,84.264 515.32,84.9 515.986,85.018 C516.652,85.136 517.289,84.692 517.407,84.026" fill="#8A8B8A"/>
    <path d="M377.763,71.823 L371.855,60.124 C371.55,59.52 370.812,59.278 370.208,59.582 C369.604,59.888 369.362,60.625 369.667,61.229 L375.575,72.928 C375.88,73.532 376.617,73.775 377.221,73.47 C377.825,73.165 378.068,72.427 377.763,71.823" fill="#8A8B8A"/>
    <path d="M390.1,65.616 C390.116,65.496 390.12,65.394 390.12,65.298 C390.117,64.897 390.05,64.522 389.956,64.068 C389.622,62.516 388.86,60.128 388.179,57.554 C387.496,54.996 386.911,52.264 386.917,50.315 C386.913,49.403 387.052,48.683 387.253,48.283 C387.353,48.08 387.455,47.957 387.561,47.87 C387.669,47.785 387.787,47.722 387.992,47.68 L387.989,47.68 L387.874,47.096 L387.874,47.692 L387.989,47.68 L387.874,47.096 L387.874,47.692 L387.874,47.296 L387.751,47.675 L387.874,47.692 L387.874,47.296 L387.751,47.675 L387.785,47.569 L387.745,47.673 L387.751,47.675 L387.785,47.569 L387.745,47.673 L387.79,47.698 C387.911,47.768 388.185,48.02 388.455,48.366 C388.869,48.885 389.309,49.603 389.647,50.245 C389.816,50.566 389.962,50.869 390.071,51.117 C390.178,51.36 390.25,51.564 390.26,51.609 L390.258,51.599 C390.567,52.792 390.719,54.2 390.718,55.621 C390.719,57.117 390.552,58.63 390.258,59.929 C390.109,60.589 390.524,61.245 391.185,61.394 C391.845,61.543 392.501,61.128 392.65,60.468 C392.986,58.97 393.168,57.298 393.169,55.621 C393.168,54.029 393.006,52.436 392.631,50.985 L392.628,50.975 C392.572,50.768 392.499,50.572 392.405,50.343 C392.078,49.556 391.501,48.434 390.803,47.422 C390.452,46.917 390.076,46.443 389.641,46.044 C389.422,45.846 389.187,45.663 388.905,45.513 C388.624,45.366 388.283,45.242 387.874,45.241 C387.76,45.241 387.64,45.251 387.517,45.275 L387.514,45.276 C386.958,45.384 386.438,45.623 386.016,45.967 C385.378,46.485 384.992,47.193 384.77,47.93 C384.546,48.672 384.467,49.47 384.466,50.315 C384.467,51.685 384.682,53.19 384.99,54.729 C385.455,57.035 386.14,59.415 386.703,61.385 C386.984,62.368 387.235,63.249 387.41,63.948 C387.498,64.297 387.566,64.6 387.61,64.838 C387.655,65.074 387.67,65.253 387.669,65.298 L387.669,65.311 L387.968,65.328 L387.671,65.288 L387.669,65.311 L387.968,65.328 L387.671,65.288 C387.58,65.958 388.051,66.576 388.721,66.667 C389.392,66.757 390.01,66.287 390.1,65.616" fill="#8A8B8A"/>
    <path d="M433.07,42.768 L432.865,56.312 C432.855,56.989 433.395,57.546 434.072,57.556 C434.749,57.567 435.306,57.026 435.316,56.349 L435.521,42.805 C435.531,42.128 434.991,41.571 434.314,41.561 C433.637,41.551 433.081,42.091 433.07,42.768" fill="#8A8B8A"/>
    <path d="M487.186,53.883 L480.115,64.059 C479.729,64.615 479.867,65.379 480.423,65.765 C480.979,66.151 481.742,66.014 482.128,65.458 L489.199,55.282 C489.585,54.726 489.448,53.963 488.892,53.576 C488.336,53.19 487.572,53.328 487.186,53.883" fill="#8A8B8A"/>
    <path d="M207.46,332.366 L207.46,477.044 C207.46,486.253 238.769,500.081 277.401,500.081 C316.044,500.081 347.343,486.253 347.343,477.044 L347.343,332.366 L207.46,332.366" fill="#9E9F9E"/>
    <path d="M223.3,481.097 L223.3,336.409 L347.343,332.366 L207.46,332.366 L207.46,477.044 C207.46,483.665 223.681,492.688 247.177,497.229 C232.548,492.454 223.3,486.097 223.3,481.097" fill="#B4B5B4"/>
    <path d="M338.271,332.366 L338.271,465.325 C338.271,474.524 306.962,488.362 268.329,488.362 C242.226,488.362 219.472,482.044 207.46,475.101 L207.46,477.044 C207.46,486.253 238.769,500.081 277.401,500.081 C316.044,500.081 347.343,486.253 347.343,477.044 L347.343,332.366 L338.271,332.366" fill="#909190"/>
    <path d="M351.874,355.716 C349.647,355.716 329.101,354.446 332.265,348.675 C332.87,347.571 334.081,346.487 335.048,345.599 C336.161,344.583 336.288,344.114 337.499,343.157 C341.181,346.829 351.151,346.634 356.024,345.481 C361.015,344.3 359.218,340.345 358.476,339.495 C356.269,334.261 341.562,337.347 341.278,334.72 C340.985,332.093 338.046,329.583 340.673,329.3 C341.532,329.202 347.528,328.948 348.808,328.87 C356.034,328.392 362.304,328.46 366.659,333.362 C369.462,336.517 370.39,338.948 370.058,343.538 C369.706,348.235 367.812,352.405 363.505,354.388 C361.024,355.53 354.765,355.716 351.874,355.716" fill="#9E9F9E"/>
    <path d="M339.677,330.579 C339.989,331.624 341.103,333.157 341.278,334.72 C341.522,337.024 352.909,334.925 357.167,337.942 C357.431,336.575 356.708,335.159 356.288,334.69 C354.325,330.032 342.46,331.956 339.677,330.579" fill="#777776"/>
    <path d="M201.522,355.716 C204.97,355.716 208.515,355.208 211.903,354.671 C212.87,354.515 218.7,352.591 218.134,350.843 C217.421,348.685 214.569,346.8 212.987,345.218 C211.61,343.831 212.509,343.997 210.653,344.31 C206.073,345.052 202.177,346.624 197.362,345.481 C192.392,344.3 194.169,340.345 194.921,339.495 C197.128,334.261 211.835,337.347 212.118,334.72 C212.401,332.093 215.341,329.583 212.724,329.3 C211.864,329.202 205.868,328.948 204.589,328.87 C197.353,328.392 191.083,328.46 186.737,333.362 C183.935,336.517 182.997,338.948 183.329,343.538 C183.7,348.235 185.585,352.405 189.892,354.388 C192.372,355.53 198.632,355.716 201.522,355.716" fill="#9E9F9E"/>
    <path d="M209.94,329.915 C209.647,332.542 194.94,329.466 192.733,334.69 C192.021,335.491 190.419,339.036 194.364,340.433 C194.55,340.022 194.765,339.681 194.921,339.495 C197.128,334.261 211.835,337.347 212.118,334.72 C212.401,332.093 215.341,329.583 212.724,329.3 C212.401,329.261 211.347,329.202 210.097,329.144 C210.028,329.397 209.96,329.651 209.94,329.915" fill="#777776"/>
    <path d="M347.343,332.884 C347.343,342.376 316.044,350.061 277.401,350.061 C238.769,350.061 207.46,342.376 207.46,332.884 C207.46,323.382 238.769,315.686 277.401,315.686 C316.044,315.686 347.343,323.382 347.343,332.884" fill="#B4B5B4"/>
    <path d="M277.401,346.966 C234.091,346.966 210.468,337.659 210.468,332.884 C210.468,328.099 234.091,318.792 277.401,318.792 C320.722,318.792 344.335,328.099 344.335,332.884 C344.335,337.659 320.722,346.966 277.401,346.966" fill="#757674"/>
    <path d="M348.456,331.048 C348.456,341.956 316.649,350.784 277.401,350.784 C238.163,350.784 206.356,341.956 206.356,331.048 L206.356,325.735 L348.456,325.735 L348.456,331.048" fill="#757674"/>
    <path d="M348.456,325.735 C348.456,336.644 316.649,345.481 277.401,345.481 C238.163,345.481 206.356,336.644 206.356,325.735 C206.356,314.847 238.827,304.231 278.056,304.231 C317.304,304.231 348.456,314.847 348.456,325.735" fill="#B4B5B4"/>
    <path d="M277.987,309.954 C240.272,309.954 215.253,318.645 215.253,324.388 C215.253,329.866 238.896,337.503 277.401,337.503 C315.907,337.503 339.56,329.866 339.56,324.388 C339.56,318.499 315.575,309.954 277.987,309.954 z M277.401,342.806 C245.731,342.806 209.95,334.974 209.95,324.388 C209.95,313.851 246.151,306.761 277.987,306.761 C309.13,306.761 344.862,313.509 344.862,324.388 C344.862,334.974 309.071,342.806 277.401,342.806" fill="#8C8D8C"/>
    <path d="M300.771,319.349 C300.771,323.538 290.312,326.946 277.401,326.946 C264.501,326.946 254.032,323.538 254.032,319.349 L254.032,316.311 L300.771,316.311 L300.771,319.349" fill="#757674"/>
    <path d="M300.771,316.311 C300.771,320.511 290.312,323.919 277.401,323.919 C264.501,323.919 254.032,320.511 254.032,316.311 C254.032,312.102 264.716,308.03 277.616,308.03 C290.526,308.03 300.771,312.102 300.771,316.311" fill="#B4B5B4"/>
    <path d="M262.46,316.556 C262.46,316.917 261.444,317.22 260.204,317.22 C258.954,317.22 257.948,316.917 257.948,316.556 C257.948,316.185 258.954,315.892 260.204,315.892 C261.444,315.892 262.46,316.185 262.46,316.556" fill="#757674"/>
    <path d="M291.767,316.556 C291.767,316.917 292.772,317.22 294.022,317.22 C295.263,317.22 296.278,316.917 296.278,316.556 C296.278,316.185 295.263,315.892 294.022,315.892 C292.772,315.892 291.767,316.185 291.767,316.556" fill="#757674"/>
    <path d="M259.179,316.829 L253.729,295.989 L255.78,295.442 L261.229,316.282 L259.179,316.829" fill="#636463"/>
    <path d="M295.282,316.829 L293.222,316.282 L298.671,295.442 L300.731,295.989 L295.282,316.829" fill="#636463"/>
    <path d="M298.808,302.2 C298.056,302.2 297.313,301.976 296.659,301.517 C296.464,301.38 290.478,297.464 276.884,297.425 C263.114,297.464 257.138,301.477 257.079,301.517 C255.419,302.669 253.964,301.761 252.792,300.101 C251.601,298.44 251.093,296.683 252.743,295.491 C253.505,294.935 260.604,290.091 276.601,289.993 L277.157,289.993 C293.144,290.091 300.243,294.935 301.005,295.491 C302.665,296.702 302.255,298.235 301.044,299.886 C300.312,300.882 299.96,302.2 298.808,302.2" fill="#8C8D8C"/>
    <path d="M168.173,347.679 C174.276,353.343 183.583,353.235 188.954,347.435 C194.345,341.634 193.769,332.347 187.655,326.673 C181.562,321.028 172.245,321.126 166.864,326.927 C161.483,332.727 162.069,342.024 168.173,347.679" fill="#F6C39A"/>
    <path d="M79.95,263.811 C85.341,277.601 128.222,318.899 138.866,328.352 C142.382,331.517 159.423,347.249 161.688,345.403 C162.87,344.436 176.815,322.161 182.665,318.616 C182.157,318.919 168.358,303.938 167.431,303.011 C147.499,282.884 128.085,260.726 106.239,242.64" fill="#FFFFFE"/>
    <path d="M78.17,264.507 C78.943,266.473 80.267,268.705 82.022,271.244 C85.092,275.675 89.496,280.991 94.541,286.645 C102.106,295.121 111.106,304.336 119.097,312.218 C127.09,320.102 134.059,326.639 137.597,329.781 L137.588,329.773 C139.235,331.255 143.94,335.579 148.698,339.542 C151.082,341.527 153.477,343.423 155.561,344.86 C156.606,345.579 157.57,346.183 158.458,346.638 C158.904,346.866 159.332,347.057 159.767,347.204 C160.204,347.348 160.645,347.46 161.184,347.464 C161.435,347.464 161.711,347.436 162.006,347.35 C162.3,347.265 162.615,347.113 162.89,346.889 L162.899,346.883 C163.096,346.717 163.178,346.617 163.28,346.503 C163.462,346.292 163.64,346.06 163.859,345.764 C164.664,344.671 165.975,342.74 167.611,340.359 C170.058,336.796 173.205,332.256 176.212,328.337 C177.713,326.38 179.181,324.577 180.487,323.148 C181.781,321.72 182.961,320.66 183.656,320.251 C184.548,319.71 184.842,318.546 184.312,317.646 C183.782,316.747 182.623,316.438 181.717,316.956 L182.645,318.582 L182.646,316.709 C182.419,316.711 182.093,316.745 181.717,316.956 L182.645,318.582 L182.646,316.709 L182.646,318.493 L183.296,316.83 C183.181,316.79 183.015,316.716 182.646,316.709 L182.646,318.493 L183.296,316.83 L182.86,317.946 L183.542,316.954 C183.531,316.951 183.509,316.918 183.296,316.83 L182.86,317.946 L183.542,316.954 L183.462,316.892 C183.26,316.729 182.833,316.34 182.309,315.83 C180.453,314.03 177.249,310.666 174.441,307.684 C173.036,306.191 171.725,304.79 170.719,303.714 C170.215,303.176 169.788,302.719 169.461,302.372 C169.13,302.02 168.919,301.796 168.782,301.659 L168.789,301.666 C148.91,281.597 129.462,259.389 107.458,241.167 C106.645,240.494 105.44,240.608 104.767,241.421 C104.094,242.234 104.207,243.439 105.021,244.112 C126.707,262.061 146.088,284.17 166.073,304.355 L166.079,304.362 C166.105,304.388 166.213,304.5 166.357,304.652 C167.463,305.819 171.021,309.652 174.384,313.186 C176.068,314.955 177.705,316.65 178.984,317.921 C179.625,318.558 180.172,319.086 180.616,319.485 C180.841,319.685 181.035,319.851 181.24,320.006 C181.346,320.084 181.451,320.159 181.61,320.25 C181.692,320.295 181.787,320.345 181.933,320.401 C182.082,320.452 182.276,320.526 182.646,320.532 C182.887,320.53 183.227,320.493 183.613,320.276 L182.665,318.616 L181.674,316.981 C180.715,317.568 179.785,318.387 178.776,319.399 C177.023,321.166 175.079,323.53 173.092,326.123 C170.117,330.01 167.067,334.402 164.662,337.901 C163.46,339.649 162.42,341.175 161.642,342.289 C161.253,342.845 160.929,343.299 160.695,343.613 C160.578,343.769 160.483,343.89 160.425,343.96 L160.377,344.016 L161.112,344.698 L160.478,343.924 L160.377,344.016 L161.112,344.698 L160.478,343.924 L160.486,343.917 L161.29,344.911 L160.929,343.682 C160.804,343.718 160.637,343.794 160.486,343.917 L161.29,344.911 L160.929,343.682 L161.184,344.549 L161.184,343.642 C161.142,343.642 161.056,343.645 160.929,343.682 L161.184,344.549 L161.184,343.642 L161.184,343.937 L161.217,343.643 L161.184,343.642 L161.184,343.937 L161.217,343.643 C161.215,343.645 161.063,343.616 160.841,343.528 C160.417,343.367 159.751,343.018 158.976,342.533 C157.613,341.683 155.892,340.421 154.069,338.982 C151.332,336.821 148.35,334.259 145.807,332.016 C143.263,329.77 141.163,327.848 140.145,326.932 L140.135,326.923 C137.51,324.592 132.842,320.246 127.257,314.845 C118.876,306.741 108.413,296.244 99.568,286.514 C95.146,281.65 91.128,276.976 87.99,272.91 C86.421,270.878 85.072,268.997 84.006,267.335 C82.941,265.675 82.162,264.224 81.73,263.115 C81.346,262.132 80.237,261.647 79.254,262.031 C78.271,262.416 77.786,263.524 78.17,264.508" fill="#8A8B8A"/>
    <path d="M378.798,355.608 C372.665,361.233 363.358,361.087 358.017,355.227 C352.675,349.407 353.319,340.12 359.452,334.485 C365.595,328.88 374.901,329.046 380.253,334.876 C385.595,340.726 384.95,350.003 378.798,355.608" fill="#F6C39A"/>
    <path d="M467.587,272.347 C462.108,286.097 418.944,327.112 408.231,336.487 C404.706,339.622 387.558,355.257 385.302,353.392 C384.13,352.415 370.331,330.052 364.511,326.458 C365.019,326.78 378.905,311.878 379.843,310.95 C399.911,290.97 419.472,268.929 441.444,250.999" fill="#FFFFFE"/>
    <path d="M465.811,271.639 C465.227,273.117 464.018,275.183 462.339,277.567 C459.399,281.753 455.032,286.966 450.009,292.517 C442.473,300.848 433.453,309.961 425.448,317.75 C417.445,325.537 410.442,332.013 406.973,335.049 L406.961,335.059 C405.284,336.55 400.61,340.791 395.918,344.65 C393.577,346.576 391.23,348.404 389.302,349.716 C388.34,350.37 387.48,350.895 386.82,351.227 C386.492,351.393 386.214,351.509 386.024,351.572 C385.929,351.604 385.857,351.622 385.818,351.629 L385.786,351.635 L385.815,351.901 L385.815,351.634 L385.786,351.635 L385.815,351.901 L385.815,351.634 L385.815,352.526 L386.068,351.675 C385.94,351.637 385.855,351.634 385.815,351.634 L385.815,352.526 L386.068,351.675 L385.703,352.906 L386.52,351.918 C386.365,351.79 386.194,351.711 386.068,351.675 L385.703,352.906 L386.52,351.918 L386.525,351.923 L385.801,352.792 L386.62,352.01 L386.525,351.923 L385.801,352.792 L386.62,352.01 L386.526,352.1 L386.623,352.013 L386.62,352.01 L386.526,352.1 L386.623,352.013 C386.601,351.991 386.462,351.818 386.289,351.581 C385.617,350.667 384.314,348.727 382.699,346.341 C380.27,342.751 377.104,338.108 374.019,334.021 C372.475,331.977 370.953,330.071 369.531,328.488 C368.098,326.903 366.815,325.646 365.515,324.831 C364.621,324.28 363.449,324.553 362.891,325.443 C362.334,326.332 362.599,327.507 363.485,328.07 C363.914,328.339 364.301,328.373 364.531,328.374 C364.913,328.368 365.108,328.29 365.259,328.238 C365.541,328.125 365.661,328.038 365.789,327.956 C366.02,327.798 366.207,327.643 366.431,327.451 C366.843,327.095 367.343,326.624 367.935,326.049 C369.995,324.045 373.124,320.79 375.847,317.93 C377.207,316.501 378.463,315.174 379.423,314.16 C379.902,313.653 380.308,313.225 380.615,312.903 C380.917,312.585 381.138,312.356 381.186,312.31 L381.191,312.304 C401.313,292.265 420.84,270.274 442.653,252.48 C443.47,251.812 443.592,250.608 442.925,249.791 C442.258,248.973 441.054,248.851 440.236,249.518 C418.103,267.583 398.509,289.674 378.494,309.596 L378.499,309.591 C378.41,309.679 378.303,309.79 378.147,309.953 C376.999,311.15 373.445,314.935 370.079,318.428 C368.399,320.172 366.766,321.842 365.527,323.057 C364.909,323.664 364.385,324.159 364.029,324.474 C363.853,324.63 363.713,324.742 363.664,324.778 L363.652,324.786 L364.223,325.644 L363.781,324.716 C363.686,324.762 363.66,324.782 363.652,324.786 L364.223,325.644 L363.781,324.716 L364.478,326.179 L364.007,324.628 C363.896,324.662 363.83,324.693 363.781,324.716 L364.478,326.179 L364.007,324.628 L364.531,326.354 L364.531,324.551 C364.273,324.554 364.118,324.596 364.007,324.628 L364.531,326.354 L364.531,324.551 L364.531,326.426 L365.537,324.845 C365.118,324.584 364.745,324.553 364.531,324.551 L364.531,326.426 L365.537,324.845 L364.511,326.458 L363.507,328.084 C364.008,328.389 364.789,329.048 365.661,329.944 C367.199,331.514 369.067,333.803 370.979,336.338 C373.852,340.144 376.845,344.514 379.215,348.013 C380.401,349.763 381.431,351.296 382.222,352.445 C382.618,353.021 382.954,353.499 383.231,353.875 C383.37,354.064 383.493,354.226 383.614,354.374 L383.804,354.595 C383.875,354.671 383.947,354.749 384.078,354.86 L384.084,354.864 C384.364,355.097 384.684,355.252 384.982,355.34 C385.281,355.428 385.561,355.456 385.815,355.456 C386.351,355.452 386.792,355.342 387.229,355.2 C388.042,354.926 388.853,354.504 389.756,353.966 C391.327,353.025 393.14,351.717 395.059,350.232 C397.934,348.006 401.028,345.385 403.667,343.087 C406.303,340.792 408.49,338.815 409.501,337.915 L409.49,337.925 C412.205,335.549 416.919,331.22 422.574,325.827 C431.054,317.738 441.63,307.272 450.629,297.507 C455.129,292.623 459.234,287.915 462.498,283.746 C464.13,281.661 465.552,279.71 466.712,277.926 C467.873,276.139 468.773,274.527 469.362,273.054 C469.753,272.073 469.275,270.962 468.294,270.571 C467.313,270.181 466.202,270.659 465.812,271.639" fill="#8A8B8A"/>
  </g>
</svg>
