<?xml version="1.0" encoding="UTF-8" standalone="no"?>
<!-- Created with Inkscape (http://www.inkscape.org/) -->

<svg
   xmlns:dc="http://purl.org/dc/elements/1.1/"
   xmlns:cc="http://creativecommons.org/ns#"
   xmlns:rdf="http://www.w3.org/1999/02/22-rdf-syntax-ns#"
   xmlns:svg="http://www.w3.org/2000/svg"
   xmlns="http://www.w3.org/2000/svg"
   xmlns:sodipodi="http://sodipodi.sourceforge.net/DTD/sodipodi-0.dtd"
   xmlns:inkscape="http://www.inkscape.org/namespaces/inkscape"
   width="218.95448mm"
   height="164.04341mm"
   viewBox="0 0 775.82298 581.25618"
   id="svg2"
   version="1.1"
   inkscape:version="0.91 r13725"
   sodipodi:docname="Angry Bird.svg">
  <defs
     id="defs4" />
  <sodipodi:namedview
     id="base"
     pagecolor="#ffffff"
     bordercolor="#666666"
     borderopacity="1.0"
     inkscape:pageopacity="0.0"
     inkscape:pageshadow="2"
     inkscape:zoom="0.63476244"
     inkscape:cx="388.15573"
     inkscape:cy="238.63253"
     inkscape:document-units="px"
     inkscape:current-layer="layer1"
     showgrid="false"
     objecttolerance="1"
     fit-margin-top="0"
     fit-margin-left="0"
     fit-margin-right="0"
     fit-margin-bottom="0"
     inkscape:window-width="1600"
     inkscape:window-height="837"
     inkscape:window-x="-8"
     inkscape:window-y="-8"
     inkscape:window-maximized="1" />
  <metadata
     id="metadata7">
    <rdf:RDF>
      <cc:Work
         rdf:about="">
        <dc:format>image/svg+xml</dc:format>
        <dc:type
           rdf:resource="http://purl.org/dc/dcmitype/StillImage" />
        <dc:title></dc:title>
      </cc:Work>
    </rdf:RDF>
  </metadata>
  <g
     inkscape:label="Layer 1"
     inkscape:groupmode="layer"
     id="layer1"
     transform="translate(16.108487,-183.55747)">
    <g
       id="g8200"
       transform="matrix(0.97270752,0.23203466,-0.23203466,0.97270752,119.43015,-74.815388)">
      <ellipse
         transform="matrix(1,0,0.21263053,0.97713267,0,0)"
         ry="50.395214"
         rx="31.648283"
         cy="634.55487"
         cx="40.423939"
         id="path8198"
         style="color:#000000;clip-rule:nonzero;display:inline;overflow:visible;visibility:visible;opacity:1;isolation:auto;mix-blend-mode:normal;color-interpolation:sRGB;color-interpolation-filters:linearRGB;solid-color:#000000;solid-opacity:1;fill:#ffffff;fill-opacity:1;fill-rule:nonzero;stroke:none;stroke-width:2;stroke-linecap:round;stroke-linejoin:round;stroke-miterlimit:4;stroke-dasharray:none;stroke-dashoffset:0;stroke-opacity:1;color-rendering:auto;image-rendering:auto;shape-rendering:auto;text-rendering:auto;enable-background:accumulate" />
      <path
         sodipodi:nodetypes="ccccccccccccccccccccccccccccccccccccccccccccccccccccccccccccccccccccccccccccccccccccccccc"
         inkscape:connector-curvature="0"
         id="path8196"
         d="m 576.11589,399.79703 c -10.25415,2.37695 -20.26024,6.21234 -30.69665,7.34872 -0.95844,3.33445 0.56594,7.78597 -2.18958,10.77717 -6.68325,8.23442 -16.04676,13.67676 -25.20887,18.64744 -1.97621,0.57681 -3.47665,4.05491 -0.62147,4.46381 2.92567,0.85578 3.02573,5.04951 3.58104,7.57848 0.76241,4.24001 -0.57905,8.59222 -3.77154,11.51138 -4.12212,5.21186 -10.13932,8.82314 -16.74657,9.54181 -4.67998,1.12659 -9.84024,-0.46834 -14.3835,1.3637 -2.48231,2.54492 -1.68437,6.79621 -3.83713,9.64591 -3.59518,5.12505 -9.27764,9.5041 -15.84609,8.65454 -2.44398,0.38044 -5.78421,-0.7789 -7.67843,1.16001 -0.0627,3.29908 -0.32084,6.72709 -2.69931,9.29821 -2.23164,2.9967 -4.56754,6.67788 -8.38006,7.5535 -1.20569,1.83399 -0.59759,4.43479 -2.00184,6.31367 -6.17165,12.31578 -17.06375,21.05968 -25.92923,31.32161 -5.08586,7.09881 -11.23151,13.46818 -16.79348,20.14319 -11.45939,11.31121 -23.06692,22.54258 -36.4289,31.57258 -13.09984,8.64361 -26.58639,16.88222 -41.10993,22.94476 -9.70605,3.65487 -20.24396,4.07382 -30.01724,7.41296 -1.45848,0.80972 -0.1918,2.58177 1.1451,2.5161 -7.52417,0.0749 -14.58417,2.94359 -22.1077,2.28683 -6.39648,0.23566 -12.78007,-2.66723 -17.22025,-7.19514 1.91697,-1.67965 -1.64999,-3.62836 -2.519,-4.95761 -3.68346,-3.30097 -6.09562,-20.86101 -9.33695,-24.50105 -2.5544,-0.46783 -1.66857,16.59489 -1.97072,18.14394 0.0747,4.11566 -0.37608,0.61492 -0.66744,-1.69739 -1.04962,-6.48325 -0.87045,-16.83824 -4.28296,-22.68795 -1.8752,-3.90061 -3.11265,-8.29934 -5.76971,-11.73212 -2.63217,-0.56531 -1.81509,3.5865 -2.03308,5.06863 -0.0416,1.44504 0.10313,6.13594 -0.27065,2.2319 -1.54385,-11.48536 -4.87205,-22.21517 -13.75058,-30.27734 -5.13445,-4.77034 -10.54199,-7.99649 -17.54501,-9.722 -7.36861,-0.58928 -15.5169,-0.98862 -21.75713,3.72125 -2.54591,1.93683 -5.736,2.85344 -8.41834,4.53388 -4.3793,5.36547 -7.19388,12.01746 -9.15144,18.68908 0.76714,2.09299 3.93201,0.80789 5.67242,1.22942 7.07359,-0.44023 14.05639,2.14094 19.23039,6.95908 7.53093,6.55137 14.21458,14.45739 17.73421,23.9674 4.99815,12.21584 7.68754,25.67733 6.33476,38.80595 -1.41095,9.17264 -6.0249,18.35113 -13.42266,24.18036 -4.30783,3.36934 -10.22503,2.11403 -15.30103,2.08864 -9.7843,-0.77244 -16.73907,-8.73022 -22.8287,-15.57823 -2.51429,-2.66131 -3.46341,-6.50143 -6.10757,-8.99498 -2.46353,-0.0368 -3.0528,3.52672 -4.34306,5.14358 -5.69277,10.73536 -16.38986,19.34333 -28.81129,20.29258 -2.45271,0.70679 -6.2743,0.0759 -7.69762,2.62921 0.36655,2.74136 4.10996,3.31117 6.07079,4.67652 5.94,3.04742 12.30706,5.26775 19.04173,5.46327 12.04985,0.90721 23.93067,2.8891 35.89113,4.50604 8.18863,0.34081 16.47441,0.44469 24.61671,-0.0828 10.1671,-3.22267 20.13173,-7.96787 30.97374,-6.844 4.11317,0.0559 8.33163,-0.31998 11.82296,2.28576 2.95886,1.20852 5.70747,3.26163 8.79405,3.95711 12.68496,-5.41279 25.85755,-9.64435 38.25697,-15.71441 24.01308,-9.82363 48.56359,-18.33724 72.32535,-28.76544 9.33381,-4.20509 18.20209,-9.61748 27.89152,-12.94484 2.89586,-0.0579 1.69603,-4.13121 4.04012,-4.70844 -0.74424,1.81595 1.18493,3.47834 2.81591,2.24335 12.86989,-6.70405 24.65824,-15.24523 37.42811,-22.1379 24.23157,-13.92993 47.03157,-30.48049 66.79523,-50.30589 9.69528,-10.03741 20.86361,-19.39568 26.9451,-32.23575 2.81397,-7.58855 6.25052,-15.75733 13.16727,-20.49448 3.79267,-2.60217 8.76662,-3.15269 12.33689,-6.00657 0.51429,-2.28877 -3.12135,-2.37612 -4.50487,-3.32486 -2.00997,-0.78964 -4.06054,-1.55797 -5.86869,-2.75979 11.5945,-1.24787 23.60115,0.28716 34.90992,-3.07517 5.83876,-2.38569 11.80185,-5.71571 15.53174,-10.90546 0.76563,-2.47731 1.90857,-5.01665 3.15631,-7.22246 2.8101,0.31979 5.37311,-1.6088 5.75152,-4.4586 1.74659,-4.01808 -0.24068,-8.4147 -3.13236,-11.29173 -4.18355,-2.52577 -8.92417,-4.5036 -13.78076,-5.23103 -10.14205,-0.77665 -20.40954,0.77525 -29.71635,4.94496 -4.21376,1.69411 -8.40232,3.45154 -12.63571,5.09653 4.77212,-3.25725 10.5422,-5.33446 14.59066,-9.53348 0.49414,-1.01077 0.46578,-2.11959 1.87692,-1.20235 4.70201,0.63522 9.26268,-2.00233 13.02187,-4.53981 2.60253,-3.57202 2.7752,-8.40363 4.14393,-12.52851 1.96194,-9.2522 4.74772,-18.52057 4.95962,-28.01532 -0.10574,-0.75219 -0.79513,-1.33319 -1.56254,-1.24192 z m -38.41707,43.50444 c 3.09773,0.16144 6.20961,0.22582 9.28677,0.64229 -3.45822,0.0885 -6.84467,-0.31333 -10.29966,-0.67456 l 0.53272,0.017 0.48017,0.0153 z M 247.7657,620.48178 c 0.0447,0.69279 -0.88953,4.24397 -0.46845,2.02058 0.11875,-0.63989 0.32938,-1.63286 0.46845,-2.02058 z"
         style="color:#000000;clip-rule:nonzero;display:inline;overflow:visible;visibility:visible;opacity:1;isolation:auto;mix-blend-mode:normal;color-interpolation:sRGB;color-interpolation-filters:linearRGB;solid-color:#000000;solid-opacity:1;fill:#d39255;fill-opacity:1;fill-rule:nonzero;stroke:none;stroke-width:2;stroke-linecap:round;stroke-linejoin:round;stroke-miterlimit:4;stroke-dasharray:none;stroke-dashoffset:0;stroke-opacity:1;color-rendering:auto;image-rendering:auto;shape-rendering:auto;text-rendering:auto;enable-background:accumulate" />
      <path
         sodipodi:nodetypes="ccccccccccccccccccccccccccc"
         inkscape:connector-curvature="0"
         id="path8192"
         d="m 226.36066,683.88597 c -9.12204,0.15391 -18.54251,1.4529 -26.30607,6.61452 -7.39926,4.59325 -16.35966,5.67992 -24.7725,4.10566 -16.0955,-2.24636 -31.69015,-8.48212 -48.10688,-9.27631 -1.92322,1.33465 -1.58776,4.56622 -2.90856,6.60723 -4.72911,10.75692 -8.77396,21.71561 -14.2232,32.18764 -6.37586,12.66354 -13.542021,24.91015 -19.703826,37.68976 -7.490839,15.07625 -15.349319,29.99934 -22.293228,45.33113 -0.279194,2.44124 2.832706,1.62369 3.499842,0.0697 14.734849,-16.92089 31.371772,-32.06294 47.313272,-47.82883 7.47444,-7.31846 15.1799,-14.29182 23.20304,-20.98232 9.54555,-7.1382 18.57123,-14.92682 28.38911,-21.71839 10.90049,-8.36676 23.4749,-14.44277 36.65778,-18.21958 4.88264,-1.83553 10.32275,-0.94271 15.3381,-0.0822 2.78739,0.1692 -0.1071,2.54535 -0.83801,3.52691 -5.13274,5.72766 -16.90106,10.89273 -23.4361,14.67834 -1.5908,0.46368 -3.50803,3.55355 -0.78088,3.75623 6.08057,-0.74196 15.57681,-7.00503 21.40547,-8.49871 8.80361,-3.7669 17.53613,-9.02596 23.05168,-17.02611 0.42184,-3.76698 -3.29188,-6.58967 -5.7713,-8.89639 -2.57991,-2.47874 -6.45606,-1.93625 -9.71774,-2.03828 z m -90.56805,18.34867 c 0.79163,1.12841 -0.81238,3.34233 -1.02928,4.70341 -1.66419,4.33178 -3.35655,9.7632 -8.09717,11.48102 -1.65349,-2.0024 0.5035,-4.80451 1.20755,-6.89559 1.14493,-2.58202 3.81339,-3.89074 4.94163,-6.56975 0.78042,-1.02511 1.5888,-2.51101 2.97727,-2.71909 z"
         style="color:#000000;clip-rule:nonzero;display:inline;overflow:visible;visibility:visible;opacity:1;isolation:auto;mix-blend-mode:normal;color-interpolation:sRGB;color-interpolation-filters:linearRGB;solid-color:#000000;solid-opacity:1;fill:#ff7f2a;fill-opacity:1;fill-rule:nonzero;stroke:none;stroke-width:2;stroke-linecap:round;stroke-linejoin:round;stroke-miterlimit:4;stroke-dasharray:none;stroke-dashoffset:0;stroke-opacity:1;color-rendering:auto;image-rendering:auto;shape-rendering:auto;text-rendering:auto;enable-background:accumulate" />
      <path
         id="path8187"
         d="m 598.21094,469.76172 c -2.09617,0.0601 -4.91464,0.46494 -5.50977,2.87305 -1.14881,3.1255 -1.93368,6.68844 -4.75195,8.80273 -7.26866,5.8724 -15.35514,10.73724 -23.96875,14.36523 -5.19159,2.83586 -11.15393,3.67238 -16.63477,5.78321 -5.5941,2.0754 -11.31792,4.19184 -16.17187,7.73633 -2.32816,2.07599 -2.00398,5.52776 -2.20508,8.35742 -0.14696,4.73637 0.55975,9.47653 2.22656,13.91992 2.57888,7.38159 5.14417,15.1693 10.84766,20.80078 2.45027,2.3489 5.36605,5.3004 9.0918,4.72461 1.59816,0.0222 3.11515,-1.37151 2.68945,-3.0332 -0.99624,-3.90805 -3.66808,-7.11479 -5.67969,-10.53711 -1.68053,-2.8803 -3.76487,-5.55803 -4.94726,-8.67774 -0.24376,-0.83284 -0.5304,-1.91117 0.29882,-0.57812 4.20554,5.26735 7.59077,11.2927 12.69336,15.78125 4.0142,3.34415 9.52155,3.76293 14.51953,3.37695 3.57823,-0.31421 7.36255,-0.36237 10.61329,-2.05469 1.01749,-0.0763 2.22432,-0.12903 2.80468,0.875 0.97052,0.86724 2.1712,-0.29281 1.97071,-1.37695 1.53446,-2.11221 4.40187,-2.63653 6.17968,-4.52734 3.30913,-2.91094 5.67187,-7.74226 4.20704,-12.14063 -1.40481,-2.76607 -5.06659,-2.87939 -7.73438,-2.33008 -4.37442,0.8934 -8.31138,3.12321 -12.36523,4.90039 -1.22466,0.76513 -3.37746,1.51229 -3.16211,3.29297 -0.0574,0.20632 -0.96095,-0.3601 -1.39454,-0.19336 -1.90129,0.17895 -3.33265,2.17875 -2.85937,4.04883 -0.24142,0.14349 -1.07733,-1.47448 -1.50195,-1.98047 -5.16255,-7.92256 -9.31951,-16.43862 -13.63672,-24.83593 0.92262,0.42052 2.72073,1.43595 3.13867,-0.10743 0.0465,-1.87228 -0.51694,-3.69858 -0.62109,-5.5625 3.20122,0.61326 6.42369,-0.5914 9.53125,-1.24218 8.00975,-2.20972 15.98842,-4.63207 23.6914,-7.76172 7.45776,-3.29345 14.00041,-8.26193 20.70117,-12.83008 2.23686,-1.80819 5.43368,-3.49842 5.75,-6.67969 0.13415,-3.6559 -2.8395,-6.4317 -5.46484,-8.54687 -3.54501,-2.64122 -7.83464,-4.72322 -12.3457,-4.64258 z m -26.11328,84.80859 c -0.1066,-0.004 -0.21505,0.002 -0.32422,0.0176 -1.44976,-0.0411 -3.62111,1.3527 -2.59961,2.96094 1.02064,1.01495 2.79871,0.64408 4.01172,0.16797 1.73434,-0.94339 0.51107,-3.09003 -1.08789,-3.14649 z"
         style="color:#000000;clip-rule:nonzero;display:inline;overflow:visible;visibility:visible;opacity:1;isolation:auto;mix-blend-mode:normal;color-interpolation:sRGB;color-interpolation-filters:linearRGB;solid-color:#000000;solid-opacity:1;fill:#ff7f2a;fill-opacity:1;fill-rule:nonzero;stroke:none;stroke-width:2;stroke-linecap:round;stroke-linejoin:round;stroke-miterlimit:4;stroke-dasharray:none;stroke-dashoffset:0;stroke-opacity:1;color-rendering:auto;image-rendering:auto;shape-rendering:auto;text-rendering:auto;enable-background:accumulate"
         inkscape:connector-curvature="0" />
      <path
         id="path8171"
         d="m 632.64062,118.36523 c -0.52719,0.002 -1.05243,0.01 -1.57226,0.004 -6.07749,0.17038 -11.30691,4.32824 -14.95898,8.9043 -5.73262,6.83841 -11.3583,13.99052 -14.64649,22.35156 -4.10021,7.5583 -6.17125,15.97108 -10.03516,23.63281 -6.57065,16.05471 -14.02656,31.77624 -22.17773,47.07227 -4.20819,7.99875 -9.61708,15.39022 -14.60938,22.96484 -0.69047,1.92767 1.88526,1.62176 2.82422,0.82813 3.31369,-1.72175 7.09608,-2.60893 9.67774,-5.49024 2.28474,-2.21891 5.74042,-4.49873 8.9707,-2.95508 1.19247,1.89179 -0.47912,5.673 2.375,6.33789 3.52483,-1.01017 4.0863,-6.4686 8.24805,-6.48632 1.75767,0.0768 4.28291,-0.7559 4.65039,1.63476 1.09375,3.15228 1.11297,6.98876 -0.44141,10.00586 -0.91159,1.92692 -3.90367,2.89386 -3.61523,5.24024 2.05545,2.18697 5.99269,2.6277 8.61523,1.22461 4.61462,-5.76783 7.9542,-12.51342 12.6211,-18.23829 6.24099,-7.84242 12.73012,-15.60623 17.86328,-24.30078 9.12839,-15.10409 17.55016,-30.89684 22.5332,-47.90039 2.50526,-8.58897 3.35112,-17.85519 1.49023,-26.65234 -2.14448,-7.04513 -5.7211,-14.86059 -13.15039,-17.56641 -1.48605,-0.57806 -3.08047,-0.61794 -4.66211,-0.61133 z m -68.52929,21.49024 c -5.25604,0.91329 -8.36033,5.97164 -11.1543,10.04492 -6.62312,10.56259 -9.99048,22.92954 -10.35742,35.35156 -1.14542,17.26694 -0.58075,34.78422 -3.66602,51.76563 -1.03048,4.94551 -2.48281,10.05895 -1.8164,15.13672 1.31597,1.50417 3.60237,-0.37391 5.26953,-0.46289 4.74521,-0.86921 6.77001,-5.6534 8.76953,-9.44141 8.45878,-14.43046 12.03612,-30.99157 16.25,-46.99805 3.36893,-14.07423 6.16179,-28.6364 4.7793,-43.16015 -0.68711,-4.41698 -1.59621,-10.18484 -6.29297,-12.03516 -0.57528,-0.17312 -1.18211,-0.23778 -1.78125,-0.20117 z m 123.85937,19.23828 c -7.1339,0.41593 -12.55766,5.99272 -17.39648,10.67969 -7.52458,8.36196 -14.89131,16.85946 -22.61719,25.06836 -10.52048,11.30136 -20.15559,23.41719 -29.49609,35.66797 -8.1407,9.28455 -15.65435,19.08583 -23.44727,28.66015 -0.88942,1.79701 -4.00882,2.78721 -3.16601,5.17383 1.5237,2.01366 4.22386,-0.30621 5.97851,-0.81836 4.2494,-1.90571 9.07565,-5.05898 13.83985,-2.875 2.64589,1.49841 4.58241,-1.43698 6.48632,-2.77734 8.92515,-7.91902 18.39661,-15.71808 25.09766,-25.64258 1.09568,-1.66741 3.46241,-3.21738 5.06055,-1.17578 2.34245,2.08104 6.08666,0.39398 7.25195,-2.14063 10.33491,-12.30764 22.9713,-22.7769 31.52734,-36.51367 4.08527,-7.33867 7.1982,-15.31408 8.9375,-23.53125 -0.55328,-3.57786 -2.71594,-7.04353 -5.58398,-9.25586 -0.73426,-0.46524 -1.62501,-0.54068 -2.47266,-0.51953 z m -42.25781,72.60547 c -3.05076,1.44958 -4.74642,4.81848 -6.95508,7.26758 -2.77768,3.72879 -5.04855,7.82162 -8.52343,10.99804 -7.96326,8.12241 -15.92627,16.35441 -25.00196,23.25586 -13.07028,9.66029 -26.34309,19.16729 -40.68359,26.86914 -3.62553,2.31645 -7.90372,3.94565 -10.94141,7.0293 -0.27616,2.45494 2.90765,1.35435 4.38477,1.41211 4.51658,0.66865 9.29679,3.26294 10.86133,7.79883 0.77968,5.80257 -3.38103,10.99537 -7.8711,14.16015 -2.36815,2.16818 -5.45963,3.43076 -7.77148,5.59571 -0.34833,2.15059 2.8985,2.15259 4.26172,2.94531 3.70692,0.87287 7.16277,4.23066 6.51562,8.34961 -1.60326,5.07114 -6.4369,8.16315 -10.06445,11.74609 -6.47326,6.0938 -16.15031,7.77529 -21.89649,14.73047 -0.23583,2.28345 3.04938,2.65656 4.31446,4.06836 2.46627,1.68939 4.45785,4.40194 3.82031,7.54688 -1.30093,4.45899 -5.17845,7.57367 -8.01172,11.08593 -2.20143,2.9135 -5.62722,4.2688 -8.48633,6.32227 -1.27007,1.33582 0.75648,2.63054 2.05274,1.96289 14.89047,-1.93711 29.47526,-5.67849 43.65429,-10.57813 6.04682,-1.60063 11.74891,-4.17214 17.08789,-7.4082 6.74551,-3.85712 14.13858,-6.68669 20.45313,-11.24219 2.17302,-1.57115 -0.44329,-3.90818 -2.22656,-4.18554 -7.5185,-1.54419 -15.2585,0.0118 -22.8086,0.5957 -12.60649,1.25792 -25.22201,3.07228 -37.85547,3.12109 -1.35254,-0.2163 1.83252,-1.377 2.50782,-1.69531 8.23026,-2.10386 15.50934,-6.82549 22.76562,-11.08984 17.00926,-10.98579 35.06384,-20.22153 52.48828,-30.50391 8.17295,-5.40737 16.50067,-11.1203 22.55469,-18.94726 1.79961,-1.87962 2.21567,-5.71397 -0.68164,-6.7461 -6.01585,-1.67169 -11.53247,2.57693 -16.99609,4.27539 -10.4685,4.09216 -20.41591,9.42042 -31.00391,13.24024 -9.89413,3.6589 -19.87151,7.79727 -30.07617,10.01758 -2.33927,0.21982 1.98084,-1.15807 2.35547,-1.52344 9.124,-5.1977 16.74906,-12.53764 25.05664,-18.87695 13.33204,-11.45349 25.90949,-23.82033 37.39648,-37.12696 7.5673,-9.40556 15.41442,-19.11861 19.39258,-30.67383 0.66975,-2.36034 1.17897,-4.98276 0.50391,-7.34961 -1.1181,-0.71384 -3.12464,-0.13094 -4.03711,-1.0664 1.34041,-1.07163 2.32618,-3.21351 0.94922,-4.72852 -0.36595,-0.42051 -0.90904,-0.73893 -1.48438,-0.65234 z"
         style="color:#000000;clip-rule:nonzero;display:inline;overflow:visible;visibility:visible;opacity:1;isolation:auto;mix-blend-mode:normal;color-interpolation:sRGB;color-interpolation-filters:linearRGB;solid-color:#000000;solid-opacity:1;fill:#80ae31;fill-opacity:1;fill-rule:nonzero;stroke:none;stroke-width:3;stroke-linecap:round;stroke-linejoin:round;stroke-miterlimit:4;stroke-dasharray:none;stroke-dashoffset:0;stroke-opacity:1;color-rendering:auto;image-rendering:auto;shape-rendering:auto;text-rendering:auto;enable-background:accumulate"
         inkscape:connector-curvature="0" />
      <path
         sodipodi:nodetypes="ccsscsscscccscccccccccccccccscccsccsssccscscssssccccccccccccccccccccccccccccccccccccccccccccccccccccccccccccccccccccscsssccc"
         inkscape:connector-curvature="0"
         id="path8134"
         d="m 574.72852,234.12305 c -0.8233,-0.0418 -2.01963,0.3935 -3.8418,0.99023 -2.33102,2.33103 -6.99081,5.93264 -10.33008,6.88672 -7.07767,2.02219 -12.45928,8.10833 -14.80664,15.15039 -0.25905,0.77716 -0.0617,-2.10798 -1.03125,-3.27148 -1.54771,-1.85724 -3.88247,-1.51834 -5.85352,-0.86133 -5.36794,1.78932 -9.22007,9.30904 -12.56835,13.77344 -5.88658,7.84872 -6.04306,12.79139 -2.55469,14.94726 -1.41768,2.18908 -2.83502,4.33585 -3.86328,6.5586 -13.51119,29.20664 -83.49295,61.69447 -119.27344,87.26367 -13.89682,-27.18754 -37.42102,14.95264 -46.43359,9.23633 -1.52959,-10.27353 5.36838,-26.61719 -26.21485,-0.58204 2.75284,13.76417 -11.27204,15.59575 -16.89258,27.96094 -11.067,24.34739 -0.0194,62.88107 12.81641,82.13477 0.12116,0.18173 0.25624,0.3226 0.39844,0.44531 -18.92435,33.76487 -37.82007,62.30518 -50.0293,63.28125 -1.12575,-10.45583 -15.28758,-26.13435 -34.57031,-40.875 l 5.60351,0.41601 10.56055,1.32032 -12.09961,-9.45899 -16.05859,-5.9414 -10.94727,-1.89453 c -1.69821,-1.02141 -3.40596,-2.0275 -5.12695,-3.00782 l 15.41406,-2.13672 -5.93945,-5.05859 -11.66016,-0.44141 -14.6875,-0.32617 c -1.34765,-0.34267 -2.72283,-0.60213 -4.11328,-0.80469 1.61598,-1.13981 9.64288,-6.7871 10.44141,-6.7871 0.87994,0 -9.67969,-0.22071 -9.67969,-0.22071 l -20.91797,7.53711 c -2.09843,0.3136 -4.09433,0.67035 -6.06445,1.04492 4.01987,-3.02758 14.44461,-10.85654 15.54297,-11.22265 1.31991,-0.43997 -9.45899,0.4414 -9.45899,0.4414 0,0 -11.0777,7.37014 -20.06445,13.46289 -0.37599,0.0543 -0.77585,0.12179 -1.125,0.16211 -16.54636,1.91073 -33.99329,11.37849 -52.748049,32.8125 -7.780349,8.89183 -11.703641,28.44032 -14.988281,45.10938 -0.581343,2.95023 -2.183526,6.60973 -2.623364,9.63261 l -5.683277,-20.66581 c -5.01634,-4.1311 -1.833401,32.82923 1.978516,49.49609 0.58131,2.54166 -12.978516,-17.1582 -12.978516,-17.1582 -0.39774,23.06891 22.70964,75.53284 23.757813,65.77539 0.01578,-0.14685 0.731434,-1.74261 1.46289,-4.08399 8.144603,14.6572 21.856508,20.21801 42.214848,7.51953 15.40829,-9.61089 21.59886,-15.02451 21.83203,-28.90039 1.82336,-108.50339 49.06672,-105.94268 73.37225,-67.92613 15.88927,24.85258 16.53694,51.75177 40.32458,63.10068 17.49387,8.34628 68.98154,-9.71997 88.17621,-24.64916 16.88319,-13.0847 32.68841,-25.64495 49.81446,-37.53906 17.55847,-28.91706 49.06002,-46.59336 44.09179,-61.49805 -0.0869,-0.26078 -0.45163,-0.51677 -1.02734,-0.76953 3.07209,-0.1121 6.16867,-0.98443 7.88086,-3.80273 3.18383,-3.23159 4.61409,-9.80937 -0.20117,-12.30469 -2.03069,-1.29809 -4.4391,-1.6458 -6.61328,-2.60742 7.28977,-0.36368 14.77989,0.34514 21.94531,-0.53516 4.99151,-2.94108 12.32776,-4.55487 13.78516,-11.09765 1.47834,-2.80404 -1.0574,-5.30017 -3.72071,-5.80469 -5.1537,-1.81996 -10.48705,-3.03061 -15.67773,-4.73047 12.14993,1.01374 24.61816,2.48998 36.66797,-0.52539 6.09683,-1.28819 13.00365,-3.81405 16.20898,-9.53125 1.20667,-3.33083 3.90612,-7.46708 1.87891,-10.94531 -2.76595,-3.61486 -7.93982,-1.45096 -11.7461,-1.76758 -3.82696,0.46882 -4.35141,0.18121 -0.39648,-1.24609 13.3681,-6.23365 26.85029,-13.60523 36.52148,-25 1.01632,-1.74823 1.60694,-5.10616 -0.0742,-6.28321 -11.66323,0.43257 -23.31141,0.64724 -34.86524,-1.18554 -0.79221,-0.056 -1.58753,-0.14202 -2.38281,-0.11524 -2.69775,0.86192 0.70065,3.47219 1.59765,4.54492 2.31428,2.96849 6.44811,5.0468 7.35743,8.83789 -3.08244,5.90796 -10.71955,7.4243 -16.81641,7.85547 -9.72069,0.41414 -18.65324,-4.77699 -26.45312,-9.91211 -1.7272,-0.83692 -4.44875,-4.70385 -6.29102,-2.2832 0.0627,7.17785 2.46775,14.49455 0.77344,21.66016 -1.29747,4.56194 -4.36337,10.61195 -10.12305,9.80664 -4.90074,0.12609 -9.22587,-3.01705 -10.95703,-7.53907 -2.97131,-5.4985 -2.92544,-11.93677 -4.29688,-17.90429 -0.77167,-2.49964 -3.44254,-0.66384 -3.39648,1.24023 -5.16972,23.18412 -1.36171,48.52521 -13.34961,69.89844 -0.65045,1.9919 -3.04175,4.3966 -2.3457,6.51758 -1.58317,-0.29234 -3.09364,-0.5933 -4.47657,-0.9043 6.74938,-12.47115 12.08618,-25.73062 13.50196,-39.92578 1.54072,-12.82704 2.91369,-25.74367 6.44531,-38.20313 0.0743,-0.39714 -0.11543,-0.79718 -0.42578,-1.02343 1.31054,-0.86804 2.64644,-1.71547 4.01172,-2.54102 0.82525,7.441 3.01019,14.81558 5.81054,21.75977 1.38221,3.2156 4.30733,7.38615 8.37891,5.75976 3.28505,-0.43168 6.62374,-2.21545 6.95898,-5.875 2.13442,-9.47812 2.21821,-19.53768 1.29688,-29.04687 4.75072,7.1162 13.24931,10.48979 20.87109,13.62695 8.06844,3.41867 18.05741,3.43968 25.35547,-1.7793 3.31649,-2.71605 -0.60706,-6.6885 -3.14648,-8.2207 -8.97814,-5.81328 -20.08682,-7.49975 -29.01563,-13.31445 0.6273,-0.25007 1.28221,-0.50754 1.91211,-0.75781 -0.87887,2.31157 3.08193,2.69976 4.62696,3.20312 9.32904,2.50777 19.39146,3.30353 28.60742,-0.0645 6.7945,-2.01288 14.75587,-2.63406 19.53711,-8.57422 2.88464,-3.25297 7.46302,-6.59319 7.27148,-11.39063 -1.77792,-5.38431 -8.73125,-5.71608 -13.50195,-5.6582 -0.39744,0.0393 -0.80882,-0.014 -1.20899,-0.0195 1.12282,-1.63067 2.25574,-3.3474 3.39258,-5.09961 1.45907,1.40094 3.99923,-1.1683 5.54883,-1.71484 3.59164,-2.23209 6.81588,-4.94727 10.50977,-7.00391 2.40855,-2.66469 6.64051,-3.65551 8.11914,-7.06055 0.0699,-1.30397 2.39746,-0.20919 3.20312,-1.16015 3.68827,-1.85381 6.17252,-5.94262 7.02539,-9.85743 0.3118,-2.92202 -2.11348,-5.23175 -5.02734,-4.69726 -1.5412,-0.0647 -3.08473,-0.0596 -4.62696,-0.0488 -1.99491,0.37164 -4.74866,-0.40099 -6.7246,0.15234 0.10818,-0.20851 0.21235,-0.42014 0.32031,-0.6289 1.32481,1.49171 3.55439,-1.297 4.75976,-2.17188 5.4755,-5.25553 11.28571,-10.37415 16.24805,-16.02539 0.30413,-3.50789 0.18787,-7.54971 -3.13086,-9.66797 -0.79826,-0.70302 -1.74872,-1.46184 -2.8789,-1.38281 -0.46598,0.15627 -0.87972,0.37013 -1.25196,0.63086 3.80547,-8.54953 -12.82321,2.42439 -10.15039,-4.75976 4.9827,-2.50415 61.03146,-35.29403 61.32718,-41.65145 0.42716,-9.18306 -29.46359,8.6772 -28.23733,7.65535 3.67475,-3.0623 9.96105,-6.79347 11.18945,-11.70703 1.42884,-5.71537 -0.84771,-6.68986 -5.16406,-8.0918 -2.34929,-0.76305 9.04923,-18.15649 -2.06641,-17.90429 -5.42701,0.12313 -6.19695,9.98531 -9.46875,5.16406 -0.47489,-4.17504 -0.81143,-5.56906 -2.18359,-5.63867 z"
         style="fill:#dfcb3e;fill-opacity:1;fill-rule:evenodd;stroke:none;stroke-width:1px;stroke-linecap:butt;stroke-linejoin:miter;stroke-opacity:1" />
      <path
         inkscape:connector-curvature="0"
         id="path8169"
         d="m 402.30786,259.16896 c -2.86513,1.00617 -3.39982,4.72523 -4.30801,7.22569 -4.21153,12.70537 -9.06625,25.18351 -15.7557,36.817 -5.18371,9.49267 -11.60835,18.27285 -16.42916,27.96898 -7.28845,12.6414 -15.34699,24.89675 -22.31798,37.75221 -0.51276,1.46187 -3.01215,3.33324 -1.44533,4.81991 3.09668,0.28193 5.20265,-3.34167 8.41172,-2.53989 2.92013,0.52672 2.2884,4.37929 2.5407,6.60713 0.33832,2.50994 -0.6279,5.58169 0.97445,7.73155 3.59241,1.62965 7.28707,-1.32551 10.13193,-3.25311 6.85396,-4.92515 12.90362,-11.47515 21.01318,-14.3486 3.70779,-1.15191 8.19758,-0.69138 10.74165,2.5326 1.34407,1.24075 2.96925,4.52025 4.76442,2.01964 2.40476,-2.11348 4.82475,-4.80573 8.24391,-4.93083 1.61389,-1.09793 0.95013,-3.66966 2.80499,-4.68336 3.41218,-3.17185 8.103,-4.87335 11.12024,-8.42794 0.48257,-2.16019 -2.47519,-1.64693 -3.69107,-1.26792 -7.71782,1.26398 -14.04408,6.08367 -21.30465,8.60982 -2.12228,0.90457 -4.2136,1.98119 -6.50852,2.37909 6.91248,-9.76101 16.72826,-17.08946 23.60954,-26.86561 1.34117,-2.70988 3.85337,-5.95291 2.57495,-9.09418 -2.30184,-2.19066 -5.92434,-0.50701 -8.48845,0.30602 -9.87137,3.77903 -16.45583,12.55968 -23.95251,19.55421 -6.92735,7.48047 -15.2909,13.38288 -23.93607,18.6962 8.07422,-10.93693 19.4493,-19.40122 25.53441,-31.79547 8.07049,-13.71715 15.02764,-28.23593 18.67904,-43.79957 2.10933,-9.21553 5.36223,-19.2226 1.82809,-28.50652 -0.79114,-1.98738 -2.74559,-3.29391 -4.83577,-3.50705 z"
         style="color:#000000;clip-rule:nonzero;display:inline;overflow:visible;visibility:visible;opacity:1;isolation:auto;mix-blend-mode:normal;color-interpolation:sRGB;color-interpolation-filters:linearRGB;solid-color:#000000;solid-opacity:1;fill:#80ae31;fill-opacity:1;fill-rule:nonzero;stroke:none;stroke-width:3;stroke-linecap:round;stroke-linejoin:round;stroke-miterlimit:4;stroke-dasharray:none;stroke-dashoffset:0;stroke-opacity:1;color-rendering:auto;image-rendering:auto;shape-rendering:auto;text-rendering:auto;enable-background:accumulate" />
      <path
         sodipodi:nodetypes="scscssssssssssssssssccssccccssscccssssssssscsssssssccssssssssssssscssssssssssssssssssssssssssssssssssssssssssssssssssssssscssssssscssssssssssssccsccsssssssssssssscssssssssssssssccssssssssssssssssssssssssssssscsssssscssccssssscsssssssssssssssssssssssssssssssssssscccssssccssscsssssssssssscccssssssssssssscsssssssssscssssscsssssssssssssssssssssssssscccsssssssssssssssssssscsssssssscccssssssscsssssssssccssssscccccsssssssssssssssssssssssssssssscsssssscssssssccscssssssscccsssscccsssccccssssscccsssccsssssssssssssssssssssssssscsscssssssssscccssssccsccsssssssssssssscssssssssscsssssssssscssccscccssssscssscscsssscssssssssssscsssssssssssscssscssscsssssscssscssscssssssssccsssssssssssssssscsscsssssccsssccsssssssssscssssscssscssssssccssccssscsssssscsssscscssccccsssssscssssssssssssssssssssssscscccssssssssccssccsscssssssccsssccssssssscccscsssssssssssssssssssssscscssscssssscssccsssssscsssssssssscssssscssscsssssssssssssssssssssssssscssssscssssssscccsssccssssssssssssssssssssssssscssssssssssscccssscsscscccsssccsssssssscssssssssscsscssssssssssscssssssssssssssssscsssscsssssssssscssssssssssssssssssccsssscsssccsssssssccssssccc"
         inkscape:connector-curvature="0"
         id="path8121"
         d="m 631.91992,115.17969 c -13.34375,0.61232 -24.09109,17.78263 -31.42383,28.71093 -1.46765,2.33061 -10.61442,20.05142 -21.11914,40.91797 -4.0582,8.06122 -7.58064,14.45451 -7.82812,14.20703 -0.24748,-0.24747 0.463,-4.87611 1.58008,-10.2871 4.51617,-21.87575 3.7149,-40.32188 -2.03711,-46.87305 -1.55491,-1.77095 -4.2228,-3.7977 -5.92774,-4.50391 -2.95613,-1.22446 -6.02029,-0.77494 -9.07422,2.5586 -14.42427,15.74494 -14.99416,23.88324 -17.35546,50.73046 -0.81915,9.31348 -1.91919,19.92974 -2.44336,23.5918 -0.52418,3.66207 -1.40992,9.82537 -1.96875,13.69727 -1.21509,8.41891 -13.04716,50.09902 -16.65625,58.67383 -5.16448,12.27027 -9.33755,19.24843 -13.0293,21.7871 -1.99953,1.375 -4.64723,3.4 -5.88281,4.5 -2.48913,2.21599 -4.73899,3.53969 -18.24805,10.73047 -5.0875,2.70804 -9.25,5.33804 -9.25,5.84571 0,0.50768 -0.68899,0.92382 -1.53125,0.92382 -0.84227,0 -10.85477,4.76884 -22.25,10.59766 -19.56749,10.00905 -20.89552,10.53347 -23.89453,9.46094 -3.65039,-1.30549 -7.66925,-0.57497 -11.47852,2.08594 -1.4599,1.01979 -3.16314,1.85546 -3.78515,1.85546 -0.93672,10e-6 -9.13814,4.11853 -14.00782,6.86719 6.71319,-5.09075 23.22705,-21.38547 24.95703,-25.25 4.20587,-9.39531 -0.63375,-12.61719 -6.0996,-12.61719 -2.05895,0 -15.03568,6.58504 -15.97657,8.10743 -4.08646,5.15536 -9.58196,9.68173 -0.94336,-5.35743 0.58709,-2.33749 1.72995,-5.44443 2.53907,-6.90429 4.28089,-7.91088 7.32818,-19.50328 10.6289,-28.84571 2.52582,-9.2286 2.90446,-19.24944 0.95117,-25.16796 -1.73346,-5.25243 -8.10937,-10.23081 -8.10937,-6.33204 0,0.825 0.69771,1.5 1.55078,1.5 2.78194,0 4.75925,6.78396 4.08008,14 -0.70226,7.41104 -3.99119,20.9422 -7.8125,31.83204 -3.95264,9.81447 -8.60795,19.12373 -14.48242,28.89062 -3.11605,6.67328 -6.61577,10.96764 -21.51953,26.40039 -0.92572,0.95858 -2.44021,2.89682 -3.36524,4.3086 -2.18787,3.33911 -1.22517,3.24032 4.1543,-0.43165 2.41726,-1.65 6.47762,-4.42144 9.02344,-6.1582 2.54582,-1.73676 6.37055,-4.99926 8.5,-7.25 15.30479,-16.17655 18.50966,-18.96162 25.52343,-22.17578 9.75824,-4.47186 11.98631,-2.03771 6.04297,7.74609 -3.184,5.24143 -14.41259,15.06163 -20.51367,22.28516 -1.08466,1.28422 -1.97266,2.52172 -1.97266,2.75 0,0.1593 0.0914,0.21991 0.24024,0.21875 -0.40963,0.2665 -0.73259,0.49212 -0.88281,0.63867 -2.08108,2.03023 0.71159,2.16343 4.68945,0.22266 2.33362,-1.13856 5.36914,-2.40796 6.74414,-2.82031 1.375,-0.41235 4.075,-1.73855 6,-2.94727 1.925,-1.20872 4.7375,-2.49259 6.25,-2.85351 1.5125,-0.36093 3.875,-0.93432 5.25,-1.27344 4.33287,-1.06862 2.7314,1.00305 -3.96484,5.13086 -4.71924,2.90911 -6.474,4.57632 -6.5,6.17382 -0.0268,1.64962 -0.589,2.14194 -2.28516,2 -1.66834,-0.13959 -4.70697,2.39768 -11.75195,9.8125 -11.182,11.76903 -21.12481,23.00958 -22.41602,25.3418 -0.50476,0.9117 -3.68957,5.25821 -7.07617,9.6582 -3.38659,4.4 -7.8329,10.92501 -9.88281,14.5 -2.04991,3.57501 -5.67717,9.2 -8.0586,12.5 -2.38142,3.3 -8.69549,14.55001 -14.0332,25 -5.33772,10.45001 -10.32514,19.64259 -11.08203,20.42774 -1.66438,1.72653 -1.75276,1.50548 -3.21289,-8.04297 -0.55627,-3.63772 -2.90608,-11.05055 -5.22266,-16.47266 -2.31658,-5.42212 -4.4364,-11.24176 -4.71094,-12.93359 -0.27455,-1.69182 0.45392,-7.55399 1.61914,-13.02734 2.12265,-9.97069 7.35591,-22.061 15.5625,-35.95118 1.9497,-3.3 4.16723,-7.40855 4.92774,-9.1289 0.76051,-1.72036 1.88733,-3.43925 2.50391,-3.82031 0.61657,-0.38107 2.25338,-2.92639 3.63671,-5.65625 1.38332,-2.72986 3.28676,-5.75723 4.23047,-6.72852 0.94372,-0.97129 3.18368,-4.66937 4.97656,-8.2168 1.79289,-3.54743 5.04953,-9.14921 7.23829,-12.44922 2.18877,-3.29999 4.38982,-6.89999 4.89062,-8 0.50079,-1.1 2.07745,-3.70352 3.50391,-5.78515 1.42645,-2.08162 3.42537,-5.45662 4.4414,-7.5 3.98283,-8.01 7.15309,-13.41203 9.9668,-16.98438 1.61645,-2.05228 4.76805,-7.4753 7.00391,-12.05078 2.23585,-4.57549 4.4544,-8.85049 4.93164,-9.5 1.44181,-1.96225 10.53515,-26.71811 10.53515,-28.09179 0,-0.70335 0.74405,-2.10357 1.6543,-3.10938 0.91024,-1.00581 1.21254,-1.82812 0.66992,-1.82812 -1.25923,0 -6.45685,11.98311 -10.5957,20.3496 -3.67868,7.4363 -4.34809,8.72304 -7.77539,14.96094 -1.37137,2.49598 -3.33269,6.11406 -4.35742,8.03906 -1.02472,1.92501 -4.08742,6.65 -6.80664,10.5 -2.71922,3.85001 -6.81105,10.375 -9.09375,14.5 -4.55935,8.23908 -16.57398,25.95304 -25.4336,37.5 -0.84399,1.1 -2.90351,4.025 -4.57812,6.5 -1.67461,2.475 -4.58044,6.525 -6.45703,9 -16.25444,21.43769 -25.49805,41.53542 -25.49805,55.4375 0,7.26452 4.02583,20.98753 9.92187,33.82032 3.2898,7.16027 6.0397,17.25795 6.0586,22.24218 0.007,1.81255 -2.13386,6.7603 -5.41016,12.5 -2.98251,5.225 -6.95819,12.425 -8.83398,16 -1.8758,3.57501 -4.84961,8.525 -6.60938,11 -1.75977,2.475 -4.32669,6.20835 -5.70508,8.29688 -3.64344,5.52052 -12.0697,13.98653 -13.45898,13.52344 -0.65624,-0.21875 -1.99339,-2.50351 -2.9707,-5.07813 -2.52679,-6.65658 -7.10848,-12.00372 -15.8711,-18.52343 -6.9364,-5.16094 -15.95422,-10.21876 -18.2207,-10.21876 -2.20697,10e-6 -0.40171,1.75147 4.98047,4.83204 7.82706,4.47993 18.86905,15.41608 22.93359,22.71484 3.76476,6.76043 7.18555,18.06342 7.18555,23.74219 0,2.2981 0.39984,3.58185 1,3.21093 0.55,-0.33992 1,-3.70595 1,-7.47851 0,-3.77256 0.27785,-7.58249 0.61719,-8.4668 0.33935,-0.88431 2.92685,-2.70578 5.75,-4.04883 6.5991,-3.13935 17.72169,-14.58443 24.8789,-25.5996 5.96446,-9.17951 16.98092,-27.48668 20.42578,-33.94336 1.19456,-2.23895 2.59589,-4.60948 3.11524,-5.26758 1.78576,-2.26288 6.1478,-10.6543 9.05469,-17.41992 2.93854,-6.83928 11.45711,-25.07828 13.43945,-28.7754 0.5898,-1.1 3.23513,-6.38592 5.87695,-11.74609 2.64181,-5.36017 6.38655,-12.04924 8.32227,-14.86328 1.93573,-2.81405 3.51953,-5.54865 3.51953,-6.07813 0,-4.33296 19.86898,-27.28735 28.5,-32.92578 2.2,-1.4372 8.5,-5.55498 14,-9.15039 10.82117,-7.07393 27.69658,-16.39286 44.75,-24.71289 5.9125,-2.88459 10.75,-5.54701 10.75,-5.91601 0,-0.369 2.1375,-1.29223 4.75,-2.05078 5.28256,-1.53379 14.43303,-6.36868 16.29102,-8.60743 0.66206,-0.79774 1.75055,-1.44922 2.41992,-1.44922 0.66937,0 1.73092,-1.125 2.35742,-2.5 0.62649,-1.375 1.93587,-2.50285 2.91016,-2.50585 0.97428,-0.003 3.23995,-1.46529 5.03515,-3.25 1.79519,-1.7847 7.34764,-7.29415 12.33789,-12.24415 9.07849,-9.00526 14.44175,-16.36616 13.65235,-18.73437 -0.25055,-0.75163 -0.93097,-0.25335 -1.6875,1.23633 -1.30906,2.57769 -9.96859,10.99804 -11.31055,10.99804 -1.49922,0 -0.71063,-2.57185 1.53711,-5.01171 1.26155,-1.36938 3.37575,-5.41329 4.69726,-8.98829 7.09497,-19.19352 15.74383,-33.51742 19.01758,-31.49414 1.31106,0.8103 1.26837,6.10997 -0.0703,8.61133 -0.58454,1.09221 -0.92204,2.97448 -0.75,4.1836 0.24042,1.68981 1.53631,0.16822 5.60547,-6.57618 2.91166,-4.82592 5.10208,-9.10092 4.86719,-9.5 -0.45434,-0.77191 1.07447,-3.18546 8.46289,-13.35937 4.457,-6.13731 12.22127,-19.61007 15.48047,-26.86524 0.86476,-1.925 3.98084,-8.44999 6.92578,-14.5 2.94495,-6.05 6.34961,-13.69999 7.5664,-17 1.2168,-3.3 2.82067,-6.93638 3.5625,-8.08007 0.74183,-1.14368 2.05947,-4.51868 2.92969,-7.5 0.87022,-2.98131 2.61136,-7.21993 3.86914,-9.41993 1.25779,-2.19999 2.62971,-5.125 3.04883,-6.5 0.72233,-2.3697 5.62099,-10.00244 8.17773,-12.74218 4.4813,-4.93651 6.6648,-10.60171 14.82422,-13.69727 6.90991,-2.88715 14.31321,-0.20221 18.73242,6.79297 7.80671,12.35726 7.06645,28.47489 -2.33203,50.77148 -6.62051,15.73602 -14.56022,29.70632 -24.9082,44.48633 0,0.31971 -2.4189,3.34985 -5.375,6.73438 -5.21388,5.96954 -10.97989,14.16135 -15.16797,21.55078 -1.48193,2.61472 -2.63889,3.53836 -4.2207,3.36914 -1.92259,-0.20569 -2.10954,0.12417 -1.57617,2.79102 0.52832,2.64161 0.0838,3.46953 -3.52735,6.56054 -2.27317,1.94575 -4.13281,3.99958 -4.13281,4.56446 0,0.56488 -1.3354,3.0046 -2.9668,5.42187 -1.63139,2.41726 -2.51827,4.39648 -1.9707,4.39648 0.54757,0 3.28415,-1.80947 6.08008,-4.01953 8.16382,-6.45312 16.57982,-10.98047 20.41015,-10.98047 1.89553,10e-6 3.44727,0.3085 3.44727,0.68555 0,1.01579 -4.21186,5.31445 -5.20703,5.31445 -0.47187,0 -4.03355,2.1375 -7.91602,4.75 -10.635,7.15626 -12.18849,8.13745 -14.52929,9.17383 -1.18407,0.52424 -2.42457,1.39171 -2.75586,1.92774 -0.33128,0.53603 -4.31301,2.8684 -8.84766,5.18359 -4.53464,2.31518 -8.91914,4.76848 -9.74414,5.45313 -0.825,0.68466 -5.55,3.16997 -10.5,5.52148 -4.95,2.35151 -9.675,4.65353 -10.5,5.11719 -0.825,0.46366 -3.075,1.67034 -5,2.68164 -1.925,1.0113 -7.775,4.24129 -13,7.17773 -5.225,2.93645 -16.025,8.68581 -24,12.77539 -7.975,4.08958 -15.21177,8.06539 -16.08008,8.83594 -0.86831,0.77056 -2.01293,1.40234 -2.54492,1.40234 -0.53198,0 -4.2513,2.025 -8.26563,4.5 -4.01433,2.47501 -7.6914,4.5 -8.16992,4.5 -0.47853,0 -1.35075,0.9 -1.93945,2 -0.5887,1.10001 -1.88545,2 -2.88086,2 -0.9954,0 -2.62365,0.9 -3.61914,2 -0.99549,1.10001 -2.35544,2 -3.02148,2 -0.66605,10e-6 -6.63792,4.03432 -13.27149,8.9668 -10.33139,7.68169 -12.9201,10.19875 -18.04297,17.54102 -14.30068,20.49621 -18.48025,35.19583 -22.17578,77.99218 -2.10402,24.36576 -3.61747,29.76348 -10.47461,37.35352 -1.86985,2.0697 -4.99486,5.98511 -6.94336,8.70313 -9.05123,12.62582 -8.58745,15.42113 0.73828,4.44921 6.75343,-7.94555 10.66882,-10.38925 9.22071,-5.75586 -0.38676,1.2375 -1.23138,4.36829 -1.87696,6.95899 -0.64558,2.5907 -1.73031,5.26937 -2.41211,5.95117 -0.6818,0.6818 -1.24023,1.94879 -1.24023,2.81641 0,0.86763 -0.60038,2.46591 -1.33398,3.55078 -0.73362,1.08488 -1.66292,2.87163 -2.06446,3.9707 -0.56765,1.55375 -0.0297,1.33128 2.41602,-1 3.15106,-3.00365 10.09042,-16.36373 11.42578,-21.99805 0.39106,-1.64999 1.32308,-4.35 2.07226,-6 2.22325,-4.89648 5.32949,-21.24904 6.4668,-34.04882 3.68449,-41.46672 8.00154,-58.17314 19.47656,-75.36328 5.75587,-8.62257 14.78566,-16.97507 25.5,-23.5879 0.89113,-0.55 3.91305,-2.6875 6.71485,-4.75 2.8018,-2.0625 5.56583,-3.75 6.14258,-3.75 0.57675,0 1.32056,-0.85506 1.65234,-1.90039 0.33177,-1.04532 1.82362,-2.20267 3.31641,-2.57031 1.4928,-0.36763 5.86484,-2.61656 9.71484,-4.99804 3.85,-2.38148 15.325,-8.58823 25.5,-13.79297 10.175,-5.20474 20.76226,-10.76325 23.52734,-12.35157 23.21031,-13.33252 41.47266,-14.91759 41.47266,-3.59961 0,3.64139 -1.34283,5.40419 -8.9375,11.73047 -3.88424,3.23553 -7.0625,6.42318 -7.0625,7.08399 0,0.6608 -1.35,1.67284 -3,2.24804 -4.93154,1.71914 -3.43199,2.3136 3.99219,1.58204 5.00677,-0.49335 7.42079,-0.33317 8.5,0.5625 1.93507,1.60621 1.93983,5.40242 0.008,7.00585 -0.825,0.68469 -1.5,1.83146 -1.5,2.54883 0,1.50587 -5.81778,4.68228 -7.11133,3.88282 -0.47689,-0.29474 -0.61317,0.1219 -0.30469,0.92578 0.33984,0.88563 -0.19229,1.70104 -1.34961,2.06836 -1.05049,0.33341 -3.4136,1.94857 -5.25195,3.58984 -1.83834,1.64128 -3.86711,2.98437 -4.50781,2.98437 -0.6407,10e-6 -1.9702,0.88849 -2.95313,1.97461 -0.98292,1.08612 -3.67726,2.88908 -5.98828,4.00782 -2.31101,1.11874 -5.25383,3.15526 -6.54101,4.52539 l -2.3418,2.49218 4.77344,0 c 6.851,10e-6 11.57617,2.46198 11.57617,6.03321 0,3.53608 -10.5123,14.45189 -14.71094,15.27539 -4.42168,0.86724 -11.52212,2.75521 -14.78906,3.93359 -5.85794,2.11295 -13.92917,2.01352 -22.93359,-0.2832 -4.7587,-1.21378 -8.88732,-1.97205 -9.17383,-1.68555 -0.71694,0.71694 9.19173,5.15992 18.90234,8.47656 9.67308,3.30382 15.46521,7.95937 13.79297,11.08399 -1.37023,2.56029 -9.13245,5.16601 -15.39063,5.16601 -7.9064,10e-6 -28.82642,-10.56428 -30.02929,-15.16406 -0.26414,-1.01006 -1.02577,-1.83594 -1.69141,-1.83594 -0.83226,0 -0.95268,0.70273 -0.38672,2.25 1.31617,3.5983 1.0341,18.69095 -0.47656,25.5 -1.33732,6.02771 -1.52873,6.29254 -5.34375,7.43555 -2.7599,0.82688 -4.4574,0.87427 -5.61328,0.1543 -2.81157,-1.75126 -5.9396,-8.3784 -7.20508,-15.26563 -1.49977,-8.16231 -3.68582,-13.75344 -4.88867,-12.50195 -1.50909,1.57011 -5.07279,13.57773 -6.0625,20.42773 -0.51652,3.575 -1.42192,11.32484 -2.01172,17.22266 -0.5898,5.89783 -2.00927,14.435 -3.15625,18.9707 -2.57151,10.16894 -11.89956,29.36419 -19.98047,41.11914 -3.33232,4.84739 -5.81937,9.05368 -5.52734,9.34571 0.29203,0.29203 2.70127,-2.29186 5.35351,-5.74024 2.65225,-3.44838 6.84727,-8.62363 9.32227,-11.50195 5.29522,-6.15812 11.35669,-17.66764 13.38476,-25.41602 0.79177,-3.025 1.93099,-7.36225 2.53321,-9.63867 0.60222,-2.27643 1.52243,-11.50143 2.04492,-20.5 0.92208,-15.88072 3.4692,-31.33178 5.00781,-30.38086 0.41631,0.25729 0.97773,3.5598 1.24805,7.33789 0.63375,8.85748 4.40686,17.419 8.64258,19.60938 1.67103,0.86412 4.82157,1.57226 7,1.57226 3.18624,0 4.46222,-0.59531 6.52343,-3.04492 4.27123,-5.07606 5.13743,-9.73066 3.75196,-20.13672 -0.66496,-4.99437 -0.98316,-9.30785 -0.70703,-9.58398 0.27613,-0.27613 2.06367,0.87077 3.97265,2.54688 5.07483,4.45577 17.31183,10.17049 23.27539,10.87109 10.11822,1.18869 22.32227,-3.95423 22.32227,-9.40625 0,-1.56967 -6.16415,-7.96968 -9.51367,-9.87891 -3.53403,-2.01439 -0.6219,-2.7618 5.79492,-1.48633 7.01995,1.39534 23.51429,1.79257 28.46875,0.68555 3.07981,-0.68815 3.25,-0.57628 3.25,2.14063 0,2.10802 -1.25752,4.08639 -4.75,7.46875 -7.84241,7.59514 -23.04424,16.81551 -36.75,22.29101 l -4,1.59766 5,-0.66211 c 14.56037,-1.92633 17.35623,-0.56735 14.99414,7.28125 -0.74577,2.47803 -2.17511,5.41107 -3.17578,6.51758 -2.10411,2.32666 -8.70326,5.874 -11.73828,6.31054 -1.14445,0.16461 -4.46461,0.78437 -7.37891,1.37696 -7.11205,1.44615 -12.80184,1.48852 -24.60937,0.18554 -5.44927,-0.60096 -10.12562,-0.87437 -10.39258,-0.60742 -0.26695,0.26696 0.14198,0.65691 0.9082,0.86719 0.76622,0.21028 2.96758,0.86275 4.89258,1.44922 1.925,0.58646 6.35379,1.84598 9.8418,2.79883 3.48801,0.95285 6.55381,2.28483 6.8125,2.95898 0.2587,0.67415 -0.18867,2.7976 -0.99219,4.7207 -1.18438,2.83463 -2.75624,4.11169 -8.31055,6.7461 -6.80454,3.22739 -6.92803,3.24688 -18.13867,2.65625 -11.7202,-0.61748 -13.54945,0.14129 -5.66211,2.34961 6.167,1.72665 8.07544,4.56713 6.14063,9.14062 -2.53466,5.9914 -4.92981,7.28704 -14.54102,7.86524 -8.51752,0.51241 -8.58908,0.53911 -4.65039,1.67968 2.2,0.63708 6.21908,1.3018 8.93164,1.47852 4.88202,0.31804 4.97548,0.26783 9.3125,-5.04297 2.97729,-3.64579 4.32791,-6.20949 4.21289,-8 -0.31804,-4.95112 -0.28495,-4.97615 5.97852,-4.4082 5.12367,0.4646 6.52513,0.19254 10.25,-1.9961 5.40482,-3.17573 8.73016,-7.62373 9.62695,-12.87695 l 0.69336,-4.06836 8.49609,-0.14258 c 10.98665,-0.18489 18.00165,-3.35056 23.9336,-10.80078 3.88993,-4.88554 4.00789,-5.25329 3.55468,-11.08203 -0.48087,-6.1845 -1.69019,-8.75977 -4.11328,-8.75977 -3.26085,10e-6 -0.93432,-2.78869 4.37305,-5.24218 7.70546,-3.56207 18.74512,-12.03857 21.91211,-16.82422 2.05365,-3.10327 2.43674,-4.59085 1.9082,-7.4082 -0.6441,-3.43333 -0.57867,-3.5254 2.51758,-3.5254 3.32158,10e-6 6.27619,-0.71274 19.21289,-4.63476 4.29089,-1.30087 8.29035,-2.36524 8.88672,-2.36524 0.71641,0 0.86677,1.61161 0.44531,4.75 -0.82298,6.12832 -4.61365,24.15598 -5.625,26.75 -0.42887,1.1 -1.16916,3.73295 -1.64453,5.85157 -0.78307,3.49002 -1.4053,4.07959 -6.63476,6.27343 -4.56294,1.91424 -6.19999,2.19203 -7.81055,1.33008 -1.71908,-0.91977 -1.98935,-0.81059 -1.72852,0.69336 0.23266,1.34152 -1.97904,3.01767 -8.93945,6.77149 -5.0875,2.74374 -9.25,5.33588 -9.25,5.75976 0,0.84807 0.65878,0.60942 13,-4.70117 11.67231,-5.02276 16.99556,-6.3517 26.48633,-6.61328 6.62969,-0.18271 8.97625,0.18024 12.64258,1.95508 2.47614,1.19868 5.00185,2.17968 5.61328,2.17968 1.91524,0 5.25781,5.14126 5.25781,8.0879 0,4.78919 -2.05968,8.13311 -4.69727,7.6289 -1.71548,-0.32793 -2.30273,0.0191 -2.30273,1.36133 0,0.99128 -0.39213,2.04579 -0.87109,2.3418 -0.47896,0.29602 -1.12256,1.79443 -1.42969,3.33007 -0.70874,3.5437 -11.14831,10.43862 -18.46289,12.19336 -2.786,0.66835 -11.64942,1.29087 -19.69531,1.38477 -13.68126,0.15973 -14.49839,0.27652 -12.625,1.79883 1.10172,0.89527 4.05035,2.23183 6.55273,2.9707 2.50239,0.73886 4.42072,1.73001 4.26367,2.20117 -0.15706,0.47116 -2.68205,1.6685 -5.61133,2.66016 -2.92928,0.99166 -6.5162,2.67608 -7.97265,3.74414 -3.95334,2.89912 -9.6672,11.89499 -11.09571,17.46875 -1.56883,6.12126 -10.37541,18.0129 -20.32812,27.45117 -3.97398,3.76857 -10.14961,9.80782 -13.72461,13.42188 -3.575,3.61406 -8.51711,8.12084 -10.98242,10.01367 -2.46532,1.89283 -5.16532,4.02461 -6,4.73828 -2.11272,1.80638 -15.20997,11.48663 -17.1875,12.70312 -0.89407,0.55 -3.7205,2.4625 -6.2793,4.25 -2.5588,1.7875 -4.82271,3.25 -5.03125,3.25 -0.20853,0 -2.99782,1.72408 -6.19922,3.83204 -3.20139,2.10796 -10.54531,6.46157 -16.32031,9.67382 -5.775,3.21225 -11.25712,6.4791 -12.18164,7.25977 -0.92453,0.78067 -3.02069,2.16455 -4.6582,3.07617 -1.63752,0.91163 -5.3804,3.1161 -8.31836,4.89844 -6.22378,3.77571 -7.26305,3.97867 -6.55664,1.27734 0.44102,-1.68647 0.23491,-1.83062 -1.38282,-0.96484 -1.04601,0.55981 -1.90234,1.9484 -1.90234,3.08789 0,1.4212 -0.46593,1.89472 -1.48438,1.50391 -0.81655,-0.31334 -4.30405,0.97097 -7.75,2.85546 -5.7269,3.13189 -12.65605,6.55829 -23.26562,11.50196 -4.24097,1.97614 -10.48497,4.49696 -19.5,7.87304 -3.025,1.13284 -11.35,4.36874 -18.5,7.19141 -7.15,2.82266 -17.725,6.91409 -23.5,9.0918 -5.775,2.1777 -12.00411,4.84124 -13.8418,5.91992 -1.83768,1.07868 -6.03316,2.86788 -9.32422,3.97656 -3.29106,1.10868 -9.80627,3.59798 -14.47656,5.53125 l -8.49023,3.51563 -6.6836,-3.30078 c -6.10918,-3.01725 -7.45705,-3.29694 -15.68359,-3.24414 -7.81036,0.0501 -10.454,0.57072 -20,3.9375 -10.49311,3.70077 -11.54049,3.87515 -22.72656,3.78125 -6.55555,-0.055 -15.15427,-0.81315 -19.5,-1.72071 -4.27546,-0.89289 -12.72344,-2.03289 -18.77344,-2.5332 -6.05,-0.50032 -12.575,-1.08977 -14.5,-1.30859 -3.88641,-0.44178 -19,-7.36449 -19,-8.70313 0,-0.93864 2.71444,-1.57172 11,-2.5625 9.62997,-1.15155 21.36455,-10.08515 25.72461,-19.58398 1.4806,-3.22563 3.07258,-5.86329 3.53906,-5.86329 0.46648,0 1.70458,1.93353 2.75,4.29688 2.47421,5.59337 13.14943,16.22193 18.93945,18.85742 3.21666,1.46415 6.7771,2.10239 12.17188,2.17969 6.79147,0.0973 8.06247,-0.19314 11.60547,-2.64844 4.44083,-3.0775 8.96971,-9.65393 11.83398,-17.18555 3.14443,-8.26832 2.50005,-24.2092 -1.51562,-37.5 -1.74486,-5.775 -4.27024,-12.1778 -5.61133,-14.22851 -1.34109,-2.05071 -2.4375,-4.1939 -2.4375,-4.76172 0,-0.56782 -3.39836,-4.58926 -7.55078,-8.93555 -9.28374,-9.71718 -14.31484,-12.36789 -23.69922,-12.48828 -3.71234,-0.0476 -6.74984,-0.16979 -6.75,-0.27148 -1.7e-4,-0.1017 0.49862,-1.4517 1.10742,-3 0.60879,-1.54831 1.48697,-4.09133 1.95313,-5.65039 0.7228,-2.41734 0.63291,-2.65635 -0.60743,-1.62696 -0.79997,0.66391 -1.45312,1.76569 -1.45312,2.44727 0,0.68158 -1.29071,4.11338 -2.86719,7.62695 -3.53318,7.87455 -6.79805,26.73611 -7.51172,43.38867 -0.56086,13.08707 -1.34006,16.0098 -7.79883,29.27344 -7.05977,14.49788 -18.09483,23.1018 -30.17578,23.52735 -3.56381,0.12554 -5.80616,0.67895 -6.12695,1.51171 -0.27826,0.72199 -0.93889,1.04622 -1.46875,0.71876 -0.52985,-0.32748 -0.73425,-1.19514 -0.45312,-1.92774 0.33619,-0.87611 -0.59635,-1.55442 -2.72657,-1.98047 -3.935314,-0.78706 -15.416935,-12.10043 -21.736325,-21.41797 -5.84021,-8.61102 -11.593961,-21.02275 -14.462891,-31.20508 -4.42124,-15.69168 -4.150999,-19.8879 0.775391,-12.08398 1.35962,2.15377 3.025805,4.25717 3.703125,4.67578 0.67733,0.41861 0.278151,-0.78113 -0.886719,-2.66601 -1.16487,-1.88488 -3.520165,-6.25389 -5.234375,-9.70899 -1.71421,-3.45511 -3.554913,-6.01029 -4.089844,-5.67969 -0.534889,0.33061 -0.730736,0.99111 -0.435546,1.46875 0.29519,0.47763 0.705932,6.18478 0.914062,12.68164 0.20813,6.49687 0.837588,13.16251 1.398438,14.8125 0.56086,1.65001 1.793764,5.70001 2.740234,9 0.94647,3.3 4.113619,10.95001 7.037109,17 4.3593,9.02134 6.996997,12.88874 14.660157,21.5 6.46595,7.26594 11.201743,11.58021 15.375004,14.00782 3.31693,1.92948 6.75865,4.23715 7.65039,5.1289 0.89175,0.89175 3.20403,1.91867 5.13672,2.28125 1.93269,0.36257 3.77258,1.07845 4.08984,1.5918 0.26518,1.25592 -13.62064,30.74873 -16.27539,36.56836 -1.17708,2.79382 -3.698971,7.96882 -5.605471,11.5 -4.58249,8.48764 -12.625,24.71359 -12.625,25.4707 0,0.32976 -2.410208,5.62951 -5.355468,11.7793 -2.94526,6.14978 -5.697385,12.30577 -6.115235,13.67773 -0.41786,1.37196 -1.599443,4.06915 -2.626953,5.99414 -1.02751,1.92501 -2.777259,5.67374 -3.886719,8.33204 -2.28757,5.32369 -4.241227,8.40054 -7.585937,17.48632 -1.59038,3.80631 -1.871679,7.18164 -0.599609,7.18164 0.456759,10e-6 2.28508,-2.02499 4.0625,-4.5 8.17564,-7.96607 13.330078,-13.58007 13.330078,-13.58007 0,0 9.994213,-11.78025 19.277343,-20.03711 0.55,-0.48919 2.971796,-2.80063 5.382811,-5.13672 8.68262,-8.41278 12.94118,-12.16874 20.12305,-17.75586 2.46736,-1.91948 7.18811,-6.03293 10.49023,-9.14063 4.93891,-4.64811 13.15626,-11.53807 19.15821,-16.06445 0.63459,-0.47858 4.00959,-1.54743 7.5,-2.375 13.2027,-3.13035 15.37966,-3.74854 16.61914,-4.70898 0.70079,-0.54303 1.5296,-0.73211 1.84179,-0.41992 0.31219,0.31219 2.46176,-0.24264 4.77539,-1.23438 2.31363,-0.99174 6.20982,-2.1348 8.65821,-2.53906 2.44839,-0.40427 4.90117,-1.08733 5.45117,-1.51758 0.55,-0.43025 3.925,-1.70053 7.5,-2.82422 10.95419,-3.44312 17.16706,-5.90497 25.26953,-10.01367 9.22342,-4.67713 18.31485,-11.45545 19.0293,-14.1875 0.28123,-1.07543 1.34075,-2.22313 2.35547,-2.55078 1.01472,-0.32765 2.7457,-0.98572 3.8457,-1.46289 1.1,-0.47718 3.8,-1.33515 6,-1.90625 2.2,-0.57111 5.95591,-2.16524 8.34766,-3.54102 2.39176,-1.37578 4.74106,-2.25737 5.2207,-1.96094 0.80799,0.49937 16.93926,-5.36257 26.62695,-9.67578 2.30732,-1.02728 4.46934,-1.86719 4.80469,-1.86719 2.63479,0 46.55435,-21.33986 50.23437,-24.4082 5.53558,-4.61548 17.30809,-10.45641 26.42969,-13.11133 5.13454,-1.49445 11.71144,-3.7895 14.61524,-5.09961 2.90379,-1.3101 5.53376,-2.38086 5.84375,-2.38086 1.37825,0 17.31541,-8.54424 23.64453,-12.67578 3.83757,-2.5051 10.07597,-6.08529 13.86328,-7.95703 7.75348,-3.83187 18.19636,-10.27379 18.70117,-11.53515 0.18334,-0.4581 0.90735,-0.83204 1.60742,-0.83204 0.70008,0 3.33437,-1.575 5.85547,-3.5 2.52109,-1.925 4.94903,-3.5029 5.39453,-3.5039 0.44549,-10e-4 2.38555,-1.38487 4.31055,-3.07617 1.925,-1.6913 5.11854,-4.1274 7.09766,-5.41407 4.33258,-2.81672 25.30577,-24.90708 30.61328,-32.24414 6.2966,-8.70438 9.48059,-14.19743 10.77539,-18.58789 1.78557,-6.05455 3.68132,-5.74293 5.80078,0.95508 3.03401,9.58821 6.90897,16.38246 11.67578,20.46875 2.49505,2.13885 4.95034,3.89053 5.45703,3.89453 0.50669,0.004 1.77307,0.77613 2.8125,1.7168 1.49809,1.35575 4.14305,1.76101 12.76172,1.95117 9.96987,0.21998 11.16003,0.0451 14.32617,-2.10351 1.89907,-1.28875 5.27994,-2.65191 7.51367,-3.0293 5.5655,-0.94028 13.0979,-6.11966 14.79102,-10.17188 4.80233,-11.49357 -3.65981,-19.2808 -14.31836,-13.17578 -0.85006,0.4869 -1.38968,0.80144 -1.95898,1.13281 -0.266,0.062 -0.53514,0.15588 -0.79297,0.33204 -4.50093,1.9628 -6.57598,2.42651 -7.16993,3.96093 -0.75888,1.96051 -1.19836,0.49148 -2.98052,0.57364 -1.01409,0.0959 -1.76241,0.84016 -2.22913,1.77952 -1.19619,2.40751 -10.42214,-20.2141 -9.98175,-23.30437 0.27882,-1.95647 1.31773,-2.28167 11.30664,-3.53906 14.20051,-1.78754 27.38507,-6.6569 33.83203,-12.49414 2.50374,-2.26694 6.1078,-5.2461 8.00977,-6.6211 1.90198,-1.37499 4.47004,-3.97734 5.70703,-5.78124 1.9952,-2.90963 2.12187,-3.70524 1.11719,-7.0586 -1.37876,-4.60184 -4.23065,-7.39846 -11.23829,-11.01953 l -5.33398,-2.75586 0.0977,-5.69922 c 0.0789,-4.60882 -0.4081,-6.44739 -2.54688,-9.61328 -3.27791,-4.85203 -7.28224,-8.0509 -11.45312,-9.15039 -1.75541,-0.46274 -5.32891,-1.38603 -7.94141,-2.05078 -4.43925,-1.12958 -6.03026,-2.96309 -3.77734,-4.35547 2.45853,-1.51946 4.08308,-11.30955 4.08398,-24.61719 l 0.002,-13.59961 3.95899,-1.1875 c 17.28373,-5.17833 26.98242,-13.62375 26.98242,-23.49804 0,-2.82372 -0.59926,-3.82032 -3.29492,-5.48633 -3.65836,-2.26099 -10.50846,-2.89043 -17.95508,-1.64844 -6.31962,1.05402 -6.07397,-0.39205 0.64648,-3.79492 19.99715,-10.22199 38.99495,-28.97027 54.44336,-46.6211 3.93671,-5.43448 3.95968,-7.41727 0.12891,-11.24804 -4.82192,-4.76315 -17.59385,-0.32024 -23.96875,3.61914 -8.85303,4.89961 -30,14.1885 -30,13.17773 0,-0.16466 3.7125,-3.38038 8.25,-7.14648 4.5375,-3.76609 12.15769,-10.66753 16.93359,-15.33594 4.77589,-4.66841 9.67357,-9.0178 10.88477,-9.66601 1.21119,-0.64821 5.73236,-5.17959 10.04687,-10.07032 12.00088,-13.60366 17.55654,-26.42191 16.6836,-38.49023 l -0.43946,-6.08789 5.07032,-2.29492 c 11.21131,-5.07544 21.98816,-16.67407 29.12304,-31.34571 11.73441,-24.12977 13.36741,-36.30699 5.75586,-42.90429 -6.6949,-5.80279 -13.30097,-3.33928 -27.80859,10.36718 -9.61852,9.08735 -10.70194,9.19076 -8.59375,0.81836 4.40615,-19.86003 -0.55311,-42.69958 -17.56836,-53.1582 -2.64399,-1.16702 -5.20276,-1.62121 -7.67383,-1.50781 z m -67.82617,25.35351 c 0.20506,-0.0103 0.40619,-0.004 0.60352,0.0195 2.18418,0.25618 3.37966,1.30146 4.96679,4.33789 3.31165,6.33572 2.83917,23.69625 -1.15625,42.5 -3.56473,16.77673 -11.26792,42.63974 -14.08789,47.29883 -1.06564,1.76062 -3.35791,5.96498 -5.0957,9.34375 -2.4778,4.81761 -3.74454,6.24444 -5.86524,6.60938 -1.48733,0.25594 -3.51322,0.80998 -4.5039,1.23242 -1.64786,0.70268 -1.74781,0.31139 -1.16406,-4.60742 0.35095,-2.95716 1.02315,-6.72695 1.49414,-8.37696 1.71488,-6.0076 3.12819,-22.4071 3.44726,-40 0.21184,-11.68063 0.92368,-20.98414 2.02539,-26.5 3.07479,-15.39423 12.97909,-31.53691 19.33594,-31.85742 z m 123.41992,19.21875 c 0.69959,-0.0492 1.33379,0.009 1.88477,0.1836 2.28766,0.72608 5.84751,6.07102 5.85351,8.78711 0.006,2.91137 -4.95823,16.73966 -7.75976,21.61718 -3.50674,6.1053 -8.10674,12.0036 -14.95117,19.16602 -3.18162,3.32944 -8.17642,8.5512 -11.09961,11.60352 -2.92319,3.05231 -6.01268,6.61288 -6.86524,7.91406 -1.58666,2.42155 -4.71424,3.15684 -5.82031,1.36718 -1.40709,-2.27671 -5.26764,-1.00854 -6.84961,2.25 -1.86806,3.84783 -8.54611,10.95231 -18.09375,19.25 -3.79711,3.30001 -7.5493,6.64194 -8.33789,7.42774 -1.12772,1.12375 -2.04953,1.19745 -4.31641,0.3418 -1.58517,-0.59835 -3.89925,-0.86018 -5.14258,-0.58204 -1.24331,0.27816 -4.84726,1.83767 -8.00976,3.4668 -4.60699,2.37324 -5.75,2.65311 -5.75,1.4043 0,-0.85725 0.3375,-1.56431 0.75,-1.57031 0.69043,-0.009 4.42804,-4.57244 15.52734,-18.96289 2.32257,-3.01125 5.43446,-6.61125 6.91602,-8 1.48156,-1.38874 5.12959,-5.97217 8.10742,-10.1836 6.09593,-8.62126 18.98977,-23.74053 31.78125,-37.26758 4.72016,-4.99159 10.68548,-11.70717 13.25586,-14.92382 5.87941,-7.35766 14.0228,-12.94439 18.91992,-13.28907 z m -41.74609,72.63867 c 1.67171,0 2.0275,2.54871 0.48828,3.5 -1.84217,1.13852 -1.02528,2.5 1.5,2.5 1.375,10e-6 2.49714,0.33751 2.49414,0.75 -0.9667,20.5431 -38.67654,56.86048 -50.24414,67.03711 -4.36619,3.35186 -8.95873,8.49065 -14.40234,11.83204 -5.61672,5.35655 -18.00181,14.38085 -19.73633,14.38085 -1.8167,10e-6 -2.994,1.64535 -1.73438,2.42383 0.89372,0.55235 19.76475,-5.48913 27.62305,-8.84375 2.2,-0.93916 6.50863,-2.55888 9.57617,-3.59765 3.06753,-1.03878 8.58221,-3.48182 12.25391,-5.42969 4.4087,-2.33338 10.28816,-4.98051 15.58008,-6.55274 0.36654,0 2.43225,-0.89999 4.58984,-2 5.91779,-3.01706 11.5,-2.49613 11.5,1.07422 -1.4164,7.11277 -22.42999,21.45627 -30.5,25.64063 -2.2,1.07377 -6.25,3.31567 -9,4.98047 -2.75,1.66481 -9.97717,5.75821 -16.06055,9.0957 -6.08338,3.33748 -14.54134,8.39527 -18.79492,11.24024 -8.66982,5.79872 -20.77419,11.96874 -23.48047,11.96874 -0.98034,0 -2.65503,0.64202 -3.72265,1.42774 -1.8336,1.34944 -1.84176,1.46631 -0.15235,2.12109 1.61362,0.6254 18.90403,-0.84053 43.21094,-3.66601 10.54164,-1.22538 16.10304,-1.16631 18.6582,0.20117 3.66632,1.96216 2.89602,2.5243 -17.1582,12.51172 -4.125,2.05434 -7.7547,4.11647 -8.06641,4.58203 -0.31171,0.46557 -3.46171,1.69308 -7,2.72656 -3.53829,1.03347 -7.78359,2.3543 -9.43359,2.93555 -8.94679,3.15173 -18.1832,5.5395 -28,7.24023 -13.07683,2.26552 -13.56458,2.28215 -11.05859,0.38672 1.06762,-0.80751 2.41762,-1.45721 3,-1.44531 1.60066,0.0327 12.52302,-12.19793 13.1914,-14.77149 1.25253,-4.82275 -1.46897,-8.73307 -8.13281,-11.68554 -1.60801,-0.71245 4.48058,-5.35924 11.24805,-8.58399 6.82332,-3.25136 7.34166,-3.62207 14.91992,-10.67382 5.93462,-5.52231 7.17562,-8.77509 4.97265,-13.03516 -1.09753,-2.12239 -2.84995,-3.36652 -6.28515,-4.46289 -4.70637,-1.50206 -4.73514,-1.53507 -2.31055,-2.8125 2.62225,-1.38158 7.29066,-4.89868 10.28906,-7.75195 2.72773,-2.59572 4.81428,-8.29263 4.14844,-11.32422 -1.09435,-4.9825 -8.93525,-9.59745 -14.10156,-8.30078 -1.30981,0.32877 -2.38086,0.36819 -2.38086,0.0879 0,-0.64051 10.14377,-6.75313 18.5,-11.14844 6.35748,-3.34399 27.62061,-17.82374 30.70703,-20.91016 0.76419,-0.76419 2.74193,-2.08877 4.39453,-2.94336 3.81027,-1.97037 29.39844,-27.31202 29.39844,-29.11523 0,-0.74046 0.73495,-1.95635 1.63476,-2.70313 0.8998,-0.74677 2.70659,-3.05247 4.01368,-5.12304 1.3071,-2.07057 3.04518,-3.76368 3.86328,-3.76369 z m -69.95313,2 c -0.779,0 -1.05428,1.07312 -0.77148,3 0.24217,1.65001 0.98502,3 1.65234,3 0.779,10e-6 1.05624,-1.07311 0.77344,-3 -0.24217,-1.65 -0.98698,-3 -1.6543,-3 z m -3.60937,0.0254 c -0.7975,0.0148 -3.02422,1.40936 -4.94922,3.09765 l -3.5,3.07031 4,-2.25781 c 5.0885,-2.87061 6.30958,-3.94465 4.44922,-3.91015 z m 17.91406,0.18359 c -0.25131,-0.002 -0.5121,0.0731 -0.7793,0.23828 -0.74872,0.46275 -0.77678,1.25968 -0.0879,2.54688 1.4344,2.6802 1.18391,7.18479 -0.52734,9.44726 -0.80751,1.06762 -1.46875,2.54593 -1.46875,3.28516 0,2.32908 3.59724,-0.34203 4.99023,-3.70508 1.85758,-4.48459 0.30238,-11.79263 -2.12694,-11.8125 z m -4.13086,0.33008 c -0.63309,0.006 -1.55329,0.36852 -2.33594,0.96093 -1.45908,1.10444 -1.55002,1.44043 -0.39648,1.45313 2.13584,0.0235 4.41017,-1.58227 3.25391,-2.29687 -0.13193,-0.0815 -0.31046,-0.11924 -0.52149,-0.11719 z m -23.07617,5.92383 c -0.36035,-0.0186 -0.96875,0.16917 -1.65625,0.5371 -1.1,0.5887 -2,1.50766 -2,2.04297 0,0.53914 0.89212,0.41649 2,-0.27539 1.1,-0.68696 2,-1.60592 2,-2.04297 0,-0.16389 -0.12754,-0.25055 -0.34375,-0.26171 z m -91.08203,90.93359 c 0.26692,-0.0408 0.42578,0.0804 0.42578,0.37305 0,0.5585 -0.675,1.2752 -1.5,1.59179 -0.825,0.31663 -1.5,0.41891 -1.5,0.22852 0,-0.19039 0.675,-0.90516 1.5,-1.58985 0.43229,-0.35877 0.80729,-0.56268 1.07422,-0.60351 z m -4.57422,3.60351 c 0.55,0 1,0.45 1,1 0,0.55 -0.45,1 -1,1 -0.55,0 -1,-0.44999 -1,-1 0,-0.54999 0.45,-1 1,-1 z m 221.82812,18.04493 c -0.90419,0.005 -2.19716,0.70508 -3.38671,2.01953 -1.02755,1.13543 -4.80911,4.12601 -8.4043,6.64648 -3.59519,2.52047 -8.11211,6.05207 -10.03711,7.84766 -1.925,1.79559 -5.75,4.50338 -8.5,6.01758 -5.39277,2.96936 -8.5046,5.13996 -22.83008,15.92382 -5.1144,3.85 -10.50718,7.63753 -11.98437,8.41797 -1.47718,0.78044 -2.68555,1.83822 -2.68555,2.34961 0,0.51138 1.6875,-0.084 3.75,-1.32226 2.0625,-1.23822 4.65165,-2.74405 5.75391,-3.34766 1.10226,-0.60361 6.50226,-4.07446 12,-7.71289 5.49774,-3.63843 11.80245,-7.73949 14.00976,-9.11328 2.20732,-1.37379 5.13232,-3.67641 6.5,-5.11719 1.36769,-1.44078 2.85325,-2.62772 3.30274,-2.63672 0.85073,-0.018 7.27179,-4.95798 11.24218,-8.64843 1.26074,-1.17185 4.57654,-3.60969 7.36719,-5.41797 2.79066,-1.80829 5.07422,-3.88873 5.07422,-4.6211 0,-0.8736 -0.46861,-1.28902 -1.17188,-1.28515 z m -267.76953,4.95507 c 0.51754,0 0.94141,0.45 0.94141,1 0,0.55 -0.70113,1 -1.55859,1 -0.85748,10e-6 -1.28133,-0.44999 -0.94141,-1 0.33992,-0.54999 1.04105,-1 1.55859,-1 z m 271.00782,10.27344 c -0.50018,0.0505 -1.39664,0.34989 -2.6875,0.91797 -2.86485,1.26075 -4.33409,2.62832 -4.36329,4.05859 -0.0259,1.26984 0.9813,0.85282 4.57813,-1.89062 2.75555,-2.10176 3.57304,-3.19694 2.47266,-3.08594 z m -344.50782,1.72656 c -0.24254,10e-6 -0.71867,0.45 -1.05859,1 -0.33992,0.55001 -0.14105,1 0.44141,1 0.58246,0 1.05859,-0.44999 1.05859,-1 0,-0.55 -0.19887,-1 -0.44141,-1 z m 40.06446,2.92969 c -0.32374,0.0285 -0.8656,0.71842 -1.38672,1.83008 -1.16756,2.49062 -1.14065,2.57229 0.36523,1.06641 0.89617,-0.89617 1.46501,-2.10928 1.26367,-2.69532 -0.0503,-0.14651 -0.13427,-0.21066 -0.24218,-0.20117 z m 294.72851,1.13477 c -0.51652,-0.0524 -1.28865,0.60573 -2.11914,1.93554 -0.68696,1.10001 -1.92122,2 -2.74219,2 -0.82097,10e-6 -4.8363,2.1375 -8.92382,4.75 -4.08751,2.6125 -12.04953,7.67501 -17.69336,11.25 -5.64383,3.57501 -14.43821,9.2 -19.54102,12.5 -5.10281,3.30001 -12.65119,8.025 -16.77539,10.5 -4.12419,2.47501 -7.51134,4.8375 -7.52734,5.25 -0.016,0.41251 -0.7043,0.75 -1.5293,0.75 -0.825,10e-6 -1.5,0.45 -1.5,1 0,0.55 0.16453,1 0.36523,1 0.66311,0 26.97824,-15.10888 29.73829,-17.07421 1.48781,-1.05942 3.01153,-1.92579 3.38671,-1.92579 0.37519,0 2.5558,-1.29266 4.84571,-2.87109 11.93865,-8.22928 34.27491,-22.8493 37.25586,-24.38672 1.87462,-0.96683 3.4082,-2.42933 3.4082,-3.25 0,-0.91578 -0.2467,-1.38697 -0.64844,-1.42773 z m -63.07422,28.98633 c -0.47797,0 -1.29816,0.31642 -2.27734,0.94921 -1.29269,0.8354 -1.26586,0.97118 0.19141,0.98438 0.93004,0.008 1.96867,-0.43437 2.30859,-0.98438 0.39109,-0.63279 0.25532,-0.94921 -0.22266,-0.94921 z m 33.85547,9.94921 c -1.34086,0 -14.92966,8.04866 -16.22656,9.61133 -2.04635,2.4657 1.50811,1.62296 4.6875,-1.11133 1.59805,-1.37433 3.55278,-2.49932 4.34375,-2.5 0.79097,-6.6e-4 2.92636,-1.01249 4.74414,-2.25 3.20417,-2.18131 4.22959,-3.75 2.45117,-3.75 z m -19.04687,11.25586 c -0.76555,-0.0305 -2.33495,0.6371 -4.29297,1.94727 -1.8872,1.26278 -7.1138,4.07347 -11.61328,6.24609 -4.49948,2.17263 -8.17969,4.31013 -8.17969,4.75 0,0.43988 0.19885,0.80078 0.44336,0.80078 1.23318,0 23.15601,-11.41718 23.77344,-12.38085 0.57261,-0.89372 0.46456,-1.33953 -0.13086,-1.36329 z m -33.96875,1.74414 c -0.55,10e-6 -1.27727,0.45 -1.61719,1 -0.33992,0.55001 -0.16914,1 0.38086,1 0.55,0 1.27922,-0.44999 1.61914,-1 0.33992,-0.55 0.16719,-1 -0.38281,-1 z m -313.27539,7.89649 c -0.72581,0.10523 -3.86211,1.94177 -7.5918,4.47266 -4.2625,2.89245 -12.475,8.07485 -18.25,11.51757 -5.775,3.44273 -11.175,6.6652 -12,7.16211 -0.825,0.49691 -5.4375,3.18281 -10.25,5.9668 -4.8125,2.78399 -8.75,5.25377 -8.75,5.49023 0,0.51917 3.10366,-0.53553 4.5,-1.52929 0.55,-0.39142 6.175,-3.31308 12.5,-6.49414 6.325,-3.18107 12.93279,-6.84069 14.68359,-8.13282 1.7508,-1.29213 3.47409,-2.34961 3.83008,-2.34961 2.21708,0 21.48633,-14.38414 21.48633,-16.03906 0,-0.0586 -0.0545,-0.0795 -0.1582,-0.0645 z m 249.26953,8.23047 c -2.95613,-0.0342 -5.16759,0.0973 -4.8125,0.46875 0.43971,0.45992 4.48971,1.08254 9,1.38476 8.48628,0.56862 9.50325,0.48959 8.35351,-0.66015 -0.62022,-0.62022 -7.61413,-1.1364 -12.54101,-1.19336 z m -296.05274,6.87304 c -0.58246,10e-6 -1.05859,0.45 -1.05859,1 0,0.55001 0.19887,1 0.44141,1 0.24254,0 0.71867,-0.44999 1.05859,-1 0.33992,-0.55 0.14105,-1 -0.44141,-1 z m -6.64453,4.51172 c -0.36188,0.0275 -0.8616,0.19262 -1.41406,0.48828 -1.1,0.5887 -2,1.23726 -2,1.44141 0,0.20416 0.9,0.13532 2,-0.15234 1.1,-0.28766 2,-0.9362 2,-1.44141 0,-0.25373 -0.22405,-0.36341 -0.58594,-0.33594 z m -8.96289,4.91993 c -0.21018,-0.0231 -0.50197,0.0337 -0.86719,0.17382 -0.87096,0.33422 -1.58398,1.047 -1.58398,1.58399 0,1.31439 2.2732,0.49093 2.77148,-1.00391 0.15224,-0.45672 0.03,-0.71545 -0.32031,-0.7539 z m -7.12695,4.79296 c -1.26149,0.0975 -4.00838,1.17223 -5.79688,2.41016 -1.08487,0.75091 -1.63379,1.36523 -1.21875,1.36523 1.37638,0 7.69141,-2.88824 7.69141,-3.51757 0,-0.21452 -0.25529,-0.2903 -0.67578,-0.25782 z m 381.83594,6.95899 c 6.75706,0.39848 15.83984,7.03116 15.83984,11.95312 0,2.3446 -1.28458,3.6401 -8.49024,8.5625 -13.5948,9.28702 -14.91983,9.98962 -25.73046,13.64649 -13.47503,4.55814 -22.36855,6.74835 -24.33399,5.99414 -1.3447,-0.51601 -1.4791,-0.0372 -0.88476,3.13086 0.67254,3.58493 0.61335,3.69301 -1.42969,2.59961 -1.17208,-0.62725 -2.13086,-0.939 -2.13086,-0.69141 0,0.40732 5.799,11.58183 9.92383,19.12109 2.72535,4.98141 7.06556,11.5 7.65625,11.5 0.30513,0 0.0132,-0.99343 -0.0957,-2.04882 -0.12136,-1.17551 -0.14361,-1.84924 0.51918,-2.64785 0.68927,-0.99557 1.64526,-1.25399 2.42418,-0.88536 1.75313,0.82967 1.36386,1.38842 2.18946,1.58203 0.82497,0 1.22273,-0.45 0.88281,-1 -0.33992,-0.54999 -1.18762,-1.31956 -2.01262,-1.31956 0.96427,-2.22658 5.22262,-3.44843 7.52824,-4.58471 0.73507,-0.27355 1.59414,-0.64253 2.51368,-1.11133 4.37782,-2.23194 9.46793,-2.58676 11.26953,-0.78516 3.20633,3.20633 -0.68514,11.89018 -6.39844,14.27735 -2.00776,0.8389 -3.43387,2.1595 -3.48047,3.22265 -0.046,1.04896 -0.28827,1.27881 -0.58203,0.55078 -0.58273,-1.44417 -3.49679,-1.66197 -4.88867,-0.36523 -0.5225,0.48678 -4.4063,1.09252 -8.63086,1.3457 -11.31687,0.67823 -14.4193,-1.17055 -23.18945,-13.80664 -3.78879,-5.45892 -6.61239,-8.79883 -6.27344,-7.42383 0.33894,1.375 0.62286,3.01226 0.63086,3.63868 0.008,0.62642 2.48867,4.87967 5.51367,9.45117 6.41927,9.70104 6.87296,11.91015 2.45117,11.91015 -2.31481,0 -4.17833,-1.14854 -7.75,-4.77539 -3.77993,-3.83833 -5.48584,-6.82987 -8.70117,-15.25 -3.36612,-8.81501 -3.99339,-11.62284 -3.95898,-17.71289 0.0337,-5.95268 0.38855,-7.51594 2,-8.8125 3.45425,-2.77928 14.06728,-7.33421 22.10546,-9.48828 4.2938,-1.15066 8.26724,-2.47264 8.83008,-2.9375 0.56284,-0.46487 3.04844,-1.62778 5.52344,-2.58398 5.89909,-2.27906 20.4624,-11.96968 22.375,-14.88867 0.82544,-1.25979 1.89226,-3.81267 2.37109,-5.67188 0.79706,-3.09482 1.22695,-3.40631 5.09766,-3.68945 0.42643,-0.0312 0.86593,-0.0324 1.31641,-0.006 z m -423.75391,8.07812 c -1.90912,0.0277 -3.84853,0.22014 -5.77539,0.57618 -5.98263,1.10545 -17.8047,6.09373 -20.58984,8.6875 -0.84748,0.78924 -3.67852,3.37881 -6.29102,5.7539 -2.6125,2.3751 -4.75,4.65661 -4.75,5.07227 0,0.41565 -2.7,3.8943 -6,7.72851 -3.3,3.83421 -6,7.46067 -6,8.06055 0,1.04903 1.53699,-0.22143 12.5,-10.33984 9.42648,-8.70025 23.4602,-17.9621 33.69922,-22.24024 5.30635,-2.21714 5.79867,-0.10279 0.58594,2.51563 -5.17794,2.60094 -11.10542,6.9356 -10.41993,7.62109 0.27314,0.27315 3.56398,-1.20091 7.31446,-3.27734 3.75048,-2.07642 9.07031,-4.91172 11.82031,-6.30078 l 5,-2.52539 -5.5,-0.91993 c -1.80571,-0.30196 -3.68463,-0.43977 -5.59375,-0.41211 z m 26.50195,0.89258 c -1.47972,-0.0347 -3.33791,0.1983 -6.16797,0.6836 -3.77857,0.64796 -8.30494,1.91352 -10.05664,2.8125 -4.62137,2.37171 -16.68359,10.31914 -16.68359,10.99218 0,0.94977 5.32467,-0.66362 8,-2.42382 6.97737,-4.59073 16.93389,-8.59907 19.8125,-7.97657 1.14877,0.24843 0.30039,1.08746 -2.66016,2.63086 -2.39079,1.24638 -4.09377,2.51754 -3.78515,2.82617 0.60811,0.6081 18.60724,-5.87227 18.62304,-6.70507 0.005,-0.27824 -1.42831,-1.1421 -3.18554,-1.91993 -1.31613,-0.58257 -2.41676,-0.8852 -3.89649,-0.91992 z m 2.72852,9.30078 c -0.64672,0.003 -1.11943,0.027 -1.36328,0.0762 -0.97539,0.19656 -3.46094,0.62874 -5.52344,0.95898 -7.88074,1.26183 -3.43136,2.51049 9,2.52539 16.75636,0.0201 19.99165,1.60945 6.875,3.37695 -3.75191,0.50557 -5.40289,1.21997 -4.54297,1.96875 0.22917,0.19955 3.56869,0.0144 7.41992,-0.41211 4.84266,-0.53627 8.69781,-0.36539 12.5,0.55274 6.5981,1.59326 6.99805,1.64899 6.99805,0.96289 0,-0.29454 -1.9125,-1.41086 -4.25,-2.48047 -2.3375,-1.0696 -5.44996,-2.9141 -6.91602,-4.09766 -2.01452,-1.62634 -4.75653,-2.34192 -11.22656,-2.93164 -3.5314,-0.32167 -7.03054,-0.50922 -8.9707,-0.5 z M 133.88477,498.5 c -0.61764,-0.004 -1.70344,0.55152 -2.5918,1.35547 -1.01526,0.9188 -3.65144,1.79976 -5.85938,1.95703 -4.59856,0.32754 -11.69899,5.01718 -25.23632,16.67188 -5.079081,4.39403 -9.924823,11.02593 -12.699223,19.90624 -2.90259,5.92023 -4.693008,13.80931 -5.673828,25 -0.7769,8.86416 -1.874664,15 -2.683594,15 -0.48663,0 -0.884766,1.35001 -0.884766,3 0,1.65 0.416765,3 0.927735,3 1.20165,0 3.581965,-8.25304 5.478515,-19 4.37428,-24.78732 13.992831,-40.33714 36.085941,-58.33789 4.74166,-3.86334 6.57489,-2.9692 2.84375,1.38672 -1.62593,1.89821 -3.95558,5.25117 -5.17578,7.45117 l -2.21875,4 2.77929,-3.1914 c 1.52824,-1.75508 5.78044,-6.48008 9.44922,-10.5 3.66878,-4.01992 6.22951,-7.46817 5.69141,-7.66211 -0.0673,-0.0242 -0.14419,-0.0366 -0.23242,-0.0371 z m 81.73046,2.07812 c -2.91676,-0.0894 -3.4766,1.30995 -0.10937,2.11915 1.2375,0.29739 5.175,1.2071 8.75,2.02148 13.25032,3.01841 29.91174,10.38472 28.5332,12.61523 -0.26104,0.42237 -2.85004,-0.0516 -5.7539,-1.05468 -5.53114,-1.9106 -11.7793,-2.47449 -11.7793,-1.0625 0,0.45493 3.01206,1.38223 6.69336,2.06054 3.6813,0.67831 7.1688,1.54457 7.75,1.92383 0.5812,0.37926 2.63164,1.20416 4.55664,1.83399 5.38463,1.76177 6.87309,1.62095 4.42969,-0.41797 -1.13878,-0.95027 -3.4726,-3.55509 -5.18555,-5.78907 -3.98458,-5.19661 -15.86396,-10.94343 -25.74414,-12.45507 -3.85,-0.58904 -8.6875,-1.33523 -10.75,-1.65821 -0.50826,-0.0796 -0.97395,-0.12395 -1.39063,-0.13672 z m -33.57617,17.93555 c -4.76802,0.0988 -9.26909,1.79806 -15.41601,5.40039 -5.18119,3.03637 -4.60365,4.68336 0.68359,1.94922 12.95056,-6.697 27.35821,-4.19662 39.52148,6.85938 6.12061,5.56342 7.60104,3.47888 1.77149,-2.49414 -4.79787,-4.91595 -10.26245,-8.15088 -17.27539,-10.22852 -3.46722,-1.02719 -6.42434,-1.54561 -9.28516,-1.48633 z m 260.45508,1.38477 c -0.18608,0.072 -1.11671,1.06747 -2.96289,3.05468 -2.07645,2.23509 -4.45236,4.31688 -5.2793,4.625 -0.82693,0.30813 -3.66934,3.31627 -6.3164,6.68555 -2.64706,3.36928 -4.42042,6.12695 -3.94141,6.12695 1.85156,0 12.63769,-11.42438 16.99414,-18 1.1339,-1.71151 1.69194,-2.56421 1.50586,-2.49218 z m -329.14844,4.49218 c -0.46539,0 -1.40515,0.675 -2.08984,1.5 -1.01343,1.22111 -0.96416,1.5 0.26953,1.5 0.8335,0 1.77521,-0.67499 2.0918,-1.5 0.31658,-0.825 0.1939,-1.5 -0.27149,-1.5 z m 45.53516,5.34766 c -0.3265,-0.0653 -0.99671,0.39345 -1.60547,1.12695 -0.78875,0.95039 -0.86427,1.52539 -0.20117,1.52539 1.20855,0 2.61732,-1.89829 1.92383,-2.59179 -0.0315,-0.0315 -0.0705,-0.0512 -0.11719,-0.0605 z m 33.12891,11.81055 c -2.22866,0.0249 -4.40811,0.3115 -6.47852,0.88086 -5.3126,1.46096 -10.7856,4.59401 -13.68555,7.83593 -3.21409,3.59313 -1.3615,3.19777 5.42969,-1.16015 6.31034,-4.04936 6.70679,-4.1597 15.14649,-4.1875 8.18634,-0.027 8.92211,0.15272 13.27929,3.22265 2.53701,1.7875 4.99315,3.25 5.45703,3.25 1.53482,0 8.6173,8.40814 11.85742,14.07618 3.86019,6.7527 6.87418,18.87979 7.16797,28.83984 0.1529,5.18364 1.14346,0.99056 1.18946,-5.03516 0.11087,-14.53132 -3.33138,-24.29532 -12.33203,-34.97656 -6.77876,-8.04449 -17.37374,-12.85394 -27.03125,-12.74609 z m 228.44921,2.84179 c -0.43593,0 -4.78597,4.38751 -9.66796,9.75 -18.56841,20.39598 -38.46023,35.39545 -70.7793,53.375 -17.05078,9.4856 -35.87743,15.83583 -47.11719,15.89063 -2.39481,0.0117 -2.78286,0.24495 -1.63867,0.98437 0.825,0.53316 3.75,0.96213 6.5,0.95313 13.96592,-0.0435 28.87956,-3.96808 39.79883,-10.47266 3.21445,-1.91484 6.08004,-3.48047 6.36719,-3.48047 1.07185,0 23.93096,-14.27892 26.33398,-16.44921 1.375,-1.24183 4.75,-3.7643 7.5,-5.60743 9.51502,-6.37725 46.15862,-44.94336 42.70312,-44.94336 z m -252.98046,10.14844 c -1.08358,0.0869 -3.22266,2.7263 -3.22266,4.26367 0,0.5671 0.98642,0.0448 2.19336,-1.16211 1.20695,-1.20694 1.84489,-2.54379 1.41797,-2.9707 -0.10242,-0.10242 -0.23388,-0.14327 -0.38867,-0.13086 z m 404.33593,0.85156 c 0.79254,0 1.44141,0.45001 1.44141,1 0,0.55 -0.92613,1 -2.05859,1 -1.13246,0 -1.78133,-0.45 -1.44141,-1 0.33992,-0.54999 1.26605,-1 2.05859,-1 z m -498.888669,2.35547 c -0.446728,-0.1117 -0.991355,0.52066 -1.916015,1.44532 -2.02338,2.02338 -2.170538,3.15121 -2.210938,16.93359 -0.04453,15.17382 0.457477,17.9078 5.060547,27.56055 1.91984,4.02594 4.073683,5.10161 2.914063,1.45507 -3.354911,-10.54985 -4.677429,-17.7652 -5.199219,-28.35546 -0.39447,-8.00613 -0.241735,-12.32446 0.453125,-12.75391 0.63758,-0.39404 1.330608,1.00294 1.761718,3.55469 0.39072,2.31265 1.298309,5.80171 2.017579,7.7539 1.26737,3.43983 1.310606,3.46404 1.378906,0.75586 0.03875,-1.53697 -0.644821,-5.81197 -1.519531,-9.5 -1.520432,-6.41059 -1.995688,-8.66344 -2.740235,-8.84961 z m 92.388669,15.56641 c 2.05517,-0.0227 4.29956,0.43102 7.8711,1.44727 4.29867,1.22314 6.71965,2.8238 11.625,7.68554 3.40772,3.37744 7.12821,7.78417 8.26757,9.79297 9.15985,16.14966 13.08598,29.24432 13.14258,43.8418 0.0196,5.05504 -0.38172,9.44915 -0.89062,9.76367 -0.50891,0.31452 -2.2047,-1.33409 -3.76953,-3.66406 -5.429,-8.08359 -18.78184,-16.27974 -28.30469,-17.37305 -7.14098,-0.81985 -13.1025,0.84078 -16.99219,4.73047 -1.70357,1.70356 -3.3246,2.87072 -3.60156,2.59375 -0.27696,-0.27696 0.17582,-5.84552 1.00586,-12.37305 0.83004,-6.52753 1.77149,-16.14218 2.0918,-21.36719 0.32032,-5.22499 1.26887,-12.76167 2.10742,-16.74804 1.25265,-5.95494 1.91214,-7.34591 3.70508,-7.79492 1.3426,-0.33624 2.50908,-0.52153 3.74218,-0.53516 z m 74.08203,20.10938 c -0.12113,-0.005 -0.0216,0.3788 0.2168,1.14453 0.28694,0.92159 1.04276,6.32159 1.67774,12 0.63497,5.67841 1.44099,11.44921 1.79296,12.82421 0.44702,1.74628 0.74556,0.69105 0.99024,-3.5 0.41326,-7.07852 -1.56115,-18.85901 -3.56836,-21.28906 -0.6462,-0.78231 -0.98824,-1.17476 -1.10938,-1.17968 z m -5.77734,7.31445 c -0.15157,-0.0229 -0.25516,0.34222 -0.28516,1.07031 -0.0434,1.05416 0.19309,1.64479 0.5254,1.3125 0.33225,-0.33229 0.36894,-1.19415 0.0801,-1.91602 -0.1197,-0.29914 -0.22937,-0.45302 -0.32031,-0.46679 z m -161.470702,6.65429 c -1.34231,0 -1.073029,1.7607 0.357421,2.3379 0.6875,0.27741 1.34852,0.53863 1.46875,0.58203 0.12024,0.0434 -0.04084,-0.59492 -0.357421,-1.41993 -0.316591,-0.825 -0.977591,-1.5 -1.46875,-1.5 z m 449.166012,6 c -0.58246,0 -1.05859,0.45001 -1.05859,1 0,0.55 0.19887,1 0.44141,1 0.24254,0 0.71867,-0.45 1.05859,-1 0.33992,-0.54999 0.14105,-1 -0.44141,-1 z m -3.80468,2.1543 c -0.70965,0.0516 -1.71397,0.72393 -2.02539,1.6582 -0.24358,0.73076 0.21358,0.95381 1.1875,0.58008 0.87096,-0.33422 1.58398,-1.04699 1.58398,-1.58398 0,-0.4929 -0.32031,-0.68527 -0.74609,-0.6543 z m -431.195317,0.8457 c -0.58246,0 -1.058594,0.45001 -1.058594,1 0,0.55 0.198867,1 0.441407,1 0.24254,0 0.718673,-0.45 1.058593,-1 0.33992,-0.54999 0.141054,-1 -0.441406,-1 z m 162.144527,1 c -0.93877,0 -2.23342,4.6904 -2.17382,7.875 0.0263,1.40385 0.14822,1.42086 0.88672,0.125 1.43469,-2.51752 2.31621,-8 1.2871,-8 z m 263.35547,2 c -0.24254,0 -0.71867,0.45001 -1.05859,1 -0.33992,0.55 -0.14105,1 0.44141,1 0.58246,0 1.05859,-0.45 1.05859,-1 0,-0.54999 -0.19887,-1 -0.44141,-1 z m -4.23047,3.28711 c -0.53428,-0.0509 -1.34786,0.29703 -2.07226,0.9336 -0.96587,0.84876 -5.80586,3.87119 -10.75586,6.71484 -8.41011,4.83139 -17.28211,10.13534 -38.82422,23.20899 -4.85354,2.94555 -10.48331,6.25546 -12.50976,7.35546 -3.29926,1.79091 -19.49564,10.87289 -38.51758,21.59961 -3.76815,2.12491 -13.21815,7.08564 -21,11.02344 -7.78184,3.93781 -15.03622,7.77046 -16.1211,8.51758 -8.47957,5.83957 21.54581,-8.36848 48.47266,-22.9375 27.67781,-14.97533 31.36077,-17.137 60.2793,-35.39648 5.92871,-3.74346 15.09925,-9.60229 20.3789,-13.01758 5.27966,-3.41528 10.10407,-6.39137 10.72071,-6.61328 0.61663,-0.22191 0.78608,-0.76063 0.37695,-1.19922 -0.10228,-0.10965 -0.24964,-0.1725 -0.42774,-0.18946 z m -251.85156,0.85547 c -0.5407,-0.071 0.008,0.75166 1.59961,2.46289 2.37447,2.55252 3.93259,3.40221 10.8457,5.91211 3.77442,1.37035 14.37193,1.08145 18.54688,-0.50586 1.46341,-0.55639 5.669,-1.05798 9.3457,-1.11328 5.67648,-0.0853 6.15757,-0.21931 3.18555,-0.88672 -7.13336,-1.6019 -13,-1.82937 -13,-0.5039 0,1.80412 -5.33387,2.34599 -13.7832,1.39844 -5.61357,-0.62954 -8.33664,-1.52141 -11.80664,-3.86329 -2.76364,-1.86515 -4.39289,-2.82936 -4.9336,-2.90039 z m -165.464842,1.35742 0.365234,7.33399 c 0.329591,6.58975 0.762274,7.90454 4.246094,12.95898 4.28997,6.22405 10.335644,10.98575 15.500004,12.20508 5.4975,1.29797 5.60412,1.10582 0.87695,-1.57617 C 101.56312,650.31325 94.41064,641.10328 91.75,630.69336 Z m 69.771482,9.73633 c 1.39646,7e-5 2.76943,0.25617 3.8418,0.83008 4.98799,2.6695 7.79664,10.36744 4.85547,13.30859 -0.93444,0.93445 -3.25316,1.625 -5.46289,1.625 -3.06006,0 -4.36622,-0.62583 -6.42969,-3.07812 -2.78116,-3.30523 -3.97583,-6.66128 -3.41602,-9.59375 0.35307,-1.84949 3.53912,-3.09195 6.61133,-3.0918 z m 199.41602,38.70508 c -0.0928,-0.0105 -0.31973,0.0553 -0.69922,0.20899 -4.74535,1.92176 -35.49547,17.81242 -41,21.1875 -3.85,2.36062 -11.275,6.49395 -16.5,9.18554 -5.225,2.69159 -13.62908,7.31031 -18.67578,10.26367 -5.04669,2.95336 -14.49669,7.71556 -21,10.58204 -12.74955,5.61965 -18.32422,8.40533 -18.32422,9.15625 0,0.66796 -0.33167,0.76234 8.69141,-2.46875 6.8975,-2.46994 12.04988,-4.55438 23.30859,-9.42774 5.78363,-2.50346 36.88386,-20.10921 47.31641,-26.78515 4.29966,-2.75143 12.58363,-7.49023 18.4082,-10.53126 7.72661,-4.03407 19.37192,-11.26992 18.47461,-11.37109 z m -130.21289,11.19336 c 1.56391,0.0107 2.78429,0.0924 3.44336,0.25781 3.13324,0.78639 8.55845,6.49142 8.56445,9.00586 0.008,3.12244 -9.22875,11.02683 -17.64844,15.10156 -4.3155,2.0885 -8.50751,3.80446 -9.3164,3.81446 -0.80889,0.01 -2.30313,0.79453 -3.32032,1.74219 -1.95364,1.82008 -10.39983,4.58454 -11.28906,3.69531 -0.53796,-0.53796 11.74125,-7.74068 13.24219,-7.76758 0.46064,-0.008 3.5055,-2.49237 6.76758,-5.51953 3.85895,-3.58105 5.59042,-5.84512 4.95507,-6.48047 -1.5197,-1.5197 -15.96082,-2.48138 -16.80273,-1.11914 -0.38571,0.62409 -1.51362,1.13476 -2.50781,1.13476 -3.5992,0 -19.81447,7.14433 -27.70508,12.20704 -6.60891,4.24036 -26.88737,19.63864 -31.18164,23.67773 -1.82144,1.71321 -3.66294,3.11523 -4.09375,3.11523 -0.43081,10e-6 -1.64171,0.96597 -2.68945,2.14649 -1.04775,1.18052 -3.7043,3.46143 -5.9043,5.07031 -4.51572,3.30237 -9.7657,8.0933 -13.57031,12.38477 -1.41295,1.59376 -11.69207,11.67343 -22.843753,22.39843 -11.1517,10.72501 -21.845925,21.63751 -23.765625,24.25 -1.9197,2.61251 -3.939291,4.75 -4.488281,4.75 -1.24338,0 -1.758157,1.20176 7.308593,-17.08789 4.20231,-8.477 11.105074,-22.49254 15.339844,-31.14648 4.23477,-8.65394 9.458952,-18.45804 11.609372,-21.78516 2.15042,-3.32712 3.91016,-6.2803 3.91016,-6.56445 0,-0.28415 2.89109,-6.3564 6.42578,-13.49414 3.53469,-7.13773 6.74041,-14.42911 7.12305,-16.20117 0.38263,-1.77205 1.72724,-5.082 2.98828,-7.35547 1.26103,-2.27347 2.44281,-5.19847 2.62695,-6.5 0.30874,-2.18216 0.72527,-2.33943 5.33594,-2.03125 2.75,0.18381 11.075,1.8361 18.5,3.67187 7.425,1.83578 15.075,3.68502 17,4.10938 1.925,0.42436 3.725,0.82387 4,0.88867 0.275,0.0648 3.79556,0.47733 7.82422,0.91602 8.9278,0.97216 14.22267,-0.29637 22.67578,-5.43555 3.3,-2.00628 7.8,-3.97404 10,-4.37109 5.00898,-0.90401 12.79458,-1.51051 17.48633,-1.47852 z m 109.26367,11.88672 c -0.4125,0.0121 -6.825,3.39518 -14.25,7.51758 -7.425,4.1224 -19.8,10.63586 -27.5,14.47461 -7.7,3.83874 -16.7,8.46246 -20,10.27539 -3.3,1.81293 -12.3,6.13252 -20,9.59961 -7.7,3.46709 -17.6,8.02494 -22,10.1289 -12.81634,6.1284 -7.96305,4.90574 15,-3.77929 7.18344,-2.7169 25.0002,-11.06811 31.5,-14.76563 1.375,-0.78219 8.125,-4.42095 15,-8.08594 6.875,-3.66498 16.55,-9.0075 21.5,-11.87109 4.95,-2.8636 11.8125,-6.72948 15.25,-8.5918 5.5294,-2.99564 7.74219,-4.96794 5.5,-4.90234 z m -202.66797,4.83398 c -1.03862,-0.1213 -2.69223,1.15196 -3.88086,3.64453 -0.91797,1.92501 -2.07603,3.5 -2.57226,3.5 -1.21516,10e-6 -4.12891,6.28151 -4.12891,8.9004 0,1.17313 0.6432,2.0996 1.45898,2.0996 2.00525,10e-6 6.47011,-4.95502 7.20899,-8 0.33365,-1.375 0.93371,-2.95 1.33203,-3.5 0.39832,-0.55 1.01955,-2.23749 1.38086,-3.75 0.44476,-1.86178 0.009,-2.80018 -0.79883,-2.89453 z m 72.43555,2.21289 c 0.69789,0.0316 0.98242,0.31539 0.98242,0.83204 0,0.82602 -1.90917,2.19352 -10.45508,7.48632 -1.67519,1.0375 -6.86992,3.41771 -11.54492,5.29102 -4.675,1.87332 -9.91922,4.0616 -11.65234,4.86328 -3.68887,1.70634 -4.34766,1.78679 -4.34766,0.52539 0,-2.98381 16.19939,-12.31532 29.46484,-16.97265 4.07537,-1.43082 6.38958,-2.07806 7.55274,-2.0254 z m 17.48242,48.96094 c -0.55,0 -1.675,0.43755 -2.5,0.9707 -0.825,0.53317 -1.05,0.96876 -0.5,0.96876 0.55,-10e-6 1.675,-0.4356 2.5,-0.96876 0.825,-0.53315 1.05,-0.9707 0.5,-0.9707 z m -40.98828,38.51172 c -3.57906,-0.0781 -29.4585,2.1605 -33.51172,2.94531 -2.92489,0.56633 -6.94587,1.22213 -16.25,2.6543 -3.7125,0.57146 -6.75,1.47825 -6.75,2.01563 0,0.53736 0.7875,0.72836 1.75,0.42382 2.40041,-0.75951 39.12012,-5.55358 47.75,-6.23437 6.77566,-0.53452 8.29163,-0.89493 7.41602,-1.75781 -0.0273,-0.0269 -0.1657,-0.0417 -0.4043,-0.0469 z m -4.0625,21.39844 c -19.0732,-0.10989 -56.69722,3.07878 -58.90039,5.16211 -1.2562,1.18786 20.77941,1.1504 34.95117,-0.0586 8.88801,-0.75825 29.77325,-1.90807 44.5,-2.45117 4.53484,-0.16724 2.10103,-2.09123 -2.75,-2.17383 -2.6125,-0.0445 -9.025,-0.22839 -14.25,-0.41015 -1.09068,-0.038 -2.27924,-0.061 -3.55078,-0.0684 z"
         style="fill:#000000" />
      <path
         inkscape:connector-curvature="0"
         id="path8194"
         d="m 207.77568,702.8759 c -10.99729,2.21787 -21.06843,7.72626 -30.66162,13.36227 -2.34672,1.89314 -6.33654,3.30884 -6.72382,6.65512 0.98532,2.62801 4.10116,-0.1788 5.80884,-0.47829 11.31489,-4.963 23.60472,-8.7815 33.03609,-17.06673 1.17479,-1.20573 0.14073,-2.80977 -1.45949,-2.47237 z"
         style="color:#000000;clip-rule:nonzero;display:inline;overflow:visible;visibility:visible;opacity:1;isolation:auto;mix-blend-mode:normal;color-interpolation:sRGB;color-interpolation-filters:linearRGB;solid-color:#000000;solid-opacity:1;fill:#2b1100;fill-opacity:1;fill-rule:nonzero;stroke:none;stroke-width:2;stroke-linecap:round;stroke-linejoin:round;stroke-miterlimit:4;stroke-dasharray:none;stroke-dashoffset:0;stroke-opacity:1;color-rendering:auto;image-rendering:auto;shape-rendering:auto;text-rendering:auto;enable-background:accumulate" />
    </g>
  </g>
</svg>
