<?xml version="1.0"?>
<svg xmlns:rdf="http://www.w3.org/1999/02/22-rdf-syntax-ns#" xmlns="http://www.w3.org/2000/svg" xmlns:cc="http://creativecommons.org/ns#" xmlns:dc="http://purl.org/dc/elements/1.1/" xmlns:svg="http://www.w3.org/2000/svg" id="svg6631" viewBox="0 0 605.15 871.24" version="1.1">
  <g id="layer1" transform="translate(-196.28 -24.945)">
    <g id="g5930" transform="matrix(3 0 0 3 2253.5 -1771.3)">
      <path id="path3923-8" stroke-linejoin="round" d="m-665.56 848.8s2.0318 6.4956 1.5153 8.7126c-0.4879 2.0938-0.8788 3.4815-2.0204 5.3033-5.1003 8.1397-9.247 12.157-18.814 23.234-0.5073 0.58734-0.1263 1.8214 0.505 2.2728 0.9301 0.66507 2.5438-0.4411 3.5356-1.0102 8.5449-4.9029 15.682-13.69 20.708-19.067 1.1785-1.2606 3.7514-0.00082 5.0508-1.1364 1.1833-1.0341 1.3347-2.8782 1.6415-4.4194 0.8799-4.42 0.505-13.511 0.505-13.511" stroke-dashoffset="1.5" stroke="#000" stroke-linecap="round" stroke-width="1.25"/>
      <path id="path3925-1" stroke-linejoin="round" d="m-620.86 846.41s-1.0992 3.625-1.389 6.566c-0.1743 1.7698-0.8984 5.5721 2.1466 6.3134 3.8297 0.93239 5.7916-0.9122 8.46 0 4.6842 1.6013 7.267 6.9769 11.743 9.0914 4.8007 2.2678 15.531 3.5355 15.531 3.5355-0.4552-1.821-20.023-12.824-23.612-20.077-1.3639-2.7561 0.3788-9.2176 0.3788-9.2176" stroke-dashoffset="1.5" stroke="#000" stroke-linecap="round" stroke-width="1.25"/>
      <path id="path3927-6" stroke-linejoin="round" d="m-660.51 797.16c-7.7616 21.362-16.035 42.871-14.647 61.619 5.8726 1.7307 10.064 3.8816 26.264 3.0305 15.127-29.568 21.018-36.047 31.315-53.538-1.4849 12.23-2.6825 23.884-8.0812 43.942 11.143 2.2678 18.014 2.4644 26.769 3.5355 11.079-21.957 22.516-44.99 32.325-63.135z" stroke-dashoffset="1.5" stroke="#000" stroke-linecap="round" stroke-width="1.25" fill="#4d4d4d"/>
      <path id="path3929-1" stroke-linejoin="round" d="m-623.47 711.55c-19.201 22.662-38.352 55.394-56.23 88.643 29.02 8.9993 51.035 24.537 118.69-2.5254-2.1887-8.0812-4.3773-16.162-6.566-24.244 13.549 4.3259 28.456 6.842 50.003 0.50508l-7.5762-15.152c-24.21-3.0823-38.15-12.686-47.477-25.254-9.0844-12.24-15.508-10.214-23.234-15.152z" stroke-dashoffset="1.5" stroke="#000" stroke-linecap="round" stroke-width="1.25" fill="#8b97ad"/>
      <path id="path3937-6" stroke-linejoin="round" d="m-603.01 810.55c1.389-22.383 2.1048-44.852 1.8501-67.564" stroke-dashoffset="1.5" stroke="#000" stroke-linecap="round" stroke-width="1.25" fill="none"/>
      <path id="path2929-2-7" transform="matrix(1.2357 0 0 1.2357 -516.26 104.02)" d="m-71.721 535.16c0 0.83684-0.67839 1.5152-1.5152 1.5152-0.83684 0-1.5152-0.67839-1.5152-1.5152 0-0.83684 0.67839-1.5152 1.5152-1.5152 0.83684 0 1.5152 0.67839 1.5152 1.5152z"/>
      <path id="path2931-7-1" transform="matrix(1.3536 0 0 1.3536 -508.37 64.941)" d="m-71.721 535.16c0 0.83684-0.67839 1.5152-1.5152 1.5152-0.83684 0-1.5152-0.67839-1.5152-1.5152 0-0.83684 0.67839-1.5152 1.5152-1.5152 0.83684 0 1.5152 0.67839 1.5152 1.5152z"/>
      <path id="path3999-4" stroke-linejoin="round" d="m-623.47 711.55s-5.266 12.759-1.1769 16.417c3.7963 3.3959 15.026-2.7779 15.026-2.7779s10.455 9.0601 14.9 6.0609c3.3751-2.2776-0.034-12.215-0.034-12.215" stroke-dashoffset="1.5" stroke="#000" stroke-linecap="round" stroke-width="1.25"/>
      <path id="path4024-8" stroke-linejoin="round" d="m-568.94 723.18c-49.804-26.048-56.385 12.853-26.594 31.201 5.9299-7.5381 28.833-5.2925 19.25 7.6838 44.061 10.7 62.186-11.662 19.444-33.781-2.1142 11.226-18.615 3.8772-12.099-5.1046z" stroke-dashoffset="1.5" stroke="#000" stroke-linecap="round" stroke-width="1.25" fill="#8a5b57"/>
      <path id="path2943-9-5" stroke-linejoin="round" d="m-52.023 499.11c0 11.89-7.6319 21.529-17.046 21.529-9.4144 0-17.046-9.6388-17.046-21.529s7.6319-21.529 17.046-21.529c9.4144 0 17.046 9.6388 17.046 21.529z" stroke-dashoffset="1.5" transform="matrix(1.019 .37458 -.40225 1.0552 -333.54 200.59)" stroke="#000" stroke-linecap="round" stroke-width="1.129" fill="#e6d3a3"/>
      <path id="path2953-7-1" transform="matrix(1.4419 0 0 1.4419 -494.53 -66.889)" d="m-71.721 535.16c0 0.83684-0.67839 1.5152-1.5152 1.5152-0.83684 0-1.5152-0.67839-1.5152-1.5152 0-0.83684 0.67839-1.5152 1.5152-1.5152 0.83684 0 1.5152 0.67839 1.5152 1.5152z"/>
      <path id="path2955-5-7" transform="matrix(1.383 0 0 1.383 -489.38 -32.676)" d="m-71.721 535.16c0 0.83684-0.67839 1.5152-1.5152 1.5152-0.83684 0-1.5152-0.67839-1.5152-1.5152 0-0.83684 0.67839-1.5152 1.5152-1.5152 0.83684 0 1.5152 0.67839 1.5152 1.5152z"/>
      <path id="path3997-0" stroke-linejoin="round" d="m-612.78 680.11s-10.435-1.8707-10.607 0.37881c-1.4128 18.474 44.953 34.136 50.129 23.36 1.0953-2.2805-5.3033-5.4296-5.3033-5.4296s8.6128-17.695-3.4092-25.254c-13.128-8.254-30.81 6.9448-30.81 6.9448z" stroke-dashoffset="1.5" stroke="#000" stroke-linecap="round" stroke-width="1.25"/>
      <path id="path4001-9" stroke-linejoin="round" d="m-599.39 712.81c-5.1426 0.99308-9.3672 2.9354-15.666 0.81288 2.8412 6.8351 9.2092 3.9912 14.322 2.3062 1.0049 2.4414 2.5159 3.1928 6.1078 2.9116-2.4774-1.4804-3.4745-3.562-4.7639-6.0307z" stroke-dashoffset="1.5" stroke="#000" stroke-linecap="round" stroke-width="1.25"/>
      <path id="path4026-7" stroke-linejoin="round" d="m-587.2 737.36 85.011 33.943c-2.5361 1.2277-4.8313 4.7841 0.18353 7.0732 3.0402 0.63354 6.6552-2.5357 7.5027-5.5234 0.6538-2.3049 1.0639-3.1624-1.1389-4.1046l-86.726-40.559z" stroke-dashoffset="1.5" stroke="#000" stroke-linecap="round" stroke-width="1.25"/>
      <path id="path3931-2" stroke-linejoin="round" d="m-517.57 754.23 3.0312 2.5938c-0.9061-0.72341-2.8267-2.1374-4.1562-2.3438-1.8361-0.28496-7.2187 2.1562-7.2188 2.1562 0 0 3.8708 0.84992 4.5626 2.1875 1.0172 1.967-1.2813 4.75-1.2813 4.75h-0.094l3.9687 7.9688c2.438-0.15524 4.9334-0.36882 6.75-0.65625 2.7425-0.43392 8.0625-2 8.0625-2s1.9141-7.6524 0-10.625c-1.1013-1.7104-5.5312-2.5312-5.5312-2.5312l0.5 3.0312s-1.3026-2.7646-2.5313-3.5312c-1.7377-1.0842-6.0625-1-6.0625-1z" stroke-dashoffset="1.5" stroke="#000" stroke-linecap="round" stroke-width="1.25" fill="#e6d3a3"/>
      <path id="path4031-2" stroke-linejoin="round" d="m-559.64 765.1 67.5-85.714 7.5-2.8571-76.429 96.071z" stroke-dashoffset="1.5" stroke="#000" stroke-linecap="round" stroke-width="1.25" fill="none"/>
      <path id="path3935-4" stroke-linejoin="round" d="m-569.59 737.06c3.8873-0.31868 3.5984-1.3967 14.142-0.50508 3.3064-0.0373 8.9839 4.1624 15.657 10.859 0 0 2.6203 7.1338 0.7576 9.849-0.4972 0.7247-2.5253 0.75762-2.5253 0.75762 0.1913-1.9361-0.3367-3.8722-0.5051-5.8084-0.031 0 0.9368 5.5746-0.5051 7.3236-0.5915 0.71742-2.7779 0.25254-2.7779 0.25254 1.5101-1.7089 0.4255-4.5972 0.2525-7.0711 0 0 1.4503 6.6291-0.7576 8.3338-0.8106 0.62584-3.0304-0.50507-3.0304-0.50507 1.6144-1.1365 0.3744-4.9356 0.505-7.5762 0.1044 2.636 1.8173 9.2578-1.2627 8.3338l-2.5253-0.75761c0.9854-2.8968 0.3704-5.0919 0.2525-6.8185-5.5077-3.0305-8.1672-6.0609-11.112-9.0914l-8.0812-0.50507" stroke-dashoffset="1.5" stroke="#000" stroke-linecap="round" stroke-width="1.25" fill="#e6d3a3"/>
      <path id="path3933-5" stroke-linejoin="round" d="m-637.27 760.04s25.505 5.0973 38.133 3.283c11.713-1.6828 33.082-12.879 33.082-12.879-1.4248-6.304-1.6705-10.839-1.7678-15.152-24.674 5.1342-44.771 3.7842-61.367-2.5254" stroke-dashoffset="1.5" stroke="#000" stroke-linecap="round" stroke-width="1.25" fill="#8b97ad"/>
    </g>
  </g>
  <metadata>
    <rdf:RDF>
      <cc:Work>
        <dc:format>image/svg+xml</dc:format>
        <dc:type rdf:resource="http://purl.org/dc/dcmitype/StillImage"/>
        <cc:license rdf:resource="http://creativecommons.org/licenses/publicdomain/"/>
        <dc:publisher>
          <cc:Agent rdf:about="http://openclipart.org/">
            <dc:title>Openclipart</dc:title>
          </cc:Agent>
        </dc:publisher>
        <dc:title>Fiddler 2</dc:title>
        <dc:date>2011-03-19T20:08:09</dc:date>
        <dc:description>band, bandsman, cartoon, clip art, clipart, fiddle, fiddler, man, music, orchestra, violin, violinist, </dc:description>
        <dc:source>http://openclipart.org/detail/128365/fiddler-2-by-rones</dc:source>
        <dc:creator>
          <cc:Agent>
            <dc:title>rones</dc:title>
          </cc:Agent>
        </dc:creator>
        <dc:subject>
          <rdf:Bag>
            <rdf:li>band</rdf:li>
            <rdf:li>bandsman</rdf:li>
            <rdf:li>cartoon</rdf:li>
            <rdf:li>clip art</rdf:li>
            <rdf:li>clipart</rdf:li>
            <rdf:li>fiddle</rdf:li>
            <rdf:li>fiddler</rdf:li>
            <rdf:li>man</rdf:li>
            <rdf:li>music</rdf:li>
            <rdf:li>orchestra</rdf:li>
            <rdf:li>violin</rdf:li>
            <rdf:li>violinist</rdf:li>
          </rdf:Bag>
        </dc:subject>
      </cc:Work>
      <cc:License rdf:about="http://creativecommons.org/licenses/publicdomain/">
        <cc:permits rdf:resource="http://creativecommons.org/ns#Reproduction"/>
        <cc:permits rdf:resource="http://creativecommons.org/ns#Distribution"/>
        <cc:permits rdf:resource="http://creativecommons.org/ns#DerivativeWorks"/>
      </cc:License>
    </rdf:RDF>
  </metadata>
</svg>
