<?xml version="1.0" encoding="utf-8"?>

<!DOCTYPE svg PUBLIC "-//W3C//DTD SVG 1.1//EN" "http://www.w3.org/Graphics/SVG/1.1/DTD/svg11.dtd">
<svg version="1.1" id="Layer_1" xmlns="http://www.w3.org/2000/svg" xmlns:xlink="http://www.w3.org/1999/xlink" x="0px" y="0px"
	 viewBox="0 0 811.704 1635.62" enable-background="new 0 0 811.704 1635.62" xml:space="preserve">
<g>
	<path fill="#FE0000" d="M551.897,946.441c-0.109,1.358-0.217,2.743-0.326,4.101c-0.326,4.156-4.78,47.014-6.165,47.123
		c-19.392,1.575-41.582-10.973-59.046-18.279c-11.434-4.807-22.733-9.914-33.869-15.4
		C483.861,960.483,517.349,954.915,551.897,946.441z"/>
	<path fill="#FE0000" d="M542.12,810.395c6.274,16.622,9.886,34.113,11.706,51.849c-66.624-4.78-142.157,2.662-226.163,21.755
		c-1.575-1.304-3.151-2.607-4.699-3.911c-26.916-22.597-50.464-49.486-73.115-76.565c72.219-49.323,161.631-62.822,265.247-46.607
		c1.249,1.956,2.444,3.884,3.639,5.839C527.996,777.857,535.873,793.828,542.12,810.395z"/>
	<path fill="#FE0000" d="M528.431,1026.51c6.03,7.089-0.951,15.563-4.047,22.353c-0.19,0.516-0.353,1.005-0.543,1.521
		c-32.728,10.755-157.122,45.005-265.519-14.721c-0.598-24.824-5.839-50.708-13.363-74.609c7.768,1.358,72.844,12.059,163.423,6.709
		c15.155,8.963,30.691,17.247,46.444,25.069c11.516,5.704,24.336,12.059,36.531,17.6
		C500.809,1014.749,521.722,1018.633,528.431,1026.51z"/>
	<path fill="#FB0203" d="M445.891,412.145c1.575,3.368,16.513,32.158,11.217,34.303c-3.639,1.467-7.306,2.988-11.054,4.21
		c-4.59,1.44-9.153,2.879-13.743,4.291c-1.901-15.183-6.872-29.822-12.792-43.864c-5.541-13.091-11.299-26.916-18.36-39.274
		c-0.815-1.439-6.355-11-7.931-11c1.711-0.163,3.477,0.299,5.106,1.575c10.267,5.568,19.121,13.553,26.997,22.108
		C432.935,392.752,441.138,401.878,445.891,412.145z"/>
	<path fill="#FE0000" d="M449.231,686.898v0.027c-117.088-17.002-204.544,11.815-267.366,78.629
		c-0.027-0.462-0.027-0.951-0.027-1.412c-1.141-26.047,2.363-42.886,17.627-64.56c13.118-18.605,30.474-34.249,50.518-45.113
		c41.148-22.299,92.454-22.516,135.828-6.491c18.306,6.763,35.39,16.649,50.545,28.953c4.183,3.395,8.501,6.681,12.82,9.941
		C449.204,686.871,449.231,686.898,449.231,686.898z"/>
	<path fill="#FE0000" d="M449.177,686.871c-4.318-3.259-8.637-6.546-12.82-9.941c-15.155-12.304-32.239-22.19-50.545-28.953
		c-43.375-16.025-94.681-15.807-135.828,6.491c-20.044,10.864-37.4,26.508-50.518,45.113c-15.264,21.674-18.768,38.513-17.627,64.56
		c0,0.462,0,0.951,0.027,1.412c-0.272,0.272-0.543,0.57-0.815,0.842c-1.602-43.348,13.743-83.355,70.617-115.105
		c43.348-16.323,84.821-21.321,123.579-9.506C410.745,654.088,435.217,669.162,449.177,686.871z"/>
	<path fill="#FB0203" d="M324.865,331.424c-0.76,0-4.943,3.531-5.867,4.02c-2.472,1.331-5.106,2.336-7.714,3.422
		c-13.607,5.541-23.792,16.649-29.007,30.474c-5.323,14.042-2.444,31.886,0.598,46.172c1.63,7.605,3.938,15.047,6.926,22.217
		s8.365,13.852,10.891,20.968c-2.472,0.733-29.36,2.77-29.415,1.304c-1.249-26.4-5.704-54.348-21.674-76.157
		c-18.795-20.886-47.123-35.743-75.831-32.348c-13.662,2.825-27.215,9.316-36.313,20.153
		c-14.531,20.615-19.121,47.395-12.657,71.785c2.037,13.988,10.185,25.694,15.074,38.676c-11.163,1.765-23.874-1.738-33.706,5.242
		c-11.19,7.904-18.523,21.294-18.523,35.091c-1.195,20.071,10.185,37.78,21.674,53.207c11.543,16.378,26.318,30.121,38.214,46.227
		c1.575,2.227,3.612,4.644,2.96,7.605c-43.945-12.874-80.584-40.306-99.407-82.703c-0.652-1.412-1.249-2.852-1.847-4.318
		c-10.62-26.21-12.331-53.859-8.067-81.589c2.01-13.173,7.849-27.568,13.716-39.437c7.985-16.188,19.039-30.094,31.805-42.696
		c15.753-15.59,35.363-26.889,55.841-35.145c10.457-4.21,21.239-7.632,32.158-10.402c5.188-1.304,10.402-2.444,15.617-3.531
		c2.933-0.598,15.726-2.852,17.844,0.19c4.264,6.138,4.889,17.763,14.558,17.138c4.726,0.353,9.452-0.244,14.15-0.869
		c1.467-8.528-6.681-13.988-8.583-21.674c13.716-1.793,28.057-2.77,41.637,0.299c1.385,6.681,2.743,13.444,5.894,19.583
		c4.862,0.869,9.751,1.195,14.694,1.277c3.965,0.054-2.933-20.859-4.318-20.859C298.438,320.886,312.941,329.414,324.865,331.424z"
		/>
	<path fill="#FE0000" d="M248.354,831.119c17.654,20.941,37.753,39.002,57.172,58.123c-25.422,6.274-51.632,13.58-78.547,21.891
		c-0.244-0.679-0.489-1.358-0.76-2.037c-10.891-20.37-19.8-41.338-25.069-63.202c-0.054-0.244-0.109-0.462-0.19-0.706
		c10.837-11.38,22.217-21.674,34.113-30.908C239.31,820.01,243.71,825.605,248.354,831.119z"/>
	<g>
		<path d="M688.215,1023.631c-13.852-5.839-26.617-14.123-40.985-18.849c4.454-8.148,9.397-16.622,8.909-26.264
			c-1.141-13.091-12.467-22.299-23.494-27.54c-6.328-2.635-17.79-2.336-18.876,6.22c0.57,10.538,7.469,19.338,9.506,29.55
			c-0.842,13.825-13.281,24.308-26.21,26.726c-13.037-0.76-25.639-4.672-38.16-8.175l-0.543-2.309
			c6.464-22.027,9.778-44.787,11.244-67.656c1.793-33.869,3.232-68.254-3.965-101.607c-6.193-24.281-14.069-48.563-27.432-69.91
			c-8.881-23.494-26.4-42.153-43.891-59.563c-19.039-20.316-42.316-35.852-65.619-50.763
			C580.511,520.956,616.816,358.6,632.672,320.968c1.412-3.314,3.341-10.43,6.193-12.684c7.958-6.328,17.084-11.434,27.079-13.716
			c19.827-5.785,37.563-18.034,48.698-35.553c44.043-75.888,33.09-59.397,67.792-89.602c4.726-5.405,11.978-13.2,7.225-20.669
			c-28.841-6.131-74.043,10.974-99.895,25.694c-19.039,8.61-35.689,21.511-50.763,35.852c-7.294-32.379-18.865-41.832-38.758-44.706
			c-5.541-0.815-22.978,0.244-17.953,10.565c7.974,18.767,33.463,38.559,28.437,74.799c-4.183,36.34-11.923,72.246-22.054,107.392
			c-6.383,29.795-20.289,57.172-31.587,85.283c-8.393,22.163-21.457,42.071-31.723,63.365
			c-11.054,20.941-22.76,41.718-38.405,59.644c-12.955,19.148-27.812,37.047-44.733,52.854
			c-9.642,9.669-19.555,19.773-32.375,25.123c-11.597-4.047-23.032-8.501-34.955-11.543c20.968-13.689,42.397-27.269,58.639-46.716
			c7.904-10.212,18.034-18.795,23.765-30.528c9.968-18.225,17.437-38.16,20.044-58.829c2.825-32.81-1.141-67.656-19.528-95.794
			c-33.016-54.901-106.727-79.109-170.648-87.293c-2.917-0.357-10.241-90.962,5.731-161.875
			c3.368-14.965,6.681-30.474,17.084-42.261c8.474-9.533,24.064-13.173,35.172-6.084c21.321,11.733,34.331,33.76,41.419,56.385
			c7.985,23.575,8.501,49.703,20.56,71.812c3.721,6.817,13.879,7.252,20.56,5.16c6.98-2.2,6.165-8.121,6.79-14.096
			c4.818-46.514-45.109-106.261-84.577-129.419c-15.997-9.397-37.97-5.079-49.323,9.588c-21.18,27.022-25.369,62.544-29.632,96.093
			c-2.625,20.595-5.13,66.021-4.047,82.268c0.598,9.343,1.521,18.686,1.847,28.057c0,0.244,0.054,2.797,0.081,2.797
			c-16.052-0.815-32.076,1.114-48.074,0.598c-32.538-45.358-61.627-93.105-90.253-141.016c-14.531-22.543-24.797-47.53-33.19-72.925
			c-4.617-13.906-7.442-28.98-4.997-43.592c2.2-13.254,11.57-33.57,28.817-26.291c19.175,6.301,30.582,24.58,40.007,41.256
			c10.749,14.445,16.89,40.442,36.666,40.442c2.01,0,3.83-0.326,5.16-1.059c5.296-2.933,4.291-12.195,3.259-17.029
			c-5.595-26.454-26.02-43.402-45.901-59.372c-14.83-11.896-34.358-18.089-53.234-14.531c-53.324,10.038-19.556,99.348,3.83,148.648
			c14.22,30.04,31.769,56.314,66.57,111.764c7.795,12.467,18.007,24.091,21.239,38.839c-16.812,0.38-32.592,6.872-48.128,12.657
			c-37.815,14.071-79.404,45.643-96.5,68.064c-59.393,77.632-29.68,178.244,41.475,220.539
			c18.116,10.783,38.432,17.029,58.069,24.308c15.036,5.598,31.703,8.591,47.748,10.674c2.526,0.326,14.341,3.341,16.133,1.874
			c-18.469,15.291-30.284,36.558-43.918,55.896c-5.894,8.094-10.701,16.921-14.938,25.992
			c-14.694,31.442-28.921,41.763-63.012,146.013c-5.568,17.057-11.652,33.95-16.921,51.116
			c-9.859,32.266-17.763,65.049-27.052,97.478c-0.987,3.439-19.137,77.597-22.299,164.482c-0.858,23.369,2.899,51.007,6.709,74.229
			c4.997,30.039,13.987,59.997,30.718,85.691c6.383,9.832,12.358,20.18,21.185,28.111c11.348,10.163,28.817,17.939,45.086,13.852
			c17.546-4.862,32.674-15.563,46.335-27.269c7.197,5.541,12.032,14.395,21.104,17.328c13.607,5.894,28.654,1.276,41.772-3.64
			c-1.793,22.625-5.676,45.086-9.615,67.439c-4.481,18.116-4.726,37.101-9.914,55.027c-20.289,21.239-49.187,29.252-74.338,42.777
			c-19.094,7.931-37.264,18.089-57.064,24.363c-23.059,7.306-45.629,16.025-68.281,24.471c-4.916,1.983-2.037,7.822,1.983,8.61
			c14.721,4.59,30.148,5.894,45.331,8.121c14.748,1.277,29.985,3.232,44.434-1.249c18.306-5.133,33.624-16.839,49.595-26.644
			c25.313-14.748,47.639-33.896,71.92-50.192c4.753-3.368,10.294-6.22,13.146-11.543c4.617-51.089,8.365-102.258,14.748-153.13
			c9.18-12.575,22.027-21.647,32.429-33.108c16.133-16.758,27.649-37.209,42.777-54.809c3.639-4.536,5.785-10.538,11.353-13.173
			c75.901-44.567,55.974-35.797,95.034-69.177c-7.306,19.637-16.541,38.513-24.499,57.906
			c-9.207,24.308-18.496,48.563-27.839,72.844c-17.029,55.977-39.437,110.135-56.765,166.031
			c-2.064,7.659-6.518,15.373-4.726,23.548c15.373,6.844,31.289,13.2,47.259,18.55c20.792,6.957,56.74,27.748,123.253,33.434
			c12.521,1.059,23.792-0.543,36.069-3.422c11.353-2.689,26.699-6.328,36.15-13.526c2.825-2.146,8.284-4.047,4.563-7.768
			c-5.079-5.079-17.41-4.862-24.118-6.138c-118.069-22.144-180.561-32.493-180.561-36.476c0.489-16.649,5.541-32.647,8.555-48.888
			c7.197-39.627,16.323-78.955,28.871-117.251c7.735-21.674,0.999-22.073,57.743-159.838c3.612-9.37,10.755-16.622,15.889-25.123
			c11.353-19.392,25.911-36.992,34.439-57.987c11.326-19.148,19.447-39.98,26.671-60.975c16.106,5.351,30.555,14.639,46.308,20.941
			c75.61,41.179,90.05,15.175,159.078,6.41c10.131-1.412,19.664,3.232,29.713,2.716c3.83,0.081,7.551-3.531,5.595-7.415
			C756.205,1033.213,750.299,1036.446,688.215,1023.631z M445.891,412.145c1.575,3.368,16.513,32.158,11.217,34.303
			c-8.667,3.492-7.97,3.323-24.797,8.501c-4.293-34.281-34.851-94.137-39.084-94.137
			C402.152,359.962,436.336,391.506,445.891,412.145z M150.496,629.481C74.329,607.168,28.501,543.298,41.176,460.87
			c2.01-13.173,7.849-27.568,13.716-39.437c7.985-16.188,19.039-30.094,31.805-42.696c27.487-27.202,65.848-41.21,103.616-49.079
			c2.933-0.598,15.726-2.852,17.844,0.19c4.264,6.138,4.889,17.763,14.558,17.138c4.726,0.353,9.452-0.244,14.151-0.869
			c1.467-8.528-6.681-13.988-8.583-21.674c13.716-1.793,28.057-2.77,41.637,0.299c1.385,6.681,2.743,13.444,5.894,19.583
			c4.862,0.869,9.75,1.195,14.694,1.276c3.965,0.054-2.933-20.859-4.318-20.859c12.249-3.857,26.753,4.672,38.676,6.681
			c-0.76,0-4.943,3.531-5.867,4.02c-6.606,3.557-26.999,8.124-36.721,33.896c-6.997,18.456-0.01,50.31,7.523,68.39
			c2.988,7.17,8.365,13.852,10.891,20.968c-2.472,0.733-29.36,2.77-29.415,1.304c-1.249-26.4-5.704-54.348-21.674-76.157
			c-18.795-20.886-47.123-35.743-75.831-32.348c-13.662,2.825-27.215,9.316-36.313,20.153
			c-14.531,20.615-19.121,47.395-12.657,71.785c2.037,13.988,10.185,25.694,15.074,38.676c-11.163,1.765-23.874-1.738-33.706,5.242
			c-11.19,7.904-18.523,21.294-18.523,35.091C84.975,567.313,153.204,617.184,150.496,629.481z M174.37,638.39
			c-7.089-3.096-12.358-9.153-18.252-14.015c-23.983-25.503-47.965-52.691-60.948-85.718c-7.795-18.415,1.956-43.538,22.136-48.644
			c16.215-3.504,31.316,5.323,46.172,10.321c-4.835-8.501-12.765-14.612-17.98-22.842c-13.363-20.859-21.81-46.797-14.884-71.431
			c5.269-18.849,15.943-40.034,36.531-45.249c26.753-6.681,55.325,4.237,74.691,22.923c15.373,19.067,21.891,43.864,23.412,67.955
			c0.543,8.718-4.672,19.474,0.815,26.807c9.832-4.78,19.066-11.679,30.284-12.847c6.573-0.054,13.01,1.684,19.555,2.281
			c-10.768-19.221-26.14-23.297-29.523-78.846c-0.733-11.896,2.689-26.807,11.054-35.716c7.849-8.365,20.153-12.005,31.289-13.146
			c13.091-1.331,25.368,3.938,37.182,8.8c16.541,6.817,28.029,20.533,35.363,36.503c8.699,19.033,19.317,47.002,22.027,63.012
			c1.304,7.523,3.368,14.938,3.612,22.57c0-1.358,12.222-8.936,13.825-10.131c4.753-3.477,9.533-6.709,15.318-8.094
			c3.694-0.903,13.257,51.198-11.109,90.552c-12.792,27.975-36.422,48.97-60.323,67.466c-12.276,9.751-27.595,14.042-42.723,17.002
			c-18.062,0.978-36.422-1.575-54.266,2.417c-16.867,2.39-32.619,9.262-49.133,13.146
			C217.066,646.157,195.147,644.283,174.37,638.39z M135.476,1392.983c-51.014,18.482-120.108-87.729-93.676-274.156
			C62.601,972.123,124.286,812.93,163.777,750.29c1.005-1.548,4.889-5.677,4.889-7.415c-0.109,18.496-2.58,37.182,0.706,55.516
			c4.672,20.859,13.689,40.387,21.294,60.296c5.758,10.131-1.765,20.859-1.521,31.533c-3.286,9.805-5.296,19.963-8.365,29.849
			c-12.304,7.849-25.503,14.884-39.871,17.953c-4.21,0.788-8.284,2.227-11.516,5.106c18.034-0.788,34.331-8.936,50.002-17.111
			c-31.765,117.331-21.698,123.821-31.479,129.609c-12.602,8.175-26.128,15.644-40.985,18.741
			c-8.039,1.956-16.785,2.037-23.874,6.844c46.454-4.776,47.652-12.666,68.688-23.412c-1.281,0.64-15.2,99.636-4.156,196.83
			c0.869,7.442,3.477,18.469-1.331,25.205c-9.425,13.146-22.516,22.95-35.281,32.565c-5.975,4.644,0.326,13.064,6.22,13.553
			c14.015,1.358,28.138,0.353,42.207,0.842c2.607,4.156,5.106,8.42,7.279,12.847c3.286,9.126,7.089,18.089,10.239,27.269
			C165.081,1378.479,151.012,1387.334,135.476,1392.983z M153.619,1264.026c-6.213-15.172-9.328-147.73,2.2-208.401
			c2.336-4.726,7.252-7.306,11.054-10.728c9.968-7.605,16.785-18.333,26.155-26.59c-0.788,6.383-2.064,12.738-3.558,19.039
			c-10.158,37.101-17.871,74.799-26.454,112.308c-1.005,1.168-2.01,2.336-2.988,3.531c-1.086,1.358,2.77,1.63,3.341,1.385
			c3.667-1.521,4.346-11.733,5.079-14.992c3.226-14.618,3.1-18.494,5.16-26.182c0.244-0.896,3.151-8.175,2.906-8.474
			c8.012,8.746,15.427,18.143,24.58,25.775c-6.736-11.489-18.904-19.718-22.679-32.81c2.715-24.7,13.319-51.823,17.491-78.167
			c19.726-72.739,17.557-71.946,23.901-83.545c27.387,79.266,30.532,139.542-3.83,236.783
			c-15.183,35.172-35.118,68.552-60.758,97.125C156.525,1268.616,154.19,1265.384,153.619,1264.026z M208.727,957.984
			c-4.318,13.797-7.116,28.002-10.81,41.963c-2.2,9.234-8.8,16.351-14.585,23.548c-7.523,8.963-15.508,17.953-25.775,23.847
			c5.405-41.61,14.476-82.812,27.296-122.764c6.138-8.474,18.089-11.815,22.679-21.973c-7.143,4.346-13.471,9.914-20.832,13.96
			c1.44-8.555,3.531-16.948,5.405-25.395c1.602-4.481,3.802-8.718,6.057-12.901c6.274,14.069,13.254,28.165,16.459,43.321
			C214.214,933.893,210.248,945.789,208.727,957.984z M181.784,1362.971c-7.333-9.153-9.723-21.104-13.499-31.94
			c0.19-1.086,0.57-3.286,0.788-4.4c15.563-1.847,31.261-2.607,46.716-5.378C206.864,1334.475,202.767,1338.098,181.784,1362.971z
			 M243.058,1377.529c-11.978,9.642-29.007,11.978-43.375,6.926c-6.627-4.291-13.444-9.723-16.215-17.355
			c10.104-8.664,20.723-16.839,29.116-27.323c5.948-6.573,9.995-14.721,16.405-20.886c7.36-3.504,15.536-4.644,23.385-6.546
			C248.572,1333.964,248.246,1356.126,243.058,1377.529z M317.694,1307.021c-14.015,21.429-31.723,40.822-52.501,55.841
			c0.869-19.039,2.906-38.052,5.215-56.955c21.239-6.546,42.017-14.558,62.36-23.548
			C330.134,1291.865,323.479,1299.307,317.694,1307.021z M551.571,950.542c-0.326,4.156-4.78,47.014-6.165,47.123
			c-19.392,1.575-41.582-10.973-59.046-18.279c-61.76-25.966-117.684-60.802-163.396-99.298
			c-48.431-40.66-100.709-111.413-106.441-118.12c-2.716-3.83-9.778-4.291-12.005,0.217c-2.933,4.889,1.358,9.588,3.639,13.716
			c44.16,64.552,44.618,61.4,97.37,113.34c42.186,41.344,90.28,77.776,185.83,121.189c9.452,4.318,30.365,8.202,37.074,16.079
			c6.408,7.534-1.84,16.411-4.59,23.874c-13.173,37.155-33.434,71.377-54.158,104.757c-12.63,21.81-31.506,39.029-50.382,55.298
			c-35.933,34.439-80.096,59.128-125.888,77.896c-7.062,2.988-14.422,5.079-21.837,7.034c1.657-43.212,8.827-86.125,8.311-129.446
			c-0.272-11.95,4.59-24.444-0.244-35.879c-1.956,0.027-5.839,0.109-7.768,0.136c-1.657,16.432-2.798,32.891-3.504,49.404
			c-6.247,40.36-8.202,81.236-13.662,121.732c-23.439,4.753-46.037,14.341-70.264,14.449c-20.316,2.064-40.74,2.77-61.138,2.146
			c3.884-7.279,11.896-10.81,17.274-16.758c37.152-41.108,120.88-120.543,117.74-265.22c0-40.071-17.086-89.298-32.103-126.838
			c-20.105-37.602-24.259-60.908-25.259-63.908c-6.518-26.563-18.578-52.202-19.094-79.634c-0.272,0.272-0.543,0.57-0.815,0.842
			c-1.602-43.348,13.743-83.355,70.617-115.105c43.348-16.323,84.821-21.321,123.579-9.506c35.498,12.304,59.97,27.378,73.93,45.086
			c0.399,0,22.448,16.286,33.652,27.758c13.746,14.08,25.64,31.329,35.906,48.128c23.908,38.983,32.051,69.864,35.091,99.488
			C557.838,900.906,553.294,929.008,551.571,950.542z"/>
		<path d="M282.332,585.128c52.174,24.026,66.132-23.31,85.772-50.681c9.914-9.642,22.869-15.128,34.494-22.271
			c0.598-0.951,1.847-2.825,2.444-3.775c-21.959,2.483-36.899,27.58-85.039,45.249c-25.857,7.17-52.637,0.652-77.325-7.795
			c-28.192-7.822-55.57-18.822-84.414-24.2c-2.852-0.869-6.464-0.896-8.447-3.477c3.504-3.341,13.254-4.074,11.163-10.375
			c-12.005,4.536-23.847,10.62-37.21,9.044c5.758,5.079,14.585,4.835,20.669,9.832c3.042-0.19,6.193-0.978,9.234-0.136
			c23.249,5.867,46.498,12.032,68.906,20.533C243.302,558.43,263.211,571.277,282.332,585.128z M315.739,561.2
			c11.299-2.363,20.968-9.099,31.859-12.602c-7.904,11.951-9.56,30.528-25.395,34.955c-18.632,5.568-36.775-4.101-52.365-13.336
			c-6.763-4.59-14.178-8.365-20.044-14.151C271.495,559.489,293.766,567.284,315.739,561.2z"/>
		<path d="M332.795,432.977c-3.911,2.173-7.958,4.074-12.005,6.002c4.916,13.146,12.63,27.758,27.242,31.696
			c4.726,1.277,10.104-3.612,12.331-7.17c3.775-5.975,3.096-12.059,2.146-18.686c-1.032-7.306-2.58-14.612-5.676-21.348
			c-3.515-7.677-16.875-27.926-31.805-29.17c-5.595-0.462-8.365,2.444-9.859,7.605c-2.906,10.131,1.983,20.615,3.096,30.637
			C323.099,432.678,327.961,432.678,332.795,432.977z"/>
		<path d="M301.317,504.68c11.299,0.679,22.543,1.765,33.679,3.857c-0.489-0.978-1.44-2.96-1.928-3.938
			c-13.281-8.012-29.143-18.523-45.195-12.168c-10.674,6.002-21.945,15.047-24.146,27.785l2.58,0.869
			C277.443,514.729,288.063,505.82,301.317,504.68z"/>
		<path d="M195.229,439.468c0.733,0.57,2.2,1.684,2.933,2.254l-0.652,1.358c-5.921,1.548-11.434,4.454-16.106,8.42
			c-1.847,1.575,13.634,21.973,15.536,23.847c6.328,6.274,22.244,13.146,29.061,3.993c15.889-24.634-4.346-67.276-31.126-75.424
			c-6.98-2.119-16.025,0.217-19.284,7.116c-4.454,9.397,0.38,20.696,4.101,29.469C184.854,440.88,190.313,441.559,195.229,439.468z"
			/>
		<path d="M162.419,1166.412c-6.41,2.227-4.21,12.005-6.41,17.573C162.093,1182.083,160.029,1171.763,162.419,1166.412z"/>
		<path d="M134.553,1219.103c2.444-3.069,4.183-6.573,4.889-10.43c-10.267,8.447-15.047,22.271-26.563,29.632
			c-7.388,6.519-18.36,8.963-23.711,17.546C108.289,1249.577,122.276,1234.286,134.553,1219.103z"/>
		<path d="M107.746,944.893c-0.081-0.869-0.19-2.635-0.244-3.504c-5.378,0.706-10.81,1.63-15.671,4.183
			C97.126,945.816,102.449,945.491,107.746,944.893z"/>
	</g>
</g>
</svg>
