<?xml version="1.0"?>
<svg xmlns:rdf="http://www.w3.org/1999/02/22-rdf-syntax-ns#" xmlns="http://www.w3.org/2000/svg" xmlns:cc="http://creativecommons.org/ns#" xmlns:dc="http://purl.org/dc/elements/1.1/" xmlns:svg="http://www.w3.org/2000/svg" id="svg6248" viewBox="0 0 622.27 871.24" version="1.1">
  <g id="layer1" transform="translate(-39.181 -174.19)">
    <g id="g5814" transform="matrix(3 0 0 3 1641.7 64.346)">
      <path id="path4960" stroke-linejoin="round" d="m-357.2 312.72 1.6071 11.071c0.23175 1.5965 0.62882 4.161 3.5714 1.4286l12.5-11.607" stroke-dashoffset="1.5" stroke="#000" stroke-linecap="round" stroke-width="1.25"/>
      <path id="path4914" stroke-linejoin="round" d="m-456.11 194.8c-1.7785-5.6728 3.5751-5.5986 3.3877-8.8961-0.19308-3.3965-0.30355-6.5004-1.2404-9.5894l-1.145-4.6869c-0.83708-0.78118-1.7628-1.1301-3.3188 1.5931l0.58897 5.5303-1.3652-6.647c-1.7774-2.4406-2.7027-0.7329-3.7452 0.40463 0 0 0.50746-1.3294 0.0967-3.3012-0.25768-1.2347-1.4518-1.6171-2.6973-1.8159-1.079-0.17225-1.3676 1.7861-1.3684 2.8788-0.002 2.0889 0.0205 2.867-0.0901 2.8897l-0.97621-2.534s-2.5692-0.82376-3.3797-0.035c-0.61078 0.59436-0.3438 1.6714-0.58247 2.4895-0.38878 1.3328-0.26495 1.8118-0.43876 3.1892-0.32257 2.5565-0.36042 6.1073 0.81397 8.4009 1.1992 2.342 4.3898 7.3394 4.3898 7.3394l3.1528 8.5598" stroke-dashoffset="1.5" stroke="#000" stroke-linecap="round" stroke-width="1.25" fill="#e6d3a3"/>
      <path id="path4916" stroke-linejoin="round" d="m-384.74 307.29c3.0232 6.4661-0.20846 9.8929-17.64 11.458-3.6817 0.33056-8.2082 2.9896-3.8258 3.1892 0.3596 0.0164 16.044-0.23907 24.433-0.63135 1.7678-0.0827 4.8923-2.7392 6.6291-2.3991 0.61049 0.11956 1.4142 2.1949 2.7317 2.2986 1.6903 0.133 3.3399-1.2611 4.7182-0.84646 2.43 0.73115-3.9489-10.529-3.162-11.837" stroke-dashoffset="1.5" stroke="#000" stroke-linecap="round" stroke-width="1.25"/>
      <path id="path4920" stroke-linejoin="round" d="m-393.27 315.34c4.5815 1.5113 21.724 3.8347 26.762 2.0256-2.7998 0.25218-5.8482-34.922-0.17412-34.562 4.5349 0.28768 4.0526 32.856 3.1919 33.646 4.2743 0.80359 7.8462 1.1677 23.218 0.44905 13.72-12.929 17.593-31.084 6.2447-56.832-21.573 12.636-49.285 17.252-66.086 12.092-2.9193 12.013-8.9231 27.298 6.8439 43.181z" stroke-dashoffset="1.5" stroke="#000" stroke-linecap="round" stroke-width="1.25" fill="#4d4d4d"/>
      <path id="path4922" stroke-linejoin="round" d="m-423.27 196.44c0.11904 2.9528-0.77141 3.8769-5.5357 5.1786-16.795 4.5886-17.228 1.7979-25.536-9.4643l-13.036 7.6786c3.5639 7.0227 19.62 33.634 41.964 26.607-5.5988 17.654 1.674 34.97-4.6429 53.571 22.795 6.091 70.89 17.043 102.5-15-16.895-32.116-60.081-62.748-71.429-72.857z" stroke-dashoffset="1.5" stroke="#000" stroke-linecap="round" stroke-width="1.25" fill="#8b97ad"/>
      <path id="path4992" stroke="#000" stroke-width="1.25" d="m-423.3 197.61s-3.5921 12.963 1.0032 14.57c4.921 1.7202 10.56-11.535 10.56-11.535s4.7039 11.296 9.1097 10.162c6.0177-1.5482 4.1988-18.162 4.1988-18.162"/>
      <path id="path4924" stroke-linejoin="round" d="m-411.73 200.65c-3.2642 16.967 0.76441 35.261 4.5635 53.744 3.0563 14.869 8.4146 24.872 10.313 31.916" stroke-dashoffset="1.5" stroke="#000" stroke-linecap="round" stroke-width="1.25" fill="none"/>
      <path id="path4926" transform="matrix(1.1179 0 0 1.1179 -335.22 -383.11)" d="m-71.721 535.16c0 0.83684-0.67839 1.5152-1.5152 1.5152-0.83684 0-1.5152-0.67839-1.5152-1.5152 0-0.83684 0.67839-1.5152 1.5152-1.5152 0.83684 0 1.5152 0.67839 1.5152 1.5152z"/>
      <path id="path4928" transform="matrix(1.2357 0 0 1.2357 -323.37 -423.22)" d="m-71.721 535.16c0 0.83684-0.67839 1.5152-1.5152 1.5152-0.83684 0-1.5152-0.67839-1.5152-1.5152 0-0.83684 0.67839-1.5152 1.5152-1.5152 0.83684 0 1.5152 0.67839 1.5152 1.5152z"/>
      <path id="path4930" transform="matrix(1.3536 0 0 1.3536 -310.64 -461.63)" d="m-71.721 535.16c0 0.83684-0.67839 1.5152-1.5152 1.5152-0.83684 0-1.5152-0.67839-1.5152-1.5152 0-0.83684 0.67839-1.5152 1.5152-1.5152 0.83684 0 1.5152 0.67839 1.5152 1.5152z"/>
      <path id="path4932" stroke-linejoin="round" d="m-52.023 499.11c0 11.89-7.6319 21.529-17.046 21.529-9.4144 0-17.046-9.6388-17.046-21.529s7.6319-21.529 17.046-21.529c9.4144 0 17.046 9.6388 17.046 21.529z" stroke-dashoffset="1.5" transform="matrix(1.1158 .20294 -.22961 1.0967 -220.05 -356.43)" stroke="#000" stroke-linecap="round" stroke-width="1.1091" fill="#e6d3a3"/>
      <path id="path4934" stroke-linejoin="round" d="m-421.59 183.1c-2.934 1.7403-6.2842 2.1981-9.1875 1.9688 0.21637 1.0355 0.47896 2.0322 0.8125 3 2.6199-0.19712 5.4743-0.9073 6.7812-1.7188 0 0 6.9318 6.7518 11.625 6.9375 2.6861 0.1063 7.4062-3.1562 7.4062-3.1562-7.5572 1.135-11.902-4.1262-17.438-7.0312z" stroke-dashoffset="1.5" stroke="#000" stroke-linecap="round" stroke-width="1.25"/>
      <path id="path4936" transform="matrix(1.2946 0 0 1.2946 -334.13 -519.38)" d="m-71.721 535.16c0 0.83684-0.67839 1.5152-1.5152 1.5152-0.83684 0-1.5152-0.67839-1.5152-1.5152 0-0.83684 0.67839-1.5152 1.5152-1.5152 0.83684 0 1.5152 0.67839 1.5152 1.5152z"/>
      <path id="path4938" stroke-linejoin="round" d="m-430.71 160.95c-5.4828 0.28237-8.7974-0.14703-9.659 2.1221-2.6742 7.0428 47.544 10.416 56.288 4.0146 1.1408-0.83516-0.29228-2.6389-6.9102-4.6671-0.23057-28.936-38.775-26.525-39.719-1.4696z" stroke-dashoffset="1.5" stroke="#000" stroke-linecap="round" stroke-width="1.25"/>
      <path id="path4940" transform="matrix(1.6482 0 0 1.6482 -294.59 -707.1)" d="m-71.721 535.16c0 0.83684-0.67839 1.5152-1.5152 1.5152-0.83684 0-1.5152-0.67839-1.5152-1.5152 0-0.83684 0.67839-1.5152 1.5152-1.5152 0.83684 0 1.5152 0.67839 1.5152 1.5152z"/>
      <path id="path4942" stroke-linejoin="round" d="m-475.32 188.16s1.7521 7.83 3.8476 8.6132c7.6008 2.8407 18.06 1.7425 25.705-1.0145 4.0121-1.4467 2.8655-8.9685 2.8655-8.9685l4.1796 0.38582c0.37213 0 0.35291 9.4895-2.9197 11.084-8.7123 4.2462-20.666 5.1389-31.935 3.5752-4.5616-0.63303-8.3692-13.891-8.3692-13.891z" stroke-dashoffset="1.5" stroke="#000" stroke-linecap="round" stroke-width="1.25" fill="#f1d27e"/>
      <path id="path4944" stroke-linejoin="round" d="m-423 186.64c-34.978-4.4684-47.476-2.2733-76.904-26.17l1.8486 38.466c9.5862-12.173 51.261-10.585 75.036-10.261 1.5504-0.74936 0.82702-1.3946 0.0191-2.0359z" stroke-dashoffset="1.5" stroke="#000" stroke-linecap="round" stroke-width="1.25" fill="#f1d27e"/>
      <path id="path4946" stroke-linejoin="round" d="m-462.56 173.06s0.14014 2.7585 0.38902 4.113c0.24256 1.3202 0.004 3.0671 1.0707 3.8818 0.57985 0.44285 1.5646 0.38387 2.1888 0.006 0.52495-0.31761 0.7432-1.0286 0.84957-1.6329 0.36208-2.057-1.0154-6.8487-1.0154-6.8487" stroke-dashoffset="1.5" stroke="#000" stroke-linecap="round" stroke-width="1.25" fill="#e6d3a3"/>
      <path id="path4948" stroke-linejoin="round" d="m-471.64 171.37s-0.30906 4.4911 0.29653 5.9624c0.34989 0.85007 0.9472 1.7412 1.7969 2.092 0.66539 0.27465 1.6552 0.35133 2.1529-0.16874 0.61389-0.64148 0.11078-1.7744 0.0913-2.6621-0.0316-1.4393-0.3781-4.9743-0.3781-4.9743" stroke-dashoffset="1.5" stroke="#000" stroke-linecap="round" stroke-width="1.25" fill="#e6d3a3"/>
      <path id="path4950" stroke-linejoin="round" d="m-466.84 169.88s0.34306 2.4913 0.59194 3.8457c0.24256 1.3202 0.004 3.0671 1.0707 3.8818 0.57984 0.44285 1.5646 0.38387 2.1888 0.006 0.52495-0.31761 0.7432-1.0286 0.84957-1.6329 0.36208-2.057-0.66553-6.2438-0.66553-6.2438" stroke-dashoffset="1.5" stroke="#000" stroke-linecap="round" stroke-width="1.25" fill="#e6d3a3"/>
      <path id="path4952" stroke-linejoin="round" d="m-510.08 153.23c-13.634-0.7502-23.105 10.247-23.467 25.164-0.31685 13.046 9.8107 28.817 22.857 28.503 9.074-0.21856 19.212-8.7373 19.987-23.829 0.75551-14.708-4.6729-29.028-19.378-29.837z" stroke-dashoffset="1.5" stroke="#000" stroke-linecap="round" stroke-width="1.25" fill="#f1d27e"/>
      <path id="path4954" stroke-linejoin="round" d="m-505.81 173.09c8.1341-6.5863 14.167 3.5294 12.857 9.5582-2.3673 10.897-12.94 8.2236-11.042-1.4482 0.96205-4.9019 5.4851-7.1618 6.3527 0" stroke-dashoffset="1.5" stroke="#000" stroke-linecap="round" stroke-width="1.25" fill="none"/>
      <path id="path4956" stroke-linejoin="round" d="m-459.77 218.43s-7.2493-8.5462-7.4214-8.8591c-0.17215-0.31292-3.8177-5.7763-1.9801-7.6745 0.46931-0.48481 1.4039 0.0832 1.9754 0.4418 1.9687 1.2351 4.3308 5.4642 4.3308 5.4642s-4.3142-5.7251-4.7146-9.1254c-0.12313-1.0459-0.16804-2.5664 0.75854-3.0668 0.66769-0.36047 1.5433 0.2958 2.1476 0.75471 2.6698 2.0276 5.7589 8.2452 5.7589 8.2452s-4.6637-8.8477-4.7576-9.2037c-0.0939-0.35595-0.49062-1.7831 0.11319-2.2023 0.74354-0.51622 1.8554 0.28795 2.5896 0.81726 2.3358 1.6838 5.0703 6.9935 5.0703 6.9935s-3.7779-5.1738-4.3194-8.2219c-0.12286-0.69158-0.29187-1.6775 0.2775-2.0889 0.71972-0.51994 2.121-0.23997 2.617 0.4965 3.2734 4.861 9.811 15.926 10.438 15.454" stroke-dashoffset="1.5" stroke="#000" stroke-linecap="round" stroke-width="1.25" fill="#e6d3a3"/>
      <path id="path4958" stroke-linejoin="round" d="m-402.62 210.81c-21.137 13.99-30.68 8.0732-45.019-5.4013-3.2814 4.0558-5.0252 7.4967-13.745 13.727 0 0 25.281 23.21 38.268 26.684 11.75 3.1437 40.164-11.122 40.164-11.122" stroke-dashoffset="1.5" stroke="#000" stroke-linecap="round" stroke-width="1.25" fill="#8b97ad"/>
    </g>
  </g>
  <metadata>
    <rdf:RDF>
      <cc:Work>
        <dc:format>image/svg+xml</dc:format>
        <dc:type rdf:resource="http://purl.org/dc/dcmitype/StillImage"/>
        <cc:license rdf:resource="http://creativecommons.org/licenses/publicdomain/"/>
        <dc:publisher>
          <cc:Agent rdf:about="http://openclipart.org/">
            <dc:title>Openclipart</dc:title>
          </cc:Agent>
        </dc:publisher>
        <dc:title>Horner 2</dc:title>
        <dc:date>2011-03-19T20:02:23</dc:date>
        <dc:description>band, bandsman, cartoon, clip art, clipart, horner, man, music, orchestra, trumpet, </dc:description>
        <dc:source>http://openclipart.org/detail/128341/horner-2-by-rones</dc:source>
        <dc:creator>
          <cc:Agent>
            <dc:title>rones</dc:title>
          </cc:Agent>
        </dc:creator>
        <dc:subject>
          <rdf:Bag>
            <rdf:li>band</rdf:li>
            <rdf:li>bandsman</rdf:li>
            <rdf:li>cartoon</rdf:li>
            <rdf:li>clip art</rdf:li>
            <rdf:li>clipart</rdf:li>
            <rdf:li>horner</rdf:li>
            <rdf:li>man</rdf:li>
            <rdf:li>music</rdf:li>
            <rdf:li>orchestra</rdf:li>
            <rdf:li>trumpet</rdf:li>
          </rdf:Bag>
        </dc:subject>
      </cc:Work>
      <cc:License rdf:about="http://creativecommons.org/licenses/publicdomain/">
        <cc:permits rdf:resource="http://creativecommons.org/ns#Reproduction"/>
        <cc:permits rdf:resource="http://creativecommons.org/ns#Distribution"/>
        <cc:permits rdf:resource="http://creativecommons.org/ns#DerivativeWorks"/>
      </cc:License>
    </rdf:RDF>
  </metadata>
</svg>
