<?xml version="1.0" encoding="UTF-8"?>
<!DOCTYPE svg PUBLIC "-//W3C//DTD SVG 1.1//EN" "http://www.w3.org/Graphics/SVG/1.1/DTD/svg11.dtd">
<svg version="1.1" xmlns="http://www.w3.org/2000/svg" xmlns:xlink="http://www.w3.org/1999/xlink" x="0" y="0" width="1600" height="1200" viewBox="0, 0, 1600, 1200">
  <g id="Layer_1">
    <path d="M0.06,0 L1600,0 L1600,1199.94 L0.06,1199.94 z" fill="#6DA5CD"/>
    <path d="M768.622,710.539 C700.218,704.628 633.458,722.204 566.996,734.991 C531.594,741.801 492.408,745.594 456.963,737.865 C422.253,730.295 390.761,711.494 355.197,707.239 C334.82,704.801 321.165,716.786 303.119,722.815 C290.4,727.064 277.15,728.109 264.393,733.47 C241.691,743.009 212.718,763.776 235.098,789.471 C254.486,811.728 298.036,826.104 325.619,831.416 C361.016,838.242 392.276,858.468 427.727,866.3 C440.631,869.152 451.285,875.659 463.596,878.938 C496.002,887.568 523.243,874.808 554.96,874.743 C593.694,874.664 631.959,886.5 670.763,880.465 C705.829,875.012 740.804,863.284 776.053,866.593 C818.562,870.584 860.853,881.065 903.58,872.873 C929.206,867.958 952.135,870.226 977.674,873.016 C1009.57,876.499 1030.34,870.936 1057.18,857.359 C1087.09,842.233 1127.18,850.243 1160.24,852.578 C1203.39,855.624 1251.31,840.594 1291.66,827.203 C1334.23,813.076 1378.92,813.321 1423.44,808.969 C1438.82,807.465 1447.88,798.928 1461.6,795.435 C1477.46,791.4 1503.98,796.89 1503.13,772.711 C1502.54,755.858 1477.1,740.85 1467.43,729.02 C1455.43,714.326 1453.77,699.901 1436.43,691.291 C1418.07,682.173 1392.77,684.379 1373.03,685.428 C1304.04,689.093 1231.87,708.091 1162.82,702.673 C1117.17,699.092 1072.51,689.412 1026.37,690.976 C996.26,691.997 968.08,701.033 938.758,706.976 C884.636,717.947 823.647,715.292 768.622,710.539" fill="#659AC4"/>
    <path d="M1023.1,882.762 C1049.77,894.894 1071.06,882.7 1088.04,910.976 C1098.91,929.077 1104.88,948.471 1117.55,966.922 C1128.4,982.714 1131.92,999.301 1140.55,1013.49 C1144.6,1020.14 1157.04,1027.68 1155.39,1036.99 C1154.61,1041.37 1144.27,1045.62 1142.45,1049.47 C1140.6,1053.39 1141.28,1059.16 1139.6,1062.98 C1131.15,1082.3 1099.28,1125.41 1072.14,1106.34 C1061.38,1098.77 1047.57,1070.17 1040.1,1057.47 C1031.61,1043.04 1035.09,1035.37 1031.7,1020.53 C1026.79,999.022 1005.89,988.218 994.839,970.548 C979.261,945.633 996.511,937.069 993.582,912.985 C990.476,887.439 934.555,846.668 954.332,816.845 C979.787,778.463 1008.96,876.326 1023.1,882.762" fill="#659AC4"/>
    <path d="M187.114,598.489 C187.114,598.489 221.25,666.373 240.086,692.205 C266.573,728.52 307.208,765.058 366.634,779.926 C437.066,797.548 612.198,819.379 823.525,819.655 C1048.1,819.943 1245.11,795.377 1309.12,786.545 C1368.88,778.305 1432.72,775.511 1440.81,740.232 C1445.71,718.898 1464.36,657.061 1454.06,625.433 C1427.57,628.952 187.114,598.489 187.114,598.489" fill="#DBDCDB"/>
    <path d="M187.114,598.489 C187.114,598.489 221.25,666.373 240.086,692.205 C266.573,728.52 307.208,765.058 366.634,779.926 C437.066,797.548 612.198,819.379 823.525,819.655 C1048.1,819.943 1245.11,795.377 1309.12,786.545 C1368.88,778.305 1432.72,775.511 1440.81,740.232 C1445.71,718.898 1464.36,657.061 1454.06,625.433 C1427.57,628.952 187.114,598.489 187.114,598.489 z" fill-opacity="0" stroke="#1A1919" stroke-width="2.275" stroke-linecap="round" stroke-linejoin="round"/>
    <path d="M183.069,533.864 C183.069,533.864 177.92,538.547 158.055,542.06 C152.225,553.53 153.367,571.197 154.84,583.497 C155.969,592.915 176.669,608 188.296,616.656 C255.983,667.028 441.571,692.904 518.564,699.031 C621.568,707.233 1088.58,699.077 1176.87,694.396 C1212.54,692.5 1361.23,681.776 1375.52,680.601 C1422.42,676.739 1457.73,665.152 1470.98,658.53 C1485.25,651.392 1482.01,636.655 1478.7,613.811 C1446.7,617.323 183.069,533.864 183.069,533.864" fill="#B9D577"/>
    <path d="M183.069,533.864 C183.069,533.864 177.92,538.547 158.055,542.06 C152.225,553.53 153.367,571.197 154.84,583.497 C155.969,592.915 176.669,608 188.296,616.656 C255.983,667.028 441.571,692.904 518.564,699.031 C621.568,707.233 1088.58,699.077 1176.87,694.396 C1212.54,692.5 1361.23,681.776 1375.52,680.601 C1422.42,676.739 1457.73,665.152 1470.98,658.53 C1485.25,651.392 1482.01,636.655 1478.7,613.811 C1446.7,617.323 183.069,533.864 183.069,533.864 z" fill-opacity="0" stroke="#1A1919" stroke-width="2.275" stroke-linecap="round" stroke-linejoin="round"/>
    <path d="M183.069,533.864 C183.069,533.864 174.125,538.088 154.259,541.602 C151.641,552.949 153.112,557.155 153.677,569.529 C154.008,576.727 172.951,593.119 184.542,601.799 C259.586,658.026 449.027,681.601 525.922,688.484 C643.64,699.031 1113.04,686.138 1180.73,682.631 C1196.77,681.794 1348.9,673.47 1377.03,670.207 C1409.86,666.394 1452.07,658.407 1463.33,652.799 C1480.99,644.012 1483.68,639.71 1480.37,616.869 C1448.37,620.38 183.069,533.864 183.069,533.864" fill="#E4E4E3"/>
    <path d="M183.069,533.864 C183.069,533.864 174.125,538.088 154.259,541.602 C151.641,552.949 153.112,557.155 153.677,569.529 C154.008,576.727 172.951,593.119 184.542,601.799 C259.586,658.026 449.027,681.601 525.922,688.484 C643.64,699.031 1113.04,686.138 1180.73,682.631 C1196.77,681.794 1348.9,673.47 1377.03,670.207 C1409.86,666.394 1452.07,658.407 1463.33,652.799 C1480.99,644.012 1483.68,639.71 1480.37,616.869 C1448.37,620.38 183.069,533.864 183.069,533.864 z" fill-opacity="0" stroke="#1A1919" stroke-width="2.275" stroke-linecap="round" stroke-linejoin="round"/>
    <path d="M1409.18,651.587 C1371.65,651.587 589.194,684.972 569.33,676.186 C549.464,667.404 361.852,656.854 339.78,648.074 C317.708,639.288 346.402,544.405 346.402,544.405 C346.402,544.405 481.042,537.374 529.6,537.374 C578.159,537.374 1271.22,528.587 1306.54,533.864 C1341.86,539.134 1330.82,553.189 1352.89,572.521 C1374.96,591.844 1409.18,651.587 1409.18,651.587" fill="#C8DC85"/>
    <path d="M1409.18,651.587 C1371.65,651.587 589.194,684.972 569.33,676.186 C549.464,667.404 361.852,656.854 339.78,648.074 C317.708,639.288 346.402,544.405 346.402,544.405 C346.402,544.405 481.042,537.374 529.6,537.374 C578.159,537.374 1271.22,528.587 1306.54,533.864 C1341.86,539.134 1330.82,553.189 1352.89,572.521 C1374.96,591.844 1409.18,651.587 1409.18,651.587 z" fill-opacity="0" stroke="#1A1919" stroke-width="2.275" stroke-linecap="round" stroke-linejoin="round"/>
    <path d="M256.64,610.004 C221.326,591.263 168.352,572.521 180.126,558.46 C184.774,552.909 171.333,529.235 218.383,516.292 C290.441,496.463 433.689,486.761 447.934,488.175 C471.476,490.519 1324.93,495.208 1324.93,495.208 L1327.88,560.804 C1327.88,560.804 425.127,566.076 392.753,563.735 C360.379,561.389 306.672,598.292 256.64,610.004" fill="#D2E192"/>
    <path d="M256.64,610.004 C221.326,591.263 168.352,572.521 180.126,558.46 C184.774,552.909 171.333,529.235 218.383,516.292 C290.441,496.463 433.689,486.761 447.934,488.175 C471.476,490.519 1324.93,495.208 1324.93,495.208 L1327.88,560.804 C1327.88,560.804 425.127,566.076 392.753,563.735 C360.379,561.389 306.672,598.292 256.64,610.004 z" fill-opacity="0" stroke="#1A1919" stroke-width="2.275" stroke-linecap="round" stroke-linejoin="round"/>
    <path d="M197.416,573.552 C141.501,563.62 168.352,554.923 180.126,543.796 C184.774,539.405 171.333,520.668 218.383,510.424 C290.441,494.732 433.689,487.057 447.934,488.175 C471.476,490.032 1324.93,493.743 1324.93,493.743 L1328.61,526.098 C1152.04,520.579 506.054,518.737 419.974,522.046 C387.573,523.293 219.488,521.682 197.416,573.552" fill="#B9D578"/>
    <path d="M256.64,610.004 C221.326,591.263 168.352,572.521 180.126,558.46 C184.774,552.909 171.333,529.235 218.383,516.292 C290.441,496.463 433.689,486.761 447.934,488.175 C471.476,490.519 1324.93,495.208 1324.93,495.208 L1327.88,560.804 C1327.88,560.804 425.127,566.076 392.753,563.735 C360.379,561.389 306.672,598.292 256.64,610.004 z" fill-opacity="0" stroke="#1A1919" stroke-width="2.275" stroke-linecap="round" stroke-linejoin="round"/>
    <path d="M1316.27,557.769 L1383.11,652.088 C1383.11,652.088 1456.72,648.06 1462.73,634.062 C1468.75,620.056 1480.52,620.164 1465.93,605.977 C1451.34,591.787 1378.45,516.16 1360.85,508.972 C1343.26,501.786 1313.85,499.175 1313.85,499.175 L1316.27,557.769" fill="#D2E192"/>
    <path d="M1316.27,557.769 L1383.11,652.088 C1383.11,652.088 1456.72,648.06 1462.73,634.062 C1468.75,620.056 1480.52,620.164 1465.93,605.977 C1451.34,591.787 1378.45,516.16 1360.85,508.972 C1343.26,501.786 1313.85,499.175 1313.85,499.175 L1316.27,557.769 z" fill-opacity="0" stroke="#1A1919" stroke-width="2.275" stroke-linecap="round" stroke-linejoin="round"/>
    <path d="M1307.64,522.786 C1344.06,523.888 1424.63,608.868 1423.52,630.94 C1415.8,640.873 1457.96,648.07 1463.49,634.068 C1469.02,620.056 1479.82,620.157 1466.45,605.983 C1453.07,591.798 1386.25,516.229 1370.11,509.056 C1353.98,501.883 1319.78,496.299 1306.54,498.508 C1293.3,500.714 1318.68,519.476 1307.64,522.786" fill="#B9D578"/>
    <path d="M1316.11,558.46 L1383.79,652.174 C1383.79,652.174 1457.37,647.483 1463.25,633.43 C1469.14,619.372 1480.92,619.372 1466.2,605.318 C1451.48,591.259 1377.91,516.292 1360.25,509.262 C1342.59,502.235 1313.16,499.888 1313.16,499.888 L1316.11,558.46 z" fill-opacity="0" stroke="#1A1919" stroke-width="2.275" stroke-linecap="round" stroke-linejoin="round"/>
    <path d="M1273.8,547.307 L1241.43,536.03 C1241.43,536.03 1241.43,549.272 1241.43,561.414 C1249.15,575.759 1276.74,624.318 1283.37,656.323 C1305.44,661.839 1309.12,661.473 1309.12,661.473 L1273.8,547.307" fill="#C6DB86"/>
    <path d="M1273.8,547.307 L1241.43,536.03 C1241.43,536.03 1241.43,549.272 1241.43,561.414 C1249.15,575.759 1276.74,624.318 1283.37,656.323 C1305.44,661.839 1309.12,661.473 1309.12,661.473 L1273.8,547.307 z" fill-opacity="0" stroke="#1A1919" stroke-width="2.275" stroke-linecap="round" stroke-linejoin="round"/>
    <path d="M403.79,563.735 C405.996,553.189 403.79,539.134 403.79,539.134 L326.352,550.707 L333.159,630.502 C333.159,630.502 347.876,649.876 368.474,653.011 C358.171,626.525 372.888,572.082 403.79,563.735" fill="#C6DB86"/>
    <path d="M403.79,563.735 C405.996,553.189 403.79,539.134 403.79,539.134 L326.352,550.707 L333.159,630.502 C333.159,630.502 347.876,649.876 368.474,653.011 C358.171,626.525 372.888,572.082 403.79,563.735 z" fill-opacity="0" stroke="#1A1919" stroke-width="2.275" stroke-linecap="round" stroke-linejoin="round"/>
    <path d="M770.091,564.6 L764.301,525.665 L711.325,570.173 L743.699,668.573 L760.253,676.186 L770.091,564.6" fill="#85C3E0"/>
    <path d="M770.091,564.6 L764.301,525.665 L711.325,570.173 L743.699,668.573 L760.253,676.186 L770.091,564.6 z" fill-opacity="0" stroke="#1A1919" stroke-width="2.275" stroke-linecap="round" stroke-linejoin="round"/>
    <path d="M213.969,583.061 C249.285,550.263 358.171,542.651 403.79,539.134 C353.024,558.46 333.893,622.195 349.342,639.768 C355.964,653.824 219.854,599.458 213.969,583.061" fill="#D2E192"/>
    <path d="M213.969,583.061 C249.285,550.263 358.171,542.651 403.79,539.134 C353.024,558.46 333.893,622.195 349.342,639.768 C355.964,653.824 219.854,599.458 213.969,583.061 z" fill-opacity="0" stroke="#1A1919" stroke-width="2.275" stroke-linecap="round" stroke-linejoin="round"/>
    <path d="M1308.75,654.114 C1296.61,623.214 1265.71,561.414 1241.43,537.133 C1264.6,536.03 1298.03,533.319 1315.37,533.823 C1341.54,546.46 1422.79,646.389 1394.83,644.183 C1366.87,641.976 1323.09,650.804 1308.75,654.114" fill="#D2E192"/>
    <path d="M1308.75,654.114 C1296.61,623.214 1265.71,561.414 1241.43,537.133 C1264.6,536.03 1298.03,533.319 1315.37,533.823 C1341.54,546.46 1422.79,646.389 1394.83,644.183 C1366.87,641.976 1323.09,650.804 1308.75,654.114 z" fill-opacity="0" stroke="#1A1919" stroke-width="2.275" stroke-linecap="round" stroke-linejoin="round"/>
    <path d="M653.203,670.918 L683.37,523.318 L765.771,523.318 L748.113,672.672 L653.203,670.918" fill="#D2E192"/>
    <path d="M653.203,670.918 L683.37,523.318 L765.771,523.318 L748.113,672.672 L653.203,670.918 z" fill-opacity="0" stroke="#1A1919" stroke-width="2.275" stroke-linecap="round" stroke-linejoin="round"/>
    <path d="M1461.11,602.051 C1441.72,569.537 1416.17,531.817 1388.21,511.022 C1362.6,491.974 1328.57,484.276 1235.18,483.49 C1207.92,483.264 605.152,483.293 542.109,482.323 C479.065,481.347 275.168,480.849 191.897,512.776 C135.727,534.305 145.051,559.446 189.69,591.844 C264.736,646.321 381.579,659.324 476.626,672.672 C571.67,686.018 755.194,682.467 827.573,681.458 C911.447,680.292 1341.98,659.446 1415.92,645.389 C1479.92,633.222 1476.36,627.628 1461.11,602.051 z M1387.1,641.976 C1312.06,655.153 871.854,662.973 818.743,661.254 C746.406,658.916 596.447,672.704 500.907,661.839 C392.753,649.54 302.257,632.526 225.005,595.624 C173.205,570.888 185.247,542.809 248.181,529.408 C344.929,508.804 478.696,507.468 541.74,508.439 C604.788,509.413 1217.53,510.517 1244.74,511.75 C1271.94,512.982 1319.8,504.798 1349.58,526.098 C1385.63,551.862 1397.04,564.724 1416.9,592.314 C1430,610.508 1447.94,631.287 1387.1,641.976" fill="#D7D8D6"/>
    <path d="M1461.11,602.051 C1441.72,569.537 1416.17,531.817 1388.21,511.022 C1362.6,491.974 1328.57,484.276 1235.18,483.49 C1207.92,483.264 605.152,483.293 542.109,482.323 C479.065,481.347 275.168,480.849 191.897,512.776 C135.727,534.305 145.051,559.446 189.69,591.844 C264.736,646.321 381.579,659.324 476.626,672.672 C571.67,686.018 755.194,682.467 827.573,681.458 C911.447,680.292 1341.98,659.446 1415.92,645.389 C1479.92,633.222 1476.36,627.628 1461.11,602.051 z M1387.1,641.976 C1312.06,655.153 871.854,662.973 818.743,661.254 C746.406,658.916 596.447,672.704 500.907,661.839 C392.753,649.54 302.257,632.526 225.005,595.624 C173.205,570.888 185.247,542.809 248.181,529.408 C344.929,508.804 478.696,507.468 541.74,508.439 C604.788,509.413 1217.53,510.517 1244.74,511.75 C1271.94,512.982 1319.8,504.798 1349.58,526.098 C1385.63,551.862 1397.04,564.724 1416.9,592.314 C1430,610.508 1447.94,631.287 1387.1,641.976 z" fill-opacity="0" stroke="#1A1919" stroke-width="2.275" stroke-linecap="round" stroke-linejoin="round"/>
    <path d="M1474.29,598.874 C1454.89,566.359 1416.17,531.817 1388.21,511.022 C1362.6,491.974 1328.57,484.276 1235.18,483.49 C1207.92,483.264 605.152,483.293 542.109,482.323 C479.065,481.347 275.168,480.849 191.897,512.776 C135.727,534.305 145.051,559.446 189.69,591.844 C264.736,646.321 381.579,659.324 476.626,672.672 C571.67,686.018 755.194,682.467 827.573,681.458 C911.447,680.292 1345.11,669.051 1418.51,652.427 C1477.41,639.091 1489.53,624.451 1474.29,598.874 z M1381.59,635.775 C1306.54,648.954 871.854,662.973 818.743,661.254 C746.406,658.916 597.55,664.21 502.01,653.346 C393.857,641.046 313.294,625.229 236.042,588.327 C184.241,563.591 173.413,535.738 236.042,520.973 C337.574,497.037 478.696,496.431 541.74,497.404 C604.788,498.376 1225.62,501.002 1252.83,502.235 C1280.04,503.467 1324.58,497.341 1354.36,518.638 C1390.41,544.405 1414.69,573.552 1430.88,598.288 C1443.16,617.048 1442.42,625.088 1381.59,635.775" fill="#FFFFFE"/>
    <path d="M1474.29,598.874 C1454.89,566.359 1416.17,531.817 1388.21,511.022 C1362.6,491.974 1328.57,484.276 1235.18,483.49 C1207.92,483.264 605.152,483.293 542.109,482.323 C479.065,481.347 275.168,480.849 191.897,512.776 C135.727,534.305 145.051,559.446 189.69,591.844 C264.736,646.321 381.579,659.324 476.626,672.672 C571.67,686.018 755.194,682.467 827.573,681.458 C911.447,680.292 1345.11,669.051 1418.51,652.427 C1477.41,639.091 1489.53,624.451 1474.29,598.874 z M1381.59,635.775 C1306.54,648.954 871.854,662.973 818.743,661.254 C746.406,658.916 597.55,664.21 502.01,653.346 C393.857,641.046 313.294,625.229 236.042,588.327 C184.241,563.591 173.413,535.738 236.042,520.973 C337.574,497.037 478.696,496.431 541.74,497.404 C604.788,498.376 1225.62,501.002 1252.83,502.235 C1280.04,503.467 1324.58,497.341 1354.36,518.638 C1390.41,544.405 1414.69,573.552 1430.88,598.288 C1443.16,617.048 1442.42,625.088 1381.59,635.775 z" fill-opacity="0" stroke="#1A1919" stroke-width="2.275" stroke-linecap="round" stroke-linejoin="round"/>
    <path d="M1361.18,766.103 C1374.18,765.228 1386.68,763.766 1400.67,759.228 C1411.99,755.555 1465.26,746.946 1462.43,769.812 C1459.61,792.616 1398.66,786.63 1385.24,787.421 C1336.35,790.3 1288.71,792.135 1241.95,803.582 C1204.53,812.742 1175.18,820.873 1136.04,820.976 C1089.05,821.101 1050.12,817.64 1004.24,827.286 C981.109,832.149 958.061,826.677 934.691,826.844 C906.836,827.042 879.287,832.287 851.451,832.976 C794.409,834.389 737.553,839.392 680.657,843.391 C629.185,847.008 572.079,856.069 521.282,844.938 C489.273,837.923 457.682,829.479 425.875,821.627 C385.578,811.681 326.884,817.28 291.073,793.532 C277.834,784.752 261.599,749.855 290.685,758.851 C301.441,762.178 309.638,776.494 318.092,779.093 C329.979,782.745 339.953,774.553 350.624,772.575 C373.815,768.281 399.384,774.661 421.832,782.7 C444.682,790.888 448.116,791.287 474.419,787.651 C494.654,784.854 548.184,777.927 578.892,782.498 C622.707,789.016 635.256,800.931 679.69,803.102 C716.005,804.872 730.627,801.878 752.843,799.226 C786.343,795.226 851.107,795.791 884.96,796.48 C917.741,797.147 944.372,793.212 973.83,791.538 C992.39,790.482 1004.87,791.383 1023.28,795.008 C1038.7,798.046 1063.56,801.264 1081.53,800.894 C1118.05,800.138 1139.03,784.714 1175.71,784.231 C1188,784.067 1199.5,786.103 1212.3,787.773 C1234.82,790.71 1259.44,792.228 1280.79,784.705 C1299.17,778.222 1317.58,776.615 1334.35,767.794 C1342.83,763.339 1352.64,766.682 1361.18,766.103" fill="#659AC4"/>
    <path d="M1208.68,787.065 C1242.22,791 1276.44,797.723 1307.78,799.252 C1312.11,799.465 1325.03,798.224 1329.35,798.687 C1322.12,805.712 1280.36,809.415 1269.02,808.984 C1256.45,808.506 1206.41,800.453 1193.97,798.687 C1156.56,793.366 1136.59,808.984 1102.75,810.214 C1090.23,810.666 1040.94,811.929 1004.15,813.397 C1015.05,803.414 1042.09,802.148 1064.28,800.7 C1078.05,799.8 1090.28,798.738 1094.43,798.237 C1121.32,794.986 1148.47,783.606 1176.32,783.236 C1187.41,783.087 1197.59,785.764 1208.68,787.065" fill="#FFFFFE"/>
    <path d="M655.411,817.812 C638.581,814.072 626.199,804.971 610.208,798.974 C593.136,792.572 571.123,790.606 550.827,792.802 C531.108,794.934 512.977,806.195 493.164,809.047 C461.233,813.644 430.655,804.895 402.316,791.326 C379.273,780.29 347.432,791.362 323.546,787.754 C325.869,775.303 353.624,771.482 378.097,772.43 C392.873,773.003 406.78,775.991 412.242,777.949 C435.091,786.135 448.116,791.287 474.419,787.651 C494.654,784.854 548.184,777.927 578.892,782.498 C602.703,786.042 624.093,790.976 647.593,796.976 C659.45,800.003 693.668,813.397 734.871,814.873 C721.626,824.854 671.069,821.295 655.411,817.812" fill="#FFFFFE"/>
    <path d="M328.744,781.029 C356.979,767.237 394.376,770.656 424.388,782.498 C454.921,794.544 477.188,786.054 511.287,783.228 C528.038,781.836 544.206,781.114 561.195,781.029 C595.01,780.857 619.268,790.814 650.661,798.238 C677.257,804.527 708.28,804.96 735.37,800.894 C789.316,792.802 837.975,798.643 887.903,796.48 C926.036,794.827 963.631,789.878 1002.41,792.073 C1037.09,794.033 1042.64,802.565 1079.93,800.155 C1102.74,798.682 1128.95,791.258 1146.88,786.913 C1174.05,780.33 1194.01,786.479 1221.2,789.12 C1274.17,794.273 1302.01,776.582 1341.86,767.047 C1354.25,764.081 1438.97,759.694 1450.01,747.921" fill-opacity="0" stroke="#1A1919" stroke-width="2.275" stroke-linecap="round" stroke-linejoin="round"/>
    <path d="M1010.75,615.262 C1001.14,605.525 987.296,589.76 991.107,579.539 C994.951,569.311 996.377,564.01 1004.59,548.647 C1018.47,522.708 1026.45,497.576 1035.34,515.176 C1047.6,539.491 1032.83,604.621 1025.31,614.96 C1020.48,616.025 1015.14,616.139 1010.75,615.262" fill="#BDBEBD"/>
    <path d="M1010.75,615.262 C1001.14,605.525 987.296,589.76 991.107,579.539 C994.951,569.311 996.377,564.01 1004.59,548.647 C1018.47,522.708 1026.45,497.576 1035.34,515.176 C1047.6,539.491 1032.83,604.621 1025.31,614.96 C1020.48,616.025 1015.14,616.139 1010.75,615.262 z" fill-opacity="0" stroke="#1A1919" stroke-width="2.275" stroke-linecap="round" stroke-linejoin="round"/>
    <path d="M989.402,616.686 C979.413,603.305 987.296,589.76 991.107,579.539 C994.951,569.311 992.842,561.358 1001.06,545.996 C1014.94,520.061 1021.03,504.313 1026.13,515.857 C1037.15,540.767 1025.09,605.753 1017.56,616.089 C1013.1,614.526 999.399,630.072 989.402,616.686" fill="#828382"/>
    <path d="M989.402,616.686 C979.413,603.305 987.296,589.76 991.107,579.539 C994.951,569.311 992.842,561.358 1001.06,545.996 C1014.94,520.061 1021.03,504.313 1026.13,515.857 C1037.15,540.767 1025.09,605.753 1017.56,616.089 C1013.1,614.526 999.399,630.072 989.402,616.686 z" fill-opacity="0" stroke="#1A1919" stroke-width="2.275" stroke-linecap="round" stroke-linejoin="round"/>
    <path d="M882.028,546.107 C898.785,555.047 917.466,559.166 927.593,562.31 C943.847,567.337 952.582,568.416 981.328,571.727 C990.462,563.654 993.113,560.117 999.619,548.478 C1005.46,553.725 1012.86,573.007 1009.16,586.165 C1005.69,598.524 1004.38,607.542 988.256,608.456 C979.042,603.223 977.376,602.172 960.862,598.839 C937.066,594.04 918.288,599.39 894.696,593.431 C875.894,588.7 848.275,573.151 828.094,576.048 C807.173,579.038 742.561,579.918 735.673,551.288 C784.004,550.126 774.092,540.628 807.065,537.99 C824.654,536.576 837.051,531.038 848.708,532.244 C864.285,533.856 868.676,538.975 882.028,546.107" fill="#F8D2B8"/>
    <path d="M882.028,546.107 C898.785,555.047 917.466,559.166 927.593,562.31 C943.847,567.337 952.582,568.416 981.328,571.727 C990.462,563.654 993.113,560.117 999.619,548.478 C1005.46,553.725 1012.86,573.007 1009.16,586.165 C1005.69,598.524 1004.38,607.542 988.256,608.456 C979.042,603.223 977.376,602.172 960.862,598.839 C937.066,594.04 918.288,599.39 894.696,593.431 C875.894,588.7 848.275,573.151 828.094,576.048 C807.173,579.038 742.561,579.918 735.673,551.288 C784.004,550.126 774.092,540.628 807.065,537.99 C824.654,536.576 837.051,531.038 848.708,532.244 C864.285,533.856 868.676,538.975 882.028,546.107 z" fill-opacity="0" stroke="#1A1919" stroke-width="2.275" stroke-linecap="round" stroke-linejoin="round"/>
    <path d="M832.853,543.292 C839.023,551.71 871.18,564.068 877.179,555.068" fill="#F8D2B8"/>
    <path d="M832.853,543.292 C839.023,551.71 871.18,564.068 877.179,555.068" fill-opacity="0" stroke="#1A1919" stroke-width="2.275" stroke-linecap="round" stroke-linejoin="round"/>
    <path d="M718.851,515.65 C694.886,495.474 699.038,513.715 673.982,536.49 C633.541,573.219 632.666,597.092 681.828,609.121 C705.469,614.91 719.126,598.382 740.198,594.721 C770.086,589.54 773.06,630.912 799.763,632.078 C794.804,611.572 809.091,580.843 815.486,560.343 C818.635,550.211 814.995,550.906 821.405,536.49 C803.372,539.168 754.918,547.642 742.888,541.297 C724.098,531.389 728.894,524.108 718.851,515.65" fill="#D2AB77"/>
    <path d="M718.851,515.65 C694.886,495.474 699.038,513.715 673.982,536.49 C633.541,573.219 632.666,597.092 681.828,609.121 C705.469,614.91 719.126,598.382 740.198,594.721 C770.086,589.54 773.06,630.912 799.763,632.078 C794.804,611.572 809.091,580.843 815.486,560.343 C818.635,550.211 814.995,550.906 821.405,536.49 C803.372,539.168 754.918,547.642 742.888,541.297 C724.098,531.389 728.894,524.108 718.851,515.65 z" fill-opacity="0" stroke="#1A1919" stroke-width="2.275" stroke-linecap="round" stroke-linejoin="round"/>
    <path d="M1013.59,656.232 C1003.89,646.595 1000.2,639.794 1003.92,629.533 C1007.66,619.285 1002.73,607.901 1010.8,592.446 C1024.43,566.385 1038.49,547.252 1047.54,564.77 C1060.03,588.968 1049.84,645.54 1042.41,655.956 C1033.58,655.217 1028.43,656.688 1013.59,656.232" fill="#BDBEBD"/>
    <path d="M1013.59,656.232 C1003.89,646.595 1000.2,639.794 1003.92,629.533 C1007.66,619.285 1002.73,607.901 1010.8,592.446 C1024.43,566.385 1038.49,547.252 1047.54,564.77 C1060.03,588.968 1049.84,645.54 1042.41,655.956 C1033.58,655.217 1028.43,656.688 1013.59,656.232 z" fill-opacity="0" stroke="#1A1919" stroke-width="2.275" stroke-linecap="round" stroke-linejoin="round"/>
    <path d="M1000.47,655.956 C990.772,646.299 1000.2,639.794 1003.92,629.533 C1007.66,619.285 1002.73,607.901 1010.8,592.446 C1024.43,566.385 1033.12,554.035 1038.33,565.531 C1049.59,590.343 1040.27,645.558 1032.85,655.956 C1017.4,655.956 1017.4,657.427 1000.47,655.956" fill="#828382"/>
    <path d="M1000.47,655.956 C990.772,646.299 1000.2,639.794 1003.92,629.533 C1007.66,619.285 1002.73,607.901 1010.8,592.446 C1024.43,566.385 1033.12,554.035 1038.33,565.531 C1049.59,590.343 1040.27,645.558 1032.85,655.956 C1017.4,655.956 1017.4,657.427 1000.47,655.956 z" fill-opacity="0" stroke="#1A1919" stroke-width="2.275" stroke-linecap="round" stroke-linejoin="round"/>
    <path d="M893.729,591.217 C910.567,600.003 923.918,603.292 933.951,606.71 C956.26,614.309 973.765,620.303 994.057,621.819 C1006.44,607.025 1005.77,598.89 1010.07,594.57 C1015.97,599.766 1024.27,618.359 1022.02,635.99 C1020.4,648.731 1009.95,659.127 1000.47,657.427 C991.211,652.277 990.398,652.299 973.844,649.121 C950.007,644.551 929.436,653.23 905.791,647.494 C894.594,644.79 877.846,631.54 865.002,626.126 C856.232,622.429 827.529,629.74 819.353,630.986 C798.46,634.188 740.254,632.024 748.226,603.675 C750.544,595.437 753.52,567.354 796.26,575.643 C806.488,577.622 807.593,571.643 826.858,573.225 C840.112,571.379 851.677,570.053 856.248,571.517 C872.975,576.893 880.315,584.214 893.729,591.217" fill="#F8D2B8"/>
    <path d="M893.729,591.217 C910.567,600.003 923.918,603.292 933.951,606.71 C956.26,614.309 973.765,620.303 994.057,621.819 C1006.44,607.025 1005.77,598.89 1010.07,594.57 C1015.97,599.766 1024.27,618.359 1022.02,635.99 C1020.4,648.731 1009.95,659.127 1000.47,657.427 C991.211,652.277 990.398,652.299 973.844,649.121 C950.007,644.551 929.436,653.23 905.791,647.494 C894.594,644.79 877.846,631.54 865.002,626.126 C856.232,622.429 827.529,629.74 819.353,630.986 C798.46,634.188 740.254,632.024 748.226,603.675 C750.544,595.437 753.52,567.354 796.26,575.643 C806.488,577.622 807.593,571.643 826.858,573.225 C840.112,571.379 851.677,570.053 856.248,571.517 C872.975,576.893 880.315,584.214 893.729,591.217 z" fill-opacity="0" stroke="#1A1919" stroke-width="2.275" stroke-linecap="round" stroke-linejoin="round"/>
    <path d="M839.681,586.567 C845.928,594.94 866.435,602.003 874.846,598.605" fill="#F8D2B8"/>
    <path d="M839.681,586.567 C845.928,594.94 866.435,602.003 874.846,598.605" fill-opacity="0" stroke="#1A1919" stroke-width="2.275" stroke-linecap="round" stroke-linejoin="round"/>
    <path d="M737.175,530.619 C713.222,510.443 682.68,506.458 657.619,529.22 C643.242,542.279 640.844,584.773 630.028,602.247 C618.974,620.101 619.624,625.435 629.528,639.68 C631.593,653.643 630.927,654.976 643.593,660.976 C674.494,661.714 711.29,661.839 732.663,661.839 C762.83,661.839 781.232,659.82 807.927,660.991 C812.559,644.435 802.689,624.639 809.078,604.138 C812.235,594.01 814.546,584.653 817.421,570.714 C804.931,570.226 767.094,574.25 737.961,576.897 C723.877,569.472 749.368,540.887 737.175,530.619" fill="#D2AB77"/>
    <path d="M737.175,530.619 C713.222,510.443 682.68,506.458 657.619,529.22 C643.242,542.279 640.844,584.773 630.028,602.247 C618.974,620.101 619.624,625.435 629.528,639.68 C631.593,653.643 630.927,654.976 643.593,660.976 C674.494,661.714 711.29,661.839 732.663,661.839 C762.83,661.839 781.232,659.82 807.927,660.991 C812.559,644.435 802.689,624.639 809.078,604.138 C812.235,594.01 814.546,584.653 817.421,570.714 C804.931,570.226 767.094,574.25 737.961,576.897 C723.877,569.472 749.368,540.887 737.175,530.619 z M707.946,660.33 C722.066,653.269 758.864,623.566 769.741,636.931 M707.946,609.564 C708.822,621.042 710.082,626.309 706.176,634.284 C702.269,642.253 700.289,643.714 691.169,647.529" fill-opacity="0" stroke="#1A1919" stroke-width="2.275" stroke-linecap="round" stroke-linejoin="round"/>
    <path d="M728.249,470.545 C718.528,461.906 719.092,446.486 732.663,444.431 C742.613,442.921 764.471,450.679 773.497,453.258 C787.404,457.233 799.569,459.689 803.441,463.078 C808.983,467.929 790.661,479.415 784.164,479.373 C773.047,479.305 737.968,479.195 728.249,470.545" fill="#F8D2B8"/>
    <path d="M728.249,470.545 C718.528,461.906 719.092,446.486 732.663,444.431 C742.613,442.921 764.471,450.679 773.497,453.258 C787.404,457.233 799.569,459.689 803.441,463.078 C808.983,467.929 790.661,479.415 784.164,479.373 C773.047,479.305 737.968,479.195 728.249,470.545 z" fill-opacity="0" stroke="#1A1919" stroke-width="2.275" stroke-linecap="round" stroke-linejoin="round"/>
    <path d="M745.169,573.27 C741.107,584.168 728.844,599.914 714.582,606.771 C696.446,615.496 656.113,641.189 631.13,643.113 C613.912,644.435 606.26,624.976 615.593,614.309 C623.868,604.852 632.016,591.873 633.338,574.656 C635.511,546.414 635.545,503.619 633.777,478.895 C632.016,451.53 631.889,440.363 633.777,415.332 C634.856,401.035 641.093,385.476 650.997,372.696 C656.166,366.025 681.599,345.589 690.726,345.105 C700.106,344.605 700.371,317.655 709.085,320.876 C715.367,323.207 721.626,327.221 726.386,331.982 C729.916,335.521 732.284,335.617 734.973,339.706 C736.785,342.45 714.291,350.27 718.535,355.736 C721.809,359.951 719.326,364.733 720.892,371.22 C724.093,384.476 733.033,394.923 734.593,397.976 C741.99,412.4 743.805,426.55 743.093,440.476 C742.718,447.841 741.858,469.465 741.593,477.476 C740.834,500.609 746.63,518.253 746.63,538.305 C746.63,562.518 749.799,560.85 745.169,573.27" fill="#A2B6A7"/>
    <path d="M745.169,573.27 C741.107,584.168 728.844,599.914 714.582,606.771 C696.446,615.496 656.113,641.189 631.13,643.113 C613.912,644.435 606.26,624.976 615.593,614.309 C623.868,604.852 632.016,591.873 633.338,574.656 C635.511,546.414 635.545,503.619 633.777,478.895 C632.016,451.53 631.889,440.363 633.777,415.332 C634.856,401.035 641.093,385.476 650.997,372.696 C656.166,366.025 681.599,345.589 690.726,345.105 C700.106,344.605 700.371,317.655 709.085,320.876 C715.367,323.207 721.626,327.221 726.386,331.982 C729.916,335.521 732.284,335.617 734.973,339.706 C736.785,342.45 714.291,350.27 718.535,355.736 C721.809,359.951 719.326,364.733 720.892,371.22 C724.093,384.476 733.033,394.923 734.593,397.976 C741.99,412.4 743.805,426.55 743.093,440.476 C742.718,447.841 741.858,469.465 741.593,477.476 C740.834,500.609 746.63,518.253 746.63,538.305 C746.63,562.518 749.799,560.85 745.169,573.27 z" fill-opacity="0" stroke="#1A1919" stroke-width="2.275" stroke-linecap="round" stroke-linejoin="round"/>
    <path d="M670.068,364.925 C670.343,378.726 682.496,384.064 687.593,386.976 C701.593,394.976 724.593,394.476 730.093,391.476 C725.26,384.828 722.155,375.405 723.093,370.976 C724.441,364.62 730.628,359.847 731.928,357.245 C731.189,346.21 719.919,339.954 717.173,330.313 C711.148,309.126 683.497,286.501 659.416,291.468 C655.485,292.279 666.55,311.131 667.58,312.975 C669.539,316.45 669.929,320.743 671.595,324.382 C674.896,331.553 677.948,346.143 674.542,353.053 C672.688,356.822 669.987,360.892 670.068,364.925" fill="#F8D2B8"/>
    <path d="M670.068,364.925 C670.343,378.726 682.496,384.064 687.593,386.976 C701.593,394.976 724.593,394.476 730.093,391.476 C725.26,384.828 722.155,375.405 723.093,370.976 C724.441,364.62 730.628,359.847 731.928,357.245 C731.189,346.21 719.919,339.954 717.173,330.313 C711.148,309.126 683.497,286.501 659.416,291.468 C655.485,292.279 666.55,311.131 667.58,312.975 C669.539,316.45 669.929,320.743 671.595,324.382 C674.896,331.553 677.948,346.143 674.542,353.053 C672.688,356.822 669.987,360.892 670.068,364.925 z" fill-opacity="0" stroke="#1A1919" stroke-width="2.275" stroke-linecap="round" stroke-linejoin="round"/>
    <path d="M644.75,277.385 C664.303,247.622 743.204,245.98 754.735,266.75 C760.408,276.958 756.918,292.519 754.735,304.273 C753.746,309.591 753.593,318.476 759.593,321.976 C763.073,324.006 765.157,320.629 766.593,325.476 C768.019,330.296 764.142,334.727 758.093,337.476 C755.198,348.766 752.204,350.773 750.927,356.31 C747.927,369.31 733.093,369.476 723.093,362.476 C718.584,359.32 710.595,356.689 706.593,353.476 C700.152,348.304 698.64,342.221 698.093,334.476" fill="#F8D2B8"/>
    <path d="M644.75,277.385 C664.303,247.622 743.204,245.98 754.735,266.75 C760.408,276.958 756.918,292.519 754.735,304.273 C753.746,309.591 753.593,318.476 759.593,321.976 C763.073,324.006 765.157,320.629 766.593,325.476 C768.019,330.296 764.142,334.727 758.093,337.476 C755.198,348.766 752.204,350.773 750.927,356.31 C747.927,369.31 733.093,369.476 723.093,362.476 C718.584,359.32 710.595,356.689 706.593,353.476 C700.152,348.304 698.64,342.221 698.093,334.476" fill-opacity="0" stroke="#1A1919" stroke-width="2.275" stroke-linecap="round" stroke-linejoin="round"/>
    <path d="M729.352,302.066 C737.467,297.548 742.733,299.589 751.148,301.823 C745.931,290.528 728.588,295.355 729.352,302.066" fill="#362727"/>
    <path d="M741.093,309.226 C741.962,308.973 744.316,308.083 744.843,308.476 C746.425,309.654 746.398,315.971 743.843,316.226 C741.343,316.476 739.179,312.016 741.093,309.226" fill="#1A1919"/>
    <path d="M706.615,514.655 C701.993,523.897 703.683,537.145 693.818,539.813 C679.46,543.701 663.779,533.753 659.386,521.276 C658.397,518.468 656.758,513.926 656.26,510.643 C652.478,485.714 663.6,451.751 685.415,455.039 C711.914,459.032 715.89,496.112 706.615,514.655" fill="#8A9A92"/>
    <path d="M706.615,514.655 C701.993,523.897 703.683,537.145 693.818,539.813 C679.46,543.701 663.779,533.753 659.386,521.276 C658.397,518.468 656.758,513.926 656.26,510.643 C652.478,485.714 663.6,451.751 685.415,455.039 C711.914,459.032 715.89,496.112 706.615,514.655 z" fill-opacity="0" stroke="#1A1919" stroke-width="2.275" stroke-linecap="round" stroke-linejoin="round"/>
    <path d="M729.132,530.545 C728.844,523.824 722.029,508.502 719.858,498.76 C714.566,474.924 714.66,441.257 699.993,435.196 C685.957,429.389 663.835,461.286 660.263,476.908 C658.216,485.858 666.631,506.729 672.183,522.599 C681.458,549.085 681.458,549.085 693.372,558.356 C703.578,566.289 729.584,541.203 729.132,530.545" fill="#F8D2B8"/>
    <path d="M729.132,530.545 C728.844,523.824 722.029,508.502 719.858,498.76 C714.566,474.924 714.66,441.257 699.993,435.196 C685.957,429.389 663.835,461.286 660.263,476.908 C658.216,485.858 666.631,506.729 672.183,522.599 C681.458,549.085 681.458,549.085 693.372,558.356 C703.578,566.289 729.584,541.203 729.132,530.545 z" fill-opacity="0" stroke="#1A1919" stroke-width="2.275" stroke-linecap="round" stroke-linejoin="round"/>
    <path d="M645.093,419.976 C645.104,444.431 650.553,482.43 656.294,512.003 C672.629,448.88 713.794,467.639 719.093,491.476 C717.324,473.82 711.914,447.111 714.566,428.573" fill="#A2B6A7"/>
    <path d="M645.093,419.976 C645.104,444.431 650.553,482.43 656.294,512.003 C672.629,448.88 713.794,467.639 719.093,491.476 C717.324,473.82 711.914,447.111 714.566,428.573" fill-opacity="0" stroke="#1A1919" stroke-width="2.275" stroke-linecap="round" stroke-linejoin="round"/>
    <path d="M706.615,523.924 C723.243,518.512 768.862,535.841 794.027,533.192 C799.677,532.595 809.989,554.034 804.616,555.707 C783.428,562.329 739.723,562.329 713.236,562.329 C691.679,562.329 690.726,563.654 678.805,541.141" fill="#F8D2B8"/>
    <path d="M706.615,523.924 C723.243,518.512 768.862,535.841 794.027,533.192 C799.677,532.595 809.989,554.034 804.616,555.707 C783.428,562.329 739.723,562.329 713.236,562.329 C691.679,562.329 690.726,563.654 678.805,541.141" fill-opacity="0" stroke="#1A1919" stroke-width="2.275" stroke-linecap="round" stroke-linejoin="round"/>
    <path d="M625.832,613.089 C624.423,630.337 669.977,623.687 686.75,588.377" fill="#A2B6A7"/>
    <path d="M625.832,613.089 C624.423,630.337 669.977,623.687 686.75,588.377" fill-opacity="0" stroke="#1A1919" stroke-width="2.275" stroke-linecap="round" stroke-linejoin="round"/>
    <path d="M876.808,480.401 C877.092,484.175 875.519,487.164 875.85,489.057 C876.176,490.945 886.317,493.453 885.69,488.155 C885.144,483.637 884.719,480.956 884.719,480.956 L876.808,480.401" fill="#C4C5C4"/>
    <path d="M876.808,480.401 C877.092,484.175 875.519,487.164 875.85,489.057 C876.176,490.945 886.317,493.453 885.69,488.155 C885.144,483.637 884.719,480.956 884.719,480.956 L876.808,480.401 z" fill-opacity="0" stroke="#1A1919" stroke-width="2.275" stroke-linecap="round" stroke-linejoin="round"/>
    <path d="M866.428,450.03 C854.192,463.652 865.998,483.208 880.874,483.887 C897.846,484.658 910.952,468.677 898.508,452.156 C896.698,448.714 893.621,448.094 893.852,454.142 C904.527,465.717 889.059,477.8 881.23,476.534 C869.014,474.55 868.81,462.458 874.299,453.526 C876.949,449.208 869.16,446.99 866.428,450.03" fill="#C4C5C4"/>
    <path d="M866.428,450.03 C854.192,463.652 865.998,483.208 880.874,483.887 C897.846,484.658 910.952,468.677 898.508,452.156 C896.698,448.714 893.621,448.094 893.852,454.142 C904.527,465.717 889.059,477.8 881.23,476.534 C869.014,474.55 868.81,462.458 874.299,453.526 C876.949,449.208 869.16,446.99 866.428,450.03 z" fill-opacity="0" stroke="#1A1919" stroke-width="2.275" stroke-linecap="round" stroke-linejoin="round"/>
    <path d="M960.857,429.333 C949.371,432.436 955.374,461.717 966.48,459.628 C971.284,458.156 974.036,456.629 982.466,455.653 C1000.23,462.493 1005.61,465.458 1015.28,464.372 C1020.32,463.768 1050.29,458.527 1058.25,455.835 C1066.13,453.17 1073.29,448.135 1074.52,441.79 C1077.14,428.281 1080.15,403.347 1080.23,387.154 C1080.22,380.919 1069.89,377.938 1061.95,379.712 C1056.14,381.016 1021.02,389.413 1014.01,391.664 C1006.81,393.965 983.294,417.738 975.973,425.572 C968.05,428.262 969.913,427.152 960.857,429.333" fill="#FFFFFE"/>
    <path d="M960.857,429.333 C949.371,432.436 955.374,461.717 966.48,459.628 C971.284,458.156 974.036,456.629 982.466,455.653 C1000.23,462.493 1005.61,465.458 1015.28,464.372 C1020.32,463.768 1050.29,458.527 1058.25,455.835 C1066.13,453.17 1073.29,448.135 1074.52,441.79 C1077.14,428.281 1080.15,403.347 1080.23,387.154 C1080.22,380.919 1069.89,377.938 1061.95,379.712 C1056.14,381.016 1021.02,389.413 1014.01,391.664 C1006.81,393.965 983.294,417.738 975.973,425.572 C968.05,428.262 969.913,427.152 960.857,429.333 z" fill-opacity="0" stroke="#1A1919" stroke-width="2.275" stroke-linecap="round" stroke-linejoin="round"/>
    <path d="M871.534,468.572 C876.143,481.573 918.28,465.215 927.465,462.986 C940.778,459.743 954.073,456.226 967.483,453.362 C979.914,450.708 977.515,429.497 961.96,434.133 C946.228,438.833 930.449,443.395 914.679,447.998 C903.006,451.412 891.306,454.758 879.639,458.232 C874.135,459.871 871.442,459.542 871.141,465.449 C871.079,466.64 871.217,467.674 871.534,468.572" fill="#EAD4C0"/>
    <path d="M871.534,468.572 C876.143,481.573 918.28,465.215 927.465,462.986 C940.778,459.743 954.073,456.226 967.483,453.362 C979.914,450.708 977.515,429.497 961.96,434.133 C946.228,438.833 930.449,443.395 914.679,447.998 C903.006,451.412 891.306,454.758 879.639,458.232 C874.135,459.871 871.442,459.542 871.141,465.449 C871.079,466.64 871.217,467.674 871.534,468.572 z M973.731,426.281 C1045.96,411.082 1045.63,411.295 1051.5,409.771 M977.328,456.585 C977.328,456.585 1043.84,431.798 1049.29,429.142" fill-opacity="0" stroke="#1A1919" stroke-width="2.275" stroke-linecap="round" stroke-linejoin="round"/>
    <path d="M882.149,484.064 C899.118,484.834 911.575,467.552 900.646,450.1 C898.847,446.663 892.078,446.916 892.311,452.961 C901.898,468.591 889.577,474.063 882.832,475.575" fill="#C4C5C4"/>
    <path d="M882.149,484.064 C899.118,484.834 911.575,467.552 900.646,450.1 C898.847,446.663 892.078,446.916 892.311,452.961 C901.898,468.591 889.577,474.063 882.832,475.575" fill-opacity="0" stroke="#1A1919" stroke-width="2.275" stroke-linecap="round" stroke-linejoin="round"/>
    <path d="M876.131,485.995 C896.997,481.184 886.96,438.971 862.837,447.343 C846.144,453.128 853.07,491.314 876.131,485.995" fill="#FFFFFE"/>
    <path d="M876.131,485.995 C896.997,481.184 886.96,438.971 862.837,447.343 C846.144,453.128 853.07,491.314 876.131,485.995 z" fill-opacity="0" stroke="#1A1919" stroke-width="2.275" stroke-linecap="round" stroke-linejoin="round"/>
    <path d="M817.76,492.196 C829.663,489.28 858.877,480.573 870.268,477.311 C875.018,474.243 874.661,461.164 867.657,459.25 C861.044,462.792 810.56,477.839 810.166,477.01 L817.76,492.196" fill="#EAD4C0"/>
    <path d="M817.76,492.196 C829.663,489.28 858.877,480.573 870.268,477.311 C875.018,474.243 874.661,461.164 867.657,459.25 C861.044,462.792 810.56,477.839 810.166,477.01 L817.76,492.196 z" fill-opacity="0" stroke="#1A1919" stroke-width="2.275" stroke-linecap="round" stroke-linejoin="round"/>
    <path d="M779.411,480.045 C791.722,491.59 793.451,488.919 806.323,487.253 C812.044,486.52 812.408,475.269 817.271,480.476 C818.525,481.864 818.079,483.529 819.654,485.202 C820.308,485.925 822.623,484.91 823.55,485.781 C830.447,484.426 834.987,483.96 838.116,476.952 C840.666,471.338 843.84,472.4 841.307,465.907 C838.832,459.578 830.357,453.413 825.308,452.639 C812.324,450.604 803.137,456.757 793.097,461.157" fill="#F8D2B8"/>
    <path d="M779.411,480.045 C791.722,491.59 793.451,488.919 806.323,487.253 C812.044,486.52 812.408,475.269 817.271,480.476 C818.525,481.864 818.079,483.529 819.654,485.202 C820.308,485.925 822.623,484.91 823.55,485.781 C830.447,484.426 834.987,483.96 838.116,476.952 C840.666,471.338 843.84,472.4 841.307,465.907 C838.832,459.578 830.357,453.413 825.308,452.639 C812.324,450.604 803.137,456.757 793.097,461.157" fill-opacity="0" stroke="#1A1919" stroke-width="2.275" stroke-linecap="round" stroke-linejoin="round"/>
    <path d="M839.419,462.895 C845.65,470.331 848.536,479.228 844.911,483.116 C842.005,486.237 837.322,491.065 832.907,472.475 C831.378,469.641 831.059,480.968 833.228,478.933" fill="#F8D2B8"/>
    <path d="M839.419,462.895 C845.65,470.331 848.536,479.228 844.911,483.116 C842.005,486.237 837.322,491.065 832.907,472.475 C831.378,469.641 831.059,480.968 833.228,478.933" fill-opacity="0" stroke="#1A1919" stroke-width="2.275" stroke-linecap="round" stroke-linejoin="round"/>
    <path d="M834.308,464.32 C843.984,477.519 843.738,495.453 830.681,492.038 C826.929,491.047 822.18,494.461 822.306,486.203 C822.347,482.485 831.621,477.208 824.573,474.434" fill="#F8D2B8"/>
    <path d="M834.308,464.32 C843.984,477.519 843.738,495.453 830.681,492.038 C826.929,491.047 822.18,494.461 822.306,486.203 C822.347,482.485 831.621,477.208 824.573,474.434" fill-opacity="0" stroke="#1A1919" stroke-width="2.275" stroke-linecap="round" stroke-linejoin="round"/>
    <path d="M827.292,464.881 C832.522,473.338 837.711,480.952 834.435,488.513 C830.707,497.072 827.675,498.935 822.999,489.892 C825.348,487.46 823.693,484.616 821.158,479.746" fill="#F8D2B8"/>
    <path d="M827.292,464.881 C832.522,473.338 837.711,480.952 834.435,488.513 C830.707,497.072 827.675,498.935 822.999,489.892 C825.348,487.46 823.693,484.616 821.158,479.746" fill-opacity="0" stroke="#1A1919" stroke-width="2.275" stroke-linecap="round" stroke-linejoin="round"/>
    <path d="M816.317,467.682 C826.878,474.373 831.354,486.772 827.056,493.589 C823.631,499.059 819.572,501.168 816.788,494.617 C818.616,492.038 816.546,493.747 818.698,490.013 C821.813,483.753 814.639,477.195 808.157,477.771" fill="#F8D2B8"/>
    <path d="M816.317,467.682 C826.878,474.373 831.354,486.772 827.056,493.589 C823.631,499.059 819.572,501.168 816.788,494.617 C818.616,492.038 816.546,493.747 818.698,490.013 C821.813,483.753 814.639,477.195 808.157,477.771" fill-opacity="0" stroke="#1A1919" stroke-width="2.275" stroke-linecap="round" stroke-linejoin="round"/>
    <path d="M803.51,497.606 C808.065,495.28 811.063,495.578 817.76,492.196 C821.434,486.961 818.734,479.864 811.691,476.297 C806.328,477.675 805.304,477.331 797.75,479.367 C797.656,479.392 803.51,497.606 803.51,497.606" fill="#EAD4C0"/>
    <path d="M803.51,497.606 C808.065,495.28 811.063,495.578 817.76,492.196 C821.434,486.961 818.734,479.864 811.691,476.297 C806.328,477.675 805.304,477.331 797.75,479.367 C797.656,479.392 803.51,497.606 803.51,497.606 z" fill-opacity="0" stroke="#1A1919" stroke-width="2.275" stroke-linecap="round" stroke-linejoin="round"/>
    <path d="M797.883,479.2 C787.489,483.995 797.042,503.385 808.415,495.514 C815.788,490.411 808.752,474.194 797.883,479.2" fill="#EAD4C0"/>
    <path d="M797.883,479.2 C787.489,483.995 797.042,503.385 808.415,495.514 C815.788,490.411 808.752,474.194 797.883,479.2 z" fill-opacity="0" stroke="#1A1919" stroke-width="2.275" stroke-linecap="round" stroke-linejoin="round"/>
    <path d="M857.311,481.643 C866.186,479.642 866.406,478.76 872.769,476.587 C881.23,473.69 877.018,455.165 866.668,458.895 C861.741,460.674 859.094,461.812 853.744,463.889 C864.913,458.413 871.75,477.554 857.311,481.643" fill="#FFFFFE"/>
    <path d="M857.311,481.643 C866.186,479.642 866.406,478.76 872.769,476.587 C881.23,473.69 877.018,455.165 866.668,458.895 C861.741,460.674 859.094,461.812 853.744,463.889 C864.913,458.413 871.75,477.554 857.311,481.643 z" fill-opacity="0" stroke="#1A1919" stroke-width="2.275" stroke-linecap="round" stroke-linejoin="round"/>
    <path d="M913.214,661.542 C913.659,665.952 911.883,669.482 912.327,671.689 C912.767,673.896 924.69,676.545 923.805,670.367 C923.051,665.101 922.483,661.981 922.483,661.981 L913.214,661.542" fill="#C4C5C4"/>
    <path d="M913.214,661.542 C913.659,665.952 911.883,669.482 912.327,671.689 C912.767,673.896 924.69,676.545 923.805,670.367 C923.051,665.101 922.483,661.981 922.483,661.981 L913.214,661.542 z" fill-opacity="0" stroke="#1A1919" stroke-width="2.275" stroke-linecap="round" stroke-linejoin="round"/>
    <path d="M902.618,636.155 C900.63,653.372 907.252,665.952 918.063,665.511 C937.92,664.705 951.615,647.41 938.372,626.884 C936.165,622.911 928.666,621.801 929.103,628.865 C939.037,645.427 927.47,658.169 918.288,656.898 C903.94,654.91 903.165,631.407 902.618,636.155" fill="#C4C5C4"/>
    <path d="M902.618,636.155 C900.63,653.372 907.252,665.952 918.063,665.511 C937.92,664.705 951.615,647.41 938.372,626.884 C936.165,622.911 928.666,621.801 929.103,628.865 C939.037,645.427 927.47,658.169 918.288,656.898 C903.94,654.91 903.165,631.407 902.618,636.155 z" fill-opacity="0" stroke="#1A1919" stroke-width="2.275" stroke-linecap="round" stroke-linejoin="round"/>
    <path d="M797.069,502.826 C802.15,509.39 878.119,608.681 878.119,608.681 L894.008,592.126 C886.728,580.872 827.792,508.033 813.581,490.21 C807.422,482.489 787.624,490.625 797.069,502.826" fill="#EAD4C0"/>
    <path d="M797.069,502.826 C802.15,509.39 878.119,608.681 878.119,608.681 L894.008,592.126 C886.728,580.872 827.792,508.033 813.581,490.21 C807.422,482.489 787.624,490.625 797.069,502.826 z" fill-opacity="0" stroke="#1A1919" stroke-width="2.275" stroke-linecap="round" stroke-linejoin="round"/>
    <path d="M875.248,607.358 C880.328,613.916 882.753,618.173 888.051,625.456 C889.374,610.227 909.677,608.242 909.677,608.242 C906.152,604.707 903.94,602.944 894.672,591.902 C888.322,584.346 865.802,595.153 875.248,607.358" fill="#FFFFFE"/>
    <path d="M875.248,607.358 C880.328,613.916 882.753,618.173 888.051,625.456 C889.374,610.227 909.677,608.242 909.677,608.242 C906.152,604.707 903.94,602.944 894.672,591.902 C888.322,584.346 865.802,595.153 875.248,607.358 z" fill-opacity="0" stroke="#1A1919" stroke-width="2.275" stroke-linecap="round" stroke-linejoin="round"/>
    <path d="M885.398,636.492 C901.881,659.633 940.984,622.368 916.746,605.146 C899.973,593.224 869.071,613.561 885.398,636.492" fill="#FFFFFE"/>
    <path d="M885.398,636.492 C901.881,659.633 940.984,622.368 916.746,605.146 C899.973,593.224 869.071,613.561 885.398,636.492 z" fill-opacity="0" stroke="#1A1919" stroke-width="2.275" stroke-linecap="round" stroke-linejoin="round"/>
    <path d="M791.3,559.093 C804.889,557.082 824.835,557.596 829.046,543.796 C830.896,537.743 831.741,532.231 837.426,527.691 C838.895,526.462 840.515,527.215 842.349,525.752 C843.121,525.121 842.374,522.441 843.277,521.586 C842.564,513.843 842.535,508.827 835.805,504.389 C830.43,500.833 812.794,498.139 807.177,502.205 C802.626,505.452 799.133,509.473 796.5,514.333 C789.189,527.915 785.193,531.869 783.36,533.363" fill="#F8D2B8"/>
    <path d="M791.3,559.093 C804.889,557.082 824.835,557.596 829.046,543.796 C830.896,537.743 831.741,532.231 837.426,527.691 C838.895,526.462 840.515,527.215 842.349,525.752 C843.121,525.121 842.374,522.441 843.277,521.586 C842.564,513.843 842.535,508.827 835.805,504.389 C830.43,500.833 812.794,498.139 807.177,502.205 C802.626,505.452 799.133,509.473 796.5,514.333 C789.189,527.915 785.193,531.869 783.36,533.363" fill-opacity="0" stroke="#1A1919" stroke-width="2.275" stroke-linecap="round" stroke-linejoin="round"/>
    <path d="M807.177,502.205 C814.179,498.052 818.606,498.139 824.479,497.596 C835.476,496.613 838.334,507.212 839.771,515.026 C836.763,516.314 839.169,512.677 837.337,510.034" fill="#F8D2B8"/>
    <path d="M807.177,502.205 C814.179,498.052 818.606,498.139 824.479,497.596 C835.476,496.613 838.334,507.212 839.771,515.026 C836.763,516.314 839.169,512.677 837.337,510.034" fill-opacity="0" stroke="#1A1919" stroke-width="2.275" stroke-linecap="round" stroke-linejoin="round"/>
    <path d="M814.669,508.115 C827.016,503.428 835.574,500.635 843.622,513.659 C845.89,517.329 851.818,524.316 843.574,522.989" fill="#F8D2B8"/>
    <path d="M814.669,508.115 C827.016,503.428 835.574,500.635 843.622,513.659 C845.89,517.329 851.818,524.316 843.574,522.989" fill-opacity="0" stroke="#1A1919" stroke-width="2.275" stroke-linecap="round" stroke-linejoin="round"/>
    <path d="M822.734,514.487 C830.844,512.236 835.958,508.784 843.208,513.455 C851.429,518.729 846.924,525.057 837.426,528.906 C835.211,525.989 842.102,521.234 837.013,523.311" fill="#F8D2B8"/>
    <path d="M822.734,514.487 C830.844,512.236 835.958,508.784 843.208,513.455 C851.429,518.729 846.924,525.057 837.426,528.906 C835.211,525.989 842.102,521.234 837.013,523.311" fill-opacity="0" stroke="#1A1919" stroke-width="2.275" stroke-linecap="round" stroke-linejoin="round"/>
    <path d="M828.677,524.421 C837.074,519.234 840.822,515.745 847.275,521.397 C852.413,525.958 849.482,528.077 848.304,532.334 C846.097,530.109 846.644,529.388 842.895,528.363 C838.708,526.403 832.056,533.795 829.884,541.089" fill="#F8D2B8"/>
    <path d="M828.677,524.421 C837.074,519.234 840.822,515.745 847.275,521.397 C852.413,525.958 849.482,528.077 848.304,532.334 C846.097,530.109 846.644,529.388 842.895,528.363 C838.708,526.403 832.056,533.795 829.884,541.089" fill-opacity="0" stroke="#1A1919" stroke-width="2.275" stroke-linecap="round" stroke-linejoin="round"/>
    <path d="M895.112,630.308 C900.191,636.874 1151.51,964.89 1151.51,964.89 L1180.73,941.426 C915.861,622.582 921.852,629.32 913.214,616.186 C907.791,607.936 885.668,618.105 895.112,630.308" fill="#EAD4C0"/>
    <path d="M895.112,630.308 C900.191,636.874 1151.51,964.89 1151.51,964.89 L1180.73,941.426 C915.861,622.582 921.852,629.32 913.214,616.186 C907.791,607.936 885.668,618.105 895.112,630.308 z" fill-opacity="0" stroke="#1A1919" stroke-width="2.275" stroke-linecap="round" stroke-linejoin="round"/>
    <path d="M1053.76,846.003 C1043.17,834.907 1075.29,805.323 1085.25,818.485 C1092.23,827.762 1096.44,833.527 1100.99,838.844 C1115.4,844.977 1139.67,845.609 1147.11,852.956 C1163.24,868.816 1199.74,914.28 1229.78,942.714 C1240.71,953.055 1240.59,966.311 1234.41,974.171 C1226.21,984.561 1185.03,1035.21 1178.91,1038.55 C1170.57,1043.09 1159.73,1043.22 1150.07,1027.74 C1139.67,1011.08 1087.1,932.818 1081.73,923.831 C1076.36,914.841 1072.59,885.369 1070.99,867.436 C1066.58,859.783 1062.77,859.341 1053.76,846.003" fill="#FFFFFE"/>
    <path d="M1053.76,846.003 C1043.17,834.907 1075.29,805.323 1085.25,818.485 C1092.23,827.762 1096.44,833.527 1100.99,838.844 C1115.4,844.977 1139.67,845.609 1147.11,852.956 C1163.24,868.816 1199.74,914.28 1229.78,942.714 C1240.71,953.055 1240.59,966.311 1234.41,974.171 C1226.21,984.561 1185.03,1035.21 1178.91,1038.55 C1170.57,1043.09 1159.73,1043.22 1150.07,1027.74 C1139.67,1011.08 1087.1,932.818 1081.73,923.831 C1076.36,914.841 1072.59,885.369 1070.99,867.436 C1066.58,859.783 1062.77,859.341 1053.76,846.003 z M1070.99,867.436 L1173.09,989.438 M1101.88,839.326 L1185.51,967.297" fill-opacity="0" stroke="#1A1919" stroke-width="2.275" stroke-linecap="round" stroke-linejoin="round"/>
    <path d="M914.015,655.468 C907.761,649.144 907.606,643.626 910.562,632.843 C912.114,627.146 904.033,625.214 901.953,629.533 C894.008,646.086 900.351,658.42 910.257,663.24" fill="#C4C5C4"/>
    <path d="M914.015,655.468 C907.761,649.144 907.606,643.626 910.562,632.843 C912.114,627.146 904.033,625.214 901.953,629.533 C894.008,646.086 900.351,658.42 910.257,663.24 M739.093,340.476 C741.593,346.476 750.76,347.643 754.26,346.643" fill-opacity="0" stroke="#1A1919" stroke-width="2.275" stroke-linecap="round" stroke-linejoin="round"/>
    <path d="M733.214,302.618 C736.687,295.837 743.102,274.214 737.663,270.09 C736.03,276.683 722.769,297.616 718.544,303.392 C717.621,300.836 717.399,289.001 714.093,286.476 C713.783,295.253 712.271,312.218 706.257,318.334 C702.822,311.35 698.848,302.664 689.575,300.011 C681.047,297.559 680.754,299.746 679.148,306.786 C677.246,315.091 683.374,320.842 686.678,328.238 C687.772,330.685 684.691,337.531 683.937,340.062 C683.392,338.457 682.237,338.21 681.431,337.14 C679.937,338.411 681.052,341.25 680.306,342.912 C679.099,338.613 674.901,341.416 675.09,342.346 C671.435,338.014 667.905,334.164 664.079,329.931 C660.515,325.973 651.262,319.165 648.593,314.476 C641.605,302.146 640.168,295.055 643.271,281.097 C647.685,261.232 659.015,246.264 681.897,238.057 C698.227,232.202 728.186,237.465 742.593,245.976 C759.156,255.767 774.093,281.476 755.593,300.476 C755.593,291.663 753.838,280.304 749.252,271.214 C748.274,284.374 735.996,304.652 733.214,302.618" fill="#785857"/>
    <path d="M733.214,302.618 C736.687,295.837 743.102,274.214 737.663,270.09 C736.03,276.683 722.769,297.616 718.544,303.392 C717.621,300.836 717.399,289.001 714.093,286.476 C713.783,295.253 712.271,312.218 706.257,318.334 C702.822,311.35 698.848,302.664 689.575,300.011 C681.047,297.559 680.754,299.746 679.148,306.786 C677.246,315.091 683.374,320.842 686.678,328.238 C687.772,330.685 684.691,337.531 683.937,340.062 C683.392,338.457 682.237,338.21 681.431,337.14 C679.937,338.411 681.052,341.25 680.306,342.912 C679.099,338.613 674.901,341.416 675.09,342.346 C671.435,338.014 667.905,334.164 664.079,329.931 C660.515,325.973 651.262,319.165 648.593,314.476 C641.605,302.146 640.168,295.055 643.271,281.097 C647.685,261.232 659.015,246.264 681.897,238.057 C698.227,232.202 728.186,237.465 742.593,245.976 C759.156,255.767 774.093,281.476 755.593,300.476 C755.593,291.663 753.838,280.304 749.252,271.214 C748.274,284.374 735.996,304.652 733.214,302.618 z" fill-opacity="0" stroke="#1A1919" stroke-width="2.275" stroke-linecap="round" stroke-linejoin="round"/>
    <path d="M698.205,307.998 C695.628,291.514 673.471,296.312 677.093,315.976 C678.506,323.655 690.135,340.452 700.214,336.13 C704.408,334.25 703.201,330.492 703.462,329.814" fill="#F8D2B8"/>
    <path d="M698.205,307.998 C695.628,291.514 673.471,296.312 677.093,315.976 C678.506,323.655 690.135,340.452 700.214,336.13 C704.408,334.25 703.201,330.492 703.462,329.814 M684.298,308.833 C690.893,299.502 698.96,317.014 696.956,322.93 M695.887,315.931 C691.479,312.22 684.425,322.8 692.026,327.71" fill-opacity="0" stroke="#1A1919" stroke-width="2.275" stroke-linecap="round" stroke-linejoin="round"/>
    <path d="M630.395,845.034 C651.979,848.163 677.734,866.279 699.554,867.106 C719.097,867.841 787.714,839.263 799.133,859.848 C779.94,858.708 768.299,861.181 751.055,870.049 C729.546,881.103 719.706,891.771 693.668,887.707 C674.017,884.642 663.974,868.077 646.582,859.75 C632.994,853.246 601.489,854.938 586.78,857.765 C598.023,836.204 621.396,843.73 630.395,845.034" fill="#FFFFFE"/>
    <path d="M1337.08,874.752 C1316.77,882.327 1301.33,870.622 1282.92,863.642 C1272.68,859.76 1232.23,850.188 1218.99,860.489 C1244,844.303 1265.97,845.502 1279.71,848.684 C1298.29,852.984 1312.98,863.474 1333.4,858.763 C1353.51,854.122 1359.29,839.36 1379.38,832.532 C1401.16,825.134 1414.95,837.428 1436.22,839.96 C1407.34,841.36 1397.47,834.389 1380.85,842.831 C1361.7,852.556 1357.73,867.056 1337.08,874.752" fill="#FFFFFE"/>
    <path d="M735.343,311.226 C739.093,309.726 744.093,307.976 747.343,308.226" fill-opacity="0" stroke="#1A1919" stroke-width="2.275" stroke-linecap="round" stroke-linejoin="round"/>
    <path d="M990.593,596.976 C1003.6,595.976 998.093,583.476 991.093,580.476" fill="#F8D2B8"/>
    <path d="M990.593,596.976 C1003.6,595.976 998.093,583.476 991.093,580.476" fill-opacity="0" stroke="#1A1919" stroke-width="2.275" stroke-linecap="round" stroke-linejoin="round"/>
    <path d="M1011.1,639.976 C1013.1,645.476 1011.68,650.57 1006.26,650.976 C999.593,651.476 994.845,646.064 990.926,645.643" fill="#F8D2B8"/>
    <path d="M1011.1,639.976 C1013.1,645.476 1011.68,650.57 1006.26,650.976 C999.593,651.476 994.845,646.064 990.926,645.643" fill-opacity="0" stroke="#1A1919" stroke-width="2.275" stroke-linecap="round" stroke-linejoin="round"/>
  </g>
</svg>
