<?xml version="1.0" encoding="utf-8"?>
<!-- Generator: Adobe Illustrator 20.1.0, SVG Export Plug-In . SVG Version: 6.00 Build 0)  -->
<svg version="1.1" id="Layer_1" xmlns="http://www.w3.org/2000/svg" xmlns:xlink="http://www.w3.org/1999/xlink" x="0px" y="0px"
	 viewBox="0 0 540.1 677.9" style="enable-background:new 0 0 540.1 677.9;" xml:space="preserve">
<style type="text/css">
	.st0{fill:#FFFFFF;}
	.st1{fill:#DDDDEC;}
	.st2{fill:#D8D0E2;}
	.st3{fill:#CBC9E5;}
	.st4{fill:#A09CCD;}
	.st5{fill:#F7D3C2;}
	.st6{fill:#CC9D85;}
	.st7{fill:#5E110B;}
	.st8{fill:#3D1311;}
	.st9{fill:#D9D8EA;}
	.st10{fill:#F0EFF8;}
</style>
<g>
	<path class="st0" d="M279.6,506.1h52.5c0,0-7.6,66.9,0,81.3c7.6,14.4,16.6,31.5,16.6,31.5v21.6c0,0-7.6,28.4-32.3,25.1
		c-24.8-3.3-48.7-28.4-48.7-28.4v-23.4c0,0,13.5-4.1,19.8-27.9C293.7,562,279.6,506.1,279.6,506.1z"/>
	<path d="M279.6,506.1l13.1-0.4l13.1-0.3l26.2-0.5l1.3,0l-0.1,1.3c-0.9,9.7-1.6,19.5-2,29.2c-0.2,4.9-0.4,9.7-0.5,14.6
		c-0.1,4.9-0.1,9.7,0,14.6c0.1,2.4,0.2,4.8,0.4,7.2c0.2,2.4,0.4,4.8,0.8,7.1c0.4,2.3,0.9,4.6,1.7,6.6l0.3,0.7
		c0.1,0.2,0.3,0.5,0.4,0.8l0.9,1.6l1.7,3.2l13.8,25.9l0.3,0.5l0,0.6l0,21.6l0,0.3l-0.1,0.3c-0.3,1.2-0.7,2.2-1.1,3.3
		c-0.4,1-0.8,2.1-1.3,3.1c-0.9,2-2,4-3.2,5.9c-2.4,3.8-5.5,7.3-9.3,10c-3.8,2.7-8.4,4.4-13,4.8c-2.3,0.2-4.6,0.1-6.9-0.1l-0.1,0
		l-0.2,0l-0.2,0l-0.4-0.1l-0.8-0.1l-1.6-0.3l-1.6-0.3l-1.6-0.5l-3.3-0.9l-3.1-1.2l-1.5-0.6l-1.5-0.7l-3-1.4l-2.9-1.5l-1.4-0.8
		l-1.4-0.8l-2.8-1.7l-2.7-1.8c-0.9-0.6-1.8-1.2-2.7-1.9c-0.9-0.6-1.8-1.2-2.6-1.9l-2.6-2l-2.5-2.1c-1.7-1.4-3.3-2.8-4.9-4.3
		c-1.6-1.5-3.1-2.9-4.7-4.6l-0.6-0.6l0-0.9l0.2-23.4l0-1.4l1.4-0.5l0.3-0.1c0.1,0,0.2-0.1,0.3-0.1c0.2-0.1,0.5-0.2,0.7-0.3
		c0.5-0.2,1-0.5,1.4-0.8c0.5-0.3,0.9-0.6,1.4-0.9c0.4-0.3,0.9-0.7,1.3-1c1.8-1.4,3.3-3.1,4.7-4.9c0.7-0.9,1.4-1.8,2-2.8
		c0.3-0.5,0.6-1,0.9-1.5l0.8-1.5c0.6-1,1.1-2.1,1.5-3.1c0.2-0.5,0.5-1.1,0.7-1.6l0.6-1.6l0.6-1.6c0.2-0.6,0.4-1.1,0.5-1.7l0.5-1.7
		l0.3-0.8l0.2-0.8c0.1-0.6,0.3-1.2,0.4-1.7l0.3-1.7c0.2-1.1,0.3-2.3,0.5-3.5c0.2-2.4,0.4-4.7,0.4-7.1c0.1-2.4,0-4.8-0.1-7.2
		c-0.1-2.4-0.2-4.8-0.4-7.2c-0.2-2.4-0.4-4.8-0.6-7.2c-0.5-4.8-1.1-9.6-1.8-14.4c-0.7-4.8-1.5-9.5-2.3-14.3
		C281.5,515.6,280.6,510.9,279.6,506.1z M279.6,506.1c2.6,9.3,4.7,18.8,6.6,28.3c0.9,4.8,1.7,9.5,2.4,14.4c0.7,4.8,1.2,9.6,1.6,14.5
		c0.1,2.4,0.3,4.9,0.3,7.3c0,2.4,0,4.9-0.2,7.4c-0.1,1.2-0.2,2.5-0.4,3.7l-0.3,1.9c-0.1,0.6-0.2,1.2-0.4,1.8l-0.2,0.9l-0.3,0.9
		l-0.5,1.8c-0.2,0.6-0.3,1.2-0.5,1.8l-0.6,1.8l-0.6,1.8c-0.2,0.6-0.5,1.1-0.7,1.7c-0.5,1.1-1,2.3-1.6,3.4l-0.9,1.7
		c-0.3,0.5-0.6,1.1-1,1.6c-0.6,1.1-1.4,2.1-2.1,3.1c-1.5,2-3.2,4-5.2,5.6c-0.5,0.4-1,0.8-1.5,1.2c-0.5,0.4-1.1,0.8-1.6,1.1
		c-0.6,0.3-1.1,0.7-1.7,1c-0.3,0.2-0.6,0.3-0.9,0.5c-0.2,0.1-0.3,0.1-0.5,0.2c-0.2,0.1-0.3,0.1-0.6,0.2l1.4-1.9l0.2,23.4l-0.6-1.5
		c1.4,1.4,3,2.9,4.5,4.3c1.6,1.4,3.2,2.7,4.8,4.1l2.5,2l2.5,1.9c0.8,0.6,1.7,1.2,2.6,1.8c0.9,0.6,1.7,1.2,2.6,1.8l2.6,1.7l2.7,1.6
		l1.3,0.8l1.4,0.7l2.7,1.4l2.8,1.3l1.4,0.6l1.4,0.5l2.9,1.1l2.9,0.8l1.4,0.4l1.6,0.3l3,0.5c1.9,0.2,3.9,0.3,5.8,0.1
		c3.8-0.4,7.5-1.7,10.6-4c3.2-2.2,5.8-5.2,8-8.6c1.1-1.7,2.1-3.4,2.9-5.3c0.4-0.9,0.8-1.8,1.2-2.8c0.4-0.9,0.7-1.9,1-2.8l-0.1,0.6
		l0-21.6l0.3,1.1L333.1,594l-1.7-3.3l-0.8-1.6c-0.1-0.3-0.3-0.5-0.4-0.8l-0.4-1c-1.1-2.6-1.5-5.1-1.9-7.6c-0.4-2.5-0.6-5-0.7-7.5
		c-0.1-2.5-0.2-5-0.2-7.4c0-4.9,0.1-9.9,0.3-14.8c0.2-4.9,0.5-9.8,0.9-14.7c0.4-4.9,0.8-9.8,1.3-14.7c0.5-4.9,1-9.7,1.6-14.6
		l1.2,1.3l-26.2-0.5l-13.1-0.3L279.6,506.1z"/>
</g>
<path class="st1" d="M298.4,558.5c10.3-1.3,20.6,1.7,29.6,6.6c-0.5-24.1,3.2-57,3.2-57h-50.6c0,0,7,28.2,8.7,52.7
	C292.2,559.6,295.3,558.9,298.4,558.5z"/>
<path class="st1" d="M302.1,630.5c-10-1.1-23.1-3.9-33-10.1V636c0,0,23.1,24.5,47,27.7c23.9,3.2,31.2-24.5,31.2-24.5v-21
	c0,0-0.6-1.2-1.7-3.3C333.3,625.1,318.4,632.3,302.1,630.5z"/>
<g>
	<path class="st2" d="M70,358.1c0,0-21.7,13.8-10.3,25.4S71.2,410,71.2,410s-18.6-2.3-20.3,5.8c-1.6,8.1,10.1,20.7,10.1,20.7h23.2
		l6.2-53.9L70,358.1z"/>
	<path d="M70,358.1c-2,1.5-3.9,3.2-5.7,5c-1.8,1.8-3.4,3.8-4.6,5.9c-1.3,2.1-2.2,4.4-2.2,6.7c0,1.1,0.2,2.2,0.7,3.3
		c0.4,1,1.1,2,1.9,2.8l2.6,2.7c0.4,0.5,0.9,1,1.3,1.5c0.4,0.5,0.9,1,1.2,1.6l1.2,1.6l1,1.7c0.4,0.6,0.7,1.1,1,1.7
		c0.3,0.6,0.6,1.2,0.9,1.8l0.8,1.8l0.7,1.9c0.4,1.3,0.8,2.5,1.2,3.8c0.3,1.3,0.6,2.6,0.8,3.9c0.2,1.3,0.4,2.6,0.4,4.1l0.1,2.3
		l-2.4-0.2c-0.9-0.1-1.8-0.1-2.7-0.2c-0.9,0-1.9,0-2.8,0c-1.8,0-3.7,0.2-5.4,0.5c-0.9,0.1-1.7,0.3-2.5,0.6c-0.8,0.2-1.6,0.5-2.2,0.9
		c-0.6,0.4-1.1,0.8-1.5,1.2c-0.3,0.4-0.5,0.9-0.5,1.5l-0.1,0.7c0,0.1,0,0.2,0,0.4l0,0.2c0.1,0.3,0,0.6,0.1,0.9l0.3,1.2
		c0.1,0.4,0.3,0.8,0.4,1.2c0.1,0.4,0.3,0.8,0.5,1.2c0.2,0.4,0.3,0.8,0.5,1.2l0.6,1.2l0.7,1.2c0.5,0.8,1,1.6,1.5,2.3
		c0.5,0.8,1.1,1.5,1.6,2.3c0.6,0.7,1.1,1.5,1.7,2.2c0.6,0.7,1.2,1.4,1.8,2.1L61,434l23.2,0.1l-2.4,2.1c0.5-4.5,1.1-9,1.7-13.4
		c0.6-4.5,1.1-9,1.8-13.4l1.9-13.4c0.6-4.5,1.3-8.9,1.9-13.4l0.3,1c-3.3-4.2-6.5-8.4-9.8-12.6l-4.8-6.4L70,358.1z M70,358.1l5.4,5.8
		l5.4,5.9c3.6,4,7.2,7.9,10.7,11.9l0.4,0.4l-0.1,0.6c-0.4,4.5-0.8,9-1.2,13.5l-1.3,13.5c-0.4,4.5-0.9,9-1.4,13.5
		c-0.5,4.5-0.9,9-1.4,13.5l-0.2,2.1l-2.1,0L61,439l-1.1,0l-0.7-0.8c-0.7-0.8-1.3-1.5-2-2.3c-0.6-0.8-1.2-1.6-1.8-2.4
		c-0.6-0.8-1.2-1.6-1.7-2.5c-0.6-0.8-1.1-1.7-1.6-2.6l-0.8-1.3l-0.7-1.4c-0.2-0.5-0.4-1-0.6-1.4c-0.2-0.5-0.4-1-0.6-1.5
		c-0.2-0.5-0.3-1-0.5-1.6l-0.3-1.7c-0.1-0.6-0.1-1.3-0.2-1.9l0-0.5c0-0.1,0-0.2,0-0.4l0.1-0.7c0.1-1.4,0.7-2.8,1.6-3.9
		c0.9-1.1,1.9-1.9,3-2.4c1.1-0.6,2.1-0.9,3.2-1.2c1.1-0.3,2.1-0.5,3.1-0.6c2.1-0.3,4.1-0.4,6.1-0.4c1,0,2,0,3,0.1c1,0.1,2,0.1,3,0.3
		l-2.3,2.1c0-1.1-0.1-2.3-0.2-3.5c-0.2-1.2-0.4-2.4-0.6-3.6c-0.3-1.2-0.6-2.4-0.9-3.5l-0.6-1.7l-0.7-1.7c-0.2-0.6-0.5-1.1-0.7-1.7
		c-0.3-0.6-0.5-1.1-0.8-1.6l-0.9-1.6l-1-1.6c-0.3-0.5-0.7-1-1-1.5c-0.4-0.5-0.7-1-1.1-1.5l-2.5-2.9c-0.9-1.1-1.7-2.3-2.1-3.7
		c-0.5-1.4-0.7-2.8-0.6-4.2c0.1-1.4,0.5-2.8,1-4c0.5-1.2,1.2-2.4,2-3.5c1.5-2.1,3.4-4,5.4-5.6C65.7,360.9,67.8,359.4,70,358.1z"/>
</g>
<g>
	<path class="st0" d="M489.7,423.2c0,0-25.6,176.4-222.1,106.6c-69.5-24.6-138.4-78.4-171.1-126.5c-59.8-88.1-48-177.5-48-177.5
		l454.7,172.3L489.7,423.2z"/>
	<path d="M489.7,423.2c-1.1,7.1-2.9,14.1-5,21c-2.1,6.9-4.6,13.7-7.6,20.3c-5.9,13.2-13.3,25.7-22.6,36.8
		c-9.2,11.2-20.3,20.8-32.8,28.2c-12.5,7.4-26.3,12.6-40.6,15.3c-14.3,2.7-28.9,3.4-43.4,2.3c-14.5-1-28.8-3.6-42.8-7.1
		c-3.5-0.9-7-1.9-10.5-2.9l-5.2-1.6c-1.7-0.5-3.5-1.1-5.2-1.6l-5.1-1.7l-1.3-0.4c-0.2-0.1-0.4-0.1-0.7-0.2l-0.6-0.2l-2.5-0.9
		l-10.1-3.8c-13.5-5.5-26.5-11.8-39.2-18.7c-12.7-7-24.9-14.8-36.8-23c-11.9-8.3-23.3-17.3-34.2-26.8l-8.1-7.2l-7.8-7.5
		c-0.6-0.6-1.3-1.2-2-1.9l-1.9-2l-3.8-3.9c-1.2-1.3-2.5-2.6-3.7-4l-3.6-4.1l-3.6-4.1c-1.2-1.4-2.3-2.8-3.4-4.2l-3.4-4.3
		c-0.6-0.7-1.1-1.4-1.7-2.2l-1.6-2.2l-3.2-4.4l-0.8-1.1c-0.3-0.4-0.5-0.8-0.8-1.2l-1.5-2.3l-3-4.5c-1-1.5-1.9-3.1-2.9-4.7
		c-7.5-12.5-14.2-25.4-19.7-38.8c-5.5-13.4-10.1-27.3-13.6-41.4c-1.7-7.1-3.2-14.2-4.4-21.3c-1.2-7.2-2.1-14.4-2.8-21.6
		c-0.7-7.2-1-14.5-1.1-21.8c0-3.6,0-7.3,0.2-10.9c0.2-3.7,0.4-7.2,0.8-11l0.4-3.1l2.9,1.1L163,266.8l56.8,21.7l56.7,21.8L390,353.9
		l113.4,43.9l0.3,0.1l-0.2,0.3L489.7,423.2z M489.7,423.2l13.3-25.3l0.2,0.4l-114-42.2l-113.9-42.5l-56.9-21.3L161.4,271L47.6,228.1
		l3.3-2c-0.4,3.4-0.6,7-0.7,10.5c-0.1,3.6-0.2,7.1-0.1,10.7c0.1,7.1,0.4,14.3,1.1,21.4c0.7,7.1,1.6,14.2,2.8,21.2
		c1.2,7,2.6,14,4.3,21c3.4,13.9,7.8,27.5,13.3,40.7c5.4,13.2,11.9,26,19.3,38.2c0.9,1.5,1.8,3,2.8,4.6l3,4.5l1.5,2.3
		c0.2,0.4,0.5,0.8,0.7,1.1l0.8,1.1l3.1,4.3l1.6,2.2c0.5,0.7,1,1.4,1.6,2.1l3.3,4.2c1.1,1.4,2.2,2.8,3.4,4.2l3.5,4l3.5,4
		c1.2,1.4,2.5,2.6,3.7,3.9l3.7,3.9l1.8,1.9c0.6,0.6,1.3,1.2,1.9,1.9l7.7,7.5l8,7.2c10.8,9.4,22,18.3,33.7,26.6
		c11.7,8.2,23.8,15.9,36.3,22.9c12.5,6.9,25.4,13.3,38.5,18.8l10.1,3.9l2.5,1l0.6,0.2l0.6,0.2l1.3,0.4l5.1,1.8
		c1.7,0.6,3.4,1.1,5.1,1.7l5.1,1.6c3.4,1,6.9,2,10.3,2.9c13.8,3.6,28,6.3,42.2,7.4c14.2,1.2,28.6,0.7,42.7-1.9
		c14-2.6,27.7-7.4,40-14.5c12.4-7.1,23.5-16.4,32.8-27.3c9.4-10.9,16.9-23.2,23-36.2c3-6.5,5.7-13.2,7.9-20
		C486.5,437.2,488.4,430.3,489.7,423.2z"/>
</g>
<path class="st1" d="M440.6,374.3c0.3,6,0,12.2-0.9,18.4c-4.4,29.4-21.3,57.5-43.7,76.8c-21.6,18.7-49,30.1-77.6,31.4
	c-34,1.5-68.7-8.3-99.9-21c-40.5-16.5-78.5-39.4-113.8-65.6c35.1,45.1,98.8,92.7,163,115.5c196.5,69.7,222.1-106.6,222.1-106.6
	l13.5-25.1L440.6,374.3z"/>
<g>
	<path class="st0" d="M488,407.6c0,55.2-150.3,55.5-278.6-1C96.6,357,47.2,278.3,47.2,234.7S129,184,241.7,222.8
		C370,267,488,352.4,488,407.6z"/>
	<path d="M488,407.6c0,0,0,0.3,0,0.8c0,0.5,0,1.3-0.1,2.3c-0.2,2-0.8,5.1-2.4,8.7c-1.7,3.6-4.7,7.7-9.2,11.3
		c-2.2,1.8-4.8,3.6-7.7,5.1c-2.9,1.6-6.1,3-9.6,4.4c-13.9,5.2-31.9,8.1-52.6,8.9c-20.7,0.7-44-0.8-69.2-4.5
		c-25.2-3.7-52.2-9.8-80-18.6c-13.9-4.4-28-9.5-42.2-15.4c-1.8-0.7-3.5-1.5-5.3-2.2c-1.8-0.8-3.5-1.6-5.3-2.4
		c-1.8-0.8-3.5-1.6-5.3-2.4c-1.8-0.8-3.5-1.7-5.3-2.5c-1.8-0.8-3.5-1.7-5.3-2.6c-1.8-0.9-3.5-1.8-5.3-2.7c-1.8-0.9-3.5-1.8-5.3-2.7
		c-1.7-1-3.5-1.9-5.2-2.9c-7-3.8-13.9-8-20.8-12.3c-6.8-4.4-13.6-9-20.2-13.9c-13.2-9.8-25.8-20.8-37.5-33
		c-11.6-12.2-22.3-25.5-31-40.3c-4.4-7.4-8.3-15-11.4-23.1c-0.7-2-1.6-4-2.2-6.1l-1-3.1c-0.3-1-0.6-2.1-0.9-3.1
		c-0.6-2.1-1-4.2-1.5-6.3c-0.2-1.1-0.4-2.2-0.6-3.2c-0.2-1.1-0.4-2.2-0.5-3.2l-0.3-3.3l-0.1-3.3l0-0.8c0-0.2,0-0.2,0-0.5l0-0.4
		l0.1-1.6c0.1-1.2,0.2-2.4,0.4-3.5c0.4-2.3,1-4.5,1.9-6.6c0.9-2.1,2-4.2,3.3-6c2.6-3.8,6.1-6.8,9.8-9.3c3.7-2.5,7.7-4.4,11.8-5.9
		c8.2-3,16.8-4.5,25.2-5.4c8.5-0.8,17-0.9,25.4-0.6c16.8,0.7,33.4,3.1,49.5,6.3c16.1,3.3,31.8,7.4,47,12.1
		c15.2,4.7,30,9.9,44.3,15.5c14.3,5.6,28.1,11.5,41.3,17.7c26.4,12.3,50.7,25.7,72.2,39.2c21.5,13.6,40.5,27.3,56.2,40.7
		c15.7,13.4,28.3,26.5,37.1,38.4c8.9,11.9,13.9,22.6,15.9,30.3c1,3.8,1.4,6.9,1.6,8.9c0.1,1,0.1,1.8,0.1,2.3
		C488,407.3,488,407.6,488,407.6z M488,407.6c0,0,0-0.3,0-0.8c0-0.5,0-1.3-0.1-2.3c-0.2-2-0.6-5.1-1.6-8.9c-2-7.7-7-18.4-16-30.3
		c-8.9-11.9-21.5-24.9-37.3-38.2c-15.8-13.3-34.8-26.9-56.5-40.1c-21.7-13.2-46-26.2-72.6-38.1c-13.3-6-27.1-11.7-41.4-17.1
		c-14.3-5.4-29.1-10.4-44.3-14.8c-15.2-4.5-30.8-8.4-46.8-11.4c-16-3-32.3-5.2-48.9-5.8c-8.3-0.3-16.5-0.1-24.8,0.8
		c-8.2,0.9-16.4,2.3-24,5.2c-3.8,1.4-7.5,3.2-10.8,5.4c-3.3,2.2-6.3,4.9-8.5,8.1c-1.1,1.6-2.1,3.3-2.8,5.1c-0.7,1.8-1.2,3.7-1.5,5.6
		c-0.2,1-0.2,1.9-0.3,2.8l0,1.6l0,0.4c0,0,0,0.2,0,0.3l0,0.8l0.1,3l0.3,3.1c0.1,1,0.3,2,0.4,3c0.2,1,0.3,2,0.5,3c0.4,2,0.8,4,1.4,6
		c0.3,1,0.5,2,0.8,3l1,3c0.6,2,1.4,3.9,2.1,5.9c3,7.8,6.7,15.2,11,22.4c4.2,7.2,9,14,14,20.6c5.1,6.6,10.4,12.9,16.1,19
		c11.4,12,23.7,23,36.6,32.8c6.4,5,13.1,9.6,19.7,14.1c6.7,4.4,13.5,8.6,20.4,12.5c1.7,1,3.4,1.9,5.2,2.9c1.7,1,3.5,1.9,5.2,2.8
		c1.7,0.9,3.5,1.8,5.2,2.7c1.7,0.9,3.5,1.7,5.2,2.6c1.7,0.9,3.5,1.7,5.2,2.6c1.8,0.8,3.5,1.6,5.3,2.4c1.7,0.8,3.5,1.6,5.2,2.4
		c1.8,0.8,3.5,1.5,5.2,2.3c14,6,28,11.3,41.8,15.9c27.6,9.1,54.4,15.5,79.5,19.6c25.1,4.1,48.4,5.7,69,5.2
		c20.6-0.5,38.6-3.4,52.5-8.6c3.5-1.3,6.7-2.8,9.6-4.3c2.9-1.6,5.5-3.3,7.7-5.1c4.5-3.6,7.5-7.7,9.2-11.2c1.7-3.6,2.2-6.7,2.4-8.7
		c0.1-1,0.1-1.8,0.2-2.3C488,407.8,488,407.6,488,407.6z"/>
</g>
<g>
	<path class="st0" d="M503.9,407.8c0,75.4-127.2,82.8-265,24.6C118.6,381.6,31.6,297,31.6,238.1s87-81,207.3-45.3
		C376.7,233.6,503.9,332.4,503.9,407.8z"/>
	<path d="M503.9,407.8c0,0,0,1.2-0.1,3.4c-0.2,2.3-0.4,5.6-1.4,9.9c-1,4.3-2.7,9.5-6,14.9c-3.3,5.4-8.2,11-14.8,15.9
		c-6.6,4.9-14.9,8.9-24.2,11.9c-9.4,3-19.9,5.1-31.3,6.3c-22.7,2.3-48.7,0.8-76.4-3.7c-27.7-4.6-57.3-12.5-87.5-23.6
		c-30.3-11-61.3-25.2-91.7-42.9c-15.2-8.9-30.3-18.5-44.9-29.3c-1.8-1.4-3.6-2.7-5.5-4.1c-1.8-1.4-3.6-2.8-5.4-4.2
		c-3.6-2.8-7.1-5.7-10.7-8.6c-1.8-1.5-3.5-3-5.2-4.5c-1.7-1.5-3.5-3-5.2-4.6c-1.7-1.6-3.4-3.1-5.1-4.7c-1.7-1.6-3.3-3.2-5-4.8
		c-6.6-6.5-13-13.3-19-20.4c-6-7.2-11.6-14.7-16.7-22.7c-5.1-8-9.5-16.4-12.9-25.3c-3.4-8.9-5.6-18.4-5.8-28.2c0-0.2,0-0.2,0-0.6
		l0-0.4l0-0.9l0.1-1.8c0.1-1.2,0.1-2.3,0.3-3.6l0.5-3.7c0.2-1.2,0.6-2.4,0.8-3.6l0.5-1.8c0.1-0.6,0.4-1.2,0.6-1.7l1.3-3.5
		c0.5-1.1,1.1-2.2,1.6-3.3c0.3-0.6,0.5-1.1,0.8-1.7l1-1.6c0.7-1,1.3-2.1,2-3.1l2.2-2.9c0.7-1,1.6-1.9,2.4-2.8
		c0.8-0.9,1.6-1.8,2.5-2.6c1.8-1.6,3.6-3.3,5.5-4.7c1-0.7,1.9-1.5,2.9-2.2l3.1-1.9l1.5-1c0.5-0.3,1.1-0.6,1.6-0.9l3.2-1.7
		c1-0.6,2.2-1,3.2-1.5l3.3-1.5c2.2-0.8,4.4-1.7,6.7-2.5c2.3-0.7,4.5-1.4,6.8-2.1c9.1-2.5,18.4-4,27.7-4.9c9.3-0.8,18.5-1.1,27.7-0.8
		c9.2,0.2,18.3,1,27.3,2c18,2.2,35.6,5.6,52.7,10.1c8.5,2.2,16.9,4.6,25.2,7.2c8.2,2.6,16.4,5.3,24.3,8.2
		c15.9,5.8,31.2,12.2,45.8,19c29.2,13.6,55.7,28.9,78.9,44.7c23.2,15.9,43.2,32.3,59.3,48.4c16.1,16.1,28.4,32,36.6,46.2
		c4.1,7.1,7.2,13.8,9.4,19.7c2.2,6,3.5,11.2,4.3,15.5c0.8,4.3,1,7.7,1.2,9.9C503.9,406.6,503.9,407.8,503.9,407.8z M503.9,407.8
		c0,0,0-1.2-0.1-3.4c-0.2-2.3-0.4-5.6-1.2-9.9c-0.8-4.3-2.2-9.6-4.4-15.5c-2.2-6-5.3-12.6-9.4-19.7c-8.2-14.2-20.5-30-36.8-45.9
		c-16.2-16-36.3-32.3-59.6-47.8c-23.3-15.5-49.9-30.4-79.2-43.6c-29.3-13.2-61.2-24.8-95.2-33.1c-17-4.2-34.5-7.3-52.3-9.3
		c-8.9-0.9-17.9-1.6-27-1.7c-9-0.1-18.1,0.1-27.2,1c-9.1,0.9-18.1,2.5-26.8,4.9c-2.2,0.6-4.3,1.3-6.5,2c-2.1,0.8-4.3,1.6-6.4,2.4
		l-3.1,1.4c-1,0.5-2.1,0.9-3.1,1.5l-3,1.6c-0.5,0.3-1,0.5-1.5,0.8l-1.4,0.9l-2.9,1.8c-0.9,0.7-1.8,1.3-2.7,2
		c-1.9,1.3-3.4,2.9-5.1,4.3c-0.8,0.8-1.5,1.6-2.3,2.4c-0.8,0.8-1.5,1.6-2.2,2.5l-2,2.6c-0.6,0.9-1.2,1.9-1.8,2.8l-0.9,1.4
		c-0.3,0.5-0.5,1-0.7,1.5c-0.5,1-1,2-1.4,3l-1.1,3.1c-0.2,0.5-0.4,1-0.5,1.6l-0.4,1.6c-0.2,1.1-0.6,2.2-0.8,3.2l-0.5,3.2
		c-0.2,1-0.2,2.2-0.3,3.4l-0.1,1.8l0,0.9l0,0.4c0-0.1,0,0.2,0,0.3c0.1,9,2.2,18,5.4,26.5c3.2,8.6,7.5,16.7,12.4,24.5
		c9.9,15.5,21.9,29.6,34.9,42.5c1.6,1.6,3.3,3.2,4.9,4.8c1.7,1.6,3.3,3.1,5,4.7c1.7,1.6,3.4,3.1,5.1,4.6c1.7,1.5,3.4,3,5.1,4.5
		c3.5,2.9,6.9,5.9,10.5,8.6c3.5,2.8,7.1,5.6,10.7,8.3c14.3,10.9,29.2,20.6,44.2,29.6c30,18,60.7,32.5,90.7,43.8
		c30,11.4,59.4,19.6,87,24.6c27.6,4.9,53.5,6.5,76.1,4.4c11.3-1.1,21.9-3,31.3-6.1c9.4-3,17.6-7,24.2-11.8
		c6.6-4.8,11.6-10.4,14.9-15.8c3.3-5.4,5.1-10.6,6.1-14.9c1-4.3,1.2-7.6,1.4-9.9C503.9,409,503.9,407.8,503.9,407.8z"/>
</g>
<path class="st1" d="M238.8,192.7c-60.8-18-113.1-21.3-149.9-12.6c8.9,3.3,16.9,8.3,22.8,16.8c8.6,12.5,7.5,28.2,5.7,42.9
	c0.4,0.4,0.7,0.9,1,1.5c2.1,4.8,5.9,7.1,9.7,10.4c3.9,3.4,8.7,5.9,13.3,8.2c9.5,4.5,19.3,8.3,28.8,12.7
	c39.4,18,79.5,34.4,119.3,51.6c17.3,7.5,34.3,16,48.7,28.3c14.6,12.4,24.7,30.5,42.3,39.1c1,0.5,1.7,1.2,2.1,1.9
	c15.4-3.3,33.1-0.6,47.5,4.3c14.3,4.9,28.5,15.4,28.6,32c0,7.4-3.2,14.5-8.6,19.5c-6.3,5.9-14.8,8.3-23,10.5
	c-15.8,4.3-32.1,6.9-48.2,9.8c73.2,6.6,124.8-13.9,124.8-61.9C503.8,332.4,376.5,233.6,238.8,192.7z"/>
<g>
	<path class="st0" d="M482.2,390c-2.8,38.7-164.4,24.5-262.1-23.2c-87.8-42.9-139.8-129-137.5-160.9c2.3-31.9,69.4-30.8,157.7,5.6
		C338.5,252,485.1,351.3,482.2,390z"/>
	<path d="M482.2,390c0,0,0,0.2-0.1,0.7c-0.1,0.5-0.1,1.2-0.4,2c-0.5,1.8-1.7,4.3-4.3,6.8c-1.3,1.2-2.9,2.4-4.8,3.5
		c-1.9,1.1-4.1,2.1-6.5,3c-4.9,1.8-10.7,3.2-17.3,4.3c-13.2,2-29.5,2.5-48.1,1.6c-18.6-0.9-39.5-3.3-62-7.3
		c-22.5-4-46.8-9.7-71.8-17.8c-25-8.2-50.9-18.6-75.2-34.1c-24.4-15.3-47.1-35-66.9-57.9c-4.9-5.8-9.6-11.7-14.1-17.9
		c-4.5-6.2-8.7-12.6-12.6-19.2c-3.9-6.6-7.5-13.5-10.5-20.6l-1.1-2.7l-1-2.7c-0.7-1.8-1.3-3.7-1.9-5.5c-0.3-0.9-0.6-1.9-0.8-2.8
		c-0.3-0.9-0.5-1.9-0.8-2.8c-0.4-1.9-0.9-3.8-1.2-5.8c-0.4-2-0.5-4-0.6-6l0-1.5l0-0.8l0-0.4c0-0.2,0-0.2,0-0.5l0.2-1.4l0.3-1.7
		c0.9-4.2,3.1-8.2,6.2-11.1c3.1-3,6.7-5,10.5-6.5c3.8-1.5,7.6-2.4,11.5-3.1c7.8-1.3,15.5-1.4,23.2-1c7.7,0.4,15.2,1.3,22.7,2.6
		c29.9,5.1,58.2,14.8,84.6,25.8c13.2,5.5,26,11.6,38.3,17.8c12.3,6.2,24.2,12.6,35.6,19.1c22.8,12.9,43.9,26.1,62.9,38.9
		c19,12.8,35.9,25.2,50.4,36.9c14.5,11.7,26.5,22.6,35.6,32.4c4.5,4.9,8.3,9.5,11.3,13.7c3,4.2,5.2,8.1,6.6,11.4
		c1.4,3.3,2,6,2.1,7.8c0.1,0.9,0.1,1.6,0.1,2.1C482.2,389.8,482.2,390,482.2,390z M482.2,390c0,0,0-0.2,0-0.7c0-0.5,0-1.2-0.1-2.1
		c-0.2-1.8-0.7-4.6-2.1-7.8c-1.4-3.3-3.6-7.1-6.6-11.4c-3-4.2-6.8-8.8-11.4-13.7c-9.1-9.7-21.2-20.7-35.7-32.2
		c-14.6-11.5-31.6-23.8-50.7-36.3c-19.2-12.5-40.4-25.3-63.4-37.9c-11.5-6.3-23.4-12.5-35.8-18.5c-12.4-6-25.1-11.8-38.4-17.1
		c-13.2-5.3-26.9-10.2-40.9-14.4c-14-4.2-28.4-7.8-43.1-10.2c-7.3-1.2-14.8-2-22.2-2.3c-7.4-0.3-14.9-0.2-22.2,1.1
		c-3.6,0.6-7.2,1.5-10.5,2.8c-3.3,1.3-6.4,3.1-8.8,5.5c-2.4,2.4-4.1,5.3-4.8,8.6l-0.2,1.2l-0.2,1.4l0,2.6c0.1,1.8,0.2,3.6,0.5,5.4
		c0.2,1.8,0.7,3.6,1.1,5.4c0.2,0.9,0.5,1.8,0.7,2.7c0.2,0.9,0.5,1.8,0.8,2.7c0.6,1.8,1.1,3.5,1.8,5.3l1,2.6l1.1,2.6
		c2.9,6.9,6.4,13.6,10.2,20.1c7.6,13,16.5,25.1,26,36.6c9.6,11.4,20,22,30.9,31.7c5.4,4.9,11.1,9.5,16.8,13.9
		c5.8,4.3,11.6,8.6,17.5,12.4c1.5,1,3,2,4.5,2.9c1.5,0.9,3,1.8,4.5,2.8l2.3,1.4l2.3,1.3c1.5,0.9,3,1.7,4.6,2.6
		c3,1.7,6.2,3.3,9.3,4.9c1.6,0.8,3.1,1.5,4.7,2.3c1.6,0.7,3.1,1.5,4.7,2.2c12.5,5.7,25,10.5,37.4,14.8c24.8,8.5,48.8,14.5,71.3,18.9
		c22.4,4.4,43.3,6.9,61.8,8c18.5,1.1,34.8,0.6,48-1.4c6.6-1,12.4-2.4,17.3-4.2c2.4-0.9,4.6-1.9,6.5-3c1.9-1.1,3.5-2.3,4.8-3.5
		c2.6-2.5,3.8-5,4.3-6.8c0.3-0.9,0.4-1.6,0.4-2C482.2,390.2,482.2,390,482.2,390z"/>
</g>
<path class="st1" d="M263.7,341.2c-5.2-18.9-3.1-38.7,5.4-56.3c8.1-16.7,21.1-30.5,36.7-40.7c-23.3-12.8-46.4-24.1-67.3-32.7
	C150.3,175,83.2,174,80.9,205.9s49.7,118.1,137.5,160.9c22.3,10.9,47.9,20,74.3,27.2C279.9,378.5,269,360.5,263.7,341.2z"/>
<g>
	<path class="st3" d="M473.9,402.2c-32.6-37.2-76.1-63.7-118.1-88.7c-22-13.1-44.1-25.8-65.7-39.6c-22.8-14.5-44.4-30.9-67.7-44.6
		c-23-13.5-46.6-21.9-73.6-18.1c-21.2,3-41.9,11.4-59.6,23.4c16.5,39.8,63,98.9,130.9,132.1C305.4,408.4,439.4,424.6,473.9,402.2z"
		/>
	<path d="M473.9,402.2c-6.3-6.9-12.9-13.5-19.8-19.7c-6.9-6.2-14.1-12.1-21.5-17.8c-7.4-5.6-15-11-22.8-16.2
		c-7.8-5.2-15.6-10.2-23.6-15c-15.9-9.7-32-19.2-48.1-28.6c-16.1-9.4-32.3-18.8-48.1-28.7c-7.9-5-15.7-10.2-23.5-15.4
		c-7.7-5.2-15.4-10.5-23.2-15.6c-7.8-5.1-15.6-10.1-23.7-14.7c-8-4.6-16.3-8.6-25-11.7c-4.3-1.5-8.7-2.8-13.2-3.8
		c-4.5-1-9-1.6-13.5-2c-4.5-0.3-9.1-0.3-13.6,0.1c-1.1,0.1-2.3,0.2-3.4,0.4l-1.7,0.2l-1.7,0.3c-2.3,0.3-4.5,0.8-6.8,1.2
		c-9,1.9-17.7,4.7-26.2,8.4c-8.4,3.6-16.5,8.1-24.1,13.2l0.9-3c3.6,8.5,8,16.7,12.8,24.7c2.5,3.9,4.9,7.9,7.6,11.7
		c1.3,1.9,2.6,3.9,4,5.7l4.2,5.6c0.7,0.9,1.4,1.9,2.1,2.8l2.2,2.7l4.4,5.4c1.5,1.8,3.1,3.5,4.6,5.2l2.3,2.6c0.8,0.9,1.6,1.7,2.4,2.6
		c6.4,6.8,13.1,13.3,20.1,19.5l5.3,4.6c1.7,1.5,3.6,2.9,5.4,4.4l5.5,4.4c1.9,1.4,3.8,2.8,5.6,4.2l5.7,4.1l5.8,3.9
		c2,1.3,3.9,2.6,5.9,3.8l6,3.6c2,1.2,4,2.4,6,3.5l6.2,3.3c2.1,1.1,4.1,2.2,6.2,3.2l6.4,3c8.5,3.9,17.1,7.5,25.9,10.8
		c8.8,3.3,17.6,6.3,26.6,9.1c9,2.7,18,5.3,27.1,7.6c9.1,2.3,18.2,4.4,27.4,6.2c9.2,1.8,18.4,3.5,27.7,4.8c9.3,1.4,18.6,2.6,27.9,3.4
		c9.3,0.8,18.7,1.3,28.1,1.4c9.4,0.1,18.8-0.3,28.1-1.5l3.5-0.5c1.2-0.2,2.3-0.4,3.5-0.6c2.3-0.4,4.6-1,6.9-1.5
		C465.4,406.3,469.9,404.7,473.9,402.2z M473.9,402.2c-4,2.6-8.4,4.2-12.9,5.6c-2.3,0.6-4.5,1.3-6.9,1.7c-1.2,0.2-2.3,0.5-3.5,0.7
		l-3.5,0.6c-9.3,1.4-18.8,1.9-28.2,2.1c-9.4,0.1-18.9-0.2-28.3-0.9c-9.4-0.6-18.8-1.6-28.1-2.8c-9.4-1.2-18.7-2.8-27.9-4.5
		c-9.3-1.7-18.5-3.7-27.7-5.9c-9.2-2.2-18.3-4.7-27.3-7.3c-9.1-2.7-18-5.7-26.9-8.8c-8.9-3.2-17.6-6.8-26.3-10.7l-6.4-3
		c-2.2-1-4.2-2.2-6.4-3.2l-6.3-3.3c-2.1-1.1-4.1-2.4-6.2-3.6l-6.1-3.6c-2-1.2-4-2.6-6-3.9l-6-3.9l-5.8-4.2c-1.9-1.4-3.9-2.8-5.8-4.2
		l-5.6-4.4c-1.8-1.5-3.7-2.9-5.5-4.5l-5.4-4.7c-7.2-6.2-13.9-12.9-20.4-19.8c-0.8-0.8-1.6-1.7-2.4-2.6l-2.4-2.7
		c-1.6-1.8-3.2-3.5-4.7-5.3l-4.5-5.5l-2.3-2.7c-0.8-0.9-1.4-1.9-2.2-2.8l-4.3-5.7c-1.4-1.9-2.7-3.9-4.1-5.8
		c-2.8-3.8-5.3-7.9-7.8-11.9c-4.9-8.2-9.4-16.5-13.1-25.4l-0.8-1.9l1.7-1.1c7.9-5.3,16.2-9.9,25-13.6c8.7-3.7,17.8-6.7,27.1-8.6
		c2.3-0.5,4.7-0.9,7-1.3l1.8-0.3l1.8-0.2c1.2-0.1,2.4-0.3,3.6-0.4c4.8-0.4,9.6-0.4,14.4-0.1c4.8,0.4,9.5,1.1,14.2,2.1
		c4.7,1.1,9.2,2.4,13.7,4c8.9,3.2,17.5,7.5,25.6,12.2c8.2,4.7,16,9.8,23.8,15c7.8,5.2,15.5,10.5,23.1,15.8
		c7.7,5.3,15.3,10.6,23.2,15.6c15.7,10.1,31.7,19.7,47.7,29.3l24,14.4c8,4.9,15.9,9.7,23.8,14.8c7.9,5.1,15.7,10.2,23.3,15.6
		c7.6,5.4,15.2,10.9,22.5,16.7c7.3,5.8,14.4,11.9,21.2,18.3C461.3,388.4,467.8,395.2,473.9,402.2z"/>
</g>
<path class="st4" d="M226.7,315.8c5.5-19.1,20.4-33.4,38.1-41.6c4.9-2.2,9.9-4,14.9-5.5c-19.4-12.9-38.2-26.7-58.3-38.4
	c-23-13.5-46.6-21.9-73.6-18.1c-21.2,3-41.9,11.4-59.6,23.4c16.5,39.8,63,98.9,130.9,132.1c4.3,2.1,8.7,4.1,13.2,6.1
	C225.6,355.2,221.2,334.9,226.7,315.8z"/>
<polygon class="st1" points="456.4,497.8 456.4,526 493,542.6 488,570.8 474.7,581.6 442.9,566.9 430.6,522.4 "/>
<g>
	<path class="st5" d="M140.6,278.4c26.7,4,51.9-10.4,70.9-27.9c2.3-2.1,4.5-4.2,6.6-6.4c-3.7-10.9-10.2-26.8-18.7-36.1
		c-13.9-15.3-43.4-24.2-79.9-9.3c-21,8.6-22.1,35.3-19.2,56.5C112.6,264.8,124.4,276,140.6,278.4z"/>
	<path d="M140.6,278.4c1.8,0.2,3.6,0.4,5.5,0.5l2.7,0.1c0.9,0,1.8,0.1,2.7,0c1.8-0.1,3.7-0.1,5.5-0.4l2.7-0.4
		c0.9-0.1,1.8-0.4,2.7-0.5c0.9-0.2,1.8-0.4,2.7-0.6l2.6-0.8c1.8-0.5,3.5-1.1,5.2-1.7l1.3-0.5l1.3-0.5l2.5-1.1
		c1.7-0.7,3.3-1.6,4.9-2.4c1.6-0.9,3.2-1.8,4.8-2.7c1.5-1,3.1-1.9,4.6-2.9c1.5-1.1,3-2,4.5-3.1c1.5-1.1,2.9-2.2,4.3-3.3l2.1-1.7
		l2.1-1.8c1.4-1.2,2.7-2.4,4-3.7l1-0.9l0.2-0.2l0.2-0.2l0.5-0.5l1.9-2l3.9-3.9l-0.4,1.5c-2.8-7.4-5.9-14.7-9.6-21.5
		c-1.9-3.4-4-6.7-6.2-9.8c-0.6-0.8-1.2-1.5-1.8-2.2l-0.9-1.1l-0.4-0.5l-0.5-0.5l-2.1-2.1c-0.7-0.6-1.4-1.2-2.1-1.7
		c-0.4-0.3-0.7-0.6-1.1-0.9l-1.2-0.8c-0.8-0.5-1.5-1.1-2.4-1.6c-1.7-0.9-3.3-1.9-5-2.7c-0.9-0.4-1.7-0.8-2.6-1.2l-2.7-1
		c-0.4-0.2-0.9-0.3-1.3-0.5l-1.4-0.4l-2.8-0.8c-0.9-0.2-1.9-0.4-2.8-0.6c-0.9-0.2-1.9-0.4-2.8-0.5l-2.9-0.4
		c-0.9-0.1-1.9-0.3-2.9-0.3l-2.9-0.2c-0.5,0-1-0.1-1.4-0.1l-1.4,0c-1.9,0.1-3.9,0-5.8,0.2c-3.8,0.3-7.7,0.8-11.5,1.5
		c-1.9,0.4-3.8,0.8-5.7,1.3l-5.6,1.6l-5.5,1.9l-0.7,0.2l-0.3,0.1l-0.1,0c0,0-0.1,0,0,0l0,0l-0.2,0.1l-1.4,0.6
		c-0.5,0.2-0.8,0.4-1.2,0.6c-0.4,0.2-0.8,0.4-1.2,0.6c-3.2,1.9-6,4.4-8.3,7.4c-2.3,3-3.9,6.5-5.1,10.2c-1.2,3.7-2,7.5-2.4,11.4
		c-0.5,3.9-0.6,7.8-0.5,11.8c0.1,3.9,0.4,7.9,0.8,11.8l-0.2-0.3l9.1,7.5c1.5,1.2,3.1,2.5,4.6,3.7l2.4,1.8l2.4,1.7l2.5,1.6l2.5,1.5
		l2.6,1.4l2.7,1.2l2.7,1.1l2.8,0.9l2.9,0.7L140.6,278.4z M140.6,278.4l-2.9-0.5l-2.9-0.7l-2.8-0.9l-2.8-1.1l-2.7-1.2l-2.6-1.4
		l-2.6-1.5l-2.5-1.6l-2.5-1.6l-2.4-1.7c-1.6-1.2-3.2-2.3-4.7-3.5l-4.6-3.6c-1.5-1.2-3.1-2.4-4.7-3.6l-0.1-0.1l0-0.2
		c-0.6-3.9-1.1-7.9-1.3-11.9c-0.2-4-0.3-8,0-12c0.3-4,0.9-8,1.9-12c1.1-3.9,2.7-7.8,5-11.3c2.3-3.5,5.4-6.5,8.9-8.8
		c0.4-0.3,0.9-0.6,1.4-0.8c0.5-0.2,1-0.6,1.4-0.8l1.3-0.6l0.2-0.1l0.1-0.1l0.1,0l0.4-0.1l0.7-0.3l5.6-2.2l5.8-1.8
		c1.9-0.6,3.9-1,5.9-1.5l1.5-0.4l1.5-0.3l3-0.5c2-0.4,4-0.5,6.1-0.7c2-0.3,4.1-0.2,6.1-0.3l1.5,0c0.5,0,1,0,1.5,0.1l3.1,0.1
		c1,0,2,0.2,3.1,0.3l3.1,0.4c1,0.1,2,0.4,3,0.6c1,0.2,2,0.4,3,0.7l3,0.9l1.5,0.4c0.5,0.2,1,0.4,1.5,0.5l2.9,1.1
		c1,0.4,1.9,0.9,2.8,1.3c1.9,0.8,3.7,2,5.5,3c0.9,0.5,1.7,1.2,2.6,1.8l1.3,0.9c0.4,0.3,0.8,0.7,1.2,1c0.8,0.7,1.6,1.4,2.4,2.1
		l2.1,2.1l0.5,0.5l0.1,0.1l0,0l0.1,0.1l0.1,0.1l0.3,0.3l1,1.2c0.6,0.8,1.3,1.6,1.9,2.5c2.4,3.4,4.4,6.9,6.2,10.5
		c3.6,7.2,6.4,14.8,8.8,22.4l0.3,0.9l-0.6,0.6l-4,3.7l-2,1.9l-0.5,0.5l-0.3,0.3l-0.3,0.2l-1.1,0.9c-1.4,1.2-2.8,2.4-4.3,3.5
		l-2.2,1.7l-2.2,1.6c-1.5,1.1-3,2.1-4.5,3.2c-1.5,1.1-3.1,2-4.7,3c-1.6,1-3.2,1.8-4.8,2.8c-1.6,0.9-3.3,1.7-4.9,2.5
		c-1.7,0.7-3.3,1.6-5,2.3l-2.6,1l-1.3,0.5l-1.3,0.4c-1.8,0.6-3.5,1.2-5.3,1.6l-2.7,0.7l-2.7,0.5c-0.9,0.2-1.8,0.4-2.7,0.5l-2.7,0.3
		c-1.8,0.3-3.7,0.3-5.5,0.4c-0.9,0.1-1.8,0-2.8,0l-2.8-0.1C144.2,278.8,142.4,278.6,140.6,278.4z"/>
</g>
<path class="st6" d="M199.4,207.9c-10.9-12-31.3-20-57.1-15.9c8.1,2.4,15.9,6.4,22.9,11.3c19.1,13.3,33.6,33.9,33,58
	c4.7-3.4,9.1-7,13.3-10.9c2.3-2.1,4.5-4.2,6.6-6.4C214.4,233.1,207.9,217.3,199.4,207.9z"/>
<g>
	<path class="st5" d="M181.9,217.6c0,0-22.2-16.6-28.7-26.2c-6.4-9.6-15.2-29.8-15.2-29.8l-36.8-10.3l24,51"/>
	<path d="M181.9,217.6c-5-3.4-9.9-6.9-14.7-10.7c-2.4-1.9-4.7-3.8-7-5.9c-2.3-2-4.5-4.2-6.5-6.5c-1-1.2-2-2.5-2.8-3.7
		c-0.9-1.3-1.7-2.6-2.5-3.9c-0.8-1.3-1.6-2.6-2.3-4c-0.8-1.3-1.5-2.7-2.2-4c-1.4-2.7-2.8-5.4-4.1-8.1c-0.7-1.4-1.4-2.7-2-4.1
		l-1.9-4.2l1.6,1.4c-6.1-1.7-12.3-3.3-18.4-5.1l-18.4-5.2l2.8-3.3l5.8,12.9l2.8,6.5c0.9,2.2,1.9,4.3,2.8,6.5l2.7,6.5
		c0.9,2.2,1.8,4.4,2.7,6.5c0.9,2.2,1.8,4.4,2.6,6.6c0.9,2.2,1.7,4.4,2.5,6.6c-1.2-2-2.4-4.1-3.5-6.1c-1.2-2.1-2.3-4.1-3.4-6.2
		c-1.1-2.1-2.3-4.1-3.3-6.2l-3.3-6.2c-1.1-2.1-2.1-4.2-3.2-6.3l-3.2-6.3l-6.2-12.6l-2.3-4.7l5.1,1.4l18.4,5.1
		c6.1,1.7,12.3,3.5,18.4,5.2l1.1,0.3l0.5,1.1l3.6,8.2c1.2,2.7,2.5,5.5,3.8,8.2l1.9,4.1c0.7,1.3,1.3,2.7,2,4c0.7,1.3,1.4,2.6,2.1,3.9
		c0.8,1.4,1.5,2.5,2.4,3.7c1.8,2.3,3.8,4.5,5.9,6.7c2.1,2.2,4.2,4.2,6.4,6.3c2.2,2,4.4,4.1,6.7,6.1
		C177.4,213.7,179.6,215.7,181.9,217.6z"/>
</g>
<path class="st6" d="M136.1,192.2c12.7,5.6,25.4,13.7,36.2,23.6l7,1.9c0,0-22.2-16.6-28.7-26.2c-6.4-9.6-15.2-29.8-15.2-29.8
	l-30.7-14.2l12.8,39.4c5,1.2,9.7,3.2,14,6.2C132.5,191.8,134.2,191.3,136.1,192.2z"/>
<g>
	<g>
		<path class="st5" d="M199,123c9.2-12.3,8.3-26.6,6.6-42.5c-3.7-34.4-36.1-58.7-72.5-54.1C96.8,30.9,70.3,62.5,74,96.9
			c0.9,8.6,3.7,16.6,7.8,23.6c0.9,0,1.8,0.3,2.7,0.9c13.1,8.7,18.4,25.1,27.3,37.4c5.6,7.7,11.7,15,18.1,22.1
			c8,0.5,16.8,0.2,25.9-0.9c36.3-4.5,64.4-21.1,62.7-37C217.4,134.3,213.4,126.6,199,123z"/>
		<path d="M199,123c1.6-2.3,3-4.8,4.1-7.4c1.1-2.6,1.8-5.3,2.3-8.1c0.5-2.8,0.7-5.6,0.8-8.4c0.1-2.8-0.1-5.6-0.3-8.4
			c-0.2-2.8-0.5-5.6-0.9-8.4c-0.1-0.7-0.2-1.4-0.3-2.1l-0.3-2.1c-0.2-1.4-0.5-2.7-0.8-4.1c-1.3-5.4-3.4-10.6-6.2-15.4
			c-0.7-1.2-1.5-2.4-2.2-3.5c-0.8-1.1-1.6-2.3-2.5-3.3c-1.7-2.2-3.6-4.2-5.5-6.2c-2-1.9-4.1-3.7-6.3-5.3c-2.3-1.6-4.5-3.1-7-4.4
			c-1.2-0.7-2.4-1.3-3.7-1.9c-1.3-0.5-2.5-1.1-3.8-1.6c-2.6-1-5.2-1.8-7.9-2.5c-5.3-1.3-10.8-2-16.3-1.9l-2.1,0L138,28
			c-1.4,0-2.7,0.2-4.1,0.4l-0.5,0l-0.5,0.1l-1,0.2c-0.7,0.1-1.4,0.2-2.1,0.3c-1.3,0.3-2.6,0.5-4,0.9c-5.3,1.3-10.5,3.3-15.3,5.8
			c-4.9,2.5-9.4,5.7-13.4,9.4c-2,1.8-4,3.8-5.7,5.8c-1.8,2-3.5,4.2-5,6.5c-1.5,2.3-2.8,4.7-4.1,7.1c-1.2,2.5-2.2,5-3.1,7.6
			c-0.8,2.6-1.6,5.2-2,7.9c-0.5,2.7-0.8,5.4-0.9,8.1c-0.2,5.4,0.3,10.9,1.6,16.2c1.3,5.3,3.4,10.3,6.1,15l-2-1.2
			c1.2,0,2.4,0.4,3.4,1l0.4,0.2l0.2,0.2l0.1,0.1l0.5,0.4l1,0.7c0.6,0.4,1.3,1.1,2,1.6l1,0.9c0.3,0.3,0.6,0.6,0.9,0.9
			c1.3,1.2,2.4,2.5,3.5,3.8l1.6,2c0.5,0.7,1,1.4,1.5,2c0.5,0.7,0.9,1.4,1.4,2.1c0.5,0.7,0.9,1.4,1.3,2.1c0.9,1.4,1.7,2.8,2.5,4.3
			l4.8,8.5c0.8,1.4,1.6,2.8,2.4,4.1c0.8,1.3,1.7,2.7,2.6,4c0.4,0.6,0.9,1.3,1.4,2l1.4,1.9c1,1.3,1.9,2.6,2.9,3.8
			c4,5.1,8.2,10,12.4,14.9l-1.4-0.7c5.5,0.4,11,0.4,16.5,0.1c2.8-0.1,5.5-0.4,8.2-0.7c1.3-0.1,2.8-0.3,4.1-0.5
			c1.4-0.2,2.7-0.4,4.1-0.6c10.9-1.8,21.6-4.7,31.7-9.3c2.5-1.1,4.9-2.4,7.3-3.8c2.4-1.4,4.6-2.9,6.7-4.7c2.1-1.7,4.1-3.7,5.7-5.8
			c0.8-1.1,1.5-2.2,2.1-3.4c0.5-1.2,1-2.5,1.2-3.8c0.1-0.3,0.1-0.7,0.1-1c0-0.3,0.1-0.7,0.1-1c0-0.7,0-1.3-0.1-2
			c-0.1-1.4-0.4-2.7-0.7-4c-0.7-2.6-1.9-5.1-3.7-7.2c-1.8-2.1-4-3.8-6.5-5.1C204.3,124.7,201.7,123.8,199,123z M199,123
			c2.7,0.6,5.4,1.4,8,2.6c2.5,1.2,4.9,2.8,6.9,4.9c2,2.1,3.3,4.7,4.2,7.4c0.4,1.4,0.7,2.8,0.9,4.2c0.1,0.7,0.2,1.5,0.2,2.2
			c0,0.4,0,0.7,0,1.1c0,0.4,0,0.7-0.1,1.1c-0.2,1.5-0.6,2.9-1.2,4.2c-0.6,1.3-1.3,2.6-2.1,3.8c-1.6,2.4-3.6,4.5-5.7,6.4
			c-2.1,1.9-4.4,3.6-6.8,5.1c-2.4,1.5-4.9,2.9-7.4,4.2c-2.5,1.2-5.1,2.4-7.8,3.4c-2.6,1-5.3,2-8,2.8c-2.7,0.9-5.4,1.6-8.2,2.3
			c-2.7,0.7-5.5,1.3-8.3,1.8c-1.4,0.3-2.8,0.5-4.2,0.7c-1.4,0.2-2.7,0.4-4.2,0.6c-2.8,0.4-5.6,0.7-8.4,0.9c-5.6,0.4-11.3,0.5-17,0.2
			l-0.8,0l-0.6-0.7c-4.4-4.8-8.7-9.8-12.8-14.9c-1-1.3-2-2.6-3-3.9l-1.5-2c-0.5-0.7-1-1.3-1.5-2c-1-1.4-1.9-2.8-2.8-4.2
			c-0.9-1.4-1.7-2.8-2.6-4.2l-4.9-8.4c-0.8-1.4-1.6-2.8-2.5-4.1c-0.4-0.7-0.8-1.3-1.3-2c-0.4-0.7-0.9-1.3-1.3-2
			c-0.5-0.6-0.9-1.3-1.4-1.9l-1.5-1.8c-1-1.2-2-2.3-3.2-3.4c-0.3-0.3-0.5-0.5-0.8-0.8l-0.8-0.7c-0.6-0.5-1.1-1-1.8-1.4l-1-0.7
			l-0.5-0.4l-0.1-0.1l0,0c0,0,0.1,0.1,0.1,0l0,0l0,0l-0.2-0.1c-0.4-0.2-0.8-0.3-1.2-0.4l-1.3-0.1l-0.7-1.2c-3-5.1-5.3-10.6-6.7-16.3
			c-1.4-5.7-2-11.7-1.8-17.6c0.1-2.9,0.4-5.9,1-8.8c0.5-2.9,1.3-5.8,2.2-8.5c0.9-2.8,2.1-5.5,3.4-8.2c1.3-2.6,2.8-5.2,4.4-7.6
			c1.6-2.4,3.4-4.8,5.4-7c1.9-2.2,4-4.3,6.2-6.2c4.4-3.9,9.3-7.2,14.5-9.9c5.2-2.7,10.7-4.7,16.4-6c1.4-0.4,2.9-0.6,4.3-0.9
			c0.7-0.1,1.4-0.2,2.1-0.3l1.1-0.2l0.5-0.1l0.6-0.1c1.5-0.1,2.9-0.3,4.4-0.3l2.2-0.1l2.2,0c5.8,0,11.7,0.9,17.3,2.4
			c2.8,0.8,5.6,1.7,8.3,2.8c1.4,0.5,2.7,1.2,4,1.8c1.3,0.7,2.6,1.3,3.8,2.1c2.5,1.4,4.9,3.1,7.3,4.8c2.3,1.8,4.5,3.7,6.5,5.8
			c2,2.1,4,4.3,5.6,6.6c0.9,1.1,1.7,2.4,2.5,3.6c0.7,1.2,1.5,2.5,2.2,3.8c2.8,5.1,4.7,10.6,5.9,16.2c0.3,1.4,0.5,2.9,0.7,4.3
			l0.2,2.1c0.1,0.8,0.1,1.4,0.2,2.1c0.2,2.8,0.5,5.7,0.6,8.5c0.1,2.8,0.1,5.7,0,8.6c-0.2,2.8-0.5,5.7-1.1,8.5
			c-0.6,2.8-1.5,5.5-2.7,8.1C202.2,118.3,200.7,120.8,199,123z"/>
	</g>
	<path class="st6" d="M182.4,166.4c5.2-7.5,7.1-16.4,2-23.8c-3.5-5.1-9.3-8.3-15.8-10.3c3.1-1.6,6.1-3.2,8.4-5.6
		c3.2-3.5,4.6-8,5.1-12.3c1.1-10-1.6-19.8-4.1-29.3c-2.9-11.1-4.1-22.5-6.8-33.6c-1.6-6.6-3.4-13.5-6-20.1
		c20.3,8.5,35.3,26.8,37.7,49.5c1.7,15.9,2.6,30.2-6.6,42.5c14.5,3.6,18.5,11.3,19.4,20c1.3,12.6-15.8,25.5-41,32.7
		C177.4,172.8,180.1,169.7,182.4,166.4z"/>
	<g>
		<path class="st5" d="M163,130.6l3.1,7.7l22.5-1.1c0,0,2.2,13.1-4,14s-18.3-3.9-18.3-3.9"/>
		<path d="M163,130.6c0.8,1.2,1.5,2.4,2.2,3.6c0.7,1.2,1.3,2.4,2,3.6L166,137c3.7-0.6,7.5-1.1,11.2-1.5c3.7-0.4,7.5-0.7,11.2-0.9
			l2.2-0.1l0.4,2.2c0.1,0.8,0.2,1.6,0.3,2.4c0.1,0.8,0.1,1.5,0.1,2.3c0,1.6-0.1,3.2-0.4,4.8c-0.2,0.8-0.4,1.7-0.7,2.5
			c-0.4,0.8-0.8,1.7-1.5,2.5c-0.7,0.8-1.7,1.5-2.8,1.8c-0.3,0.1-0.5,0.1-0.8,0.2l-0.2,0l-0.1,0l-0.2,0l-0.1,0l-0.3,0
			c-0.4,0-0.7,0-1.1,0l-1.3-0.1l-1.2-0.2c-0.8-0.1-1.5-0.3-2.3-0.5c-0.7-0.2-1.5-0.4-2.2-0.6c-0.7-0.2-1.4-0.5-2.1-0.7
			c-1.4-0.5-2.7-1.1-4.1-1.8c-1.3-0.7-2.6-1.3-3.9-2.1l4.3,0.8l2.1,0.4l2.1,0.3c1.4,0.2,2.8,0.4,4.2,0.5c0.7,0.1,1.4,0.1,2,0.1l1,0
			l0.9-0.1c0.3,0,0.7-0.1,1-0.1l0.3,0l0.1,0l0,0c0,0,0.1,0-0.1,0l0,0l0,0l0.1,0c0.1,0,0.2,0,0.2-0.1c0.3-0.1,0.5-0.3,0.7-0.6
			c0.5-0.6,0.8-1.7,1-2.9c0.2-1.2,0.2-2.5,0.2-3.9c0-0.7-0.1-1.3-0.1-2c0-0.7-0.1-1.4-0.2-2l2.6,2.1c-3.7,0.2-7.5,0.2-11.2,0.2
			c-3.8,0-7.5-0.1-11.3-0.4l-1-0.1l-0.2-0.7c-0.3-1.3-0.7-2.7-1-4C163.5,133.3,163.2,132,163,130.6z"/>
	</g>
	<g>
		<path class="st7" d="M106.1,119.2c0,0-2.5,21.4,4.7,28.3c7.2,6.9,13.2,18.4,13.2,18.4s-33.2-10.3-37.6-18.6
			c-4.4-8.2-18.5-35.9-18.5-35.9l2.3,23.6c0,0-35-63.8,14.5-95.4s60.3-27,60.3-27l41.5,2.9c0,0,37.8,46.4,37.4,76.5s6.9,60,6.9,60
			l-17.9-42.3l10,40.9l-19-57.4c0,0-13.3-59.2-52.3-55.7s-59.9,18.1-55.7,37S106.1,119.2,106.1,119.2z"/>
		<path d="M106.3,119.2c-0.3,4.3-0.3,8.7,0.1,13c0.2,2.1,0.5,4.3,1,6.4c0.5,2.1,1.1,4.1,2.2,5.9c0.5,0.9,1.1,1.7,1.8,2.4
			c0.8,0.8,1.6,1.5,2.3,2.3c0.8,0.8,1.5,1.6,2.2,2.5c0.7,0.8,1.4,1.7,2.1,2.6c1.3,1.8,2.6,3.6,3.8,5.4c1.2,1.9,2.3,3.7,3.4,5.7
			l1.5,2.7l-3-0.9c-3.3-1-6.6-2.1-9.9-3.3c-3.3-1.2-6.5-2.4-9.8-3.7c-3.2-1.3-6.4-2.7-9.5-4.4c-1.6-0.8-3.1-1.7-4.6-2.7
			c-1.5-1-3-2.1-4.3-3.8c-0.2-0.2-0.3-0.5-0.5-0.7c-0.2-0.2-0.3-0.5-0.4-0.7l-0.6-1.1l-1.2-2.3l-2.4-4.6l-4.8-9.2l-9.6-18.3l4-1.2
			l2.3,23.6l1.1,11.1l-5.2-9.8c-1.8-3.4-3.2-6.7-4.6-10.1c-1.4-3.4-2.6-6.9-3.6-10.4c-1-3.5-1.9-7.1-2.6-10.8
			c-0.7-3.6-1.2-7.3-1.3-11c-0.2-3.7-0.2-7.4,0.2-11.1l0.3-2.8c0.1-0.9,0.3-1.8,0.4-2.8c0.3-1.9,0.8-3.7,1.2-5.5
			c1.1-3.6,2.3-7.1,4.1-10.4c0.8-1.7,1.8-3.3,2.8-4.9c0.5-0.8,1.1-1.5,1.6-2.3l1.7-2.2l1.9-2.1c0.6-0.7,1.2-1.4,1.9-2l2-1.9l1-1
			l1.1-0.9c1.5-1.1,2.9-2.4,4.4-3.4c1.5-1,3.1-2.1,4.6-3c3.1-1.9,6.1-3.8,9.3-5.6c3.2-1.8,6.3-3.6,9.5-5.3c1.6-0.9,3.2-1.8,4.8-2.6
			l4.9-2.5c3.3-1.6,6.5-3.2,9.9-4.5c3.3-1.4,6.8-2.7,10.3-3.7c1.8-0.5,3.5-0.9,5.4-1.3l1.4-0.2l1.4-0.1c0.5,0,1,0,1.4,0
			c0.5,0.1,0.9,0.1,1.6,0.3l-0.3-0.1c6.9,0.5,13.8,1,20.7,1.5l20.7,1.4l0.4,0l0.2,0.3c3.9,4.8,7.5,9.7,11,14.8
			c3.5,5.1,6.9,10.2,10.1,15.4c1.6,2.6,3.1,5.3,4.6,8c1.5,2.7,2.9,5.5,4.2,8.2c1.3,2.8,2.5,5.6,3.7,8.5c1.1,2.9,2.1,5.8,2.9,8.9
			c0.8,3,1.5,6.1,1.7,9.3c0.3,3.2,0.2,6.2,0.3,9.3c0.1,3,0.2,6,0.5,9.1c0.1,1.5,0.2,3,0.4,4.5c0.1,1.5,0.3,3,0.4,4.5
			c0.3,3,0.7,6,1.1,9.1c0.4,3,0.9,6,1.4,9c0.5,3,1,6,1.7,9c0.6,3,1.2,6,1.9,8.9l-4.2,1.4l-18.1-42.2l4.6-1.5l10.2,40.9l-5.1,1.5
			l-9.5-28.7l-4.7-14.4l-4.7-14.4l0-0.1l0-0.1c-0.9-3.9-2.2-8-3.6-11.9c-1.4-3.9-3-7.8-4.8-11.5c-3.6-7.4-8.1-14.5-13.9-20.2
			c-2.9-2.8-6.1-5.3-9.7-7.1c-3.5-1.8-7.4-3-11.4-3.4c-1-0.1-2-0.1-3-0.2l-3,0.1c-2.1,0.2-4.2,0.4-6.3,0.6c-4.2,0.5-8.3,1.1-12.4,2
			c-4.1,0.9-8.1,1.9-12.1,3.3c-3.9,1.4-7.7,3-11.3,5.1c-3.5,2.1-6.8,4.7-9.2,7.9c-2.5,3.2-4,7-4.2,11c-0.1,2,0.2,4,0.7,6l1.3,6.2
			l2.6,12.5L106.3,119.2L106.3,119.2z M105.8,119.2l-6.2-24.7l-3.1-12.4l-1.5-6.2c-0.5-2.1-0.9-4.3-0.9-6.6c0-4.5,1.7-9,4.4-12.6
			c2.6-3.6,6.1-6.5,9.8-8.8c3.7-2.3,7.7-4.2,11.7-5.7c4.1-1.5,8.2-2.7,12.4-3.7c4.2-1,8.4-1.7,12.7-2.3c2.2-0.3,4.2-0.5,6.4-0.7
			l3.4-0.2c1.1,0,2.2,0.1,3.4,0.2c4.5,0.4,8.9,1.7,13,3.7c4,2,7.7,4.7,10.9,7.8c3.2,3.1,6,6.5,8.5,10.1c2.5,3.6,4.7,7.4,6.6,11.3
			c1.9,3.9,3.6,7.9,5.1,12c1.5,4.1,2.8,8.1,3.9,12.5l-0.1-0.2l4.8,14.3l4.7,14.4l9.5,28.7l-5.1,1.5l-9.8-41l4.6-1.5l17.7,42.4
			l-4.2,1.4c-0.7-3.1-1.3-6.1-1.8-9.1c-0.6-3-1.1-6.1-1.5-9.1c-0.5-3-0.9-6.1-1.2-9.2c-0.4-3.1-0.7-6.1-1-9.2
			c-0.2-1.5-0.3-3.1-0.4-4.6c-0.1-1.5-0.2-3.1-0.3-4.6c-0.2-3.1-0.2-6.2-0.3-9.3c0-3.1,0.1-6.2-0.1-9.1c-0.2-2.9-0.7-5.9-1.4-8.8
			c-0.7-2.9-1.6-5.8-2.6-8.6c-1-2.8-2.2-5.7-3.4-8.4c-1.2-2.8-2.6-5.5-4-8.2c-1.4-2.7-2.9-5.4-4.4-8c-3.1-5.3-6.3-10.5-9.7-15.5
			c-3.4-5-7-10-10.8-14.8l0.6,0.3l-20.7-1.5c-6.9-0.5-13.8-0.9-20.7-1.4l-0.1,0l-0.2-0.1c-0.2-0.1-0.7-0.1-1.1-0.2
			c-0.4,0-0.8,0-1.3,0l-1.3,0.1l-1.3,0.2c-1.7,0.3-3.5,0.7-5.2,1.3c-3.4,1.1-6.7,2.4-10,3.8c-3.3,1.4-6.5,3-9.7,4.7l-4.8,2.6
			c-1.6,0.8-3.1,1.8-4.7,2.7c-3.1,1.8-6.2,3.7-9.3,5.5C93,35.9,90,38,87,39.9c-1.6,1-2.9,2-4.4,3c-1.5,1-2.8,2.2-4.1,3.3l-1,0.9
			L76.5,48l-1.9,1.9c-0.6,0.6-1.2,1.3-1.7,2l-1.7,2c-2,2.8-4,5.7-5.4,8.9c-1.6,3.1-2.6,6.4-3.6,9.8c-0.3,1.7-0.8,3.4-1,5.1
			c-0.1,0.9-0.3,1.7-0.4,2.6l-0.2,2.6c-0.2,3.5-0.3,7,0,10.5c0.1,1.8,0.3,3.5,0.5,5.3c0.3,1.7,0.5,3.5,0.8,5.2
			c0.6,3.5,1.5,6.9,2.5,10.3c1,3.4,2.1,6.8,3.4,10.1c1.3,3.3,2.7,6.6,4.3,9.6l-4.1,1.3l-2.2-23.6l-1-11.1l5,9.9l9.4,18.5l4.7,9.2
			l2.3,4.6l1.2,2.3l0.6,1.2c0.1,0.2,0.2,0.3,0.3,0.5c0.1,0.1,0.2,0.3,0.3,0.4c0.8,1.1,2.1,2.1,3.4,3.1c1.3,0.9,2.8,1.8,4.2,2.6
			c2.9,1.6,6,3.1,9.2,4.5c3.1,1.4,6.3,2.7,9.5,3.9c3.2,1.2,6.4,2.4,9.7,3.5l-1.5,1.8c-1-1.9-2-3.8-3.2-5.6c-1.1-1.8-2.3-3.6-3.5-5.4
			c-0.6-0.9-1.2-1.7-1.9-2.6c-0.6-0.8-1.3-1.7-2-2.5c-0.7-0.8-1.4-1.6-2.2-2.4c-0.8-0.8-1.5-1.8-2-2.8c-1.1-2-1.7-4.2-2.1-6.4
			c-0.4-2.2-0.6-4.4-0.7-6.6c-0.1-2.2-0.1-4.4,0-6.6C105.4,123.5,105.6,121.3,105.8,119.2z"/>
	</g>
	<g>
		<path class="st7" d="M85,53.4c0,0-9.2,17.8,0.7,28.6s23.6,24.1,23.6,24.1L105,70c0,0,31,9.2,40.1,19.1s14.8,20.1,14.8,20.1
			l-8-47.7l9.7,17.3L157.9,47c0,0,25.9,23.4,32.8,40.2c6.8,16.8,10.7,26.9,10.7,26.9s7.8-30,1.5-48.2s-23.4-38-34.8-39.1
			s-37.8,0.1-37.8,0.1"/>
		<path d="M85.2,53.5c-1.1,2.4-1.8,5-2.4,7.5c-0.6,2.6-0.9,5.2-0.8,7.8c0.1,2.6,0.5,5.1,1.5,7.4c0.5,1.2,1.1,2.2,1.8,3.2l0.6,0.7
			l0.6,0.7c0.4,0.5,0.9,1,1.4,1.4c1.9,1.9,3.7,3.8,5.6,5.7l5.7,5.6c3.8,3.7,7.7,7.4,11.5,11.1l-3.3,1.7c-0.8-6-1.6-12-2.4-18l-1.1-9
			l-1.1-9l-0.4-3.4l3.3,1c2.8,0.9,5.6,1.8,8.4,2.8c1.4,0.5,2.8,1,4.1,1.5c1.4,0.5,2.7,1.1,4.1,1.6c1.4,0.6,2.7,1.1,4.1,1.7
			c1.3,0.6,2.7,1.2,4,1.9c1.3,0.7,2.6,1.3,3.9,2c1.3,0.7,2.6,1.5,3.9,2.2c0.6,0.4,1.3,0.8,1.9,1.2c0.6,0.4,1.2,0.8,1.9,1.3
			c1.2,1,2.4,1.8,3.5,3l0.8,0.8c0.3,0.3,0.5,0.6,0.7,0.8c0.5,0.6,0.9,1.1,1.4,1.7c1,1.1,1.9,2.3,2.8,3.5c1.8,2.3,3.5,4.7,5.1,7.2
			c1.6,2.5,3.1,4.9,4.6,7.5l-1.9,0.7L157,97.4l-1.9-11.9c-0.6-4-1.3-7.9-2-11.9c-0.7-4-1.4-7.9-2.1-11.9l-0.9-5l2.5,4.5
			c3.3,5.7,6.7,11.4,10,17.1l-2.3,0.7L156,47.2l-0.7-5l3.8,3.4c2.6,2.3,5,4.6,7.5,7c2.4,2.4,4.8,4.8,7.2,7.3
			c1.2,1.3,2.3,2.5,3.5,3.8c1.1,1.3,2.3,2.6,3.3,3.9c1.1,1.3,2.2,2.7,3.2,4c1.1,1.3,2,2.8,3.1,4.2c1,1.5,2,2.9,2.8,4.4l1.3,2.3
			c0.4,0.8,0.8,1.6,1.2,2.4c0.8,1.6,1.4,3.2,2,4.8l1.9,4.7l3.8,9.4l3.8,9.4l-5.1,0.3c0.7-2.7,1.3-5.6,1.8-8.4
			c0.5-2.8,0.9-5.7,1.3-8.5c0.3-2.9,0.6-5.7,0.8-8.6c0.1-1.4,0.1-2.9,0.1-4.3l0-2.1c0-0.7-0.1-1.4-0.1-2.1l-0.1-2.1l-0.2-2.1
			c-0.1-1.4-0.4-2.8-0.6-4.1l-0.2-1l-0.3-1l-0.5-2c-0.2-0.6-0.5-1.4-0.7-2c-0.3-0.6-0.5-1.3-0.8-1.9c-2.1-5.2-4.9-10.3-8.2-15
			c-3.2-4.7-6.9-9.1-11.1-13c-2.1-1.9-4.3-3.6-6.8-5c-1.2-0.7-2.5-1.2-3.7-1.6c-0.6-0.2-1.2-0.3-1.9-0.4c-0.7-0.1-1.5-0.2-2.2-0.2
			c-2.8-0.3-5.8-0.4-8.7-0.5c-2.9-0.1-5.8-0.2-8.8-0.2c-2.9-0.1-5.9-0.1-8.8-0.1l-8.8,0l0-0.5c2.9-0.2,5.9-0.5,8.8-0.7
			c2.9-0.2,5.9-0.3,8.8-0.5c2.9-0.1,5.9-0.3,8.8-0.3c3,0,5.9-0.1,8.9,0.1c0.7,0,1.5,0.1,2.2,0.1c0.8,0,1.6,0.1,2.4,0.3
			c1.6,0.4,3.1,0.9,4.5,1.6c2.8,1.4,5.3,3.1,7.7,5.1c4.7,3.9,8.7,8.4,12.2,13.2c3.6,4.8,6.6,10.1,9.1,15.6c0.3,0.7,0.6,1.4,0.9,2.1
			c0.3,0.7,0.5,1.3,0.8,2.1l0.7,2.2l0.3,1.1l0.2,1.1c0.3,1.5,0.6,3,0.8,4.5l0.3,2.3l0.1,2.3c0,0.8,0.1,1.5,0.1,2.3l0,2.3
			c0,1.5,0,3-0.1,4.5c-0.1,3-0.4,6-0.7,9c-0.4,3-0.8,5.9-1.3,8.9c-0.5,3-1.1,5.8-1.9,8.8l-2,8.1l-3-7.8l-3.7-9.4l-3.7-9.4l-1.8-4.7
			c-0.6-1.6-1.2-3.2-1.9-4.6c-0.3-0.7-0.6-1.5-1-2.2l-1.2-2.1c-0.8-1.4-1.7-2.8-2.6-4.2c-1-1.3-1.9-2.7-2.9-4c-1-1.3-2-2.6-3.1-3.9
			c-1-1.3-2.1-2.6-3.2-3.8c-1.1-1.3-2.2-2.5-3.3-3.8c-2.2-2.5-4.5-4.9-6.9-7.3c-2.3-2.4-4.7-4.8-7.1-7.1l3.1-1.6l3,31.9l0.6,6
			l-2.8-5.3c-3.1-5.8-6.2-11.7-9.4-17.5l1.6-0.6c0.6,4,1.2,8,1.9,11.9c0.7,4,1.3,8,2,11.9l2.1,11.9l2.2,11.9l1,5.3l-2.8-4.7
			c-1.5-2.4-3.1-4.8-4.8-7.1c-1.7-2.3-3.5-4.6-5.3-6.8c-0.9-1.1-1.9-2.2-2.8-3.2c-0.5-0.5-1-1.1-1.5-1.6c-0.2-0.3-0.5-0.6-0.7-0.8
			l-0.8-0.7c-0.9-0.9-2.1-1.7-3.2-2.5c-0.6-0.4-1.2-0.7-1.8-1.1c-0.6-0.4-1.2-0.7-1.8-1.1c-1.2-0.7-2.5-1.3-3.8-1.9
			c-1.3-0.6-2.6-1.2-3.9-1.8c-1.3-0.6-2.6-1.1-3.9-1.7c-1.3-0.5-2.7-1.1-4-1.6c-1.3-0.5-2.7-1-4-1.5l-4.1-1.4
			c-2.7-0.9-5.5-1.9-8.2-2.7l2.9-2.4l1.1,9l1,9c0.7,6,1.3,12,2,18.1l0.6,5.6l-3.9-3.9c-3.8-3.8-7.5-7.6-11.2-11.5
			c-3.7-3.9-7.3-7.8-10.9-11.8c-0.4-0.5-0.9-1-1.3-1.5l-0.7-0.8l-0.6-0.9c-0.8-1.2-1.4-2.5-1.9-3.8c-0.9-2.7-1.2-5.5-1.1-8.3
			c0.1-2.8,0.7-5.5,1.4-8.1c0.8-2.6,1.8-5.1,3.1-7.5L85.2,53.5z"/>
	</g>
	<g>
		<path class="st5" d="M146.9,155.3c0,0,4.9,7.9,9.5,8.2c4.6,0.3,16-1.7,16-1.7"/>
		<path d="M146.9,155.3c0,0,0.4,0.3,1.1,0.8c0.7,0.5,1.6,1.1,2.7,1.9c0.5,0.4,1.1,0.8,1.7,1.2c0.6,0.4,1.2,0.8,1.8,1.1
			c0.6,0.3,1.2,0.6,1.7,0.7c0.1,0.1,0.2,0,0.3,0l0.2,0l0,0l0,0c0.1,0-0.1,0-0.1,0l0,0l0,0l0.2,0l0.7,0l0.6,0c0.8,0,1.7-0.1,2.5-0.1
			c0.9,0,1.7,0,2.6,0c1.7,0,3.3,0.1,4.6,0.2c1.4,0.1,2.5,0.3,3.4,0.5c0.8,0.2,1.3,0.3,1.3,0.3s-0.4,0.3-1.2,0.7
			c-0.7,0.4-1.8,0.9-3.1,1.4c-1.3,0.5-2.9,1-4.6,1.4c-0.9,0.2-1.7,0.4-2.7,0.5c-0.9,0.1-1.8,0.2-2.9,0.2l-0.8,0l-0.7,0l-0.2,0l0,0
			l-0.1,0l0,0l-0.1,0l-0.5-0.1c-0.3-0.1-0.7-0.1-1-0.2c-0.3-0.1-0.6-0.2-0.9-0.3l-0.7-0.4c-0.5-0.3-0.9-0.6-1.3-0.9
			c-1.5-1.3-2.5-2.8-3.2-4C147.1,157.3,146.9,155.3,146.9,155.3z"/>
	</g>
	<g>
		<path class="st5" d="M119.8,140.7c0,0,12-0.7,18.7-6s9.9-11.8,9.9-11.8"/>
		<path d="M119.8,140.7c0,0,0.5-0.3,1.5-0.6c0.9-0.4,2.2-0.9,3.8-1.5c1.5-0.6,3.3-1.3,5.1-2.1c0.9-0.4,1.8-0.8,2.7-1.3
			c0.9-0.4,1.8-0.9,2.6-1.4c0.4-0.2,0.8-0.5,1.2-0.8l0.3-0.2l0.1,0c-0.1,0.1,0,0,0,0l0.2-0.1l0.7-0.5c0.5-0.3,0.8-0.6,1.2-0.9
			c0.4-0.3,0.8-0.6,1.1-0.9c1.5-1.3,2.9-2.5,4.1-3.6c2.5-2.3,4.2-3.8,4.2-3.8s0,0.1-0.1,0.4c-0.1,0.3-0.1,0.7-0.3,1.2
			c-0.3,1-0.7,2.4-1.5,3.9c-0.4,0.8-0.9,1.6-1.4,2.5c-0.6,0.8-1.2,1.7-1.9,2.5c-0.4,0.4-0.7,0.8-1.1,1.3c-0.4,0.4-0.8,0.9-1.2,1.2
			l-0.6,0.5l-0.2,0.1l-0.1,0.1l-0.1,0.1l-0.4,0.3c-0.5,0.4-1,0.8-1.6,1.1c-1.1,0.6-2.2,1.2-3.3,1.6c-1.1,0.4-2.2,0.8-3.3,1
			c-1.1,0.3-2.1,0.4-3.1,0.5c-1,0.1-1.9,0.2-2.8,0.2c-1.7,0-3.2-0.1-4.2-0.3c-0.5-0.1-0.9-0.2-1.2-0.2
			C120,140.7,119.8,140.7,119.8,140.7z"/>
	</g>
	<g>
		<path d="M195.8,126.7c0,0-0.2,0.3-0.7,0.8c-0.5,0.4-1.2,1-2.3,1.2c-0.6,0.2-1.2,0.2-1.9,0.2c-0.7,0-1.4-0.2-2.1-0.5
			c-0.4-0.1-0.7-0.3-1.1-0.5c-0.3-0.2-0.7-0.4-1-0.7l-0.5-0.4c-0.1,0,0,0-0.1-0.1l-0.1-0.1l-0.2-0.2c-0.2-0.2-0.4-0.4-0.7-0.7
			c-0.5-0.6-0.9-1.1-1.2-1.6c-0.4-0.5-0.7-1.1-0.9-1.7c-0.5-1.1-0.9-2.2-1.1-3.2c-0.2-1-0.3-1.8-0.2-2.4c0-0.6,0.1-1,0.1-1
			s0.3,0.2,0.8,0.5c0.5,0.3,1.2,0.8,1.9,1.5c0.7,0.6,1.5,1.4,2.2,2.1c0.4,0.4,0.8,0.8,1.1,1.2c0.4,0.4,0.7,0.8,1.1,1.2
			c0.1,0.2,0.4,0.4,0.6,0.7l0.2,0.2l0.1,0.1c-0.1-0.1,0,0,0,0l0.2,0.2c0.3,0.3,0.6,0.6,0.9,0.9c0.3,0.3,0.6,0.5,0.9,0.7
			c0.3,0.2,0.7,0.4,1.1,0.6c0.7,0.3,1.5,0.5,2,0.7c0.3,0.1,0.5,0.1,0.7,0.2C195.7,126.7,195.8,126.7,195.8,126.7z"/>
	</g>
	<g>
		<path class="st7" d="M117.6,110.4c0,0,0.3-0.4,0.9-1.1c0.6-0.7,1.5-1.6,2.6-2.6c1.1-1,2.5-2.1,4-3.2c0.7-0.6,1.5-1.1,2.3-1.6
			c0.8-0.5,1.6-1.1,2.5-1.6c0.8-0.5,1.7-1,2.5-1.5c0.8-0.5,1.7-0.9,2.4-1.4c0.4-0.2,0.8-0.4,1.1-0.6c0.1,0,0.2-0.1,0.2-0.1l0.3-0.2
			c0.1-0.1,0.3-0.2,0.4-0.3c0.6-0.4,1.1-0.8,1.5-1.2c0.8-0.9,1.3-2,1.7-2.8c0.2-0.4,0.3-0.8,0.5-1c0.3-0.3,0.4-0.1,0.4-0.1
			c0,0-0.2,0-0.2,0.2c0,0.2,0.1,0.5,0.2,1c0.2,0.9,0.5,2.3-0.1,4.1c-0.3,0.9-0.8,1.8-1.4,2.6c-0.2,0.2-0.4,0.4-0.5,0.6l-0.2,0.2
			l-0.3,0.3c-0.3,0.3-0.7,0.7-1.1,1c-0.7,0.6-1.5,1.2-2.3,1.8c-0.8,0.6-1.7,1.1-2.5,1.7c-1.7,1-3.5,2-5.2,2.8
			c-1.7,0.8-3.3,1.4-4.8,1.9c-1.4,0.5-2.7,0.8-3.6,1C118.1,110.3,117.6,110.4,117.6,110.4z"/>
	</g>
	<g>
		<path class="st7" d="M199,94.1c0,0-0.5,0.1-1.3,0.2c-0.8,0.1-2,0.2-3.3,0.1c-2.7-0.1-6.3-0.6-9.7-1.6c-1.7-0.5-3.4-1.1-5-1.9
			c-0.4-0.2-0.8-0.4-1.2-0.7c-0.2-0.1-0.4-0.3-0.6-0.4c-0.2-0.2-0.4-0.3-0.6-0.5c-0.7-0.6-1.3-1.4-1.7-2.1c-0.8-1.4-0.8-2.7-0.9-3.5
			c0-0.4,0-0.7,0-0.9c0-0.2-0.2-0.2-0.2-0.2c0,0,0,0,0.1-0.1c0.1,0,0.2,0,0.3,0c0.2,0.1,0.5,0.4,0.7,0.7c0.6,0.6,1.3,1.5,2.2,2.1
			c0.5,0.3,0.9,0.6,1.5,0.8c0.1,0,0.3,0.1,0.4,0.1c0.1,0,0.2,0.1,0.4,0.1c0.3,0.1,0.7,0.2,1,0.3c0.4,0.1,0.8,0.2,1.2,0.3
			c0.4,0.1,0.8,0.2,1.2,0.3c0.8,0.2,1.7,0.4,2.5,0.7c0.8,0.3,1.7,0.5,2.5,0.8c0.8,0.3,1.6,0.6,2.4,0.9c1.5,0.6,3,1.3,4.2,1.9
			c1.2,0.6,2.2,1.2,2.9,1.7C198.6,93.8,199,94.1,199,94.1z"/>
	</g>
</g>
<path class="st6" d="M138.9,205.9"/>
<path class="st8" d="M187.5,32.9c0,0,20.7,16,22.7,31.3s4.3,52.3,4.3,52.3l-7.2-18.9c0,0,0.8-13.3,0.3-21.6
	c-0.6-8.3-10.6-31-10.6-31L187.5,32.9z"/>
<polygon class="st8" points="162.3,71.7 162.3,40.9 157,59.6 "/>
<polygon class="st8" points="157,102.9 154.5,50.9 144,34.9 152.7,54.4 150.5,91.1 "/>
<polygon class="st8" points="106.8,60.9 101.3,53.1 104,65.9 106.8,93.9 "/>
<path class="st1" d="M395.9,469.5c0,0-94.5-9.6-141.7-29.1s-68-33.5-68-33.5s95.3,67.5,119.8,72.5s83,18.4,83,18.4L395.9,469.5z"/>
<path class="st9" d="M407.2,386.9c-7.6,13.1-35,11.5-61.2-3.6c-26.2-15.1-86-61.3-78.4-74.4c7.6-13.1,79.6,11.8,105.8,26.9
	C399.6,350.8,414.7,373.7,407.2,386.9z"/>
<path class="st10" d="M233.4,255.6c-1.7-3.5-12.2,7.1-30.1,15.9c-17.9,8.8-36.5,12.5-34.8,15.9s24.8,9.2,42.8,0.4
	S235.1,259,233.4,255.6z"/>
<path class="st10" d="M386,360.5c-1.7-3.5-6.7,4.5-17,9.5c-10.2,5-21.8,5.2-20.1,8.7c1.7,3.5,17.8,12.7,28.1,7.6
	C387.2,381.3,387.7,364,386,360.5z"/>
<path class="st5" d="M123.2,283.5c0,0,7.5,4.2,16.3,5.8c8.8,1.6,21.8,0.3,21.8,0.3s-21,5.8-27.2,7.1
	C128,297.9,123.2,283.5,123.2,283.5z"/>
<g>
	<path class="st5" d="M104.7,208.8c0,0-46,73.3-43.9,83.7s81.9,56.9,81.9,56.9l10-13.4L86,278l39-42.2l20.1,11.2"/>
	<path d="M104.7,208.8c-4.2,7-8.3,14-12.4,21c-4.1,7-8.1,14.1-12,21.2c-3.9,7.1-7.8,14.3-11.3,21.6c-1.8,3.6-3.5,7.3-5,11.1
		c-0.7,1.9-1.4,3.8-1.9,5.6c-0.2,0.9-0.4,1.9-0.3,2.7c0,0.2,0,0.3,0.1,0.5c0,0.1,0.1,0.3,0.2,0.5c0.2,0.4,0.5,0.7,0.7,1.1
		c1.2,1.5,2.6,2.8,4.1,4.2c1.5,1.3,3.1,2.6,4.7,3.8c3.2,2.5,6.5,4.9,9.8,7.2c6.6,4.6,13.4,9.1,20.3,13.5
		c13.7,8.7,27.6,17.1,41.6,25.4l-2,0.4l10.1-13.4l0.2,2l-33.3-29.1l-16.6-14.5l-16.6-14.6l-0.8-0.7l0.7-0.8l19.7-20.9
		c6.5-7,13.2-13.9,19.8-20.8l0.2-0.3l0.3,0.2l10,5.8l9.9,5.8l-10.2-5.4l-10.2-5.4l0.5-0.1c-6.4,7.1-12.8,14.3-19.2,21.3l-19.3,21.3
		l-0.1-1.5l16.8,14.3l16.7,14.4l33.4,28.9l1,0.9l-0.8,1.1l-10,13.4l-0.8,1.1l-1.2-0.7c-3.5-2.1-7-4.2-10.5-6.3L121,338
		c-6.9-4.3-13.8-8.6-20.7-13c-6.8-4.4-13.6-8.9-20.3-13.7c-3.3-2.4-6.6-4.8-9.8-7.3c-1.6-1.3-3.2-2.6-4.7-4c-1.5-1.4-3-2.8-4.4-4.6
		c-0.3-0.4-0.6-0.9-0.9-1.4c-0.1-0.3-0.3-0.5-0.4-0.9c-0.1-0.3-0.2-0.6-0.2-1c-0.1-1.3,0.2-2.3,0.4-3.4c0.5-2.1,1.3-4,2.1-5.9
		c1.6-3.8,3.4-7.5,5.2-11.1c3.7-7.3,7.7-14.4,11.8-21.4c4.1-7,8.3-14,12.6-20.9C95.9,222.4,100.3,215.6,104.7,208.8z"/>
</g>
<g>
	<path class="st5" d="M149.9,335.7c0,0,12.9,13.2,23.3,10.5c10.5-2.7,18.1,4.2,18.1,4.2l-27.5,2.2c0,0-5.1,16.7,1.2,19.7
		c6.3,3,11.6,7.8,11.6,7.8l-3.5,7L154,372.3l24.3,21.9l-7.7,3.1l-31.6-25l15.7,25h-7.3l-18.5-29.7l9.5,21.9l-9.5-5.4
		c0,0-5.9-27.9-4.1-37.9c1.9-10-2.2-24.1-2.2-24.1"/>
	<path d="M149.9,335.7c1.4,1.3,2.9,2.5,4.4,3.7c1.5,1.1,3.1,2.2,4.8,3.2c3.3,1.9,6.9,3.4,10.6,3.6c0.9,0,1.9,0,2.8-0.2l1.4-0.3
		c0.5-0.1,0.9-0.2,1.4-0.3c1-0.1,2-0.3,2.9-0.2c0.5,0,1,0,1.5,0c0.5,0,1,0.1,1.5,0.1c1.9,0.3,3.9,0.8,5.7,1.6
		c0.9,0.4,1.8,0.8,2.6,1.3c0.9,0.5,1.7,1,2.5,1.7l1.3,1.1l-1.7,0.1l-27.5,2.5l0.8-0.7c-0.4,1.3-0.7,2.8-1,4.2
		c-0.3,1.4-0.5,2.8-0.7,4.2c-0.1,1.4-0.2,2.8-0.1,4.2c0.1,1.4,0.3,2.7,0.8,3.9c0.3,0.6,0.6,1,1,1.4c0.2,0.2,0.4,0.3,0.7,0.4
		c0.3,0.2,0.6,0.3,1,0.5c0.6,0.3,1.4,0.7,2,1.1c0.7,0.4,1.3,0.7,1.9,1.1c1.3,0.8,2.5,1.6,3.7,2.5c0.6,0.4,1.2,0.9,1.8,1.4
		c0.6,0.5,1.2,0.9,1.7,1.4l0.7,0.6l-0.4,0.9l-3.4,7l-0.7,1.4l-1.2-1l-19.2-14.8l1.7-2.1l24.4,21.8l1.7,1.5l-2.2,0.9l-7.7,3.1
		l-0.8,0.3l-0.7-0.5c-5.3-4.2-10.6-8.3-15.8-12.5l-15.8-12.5l2.1-1.9l15.6,25l1.3,2.1l-2.4,0l-7.3,0l-0.7,0l-0.4-0.6l-9.2-14.9
		l-9.1-14.9l2-1.1l9.3,22l1.1,2.6l-2.5-1.4l-9.4-5.5l-0.3-0.2l-0.1-0.4c-1-5.1-1.9-10.3-2.6-15.5c-0.7-5.2-1.3-10.4-1.4-15.7
		c0-1.3,0-2.6,0.1-4c0-0.3,0-0.7,0.1-1l0.1-1l0.1-1l0.2-1l0.2-1l0.1-1c0.1-0.6,0.1-1.3,0.1-1.9c0.1-1.3,0-2.6,0-3.9
		c-0.1-2.6-0.4-5.2-0.8-7.8c-0.4-2.6-0.9-5.1-1.5-7.7c0.7,2.5,1.3,5.1,1.8,7.6c0.5,2.6,0.9,5.2,1,7.8c0.1,1.3,0.1,2.6,0.1,3.9
		c0,0.7,0,1.3-0.1,2l-0.1,1l-0.1,1l-0.1,1l-0.1,1l-0.1,1c0,0.3,0,0.6,0,1c-0.1,1.3,0,2.6,0,3.9c0.3,5.2,1,10.3,1.8,15.5
		c0.9,5.1,1.8,10.3,2.9,15.3l-0.4-0.6l9.5,5.3l-1.3,1.2l-9.6-21.8l2-1.1l9.3,14.8l9.3,14.8l-1.1-0.6l7.3,0l-1.1,2.1l-15.8-24.9
		l-4.4-7l6.5,5.1l15.8,12.4c5.3,4.1,10.5,8.3,15.8,12.5l-1.4-0.2l7.7-3.1l-0.4,2.4l-24.3-22l1.7-2.1l19.1,14.9l-1.9,0.4l3.5-7
		l0.3,1.5c-0.5-0.5-1.1-0.9-1.6-1.4c-0.6-0.5-1.1-0.9-1.7-1.3c-1.1-0.9-2.3-1.7-3.5-2.5c-0.6-0.4-1.2-0.8-1.8-1.1
		c-0.6-0.4-1.2-0.7-1.9-1c-0.3-0.2-0.6-0.3-1-0.5c-0.4-0.2-0.8-0.5-1.1-0.8c-0.7-0.6-1.1-1.4-1.5-2.2c-0.7-1.6-0.9-3.1-0.9-4.7
		c0-1.5,0-3,0.2-4.5c0.2-1.5,0.4-3,0.8-4.4c0.3-1.5,0.7-2.9,1.1-4.3l0.2-0.6l0.6,0l27.6-1.9l-0.4,1.2c-0.7-0.6-1.4-1.1-2.2-1.6
		c-0.8-0.5-1.6-0.9-2.4-1.3c-1.7-0.8-3.5-1.4-5.3-1.7c-0.5-0.1-0.9-0.1-1.4-0.2c-0.5-0.1-0.9-0.1-1.4-0.1c-0.9,0-1.9,0.1-2.8,0.1
		c-0.5,0.1-0.9,0.2-1.4,0.3l-1.4,0.3c-1,0.2-2,0.2-2.9,0.2c-2-0.1-3.9-0.6-5.7-1.3c-1.8-0.7-3.5-1.6-5.1-2.6c-1.6-1-3.2-2.2-4.7-3.4
		C152.6,338.4,151.2,337.1,149.9,335.7z"/>
</g>
<path class="st6" d="M161.3,191.1c25.6-4.2,40.6-14.1,42.4-11.7c4.2,5.4,64.1,22.8,64.1,22.8s58.6,10,59.9,12
	c1.3,2,27.3,18.8,25.3,20.7c-2,1.9-28.2-8.9-28.2-8.9s-43.6,4.9-54.5-0.3c-10.9-5.2-81.3-26.2-81.3-26.2"/>
<path class="st6" d="M114.7,246.9L86,278l44.7,38.8l-49.9-34.9l-10.2,0c0,0,16-12.5,17.7-15S114.7,246.9,114.7,246.9z"/>
<polygon class="st6" points="116.7,244.7 129.5,256.5 135,265.4 125,235.8 "/>
<polygon class="st6" points="123.2,230.1 151.1,221.5 157.8,222.4 150,224.1 "/>
<g>
	<path class="st5" d="M112.4,148.6c0,0-13.5-8.2-15.8-6.6c-2.3,1.7-4.3,14.3,1,18.6s19,9.8,26,10.4c7,0.6,8.6,0,8.6,0"/>
	<path d="M112.4,148.6c0,0-1.1-0.4-3-1.2c-1.9-0.7-4.6-1.9-7.8-2.9c-0.8-0.3-1.6-0.5-2.5-0.7c-0.4-0.1-0.8-0.2-1.2-0.2
		c-0.2,0-0.3,0-0.4,0c-0.1,0-0.1,0.1,0.1,0c0,0,0.1,0,0.1,0l0,0l0.2-0.2l0,0l-0.1,0.1l-0.2,0.3c0,0.1,0,0.2,0,0.2
		c-0.1,0.3-0.3,0.7-0.4,1.2c-0.2,0.9-0.4,1.8-0.5,2.8c-0.2,2-0.1,4,0.2,6c0.3,1.9,1.1,3.7,2.2,4.6l0.1,0.1l0,0c0,0,0.1,0.1-0.1,0
		l0,0l0.1,0.1l0.3,0.3c0.2,0.2,0.5,0.4,0.7,0.5c0.4,0.3,0.8,0.6,1.3,0.8c0.9,0.6,1.9,1.1,2.8,1.7c1.9,1,3.9,2,5.8,2.9
		c3.9,1.8,7.6,3.3,10.8,4.3c1.6,0.5,3.1,0.8,4.5,1.1c1.4,0.2,2.6,0.5,3.6,0.6c1,0.1,1.8,0.2,2.3,0.2c0.5,0,0.8,0,0.8,0
		s-0.3,0.2-0.8,0.3c-0.5,0.1-1.3,0.3-2.4,0.5c-1,0.1-2.3,0.3-3.7,0.3c-1.4,0.1-3.1,0.1-4.9-0.1c-3.6-0.5-7.7-1.5-11.9-3
		c-2.1-0.8-4.2-1.6-6.4-2.7c-1.1-0.5-2.1-1.1-3.2-1.7c-0.5-0.3-1.1-0.7-1.6-1.1c-0.3-0.2-0.5-0.3-0.7-0.5l-0.4-0.3l-0.1-0.1l0,0
		c-0.1-0.1-0.1,0-0.1-0.1l0,0l-0.2-0.2l-0.8-0.8c-0.3-0.3-0.5-0.6-0.7-0.9c-0.5-0.6-0.8-1.3-1.1-1.9c-0.3-0.7-0.5-1.3-0.7-2
		c-0.1-0.7-0.3-1.3-0.4-2c-0.4-2.6-0.2-5.1,0.2-7.4c0.2-1.2,0.5-2.3,1-3.4c0.2-0.6,0.5-1.1,0.8-1.7c0.2-0.4,0.5-0.8,0.8-1.1l0.3-0.3
		l0.1-0.1l0,0c0.4-0.4,0.2-0.1,0.3-0.2l0.1-0.1l0.2-0.1c0.7-0.3,1.1-0.3,1.5-0.3c0.4,0,0.7,0.1,1,0.1c0.6,0.1,1.1,0.3,1.6,0.5
		c1,0.4,1.8,0.8,2.6,1.2c1.6,0.9,3,1.7,4.2,2.5c1.2,0.8,2.2,1.6,3,2.2C111.5,147.8,112.4,148.6,112.4,148.6z"/>
</g>
</svg>
