<?xml version="1.0" encoding="utf-8"?>
<!DOCTYPE svg PUBLIC "-//W3C//DTD SVG 1.1//EN" "http://www.w3.org/Graphics/SVG/1.1/DTD/svg11.dtd">
<svg version="1.1" id="Layer_1" xmlns="http://www.w3.org/2000/svg" xmlns:xlink="http://www.w3.org/1999/xlink" x="0px" y="0px"
	 viewBox="0 0 1280 1107" enable-background="new 0 0 1280 1107" xml:space="preserve">
<g>
	<path fill="#463543" d="M627.01,25.99c19.33,4.32,37.71,14.14,50.93,29.04c9.39,10.49,16.14,23.04,21.03,36.18
		c6.82,13.99,9.82,29.43,11.44,44.79c0.21,7.69,1.63,15.32,0.96,23.04c-1.64,17.86-7.06,35.13-13.23,51.9
		c-1.98,5.66-4.7,11.06-6.11,16.91c16.65-6.22,29.89-19.8,37.37-35.75c11.99-24.74,14.21-52.95,13.05-80.04
		c0.29-12.66-1.07-25.33-3.99-37.65c-0.68-2.37-1.51-5.06-3.92-6.18l-0.61-0.38c-0.35-1.58-0.64-3.17-0.93-4.75
		c1.09,1.46,2.14,2.94,3.3,4.36c-0.46-4.68-2.36-9.02-3.31-13.6c7.56,14.59,14.95,29.29,22.13,44.08c1.88,3.92,4.29,7.7,4.97,12.09
		c0.66,4.79,3.86,8.98,3.45,13.94c-0.99,21.05-6.72,41.75-15.68,60.78c-1.26,2.77-2.98,5.32-5.16,7.43
		c-0.26-2.07-0.49-4.16-0.3-6.24c10.34-21.87,17.55-45.81,17.11-70.18c-1.29,5.36-1.53,10.89-2.51,16.31
		c-3,17.34-9.23,34.01-17.2,49.66c-2.76,5.52-6.1,10.73-8.67,16.35c-3.13,6.85-7.15,13.33-12.24,18.89
		c-6.32,6.44-11.66,13.73-17.31,20.73c1.23,1.24,2.46,2.49,3.7,3.74c2.86-3.32,5.61-6.74,8.46-10.07c1.54-1.15,3.21-2.14,4.86-3.15
		c0.98,6.41-5.7,10.03-8.11,15.25c-0.77,2.53,1.28,4.52,2.71,6.32c12.38,14.06,23.31,29.46,32,46.08
		c6.09,10.44,11.15,21.5,14.86,33.02c5.19,15.86,10.58,31.67,16.89,47.12c2.75,6.73,6.13,13.16,8.85,19.9
		c4.79-1.63,8.97-4.52,13.41-6.85c33.5099-18.2,69.54-31.76,106.77-40.05c12.88-2.61,26.17-5.39,37.28-12.81
		c3.71-2.35,6.55-5.74,9.43-8.98c4.18-4.01,6.04-9.71,7.21-15.22c1.53-7.89,2.08-15.93,2.75-23.93
		c2.33-34.97,2.52-70.03,3.02-105.07c-0.01-12.06,0.4-24.13-0.08-36.18c0.1-2.25-0.91-5.35,1.47-6.73
		c6.97-5.42,14.14-10.57,21.14-15.96c4.6,1.22,9.24,2.37,13.89,3.45c0.6,0.14,1.79,0.41,2.39,0.55
		c3.33-12.59,7.55-24.95,10.28-37.68c4.01-13.08,15.13-22.45,27.01-28.34c7.12,10.95,14.08,22.01,21.33,32.88
		c24.02-18.64,47.48-38.01,71.8201-56.23c1.98,14.91-0.05,29.94-2.2001,44.71c-1.03,8.88-2.86,17.73-2.52,26.71
		c15.88-11.72,31.1101-24.3,47.03-35.97c2.09-1.41,3.96-3.76,6.73-3.59c5.3501-0.1,10.7101-0.01,16.0801,0.07
		c-2.0801,18.15-5.11,36.18-7.0601,54.35c4.38-0.62,8.76-2.34,13.24-1.55c5.76,0.89,11.51,1.88,17.29,2.71
		c-4.59,9.51-8.5701,19.3-13.53,28.63c-1.24,2.39-2.27,4.88-3.16,7.42c9.7201,0.5,19.42-0.81,29.13-0.53
		c3.0601,4.03,4.99,9.11,6.7201,13.9c-1.8401,2.17-4.1801,3.89-5.86,6.2c-1.64,2.81-1.77,6.43-4.29,8.71
		c-26.03,25.96-52.11,51.88-77.99,77.99c-6.4501,7.2-13.51,13.86-19.5,21.46c-7.17,8.35-13.36,17.48-19.13,26.82
		c-9.64,17.21-15.6901,36.31-18.3301,55.83c-3.88,27.61-4.96,55.53-5.2799,83.39c-0.9401,18.26-0.3401,36.55,0.1799,54.81
		c4.47-0.35,8.9301-0.83,13.36-1.55c-2.9099,17.02-6.34,34.01-7.5299,51.27c-0.26,3.76,0.2799,7.56-0.42,11.29
		c-0.25,1.48-0.47,2.96-0.67,4.46c15.54-8.13,30.91-16.62,46.6001-24.48c6.09-3.21,12.3999-6.04,18.3199-9.58
		c3.54-1.92,7.28-3.43,10.9399-5.13c-5.7699,9.78-11.9099,19.33-18.0699,28.85c-1.6801,2.45-2.9399,5.3-2.34,8.33
		c-2.4301,0.63-4.54,2.02-6.16,3.93c7.75-1.18,15.17-3.79,22.64-6.0699c11.21-3.63,22.2-8.03,32.58-13.62
		c6.5-0.67,13.0801-0.16,19.62-0.1201c-8.73,19.1801-15.38,39.22-21.5599,59.33c-2.48,8.79-5.64,17.41-7.4301,26.38
		c-6.63,47.64-13.1899,95.3-19.86,142.94c-0.78,5.16-0.66,10.72,1.99,15.37c4.7001,9.2,13.8201,14.81,22.38,19.97
		c-1.17,17.8199-9,34.22-16.09,50.3199c-3.39,8.1801-6.8201,16.48-8.13,25.29c-1.29,9.1,2.8099,17.74,7.0599,25.51
		c8.88,15.48,20.4701,29.18,32.3601,42.41c6.6299,6.71,12.72,13.94,19.5499,20.46c5.87,6.05,12.28,11.64,17.66,18.12
		c1.9299,12.64,3.86,25.35,5.23,38.0599c-8.47,13.1001-17.77,25.7001-26.5601,38.62c-2.4099-4.2899-5.5699-8.1-7.8999-12.4099
		c-5.03-10.36-12.5801-19.35-17.5-29.73c2.38-5.4401,6.02-10.2201,9.39-15.0801c5.6699-7.6299,12.36-15.6,22.0499-17.87
		c-24.15-16.31-44.79-38.3199-57.51-64.69c-9.72-19.79-15.0399-41.56-16.85-63.48c-2.01-22.5,0.4-45.02,2.04-67.45
		c3.71-50.49,7.46-100.97,11.21-151.45c0.71-11.63,1.99-23.2401,2.3-34.9c-10.36,10.04-16.51,23.56-20.91,37.09
		c-7.3201,23.51-9.37,48.29-9.72,72.79c-0.48,35.38,3.4399,70.63,4.24,105.98c0.1799,20.04-5.47,39.74-14.11,57.69
		c-7.78,16.13-17.64,31.22-28.8401,45.17c-11.2999,13.8-24.6699,26.52-41.1,33.9301c-8.9199,3.89-18.72,6.42-28.49,5.83
		c-9.5599-2.23-13.66-12.95-22.61-16.34c-3.03-1.14-6.34-0.22-9.07,1.26c-4.01,2.15-7.49,5.1299-10.8,8.2
		c-5.28,4.99-10.45,10.18-14.35,16.35c5.59-0.93,12.32-3.75,17.3701,0.11c8.11,6.89,11.48,17.61,19.06,24.97
		c2.34,2.6,6.25,4,9.4999,2.17c5.0901-2.72,9.66-6.32,14.6-9.31c7.55-5.1,15.8601-9.25,22.39-15.71
		c12.9401-12.38,25.0701-25.57,37.88-38.08c11.53-11.1,22.5701-22.9,35.6001-32.3c0.9399,6.93,3.11,13.79,2.9299,20.82
		c-2.42,12.79-6.55,25.19-10.48,37.59c-1.54,4.53-2.71,9.35-5.72,13.2c-5.8101,7.47-13.2201,13.45-19.5901,20.4
		c-5.1599,5.63-8.76,12.6201-10.0199,20.17c6.6599-5.12,13.0399-10.67,20.35-14.89c5.99-3.47,12.63-6.7,19.75-6.29
		c3.3199,0.01,6.2899,1.66,9.14,3.19c-2-22.21-1.03-44.83,4.4199-66.52c1.9701-7.49,4.1801-14.96,7.62-21.92
		c13.26,27.73,30.17,53.5,46.52,79.44c-1.04,2.68-2.86,4.97-3.99,7.61c-1.54,3.29-1.74,6.97-2.1799,10.52
		c-10.29-16.01-20.5-32.06-30.8401-48.04c-1.1-1.65-2.2899-3.22-3.53-4.7401c0.02,1.42,0.0801,2.84,0.1801,4.28
		c-0.9399,17.74-0.8099,35.53-0.88,53.3101c0.11,6.7999-3.2,13.0399-6.79,18.6c-5.2999,7.86-11.47,15.21-18.7699,21.27
		c-3.9701,2.99-8.51,5.99-13.67,5.9399c-4.02-2.54-7.1801-6.24-10.9301-9.15c-8.9299-8.0599-17.6499-16.36-26.5699-24.4199
		c-2.48-2.3501-6.6-4.75-5.09-8.76c1.3199-6.48,3.48-12.9301,7.71-18.1201c8-10.66,21.27-16.19,28.12-27.86
		c2.87-4.62,1.99-10.27,2.2-15.43c-3.3099,2.12-6.6599,4.19-9.7,6.68c-25.86,16.1-51.35,32.78-76.97,49.2401
		c-3.3201,1.95-6.3101,4.5499-9.9301,5.9199c-7.93-3.72-15.44-8.3099-23.18-12.41c-7.03,8.1-13.84,16.3799-21.08,24.29
		c-5.78,6.39-13.69,12.15-22.79,11.05c0.29-3.1801,0.29-6.41,1.15-9.49c4.69-20.1,9.21-40.64,19.32-58.86
		c6.67-12.17,16.77-23.9,30.86-27.13c13.81-2.83,27.75,1.54,40.53,6.5c13.65-13.04,27.2899-26.07,40.9399-39.1
		c10.7001-9.97,20.51-20.84,29.9501-31.98c6.3899-7.75,12.6499-15.6801,17.8199-24.3c1.33-1.97,0.7-4.4,0.5-6.58
		c-1.85-12.89-2.29-25.94-2.13-38.96c-0.34-21.7,1.91-43.32,3.1-64.97c0.8101-14.67,2.27-29.34,1.7101-44.05
		c-0.5701-21.23-2.0601-42.59-7.3201-63.24c-2.5499,2.18-6.96,4.18-5.4299,8.28c-6.51,0.49-10.7001,5.83-15.5601,9.49
		c-11.83,9.47-23.6899,19-36.51,27.11c-2.3199-1.05-4.6699-2.01-7.03-2.94c1.67-0.9,3.3401-1.81,5.02-2.72
		c-2.3199-7.72-4.53-15.47-6.9099-23.17c-1.6201,0.8-3.2201,1.61-4.8101,2.42c0.3199,1.31,0.64,2.63,1,3.97
		c-3.02,0.44-6.3-0.32-9.11,1.08c-34.98,19.02-69.94,38.09-104.87,57.18c-15.43,8.82-31.66,16.35-46.07,26.83
		c-30.81,21.49-57.56,49.66-74.11,83.62c-19.65,41.72-33.04,85.99-46.02,130.13c-1.11,3.33-0.17,6.83,0.23,10.2
		c-1.67-0.37-3.33-0.71-4.98-1.04c-0.72,2.84-1.47,5.67-2.21,8.51c4.63,1,9.24,2.06,13.86,3.12
		c14.47-14.13,28.9901-28.21,43.39-42.42c1.32-1.16,2.67-2.82,4.66-2.4c9.43,0.54,17.76,6.26,23.73,13.3
		c9.76,11.27,14.62,25.58,21.15,38.76c3.88,8.06,7.75,16.15,12.13,23.95c1.08,2.47,3.78,3.21,6.09,4.09
		c-11.2-16.4-19.29-34.61-27.59-52.58c-3.53-8.16-8.15-15.81-13.53-22.87c5.82,2.31,9,8.08,12.16,13.12
		c7.04,12.92,12.47,26.63,19.36,39.65c3.15,7.09,7.88,13.4001,10.72,20.6401c1.01,2.2799-1.83,3.1499-3.05,4.5199
		c1.49,2.4801,3.16,4.8501,4.94,7.15c-22.85-7.7899-47.03-11.15-71.12-11.5599c-12.24-0.5601-24.45,0.9-36.55,2.61
		c-20.15,3.01-40.77,7.0599-61.08,2.96c-2.51-0.11-6.01-1.6699-7.65,1.01c-12.78,17.7-29.93,32.0601-49.14,42.34
		c-3.22-15.2899-6.61-30.5499-9.76-45.86c-14.3-2.01-28.62-3.86-42.92-5.8099c-3.85-0.5-7.72-1.2101-11.61-0.9401
		c-1.26,0.04-1.93,1.3-2.82,2c-13.03,13.1801-26.04,26.38-39.83,38.76c-3.34-15.08-6.14-30.28-9.67-45.32
		c-5.72,2.57-11.37,5.31-16.98,8.1c-5.52-2.11-10.62-6.0701-16.57-6.55c-5.81,5.53-9.64,13.14-16.69,17.3301
		c-3.92,2.3199-6.51,6.1599-9.61,9.38c-4.6-7.88-8.9-15.9401-13.49-23.8201c-0.56-1.22-1.71-2.45-1.01-3.83
		c4.94-14.33,11.21-28.18,18.16-41.64c3.96-7.17,7.88-14.45,12.85-20.98c5.95-6.17,11.48-13.76,20.21-16.01
		c8.38-1.88,16.78,2.01,23.61,6.59c7.12,4.84,13.17,11.05,18.88,17.45c11.81-7.02,23.5699-14.14,35.37-21.19
		c4.53-2.43,8.58-5.93,13.5099-7.5c8.05,0.06,16.1801,2.93,22.4,8.11c7.58,6.28,11.63,15.61,14.4,24.82
		c11.56-5.82,23.04-11.8,34.59-17.65c4.5-2.11,8.69-4.98,13.45-6.49c4.45,0.59,8.58,2.56,12.84,3.9
		c19.45-34.73,36.89-70.74,49.46-108.57c7.49-23.01,13.6-46.66,15.69-70.82c-0.38-0.09-1.15-0.28-1.54-0.37
		c-26.62-6.36-52.12-17.21-75.77-30.92c-9.04-5.66-17.82-12.25-23.9-21.15c-1.32-1.58-2.46-4-4.84-3.89
		c-1.23,0.13-2.11,1.03-2.95,1.83c-6.66,7.01-13.5,13.92-21.18,19.83c-9.72,8.7-20.19,16.48-30.56,24.38
		c-7.56,5.64-15.85,10.14-23.75,15.26c-31.47,19.3-65.63,33.99-100.78,45.12c-31.87,10.1-64.68,17.08-97.83,21.34
		c-27.47,3.14-55.16,5.25-82.82,4.04c-42.16-1.82-83.04-13.1-124.1-21.87c-6.76-1.58-13.59-2.91-20.32-4.62
		c16.41-8.1,33-15.9,48.82-25.12c35.49-20.33,68.57-44.66,99.61-71.2401c29.64-25.3,57.31-53.23,80.1-84.94
		c6.24-9.08,12.77-18.0699,17.56-28.02c-74.06-23.44-142.89-61.64-204.9-108.14c-34.32-25.91-67.15-53.95-96.79-85.16
		c-26.39-28.01-50.41-58.62-68.3-92.81c-16.89-32.13-27.88-67.85-28.48-104.32c4.99,3.1,9.83,6.45,14.87,9.49
		c4.14,3.12,8.61,5.78,13.01,8.52c33.28,20.49,67.82,38.84,102.98,55.89c5.96,2.8,11.68,6.19,18.03,8.07
		c5.9,2.08,11.3,5.29,16.97,7.87c33.5,15.69,67.35,30.61,100.93,46.1c39.45,18.25,79.02,36.28,117.68,56.16
		c5.01-6.47,9.23-13.49,13.79-20.27c13.13-19.9,26.23-39.82,39.32-59.74c8.1-12.2,15.79-24.7,24.41-36.55
		c12.56-17.6,25.4-35.06,39.8-51.21c6.07-6.59,12.28-13.24,19.83-18.18c2.79-1.48,6.2-4.11,9.41-2.3
		c16.48,8.8,32.31,18.8,48.79,27.56c5.3-1.47,9.91-4.77,14.93-6.99c10.16-5.42,21.2-9.5,30.13-16.96c4.25-3.45,8.09-7.71,9.97-12.94
		c2.28-6.17,1.04-12.86,1.25-19.28c-0.56-20.09-2.01-40.37-7.62-59.77c-0.81-6.83-3.77-13.15-6.76-19.27
		c-4.86-9.6-12.44-18.44-22.76-22.26c-5.39-1.87-11.44-3.38-17.0099-1.38c-12.91-0.65-23.67,8.05-32.22,16.73
		c-7.3,6.73-13.82,14.34-21.59,20.53c2.07-4.38,5.3701-7.99,8.55-11.58c13.24-14.3,29.04-25.89,44.88-37.13
		c1.5699-0.95,3.08-2.43,5.05-2.37c11.33-0.05,22.82,3.67,31.49,11.07c7.18,6.18,12.63,14.2,16.45,22.83
		c2.74,6.41,6.68,12.27,8.83,18.93c4.2401,13.5,5.89,27.62,6.78,41.68c0.01,4.66-0.09,9.35,0.73,13.96
		c0.5,8.07,0.06,16.16,0.36,24.24c1.3799-2.23,2.66-4.52,3.66-6.94c7.76-19.35,13.82-39.53,16.11-60.3
		c0.44-9.61,0.76-19.31-0.67-28.86c-1.52-18.38-9.41-35.85-20.08-50.72c-6.55-8.63-13.67-17.13-22.6-23.4
		C645.01,37.8,636.22,31.54,627.01,25.99 M705.16,128.26c0.39,5.57,0.45,11.16,0.56,16.75c0.21,10.47-2.16,20.76-4.9,30.8
		c-5.39,19.29-12.92,37.89-20.66,56.33c1.8-0.5,3.61-1.02,5.42-1.54c8.46-20.92,16.87-42.13,20.66-64.47
		c1.96-12.57,0.94-25.38-0.59-37.94L705.16,128.26 M667.28,143.85c1.06,13.36,2.2599,26.72,2.64,40.13
		c0.19,15.47,0.63,30.94,0.59,46.41c2.38-2.54,1.97-6.19,1.98-9.39c-0.26-10-0.05-20.01-0.38-30.02
		C670.93,175.25,671.47,159.18,667.28,143.85 M50.03,256.98c15.49,49.95,40.97,96.61,73.68,137.35
		c29.09,36.39,63.57,68.25,100.86,96.08c61.67,45.61,130.2,82.55,203.53,105.5c45.34,14.23,92.43,22.8701,139.87,25.6
		c24.5,1.23,49.13,1.44,73.5601-1.18c3.31-0.27,6.65-1.14,9.98-0.78c4.3,1.68,8.26,4.12,12.48,5.99
		c-50.29,48.91-106.15,92.25-166.66,127.81c-36.39,21.4301-74.89,39.29-114.8,53.11c-41.95,14.24-85.8,24.04-130.22,25.07
		c0,0.23,0,0.7,0,0.93c21.63,0.85,43.06,4.19,64.66,5.48c23.05,1.17,46.18-0.17,69.08-2.87c60.11-7.28,118.42-25.74,173.52-50.5
		c30.89-13.58,61.04-29.48,87.73-50.29c21.91-17.1801,41.64-38.26,52.93-64.01c9.6-21.46,11.94-45.78,8.12-68.88
		c-1.5699-8.43-4.21-17.13-10.19-23.54c-5.94-6.5-15.44-8.88-23.95-7.35c-12.38,2.18-24.12,6.85-36.05,10.69
		c-7.86,2.37-15.84,5.23-24.17,4.84c-17.56-0.33-35.76-4.29-50.06-14.97c-14.5-10.72-23.49-27.56-27.29-44.94
		c-5.07-36.27-9.55-72.62-13.81-108.99c-11.85,5.65-23.83,11.07-36.18,15.53c-6.99,2.41-14.16,4.89-21.66,4.8
		c-12.88-0.16-25.89,0.6-38.62-1.85c-24.91-4.29-47.53-16.61-67.93-31.1c-17.32-11.75-34.73-23.38-52.37-34.63
		c-7.31-4.54-14.59-9.32-22.78-12.15c-31.39-11.75-63.25-22.19-94.95-33.06c-19.73-6.6-39.52-13.12-58.62-21.41
		C101.37,291.24,74.25,276.07,50.03,256.98 M500.5,303.5c-10.13,9.23-19.7,19.28-27.35,30.7c-3.03,3.01-5.32,6.66-7.85,10.08
		c-6.85,9.3-13.28,18.91-19.18,28.83c-2.13,3.63-4.59,7.13-5.89,11.17c-6.54,9.68-10.74,20.7-14.64,31.64
		c16.88,0.97,33.45,5.29,50.38,5.38c3.93-1.02,6.96-4.11,10.63-5.79c12.12-5.91,24.71-10.77,37.26-15.68
		c2.25-0.6,3.31-2.75,4.36-4.62C539.15,375.38,550.4,355.7,560.47,335.4c1.79-3.96,4.22-7.91,4.14-12.4
		c0.01-10.01-0.05-20.02,0.03-30.03c-0.16-1.19,0.33-2.94-1.08-3.54c-8.1-4.24-17.55-5.14-26.56-4.67
		C522.94,286,510.88,294.53,500.5,303.5 M624.41,326.53c-14.81,2.02-27.61,10.68-39.0099,19.83
		c-12.14,10.16-23.56,21.36-32.85,34.23c-6.89,9.77-12.84,21.12-12.57,33.4c0.12,20.97,2.69,42.07,9.04,62.11
		c5,15.7,12.18,31.15,23.77,43.1c8.33,8.69,19.39,14.84,31.32,16.77c14.89,2.59,31.23-0.05,43.26-9.6
		c12.97-10.12,20.28-25.62,24.91-41.03c7.17-24.74,8.83-50.7,8.86-76.34c0.09-13.16-0.86-26.4-3.88-39.24
		c-2.77-11.62-7.57-23.26-16.32-31.68C651.42,328.79,637.41,325.21,624.41,326.53 M558.03,528.79c1.04,11.44,8.05,21.39,16.95,28.26
		c12.36,9.51,27.21,16.93,43.08,17.2c7.2,0.25,11.72-6.38,15.83-11.32c4.3-5.36,8.9-10.51,12.72-16.25
		c-12.25,0.2-24.4,2.54-36.67,1.94c-13.99-0.58-28.57-2.42-40.74-9.85C564.85,536.2,561.48,532.39,558.03,528.79 M801.04,785
		c-6.59,18.78-13.05,37.61-19.62,56.4c-13.97,39.91-28.03,79.88-37.99,121.02c-1.92,8.41-3.86,16.88-4.38,25.52
		c-0.28,13.94,0.39,28,3.44,41.64c22.76,1.49,44.94-5.0199,67.51-6.52c8.22-1.06,16.52-0.16,24.76-0.4
		c7.58-3.11,14.1-8.37,20.23-13.7c1.07-1.19,2.96-2.18,2.58-4.04c-0.48-6.71-1.64-13.41-3.6-19.85c-1.9-6.04-4.83-12.15-10.06-15.99
		c-5.64-4.23-13.39-4.01-19.84-2.02c-7.69,2.4-12.85,9.53-14.99,17.02c-2.6,9.16-4.51,18.5-7.12,27.66
		c-8.3-0.17-16.6,0.17-24.88-0.17c-10.47-0.81-18.99-7.83-26.3-14.76C776.65,926.15,802.81,855.6,828.85,785
		C819.58,785,810.31,785,801.04,785 M1178.78,818.08c-1.38,13.83-3.13,27.67-3.8201,41.55c3.05-5.22,4.9301-10.99,7.1801-16.57
		c3.29-7.92,3.0499-16.65,3.98-25.03C1183.66,818.05,1181.22,818.07,1178.78,818.08 M523.79,959.85c-2.94,3.71-3.73,8.54-4.2,13.13
		c3.81,1.02,7.7599,2.02,10.97,4.44c4.48,3.22,7.24,8.35,8.4,13.66c2.42,9.56-0.39,19.29-0.77,28.93c8.32-3.27,17.09-5.24,25.4-8.53
		c9.04-3.62,12.16-16.18,7.02-24.12c-6.14-10.17-13.94-19.32-22.48-27.54c-2.74-2.36-5.61-4.94-9.23-5.74
		C533.37,953.44,527.24,955.28,523.79,959.85 M594.71,972.87c7.12,1.66,12.78,6.72,16.68,12.72c6.51,9.97,11.71,21.34,12.03,33.43
		c9.15,0.17,18.3,0.06,27.46,0.07c-3.27-11.3701,6.26-21.64,4.14-32.9301c-3.06-9.0099-10.07-15.93-16.55-22.62
		c-5.25-4.93-11.6-10.84-19.4399-9.4C608.34,955.81,600.52,964.36,594.71,972.87 M699.36,959.34c-9.47,2.59-17,9.62-22.53,17.48
		c-7.6,10.78-13.64,23.32-13.86,36.75c10.65-7.84,21.22-15.77,32.1-23.3c11.2,7.71,20.28,18.05,28.67,28.65
		c0.97-6.15,3.49-11.87,5.44-17.73c2.42-7.05,0.64-14.64-1.96-21.36c-2.89-6.92-6.08-14.22-12.0699-19.02
		C710.69,957.18,704.52,957.95,699.36,959.34 M503.33,999.35c-6.19,9.48-7.73,21.17-7.19,32.28c6.35-5.46,12.05-11.62,17.96-17.54
		c4.77-5.23,10.19-10.1,13.73-16.29c1.4-5.62-2.57-10.4-5.22-14.91C514.95,986.64,507.93,992.07,503.33,999.35 M594.39,987.07
		c-10.04,18.86-15.31,39.79-20,60.5099c13.49-14.37,24.8-30.6199,36.18-46.67C605.84,995.58,600.32,991,594.39,987.07
		 M695.17,1003.01c-4.52,6.57-8.89,13.24-13.03,20.06c-2.36,4.31-5.89,8.69-5.09,13.93c1.04,9.3,4.62,18.11,5.31,27.48
		c5.78-9.6699,10.54-19.9199,16.82-29.29c3.37-5.9099,8.1-12.4,6.14-19.58C704.31,1009.95,699.98,1005.73,695.17,1003.01
		 M975.31,1003.14c-4.9,10.32-8.72,21.48-8.42,33.0499c7.72-6.36,15.61-12.58,22.5-19.8599c3.16-2.69,6.68-4.96,9.59-7.96
		C991.05,1006.77,983.22,1004.77,975.31,1003.14 M1218.1899,1020.14c2.7401,12.02,6.27,23.88,10.6801,35.4
		c4.59-6.63,9.54-13.0601,13.6901-19.9501c0.0299-5.1599-3.27-10.11-7.8101-12.47
		C1229.6899,1020.42,1223.8,1020.19,1218.1899,1020.14 M1120.72,1033.75c-3.4199,3.42-5.9399,8.29-4.85,13.24
		c1.26,6.14,3.67,12,6.08,17.77c6-7.34,11.89-14.9,16.67-23.1c1.35-6.03-0.95-12.4301-4.64-17.23
		C1129.1801,1026.9301,1124.49,1029.8199,1120.72,1033.75 M799,1028.72c-4.52,0.8-9.27,0.61-13.49,2.64
		c10.36,0.8201,20.91,0.42,31.05-2.0699c2.09-0.49,4.05-1.41,5.93-2.4401C814.64,1026.64,806.79,1027.8199,799,1028.72
		 M1232.03,1058.8199c-1.1901,1.8501-0.2001,4.0901,0.0599,6.0901c2.86-5.51,5.49-11.15,7.6901-16.9601
		C1237.13,1051.52,1234.35,1055.02,1232.03,1058.8199z"/>
	<path fill="#F0D500" d="M629.84,37.12c8.09,1.36,15.68,4.66,23.17,7.88c8.93,6.27,16.05,14.77,22.6,23.4
		c10.67,14.87,18.56,32.34,20.08,50.72c-4.67-20.3-15.28-39.1-30.08-53.74C655.06,54.36,642.6,45.39,629.84,37.12z"/>
	<path fill="#F0D500" d="M734.54,68.23c2.41,1.12,3.2401,3.81,3.92,6.18c2.92,12.32,4.28,24.99,3.99,37.65
		c-1.06-4.02-0.44-8.2-0.96-12.29C740.04,89.09,737.72,78.53,734.54,68.23z"/>
	<path fill="#F0D500" d="M1008.98,103.05c1.34-4.42,2.69-9.05,5.78-12.6c-2.73,12.73-6.95,25.09-10.28,37.68
		c-0.6-0.14-1.79-0.41-2.39-0.55C1004.32,119.38,1006.71,111.23,1008.98,103.05z"/>
	<path fill="#F0D500" d="M607.28,96.33c5.5699-2,11.62-0.49,17.0099,1.38c10.32,3.82,17.9,12.66,22.76,22.26
		c2.99,6.12,5.95,12.44,6.76,19.27c-3.42-7.73-6.89-15.63-12.82-21.83c-8.75-10.98-24.48-14.52-37.64-10.81
		c-6.61,1.89-12.77,5.28-17.9,9.85c-9.78,9.01-19.04,18.59-28.79,27.61c3.25-6.78,8.64-12.24,13.85-17.55
		C581.65,115.15,594.74,106.02,607.28,96.33z"/>
	<path fill="#463543" d="M603.35,106.6c13.16-3.71,28.89-0.17,37.64,10.81c-5.15-1.4-9.5-4.69-14.66-6.04
		c-5.26-1.72-10.89-2.46-16.36-1.46c-3.4,0.71-6.8799,0.72-10.3199,0.56c1.14-0.85,2.28-1.72,3.3-2.74
		C603.05,107.45,603.25,106.88,603.35,106.6z"/>
	<path fill="#F0D500" d="M757,132.07c0.98-5.42,1.22-10.95,2.51-16.31c0.44,24.37-6.77,48.31-17.11,70.18
		c-7.76,16.17-17.92,31.11-28.66,45.43c-2.85,3.33-5.6,6.75-8.46,10.07c-1.2401-1.25-2.47-2.5-3.7-3.74
		c5.65-7,10.99-14.29,17.31-20.73c5.09-5.56,9.11-12.04,12.24-18.89c2.57-5.62,5.91-10.83,8.67-16.35
		C747.77,166.08,754,149.41,757,132.07z"/>
	<path fill="#F0D500" d="M705.16,128.26l0.4901-0.07c1.53,12.56,2.55,25.37,0.59,37.94c-3.79,22.34-12.2,43.55-20.66,64.47
		c-1.81,0.52-3.62,1.04-5.42,1.54c7.7401-18.44,15.27-37.04,20.66-56.33c2.74-10.04,5.11-20.33,4.9-30.8
		C705.61,139.42,705.55,133.83,705.16,128.26z"/>
	<path fill="#F0D500" d="M667.28,143.85c4.1899,15.33,3.65,31.4,4.83,47.13c0.33,10.01,0.12,20.02,0.38,30.02
		c-0.01,3.2,0.4,6.85-1.98,9.39c0.04-15.47-0.4-30.94-0.59-46.41C669.54,170.57,668.34,157.21,667.28,143.85z"/>
	<path fill="#F0D500" d="M961.48,149.87c1.36-1.01,2.73-2.03,4.11-3.05c0.48,12.05,0.0699,24.12,0.08,36.18
		c-0.5,35.04-0.69,70.1-3.02,105.07c-0.67,8-1.22,16.04-2.75,23.93c-1.17,5.51-3.03,11.21-7.21,15.22
		c4.09-10.24,4.55-21.33,5.62-32.16c1.55-25.99,2.51-52.02,2.45-78.07C961.76,194.65,961.3,172.25,961.48,149.87z"/>
	<path fill="#F0D500" d="M40.2,233.26c0.11-0.69,0.33-2.07,0.44-2.76c42.26,28.89,87.78,52.57,133.58,75.24
		c-6.35-1.88-12.07-5.27-18.03-8.07c-35.16-17.05-69.7-35.4-102.98-55.89C48.81,239.04,44.34,236.38,40.2,233.26z"/>
	<path fill="#F0D500" d="M50.03,256.98c24.22,19.09,51.34,34.26,79.69,46.28c19.1,8.29,38.89,14.81,58.62,21.41
		c31.7,10.87,63.56,21.31,94.95,33.06c8.19,2.83,15.47,7.61,22.78,12.15c17.64,11.25,35.05,22.88,52.37,34.63
		c20.4,14.49,43.02,26.81,67.93,31.1c12.73,2.45,25.74,1.69,38.62,1.85c7.5,0.09,14.67-2.39,21.66-4.8
		c12.35-4.46,24.33-9.88,36.18-15.53c4.26,36.37,8.74,72.72,13.81,108.99c3.8,17.38,12.79,34.22,27.29,44.94
		c14.3,10.68,32.5,14.64,50.06,14.97c8.33,0.39,16.31-2.47,24.17-4.84c11.9301-3.84,23.67-8.51,36.05-10.69
		c8.5099-1.53,18.0099,0.85,23.95,7.35c5.98,6.41,8.6201,15.11,10.19,23.54c3.82,23.1,1.48,47.42-8.12,68.88
		c-11.29,25.75-31.02,46.83-52.93,64.01c-26.69,20.81-56.84,36.71-87.73,50.29c-55.1,24.76-113.41,43.22-173.52,50.5
		c-22.9,2.7-46.03,4.04-69.08,2.87c-21.6-1.29-43.03-4.63-64.66-5.48c0-0.23,0-0.7,0-0.93c44.42-1.03,88.27-10.83,130.22-25.07
		c39.91-13.82,78.41-31.68,114.8-53.11c60.51-35.56,116.37-78.9,166.66-127.81c-4.22-1.87-8.18-4.31-12.48-5.99
		c-3.33-0.36-6.67,0.51-9.98,0.78c-24.4301,2.62-49.0601,2.41-73.5601,1.18c-47.4399-2.73-94.53-11.37-139.87-25.6
		c-73.33-22.95-141.86-59.89-203.53-105.5c-37.29-27.83-71.77-59.69-100.86-96.08C91,353.59,65.52,306.93,50.03,256.98z"/>
	<path fill="#F0D500" d="M500.5,303.5c10.38-8.97,22.44-17.5,36.5-18.74c9.01-0.47,18.46,0.43,26.56,4.67
		c1.41,0.6,0.92,2.35,1.08,3.54c-0.08,10.01-0.02,20.02-0.03,30.03c0.08,4.49-2.35,8.44-4.14,12.4
		c-10.0699,20.3-21.3199,39.98-32.25,59.81c-1.05,1.87-2.11,4.02-4.36,4.62c-12.55,4.91-25.14,9.77-37.26,15.68
		c-3.67,1.68-6.7,4.77-10.63,5.79c-16.93-0.09-33.5-4.41-50.38-5.38c3.9-10.94,8.1-21.96,14.64-31.64
		c10.96-16.7,21.97-33.38,32.92-50.08C480.8,322.78,490.37,312.73,500.5,303.5 M466.27,365.29c-6.3,7.9-9.82,18.46-8.16,28.53
		c2.91,7.99,11.43,11.75,18.75,14.76c10.91-12.01,21.89-24.64,27.75-39.99c2.92-8.15,3.86-18.69-2.72-25.37
		C488.63,347.78,475.27,354.17,466.27,365.29z"/>
	<path fill="#F0D500" d="M624.41,326.53c13-1.32,27.01,2.26,36.53,11.55c8.75,8.42,13.55,20.06,16.32,31.68
		c3.02,12.84,3.97,26.08,3.88,39.24c-0.03,25.64-1.69,51.6-8.86,76.34c-4.63,15.41-11.94,30.91-24.91,41.03
		c-12.03,9.55-28.37,12.19-43.26,9.6c-11.93-1.93-22.99-8.08-31.32-16.77c-11.59-11.95-18.77-27.4-23.77-43.1
		c-6.35-20.04-8.92-41.14-9.04-62.11c-0.27-12.28,5.68-23.63,12.57-33.4c9.29-12.87,20.71-24.07,32.85-34.23
		C596.8,337.21,609.6,328.55,624.41,326.53 M573.98,422.99c-2.21,4.76-5.6,9.52-4.99,15.02c0.52,6.1,3.96,11.94,9.18,15.19
		c9.66-0.39,17.97-6.92,24.06-14c7.96-9.74,14.35-21.2,16.4-33.73c1.01-7.41,0.95-15.95-4.67-21.62
		C595.62,390.3,582.54,406.13,573.98,422.99z"/>
	<path fill="#463543" d="M466.27,365.29c9-11.12,22.36-17.51,35.62-22.07c6.58,6.68,5.64,17.22,2.72,25.37
		c-5.86,15.35-16.84,27.98-27.75,39.99c-7.32-3.01-15.84-6.77-18.75-14.76C456.45,383.75,459.97,373.19,466.27,365.29z"/>
	<path fill="#463543" d="M573.98,422.99c8.56-16.86,21.64-32.69,39.98-39.14c5.62,5.67,5.68,14.21,4.67,21.62
		c-2.05,12.53-8.44,23.99-16.4,33.73c-6.09,7.08-14.4,13.61-24.06,14c-5.22-3.25-8.66-9.09-9.18-15.19
		C568.38,432.51,571.77,427.75,573.98,422.99z"/>
	<path fill="#F0D500" d="M558.03,528.79c3.45,3.6,6.8199,7.41,11.17,9.98c12.17,7.43,26.75,9.27,40.74,9.85
		c12.27,0.6,24.42-1.74,36.67-1.94c-3.82,5.74-8.42,10.89-12.72,16.25c-4.11,4.94-8.63,11.57-15.83,11.32
		c-15.87-0.27-30.72-7.69-43.08-17.2C566.08,550.18,559.07,540.23,558.03,528.79z"/>
	<path fill="#F0D500" d="M1151.23,544.16c4.48-2.21,8.8301-4.68,13.5-6.5c-0.83,1.55-1.65,3.1-2.6,4.58
		c-5.92,3.54-12.23,6.37-18.3199,9.58c-15.6901,7.86-31.0601,16.35-46.6001,24.48c0.2001-1.5,0.42-2.98,0.67-4.46
		C1115.5601,562.41,1133.33,553.16,1151.23,544.16z"/>
	<path fill="#F0D500" d="M1190.59,559.56c3.54-2.15,7.8401-0.9,11.75-1.32l-0.62,0.29c-10.38,5.59-21.37,9.99-32.58,13.62
		c-7.47,2.28-14.89,4.89-22.64,6.0699c1.62-1.91,3.73-3.3,6.16-3.93C1165.7,570.53,1178.5601,565.88,1190.59,559.56z"/>
	<path fill="#F0D500" d="M1154.26,661.22c4.4-13.53,10.55-27.05,20.91-37.09c-0.3101,11.66-1.5901,23.27-2.3,34.9
		c-3.75,50.48-7.5,100.96-11.21,151.45c-1.64,22.43-4.05,44.95-2.04,67.45c1.8101,21.92,7.13,43.69,16.85,63.48
		c12.72,26.3701,33.36,48.38,57.51,64.69c-9.6899,2.27-16.38,10.2401-22.0499,17.87c-3.37,4.86-7.01,9.64-9.39,15.0801
		c4.9199,10.38,12.47,19.37,17.5,29.73c-0.4601,0.53-1.39,1.58-1.8501,2.11c-5.0599-8.59-10.2699-17.09-15.58-25.53
		c-0.5499-1.12-1.58-2.17-1.36-3.47c0.9399-5.46-3.95-9.41-6.1899-13.9c-0.1201,1.4401-0.2201,2.89-0.28,4.36
		c-11.6801-17.72-22.85-35.8-34.41-53.6c-0.1-1.44-0.16-2.86-0.1801-4.28c1.2401,1.52,2.4301,3.09,3.53,4.7401
		c10.3401,15.98,20.55,32.03,30.8401,48.04c0.4399-3.55,0.6399-7.23,2.1799-10.52c1.13-2.64,2.95-4.93,3.99-7.61
		c-16.35-25.94-33.26-51.71-46.52-79.44c-3.4399,6.96-5.6499,14.43-7.62,21.92c-5.45,21.69-6.4199,44.31-4.4199,66.52
		c-2.8501-1.53-5.8201-3.18-9.14-3.19c-7.12-0.41-13.76,2.82-19.75,6.29c-7.3101,4.22-13.6901,9.77-20.35,14.89
		c1.2599-7.5499,4.86-14.54,10.0199-20.17c6.37-6.95,13.78-12.93,19.5901-20.4c3.01-3.85,4.1799-8.67,5.72-13.2
		c3.9299-12.4,8.0599-24.8,10.48-37.59c0.1801-7.03-1.99-13.89-2.9299-20.82c-13.03,9.4-24.0701,21.2-35.6001,32.3
		c-12.8099,12.51-24.9399,25.7-37.88,38.08c-6.5299,6.46-14.84,10.61-22.39,15.71c-4.9399,2.99-9.5099,6.59-14.6,9.31
		c-3.2499,1.83-7.16,0.43-9.4999-2.17c-7.58-7.36-10.95-18.08-19.06-24.97c-5.05-3.86-11.78-1.04-17.3701-0.11
		c3.9-6.17,9.07-11.36,14.35-16.35c3.31-3.07,6.79-6.05,10.8-8.2c2.73-1.48,6.04-2.4,9.07-1.26c8.95,3.39,13.05,14.11,22.61,16.34
		c9.77,0.59,19.5701-1.94,28.49-5.83c16.4301-7.41,29.8-20.13,41.1-33.9301c11.2001-13.95,21.0601-29.04,28.8401-45.17
		c8.64-17.95,14.2899-37.65,14.11-57.69c-0.8-35.35-4.72-70.6-4.24-105.98C1144.89,709.51,1146.9399,684.73,1154.26,661.22z"/>
	<path fill="#F0D500" d="M1123.05,665.02c-1.53-4.1,2.88-6.1,5.4299-8.28c5.26,20.65,6.75,42.01,7.3201,63.24
		c0.5599,14.71-0.9,29.38-1.7101,44.05c-1.1899,21.65-3.4399,43.27-3.1,64.97c-0.16,13.02,0.28,26.07,2.13,38.96
		c0.2,2.18,0.83,4.61-0.5,6.58c-5.17,8.62-11.4301,16.55-17.8199,24.3c-9.4401,11.14-19.25,22.0099-29.9501,31.98
		c-13.65,13.03-27.2899,26.06-40.9399,39.1c-12.78-4.96-26.72-9.33-40.53-6.5c-14.09,3.23-24.19,14.96-30.86,27.13
		c-10.11,18.22-14.63,38.7601-19.32,58.86c-1.73-0.2001-3.45-0.4301-5.15-0.67c1.28-11.36,4.08-22.49,6.97-33.53
		c4.48-15.78,10.21-31.68,20.49-44.69c6.1-7.69,14.49-13.98,24.3-15.79c11.11-1.62,22.37,0.75,32.79,4.61
		c1.9301,0.62,3.87,1.67,5.98,1.41c5.2301-4.46,9.99-9.46,14.99-14.18c15.0701-14.58,30.8101-28.52,44.75-44.21
		c9.4901-10.65,18.6901-21.64,26.27-33.75c1.8401-2.19,0.85-5.1,0.6-7.62c-2.1399-14.57-1.9399-29.34-1.8899-44.03
		c-0.01-22.38,2.6-44.63,3.47-66.97c1.09-9.96,1.01-19.99,0.99-29.99C1127.86,701.58,1126.46,683.13,1123.05,665.02z"/>
	<path fill="#F0D500" d="M1057.25,675.21c1.59-0.81,3.1899-1.62,4.8101-2.42c2.3799,7.7,4.59,15.45,6.9099,23.17
		c-1.6799,0.91-3.35,1.82-5.02,2.72c-1.6899-6.57-3.84-12.99-5.7-19.5C1057.89,677.84,1057.5699,676.52,1057.25,675.21z"/>
	<path fill="#F0D500" d="M786.51,774.17c0.39,0.09,1.16,0.28,1.54,0.37c-2.09,24.16-8.2,47.81-15.69,70.82
		c-12.57,37.83-30.01,73.84-49.46,108.57c-4.26-1.34-8.39-3.31-12.84-3.9c-4.76,1.5099-8.95,4.3799-13.45,6.49
		c-11.55,5.85-23.03,11.83-34.59,17.65c-2.77-9.21-6.82-18.54-14.4-24.82c-6.22-5.18-14.35-8.05-22.4-8.11
		c-4.93,1.57-8.98,5.07-13.5099,7.5c-11.8,7.05-23.56,14.17-35.37,21.19c-5.71-6.4-11.76-12.61-18.88-17.45
		c-6.83-4.58-15.23-8.47-23.61-6.59c-8.73,2.25-14.2599,9.84-20.21,16.01c3.63-6.51,8.4-12.38,13.81-17.4901
		c4.69-4.4,10.94-7.9,17.59-6.91c10.43,1.24,19.14,7.9,26.73,14.71c3.09,2.57,5.44,5.89,8.39,8.6c3.06-0.81,5.61-2.83,8.34-4.36
		c12.84-7.65,25.58-15.49,38.5-23c10.47-0.53,21.18,4.26,27.78,12.43c4.37,5.8,7.23,12.55,9.46,19.43c1.54-0.72,3.09-1.44,4.62-2.18
		c14.09-7.2,28.22-14.32,42.24-21.65c4.17,1.44,8.4,2.75,12.56,4.25c20.33-36.4,38.52-74.22,50.9-114.11
		c4.55-14.76,8.23-29.8,10.7-45.05C785.85,782.46,786.81,778.35,786.51,774.17z"/>
	<path fill="#F0D500" d="M801.04,785c9.27,0,18.54,0,27.81,0c-26.04,70.6-52.2,141.15-78.0699,211.81
		c7.31,6.93,15.83,13.95,26.3,14.76c8.28,0.34,16.58,0,24.88,0.17c2.61-9.16,4.52-18.5,7.12-27.66c2.14-7.49,7.3-14.62,14.99-17.02
		c6.45-1.99,14.2-2.21,19.84,2.02c5.23,3.84,8.16,9.95,10.06,15.99c1.96,6.44,3.1201,13.14,3.6,19.85c0.38,1.86-1.51,2.85-2.58,4.04
		c-6.13,5.33-12.65,10.59-20.23,13.7c-8.24,0.2401-16.54-0.66-24.76,0.4c-22.57,1.5001-44.75,8.0099-67.51,6.52
		c-3.05-13.64-3.72-27.7-3.44-41.64c0.52-8.64,2.46-17.11,4.38-25.52c9.96-41.14,24.02-81.11,37.99-121.02
		C787.99,822.61,794.45,803.78,801.04,785z"/>
	<path fill="#F0D500" d="M1178.78,818.08c2.4399-0.01,4.88-0.03,7.34-0.05c-0.9301,8.3799-0.6899,17.11-3.98,25.03
		c-2.25,5.58-4.13,11.35-7.1801,16.57C1175.65,845.75,1177.4,831.91,1178.78,818.08z"/>
	<path fill="#463543" d="M654.78,945.88c1.9399,0.6,4,1.31,5.23,3.08c3.47,4.39,5.23,9.86,8.85,14.17
		c-1.53,0.74-3.08,1.46-4.62,2.18C662.01,958.43,659.15,951.68,654.78,945.88z"/>
	<path fill="#F0D500" d="M824.05,951.05c1.94-1.84,3.67-3.97,5.96-5.4c9.77,0.24,18.76,5.7,24.99,12.99
		c5.38,7.06,10,14.71,13.53,22.87c8.3,17.97,16.39,36.18,27.59,52.58c-2.31-0.88-5.01-1.62-6.09-4.09
		c-4.38-7.8-8.25-15.89-12.13-23.95c-6.53-13.18-11.39-27.49-21.15-38.76c-5.97-7.04-14.3-12.7599-23.73-13.3
		c-1.99-0.42-3.34,1.24-4.66,2.4c-14.4,14.21-28.92,28.29-43.39,42.42c-4.62-1.06-9.23-2.12-13.86-3.12
		c0.74-2.84,1.49-5.67,2.21-8.51c1.65,0.33,3.31,0.67,4.98,1.04c2.06,0.4,4.07,1.14,6.18,1.33
		C797.73,976.79,810.95,963.98,824.05,951.05z"/>
	<path fill="#F0D500" d="M523.79,959.85c3.45-4.5699,9.58-6.41,15.11-5.77c3.62,0.8,6.49,3.38,9.23,5.74
		c8.54,8.22,16.34,17.37,22.48,27.54c5.14,7.94,2.02,20.5-7.02,24.12c-8.31,3.29-17.08,5.26-25.4,8.53
		c0.38-9.64,3.19-19.37,0.77-28.93c-1.16-5.31-3.92-10.44-8.4-13.66c-3.21-2.42-7.16-3.42-10.97-4.44
		C520.06,968.39,520.85,963.56,523.79,959.85z"/>
	<path fill="#F0D500" d="M594.71,972.87c5.81-8.51,13.63-17.06,24.32-18.73c7.84-1.44,14.1899,4.47,19.4399,9.4
		c6.48,6.69,13.4901,13.61,16.55,22.62c2.12,11.29-7.41,21.56-4.14,32.9301c-9.16-0.01-18.31,0.1-27.46-0.07
		c-0.32-12.09-5.52-23.46-12.03-33.43C607.49,979.59,601.83,974.53,594.71,972.87z"/>
	<path fill="#F0D500" d="M699.36,959.34c5.16-1.39,11.33-2.16,15.79,1.47c5.99,4.8,9.18,12.1,12.0699,19.02
		c2.6,6.72,4.38,14.31,1.96,21.36c-1.95,5.86-4.47,11.58-5.44,17.73c-8.39-10.6-17.47-20.94-28.67-28.65
		c-10.88,7.53-21.45,15.46-32.1,23.3c0.22-13.43,6.26-25.97,13.86-36.75C682.36,968.96,689.89,961.93,699.36,959.34z"/>
	<path fill="#F0D500" d="M1106,980.81c3.04-2.49,6.39-4.56,9.7-6.68c-0.21,5.16,0.67,10.81-2.2,15.43
		c-6.85,11.67-20.12,17.2-28.12,27.86c-4.23,5.19-6.39,11.6401-7.71,18.1201c-2.04-1.8301-4.0901-3.64-5.91-5.67
		c-1.24-6.92,1.55-14.01,5.3199-19.76C1084.64,998.34,1098.89,992.97,1106,980.81z"/>
	<path fill="#F0D500" d="M503.33,999.35c4.6-7.28,11.62-12.71,19.28-16.46c2.65,4.51,6.62,9.29,5.22,14.91
		c-3.54,6.19-8.96,11.06-13.73,16.29c-5.91,5.92-11.61,12.08-17.96,17.54C495.6,1020.52,497.14,1008.83,503.33,999.35z"/>
	<path fill="#F0D500" d="M594.39,987.07c5.93,3.93,11.45,8.51,16.18,13.84c-11.38,16.05-22.69,32.3-36.18,46.67
		C579.08,1026.86,584.35,1005.93,594.39,987.07z"/>
	<path fill="#F0D500" d="M695.17,1003.01c4.81,2.72,9.14,6.94,10.15,12.6c1.96,7.18-2.77,13.67-6.14,19.58
		c-6.28,9.3701-11.04,19.6201-16.82,29.29c-0.69-9.37-4.27-18.1799-5.31-27.48c-0.8-5.24,2.73-9.62,5.09-13.93
		C686.28,1016.25,690.65,1009.58,695.17,1003.01z"/>
	<path fill="#F0D500" d="M975.31,1003.14c7.91,1.63,15.74,3.63,23.67,5.23c-2.91,3-6.43,5.27-9.59,7.96
		c-6.89,7.28-14.78,13.4999-22.5,19.8599C966.59,1024.62,970.41,1013.46,975.31,1003.14z"/>
	<path fill="#F0D500" d="M1218.1899,1020.14c5.6101,0.05,11.5,0.28,16.5601,2.98c4.54,2.36,7.84,7.3101,7.8101,12.47
		c-4.15,6.89-9.1001,13.3201-13.6901,19.9501C1224.46,1044.02,1220.9301,1032.16,1218.1899,1020.14z"/>
	<path fill="#F0D500" d="M1120.72,1033.75c3.77-3.9301,8.4601-6.8199,13.26-9.3199c3.6901,4.7999,5.99,11.2,4.64,17.23
		c-4.78,8.2-10.67,15.76-16.67,23.1c-2.4099-5.77-4.8199-11.63-6.08-17.77C1114.78,1042.04,1117.3,1037.17,1120.72,1033.75z"/>
	<path fill="#463543" d="M1195.0601,1027.99c2.24,4.49,7.1299,8.4401,6.1899,13.9c-0.73,1.0699-1.49,2.13-2.28,3.16
		c-1.61-4.16-3.2-8.3501-4.1899-12.7001C1194.84,1030.88,1194.9399,1029.4301,1195.0601,1027.99z"/>
</g>
</svg>
