<?xml version="1.0" encoding="utf-8"?>

<!DOCTYPE svg PUBLIC "-//W3C//DTD SVG 1.1//EN" "http://www.w3.org/Graphics/SVG/1.1/DTD/svg11.dtd">
<svg version="1.1" id="Layer_1" xmlns="http://www.w3.org/2000/svg" xmlns:xlink="http://www.w3.org/1999/xlink" x="0px" y="0px"
	 viewBox="0 0 1763.229 1644.174" enable-background="new 0 0 1763.229 1644.174" xml:space="preserve">
<g>
	<path fill="#693A0C" stroke="#693A0C" d="M819.851,31.13c16.68-3.63,34.4,4.96,43.42,19.12c7.69,12.1,10.97,26.32,13.9,40.18
		c3.62,17.65,7.13,35.36,8.87,53.32c2.28,20.57-0.59,41.28-5.14,61.35c-5.12,21.69-12.94,42.79-23.67,62.35
		c-2.43,4.63-6.08,9.07-6.19,14.53c-0.09,5.21,3.41,9.38,5.84,13.69c16.09,26.49,27.82,55.56,35.43,85.57
		c4.35,18.87,8.03,38.04,8.53,57.44c0.17,9.13,0.18,18.25,0,27.37c-0.24,13.26-2.34,26.4-4.55,39.45
		c-2.93,15.88-6.92,31.57-12.16,46.84c-1.16,2.95-1.1,6.14-1.43,9.24c-1.5,0.33-1.28,3.32,0.36,1.94c0.11-0.39,0.32-1.18,0.43-1.57
		c2.37-0.39,4.8-0.95,6.54-2.77c16.07-13.56,33.15-25.88,51.02-36.96c2.12-1.11,5.02-2.98,7.26-1.08c3.34,2.83,5.57,7.8,10.32,8.41
		c5.27-1.24,8.45-6.06,11.95-9.78c6.68-7.99,15.06-14.26,22.33-21.67c13.31-12.1,27.12-23.63,41.27-34.73
		c9.56-7.33,19.57-14.08,30.23-19.72c3.04-1.5,5.49-3.89,8.29-5.77c1.57-0.46,0.82-2.16-0.4-2.43c-2.3-5.7-6.73-10.06-9.98-15.18
		c-10.57-16.18-17.74-34.64-20.17-53.84c-0.66-5.59,0.57-11.27,2.68-16.43c3.48-8.25,12.05-13.69,20.86-14.27
		c7.69,0.43,13.87,5.87,18.54,11.56c7.42,9.22,9.89,21.09,14.19,31.85c-0.01,1.04,0.33,1.96,1.03,2.75l0.29,0.91
		c-1.29,2.02,2.03,2.2,0.91,0.06c-0.38-3.41,1.75-6.37,2.43-9.59c4.11-18.7,9.89-37.42,20.46-53.56
		c6.39-8.91,14.61-17.27,25.34-20.6c5.76-2.08,12.38-2.36,17.88,0.64c6.86,2.9,10.27,10.21,12.04,17.01
		c1.99,6.91,0.36,14.14-1.38,20.91c-2.67,8.62-6.5,16.84-10.65,24.84c-0.66,1.34-1.45,2.67-1.56,4.19
		c-0.21,1.31-0.34,2.63-0.44,3.95c2.2-0.04,4.43-0.14,6.65-0.29c1.06-1.49,2.16-2.96,3.36-4.36c8.98-7.38,20.9-10.09,32.18-11.72
		c10.03-0.18,21,4.12,26.13,13.2c3.03,5.52,5.67,12.08,3.69,18.42c-3.43,13.12-13.36,23.2-23.71,31.36
		c-8.71,6.92-18.39,12.46-28.11,17.8c-1.9,0.72-2.51,3-4.41,3.65c-1.76,0.72-3.42,1.63-4.82,2.91c1.21-0.12,2.45-0.23,3.69-0.37
		c7.7-0.61,15.39-1.37,23.12-1.66c5.74,0,11.49-0.11,17.25-0.03c10.77,0.56,21.78,2.55,31.27,7.91c5.99,3.27,10.1,9.62,10.85,16.37
		c-0.29,10.82-7.93,20.14-17.18,25.09c-9.52,5.15-20.17,8.67-31.06,8.69c-15.57-1.61-31.08-6.13-46.83-4.4
		c-5.02,2.2-8.8,6.42-13.19,9.61c-15.4,12.58-31.04,24.88-45.97,38.02c-15.97,14-31.84,28.14-46.71,43.32
		c-7.16,7.16-14.33,14.33-21.5,21.49c-4.19,4.31-9.13,8.27-11.08,14.19c-1.28,0.73-1.22,1.35,0.17,1.85
		c1.43,3.78,1.97,8.62-1.7,11.35c-11.96,10.68-24.37,20.9-35.36,32.62c-7.99,8.4-15.39,17.33-22.7,26.32
		c-2.83,3.7-6.56,7.04-7.37,11.86c-1.31,0.6-1.31,1.24-0.02,1.9c2.48,6.46,7.71,11.18,11.87,16.53
		c12.04,14.31,22.59,29.79,32.31,45.75c10.57,17.12,20.23,34.79,29.07,52.85c16.73,35.71,31.07,72.49,44.48,109.55
		c4.69,11.38,8.11,23.22,12.13,34.84c2.81,8.94,5.67,17.89,7.99,26.97c1.12,3.21-0.81,6.13-2.53,8.67
		c-1.47,2.87-0.57,6.15-0.36,9.21c1.12,10.14,1.29,20.32,1.81,30.5c-0.28,7.76-0.07,15.54-0.26,23.31
		c-1.21,22.93-5.31,45.68-11.24,67.85c-0.68,2.93-0.4,5.95-0.65,8.92c1.57-0.05,3.16-0.08,4.75-0.1c0.65-1.2,1.56-2.23,2.74-2.94
		c10.13-7.03,19.32-15.27,28.34-23.64c17.44-17.77,31.98-38.28,43.67-60.24c18.42-34.43,28.67-72.47,36.49-110.53
		c9.9-47.29,17.44-95.07,29.02-142c9.37-37.17,21.56-73.83,39.03-108.02c4.38-7.41,7.86-15.3,12.19-22.74
		c17.59-32.23,37.33-63.31,59.44-92.64c21.7-27.98,45.11-54.81,71.8-78.16c15.52-13.67,31.69-26.63,48.99-37.99
		c31.86-21.08,63.34-43.43,98.74-58.31c5.9-2.28,11.82-4.99,18.18-5.65c2.83,0,5.66,0,8.52-0.02c19.22,1.63,37.46,10.34,51.95,22.94
		c11.89,9.9,21.52,22.22,29.94,35.12c19.74,31.53,32.32,66.89,42.41,102.51c10.21,37.94,16.45,77,17.93,116.28
		c-0.29,12.45-0.11,24.92-0.3,37.38c-1.56,44.07-8.9,87.8-19.57,130.54c-5.78,21.54-12.13,42.96-20.24,63.76
		c-13.84,38.01-32.17,74.27-53.09,108.85c-19.61,31.66-41.53,61.93-66.16,89.88c-10.38,12.25-22,23.33-33.34,34.67
		c-12.4,11.34-25.18,22.28-38.63,32.36c-29.53,22.02-62.08,39.8-96,54.07c-39.66,16.57-81.15,28.59-123.36,36.54
		c-29.62,5.45-59.6,9.51-89.72,10.44c-13.79,0.33-27.59-0.06-41.37,0.29c-33.5-1.07-66.83-5.72-99.6-12.69
		c-4.31-0.53-10.43-2.53-13.01,2.27c-5.04,9.09-9.13,18.7-14.24,27.76c-13.46,24.8-27.49,49.58-45.97,71.05
		c-5.22,6.42-10.67,12.72-17.22,17.83c-4.11,3.84-9.58,6.84-11.61,12.38c-6.73,19.52-9.25,40.16-10.34,60.69
		c-0.5,11.51-1.03,23.07-0.24,34.58c-0.1,4.21-0.66,8.41-0.49,12.65c0.41,14.22-1.12,28.44-3.53,42.44
		c-2.94,14.82-7.99,30.12-19.16,40.84c-7.63,8.04-18.08,12.68-28.69,15.29c-43.34,8.84-87.7,9.83-131.61,13.71
		c-5.53,0.46-11.06,1.11-16.59,1.11c-2.93-0.29-5.87-0.29-8.79,0.01c-10.51-0.47-21.24-2.42-30.68-7.27
		c-8.36-4.23-14.53-12.25-16.85-21.29c-1.58-4.87-0.49-10.03,1.15-14.71c4.8-15.11,15.88-27.06,26.98-37.92
		c12.18-12.82,26.74-23.18,41.97-32.07c17.17-9.49,35.6-16.81,54.73-21.19c3.59-0.61,6.66-3.17,7.05-6.93
		c3.74-18.3,8.38-36.45,15.1-53.9c4.78-12.18,9.59-24.34,14.64-36.41c1.02-2.49,1.1-5.21,1.54-7.81c1.34-0.6,1.35-1.21,0.04-1.84
		c-0.49-6.23-4.31-11.35-6.04-17.2c-1.56-4.88-2.62-10-2.33-15.13c0.09-1.17,0.09-2.33,0-3.47c-0.36-8.18,1.59-16.22,3.08-24.2
		c2.27-11.66,5.78-23.04,9.78-34.21c1.04-3.23,1.29-6.63,1.96-9.94c-13.62,0.9-27.3-0.2-40.67-2.93
		c-18.86-3.22-37.05-9.64-54.37-17.68c-20.39-9.85-38.99-23.11-55.95-38.04c-2.35-2.1-5.1-3.79-8.15-4.6c-0.05,0-0.16,0-0.21-0.01
		c-6.8,0.87-12.07,5.61-17.78,8.96c-20.38,12.99-40.75,26.14-59.55,41.38c-3.87,3.11-7.26,7.37-12.26,8.64
		c-5.43,0.41-10.53-2.1-15.53-3.87c-6.32-2.22-11.69-6.58-18.29-8.03c-0.63-1.33-1.25-1.33-1.87,0c-6.3,1.27-11.41,5.29-16.67,8.72
		c-7.79,5.4-15.5,11.03-22.13,17.84c-7.1,7.23-14.6,14.11-20.98,22c-6.97,8.1-13.33,16.7-19.93,25.09
		c-4.02,4.94-7.97,10-12.87,14.12c-9.2,8.18-21.65,12.01-33.76,12.58c-1.51-0.11-3.01-0.11-4.51,0
		c-16.6-0.68-32.59-6.23-47.83-12.51c-18.16-7.55-34.9-18.02-51.38-28.65c-16.83-11.57-33.78-23.2-48.34-37.61
		c-10.19-9.79-20.22-20.74-24.42-34.54c-2.14-5.48,0.78-11.19,3.93-15.59c5.99-7.8,15.71-11.15,24.62-14.36
		c10.83-3.24,22.04-6.16,33.42-5.88c1.83,0.12,3.67,0.12,5.5,0c11.68-0.36,23.12,2.53,34.51,4.73
		c19.76,4.43,38.96,11.03,57.86,18.25c3.17,1.31,6.58,1.79,9.94,2.41c0.7,1.12,2.16,1.06,2.97,0.08c2.16-1.25,4.4-2.43,6.18-4.22
		c15.61-14.72,33.53-26.63,50.89-39.12c3.35-2.52,7.78-4.4,9.28-8.63c1.39-6.2-4.74-11.96-2.03-18.08
		c2.49-4.91,6.57-8.76,10.07-12.93c14.42-15.92,30.1-30.65,46.37-44.67c12.95-10.86,26.01-21.76,40.6-30.38
		c3.46-2.08,7.09-4.05,9.91-7.01c1.6-4.43,0.6-9.16,0.27-13.7c0.41-12.4,2.82-24.64,5.26-36.77c5.23-26.47,15.13-51.69,25.54-76.48
		c1.82-5.29,5.67-9.8,5.7-15.62c0.26-1.16,0.5-2.3,0.68-3.45c-0.98,0.4-2,0.76-2.81,1.46c-0.82,0.48-1.52,1.15-1.72,2.12
		c-1.47,0.49-3.07,0.84-4.23,1.94c-13.55,12.4-27.82,24.28-44,33.11c-8.05,4.04-16.54,7.26-25.19,9.74
		c-5.24,1.52-6.74-5.04-8.44-8.53c-0.34-2.7-2.93-2.62-4.42-0.87c-6.92,2.13-13.01,6.13-19.59,9.06
		c-12.12,5.78-24.7,10.52-37.55,14.37c-5.34,1.77-11.33,2.01-16.01,5.39c-1.8,1.35-0.52,3.91-0.23,5.73
		c0.83,5.08,0.51,10.29,0.44,15.43c-0.17,2.12-0.17,4.26,0.02,6.4c0.44,10.64-1.4,21.57-6.16,31.16
		c-3.46,6.67-9.23,12.9-16.85,14.46c-7.22,0.58-13.44-4.26-18.24-9.1c-6.99-7.03-10-16.69-13.54-25.66
		c0.07-1.61-1.43-4.91-2.33-1.81c-0.86,2.41-3.96,2.7-5.11,4.94c-7.26,11.2-16.87,21.34-29.2,26.89c-5.14,2.1-10.97,4.55-16.49,2.35
		c-8.4-2.59-15-11.44-13.58-20.34c3.49-16.02,11.73-30.56,21.51-43.56c1.42-1.93,3.35-3.39,5.34-4.68c0.25-1.8,0.47-3.59,0.66-5.37
		c1.13,0.26,2.7-1.81,0.99-2.09c-0.51,0.22-1.52,0.68-2.03,0.91c-2.86,0.85-5.94,0.58-8.78,1.58c-12.06,4.16-24.6,6.69-37.15,8.81
		c-10.33,1.78-21.64,1.1-30.74-4.5c-5.8-3.8-10.43-11.3-7.8-18.31c2.94-8.47,9.8-14.77,16.58-20.26
		c10.7-7.85,22.87-13.55,35.48-17.55c13.44-4.53,27.55-6.47,41.5-8.74c2.29-0.46-0.31-2.25-1.41-2.25
		c-6.39-5.75-13.79-10.28-19.95-16.3c-7.54-7.39-15.19-15.84-17.42-26.47c-0.81-11.73,11.82-22.74,23.36-19.39
		c15.89,4.1,29.7,13.53,42.66,23.26c5.93,4.2,10.95,9.74,17.66,12.77c0.8,0.98,2.28,1.01,2.97-0.13c9.57-0.62,18.27-4.86,27.07-8.28
		c12.6-5.05,25.22-10.08,37.83-15.13c3.08-1.17,5.83-3.01,8.72-4.55c1.35-0.17,1.88-1.71,0.76-2.55c-1.1-2.68,0.52-6.23,3.27-7.25
		c8.94-4.01,18.07-7.62,26.74-12.21c13.39-7.17,26.25-15.41,37.99-25.07c8.43-7.18,16.93-14.37,23.96-22.98
		c5.35-6.51,11.95-12.39,15.03-20.4c0.63-0.63,1.08-1.35,1.35-2.16c-0.26-1.38-1.9-0.45-2.62-0.07c-2.91,1.26-6.17,0.48-9.2,1.18
		c-22.72,4.53-45.69,8.38-68.87,9.24c-12.76,0.56-25.42-1.42-38.08-2.57c-1.91-0.64-3.95-0.79-5.86-0.06
		c-9.02,1.24-17.33,5.09-26.04,7.53c-34.87,10.4-70.76,17.56-107.07,20.22c-12.58,1.53-25.28,0.46-37.92,0.82
		c-37.37-1.82-74.45-9.11-109.86-21.2c-33.61-10.96-65.98-26.36-94.36-47.59c-9.64-7.26-18.77-15.19-27.08-23.95
		c-9.9-9.49-19.13-19.67-27.42-30.6c-13.31-17.79-24.95-37.18-31.34-58.59c-3.86-13.56-7.52-27.72-5.63-41.91
		c2.05-15.22,6.71-30.48,15.88-42.98c11.31-16.58,29-28,47.95-34.02c24.87-7.66,51.11-8.35,76.85-10.19
		c7.38,0.24,14.68-1.08,22.06-1.2c6.14-0.73,12.38-0.86,18.41-2.34c4.65-1.04,7.58-5.11,10.52-8.51
		c23.13-28.62,39.92-61.56,57.03-93.93c2.56-5.65,6.39-10.84,7.24-17.13c1.33-0.56,1.36-1.18,0.08-1.87
		c-1.12-2.58-2.21-5.2-3.97-7.41c-7.04-9.24-12.89-19.31-18.6-29.4c-9.4-15.7-18.23-31.77-25.38-48.63
		c-10.38-24.77-17.24-51.05-20.03-77.78c-1.15-7.86,0.52-15.73,1.98-23.43c2.97-14.3,9.65-28.55,21.89-37.16
		c5.78-4.53,13.02-6.54,20.12-7.85c7.42-1.44,14.85,0.74,22.08,2.24c24.44,5.7,46.43,18.31,67.53,31.46
		c14.81,9.65,29.25,19.87,43.08,30.87c3.07,2.36,7.13,4.77,11.1,3.24c4.58-1.68,7.82-5.57,11.69-8.37
		c30.54-23.79,66.32-40.53,103.75-50.17c19.13-4.58,38.59-8.16,58.28-8.91c7.76-0.04,15.52-0.1,23.28,0
		c14.05-0.2,27.74,3.89,41.75,3.83c3.15-0.43,5.31-3.1,7.37-5.28c25.46-29.6,56.51-54.04,89.94-74.04
		C768.351,51.66,792.421,36.51,819.851,31.13 M797.741,50.01c-24.96,10.8-49.43,22.9-72.38,37.57
		c-26.39,16.75-51.32,36.14-72.56,59.15c5.83,1.46,11.7,2.85,17.59,4.06c8.99,2.76,18.08,5.19,26.88,8.52
		c4.71,1.61,9.15,3.94,13.95,5.29c19.51-36.41,48.13-67.49,81.27-91.93c3.07-2.33,6.6-4.07,9.27-6.9c3.05-0.99,5.7-2.86,8.54-4.3
		c12.61-6.82,26.97-10.77,41.38-9.79c-4.49-5.96-11.59-9.68-19.01-10.14C820.421,40.5,808.751,45.28,797.741,50.01 M829.541,67.74
		c-14.15,4.38-26.34,13.16-38.3,21.61c-28.38,21.86-53.79,47.89-73.76,77.7c1.4,1.02,2.85,1.98,4.45,2.67
		c30.49,14.3,58.29,34.06,82.55,57.38c13.73,13.07,25.85,27.71,37.4,42.71c4.1-5.37,7.36-11.36,10.46-17.35
		c15.11-27.95,23.11-59.8,22.71-91.6c0.27-17.73-1.61-35.49-5.51-52.8c-1.85-8.02-2.81-16.23-5.04-24.17
		c-1.02-5.29-2.44-10.52-4.28-15.58c-0.61-2.41-3.31-2.51-5.31-2.84C846.421,64.64,837.701,65.16,829.541,67.74 M246.661,155.83
		c-8.71,7.49-14.29,18.35-16.22,29.6c-1.49,3.05-1.21,6.85-1.69,10.22c6.5-3.22,13.46-5.59,20.73-6.22
		c18.97-1.96,37.78,4.36,54.2,13.45c23.32,13.04,42.88,31.77,60.2,51.91c1.25-1.33,2.54-2.62,3.63-4.08
		c8.37-10.44,17.66-20.09,27.01-29.63c-16.33-13.59-33.48-26.21-51.25-37.85c-0.68-0.46-1.41-0.72-2.21-0.77
		c-3.36-3.14-7.62-5-11.44-7.46c-16.79-10.03-34.01-20.29-53.33-24.5C266.291,148.54,254.781,148.97,246.661,155.83 M556.611,161.63
		c-0.74,0.04-2.23,0.11-2.97,0.15c-37.33,4.9-73.77,17.35-105.76,37.3c-24.15,15.11-46.18,33.65-65.22,54.84
		c3.14,1.87,6.66,3.1,9.49,5.48c9.61,7.59,15.93,18.51,20.18,29.83c1.57,4.49,3.36,9.02,3.45,13.85c-2.37-4.51-3.72-9.5-6.55-13.78
		c-6.59-10.92-16.54-21.09-29.48-23.67c-2.94-0.35-6.9-1.58-8.83,1.48c-5.73,7.16-11.74,14.14-16.79,21.81
		c4.22,2.68,8.8,4.76,12.93,7.59c16.09,10.51,28.75,25.94,36.47,43.49c6.88,15.66,10.75,32.73,10.55,49.87
		c0.37,18.64-4.47,37.74-15.45,52.99c-8.6,12.05-20.04,22.24-33.51,28.54c-16.13,7.84-34.59,10.14-52.31,8.15
		c-19.26-1.89-37.84-8.62-54.51-18.31c-1.03-0.6-2.17-0.93-3.28-1.31c-9.25,13.86-19.43,27.23-31.41,38.87
		c-2.22,2.16-4.37,4.74-7.55,5.43c-17.7,4.85-36.2,4.63-54.37,5.99c-18.34,0.81-36.8,1.89-54.78,5.89
		c-14.64,3.43-29.35,9.03-40.4,19.58c-3.35,3.36-7,6.67-9.04,11.04c-6.01,7.69-9.06,17.28-11.21,26.69
		c-4.5,21.01-0.25,42.81,7.35,62.57c11.78,29.61,31.53,55.64,55.48,76.5c28.06,24.45,61.43,42.26,96.46,54.51
		c78.15,26.6,163.85,28.81,243.93,9.65c60.35-14.86,118.39-41.66,165.98-82.01c25.52-21.58,47.85-46.93,66.05-74.96
		c2.62-4.13,5.65-8.09,7.3-12.74c2.47-2.33,3.82-5.53,5.5-8.42c19.17-34.33,32.62-71.73,40.83-110.14c0.33-0.11,1.01-0.32,1.35-0.42
		c0.27,4.03-1.99,8.7,0.94,12.15c15.07,21.7,27.95,46.03,30.51,72.73c1.85,17.57-1.65,35.15-6.28,52.04
		c-4.95,17.07-12.11,33.5-21.18,48.79c-2.17,3.85-4.96,7.34-6.78,11.39c-4.02,4.28-6.89,9.58-10.79,14.01
		c-8.73,11.22-19.26,20.81-29.3,30.8c43.61-17.61,82.96-45.72,113.91-81.13c7.98-11.27,15.99-22.55,24.91-33.12
		c4.7-5.51,8.23-11.87,11.88-18.08c30.78-53.31,44.76-116.47,37.31-177.71c-4.54-37.47-16.77-73.91-35.05-106.9
		c-32.08-58.57-83.64-106.8-145.46-132.58c-35.09-14.78-73.4-21.57-111.43-20.84C578.641,159.43,567.511,159.77,556.611,161.63
		 M232.261,203.36c-1.46,0.87-3.86,1.45-3.84,3.54c-0.41,7.63,1.01,15.21,1.72,22.79c6.1,33.85,19.42,65.95,35.42,96.23
		c4.8,8.29,8.89,16.95,13.61,25.28c3.28,6.9,7.01,13.69,11.71,19.74c0.81-1.18,1.66-2.34,2.34-3.6
		c18.73-35.75,39.4-70.56,63.26-103.12c-6.4-7.3-12.7-14.71-19.64-21.51c-16.3-16.73-35.37-31.48-57.53-39.47
		C264.241,198.35,247.051,196.55,232.261,203.36 M347.541,297.73c-10.67,15.89-21.49,31.84-30.01,48.99
		c4.81-1.89,9.4-4.46,14.54-5.42c14.68-2.47,30.55,0.58,42.49,9.73c8.75,6.81,14.09,17.76,14.24,28.84c0.42,9.32-1.38,18.88-6,27.05
		c-5.55,11.06-15.6,21.05-28.29,22.83c7.27-4.51,14.48-9.55,19.18-16.88c7.48-11.6,10.28-26.65,5.88-39.9
		c-1.73-4.45-3.9-9.17-7.85-12.06c-3.75-4.97-9.68-7.73-15.45-9.63c-14.12-4.18-31.13-1.32-41.34,9.85
		c-8.25,9.01-11,21.81-10.33,33.73c0.47,7.2,1.36,14.67,4.88,21.1c1.49,4.34,4.56,7.89,7.48,11.35c-3.41,0.16-5.3-3.16-7.54-5.18
		c-9.32-9.98-11.61-24.21-11.94-37.36c-12.22,22.89-23.69,46.26-37.84,68.08c-1.17,1.73-2.27,3.54-2.83,5.58
		c13.29,7,27.66,12.22,42.66,13.82c19.22,2,39.28,1.22,57.4-6.05c14.06-5.24,26.29-15.31,33.89-28.28
		c19.79-32.5,18.01-75.66-1.19-108.01c-7.5-12.98-18.34-23.97-31.06-31.87c-2.48-1.45-4.77-3.67-7.68-4.05
		C349.271,294.69,348.561,296.45,347.541,297.73 M1152.861,310.34c-10.09,3.96-17.91,11.97-24.08,20.66
		c-9.93,14.23-16.87,30.37-22.11,46.86c-1.65,6.26-4.1,12.44-4.32,18.97c0.83,9.04,2.44,18.02,2.68,27.13
		c-0.05,3.85,1.13,7.9-0.34,11.6c-0.62-1.35-1.22-2.69-1.59-4.1c-5.3-22.1-11.69-43.98-19.9-65.18c-2.12-4.72-4.18-10.66-9.69-12.26
		c-9.21-2.49-21.39,3.64-22.13,13.8c1.19,26.37,13.43,51.16,30.2,71.12c3.78,4.95,8.71,8.92,12.17,14.11
		c-5.74-1.68-9.64-6.52-14.37-9.87c-2.84,0.4-5.15,2.49-7.65,3.78c-9.48,5.84-19.04,11.66-27.79,18.56l0.57,0.49
		c5.24,7.63,11.65,14.4,17.38,21.68c12.02,15.25,26.23,28.76,41.79,40.37c3.52-2.49,6.62-5.51,10.01-8.17
		c14.21-11.7,29.17-22.55,45.07-31.84c5.76-1.73,11.98-1.43,17.94-2.26c13.35-1.42,26.79,1.85,40.06-0.68
		c10-1.63,20.11-5.47,27.32-12.82c2.42-2.27,3.87-5.9,2.49-9.1c-1.74-3.51-5.2-5.63-8.57-7.32c-8.56-4.02-17.93-6.3-27.38-6.59
		c-12.02-0.43-24.08-1.5-35.73-4.6c-7.14-2.6-12.65,4.58-19.47,5.32c1.15-5.22,7.43-6.94,10.16-11.26
		c7.07-4.85,13.46-10.61,20.48-15.54c7.23-5.43,14.81-10.39,21.84-16.09c5.98-5.13,11.79-10.97,14.58-18.5
		c2.16-5.14,2.89-11.42-0.14-16.37c-3.36-5.09-9.67-6.91-15.42-7.44c-9.54-0.88-18.6,3.13-26.81,7.53
		c-14.06,7.7-25.04,19.8-34.29,32.68c-3.67,4.55-6.16,9.98-10.22,14.21c0.42-5.21,2.25-10.14,3.04-15.28
		c3.47-9.06,5.92-18.51,9.62-27.5c6.55-16.21,14.19-32.23,17.18-49.6c0.67-5.04,1.67-10.8-1.37-15.31
		C1161.381,307.98,1156.461,309.33,1152.861,310.34 M1541.701,429.92c-19.48,10.95-38.8,22.2-57.45,34.51
		c-2.02,1.39-4.39,2.38-5.97,4.28c-4.9,2.5-9.16,6.01-13.73,9.03c-16.55,11.91-32.87,24.23-47.89,38.04
		c8.97-0.33,17.94-1.18,26.89-2.01c18.65-0.27,37.37-0.68,55.94,1.49c42.49,4.49,84.08,16.77,122.5,35.39
		c3.15,1.51,6.1,3.5,9.54,4.39c0.24,0.26,0.72,0.76,0.97,1.01c24.77,13.41,48.02,30.06,67.43,50.56c1.6,1.75,3.52,3.16,5.66,4.2
		c-1.67-14.41-4.9-28.6-8.11-42.74c-9.79-39.57-24.59-78.42-47.99-112.02c-9.95-14.17-22.4-27.2-38.23-34.71
		c-10.86-5.19-22.99-7.07-34.92-7.42C1564.011,417.34,1552.901,423.93,1541.701,429.92 M962.671,536.1
		c1.86,3.24,4.38,6.03,6.96,8.71c4.14,6.98,9.58,13.11,14.41,19.63c12.45,16.3,25.03,32.5,37.88,48.49
		c3.99-3.98,7.2-8.68,10.97-12.89c18.77-22.13,39.14-42.91,60.54-62.49c-5.08-4.53-9.89-9.34-14.84-14.01
		c-12.86-14.18-24-29.79-35.46-45.09c-2.03-2.69-3.69-5.68-6.27-7.88C1010.501,490.5,986.211,512.96,962.671,536.1 M734.731,506.96
		c-2,15.57-3.07,31.29-6.28,46.69c-0.91,5.33-2.71,10.47-3.47,15.83c5.46,3.31,10.44,7.28,15.42,11.25
		c4.07,3.43,8.19,6.8,12.38,10.08c1.71-14.7,0.6-29.88-3.36-44.15c-2.44-12.21-7.37-23.82-12.24-35.24
		C736.501,509.86,735.971,508.17,734.731,506.96 M1426.501,524.41c-6.78,0.14-13.59,0.34-20.32,1.09
		c-7.93,6.98-15.09,14.83-22.32,22.53c-22.71,24.87-43.85,51.31-61.99,79.7c14.41-2.77,28.96-4.69,43.58-6.04
		c51.5-4.11,104.08,2.32,152.38,21c36.54,13.87,71.01,33.18,101.95,57.07c5.41,3.87,10.07,8.76,15.77,12.22
		c1.29,2.3,3.65,3.73,5.55,5.51c20.54,18.11,38.86,38.59,55.96,59.94c2.38,2.93,4.31,6.3,7.37,8.63c4.17-24.53,6.54-49.35,7.56-74.2
		c0.07-12.33,0.11-24.65-0.02-36.97c-0.45-9.8-1.14-19.58-1.82-29.36c-0.38-2.48-0.14-5.32-1.79-7.37
		c-18.64-22.06-40.08-41.89-64.27-57.73c-3.05-1.98-5.92-4.33-9.39-5.54c-0.4-0.37-1.2-1.12-1.6-1.49
		c-29.63-17.9-62.58-29.5-96.02-37.94C1500.991,526.57,1463.621,522.79,1426.501,524.41 M917.101,554.3
		c-2.25,1.08-0.4,3.23,0.48,4.59c16.59,24.28,33.68,48.22,50.41,72.41c6.38,9.32,12.72,18.72,19.86,27.47
		c9.19-10.36,18.36-20.75,27.78-30.9c-5.81-8.08-11.56-16.21-17.58-24.12c-6.58-10.06-13.84-19.64-20.71-29.49
		c-9.99-13.96-19.24-28.43-28.7-42.72C937.851,538.72,927.601,546.72,917.101,554.3 M907.901,561.9c-3.43,1.39-6.15,3.95-9.05,6.16
		c-9.26,7.01-18.24,14.38-27.26,21.69c-3.8,2.92-5.09,7.75-7.38,11.75c-10.53,19.38-22.94,37.78-37.43,54.42
		c-1.95,1.91-0.53,4.7-0.12,6.95c2.56,8.85,3.2,18.07,4.03,27.2c-0.81,18.04-4.35,36.16-12.18,52.53
		c-4.44,9.02-10.63,17.34-18.83,23.27c-12.88,8.61-29.86,12.35-44.68,6.72c-7.62-2.56-13.75-7.86-19.95-12.73
		c-5.7-6.63-11.25-13.41-15.66-20.98c-0.95,0.24-1.87,0.53-2.77,0.87c-22.45,11.19-45.99,20.22-70.19,26.82
		c-3.4,0.56-4.78,3.97-6.6,6.45c-4.87,7.48-10.81,14.16-16.31,21.17c-16.77,18.36-36.08,34.42-57.58,46.96
		c12.8,12.71,23.4,27.4,32.51,42.93c5.28,8.48,9.38,17.62,14.17,26.37c1.47,4.57,3.78,8.82,5.42,13.34
		c1.93-0.26,3.19-1.83,4.57-3.04c15.62-14.14,28.62-30.83,41.51-47.42c1.73-2.09,3.41-4.26,4.37-6.82
		c4.66-4.02,7.59-9.6,11.55-14.25c7.17-9.46,14.45-18.85,22.18-27.87c0.83-1.13,2.1-1.64,3.48-1.65
		c-1.43,9.39-7.75,17.21-10.82,26.05c-2.27,2.32-3.55,5.34-5.17,8.11c-5.86,9.93-12.24,19.56-19.26,28.71
		c-3.5,4.83-8.17,9.11-9.48,15.17c1.17,0.24,2.34,0.55,3.51,0.91c24.49,8.14,50.34,12.6,76.2,12.19
		c45.92,0.18,91.61-8.45,135.08-22.99c35.34-11.62,69.35-27.07,101.8-45.23l-0.03-0.77c4.02-0.8,7.18-3.63,10.74-5.49
		c10.69-6.63,21.73-12.86,31.7-20.53c-1.09-3.48-2.58-6.79-4.15-10.07c-7.93-17.73-16.37-35.25-25.94-52.15
		c-8.88-15.04-18.34-29.9-30.27-42.74c-3.9-4.13-7.33-8.79-11.92-12.2c-0.89-2.51-3.05-4.23-4.71-6.2
		c-5.81-6.62-11.18-13.68-15.53-21.35c0.6,0.23,1.79,0.69,2.38,0.91c2.13,3.05,5.1,5.33,7.77,7.87
		c6.22,5.76,12.53,11.41,18.96,16.95c7.93-11.12,15.68-22.38,24.22-33.05c-6.52-9.74-12.72-19.69-18.83-29.68
		c-6.99-11.45-14.34-22.67-21.68-33.89c-9.94-14.6-19.2-29.65-28.73-44.5C910.261,559.67,908.211,560.13,907.901,561.9
		 M723.201,574.01c-4.81,15.47-11.12,30.46-18.55,44.85c-0.36,0.93-1.33,2.34-0.06,3.08c3.69,2.99,7.49,5.85,11.18,8.87
		c6.7,5.71,13.11,11.75,19.24,18.08c2.76-3.75,4.24-8.25,6.21-12.44c5.17-12.66,9.33-25.85,11.08-39.44
		c-4.17-4.1-8.71-7.79-13.1-11.64C734.111,581.28,729.071,576.94,723.201,574.01 M701.101,625.1c-9.03,16.7-21.13,31.43-33.36,45.85
		c3.54,3.27,7.69,5.75,11.63,8.51c7.75,5.52,14.91,11.8,22.18,17.92c12.11-13.11,22.73-27.75,31.1-43.52
		c-5.87-6.6-12.28-12.77-19.02-18.5C709.661,631.71,705.821,627.77,701.101,625.1 M1358.561,632.47
		c-13.81,0.61-27.6,1.91-41.25,4.03c-3.34,1.49-4.44,5.6-6.51,8.41c-15.6,25.84-30.01,52.57-41.08,80.68
		c15.66,0.2,31.34,0.81,46.91,2.67c86.36,10.11,169.06,48.73,232.52,108.15c14.04,12.45,26.32,26.68,38.65,40.77
		c19.01,23.7,37.93,47.56,54.4,73.13c1.63,2.75,3.2,5.59,5.48,7.9c3.57-4.3,5.04-9.81,7.67-14.65
		c18.57-40.42,33.22-82.68,42.96-126.09c0.67-3.3,2.52-7.24,0.01-10.21c-11.15-14.11-22.79-27.84-34.88-41.14
		c-3.66-3.7-7.43-7.29-10.68-11.34c-6.23-6.98-13.18-13.29-20.39-19.23c-1.35-2.84-4.48-4.5-6.69-6.68
		c-21.42-19.1-44.62-36.3-69.65-50.38c-38.94-22-82.23-35.92-126.42-42.4C1406.091,632.95,1382.271,631.22,1358.561,632.47
		 M804.781,678.99c-13.02,12.15-27,23.27-41.69,33.33c-3.52,2.46-7.32,4.55-10.5,7.47c-4.32,1.76-8.02,4.71-12.08,6.95
		c-5.84,3.58-11.99,6.59-17.89,10.06c6.08,8.44,14.26,16.76,24.73,19.04c5.87,3.09,12.75,3.52,19.27,3.39
		c9.75-0.2,19.34-4.29,26.25-11.17c8.12-7.44,12.2-17.98,15.92-28.08c5.46-16.47,8.08-33.99,6.94-51.33
		C811.661,671.63,808.521,675.64,804.781,678.99 M627.591,709.75c-0.95,0.98-2.52,1.66-2.82,3.1c3.1,2.99,7.02,5.01,10.5,7.56
		c7.34,5.15,14.3,10.8,21.37,16.3c12.45-7.82,23.79-17.32,34.13-27.75c2.11-2.18,4.58-4.1,6.05-6.82
		c-7.22-6.19-14.85-11.89-22.32-17.77c-3.58-2.91-6.97-6.05-10.73-8.73C652.311,687.62,640.531,699.34,627.591,709.75
		 M591.761,736.05c2.72,2.98,5.79,5.59,8.82,8.25c3.28,3.69,6.63,7.33,10.14,10.8c6.36-1.21,12.78-2.36,18.98-4.26
		c7.2-2.85,13.98-6.64,20.77-10.33c-6.04-6.29-12.97-11.7-19.84-17.06c-3.25-2.7-6.47-5.43-10.02-7.72
		C611.131,722.69,601.601,729.6,591.761,736.05 M1265.431,735.56c-9.74,25.11-18.12,50.82-23.72,77.18
		c15.8,4.3,31.52,8.92,47.01,14.26c20.54,7.71,40.83,16.23,60.15,26.68c31.56,16.69,60.94,37.58,86.69,62.34
		c26.81,25.03,51.6,52.2,74.21,81.07c19.44,25.76,37.5,52.68,52.12,81.5c1.07,2.19,2.11,4.44,3.74,6.32
		c4.27-4.45,7.99-9.39,11.93-14.13c23.53-29.63,44.46-61.37,61.91-94.95c-8.76-12.74-18.06-25.11-27.09-37.65
		c-10.94-14.63-21.76-29.38-33.58-43.31c-18.01-22.49-37.95-43.49-59.64-62.46c-27.8-24.29-59.78-43.34-93.21-58.79
		c-34.77-15.96-71.39-28.41-109.17-34.79c-6.33-1.43-12.74-2.43-19.18-3.12c-9.91-1.26-19.86-2.47-29.86-2.61
		C1266.261,732.8,1265.951,734.62,1265.431,735.56 M576.131,745.38c-10.12,5.76-20.49,11.06-31.01,16.05
		c-3.49,1.71-7.24,2.93-10.46,5.16c4.73,0.02,9.37-1.01,14.05-1.52c9.34-1.2,18.73-2.17,28.01-3.84c8.33-1.19,16.71-2.43,24.91-4.34
		c-2.32-2.98-4.82-5.82-7.62-8.35c-2.57-3.04-4.95-6.56-8.35-8.65C582.281,741.35,579.321,743.59,576.131,745.38 M1239.291,822.48
		c-4.53,21.75-9.07,43.51-12.98,65.38c5.04,5.74,11.24,10.33,16.47,15.91c6.88,6.68,13.42,13.69,20.12,20.54
		c20.15,21.81,39.17,44.69,56.49,68.83c21.38,30.66,41.05,62.54,58.27,95.73c3.61,6.31,5.89,13.33,9.82,19.45
		c3.65,9.7,8.42,18.95,12.01,28.69c7.73,20.76,15.53,41.55,21.04,63.03c0.21,1.29,1.14,3.31,2.78,2.4c4.98-2.59,9.85-5.41,14.7-8.25
		c32.58-19.76,63.07-43.02,90.41-69.56c7.19-7.16,14.37-14.33,21.49-21.56c1.53-1.76,3.83-4.12,2.15-6.52
		c-6.86-12.28-14.68-23.99-22.17-35.88c-10.87-16.26-21.64-32.64-33.78-47.97c-9.56-13.68-20.37-26.46-31-39.31
		c-23.71-27.5-48.89-53.89-77.09-76.85c-31.01-24.75-65.38-45.34-102.04-60.55c-14.39-6.41-29.3-11.68-44.36-16.27
		C1239.781,818.89,1239.591,821.33,1239.291,822.48 M1014.851,835.07c-8.64,6.76-17.44,13.32-26.54,19.45
		c-4.38,3.33-9.57,5.67-13.58,9.41c-6.02,2.7-11.33,6.71-17.14,9.8c-35.08,19.95-73.04,35.01-112.52,43.54
		c-41.29,8.51-84.09,12.61-125.98,6.11c-20.72-3.12-40.66-9.83-60.18-17.22c-10.02,25.96-21.82,51.43-28.35,78.57
		c12.03,5.07,24.47,9.1,36.77,13.45c19.54,6.22,38.95,12.88,58.75,18.26c3.61,0.87,7.19,2.44,10.98,2.24
		c6.12,2.91,13.03,3.56,19.54,5.3c48.12,10.53,97.72,14.96,146.9,11.46c44.87-2.76,90.05-9.25,132.18-25.54
		c16.92-6.52,33.15-14.78,48.65-24.17c-16.45-53.85-37.36-106.25-60.13-157.72C1020.681,829.78,1017.971,832.73,1014.851,835.07
		 M537.391,854.61c-5.78,2.43-11.92,3.84-17.7,6.26c3.76,5.63,7.66,11.17,10.78,17.2c11.27,19.14,21.97,38.63,31.36,58.76
		c2.61,7.18,4.98,14.46,5.98,22.07c7.55-2.83,14.21-7.56,20.93-11.92c7.07-4.82,14.26-9.55,20.67-15.23
		c-1.83-4.83-3.41-9.77-5.7-14.4c-4.25-12.21-9.81-23.97-16.44-35.07c-7.88-13.4-16.56-26.41-26.77-38.16
		C552.891,847.81,545.341,851.67,537.391,854.61 M361.691,871.85c0.04,10.46,6.03,19.73,12.67,27.37
		c9.53,10.58,21.53,18.93,34.66,24.43c0.84,0.3,1.4,0.9,1.66,1.79c-19.87,3.59-40,6.61-59.13,13.31
		c-14.05,5.12-28.05,12.58-37.11,24.84c-2.43,2.76-4.86,7.25-2.21,10.64c3.02,3.59,8.06,4.21,12.43,4.76
		c14.32,0.95,28.85-0.41,42.62-4.49c12.83-3.54,25.99-6.05,38.55-10.46c1.94-0.2,3.86-0.61,5.79-0.94
		c-10.44,12.09-19.67,25.18-27.81,38.93c-6.19,10.27-12.46,20.88-14.7,32.82c-0.25,3.84-0.62,8.38,2.29,11.39
		c2.39,2.24,5.96,1.09,8.63,0.02c5.95-2.68,11.19-6.71,16.17-10.88c7.44-6.53,14.72-13.44,20.27-21.69
		c4.94-4.31,8.27-10.09,12.88-14.72c1.48,5.97,2.15,12.42,5.31,17.79c1.74,7.34,5.91,13.88,10.03,20.11
		c3.03,3.92,7.06,9.31,12.74,7.85c3.64-2.4,5.06-6.77,6.43-10.68c3.35-10.16,6.28-20.62,6.79-31.35c2.14-7.89,1.18-16.21,2.6-24.21
		c9.35-3.88,18.82-7.57,27.76-12.33c1.91-0.74,3.78-1.57,5.59-2.5c-3.85-9.08-9.09-17.51-13.26-26.45
		c-7.17-13.81-13.17-28.18-19.54-42.36c-0.29-1.12-0.66-2.19-1.11-3.23c-7.44,2.66-14.74,5.76-22.41,7.77
		c-2.4,0.4-4.84,2.66-7.26,1.28c-6.66-3.29-13.16-6.89-19.61-10.56c-11.72-6.58-22.46-14.94-35.01-19.97
		c-6.54-2.56-13.36-5.38-20.52-4.92C364.441,865.27,361.441,868.37,361.691,871.85 M511.101,876.29
		c-11.18,4.18-22.45,8.18-33.43,12.89c0.49,3.83,2.64,7.13,4.14,10.63c2.91,6.59,6.14,13.02,9.38,19.45
		c4.55,9.01,8.91,18.18,14.37,26.7c2.6,4.69,5.33,9.32,8.27,13.81c12.76-5.83,24.87-13.01,36.96-20.11
		c-0.16-1.41-0.23-2.84-0.8-4.13c-5.49-12.91-12.14-25.28-17.91-38.06c-1.8-3.9-3.25-7.97-5.5-11.64
		c-0.99-4.56-3.54-8.58-5.28-12.87C517.681,873.29,514.461,875.07,511.101,876.29 M1225.211,891.89
		c-1.75,10.23-4.04,20.36-5.94,30.57c-4.53,22.67-10.58,45.01-16.81,67.27c8.89,10.05,16.98,20.75,25.06,31.45
		c8.51,12.85,17.09,25.67,24.82,39.01c18.21,31.25,34.09,64.46,41.43,100.08c4.09,16.91,6.4,34.22,7.82,51.54
		c1.31,11.96,0.94,24,1.2,36.01c35.77-8.1,70.72-20.06,103.59-36.39c-2.97-11.88-6.51-23.61-9.95-35.35
		c-6.18-20.42-13.87-40.35-22.08-60.03c-14.45-34.09-31.6-67.05-51.59-98.22c-8.54-13.38-17.62-26.41-26.47-39.57
		c-11.09-15.84-22.11-31.8-34.54-46.62c-9.25-12.51-20.04-23.82-30.72-35.13C1229.301,894.71,1227.571,892.81,1225.211,891.89
		 M628.741,991.66c-2.12,6.49-3.08,13.29-4.41,19.97c-2.59,14.58-4.33,29.36-4.34,44.18c9.87-2.27,19.51-5.83,29.76-6.17
		c2.68,0.02,8.25-1.88,7.71,2.72c-1.4,0.75-3.11,1.13-4.2,2.33c-3.87,0.53-7.33,2.41-10.89,3.88c-9.23,3.84-18.14,8.4-27.07,12.9
		c-39.73,22.12-76.54,50.07-106.71,84.21c5.92,2.68,11.31,6.34,16.21,10.59c3.96,3.89,8.21,7.45,12.27,11.24
		c3.28,2.61,5.84,6.24,9.61,8.17c5.5,6.81,12.45,12.35,18.59,18.59c14.2,14.28,29.34,28.04,39.63,45.58
		c4.59-3.27,8.52-7.37,13.09-10.68c20.8-15.04,41.05-31.02,63.53-43.54c-16.77-17.26-32.28-35.79-45.91-55.64
		c-1.2-1.85-2.59-3.56-4.17-5.07c-1.07-3.4-3.73-6.01-5.01-9.33c2.31,1.9,4.09,4.34,5.88,6.73c18.52,23.59,39.78,45.09,63.64,63.3
		c4.86,3.41,9.29,7.62,14.72,10.13c2.6,2.91,6.19,4.6,9.39,6.74c32.05,20.32,68.08,34.85,105.77,40.12
		c9.83,1.2,19.72,2.62,29.65,2.1c10.56-23.76,24.06-46.32,40.86-66.21c4.46-5.57,9.88-10.29,14.29-15.87
		c5.82-3.57,10.14-9.22,16.22-12.45c-2.05,3.19-5.24,5.34-7.82,8.06c-4.22,4.43-8.2,9.08-12.25,13.67c-0.92,1.11-2.1,2.18-2.36,3.68
		c-4.92,4.87-8.59,10.83-12.62,16.43c-17.49,25.64-31.12,53.87-40.52,83.45c-5.47,17.3-9.53,35.43-8.5,53.68
		c5.65-2.2,11.12-4.87,17.01-6.42c8.52-1.61,17.16-2.37,25.82-2.59c28.62-1.97,57.92,6.32,81.16,23.16
		c4.6-4.27,7.89-9.68,11.78-14.56c7.78-10.68,15.19-21.62,22-32.94c3.04-5.58,7.02-10.71,9.17-16.72c2.51-2.79,4-6.26,5.79-9.51
		c15.31-28.73,28.19-58.68,39.79-89.08c5.55-14.96,11.36-29.85,15.82-45.18c6.5-21.59,11.04-43.84,12.47-66.37
		c1.36-22.99,0.07-46.14-3.86-68.83c-23.53,11.09-48.04,20.11-73.24,26.59c-49.1,12.87-100.18,17.11-150.81,15.15
		c-47.03-2.24-93.19-12.95-138-26.95c-8.53-2.3-16.66-6.03-25.34-7.73c-3.54-2.19-7.7-2.98-11.54-4.45
		c-10.9-3.93-21.76-7.98-32.43-12.49C641.741,997.57,635.431,994.17,628.741,991.66 M1197.061,1005.03
		c-10.19,29.58-24.03,58.15-43.14,83.03c-1.73,1.68-0.97,4.1-0.62,6.18c0.86,4.25,1.5,8.55,2.42,12.79
		c4.58,33.1,4.59,66.9-0.75,99.92c-2.34,13.85-5.67,27.54-10.42,40.78c-1.44,4.72-4.03,9.04-4.99,13.92
		c8.42,0.79,16.89,0.02,25.3,0.86c6.28,0.72,12.53-0.69,18.83-0.41c12.56,0.17,25.09-0.72,37.61-1.66
		c24.59-2.1,49.12-5.4,73.21-10.76c0.26-5.32-0.87-10.57-0.94-15.87c-2.03-22.52-5.1-45.05-10.95-66.92
		c-6.66-27.34-17.9-53.34-30.71-78.31c-9.82-17.9-20.05-35.69-32.17-52.13c-2.32-4.7-5.84-8.63-8.73-12.96
		C1206.361,1017.34,1202.051,1010.91,1197.061,1005.03 M1130.531,1114.72c-3.59,3.69-7.79,6.76-11.06,10.76
		c-1.51,0.37-2.56,1.59-3.71,2.53c-10.23,9.02-21.73,16.45-33.21,23.75c-2.12,3.31-2.77,7.45-4.17,11.13
		c-8.61,23.82-18.24,47.27-28.21,70.55c-2.37,6.09-5.79,11.78-7.55,18.1c27.18,4.43,54.56,7.75,82.06,9.41
		c6.84-16.33,11.47-33.64,13.96-51.17c1.43-6.84,1.64-13.86,2.41-20.78c1.28-24,1.77-48.17-1.19-72.07
		c-0.13-3.43-0.43-6.85-1.21-10.19C1135.581,1109.01,1133.311,1112.13,1130.531,1114.72 M502.791,1160.84
		c-0.38,4.5,0.93,8.89,2.9,12.9c3.36-2.02,6.66-4.11,10-6.16C512.431,1164.01,507.951,1160.18,502.791,1160.84 M513.651,1177.43
		c-12.02,7.44-23.93,15.13-35.34,23.48c15.09,16.87,30.67,33.38,44.51,51.34c2.15,3.02,3.99,6.28,6.4,9.12
		c1.25,0.91,2.52-0.81,3.59-1.32c14.11-11.03,29.77-19.88,45.96-27.43c-18.62-20.27-37.34-40.59-57.34-59.52
		C518.441,1173.44,516.111,1175.83,513.651,1177.43 M439.531,1230.9c7.74,4,16.45,5.88,24.2,9.86c-6.75-0.03-12.94-3.49-19.64-3.74
		c-3.4-1.94-7.32-2.44-11.03-3.48c-26.97-6.96-54.03-14.18-81.79-17.18c-20.79-2.09-42.3-2.71-62.46,3.64
		c-4.74,1.78-10.1,3.56-13.2,7.82c-4.62,2.86-5.51,9.67-3.61,14.52l0.68,0.39c0.91,4.48,3.98,8,6.66,11.55
		c6.24,7.72,13.6,14.44,21.25,20.74c26.47,22.11,55.96,40.71,87.76,54.13c11.22,4.88,22.57,9.67,34.56,12.35
		c10.01,2.03,20.78,2.95,30.5-0.86c7.11-2.55,12.69-7.88,17.92-13.13c13.32-13.62,22.63-30.51,35.49-44.53
		c4.58-5.02,9.73-9.45,14.7-14.06c-3.48-5.06-6.62-10.35-10.38-15.2c-7.12-11.39-15.27-22.11-23.78-32.49
		c-4.67-5.68-8.79-11.82-13.85-17.17C461.861,1212.55,450.011,1220.97,439.531,1230.9 M575.771,1245.62
		c6.39,4.2,13.17,9.34,21.14,9.36c-0.69-6.33-6.54-10.43-10.37-15.04C582.761,1241.46,579.101,1243.28,575.771,1245.62
		 M868.021,1341.2c-1.48,3.05-2.61,6.25-3.49,9.54c-1.91,3.36-2.9,7.13-4.31,10.72c-3.78,10.23-8.09,20.25-12.27,30.33
		c10.31,3.19,21.03,4.8,31.53,7.3c8.04,1.62,15.79,4.44,23.84,6.02c8.57,2.78,17.36,5.02,26.2,6.76
		c3.38-12.87,7.1-25.67,12.09-38.02c2.11-6.11,5.31-11.79,7.36-17.9l-0.43-0.74c-6.18-2.89-12.8-4.73-19.24-6.94
		C909.661,1341.97,888.621,1337.49,868.021,1341.2 M843.691,1351.09c1.3,3.47,2.84,7.03,5.63,9.59c2.61-5.63,5.72-10.99,8.36-16.59
		C852.871,1346.11,848.201,1348.47,843.691,1351.09 M953.741,1375.22c4.12-1.58,8.63-4.67,9.29-9.34c0.5-2.49-1.67-4.11-3.4-5.38
		C957.221,1365.2,955.321,1370.17,953.741,1375.22 M845.041,1399.12c-8.67,20.4-14.78,41.79-19.91,63.32
		c-0.89,4.01-2.49,7.91-2.52,12.08c8.13-0.56,16.25-1.99,24.43-1.44c-1.82,1.42-4.2,1.42-6.36,1.82
		c-5.61,0.72-11.11,2.07-16.62,3.26c-1.48,0.37-3.09,0.58-4.3,1.59c-5.02,0.36-9.71,2.26-14.48,3.71
		c-33.58,10.83-65.44,28.44-90.41,53.6c-3.89,4.51-8.67,8.42-11.33,13.86c-1.67,0.88-2.71,2.53-3.8,4.01
		c-3.04,4.37-5.94,8.87-8.01,13.8c-3.18,5.86-4.61,13.09-2.39,19.53c1.5,4.28,5.73,6.63,9.7,8.25c10.36,4.03,21.57,5.48,32.64,5.35
		c23.78,0.7,47.37-2.77,71.01-4.67c20.57-2.26,41.19-4.28,61.62-7.7c13.18-1.95,27.19-3.76,38.3-11.76
		c6.22-4.31,10.28-10.99,12.81-18c7.2-19.48,5.4-40.51,5.59-60.86c0.52-24.71,1-49.57,5.7-73.92c-8.05-1.86-16.14-3.53-24.07-5.85
		C883.391,1412.59,864.081,1406.18,845.041,1399.12z"/>
	<path fill="#F5F4F3" stroke="#F5F4F3" d="M797.741,50.01c11.01-4.73,22.68-9.51,34.93-8.47c7.42,0.46,14.52,4.18,19.01,10.14
		c-14.41-0.98-28.77,2.97-41.38,9.79c-2.84,1.44-5.49,3.31-8.54,4.3c-7.87,1.62-14.98,5.47-22.1,9.02
		c-13.89,7.03-26.75,15.83-39.78,24.27c-17.95,11.92-36.08,23.63-53.01,37c-5.7,4.67-11.62,9.14-16.48,14.73
		c-5.89-1.21-11.76-2.6-17.59-4.06c21.24-23.01,46.17-42.4,72.56-59.15C748.311,72.91,772.781,60.81,797.741,50.01z"/>
	<path fill="#948B83" stroke="#948B83" d="M829.541,67.74c8.16-2.58,16.88-3.1,25.37-2.27c2,0.33,4.7,0.43,5.31,2.84
		c1.84,5.06,3.26,10.29,4.28,15.58c-19.13,1.95-37.78,8.51-54,18.82c-12.54,8.51-24.18,19.05-31.38,32.58
		c-4,7.34-7.35,16.19-4.34,24.49c2.08,6.83,7.67,11.57,12.62,16.36c7.03,6.68,15.63,11.62,21.92,19.08
		c12.5,14.64,24.91,29.44,35.37,45.63c2.59,3.85,4.08,8.47,7.65,11.61c-3.1,5.99-6.36,11.98-10.46,17.35
		c-11.55-15-23.67-29.64-37.4-42.71c-24.26-23.32-52.06-43.08-82.55-57.38c-1.6-0.69-3.05-1.65-4.45-2.67
		c19.97-29.81,45.38-55.84,73.76-77.7C803.201,80.9,815.391,72.12,829.541,67.74z"/>
	<path fill="#DAD8D4" stroke="#DAD8D4" d="M779.661,74.79c7.12-3.55,14.23-7.4,22.1-9.02c-2.67,2.83-6.2,4.57-9.27,6.9
		c-33.14,24.44-61.76,55.52-81.27,91.93c-4.8-1.35-9.24-3.68-13.95-5.29c-8.8-3.33-17.89-5.76-26.88-8.52
		c4.86-5.59,10.78-10.06,16.48-14.73c16.93-13.37,35.06-25.08,53.01-37C752.911,90.62,765.771,81.82,779.661,74.79z"/>
	<path fill="#B1AAA1" stroke="#B1AAA1" d="M810.501,102.71c16.22-10.31,34.87-16.87,54-18.82c2.23,7.94,3.19,16.15,5.04,24.17
		c3.9,17.31,5.78,35.07,5.51,52.8c0.4,31.8-7.6,63.65-22.71,91.6c-3.57-3.14-5.06-7.76-7.65-11.61
		c-10.46-16.19-22.87-30.99-35.37-45.63c-6.29-7.46-14.89-12.4-21.92-19.08c-4.95-4.79-10.54-9.53-12.62-16.36
		c-3.01-8.3,0.34-17.15,4.34-24.49C786.321,121.76,797.961,111.22,810.501,102.71z"/>
	<path fill="#B1AAA1" stroke="#B1AAA1" d="M582.541,141.59c3.63-0.98,7.42-0.74,11.14-0.74c4.05,0.04,8.17-0.31,12.14,0.74
		C598.061,141.49,590.301,141.55,582.541,141.59z"/>
	<path fill="#F5F4F3" stroke="#F5F4F3" d="M246.661,155.83c8.12-6.86,19.63-7.29,29.63-5.33c19.32,4.21,36.54,14.47,53.33,24.5
		c3.82,2.46,8.08,4.32,11.44,7.46c-5.54-0.11-10.5-2.76-15.72-4.25c-15.89-4.7-31.95-9.82-48.65-10.24
		c-12,0.12-24.13,3.07-34.36,9.47c-4.14,2.41-7.56,5.88-11.89,7.99C232.371,174.18,237.951,163.32,246.661,155.83z"/>
	<path fill="#B7B3AB" stroke="#B7B3AB" d="M556.611,161.63c10.9-1.86,22.03-2.2,33.07-2.12c38.03-0.73,76.34,6.06,111.43,20.84
		c61.82,25.78,113.38,74.01,145.46,132.58c18.28,32.99,30.51,69.43,35.05,106.9c7.45,61.24-6.53,124.4-37.31,177.71
		c-3.65,6.21-7.18,12.57-11.88,18.08c-8.92,10.57-16.93,21.85-24.91,33.12c-30.95,35.41-70.3,63.52-113.91,81.13
		c10.04-9.99,20.57-19.58,29.3-30.8c3.9-4.43,6.77-9.73,10.79-14.01c11.88-6.41,22.82-14.44,33.44-22.73
		c20.25-15.7,37.83-34.81,51.53-56.47c13.63-22.2,23.43-46.65,30.18-71.77c18.79-71.65,7.5-149.82-27.7-214.66
		c-12.85-23.84-28.76-45.99-47.27-65.75c-25.66-25.75-56.87-45.54-90.23-59.77C643.381,176.37,600.101,166.77,556.611,161.63z"/>
	<path fill="#DAD8D4" stroke="#DAD8D4" d="M447.881,199.08c31.99-19.95,68.43-32.4,105.76-37.3c0.74-0.04,2.23-0.11,2.97-0.15
		c43.49,5.14,86.77,14.74,127.04,32.28c33.36,14.23,64.57,34.02,90.23,59.77c18.51,19.76,34.42,41.91,47.27,65.75
		c35.2,64.84,46.49,143.01,27.7,214.66c-6.75,25.12-16.55,49.57-30.18,71.77c-13.7,21.66-31.28,40.77-51.53,56.47
		c-10.62,8.29-21.56,16.32-33.44,22.73c1.82-4.05,4.61-7.54,6.78-11.39c9.07-15.29,16.23-31.72,21.18-48.79
		c4.63-16.89,8.13-34.47,6.28-52.04c-2.56-26.7-15.44-51.03-30.51-72.73c-2.93-3.45-0.67-8.12-0.94-12.15
		c-0.34,0.1-1.02,0.31-1.35,0.42c-8.21,38.41-21.66,75.81-40.83,110.14c-1.68,2.89-3.03,6.09-5.5,8.42
		c-4.36,3.66-7.81,8.22-11.87,12.18c-11.27,11.42-22.42,22.98-34.8,33.21c-54.05,45.53-119.31,76.66-187.46,94.52
		c-36.37,9.56-73.71,15.32-111.23,17.6c-31.74,1.71-63.76,0.67-95.05-5.27c-40.17-7.57-79.46-22.31-112.84-46.21
		c-12.63-9.15-24.74-19.19-34.82-31.15c-12.02-13.83-22.21-29.23-30.26-45.69c-8.47-18-15.04-37.27-16.11-57.28
		c-0.9-10.79,0.68-21.63,3.1-32.12c2.04-4.37,5.69-7.68,9.04-11.04c11.05-10.55,25.76-16.15,40.4-19.58
		c17.98-4,36.44-5.08,54.78-5.89c18.17-1.36,36.67-1.14,54.37-5.99c3.18-0.69,5.33-3.27,7.55-5.43
		c11.98-11.64,22.16-25.01,31.41-38.87c1.11,0.38,2.25,0.71,3.28,1.31c16.67,9.69,35.25,16.42,54.51,18.31
		c17.72,1.99,36.18-0.31,52.31-8.15c13.47-6.3,24.91-16.49,33.51-28.54c10.98-15.25,15.82-34.35,15.45-52.99
		c0.2-17.14-3.67-34.21-10.55-49.87c-7.72-17.55-20.38-32.98-36.47-43.49c-4.13-2.83-8.71-4.91-12.93-7.59
		c5.05-7.67,11.06-14.65,16.79-21.81c1.93-3.06,5.89-1.83,8.83-1.48c12.94,2.58,22.89,12.75,29.48,23.67
		c2.83,4.28,4.18,9.27,6.55,13.78c-0.09-4.83-1.88-9.36-3.45-13.85c-4.25-11.32-10.57-22.24-20.18-29.83
		c-2.83-2.38-6.35-3.61-9.49-5.48C401.701,232.73,423.731,214.19,447.881,199.08 M543.721,204.97
		c-15.62,8.28-27.95,21.53-38.22,35.7c-8.2,11.76-15.56,24.4-19.61,38.23c3.11-3.77,4.44-8.62,7.21-12.62
		c13.8-21.62,35.56-37.04,58.73-47.31c17.58-7.69,36.6-12.46,55.83-12.8c5.44-0.29,10.8,0.93,16.24,0.87
		c-0.36-1.77-2.48-1.94-3.81-2.61c-13-4.5-26.51-8.63-40.41-8.29C567.171,195.72,554.831,199.41,543.721,204.97 M638.141,218.39
		c-28.01,1.97-55.2,11.41-79.27,25.68c-25.91,15.46-48.85,36.57-64.54,62.48c-19.97,33.43-23.66,77.66-4.71,112.36
		c6.9,12.5,16.37,23.54,27.26,32.76c11.57,9.35,23.33,18.67,36.78,25.22c17.65,8.92,37,15.76,57.02,15.38
		c16.59,0.47,32.91-3.03,49.07-6.35c16.77-3.7,33.52-7.93,49.36-14.66c16.67-7.09,32.67-16.5,45.3-29.66
		c12.52-12.67,21.36-28.78,26.01-45.94c8.85-33.07,2.61-68.77-12.5-99.06c-14.24-28.13-36.76-52.73-65.39-66.53
		C682.561,220.59,660.131,216.92,638.141,218.39 M87.641,549.8c-7.63,3.86-15.02,9.16-19.15,16.86c-5.38,9.3-6.25,20.59-4.41,31.01
		c-1.34,15.45,4.88,31.09,15.94,41.85c16.83,14.48,40.33,21.91,62.28,16.94c14.75-3.46,28.9-11.85,37.23-24.74
		c7.34-10.27,10.22-23.36,8.97-35.83c-0.31-6.18-3.62-11.58-5.53-17.33c-3.73-9.94-11.21-19.08-21.55-22.43
		C140.221,541.35,111.001,538.48,87.641,549.8z"/>
	<path fill="#DAD8D4" stroke="#DAD8D4" d="M242.331,177.44c10.23-6.4,22.36-9.35,34.36-9.47c16.7,0.42,32.76,5.54,48.65,10.24
		c5.22,1.49,10.18,4.14,15.72,4.25c0.8,0.05,1.53,0.31,2.21,0.77c17.77,11.64,34.92,24.26,51.25,37.85
		c-9.35,9.54-18.64,19.19-27.01,29.63c-1.09,1.46-2.38,2.75-3.63,4.08c-17.32-20.14-36.88-38.87-60.2-51.91
		c-16.42-9.09-35.23-15.41-54.2-13.45c-7.27,0.63-14.23,3-20.73,6.22c0.48-3.37,0.2-7.17,1.69-10.22
		C234.771,183.32,238.191,179.85,242.331,177.44z"/>
	<path fill="#693A0C" stroke="#693A0C" d="M543.721,204.97c11.11-5.56,23.45-9.25,35.96-8.83c13.9-0.34,27.41,3.79,40.41,8.29
		c1.33,0.67,3.45,0.84,3.81,2.61c-5.44,0.06-10.8-1.16-16.24-0.87c-19.23,0.34-38.25,5.11-55.83,12.8
		c-23.17,10.27-44.93,25.69-58.73,47.31c-2.77,4-4.1,8.85-7.21,12.62c4.05-13.83,11.41-26.47,19.61-38.23
		C515.771,226.5,528.101,213.25,543.721,204.97z"/>
	<path fill="#948B83" stroke="#948B83" d="M232.261,203.36c14.79-6.81,31.98-5.01,47.05-0.12c22.16,7.99,41.23,22.74,57.53,39.47
		c6.94,6.8,13.24,14.21,19.64,21.51c-23.86,32.56-44.53,67.37-63.26,103.12c-0.68,1.26-1.53,2.42-2.34,3.6
		c-4.7-6.05-8.43-12.84-11.71-19.74c4.43-9.58,7.39-19.84,12.96-28.89c6.64-11.38,15.99-20.83,23.1-31.87
		c4.99-8.07,8.4-18.09,5.4-27.49c-2.75-9.7-10.37-16.95-18.1-22.92c-10.95-7.18-23.24-12.66-36.24-14.7
		c-10.95-1.3-22.18-0.65-32.83,2.29c-1.31,0.32-2.28,1.29-3.32,2.07c-0.71-7.58-2.13-15.16-1.72-22.79
		C228.401,204.81,230.801,204.23,232.261,203.36z"/>
	<path fill="#693A0C" stroke="#693A0C" d="M638.141,218.39c21.99-1.47,44.42,2.2,64.39,11.68c28.63,13.8,51.15,38.4,65.39,66.53
		c15.11,30.29,21.35,65.99,12.5,99.06c-4.65,17.16-13.49,33.27-26.01,45.94c-12.63,13.16-28.63,22.57-45.3,29.66
		c-15.84,6.73-32.59,10.96-49.36,14.66c-16.16,3.32-32.48,6.82-49.07,6.35c-20.02,0.38-39.37-6.46-57.02-15.38
		c-13.45-6.55-25.21-15.87-36.78-25.22c-10.89-9.22-20.36-20.26-27.26-32.76c-18.95-34.7-15.26-78.93,4.71-112.36
		c15.69-25.91,38.63-47.02,64.54-62.48C582.941,229.8,610.131,220.36,638.141,218.39 M635.061,229.31
		c-35.93,2.97-70.88,17.23-98.48,40.45c-14.33,12.54-27.2,27.19-35.48,44.47c-13.22,25.39-17.01,55.99-8.2,83.44
		c10.98,34.83,39.54,62.13,72.64,76.3c18.15,6.68,37.95,8.12,57.09,6.13c21.24-1.77,42.22-6.6,62.2-14.02
		c15.03-5.6,29.51-13,42.2-22.87c15.55-12.23,27.98-28.59,34.71-47.25c11.34-30.26,9.63-64.66-2.86-94.29
		c-11.29-27.44-32.84-51.03-60.33-62.74C678.641,230.47,656.561,227.6,635.061,229.31z"/>
	<path fill="#B1AAA1" stroke="#B1AAA1" d="M233.461,227.62c10.65-2.94,21.88-3.59,32.83-2.29c13,2.04,25.29,7.52,36.24,14.7
		c7.73,5.97,15.35,13.22,18.1,22.92c3,9.4-0.41,19.42-5.4,27.49c-7.11,11.04-16.46,20.49-23.1,31.87
		c-5.57,9.05-8.53,19.31-12.96,28.89c-4.72-8.33-8.81-16.99-13.61-25.28c-16-30.28-29.32-62.38-35.42-96.23
		C231.181,228.91,232.151,227.94,233.461,227.62z"/>
	<path fill="#706247" stroke="#706247" d="M635.061,229.31c21.5-1.71,43.58,1.16,63.49,9.62c27.49,11.71,49.04,35.3,60.33,62.74
		c12.49,29.63,14.2,64.03,2.86,94.29c-6.73,18.66-19.16,35.02-34.71,47.25c-12.69,9.87-27.17,17.27-42.2,22.87
		c-19.98,7.42-40.96,12.25-62.2,14.02c-19.14,1.99-38.94,0.55-57.09-6.13c-33.1-14.17-61.66-41.47-72.64-76.3
		c-8.81-27.45-5.02-58.05,8.2-83.44c8.28-17.28,21.15-31.93,35.48-44.47C564.181,246.54,599.131,232.28,635.061,229.31
		 M567.681,302.84c-15.4,2.74-29.49,11.89-38.09,24.97c-8.12,12.35-11.65,27.36-11.25,42.04c-0.14,17.56,5.49,35.72,17.81,48.57
		c3.23,2.86,6.33,6.39,10.73,7.36c0.94,1,1.99,1.93,3.21,2.62c8.73,4.66,19.02,5.25,28.65,3.76c6.68-1.07,13.5-2.42,19.54-5.6
		c3.18,0.47,6.23-0.68,9.07-1.99c19.53-8.33,32.28-27.87,36.91-48.05c2.68-13.47,2.42-28.07-3.47-40.69
		c-5.74-12.63-16.82-22.48-29.65-27.53C597.581,302.41,582.271,300.31,567.681,302.84z"/>
	<path fill="#706247" stroke="#706247" d="M347.541,297.73c1.02-1.28,1.73-3.04,3.29-3.74c2.91,0.38,5.2,2.6,7.68,4.05
		c12.72,7.9,23.56,18.89,31.06,31.87c19.2,32.35,20.98,75.51,1.19,108.01c-7.6,12.97-19.83,23.04-33.89,28.28
		c-18.12,7.27-38.18,8.05-57.4,6.05c-15-1.6-29.37-6.82-42.66-13.82c0.56-2.04,1.66-3.85,2.83-5.58
		c14.15-21.82,25.62-45.19,37.84-68.08c0.33,13.15,2.62,27.38,11.94,37.36c2.24,2.02,4.13,5.34,7.54,5.18
		c3.44,4.01,8.6,5.91,13.76,6.34c8.12,0.87,16.24-1.01,23.79-3.9c12.69-1.78,22.74-11.77,28.29-22.83c4.62-8.17,6.42-17.73,6-27.05
		c-0.15-11.08-5.49-22.03-14.24-28.84c-11.94-9.15-27.81-12.2-42.49-9.73c-5.14,0.96-9.73,3.53-14.54,5.42
		C326.051,329.57,336.871,313.62,347.541,297.73z"/>
	<path fill="#693A0C" stroke="#693A0C" d="M567.681,302.84c14.59-2.53,29.9-0.43,43.46,5.46c12.83,5.05,23.91,14.9,29.65,27.53
		c5.89,12.62,6.15,27.22,3.47,40.69c-4.63,20.18-17.38,39.72-36.91,48.05c-2.84,1.31-5.89,2.46-9.07,1.99
		c7.61-4.49,15.19-9.33,20.96-16.15c10.57-11.47,15.91-27.04,16.44-42.48c0.21-7.09-0.47-14.32-3.01-20.98
		c-3.85-11.57-12.84-21-23.66-26.4c-14.75-7.43-32.55-7.95-47.99-2.37c-13.09,4.68-23.74,15.37-28.72,28.31
		c-5.97,15.04-5.89,31.81-2.74,47.48c0.82,4.17,2.26,8.17,3.93,12.06c2.66,7.65,7.96,13.91,13.39,19.75
		c-4.4-0.97-7.5-4.5-10.73-7.36c-12.32-12.85-17.95-31.01-17.81-48.57c-0.4-14.68,3.13-29.69,11.25-42.04
		C538.191,314.73,552.281,305.58,567.681,302.84z"/>
	<path fill="#B7B3AB" stroke="#B7B3AB" d="M1152.861,310.34c3.6-1.01,8.52-2.36,11.21,1.19c3.04,4.51,2.04,10.27,1.37,15.31
		c-2.99,17.37-10.63,33.39-17.18,49.6c-3.7,8.99-6.15,18.44-9.62,27.5c1.25-10.94,3.72-21.67,5.64-32.49
		c2.13-10.9,4.42-21.79,7.51-32.46C1154.431,329.84,1156.861,319.42,1152.861,310.34z"/>
	<path fill="#DAD8D4" stroke="#DAD8D4" d="M1128.781,331c6.17-8.69,13.99-16.7,24.08-20.66c4,9.08,1.57,19.5-1.07,28.65
		c-3.09,10.67-5.38,21.56-7.51,32.46c-1.92,10.82-4.39,21.55-5.64,32.49c-0.79,5.14-2.62,10.07-3.04,15.28
		c4.06-4.23,6.55-9.66,10.22-14.21c9.25-12.88,20.23-24.98,34.29-32.68c8.21-4.4,17.27-8.41,26.81-7.53
		c1.22,9.12-1.38,18.38-6.14,26.15c-10.27,17-26,30.07-35.2,47.79c-2.73,4.32-9.01,6.04-10.16,11.26
		c6.82-0.74,12.33-7.92,19.47-5.32c11.65,3.1,23.71,4.17,35.73,4.6c9.45,0.29,18.82,2.57,27.38,6.59c0.17,7.08-2.8,14.49-8.88,18.44
		c-5.53,3.37-12.23,4.52-18.62,3.95c-11.69-0.98-23.01-4.96-34.82-4.58c-11.4-0.45-22.5,3.37-32.31,8.92
		c-9.42,5.29-18.69,11.44-29.48,13.52c-9.75,2.17-19.67-0.36-28.85-3.6c-12.37-4.06-23.51-11.24-33.15-19.89
		c-2.45-2.23-4.84-4.51-7.38-6.62l-0.57-0.49c8.75-6.9,18.31-12.72,27.79-18.56c2.5-1.29,4.81-3.38,7.65-3.78
		c4.73,3.35,8.63,8.19,14.37,9.87c-3.46-5.19-8.39-9.16-12.17-14.11c-16.77-19.96-29.01-44.75-30.2-71.12
		c0.74-10.16,12.92-16.29,22.13-13.8c5.51,1.6,7.57,7.54,9.69,12.26c8.21,21.2,14.6,43.08,19.9,65.18c0.37,1.41,0.97,2.75,1.59,4.1
		c1.47-3.7,0.29-7.75,0.34-11.6c-0.24-9.11-1.85-18.09-2.68-27.13c0.22-6.53,2.67-12.71,4.32-18.97
		C1111.911,361.37,1118.851,345.23,1128.781,331z"/>
	<path fill="#D0D3EA" stroke="#D0D3EA" d="M561.021,318.18c15.44-5.58,33.24-5.06,47.99,2.37c10.82,5.4,19.81,14.83,23.66,26.4
		c-2.28-2.08-4.6-4.11-6.74-6.33c-8.54-8.82-19.69-15.77-32.11-17.04c-18.55-2.19-38.3,5.86-49.26,21.17
		c-8.61,11.46-12.79,25.86-12.93,40.11c-0.21,7.1,0.9,14.15,1.86,21.17c-1.67-3.89-3.11-7.89-3.93-12.06
		c-3.15-15.67-3.23-32.44,2.74-47.48C537.281,333.55,547.931,322.86,561.021,318.18z"/>
	<path fill="#FFFFFF" stroke="#FFFFFF" d="M544.561,344.75c10.96-15.31,30.71-23.36,49.26-21.17c12.42,1.27,23.57,8.22,32.11,17.04
		c2.14,2.22,4.46,4.25,6.74,6.33c2.54,6.66,3.22,13.89,3.01,20.98c-0.53,15.44-5.87,31.01-16.44,42.48
		c-5.77,6.82-13.35,11.66-20.96,16.15c-6.04,3.18-12.86,4.53-19.54,5.6c-9.63,1.49-19.92,0.9-28.65-3.76
		c-1.22-0.69-2.27-1.62-3.21-2.62c-5.43-5.84-10.73-12.1-13.39-19.75c-0.96-7.02-2.07-14.07-1.86-21.17
		C531.771,370.61,535.951,356.21,544.561,344.75 M582.071,337.39c-10.05,1.41-19.05,8.16-23.55,17.21
		c-3.36,6.44-3.93,14.07-2.53,21.12c2.1,9.54,8.88,17.97,17.81,21.97c6.16,2.81,13.2,3.17,19.82,2.12
		c13.9-2.66,24.92-15.7,25.06-29.88c0.71-12.21-6.52-24.32-17.53-29.6C595.321,337.25,588.541,336.56,582.071,337.39z"/>
	<path fill="#693A0C" stroke="#693A0C" d="M582.071,337.39c6.47-0.83,13.25-0.14,19.08,2.94c11.01,5.28,18.24,17.39,17.53,29.6
		c-0.14,14.18-11.16,27.22-25.06,29.88c-6.62,1.05-13.66,0.69-19.82-2.12c-8.93-4-15.71-12.43-17.81-21.97
		c-1.4-7.05-0.83-14.68,2.53-21.12C563.021,345.55,572.021,338.8,582.071,337.39 M571.631,350.7c-3.58-0.08-7.37,0.49-10.18,2.87
		c-4.76,3.46-5.71,10.58-3.09,15.63c1.67,3.31,5.02,5.4,8.49,6.45c-0.58,0.01-1.73,0.03-2.31,0.04c1.54,8.64,9.96,14.51,18.12,16.14
		c9.41,1.67,20.02-2.88,24.28-11.66c3.73-6.01,3.77-13.62,1.53-20.17c-2.97-7.64-10.3-13.41-18.42-14.5
		C583.541,344.32,576.621,346.44,571.631,350.7z"/>
	<path fill="#1A0E0A" stroke="#1A0E0A" d="M571.631,350.7c4.99-4.26,11.91-6.38,18.42-5.2c8.12,1.09,15.45,6.86,18.42,14.5
		c2.24,6.55,2.2,14.16-1.53,20.17c-4.26,8.78-14.87,13.33-24.28,11.66c-8.16-1.63-16.58-7.5-18.12-16.14
		c0.58-0.01,1.73-0.03,2.31-0.04c3.48-0.03,7.38,0.02,10.17-2.41c5.1-3.73,6.38-11.42,2.97-16.68
		C578.211,353.46,574.871,351.82,571.631,350.7z"/>
	<path fill="#D0D3EA" stroke="#D0D3EA" d="M314.931,361.13c10.21-11.17,27.22-14.03,41.34-9.85c5.77,1.9,11.7,4.66,15.45,9.63
		c-9.44-4.42-19.85-8.86-30.49-6.4c-12.93,3.19-22.99,13.78-28.29,25.67c-5.36,11.08-5.13,23.86-3.46,35.78
		c-3.52-6.43-4.41-13.9-4.88-21.1C303.931,382.94,306.681,370.14,314.931,361.13z"/>
	<path fill="#FFFFFF" stroke="#FFFFFF" d="M561.451,353.57c2.81-2.38,6.6-2.95,10.18-2.87c3.24,1.12,6.58,2.76,8.36,5.86
		c3.41,5.26,2.13,12.95-2.97,16.68c-2.79,2.43-6.69,2.38-10.17,2.41c-3.47-1.05-6.82-3.14-8.49-6.45
		C555.741,364.15,556.691,357.03,561.451,353.57z"/>
	<path fill="#FFFFFF" stroke="#FFFFFF" d="M341.231,354.51c10.64-2.46,21.05,1.98,30.49,6.4c3.95,2.89,6.12,7.61,7.85,12.06
		c4.4,13.25,1.6,28.3-5.88,39.9c-4.7,7.33-11.91,12.37-19.18,16.88c-7.55,2.89-15.67,4.77-23.79,3.9
		c-5.16-0.43-10.32-2.33-13.76-6.34c-2.92-3.46-5.99-7.01-7.48-11.35c-1.67-11.92-1.9-24.7,3.46-35.78
		C318.241,368.29,328.301,357.7,341.231,354.51 M325.471,380.66c1.48-1.52,2.73-3.38,4.64-4.39c1.97-0.68,4.11-0.64,6.1-1.24
		c2.02,1.31,4.66,2.14,5.81,4.45c2,3.73,1.52,9.09-2.06,11.73c-2.63,2.27-6.32,1.72-9.52,1.91c-1.22-2.06-3.54-3.3-4.4-5.58
		c-0.51-1.92-0.6-3.92-0.85-5.87c-1.69,6.33-1.05,13.48,2.76,18.95c4.01,6.23,11.28,10.17,18.7,10.1
		c11.86,0.67,22.97-9.9,22.8-21.81c0.85-10.13-6.49-19.85-16.15-22.57C342.141,362.86,329.011,369.44,325.471,380.66z"/>
	<path fill="#B7B3AB" stroke="#B7B3AB" d="M1206.921,364.8c5.75,0.53,12.06,2.35,15.42,7.44c3.03,4.95,2.3,11.23,0.14,16.37
		c-2.79,7.53-8.6,13.37-14.58,18.5c-7.03,5.7-14.61,10.66-21.84,16.09c-7.02,4.93-13.41,10.69-20.48,15.54
		c9.2-17.72,24.93-30.79,35.2-47.79C1205.541,383.18,1208.141,373.92,1206.921,364.8z"/>
	<path fill="#693A0C" stroke="#693A0C" d="M325.471,380.66c3.54-11.22,16.67-17.8,27.83-14.32c9.66,2.72,17,12.44,16.15,22.57
		c0.17,11.91-10.94,22.48-22.8,21.81c-7.42,0.07-14.69-3.87-18.7-10.1c-3.81-5.47-4.45-12.62-2.76-18.95
		c0.25,1.95,0.34,3.95,0.85,5.87c0.86,2.28,3.18,3.52,4.4,5.58c1.93,3.82,4.13,7.89,8.29,9.66c8.25,4.7,20.23,0.72,23.44-8.36
		c3.11-7.25,0.04-16.25-6.43-20.56c-3.48-1.95-7.61-3.03-11.6-2.47c-2.97,0.36-5.4,2.2-7.93,3.64c-1.99,0.6-4.13,0.56-6.1,1.24
		C328.201,377.28,326.951,379.14,325.471,380.66z"/>
	<path opacity="0.41" fill="#2F1D0C" stroke="#2F1D0C" enable-background="new    " d="M1165.771,370.23
		c2.82-1.75,5.73-3.48,9.01-4.23c-1.2,1.4-2.3,2.87-3.36,4.36c-2.22,0.15-4.45,0.25-6.65,0.29c0.1-1.32,0.23-2.64,0.44-3.95
		l0.91-0.42C1166.011,367.59,1165.891,368.91,1165.771,370.23z"/>
	<path fill="#1A0E0A" stroke="#1A0E0A" d="M344.141,371.39c3.99-0.56,8.12,0.52,11.6,2.47c6.47,4.31,9.54,13.31,6.43,20.56
		c-3.21,9.08-15.19,13.06-23.44,8.36c-4.16-1.77-6.36-5.84-8.29-9.66c3.2-0.19,6.89,0.36,9.52-1.91c3.58-2.64,4.06-8,2.06-11.73
		c-1.15-2.31-3.79-3.14-5.81-4.45C338.741,373.59,341.171,371.75,344.141,371.39z"/>
	<path fill="#CCBBAB" stroke="#CCBBAB" d="M289.021,372.89c1.28,0.69,1.25,1.31-0.08,1.87
		C288.961,374.29,289.001,373.35,289.021,372.89z"/>
	<path fill="#CABAAA" stroke="#CABAAA" d="M1098.421,379.14c1.72,0.3,2.07,1.22,1.03,2.75
		C1098.751,381.1,1098.411,380.18,1098.421,379.14z"/>
	<path fill="#BDA995" stroke="#BDA995" d="M1099.741,382.8l0.91,0.06C1101.771,385,1098.451,384.82,1099.741,382.8z"/>
	<path opacity="0.66" fill="#5E4630" stroke="#5E4630" enable-background="new    " d="M1579.411,397.74
		c2.65-1.14,5.88-1.42,8.52-0.02C1585.071,397.74,1582.241,397.74,1579.411,397.74z"/>
	<path fill="#706247" stroke="#706247" d="M1541.701,429.92c11.2-5.99,22.31-12.58,34.64-16c8.98,13.11,17.56,26.54,24.31,40.97
		c15.27,31.59,24.91,65.65,30.88,100.15c-3.44-0.89-6.39-2.88-9.54-4.39c-38.42-18.62-80.01-30.9-122.5-35.39
		c-18.57-2.17-37.29-1.76-55.94-1.49c11.03-15.44,23.33-29.91,34.73-45.06c1.58-1.9,3.95-2.89,5.97-4.28
		C1502.901,452.12,1522.221,440.87,1541.701,429.92z"/>
	<path fill="#493C2A" stroke="#493C2A" d="M1576.341,413.92c11.93,0.35,24.06,2.23,34.92,7.42c15.83,7.51,28.28,20.54,38.23,34.71
		c23.4,33.6,38.2,72.45,47.99,112.02c3.21,14.14,6.44,28.33,8.11,42.74c-2.14-1.04-4.06-2.45-5.66-4.2
		c-19.41-20.5-42.66-37.15-67.43-50.56c-0.25-0.25-0.73-0.75-0.97-1.01c-5.97-34.5-15.61-68.56-30.88-100.15
		C1593.901,440.46,1585.321,427.03,1576.341,413.92z"/>
	<path fill="#F5F4F3" stroke="#F5F4F3" d="M1072.301,435.45c1.22,0.27,1.97,1.97,0.4,2.43c-0.22-0.42-0.66-1.27-0.88-1.69
		L1072.301,435.45z"/>
	<path fill="#958569" stroke="#958569" d="M900.841,438.68c1.54,4.57,0.61,9.47,0.85,14.19c-0.19,4.38,0.63,8.94-0.85,13.18
		C901.021,456.93,901.011,447.81,900.841,438.68z"/>
	<path fill="#F5F4F3" stroke="#F5F4F3" d="M1175.731,441.62c1.4-1.28,3.06-2.19,4.82-2.91c-0.63,0.75-1.58,1.44-1.13,2.54
		C1178.181,441.39,1176.941,441.5,1175.731,441.62z"/>
	<path fill="#B1AAA1" stroke="#B1AAA1" d="M1202.541,439.59c5.64-1.17,11.58-1.05,17.25-0.03
		C1214.031,439.48,1208.281,439.59,1202.541,439.59z"/>
	<path fill="#B7B3AB" stroke="#B7B3AB" d="M1238.001,455.87c3.37,1.69,6.83,3.81,8.57,7.32c1.38,3.2-0.07,6.83-2.49,9.1
		c-7.21,7.35-17.32,11.19-27.32,12.82c-13.27,2.53-26.71-0.74-40.06,0.68c-5.96,0.83-12.18,0.53-17.94,2.26
		c-15.9,9.29-30.86,20.14-45.07,31.84c-3.39,2.66-6.49,5.68-10.01,8.17c-15.56-11.61-29.77-25.12-41.79-40.37
		c-5.73-7.28-12.14-14.05-17.38-21.68c2.54,2.11,4.93,4.39,7.38,6.62c9.64,8.65,20.78,15.83,33.15,19.89
		c9.18,3.24,19.1,5.77,28.85,3.6c10.79-2.08,20.06-8.23,29.48-13.52c9.81-5.55,20.91-9.37,32.31-8.92
		c11.81-0.38,23.13,3.6,34.82,4.58c6.39,0.57,13.09-0.58,18.62-3.95C1235.201,470.36,1238.171,462.95,1238.001,455.87z"/>
	<path fill="#958569" stroke="#958569" d="M1464.551,477.74c4.57-3.02,8.83-6.53,13.73-9.03c-11.4,15.15-23.7,29.62-34.73,45.06
		c-8.95,0.83-17.92,1.68-26.89,2.01C1431.681,501.97,1448.001,489.65,1464.551,477.74z"/>
	<path fill="#F4A255" stroke="#F4A255" d="M962.671,536.1c23.54-23.14,47.83-45.6,74.19-65.53c2.58,2.2,4.24,5.19,6.27,7.88
		c11.46,15.3,22.6,30.91,35.46,45.09c-10.52,9.62-19.16,21.01-28.63,31.61c-7.21,7.81-15.61,15.45-26.33,17.71
		c-10.42,2.58-21.16-1.38-29.73-7.22c-9.13-5.67-16.35-13.71-24.27-20.83C967.051,542.13,964.531,539.34,962.671,536.1z"/>
	<path fill="#D0D3EA" stroke="#D0D3EA" d="M734.731,506.96c1.24,1.21,1.77,2.9,2.45,4.46c4.87,11.42,9.8,23.03,12.24,35.24
		c-2.28,11.55-5.97,22.73-9.02,34.07c-4.98-3.97-9.96-7.94-15.42-11.25c0.76-5.36,2.56-10.5,3.47-15.83
		C731.661,538.25,732.731,522.53,734.731,506.96z"/>
	<path fill="#C76D23" stroke="#C76D23" d="M1049.961,555.15c9.47-10.6,18.11-21.99,28.63-31.61c4.95,4.67,9.76,9.48,14.84,14.01
		c-21.4,19.58-41.77,40.36-60.54,62.49c-3.77,4.21-6.98,8.91-10.97,12.89c-12.85-15.99-25.43-32.19-37.88-48.49
		c-4.83-6.52-10.27-12.65-14.41-19.63c7.92,7.12,15.14,15.16,24.27,20.83c8.57,5.84,19.31,9.8,29.73,7.22
		C1034.351,570.6,1042.751,562.96,1049.961,555.15z"/>
	<path fill="#DAD8D4" stroke="#DAD8D4" d="M1426.501,524.41c37.12-1.62,74.49,2.16,110.58,11.05c33.44,8.44,66.39,20.04,96.02,37.94
		c0.4,0.37,1.2,1.12,1.6,1.49c2.98,24.22,4.56,48.59,4.86,72.98c-0.45,21.41-1.54,42.82-4.01,64.11
		c-5.7-3.46-10.36-8.35-15.77-12.22c-30.94-23.89-65.41-43.2-101.95-57.07c-48.3-18.68-100.88-25.11-152.38-21
		c2.48-0.56,5.83-0.28,7.08-3c18.18-31.16,38.53-61.02,59.83-90.12c0.82-1.25,1.59-2.54,2.39-3.81
		C1431.991,524.6,1429.241,524.45,1426.501,524.41z"/>
	<path fill="#FCFCFB" stroke="#FCFCFB" d="M1406.181,525.5c6.73-0.75,13.54-0.95,20.32-1.09c2.74,0.04,5.49,0.19,8.25,0.35
		c-0.8,1.27-1.57,2.56-2.39,3.81c-21.3,29.1-41.65,58.96-59.83,90.12c-1.25,2.72-4.6,2.44-7.08,3c-14.62,1.35-29.17,3.27-43.58,6.04
		c18.14-28.39,39.28-54.83,61.99-79.7C1391.091,540.33,1398.251,532.48,1406.181,525.5z"/>
	<path fill="#F7EF49" stroke="#F7EF49" d="M917.101,554.3c10.5-7.58,20.75-15.58,31.54-22.76c9.46,14.29,18.71,28.76,28.7,42.72
		c6.87,9.85,14.13,19.43,20.71,29.49c-7.45,6.71-15.21,13.09-22.14,20.35c-2.46,2.6-5.08,5.02-7.92,7.2
		c-16.73-24.19-33.82-48.13-50.41-72.41C916.701,557.53,914.851,555.38,917.101,554.3z"/>
	<path fill="#693A0C" stroke="#693A0C" d="M87.641,549.8c23.36-11.32,52.58-8.45,73.78,6.33c10.37,8.23,18.94,19.77,20.74,33.15
		c1.66,12.05-4.21,24.05-13.07,31.97c-13.34,12.05-31.53,18.24-49.4,18.04c-14.31,0.17-29.21-4.7-39.24-15.22
		c-7-7.68-13.94-16.03-16.37-26.4c-1.84-10.42-0.97-21.71,4.41-31.01C72.621,558.96,80.011,553.66,87.641,549.8 M108.661,549.93
		c-10.06,0.84-20.09,4.5-27.74,11.18c-5.25,5.55-9.46,12.39-10.98,19.96c-0.25,1.87-0.59,4.14,0.85,5.66
		c-0.56,4.51,0.51,8.97,1.73,13.29c2.28,8.17,6.62,16.51,14.32,20.72c7.78,4.89,17.48,4.77,26.27,3.62
		c17.64-3.31,35.92-8.32,49.8-20.26c7-6.05,8.61-16.4,5.34-24.81c-2.34-5.75-5.47-11.58-10.5-15.4c-0.47-1.18-1.73-1.73-2.65-2.49
		C141.781,551.94,124.791,548.37,108.661,549.93z"/>
	<path fill="#B7B3AB" stroke="#B7B3AB" d="M46.261,573.42c2.15-9.41,5.2-19,11.21-26.69c-2.42,10.49-4,21.33-3.1,32.12
		c1.07,20.01,7.64,39.28,16.11,57.28c8.05,16.46,18.24,31.86,30.26,45.69c10.08,11.96,22.19,22,34.82,31.15
		c33.38,23.9,72.67,38.64,112.84,46.21c31.29,5.94,63.31,6.98,95.05,5.27c37.52-2.28,74.86-8.04,111.23-17.6
		c68.15-17.86,133.41-48.99,187.46-94.52c12.38-10.23,23.53-21.79,34.8-33.21c4.06-3.96,7.51-8.52,11.87-12.18
		c-1.65,4.65-4.68,8.61-7.3,12.74c-18.2,28.03-40.53,53.38-66.05,74.96c-47.59,40.35-105.63,67.15-165.98,82.01
		c-80.08,19.16-165.78,16.95-243.93-9.65c-35.03-12.25-68.4-30.06-96.46-54.51c-23.95-20.86-43.7-46.89-55.48-76.5
		C46.011,616.23,41.761,594.43,46.261,573.42z"/>
	<path fill="#FFFFFF" stroke="#FFFFFF" d="M740.401,580.73c3.05-11.34,6.74-22.52,9.02-34.07c3.96,14.27,5.07,29.45,3.36,44.15
		C748.591,587.53,744.471,584.16,740.401,580.73z"/>
	<path fill="#844D31" stroke="#844D31" d="M108.661,549.93c16.13-1.56,33.12,2.01,46.44,11.47c0.92,0.76,2.18,1.31,2.65,2.49
		c1.81,8.36-0.75,16.97-4.78,24.29c-5.57,9.94-15.87,16.43-26.67,19.36c-6.51,1.44-13.25,2.86-19.92,1.72
		c-6.95-1.23-14.19-2.77-19.89-7.19c-6.07-4.2-10.89-9.83-15.7-15.34c-1.44-1.52-1.1-3.79-0.85-5.66
		c1.52-7.57,5.73-14.41,10.98-19.96C88.571,554.43,98.601,550.77,108.661,549.93 M105.081,554.35c-5.45,0.78-10.66,2.76-15.4,5.54
		c-4.51,2.53-9.47,5.44-11.27,10.61c-1.2,4.2,2.36,8.41,6.42,9.13c7.65,1.3,15.19-1.31,22.8-1.62c10.06-0.11,19.97,2.54,30.04,2.08
		c3.26,0.05,5.48-2.74,7.12-5.18c3.96-6.16,0.83-15.5-6.07-17.99C127.961,553.18,116.281,552.96,105.081,554.35z"/>
	<path fill="#AC7151" stroke="#AC7151" d="M105.081,554.35c11.2-1.39,22.88-1.17,33.64,2.57c6.9,2.49,10.03,11.83,6.07,17.99
		c-1.64,2.44-3.86,5.23-7.12,5.18c-10.07,0.46-19.98-2.19-30.04-2.08c-7.61,0.31-15.15,2.92-22.8,1.62
		c-4.06-0.72-7.62-4.93-6.42-9.13c1.8-5.17,6.76-8.08,11.27-10.61C94.421,557.11,99.631,555.13,105.081,554.35z"/>
	<path fill="#B7B3AB" stroke="#B7B3AB" d="M161.421,556.13c10.34,3.35,17.82,12.49,21.55,22.43c1.91,5.75,5.22,11.15,5.53,17.33
		c1.25,12.47-1.63,25.56-8.97,35.83c-8.33,12.89-22.48,21.28-37.23,24.74c-21.95,4.97-45.45-2.46-62.28-16.94
		c-11.06-10.76-17.28-26.4-15.94-41.85c2.43,10.37,9.37,18.72,16.37,26.4c10.03,10.52,24.93,15.39,39.24,15.22
		c17.87,0.2,36.06-5.99,49.4-18.04c8.86-7.92,14.73-19.92,13.07-31.97C180.361,575.9,171.791,564.36,161.421,556.13z"/>
	<path fill="#E61A74" stroke="#E61A74" d="M907.901,561.9c0.31-1.77,2.36-2.23,3.64-3.13c9.53,14.85,18.79,29.9,28.73,44.5
		c7.34,11.22,14.69,22.44,21.68,33.89c-4.98,7.23-11.48,13.22-16.82,20.16c-5.23,5.81-9.43,12.53-15.3,17.75
		c-0.59-0.22-1.78-0.68-2.38-0.91c4.35,7.67,9.72,14.73,15.53,21.35c1.66,1.97,3.82,3.69,4.71,6.2c3.2,10.79,8.01,21.03,11.37,31.78
		c7.07,20.54,12.91,41.57,15.96,63.11c2.57,15.96,2.95,32.16,2.51,48.29l0.03,0.77c-32.45,18.16-66.46,33.61-101.8,45.23
		c-43.47,14.54-89.16,23.17-135.08,22.99c-25.86,0.41-51.71-4.05-76.2-12.19c5.28-5.73,11.3-10.78,15.89-17.12
		c7.77-10.34,14.24-22.58,14.51-35.78c3.07-8.84,9.39-16.66,10.82-26.05c-1.38,0.01-2.65,0.52-3.48,1.65
		c-7.73,9.02-15.01,18.41-22.18,27.87c-3.96,4.65-6.89,10.23-11.55,14.25c-8.89,5.99-16.27,13.89-24.72,20.45
		c-10.25,7.99-19.95,16.84-31.15,23.49c-4.79-8.75-8.89-17.89-14.17-26.37c-9.11-15.53-19.71-30.22-32.51-42.93
		c21.5-12.54,40.81-28.6,57.58-46.96c7.58,1.1,15.21-0.15,22.78-0.76c27.42-3.73,53.31-14.56,77.73-27.2
		c3.79-1.91,7.46-4.05,11.02-6.37c6.2,4.87,12.33,10.17,19.95,12.73c14.82,5.63,31.8,1.89,44.68-6.72
		c8.2-5.93,14.39-14.25,18.83-23.27c7.83-16.37,11.37-34.49,12.18-52.53c5.99-5.08,10.97-11.18,16.15-17.05
		c23.05-26.51,41.73-56.91,54.22-89.78C903.621,576.22,906.601,569.3,907.901,561.9z"/>
	<path fill="#F2EEEB" stroke="#F2EEEB" d="M883.061,563.52c-1.64,1.38-1.86-1.61-0.36-1.94l0.79,0.37
		C883.381,562.34,883.171,563.13,883.061,563.52z"/>
	<path fill="#CF0163" stroke="#CF0163" d="M898.851,568.06c2.9-2.21,5.62-4.77,9.05-6.16c-1.3,7.4-4.28,14.32-6.84,21.34
		c-12.49,32.87-31.17,63.27-54.22,89.78c-5.18,5.87-10.16,11.97-16.15,17.05c-0.83-9.13-1.47-18.35-4.03-27.2
		c-0.41-2.25-1.83-5.04,0.12-6.95c14.49-16.64,26.9-35.04,37.43-54.42c2.29-4,3.58-8.83,7.38-11.75
		C880.611,582.44,889.591,575.07,898.851,568.06z"/>
	<path fill="#723C25" stroke="#723C25" d="M157.751,563.89c5.03,3.82,8.16,9.65,10.5,15.4c3.27,8.41,1.66,18.76-5.34,24.81
		c-13.88,11.94-32.16,16.95-49.8,20.26c-8.79,1.15-18.49,1.27-26.27-3.62c-7.7-4.21-12.04-12.55-14.32-20.72
		c-1.22-4.32-2.29-8.78-1.73-13.29c4.81,5.51,9.63,11.14,15.7,15.34c5.7,4.42,12.94,5.96,19.89,7.19
		c6.67,1.14,13.41-0.28,19.92-1.72c10.8-2.93,21.1-9.42,26.67-19.36C157.001,580.86,159.561,572.25,157.751,563.89z"/>
	<path fill="#D0D3EA" stroke="#D0D3EA" d="M723.201,574.01c5.87,2.93,10.91,7.27,16,11.36c-1.1,1.63-2.2,3.29-2.96,5.12
		c-5.66,13.99-12.25,27.64-20.47,40.32c-3.69-3.02-7.49-5.88-11.18-8.87c-1.27-0.74-0.3-2.15,0.06-3.08
		C712.081,604.47,718.391,589.48,723.201,574.01z"/>
	<path fill="#B7B3AB" stroke="#B7B3AB" d="M1634.701,574.89c3.47,1.21,6.34,3.56,9.39,5.54c24.19,15.84,45.63,35.67,64.27,57.73
		c1.65,2.05,1.41,4.89,1.79,7.37c0.68,9.78,1.37,19.56,1.82,29.36c0.13,12.32,0.09,24.64,0.02,36.97
		c-1.02,24.85-3.39,49.67-7.56,74.2c-3.06-2.33-4.99-5.7-7.37-8.63c-17.1-21.35-35.42-41.83-55.96-59.94
		c-1.9-1.78-4.26-3.21-5.55-5.51c2.47-21.29,3.56-42.7,4.01-64.11C1639.261,623.48,1637.681,599.11,1634.701,574.89z"/>
	<path fill="#FFFFFF" stroke="#FFFFFF" d="M736.241,590.49c0.76-1.83,1.86-3.49,2.96-5.12c4.39,3.85,8.93,7.54,13.1,11.64
		c-1.75,13.59-5.91,26.78-11.08,39.44c-1.97,4.19-3.45,8.69-6.21,12.44c-6.13-6.33-12.54-12.37-19.24-18.08
		C723.991,618.13,730.581,604.48,736.241,590.49z"/>
	<path fill="#D5CA01" stroke="#D5CA01" d="M998.051,603.75c6.02,7.91,11.77,16.04,17.58,24.12c-9.42,10.15-18.59,20.54-27.78,30.9
		c-7.14-8.75-13.48-18.15-19.86-27.47c2.84-2.18,5.46-4.6,7.92-7.2C982.841,616.84,990.601,610.46,998.051,603.75z"/>
	<path fill="#D4C7BB" stroke="#D4C7BB" d="M1028.561,621.7c-1.39-0.5-1.45-1.12-0.17-1.85
		C1028.431,620.31,1028.521,621.24,1028.561,621.7z"/>
	<path fill="#D0D3EA" stroke="#D0D3EA" d="M701.101,625.1c4.72,2.67,8.56,6.61,12.53,10.26c-5.78,7.12-10.43,15.08-16.24,22.19
		c-5.67,7.58-12.3,14.38-18.02,21.91c-3.94-2.76-8.09-5.24-11.63-8.51C679.971,656.53,692.071,641.8,701.101,625.1z"/>
	<path fill="#706247" stroke="#706247" d="M1358.561,632.47c23.71-1.25,47.53,0.48,71.05,3.62c44.19,6.48,87.48,20.4,126.42,42.4
		c25.03,14.08,48.23,31.28,69.65,50.38c2.21,2.18,5.34,3.84,6.69,6.68c-3.58,17.81-6.82,35.71-11.82,53.19
		c-8.09,30.43-19.18,60.04-32.75,88.44c-12.33-14.09-24.61-28.32-38.65-40.77c-63.46-59.42-146.16-98.04-232.52-108.15
		c1.27-0.11,2.55-0.24,3.85-0.37c7.85-18.75,15.13-37.79,24.13-56.05c4.15-9.31,8.61-18.48,13.63-27.35
		c2.11-3.75,4.1-7.58,5.58-11.62C1362.051,632.71,1360.301,632.55,1358.561,632.47z"/>
	<path fill="#958569" stroke="#958569" d="M1317.311,636.5c13.65-2.12,27.44-3.42,41.25-4.03c1.74,0.08,3.49,0.24,5.26,0.4
		c-1.48,4.04-3.47,7.87-5.58,11.62c-5.02,8.87-9.48,18.04-13.63,27.35c-9,18.26-16.28,37.3-24.13,56.05
		c-1.3,0.13-2.58,0.26-3.85,0.37c-15.57-1.86-31.25-2.47-46.91-2.67c11.07-28.11,25.48-54.84,41.08-80.68
		C1312.871,642.1,1313.971,637.99,1317.311,636.5z"/>
	<path fill="#FFFFFF" stroke="#FFFFFF" d="M697.391,657.55c5.81-7.11,10.46-15.07,16.24-22.19c6.74,5.73,13.15,11.9,19.02,18.5
		c-8.37,15.77-18.99,30.41-31.1,43.52c-7.27-6.12-14.43-12.4-22.18-17.92C685.091,671.93,691.721,665.13,697.391,657.55z"/>
	<path fill="#CF0163" stroke="#CF0163" d="M961.951,637.16c6.11,9.99,12.31,19.94,18.83,29.68c-8.54,10.67-16.29,21.93-24.22,33.05
		c-6.43-5.54-12.74-11.19-18.96-16.95c-2.67-2.54-5.64-4.82-7.77-7.87c5.87-5.22,10.07-11.94,15.3-17.75
		C950.471,650.38,956.971,644.39,961.951,637.16z"/>
	<path fill="#B7B3AB" stroke="#B7B3AB" d="M804.781,678.99c3.74-3.35,6.88-7.36,10.95-10.34c1.14,17.34-1.48,34.86-6.94,51.33
		c-3.72,10.1-7.8,20.64-15.92,28.08c-6.91,6.88-16.5,10.97-26.25,11.17c-6.52,0.13-13.4-0.3-19.27-3.39
		c12-1.84,24.23-4.83,34.17-12.16c7.57-5.05,11.89-13.4,15.41-21.52c3.67-8.99,6.07-18.65,5.85-28.41
		c-4.65,2.66-8.74,6.13-13.31,8.9c-11.57,7.11-23.87,13.18-36.88,17.14c3.18-2.92,6.98-5.01,10.5-7.47
		C777.781,702.26,791.761,691.14,804.781,678.99z"/>
	<path fill="#B1AAA1" stroke="#B1AAA1" d="M1729.861,711.95c0.19-12.46,0.01-24.93,0.3-37.38c1.04,6.04,0.32,12.2,0.52,18.3
		C1730.511,699.23,1731.221,705.69,1729.861,711.95z"/>
	<path fill="#D0D3EA" stroke="#D0D3EA" d="M627.591,709.75c12.94-10.41,24.72-22.13,36.18-34.11c3.76,2.68,7.15,5.82,10.73,8.73
		c-7.54,5.85-13.46,13.48-20.75,19.63c-6,5.66-12.88,10.35-18.48,16.41c-3.48-2.55-7.4-4.57-10.5-7.56
		C625.071,711.41,626.641,710.73,627.591,709.75z"/>
	<path fill="#FFFFFF" stroke="#FFFFFF" d="M653.751,704c7.29-6.15,13.21-13.78,20.75-19.63c7.47,5.88,15.1,11.58,22.32,17.77
		c-1.47,2.72-3.94,4.64-6.05,6.82c-10.34,10.43-21.68,19.93-34.13,27.75c-7.07-5.5-14.03-11.15-21.37-16.3
		C640.871,714.35,647.751,709.66,653.751,704z"/>
	<path fill="#DAD8D4" stroke="#DAD8D4" d="M789.471,702.65c4.57-2.77,8.66-6.24,13.31-8.9c0.22,9.76-2.18,19.42-5.85,28.41
		c-3.52,8.12-7.84,16.47-15.41,21.52c-9.94,7.33-22.17,10.32-34.17,12.16c-10.47-2.28-18.65-10.6-24.73-19.04
		c5.9-3.47,12.05-6.48,17.89-10.06c4.06-2.24,7.76-5.19,12.08-6.95C765.601,715.83,777.901,709.76,789.471,702.65z"/>
	<path fill="#CF0163" stroke="#CF0163" d="M947.691,701.71c4.59,3.41,8.02,8.07,11.92,12.2c11.93,12.84,21.39,27.7,30.27,42.74
		c9.57,16.9,18.01,34.42,25.94,52.15c1.57,3.28,3.06,6.59,4.15,10.07c-9.97,7.67-21.01,13.9-31.7,20.53
		c-3.56,1.86-6.72,4.69-10.74,5.49c0.44-16.13,0.06-32.33-2.51-48.29c-3.05-21.54-8.89-42.57-15.96-63.11
		C955.701,722.74,950.891,712.5,947.691,701.71z"/>
	<path fill="#C2AF9C" stroke="#C2AF9C" d="M961.411,705.75c-1.29-0.66-1.29-1.3,0.02-1.9
		C961.431,704.33,961.421,705.28,961.411,705.75z"/>
	<path fill="#D0D3EA" stroke="#D0D3EA" d="M591.761,736.05c9.84-6.45,19.37-13.36,28.85-20.32c3.55,2.29,6.77,5.02,10.02,7.72
		c-9.95,7.03-19.45,14.76-30.05,20.85C597.551,741.64,594.481,739.03,591.761,736.05z"/>
	<path fill="#FFFFFF" stroke="#FFFFFF" d="M600.581,744.3c10.6-6.09,20.1-13.82,30.05-20.85c6.87,5.36,13.8,10.77,19.84,17.06
		c-6.79,3.69-13.57,7.48-20.77,10.33c-6.2,1.9-12.62,3.05-18.98,4.26C607.211,751.63,603.861,747.99,600.581,744.3z"/>
	<path fill="#FCFCFB" stroke="#FCFCFB" d="M1265.431,735.56c0.52-0.94,0.83-2.76,2.31-2.46c10,0.14,19.95,1.35,29.86,2.61
		c6.44,0.69,12.85,1.69,19.18,3.12c-10.73,28.94-19.67,58.49-28.06,88.17c-15.49-5.34-31.21-9.96-47.01-14.26
		C1247.311,786.38,1255.691,760.67,1265.431,735.56z"/>
	<path fill="#493C2A" stroke="#493C2A" d="M1620.551,788.74c5-17.48,8.24-35.38,11.82-53.19c7.21,5.94,14.16,12.25,20.39,19.23
		c3.25,4.05,7.02,7.64,10.68,11.34c12.09,13.3,23.73,27.03,34.88,41.14c2.51,2.97,0.66,6.91-0.01,10.21
		c-9.74,43.41-24.39,85.67-42.96,126.09c-2.63,4.84-4.1,10.35-7.67,14.65c-2.28-2.31-3.85-5.15-5.48-7.9
		c-16.47-25.57-35.39-49.43-54.4-73.13C1601.371,848.78,1612.461,819.17,1620.551,788.74z"/>
	<path fill="#CF0163" stroke="#CF0163" d="M716.621,739.75c0.9-0.34,1.82-0.63,2.77-0.87c4.41,7.57,9.96,14.35,15.66,20.98
		c-3.56,2.32-7.23,4.46-11.02,6.37c-24.42,12.64-50.31,23.47-77.73,27.2c-7.57,0.61-15.2,1.86-22.78,0.76
		c5.5-7.01,11.44-13.69,16.31-21.17c1.82-2.48,3.2-5.89,6.6-6.45C670.631,759.97,694.171,750.94,716.621,739.75z"/>
	<path fill="#DAD8D4" stroke="#DAD8D4" d="M1316.781,738.83c37.78,6.38,74.4,18.83,109.17,34.79c33.43,15.45,65.41,34.5,93.21,58.79
		c21.69,18.97,41.63,39.97,59.64,62.46c-19.04,36.53-42.42,70.79-69.03,102.22c-22.61-28.87-47.4-56.04-74.21-81.07
		c-25.75-24.76-55.13-45.65-86.69-62.34c-19.32-10.45-39.61-18.97-60.15-26.68C1297.111,797.32,1306.051,767.77,1316.781,738.83z"/>
	<path fill="#D0D3EA" stroke="#D0D3EA" d="M576.131,745.38c3.19-1.79,6.15-4.03,9.53-5.49c3.4,2.09,5.78,5.61,8.35,8.65
		c-6.22,4.44-13.13,7.79-19.31,12.28c0.51,0.1,1.51,0.3,2.02,0.41c-9.28,1.67-18.67,2.64-28.01,3.84
		c-4.68,0.51-9.32,1.54-14.05,1.52c3.22-2.23,6.97-3.45,10.46-5.16C555.641,756.44,566.011,751.14,576.131,745.38z"/>
	<path fill="#FFFFFF" stroke="#FFFFFF" d="M574.701,760.82c6.18-4.49,13.09-7.84,19.31-12.28c2.8,2.53,5.3,5.37,7.62,8.35
		c-8.2,1.91-16.58,3.15-24.91,4.34C576.211,761.12,575.211,760.92,574.701,760.82z"/>
	<path fill="#F5F4F3" stroke="#F5F4F3" d="M621.731,772.54c0.72-0.38,2.36-1.31,2.62,0.07c-0.27,0.81-0.72,1.53-1.35,2.16
		C622.691,774.21,622.051,773.1,621.731,772.54z"/>
	<path fill="#F5F4F3" stroke="#F5F4F3" d="M499.721,780.33c1.91-0.73,3.95-0.58,5.86,0.06
		C504.071,781.68,501.171,781.71,499.721,780.33z"/>
	<path fill="#958569" stroke="#958569" d="M1239.291,822.48c0.3-1.15,0.49-3.59,2.33-2.76c15.06,4.59,29.97,9.86,44.36,16.27
		c-1.54,7.86-4.03,15.5-5.93,23.28c-3.82,15.19-7.6,30.39-11.39,45.59c-1.71,6.54-3.02,13.24-5.76,19.45
		c-6.7-6.85-13.24-13.86-20.12-20.54c-5.23-5.58-11.43-10.17-16.47-15.91C1230.221,865.99,1234.761,844.23,1239.291,822.48z"/>
	<path fill="#D5CA01" stroke="#D5CA01" d="M1014.851,835.07c3.12-2.34,5.83-5.29,9.35-7.06c22.77,51.47,43.68,103.87,60.13,157.72
		c-15.5,9.39-31.73,17.65-48.65,24.17c-42.13,16.29-87.31,22.78-132.18,25.54c-49.18,3.5-98.78-0.93-146.9-11.46
		c-6.51-1.74-13.42-2.39-19.54-5.3c21.95-1.77,44.12-1.7,65.89-5.54c36.19-6.47,71.93-19.25,101.46-41.57
		c25.94-20.06,47.22-46.41,60.5-76.45c4.32-10.03,7.52-20.52,9.82-31.19c4.01-3.74,9.2-6.08,13.58-9.41
		C997.411,848.39,1006.211,841.83,1014.851,835.07z"/>
	<path fill="#706247" stroke="#706247" d="M1285.981,835.99c36.66,15.21,71.03,35.8,102.04,60.55
		c28.2,22.96,53.38,49.35,77.09,76.85c10.63,12.85,21.44,25.63,31,39.31c-18.2,20.64-38.24,39.58-59.12,57.47
		c-15.78,13.63-32.5,26.12-49.51,38.15c-3.93-6.12-6.21-13.14-9.82-19.45c-17.22-33.19-36.89-65.07-58.27-95.73
		c-17.32-24.14-36.34-47.02-56.49-68.83c2.74-6.21,4.05-12.91,5.76-19.45c3.79-15.2,7.57-30.4,11.39-45.59
		C1281.951,851.49,1284.441,843.85,1285.981,835.99z"/>
	<path fill="#F7EF49" stroke="#F7EF49" d="M537.391,854.61c7.95-2.94,15.5-6.8,23.11-10.49c10.21,11.75,18.89,24.76,26.77,38.16
		c6.63,11.1,12.19,22.86,16.44,35.07c-7.18,4.03-14.07,8.62-21.64,11.92c-6.49,3.17-13.4,5.32-20.24,7.56
		c-9.39-20.13-20.09-39.62-31.36-58.76c-3.12-6.03-7.02-11.57-10.78-17.2C525.471,858.45,531.611,857.04,537.391,854.61z"/>
	<path fill="#CF0163" stroke="#CF0163" d="M689.711,856.9c1.62-2.77,2.9-5.79,5.17-8.11c-0.27,13.2-6.74,25.44-14.51,35.78
		c-4.59,6.34-10.61,11.39-15.89,17.12c-1.17-0.36-2.34-0.67-3.51-0.91c1.31-6.06,5.98-10.34,9.48-15.17
		C677.471,876.46,683.851,866.83,689.711,856.9z"/>
	<path opacity="0.85" fill="#B8AEA4" stroke="#B8AEA4" enable-background="new    " d="M516.011,862.68
		c1.12,0.84,0.59,2.38-0.76,2.55l-0.34-0.87C515.181,863.94,515.731,863.1,516.011,862.68z"/>
	<path fill="#F7EF49" stroke="#F7EF49" d="M957.591,873.73c5.81-3.09,11.12-7.1,17.14-9.8c-2.3,10.67-5.5,21.16-9.82,31.19
		c-13.28,30.04-34.56,56.39-60.5,76.45c-29.53,22.32-65.27,35.1-101.46,41.57c-21.77,3.84-43.94,3.77-65.89,5.54
		c-3.79,0.2-7.37-1.37-10.98-2.24c-19.8-5.38-39.21-12.04-58.75-18.26c-12.3-4.35-24.74-8.38-36.77-13.45
		c6.53-27.14,18.33-52.61,28.35-78.57c19.52,7.39,39.46,14.1,60.18,17.22c41.89,6.5,84.69,2.4,125.98-6.11
		C884.551,908.74,922.511,893.68,957.591,873.73z"/>
	<path fill="#DAD8D4" stroke="#DAD8D4" d="M361.691,871.85c-0.25-3.48,2.75-6.58,6.19-6.64c7.16-0.46,13.98,2.36,20.52,4.92
		c12.55,5.03,23.29,13.39,35.01,19.97c6.45,3.67,12.95,7.27,19.61,10.56c2.42,1.38,4.86-0.88,7.26-1.28
		c7.67-2.01,14.97-5.11,22.41-7.77c0.45,1.04,0.82,2.11,1.11,3.23c1.19,15.89,8.67,30.16,14.06,44.87
		c3.52,9.22,7.99,18.04,13.15,26.44c-8.94,4.76-18.41,8.45-27.76,12.33c-1.42,8-0.46,16.32-2.6,24.21
		c-1.89,5.29-3.55,10.66-5.07,16.07c-1.34,4.4-3.13,9.3-7.36,11.71c-4.71,1.63-9.7-0.82-13.25-3.88c-3.54-3.17-6.78-6.65-10.31-9.83
		c-3.16-5.37-3.83-11.82-5.31-17.79c-4.61,4.63-7.94,10.41-12.88,14.72c-7.68,5.87-15.93,10.96-24.36,15.66
		c-5.52,3.11-11.17,6.44-17.55,7.33c-1.95,0.17-4.73,0.56-5.45-1.83c2.24-11.94,8.51-22.55,14.7-32.82
		c8.14-13.75,17.37-26.84,27.81-38.93c-1.93,0.33-3.85,0.74-5.79,0.94c-17.69-0.37-35,3.9-52.38,6.52
		c-13.25,2.41-27.91,1.37-39.01-6.97c9.06-12.26,23.06-19.72,37.11-24.84c19.13-6.7,39.26-9.72,59.13-13.31
		c-0.26-0.89-0.82-1.49-1.66-1.79c-13.13-5.5-25.13-13.85-34.66-24.43C367.721,891.58,361.731,882.31,361.691,871.85z"/>
	<path fill="#CF0163" stroke="#CF0163" d="M643.771,886.96c8.45-6.56,15.83-14.46,24.72-20.45c-0.96,2.56-2.64,4.73-4.37,6.82
		c-12.89,16.59-25.89,33.28-41.51,47.42c-1.38,1.21-2.64,2.78-4.57,3.04c-1.64-4.52-3.95-8.77-5.42-13.34
		C623.821,903.8,633.521,894.95,643.771,886.96z"/>
	<path fill="#F4A255" stroke="#F4A255" d="M511.101,876.29c3.36-1.22,6.58-3,10.2-3.33c1.74,4.29,4.29,8.31,5.28,12.87
		c0.94,13.2,6.22,26.19,3.69,39.53c-1.05,5.9-4.83,11.03-9.84,14.23c-4.51,3.05-9.83,4.48-14.87,6.37
		c-5.46-8.52-9.82-17.69-14.37-26.7c-3.24-6.43-6.47-12.86-9.38-19.45c-1.5-3.5-3.65-6.8-4.14-10.63
		C488.651,884.47,499.921,880.47,511.101,876.29z"/>
	<path fill="#C76D23" stroke="#C76D23" d="M526.581,885.83c2.25,3.67,3.7,7.74,5.5,11.64c5.77,12.78,12.42,25.15,17.91,38.06
		c0.57,1.29,0.64,2.72,0.8,4.13c-12.09,7.1-24.2,14.28-36.96,20.11c-2.94-4.49-5.67-9.12-8.27-13.81
		c5.04-1.89,10.36-3.32,14.87-6.37c5.01-3.2,8.79-8.33,9.84-14.23C532.801,912.02,527.521,899.03,526.581,885.83z"/>
	<path fill="#FCFCFB" stroke="#FCFCFB" d="M1225.211,891.89c2.36,0.92,4.09,2.82,5.82,4.62c10.68,11.31,21.47,22.62,30.72,35.13
		c-2.83,7.84-4.81,15.95-7.46,23.85c-7.39,22.47-15.67,44.75-26.77,65.69c-8.08-10.7-16.17-21.4-25.06-31.45
		c6.23-22.26,12.28-44.6,16.81-67.27C1221.171,912.25,1223.461,902.12,1225.211,891.89z"/>
	<path fill="#C8B9A9" stroke="#C8B9A9" d="M438.661,893.32c0.53-0.17,1.6-0.51,2.13-0.69l0.84,0.56
		C440.941,894.33,439.461,894.3,438.661,893.32z"/>
	<path fill="#B7B3AB" stroke="#B7B3AB" d="M473.801,894.84c6.37,14.18,12.37,28.55,19.54,42.36c4.17,8.94,9.41,17.37,13.26,26.45
		c-1.81,0.93-3.68,1.76-5.59,2.5c-5.16-8.4-9.63-17.22-13.15-26.44C482.471,925,474.991,910.73,473.801,894.84z"/>
	<path fill="#B7B3AB" stroke="#B7B3AB" d="M1578.801,894.87c11.82,13.93,22.64,28.68,33.58,43.31
		c9.03,12.54,18.33,24.91,27.09,37.65c-17.45,33.58-38.38,65.32-61.91,94.95c-3.94,4.74-7.66,9.68-11.93,14.13
		c-1.63-1.88-2.67-4.13-3.74-6.32c-14.62-28.82-32.68-55.74-52.12-81.5C1536.381,965.66,1559.761,931.4,1578.801,894.87z"/>
	<path fill="#F5F4F3" stroke="#F5F4F3" d="M640.621,918.68c0.81-0.7,1.83-1.06,2.81-1.46c-0.18,1.15-0.42,2.29-0.68,3.45
		C641.441,920.68,640.731,920.02,640.621,918.68z"/>
	<path fill="#D5CA01" stroke="#D5CA01" d="M582.071,929.27c7.57-3.3,14.46-7.89,21.64-11.92c2.29,4.63,3.87,9.57,5.7,14.4
		c-6.41,5.68-13.6,10.41-20.67,15.23c-6.72,4.36-13.38,9.09-20.93,11.92c-1-7.61-3.37-14.89-5.98-22.07
		C568.671,934.59,575.581,932.44,582.071,929.27z"/>
	<path fill="#F5F4F3" stroke="#F5F4F3" d="M392.351,919.45c1.1,0,3.7,1.79,1.41,2.25C392.221,921.45,391.751,920.7,392.351,919.45z"
		/>
	<path opacity="0.84" fill="#CECBC9" stroke="#CECBC9" enable-background="new    " d="M640.951,922.13
		C641.471,922.66,641.471,922.66,640.951,922.13z"/>
	<path fill="#DAD8D4" stroke="#DAD8D4" d="M1261.751,931.64c12.43,14.82,23.45,30.78,34.54,46.62
		c8.85,13.16,17.93,26.19,26.47,39.57c19.99,31.17,37.14,64.13,51.59,98.22c-2.7,3.3-6.52,5.25-10.09,7.43
		c-20.15,12.6-40.93,24.22-62.3,34.63c-2.59,1.18-5.25,2.82-8.19,2.16c-7.34-35.62-23.22-68.83-41.43-100.08
		c-7.73-13.34-16.31-26.16-24.82-39.01c11.1-20.94,19.38-43.22,26.77-65.69C1256.941,947.59,1258.921,939.48,1261.751,931.64z"/>
	<path fill="#DAD8D4" stroke="#DAD8D4" d="M552.621,956.19c1.49-1.75,4.08-1.83,4.42,0.87
		C555.751,957.6,553.721,957.03,552.621,956.19z"/>
	<path fill="#B7B3AB" stroke="#B7B3AB" d="M312.231,974.23c-2.65-3.39-0.22-7.88,2.21-10.64c11.1,8.34,25.76,9.38,39.01,6.97
		c17.38-2.62,34.69-6.89,52.38-6.52c-12.56,4.41-25.72,6.92-38.55,10.46c-13.77,4.08-28.3,5.44-42.62,4.49
		C320.291,978.44,315.251,977.82,312.231,974.23z"/>
	<path fill="#B8A38D" stroke="#B8A38D" d="M384.671,980.67c0.51-0.23,1.52-0.69,2.03-0.91c1.71,0.28,0.14,2.35-0.99,2.09
		C385.451,981.55,384.931,980.96,384.671,980.67z"/>
	<path fill="#F5F4F3" stroke="#F5F4F3" d="M479.241,990.74c-0.29-1.82-1.57-4.38,0.23-5.73
		C480.481,986.61,480.231,989.14,479.241,990.74z"/>
	<path fill="#788CC6" stroke="#788CC6" d="M628.741,991.66c6.69,2.51,13,5.91,19.63,8.57c10.67,4.51,21.53,8.56,32.43,12.49
		c3.84,1.47,8,2.26,11.54,4.45c8.27,6.68,17.59,11.87,26.52,17.59c16.83,10.65,34.54,19.82,52.47,28.46
		c33.7,15.59,70.16,25.75,107.33,27.65c9.99-0.04,19.95,1.62,29.94,0.7c8.99-0.86,18.06-0.4,27.04-1.54
		c13.77-1.03,27.44-3.09,41.09-5.16c10.44-1.91,21.74-0.41,30.91,5.1c10.76,6.48,17.46,17.89,21.4,29.52
		c4.34,12.08,6.01,24.9,7.32,37.6c0.56,4.9-0.21,9.8-0.89,14.65c-2.85,24.34-7.7,48.38-12.57,72.37c-2,8.87-3.41,17.9-6.43,26.51
		c-1.92,6.27-5.09,12.09-6.75,18.46c-2.15,6.01-6.13,11.14-9.17,16.72c-6.81,11.32-14.22,22.26-22,32.94
		c-3.89,4.88-7.18,10.29-11.78,14.56c-23.24-16.84-52.54-25.13-81.16-23.16c-8.66,0.22-17.3,0.98-25.82,2.59
		c2.11-22.3,6.82-44.26,13.01-65.75c6.39-22.95,15.17-45.18,25.24-66.74c2.15-4.87,5.44-9.31,6.38-14.65
		c0.26-1.5,1.44-2.57,2.36-3.68c4.05-4.59,8.03-9.24,12.25-13.67c2.58-2.72,5.77-4.87,7.82-8.06c-6.08,3.23-10.4,8.88-16.22,12.45
		c-7.9,3.2-14.1,9.23-20.55,14.61c-11.86,11.16-22.95,23.4-36.71,32.33c-14.48,9.48-32.41,12.64-49.46,10.95
		c-10.59-1.06-21.11-2.85-31.43-5.47c-11.28-2.91-22.71-5.3-33.69-9.26c-9.46-3.11-18.54-7.31-28.12-10.04
		c-5.43-2.51-9.86-6.72-14.72-10.13c-23.86-18.21-45.12-39.71-63.64-63.3c-1.79-2.39-3.57-4.83-5.88-6.73
		c1.28,3.32,3.94,5.93,5.01,9.33c1.87,11.44,10.55,20.34,12.57,31.72c1.41,8.3-2.76,16.36-8.08,22.45
		c-9.57,10.77-24.05,16.12-38.19,16.84c-7.73,0.47-15.52-1.21-22.37-4.81c-9.57-5.1-18.01-12.62-28.69-15.44
		c-3.77-1.93-6.33-5.56-9.61-8.17c-4.06-3.79-8.31-7.35-12.27-11.24c7.13-7.31,13.29-15.52,20.7-22.57
		c12.98-12.4,26.39-24.37,40.26-35.76c14.04-11.73,28.16-23.46,43.57-33.36c5.06-3.22,10.08-6.52,14.65-10.43
		c3.37-2.87,7.13-5.48,9.28-9.46c1.09-1.2,2.8-1.58,4.2-2.33c0.54-4.6-5.03-2.7-7.71-2.72c-10.25,0.34-19.89,3.9-29.76,6.17
		c0.01-14.82,1.75-29.6,4.34-44.18C625.661,1004.95,626.621,998.15,628.741,991.66z"/>
	<path fill="#DAD8D4" stroke="#DAD8D4" d="M1096.371,1010.12c-0.21-3.06-1.11-6.34,0.36-9.21
		C1096.721,1003.98,1096.641,1007.05,1096.371,1010.12z"/>
	<path fill="#B7B3AB" stroke="#B7B3AB" d="M465.581,1018.76c1.52-5.41,3.18-10.78,5.07-16.07c-0.51,10.73-3.44,21.19-6.79,31.35
		c-1.37,3.91-2.79,8.28-6.43,10.68c-5.68,1.46-9.71-3.93-12.74-7.85c-4.12-6.23-8.29-12.77-10.03-20.11
		c3.53,3.18,6.77,6.66,10.31,9.83c3.55,3.06,8.54,5.51,13.25,3.88C462.451,1028.06,464.241,1023.16,465.581,1018.76z"/>
	<path fill="#958569" stroke="#958569" d="M1197.061,1005.03c4.99,5.88,9.3,12.31,13.95,18.46c2.89,4.33,6.41,8.26,8.73,12.96
		c-10.29,16.15-20.94,32.32-34.76,45.72c-8.83,9.31-18.47,17.88-29.26,24.86c-0.92-4.24-1.56-8.54-2.42-12.79
		c-0.35-2.08-1.11-4.5,0.62-6.18C1173.031,1063.18,1186.871,1034.61,1197.061,1005.03z"/>
	<path fill="#B1AAA1" stroke="#B1AAA1" d="M479.681,1006.17c1.82,0.86,1.82,5.5,0.02,6.4
		C479.511,1010.43,479.511,1008.29,479.681,1006.17z"/>
	<path fill="#5576B9" stroke="#5576B9" d="M1006.491,1036.7c25.2-6.48,49.71-15.5,73.24-26.59c3.93,22.69,5.22,45.84,3.86,68.83
		c-1.43,22.53-5.97,44.78-12.47,66.37c-4.46,15.33-10.27,30.22-15.82,45.18c-11.6,30.4-24.48,60.35-39.79,89.08
		c-1.79,3.25-3.28,6.72-5.79,9.51c1.66-6.37,4.83-12.19,6.75-18.46c3.02-8.61,4.43-17.64,6.43-26.51
		c4.87-23.99,9.72-48.03,12.57-72.37c0.68-4.85,1.45-9.75,0.89-14.65c-1.31-12.7-2.98-25.52-7.32-37.6
		c-3.94-11.63-10.64-23.04-21.4-29.52c-9.17-5.51-20.47-7.01-30.91-5.1c-13.65,2.07-27.32,4.13-41.09,5.16
		c-8.98,1.14-18.05,0.68-27.04,1.54c-9.99,0.92-19.95-0.74-29.94-0.7c-37.17-1.9-73.63-12.06-107.33-27.65
		c-17.93-8.64-35.64-17.81-52.47-28.46c-8.93-5.72-18.25-10.91-26.52-17.59c8.68,1.7,16.81,5.43,25.34,7.73
		c44.81,14,90.97,24.71,138,26.95C906.311,1053.81,957.391,1049.57,1006.491,1036.7z"/>
	<path fill="#493C2A" stroke="#493C2A" d="M1496.111,1012.7c12.14,15.33,22.91,31.71,33.78,47.97c7.49,11.89,15.31,23.6,22.17,35.88
		c1.68,2.4-0.62,4.76-2.15,6.52c-7.12,7.23-14.3,14.4-21.49,21.56c-27.34,26.54-57.83,49.8-90.41,69.56
		c-4.85,2.84-9.72,5.66-14.7,8.25c-1.64,0.91-2.57-1.11-2.78-2.4c-5.51-21.48-13.31-42.27-21.04-63.03
		c-3.59-9.74-8.36-18.99-12.01-28.69c17.01-12.03,33.73-24.52,49.51-38.15C1457.871,1052.28,1477.911,1033.34,1496.111,1012.7z"/>
	<path fill="#B7B3AB" stroke="#B7B3AB" d="M392.111,1029.35c8.43-4.7,16.68-9.79,24.36-15.66c-5.55,8.25-12.83,15.16-20.27,21.69
		c-4.98,4.17-10.22,8.2-16.17,10.88c-2.67,1.07-6.24,2.22-8.63-0.02c-2.91-3.01-2.54-7.55-2.29-11.39c0.72,2.39,3.5,2,5.45,1.83
		C380.941,1035.79,386.591,1032.46,392.111,1029.35z"/>
	<path fill="#F5F4F3" stroke="#F5F4F3" d="M422.581,1021.62c0.9-3.1,2.4,0.2,2.33,1.81
		C423.641,1023.65,422.861,1023.05,422.581,1021.62z"/>
	<path fill="#706247" stroke="#706247" d="M1184.981,1082.17c13.82-13.4,24.47-29.57,34.76-45.72
		c12.12,16.44,22.35,34.23,32.17,52.13c12.81,24.97,24.05,50.97,30.71,78.31c-37.1,16.34-75.86,28.98-115.53,37.37
		c-4.07,0.76-8.13,1.6-12.12,2.69c5.34-33.02,5.33-66.82,0.75-99.92C1166.511,1100.05,1176.151,1091.48,1184.981,1082.17z"/>
	<path fill="#DAD8D4" stroke="#DAD8D4" d="M1097.921,1063.93c0.19-7.77-0.02-15.55,0.26-23.31
		C1099.051,1048.33,1098.971,1056.23,1097.921,1063.93z"/>
	<path opacity="0.98" fill="#8A6847" stroke="#8A6847" enable-background="new    " d="M606.251,1049.54
		c0.33,4.54,1.33,9.27-0.27,13.7C605.491,1058.68,605.381,1054.05,606.251,1049.54z"/>
	<path fill="#AEC0E3" stroke="#AEC0E3" d="M642.371,1058.57c3.56-1.47,7.02-3.35,10.89-3.88c-2.15,3.98-5.91,6.59-9.28,9.46
		c-4.57,3.91-9.59,7.21-14.65,10.43c-15.41,9.9-29.53,21.63-43.57,33.36c-13.87,11.39-27.28,23.36-40.26,35.76
		c-7.41,7.05-13.57,15.26-20.7,22.57c-4.9-4.25-10.29-7.91-16.21-10.59c30.17-34.14,66.98-62.09,106.71-84.21
		C624.231,1066.97,633.141,1062.41,642.371,1058.57z"/>
	<path fill="#FCFCFB" stroke="#FCFCFB" d="M1130.531,1114.72c2.78-2.59,5.05-5.71,8.12-7.98c0.78,3.34,1.08,6.76,1.21,10.19
		c-6.75,2.96-13.13,6.98-20.39,8.55C1122.741,1121.48,1126.941,1118.41,1130.531,1114.72z"/>
	<path fill="#B7B3AB" stroke="#B7B3AB" d="M1374.351,1116.05c8.21,19.68,15.9,39.61,22.08,60.03c3.44,11.74,6.98,23.47,9.95,35.35
		c-32.87,16.33-67.82,28.29-103.59,36.39c-0.26-12.01,0.11-24.05-1.2-36.01c-1.42-17.32-3.73-34.63-7.82-51.54
		c2.94,0.66,5.6-0.98,8.19-2.16c21.37-10.41,42.15-22.03,62.3-34.63C1367.831,1121.3,1371.651,1119.35,1374.351,1116.05z"/>
	<path fill="#DAD8D4" stroke="#DAD8D4" d="M1119.471,1125.48c7.26-1.57,13.64-5.59,20.39-8.55c2.96,23.9,2.47,48.07,1.19,72.07
		c-0.77,6.92-0.98,13.94-2.41,20.78c-17.87,2.24-35.72,4.77-53.72,5.68c0.03-11.03,0.6-22.18-1.8-33.02
		c-0.98-6.67-3.6-12.94-4.74-19.55c1.4-3.68,2.05-7.82,4.17-11.13c11.48-7.3,22.98-14.73,33.21-23.75
		C1116.911,1127.07,1117.961,1125.85,1119.471,1125.48z"/>
	<path fill="#5576B9" stroke="#5576B9" d="M631.441,1134.92c1.58,1.51,2.97,3.22,4.17,5.07c13.63,19.85,29.14,38.38,45.91,55.64
		c-22.48,12.52-42.73,28.5-63.53,43.54c-4.57,3.31-8.5,7.41-13.09,10.68c-10.29-17.54-25.43-31.3-39.63-45.58
		c-6.14-6.24-13.09-11.78-18.59-18.59c10.68,2.82,19.12,10.34,28.69,15.44c6.85,3.6,14.64,5.28,22.37,4.81
		c14.14-0.72,28.62-6.07,38.19-16.84c5.32-6.09,9.49-14.15,8.08-22.45C641.991,1155.26,633.311,1146.36,631.441,1134.92z"/>
	<path fill="#8E6B49" stroke="#8E6B49" d="M1088.931,1139.12C1089.441,1139.62,1089.441,1139.62,1088.931,1139.12z"/>
	<path fill="#1E5197" stroke="#1E5197" d="M502.791,1160.84c5.16-0.66,9.64,3.17,12.9,6.74c-3.34,2.05-6.64,4.14-10,6.16
		C503.721,1169.73,502.411,1165.34,502.791,1160.84z"/>
	<path fill="#B7B3AB" stroke="#B7B3AB" d="M1050.171,1233.44c9.97-23.28,19.6-46.73,28.21-70.55c1.14,6.61,3.76,12.88,4.74,19.55
		c2.4,10.84,1.83,21.99,1.8,33.02c18-0.91,35.85-3.44,53.72-5.68c-2.49,17.53-7.12,34.84-13.96,51.17
		c-27.5-1.66-54.88-4.98-82.06-9.41C1044.381,1245.22,1047.801,1239.53,1050.171,1233.44z"/>
	<path fill="#493C2A" stroke="#493C2A" d="M1167.091,1204.26c39.67-8.39,78.43-21.03,115.53-37.37c5.85,21.87,8.92,44.4,10.95,66.92
		c0.07,5.3,1.2,10.55,0.94,15.87c-24.09,5.36-48.62,8.66-73.21,10.76c-12.52,0.94-25.05,1.83-37.61,1.66
		c-6.3-0.28-12.55,1.13-18.83,0.41c-8.41-0.84-16.88-0.07-25.3-0.86c0.96-4.88,3.55-9.2,4.99-13.92
		c4.75-13.24,8.08-26.93,10.42-40.78C1158.961,1205.86,1163.021,1205.02,1167.091,1204.26z"/>
	<path fill="#B7B3AB" stroke="#B7B3AB" d="M513.651,1177.43c2.46-1.6,4.79-3.99,7.78-4.33c20,18.93,38.72,39.25,57.34,59.52
		c-16.19,7.55-31.85,16.4-45.96,27.43c-1.07,0.51-2.34,2.23-3.59,1.32c-2.41-2.84-4.25-6.1-6.4-9.12
		c7.86-4.43,16.46-9.25,20.56-17.69c3.58-6.9,3.04-15.36-0.11-22.3c-3.61-7.85-9.75-14.16-15.82-20.16
		C522.551,1187.49,518.151,1182.42,513.651,1177.43z"/>
	<path fill="#5576B9" stroke="#5576B9" d="M890.081,1187.24c6.45-5.38,12.65-11.41,20.55-14.61c-4.41,5.58-9.83,10.3-14.29,15.87
		c-16.8,19.89-30.3,42.45-40.86,66.21c-9.93,0.52-19.82-0.9-29.65-2.1c-37.69-5.27-73.72-19.8-105.77-40.12
		c-3.2-2.14-6.79-3.83-9.39-6.74c9.58,2.73,18.66,6.93,28.12,10.04c10.98,3.96,22.41,6.35,33.69,9.26
		c10.32,2.62,20.84,4.41,31.43,5.47c17.05,1.69,34.98-1.47,49.46-10.95C867.131,1210.64,878.221,1198.4,890.081,1187.24z"/>
	<path fill="#DAD8D4" stroke="#DAD8D4" d="M478.311,1200.91c11.41-8.35,23.32-16.04,35.34-23.48c4.5,4.99,8.9,10.06,13.8,14.67
		c6.07,6,12.21,12.31,15.82,20.16c3.15,6.94,3.69,15.4,0.11,22.3c-4.1,8.44-12.7,13.26-20.56,17.69
		C508.981,1234.29,493.401,1217.78,478.311,1200.91z"/>
	<path fill="#AEC0E3" stroke="#AEC0E3" d="M904.421,1185.59c-0.94,5.34-4.23,9.78-6.38,14.65c-10.07,21.56-18.85,43.79-25.24,66.74
		c-6.19,21.49-10.9,43.45-13.01,65.75c-5.89,1.55-11.36,4.22-17.01,6.42c-1.03-18.25,3.03-36.38,8.5-53.68
		c9.4-29.58,23.03-57.81,40.52-83.45C895.831,1196.42,899.501,1190.46,904.421,1185.59z"/>
	<path opacity="0.55" fill="#625548" stroke="#625548" enable-background="new    " d="M323.931,1202.81c0.51-1.84,4.98-1.83,5.5,0
		C327.601,1202.93,325.761,1202.93,323.931,1202.81z"/>
	<path fill="#50B559" stroke="#50B559" d="M439.531,1230.9c10.48-9.93,22.33-18.35,33.98-26.84c5.06,5.35,9.18,11.49,13.85,17.17
		c8.51,10.38,16.66,21.1,23.78,32.49c-5.94,6.26-12.33,12.09-17.85,18.76c-11.14,11.96-22.87,23.9-37.58,31.45
		c-16.71,8.42-36.15,10.3-54.48,7.4c-21.67-3.35-42.05-12.24-61.01-22.99c-22.01-13.23-43.39-27.57-63.72-43.27
		c-1.23-0.86-2.52-1.62-3.82-2.34l-0.68-0.39c-1.9-4.85-1.01-11.66,3.61-14.52c12.92-1.74,26.07-1.41,38.98,0.29
		c21.18,2.57,42.55,3.26,63.69,6.2c14.04,2.05,28.19,3.74,42.4,3.69c7.81-0.03,15.67,0.29,23.41-0.98
		c6.7,0.25,12.89,3.71,19.64,3.74C455.981,1236.78,447.271,1234.9,439.531,1230.9z"/>
	<path fill="#E3DAD1" stroke="#E3DAD1" d="M690.061,1204.52c0.05,0.01,0.16,0.01,0.21,0.01L690.061,1204.52z"/>
	<path fill="#9FCF8D" stroke="#9FCF8D" d="M288.811,1220c20.16-6.35,41.67-5.73,62.46-3.64c27.76,3,54.82,10.22,81.79,17.18
		c3.71,1.04,7.63,1.54,11.03,3.48c-7.74,1.27-15.6,0.95-23.41,0.98c-14.21,0.05-28.36-1.64-42.4-3.69
		c-21.14-2.94-42.51-3.63-63.69-6.2c-12.91-1.7-26.06-2.03-38.98-0.29C278.711,1223.56,284.071,1221.78,288.811,1220z"/>
	<path fill="#F5F4F3" stroke="#F5F4F3" d="M431.741,1228.2l0.83-0.58c0.53,0.17,1.6,0.5,2.14,0.66
		C433.901,1229.26,432.441,1229.32,431.741,1228.2z"/>
	<path fill="#1E5197" stroke="#1E5197" d="M575.771,1245.62c3.33-2.34,6.99-4.16,10.77-5.68c3.83,4.61,9.68,8.71,10.37,15.04
		C588.941,1254.96,582.161,1249.82,575.771,1245.62z"/>
	<path fill="#1BA23C" stroke="#1BA23C" d="M272.681,1242.73c1.3,0.72,2.59,1.48,3.82,2.34c20.33,15.7,41.71,30.04,63.72,43.27
		c18.96,10.75,39.34,19.64,61.01,22.99c18.33,2.9,37.77,1.02,54.48-7.4c14.71-7.55,26.44-19.49,37.58-31.45
		c5.52-6.67,11.91-12.5,17.85-18.76c3.76,4.85,6.9,10.14,10.38,15.2c-4.97,4.61-10.12,9.04-14.7,14.06
		c-12.86,14.02-22.17,30.91-35.49,44.53c-5.23,5.25-10.81,10.58-17.92,13.13c-9.72,3.81-20.49,2.89-30.5,0.86
		c-11.99-2.68-23.34-7.47-34.56-12.35c-31.8-13.42-61.29-32.02-87.76-54.13c-7.65-6.3-15.01-13.02-21.25-20.74
		C276.661,1250.73,273.591,1247.21,272.681,1242.73z"/>
	<path fill="#CABBAC" stroke="#CABBAC" d="M564.781,1251.6c0.62-1.33,1.24-1.33,1.87,0
		C566.181,1251.6,565.251,1251.6,564.781,1251.6z"/>
	<path fill="#B1AAA1" stroke="#B1AAA1" d="M1148.381,1273.35c13.78-0.35,27.58,0.04,41.37-0.29c-6.93,1.43-14.06,0.59-21.07,0.81
		C1161.911,1273.65,1155.091,1274.42,1148.381,1273.35z"/>
	<path opacity="0.46" fill="#52473D" stroke="#52473D" enable-background="new    " d="M834.591,1339.6c-1.84,0.3-1.84-3.8,0-3.47
		C834.681,1337.27,834.681,1338.43,834.591,1339.6z"/>
	<path fill="#B7B3AB" stroke="#B7B3AB" d="M868.021,1341.2c20.6-3.71,41.64,0.77,61.28,7.07c6.44,2.21,13.06,4.05,19.24,6.94
		l0.43,0.74c-2.05,6.11-5.25,11.79-7.36,17.9c-4.99,12.35-8.71,25.15-12.09,38.02c-8.84-1.74-17.63-3.98-26.2-6.76
		c5.85-4.23,12.03-8.75,15.04-15.55c3.75-8.45,5.71-18.54,1.91-27.32c-3.3-6.8-10.29-11.41-17.79-12.09
		c-12.64-1.19-25.31,0.27-37.95,0.59C865.411,1347.45,866.541,1344.25,868.021,1341.2z"/>
	<path fill="#1E5197" stroke="#1E5197" d="M843.691,1351.09c4.51-2.62,9.18-4.98,13.99-7c-2.64,5.6-5.75,10.96-8.36,16.59
		C846.531,1358.12,844.991,1354.56,843.691,1351.09z"/>
	<path fill="#DAD8D4" stroke="#DAD8D4" d="M864.531,1350.74c12.64-0.32,25.31-1.78,37.95-0.59c7.5,0.68,14.49,5.29,17.79,12.09
		c3.8,8.78,1.84,18.87-1.91,27.32c-3.01,6.8-9.19,11.32-15.04,15.55c-8.05-1.58-15.8-4.4-23.84-6.02c-10.5-2.5-21.22-4.11-31.53-7.3
		c4.18-10.08,8.49-20.1,12.27-30.33C861.631,1357.87,862.621,1354.1,864.531,1350.74z"/>
	<path opacity="0.51" fill="#5B4F44" stroke="#5B4F44" enable-background="new    " d="M433.931,1351.95c1.5-0.11,3-0.11,4.51,0
		C438.361,1353.77,434.001,1353.77,433.931,1351.95z"/>
	<path fill="#1E5197" stroke="#1E5197" d="M953.741,1375.22c1.58-5.05,3.48-10.02,5.89-14.72c1.73,1.27,3.9,2.89,3.4,5.38
		C962.371,1370.55,957.861,1373.64,953.741,1375.22z"/>
	<path fill="#F1EDE9" stroke="#F1EDE9" d="M842.961,1371.93c1.31,0.63,1.3,1.24-0.04,1.84
		C842.931,1373.31,842.951,1372.39,842.961,1371.93z"/>
	<path fill="#50B559" stroke="#50B559" d="M845.041,1399.12c19.04,7.06,38.35,13.47,57.6,19.98c-1.93,26.85-2.39,53.99-8.28,80.38
		c-3.91,16.63-9.73,33.18-20.07,46.98c-9.98,14.42-25.67,24.17-42.47,28.62c-16.06,4.61-32.85,6.52-49.54,6.25
		c-17.3,0.17-34.54-1.78-51.6-4.44c-13.06-2.35-26.19-4.48-38.95-8.16c2.07-4.93,4.97-9.43,8.01-13.8c1.09-1.48,2.13-3.13,3.8-4.01
		c6.37-3.18,11.91-7.71,18.17-11.07c26.33-16.06,53.79-30.27,79.43-47.47c6.14-4.32,13.04-7.54,18.62-12.63
		c1.21-1.01,2.82-1.22,4.3-1.59c5.51-1.19,11.01-2.54,16.62-3.26c2.16-0.4,4.54-0.4,6.36-1.82c-8.18-0.55-16.3,0.88-24.43,1.44
		c0.03-4.17,1.63-8.07,2.52-12.08C830.261,1440.91,836.371,1419.52,845.041,1399.12z"/>
	<path fill="#1BA23C" stroke="#1BA23C" d="M902.641,1419.1c7.93,2.32,16.02,3.99,24.07,5.85c-4.7,24.35-5.18,49.21-5.7,73.92
		c-0.19,20.35,1.61,41.38-5.59,60.86c-2.53,7.01-6.59,13.69-12.81,18c-11.11,8-25.12,9.81-38.3,11.76
		c-20.43,3.42-41.05,5.44-61.62,7.7c-23.64,1.9-47.23,5.37-71.01,4.67c-11.07,0.13-22.28-1.32-32.64-5.35
		c-3.97-1.62-8.2-3.97-9.7-8.25c-2.22-6.44-0.79-13.67,2.39-19.53c12.76,3.68,25.89,5.81,38.95,8.16c17.06,2.66,34.3,4.61,51.6,4.44
		c16.69,0.27,33.48-1.64,49.54-6.25c16.8-4.45,32.49-14.2,42.47-28.62c10.34-13.8,16.16-30.35,20.07-46.98
		C900.251,1473.09,900.711,1445.95,902.641,1419.1z"/>
	<path fill="#DAD8D4" stroke="#DAD8D4" d="M936.151,1487.22c-0.79-11.51-0.26-23.07,0.24-34.58c0.46,7.4,0.23,14.82,0.3,22.23
		C936.651,1478.98,937.001,1483.15,936.151,1487.22z"/>
	<path fill="#9FCF8D" stroke="#9FCF8D" d="M805.281,1483.46c4.77-1.45,9.46-3.35,14.48-3.71c-5.58,5.09-12.48,8.31-18.62,12.63
		c-25.64,17.2-53.1,31.41-79.43,47.47c-6.26,3.36-11.8,7.89-18.17,11.07c2.66-5.44,7.44-9.35,11.33-13.86
		C739.841,1511.9,771.701,1494.29,805.281,1483.46z"/>
	<path opacity="0.92" fill="#A58F7A" stroke="#A58F7A" enable-background="new    " d="M727.291,1613.27
		c2.92-0.3,5.86-0.3,8.79-0.01C733.201,1614.09,730.171,1614.07,727.291,1613.27z"/>
</g>
</svg>
