<?xml version="1.0" encoding="utf-8"?>

<!DOCTYPE svg PUBLIC "-//W3C//DTD SVG 1.1//EN" "http://www.w3.org/Graphics/SVG/1.1/DTD/svg11.dtd">
<svg version="1.1" id="Layer_1" xmlns="http://www.w3.org/2000/svg" xmlns:xlink="http://www.w3.org/1999/xlink" x="0px" y="0px"
	 viewBox="0 0 2130.206 1661.727" enable-background="new 0 0 2130.206 1661.727" xml:space="preserve">
<g>
	<path opacity="0.75" fill="#254A5D" stroke="#254A5D" enable-background="new    " d="M981.388,30.984
		c4.71-0.251,9.486-0.198,14.09,1.032c-4.617-0.079-9.221,0.066-13.825,0.198L981.388,30.984z"/>
	<path fill="#1F1A17" stroke="#1F1A17" d="M960.736,40.245c6.125-4.326,13.23-8.044,20.917-8.031
		c4.604-0.132,9.208-0.278,13.825-0.198c7.435,0.516,14.407,3.506,21.181,6.443c20.401,9.354,37.441,24.264,54.904,38.063
		c5.107-11.272,7.872-24.039,16.352-33.459c3.281-3.387,7.276-7.21,12.383-6.8c1.786,0.066,3.599,0.013,5.411-0.119
		c5.094-0.516,9.499,2.844,12.859,6.311c6.469,6.774,10.835,15.228,14.672,23.695c8.11,19.091,14.222,38.923,20.996,58.503
		c2.249,6.377,4.009,13.018,7.435,18.919c2.262,3.056,5.901,4.657,8.93,6.853c34.662,23.576,65.144,53.171,90.043,86.868
		c57.484-75.808,140.053-133.504,232.795-156.511c3.718-0.741,7.448-2.686,11.312-1.852c0.675-0.198,2.024-0.582,2.699-0.767
		c5.795-2.289,12.238-3.493,18.495-3.506c1.363,0.291,2.58-0.026,3.665-0.979c1.826-0.542,3.718-0.595,5.676-0.146
		c1.323,0.37,2.514,0.053,3.559-0.939c2.037-1.389,4.763-0.357,7.118-0.529c2.011,0.318,4.009-0.198,5.914-0.886
		c2.117-0.701,4.419-0.516,6.668-0.582c6.403,0.146,12.833-0.238,19.197-1.072c7.144-0.397,14.328-0.397,21.472,0
		c6.364,0.833,12.767,1.297,19.197,1.058c3.069,0.172,6.417-0.529,9.314,0.807c1.323,0.9,2.937,1.257,4.538,0.847
		c2.209,0.119,5.279-1.363,6.959,0.648c0.661,0.198,2.011,0.582,2.686,0.767c2.064-0.212,4.908-1.323,6.575,0.463
		c0.661,0.212,1.998,0.609,2.659,0.82c4.71-0.939,9.354,1.005,13.984,1.707c75.503,14.831,145.675,52.84,201.545,105.43
		c10.438,10.716,21.631,20.731,31.104,32.347c51.742,58.966,87.926,131.003,106.528,207.089c1.865,9.195,5.094,18.39,5.266,27.783
		c0.238,0.648,0.728,1.958,0.966,2.606c0.86,1.601,0.966,3.347,0.318,5.252c0.198,0.675,0.595,2.024,0.807,2.699
		c1.111,1.495,1.257,3.241,0.437,5.252c0.185,0.675,0.556,2.024,0.728,2.686c2.011,1.535,0.622,4.591,0.913,6.774
		c-0.37,1.627,0.053,3.255,0.86,4.697c0.529,1.932,0.675,3.929,0.437,5.98c-0.318,1.998,0.172,3.982,0.913,5.848
		c0.728,2.328,0.661,4.855,0.556,7.303c-0.423,2.884-0.079,5.808,0.754,8.613c0.529,2.156,0.595,4.406,0.635,6.641
		c-0.344,7.74-0.079,15.506,1.045,23.179c0.503,10.108-0.04,20.242,0.265,30.363c22.345-9.658,44.479-19.805,66.877-29.318
		c0.476,4.948,0.82,9.975,0.132,14.937c-0.555,1.998,0.093,3.995,1.019,5.795c1.257,3.797,0.529,7.938,0.807,11.88
		c0.013,4.697,0.45,9.367,1.005,14.037c0.278,3.255,0.384,6.522,0.384,9.803c-0.542,8.626-0.291,17.278,0.979,25.838
		c0.291,8.494,0.317,17.027-0.013,25.521c-1.151,7.687-1.495,15.479-0.926,23.232c-0.04,2.646-0.159,5.318-0.768,7.911
		c-0.807,2.765-1.243,5.662-0.873,8.56c-0.146,3.188,0.873,6.813-0.635,9.751c-1.005,1.005-1.296,2.183-0.886,3.532
		c0.662,5.292,0.013,11.06-2.077,15.916c-0.172,0.688-0.503,2.051-0.662,2.739c0.384,1.693,0.41,3.413,0.08,5.16
		c-9.512,53.727-28.934,105.893-58.516,151.84c-30.694,47.813-71.587,88.919-118.594,120.723
		c-87.781,59.257-193.541,88.853-298.892,92.054c-104.927,3.056-211.64-19.461-303.443-71.257
		c-48.951-27.69-93.39-64.033-128.119-108.42c-48.964,21.062-101.606,33.062-154.672,37.269
		c-78.639,6.139-158.813-5.53-231.948-35.311c-38.565-15.942-74.908-37.494-106.792-64.483
		c-30.429-25.917-56.942-56.677-76.509-91.618c-24.819-43.05-39.28-91.697-44.228-141.031c-0.939-5.332-0.873-10.743-0.847-16.114
		c0.172-6.006-0.225-12.013-1.005-17.953c-0.423-6.284-0.384-12.595-0.053-18.879c1.31-8.97,1.508-18.046,1.072-27.095
		c0.318-5.742-0.807-11.761,0.913-17.278c0.873-1.336,1.23-2.937,0.82-4.485c-1.151-8.308,0.251-16.604,1.336-24.819
		c18.085,8.07,36.184,16.141,54.19,24.383l1.058,0.609c-0.238-12.277,0.172-24.542-0.384-36.806
		c0.516-6.046-0.423-12.41,1.072-18.244c0.966-1.019,1.283-2.183,0.926-3.506c-1.058-5.848,0.529-11.656,1.085-17.45
		c7.171-54.613,24.595-107.97,51.954-155.823c23.801-42.614,55.963-80.465,93.814-111.238
		c40.867-33.075,89.196-57.008,140.529-68.624c1.654-0.437,3.334-0.529,5.054-0.265c0.648-0.265,1.945-0.794,2.593-1.058
		c0.966-0.053,2.911-0.159,3.876-0.212c0.661-0.238,1.971-0.701,2.633-0.939c1.574-0.913,3.334-1.045,5.252-0.357
		c0.661-0.225,1.971-0.648,2.633-0.86c1.879-1.601,4.63-0.463,6.906-0.648c1.998,0.331,3.995-0.146,5.874-0.873
		c2.011-0.529,4.088-0.661,6.218-0.423c0.794-0.159,2.368-0.463,3.162-0.622l-0.251-0.833c-1.667-6.099-4.948-11.867-4.908-18.337
		c-0.159-4.578-0.331-9.168-0.198-13.759C948.696,51.702,954.16,44.849,960.736,40.245 M964.956,58.886
		c-3.704,5.543-2.302,12.661-0.278,18.548c3.903,10.663,10.108,20.268,16.074,29.847c-37.864,0.159-75.728,6.946-111.145,20.427
		c-49.216,18.482-93.483,49.308-129.191,87.794c-33.141,35.575-59.125,77.686-76.879,122.906
		c-22.385,56.717-31.712,118.355-28.299,179.173c14.13,6.165,28.021,12.965,42.296,18.787c9.486-10.425,18.085-21.671,27.214-32.427
		c3.162-3.44,5.517-8.295,10.385-9.539c20.242-6.284,40.51-12.476,60.739-18.8c3.096-0.675,3.612-4.326,5.027-6.668
		c3.969-9.327,9.512-17.834,14.963-26.328c7.091-8.467,14.341-16.895,23.073-23.748c3.982-2.805,7.806-5.848,12.079-8.242
		c18.747-11.576,41.648-15.955,63.385-12.423c7.343,1.376,14.474,3.651,21.433,6.39c6.932,3.096,13.362,7.184,19.739,11.312
		c9.287,7.052,17.636,15.281,24.846,24.449c7.594,10.121,13.958,21.128,18.932,32.771c4.485,11.047,8.07,22.491,10.121,34.266
		c10.677,1.138,21.34,2.448,32.03,3.321c2.448,0.503,4.194-1.548,6.033-2.805c12.979-10.452,26.142-20.692,39.187-31.09
		c30.482,18.218,60.884,36.568,91.459,54.653c2.739-98.894,33.67-197.365,90.903-278.319c1.521-1.455,0.648-3.294-0.516-4.604
		c-24.37-33.022-54.071-62.234-88.112-85.214c-5.186-3.506-11.457-6.469-13.733-12.767c-9.433-21.843-15.492-44.955-24.211-67.089
		c-3.546-8.891-6.932-17.993-12.41-25.918c-1.76-2.289-3.638-4.855-6.483-5.834c-3.109,0.582-4.869,3.519-6.324,6.02
		c-6.271,11.814-9.301,25.124-16.299,36.568c-1.839,3.202-6.139,6.628-9.526,3.307c-15.797-12.502-30.905-26.037-48.038-36.766
		c-9.79-6.258-20.506-11.881-32.241-13.084C981.321,46.715,970.87,50.816,964.956,58.886 M1532.588,91.181
		c-61.294,9.102-119.903,34.067-169.846,70.608c-56.492,41.158-102.135,96.539-133.689,158.773
		c-40.087,78.441-57.511,167.756-52.668,255.563c16.789,7.475,33.445,15.32,50.366,22.491c3.083-2.659,5.49-6.006,8.11-9.129
		c10.161-12.304,20.401-24.542,30.535-36.859c2.606-3.85,7.475-4.313,11.537-5.715c43.632-13.442,87.238-26.989,130.858-40.457
		c33.035,32.903,66.057,65.819,99.106,98.709c23.827-13.759,47.773-27.307,71.627-41.026c4.353-2.977,9.737-0.886,14.566-0.675
		c15.36,1.416,30.68,3.665,46.067,4.511c4.855-2.395,8.639-6.496,12.992-9.658c12.952-10.253,25.944-20.454,38.856-30.746
		c40.92,24.462,81.814,48.938,122.721,73.4c11.259-12.608,22.531-25.177,33.803-37.772c6.125-6.417,11.391-13.693,18.059-19.554
		c41.278,11.285,82.41,23.166,123.621,34.689c4.009,1.561,7.74-1.27,11.431-2.5c2.077-38.129,0.053-76.496-6.324-114.135
		c-16.524-99.595-64.165-194.626-137.565-264.427c-39.796-38.036-87.159-68.359-138.928-87.278
		C1658.987,88.23,1594.61,81.708,1532.588,91.181 M917.672,413.952c0.582,10.187,1.349,21.194,7.157,29.926
		c2.104,3.559,6.972,2.262,9.38-0.225c4.141-4.035,4.869-10.108,5.358-15.572C933.561,421.626,925.954,416.876,917.672,413.952
		 M727.967,505.914c-3.453,1.125-7.435,1.786-9.698,4.922c-12.132,14.672-24.29,29.304-36.422,43.976
		c-34.914-15.717-69.828-31.434-104.755-47.112c-2.289,33.604-3.718,67.433-0.529,101.037
		c5.173,56.188,23.655,111.463,55.645,158.125c26.632,39.333,62.194,72.275,102.374,97.452
		c72.408,45.326,158.323,66.534,243.326,67.102c64.456,0.344,129.138-11.365,188.805-35.959
		c-42.389-57.18-68.081-125.936-76.482-196.439c-6.615-53.489-3.175-107.546,1.085-161.075
		c22.372,9.936,44.611,20.136,66.996,30.019c-0.066-6.469-0.225-12.952-0.45-19.408c-30.059-17.821-59.972-35.853-89.99-53.727
		c-13.349,10.28-26.248,21.208-39.835,31.157c-15.863-0.754-31.659-3.268-47.496-4.538c-1.971-0.344-3.744,0.569-5.371,1.495
		c-21.803,12.489-43.593,25.031-65.475,37.388c-27.426-27.545-55.063-54.878-82.542-82.37c-1.217-1.654-3.202-2.09-4.988-1.164
		C790.757,486.505,759.389,496.282,727.967,505.914 M1281.801,563.901c-4.286,0.807-6.641,4.67-9.248,7.74
		c-13.455,16.352-27.029,32.612-40.537,48.924c-41.661-18.8-83.375-37.454-125.023-56.28c-1.535,21.962-2.593,43.963-2.752,65.978
		c-0.635,43.421,4.088,87.08,15.757,128.966c13.733,50.036,37.772,97.187,70.132,137.724
		c31.752,39.915,71.442,73.215,115.273,99.145c44.281,26.156,92.729,45.022,142.685,57.114
		c66.772,16.074,136.308,20.334,204.602,13.151c59.191-6.311,117.641-21.261,171.923-45.855
		c45.419-20.533,87.913-47.932,124.19-82.198c38.129-35.734,68.941-79.248,89.885-127.127
		c21.631-49.56,32.387-103.498,33.935-157.45c0.728-29.834-0.476-59.68-2.54-89.435c-25.428,11.1-50.644,22.716-76.218,33.406
		c-9.261-1.905-18.231-5.054-27.386-7.422c-31.805-8.957-63.596-17.94-95.401-26.87c-8.07,8.877-15.942,17.9-24.052,26.738
		c-10.253,10.862-20.334,21.882-30.535,32.797c-41.582-24.25-82.661-49.374-124.071-73.916
		c-14.884,11.735-29.767,23.496-44.612,35.284c-1.416,0.86-2.778,2.448-4.578,2.09c-18.085-1.773-36.157-3.731-54.243-5.609
		c-3.81-0.833-6.959,1.786-10.094,3.453c-24.475,14.077-48.991,28.101-73.532,42.045c-1.667,1.376-3.083-1.058-4.273-1.892
		c-26.672-26.685-53.462-53.277-80.174-79.922c-6.192-5.821-11.669-12.41-18.284-17.728
		C1362.252,538.737,1322.099,551.623,1281.801,563.901z"/>
	<path opacity="0.49" fill="#1B3B4B" stroke="#1B3B4B" enable-background="new    " d="M1100.299,36.263
		c-0.344-2.606,5.623-2.739,5.411-0.119C1103.897,36.276,1102.085,36.329,1100.299,36.263z"/>
	<path fill="#EF9BA0" stroke="#EF9BA0" d="M964.956,58.886c5.914-8.07,16.365-12.172,26.235-11.126
		c11.735,1.204,22.451,6.827,32.241,13.084c17.133,10.73,32.241,24.264,48.038,36.766c3.387,3.321,7.687-0.106,9.526-3.307
		c6.999-11.444,10.028-24.753,16.299-36.568c1.455-2.5,3.215-5.438,6.324-6.02c2.844,0.979,4.723,3.546,6.483,5.834
		c5.477,7.925,8.864,17.027,12.41,25.918c8.719,22.134,14.778,45.246,24.211,67.089c2.276,6.297,8.547,9.261,13.733,12.767
		c34.041,22.98,63.742,52.192,88.112,85.214c1.164,1.31,2.037,3.149,0.516,4.604c-57.233,80.954-88.165,179.425-90.903,278.319
		c-30.574-18.085-60.977-36.435-91.459-54.653c-13.045,10.399-26.208,20.639-39.187,31.09c-1.839,1.257-3.585,3.307-6.033,2.805
		c-10.69-0.873-21.353-2.183-32.03-3.321c-2.051-11.775-5.636-23.219-10.121-34.266c0.45-0.344,1.363-1.019,1.813-1.363
		c7.726,0.251,14.738,3.665,21.737,6.549c10.425,4.485,20.917,8.798,31.567,12.714c4.882-4.776,9.565-9.777,13.733-15.201
		c4.829-4.935,10.121-9.407,14.738-14.553c4.472-4.657,8.507-10.531,15.175-12.119c14.857,9.459,30.852,16.948,46.411,25.15
		c0.675-11.536,0.873-23.139,2.831-34.557c2.051-13.203,5.874-26.023,9.168-38.949c8.771-22.425,16.392-45.418,28.259-66.481
		c8.533-16.974,18.548-33.168,30.283-48.117c-11.298-18.443-25.11-35.43-40.894-50.221c-6.509,7.237-12.396,15.267-20.48,20.864
		c-5.213,3.625-10.385,7.329-15.902,10.491c-10.412,5.305-21.512,9.314-32.969,11.629c-6.946,1.535-13.997,2.646-21.102,3.109
		c-15.585,1.032-31.157-1.495-46.318-4.895c-10.73-3.625-21.486-7.634-30.985-13.905c-5.08-3.387-10.214-6.694-15.148-10.266
		c-3.016-3.466-6.192-6.76-9.552-9.87c-3.876-5.543-7.356-11.378-10.491-17.371c-4.935-9.856-7.091-20.943-7.237-31.911
		c0.225-14.513,6.059-28.008,12.965-40.497c-33.564,0.41-67.314,5.967-98.418,18.879c-22.147,8.56-43.394,19.845-62.326,34.239
		c-32.493,22.597-59.548,52.51-81.047,85.624c-9.221,14.606-17.808,29.701-24.356,45.723c-10.584,21.975-17.9,45.498-22.742,69.378
		c-6.311,25.402-8.176,51.663-8.652,77.739c12.039-5.795,23.549-12.608,35.271-18.998c8.348-5.094,17.04-10.174,26.963-11.245
		c10.174-1.521,20.268-3.4,30.416-5.094c10.624-1.627,21.208-3.572,31.805-5.398c3.982-0.635,8.004-0.992,12-1.588
		c-5.451,8.494-10.994,17.001-14.963,26.328c-1.416,2.342-1.932,5.993-5.027,6.668c-20.229,6.324-40.497,12.516-60.739,18.8
		c-4.869,1.244-7.224,6.099-10.385,9.539c-9.129,10.756-17.728,22.001-27.214,32.427c-14.275-5.821-28.167-12.621-42.296-18.787
		c-3.413-60.818,5.914-122.457,28.299-179.173c17.755-45.22,43.738-87.331,76.879-122.906
		c35.708-38.486,79.975-69.312,129.191-87.794c35.417-13.481,73.281-20.268,111.145-20.427
		c-5.967-9.578-12.172-19.183-16.074-29.847C962.654,71.547,961.252,64.43,964.956,58.886z"/>
	<path opacity="0.78" fill="#26485A" stroke="#26485A" enable-background="new    " d="M946.288,73.691
		c-0.304-4.67-0.37-9.42,0.966-13.958c-0.132,4.591,0.04,9.182,0.198,13.759L946.288,73.691z"/>
	<path opacity="0.81" fill="#233E4C" stroke="#233E4C" enable-background="new    " d="M1558.545,70.595
		c6.271-1.574,12.78-1.627,19.197-1.072C1571.378,70.357,1564.948,70.74,1558.545,70.595z"/>
	<path opacity="0.82" fill="#233E4C" stroke="#233E4C" enable-background="new    " d="M1599.214,69.523
		c6.403-0.556,12.912-0.503,19.197,1.058C1611.981,70.82,1605.578,70.357,1599.214,69.523z"/>
	<path opacity="0.73" fill="#234557" stroke="#234557" enable-background="new    " d="M1545.963,72.063
		c0.053-2.514,4.657-2.699,5.914-0.886C1549.972,71.865,1547.974,72.381,1545.963,72.063z"/>
	<path fill="#75C5F0" stroke="#75C5F0" d="M1627.725,71.389c0.701-2.024,4.604-1.31,4.538,0.847
		C1630.662,72.645,1629.048,72.288,1627.725,71.389z"/>
	<path fill="#75C5F0" stroke="#75C5F0" d="M1535.287,73.532c0.701-2.17,1.879-2.474,3.559-0.939
		C1537.8,73.585,1536.61,73.902,1535.287,73.532z"/>
	<path fill="#75C5F0" stroke="#75C5F0" d="M1639.221,72.884c0.569-0.079,1.733-0.225,2.302-0.304l0.384,1.072
		C1641.232,73.466,1639.883,73.082,1639.221,72.884z"/>
	<path opacity="0.6" fill="#1F4052" stroke="#1F4052" enable-background="new    " d="M1525.946,74.656
		c0.701-2.183,1.918-2.514,3.665-0.979C1528.526,74.63,1527.309,74.947,1525.946,74.656z"/>
	<path fill="#75C5F0" stroke="#75C5F0" d="M1648.482,74.114c0.582-0.066,1.733-0.212,2.315-0.278l0.344,1.098
		C1650.48,74.723,1649.144,74.326,1648.482,74.114z"/>
	<path fill="#75C5F0" stroke="#75C5F0" d="M1505.136,77.832c0.582,0.079,1.733,0.251,2.315,0.331
		c-0.675,0.185-2.024,0.569-2.699,0.767L1505.136,77.832z"/>
	<path fill="#75C5F0" stroke="#75C5F0" d="M1532.588,91.181c62.022-9.473,126.399-2.95,185.233,18.813
		c51.769,18.919,99.132,49.242,138.928,87.278c73.4,69.801,121.041,164.832,137.565,264.427
		c6.377,37.639,8.401,76.006,6.324,114.135c-3.691,1.23-7.422,4.062-11.431,2.5c-41.211-11.523-82.343-23.404-123.621-34.689
		c-6.668,5.861-11.933,13.137-18.059,19.554c-11.272,12.595-22.544,25.163-33.803,37.772c-40.907-24.462-81.801-48.938-122.721-73.4
		c-12.912,10.293-25.904,20.493-38.856,30.746c-4.353,3.162-8.136,7.263-12.992,9.658c-15.386-0.847-30.707-3.096-46.067-4.511
		c-4.829-0.212-10.214-2.302-14.566,0.675c-23.854,13.719-47.8,27.267-71.627,41.026c-33.048-32.89-66.07-65.806-99.106-98.709
		c-43.619,13.468-87.225,27.016-130.858,40.457c-4.062,1.402-8.93,1.865-11.537,5.715c-10.134,12.317-20.374,24.555-30.535,36.859
		c-2.62,3.122-5.027,6.469-8.11,9.129c-16.921-7.171-33.578-15.016-50.366-22.491c-4.842-87.807,12.582-177.123,52.668-255.563
		c31.553-62.234,77.197-117.614,133.689-158.773C1412.685,125.248,1471.293,100.283,1532.588,91.181 M1456.714,159.169
		c-7.872,2.924-16.127,5.054-23.179,9.764c-9.42,1.76-17.622,6.893-26.023,11.193c-31.606,17.225-60.845,38.975-85.955,64.8
		c-5.755,5.808-11.88,11.391-16.101,18.482c-2.659,2.104-5.385,4.181-7.462,6.893c-11.642,15.36-23.668,30.627-32.757,47.681
		c-3.625,3.771-6.311,8.256-8.52,12.965c-16.074,29.331-28.074,60.818-36.435,93.192c-5.318,19.885-8.877,40.232-10.438,60.765
		c-0.503,7.104-1.283,14.421,0.688,21.38c2.143,7.329,5.623,14.169,9.089,20.956c13.534-4.895,26.288-11.576,38.737-18.76
		c6.417-3.89,13.799-5.755,21.221-6.536c21.313-2.831,42.442-6.946,63.716-10.174c4.551-0.344,8.917-1.72,13.203-3.268
		c9.512-1.402,19.25-2.117,28.286-5.636c10.875-0.847,21.472-3.572,32.255-5.054c2.024-0.106,4.498-0.807,6.125,0.847
		c4.286,3.718,7.382,8.547,11.087,12.807c17.913,21.327,35.813,42.68,53.767,63.98c5.729,6.297,10.333,13.653,16.762,19.289
		c3.374-0.093,6.271-2.17,9.102-3.81c22.041-14.222,44.426-27.929,66.481-42.124c4.141-2.58,8.004-5.914,12.807-7.21
		c2.884,0.198,5.623,1.297,8.335,2.328c14.381,5.94,28.815,11.788,43.183,17.781c2.381,0.86,4.842,2.051,7.475,1.865
		c4.922-3.281,8.48-8.136,12.727-12.198c6.509-6.985,14.05-13.058,19.461-21.009c15.439,3.665,31.818,3.175,47.033-1.323
		c8.983,6.443,19.236,10.756,28.682,16.471c9.592,4.855,18.787,10.505,28.656,14.831c7.475,6.311,16.524,10.372,25.322,14.5
		c3.268,1.813,6.046-1.641,8.533-3.347c10.293-9.115,20.692-18.125,31.011-27.214c3.466-3.016,6.628-6.536,10.822-8.56
		c6.522,1.31,12.304,4.908,18.469,7.316c10.822,4.353,21.26,9.856,32.731,12.344c1.058-15.333-0.728-30.614-1.72-45.895
		c-5.517-54.812-21.618-108.645-47.919-157.093c-1.746-3.89-4.419-7.197-7.104-10.438c-3.162-7.012-7.806-13.19-11.947-19.633
		c-9.287-14.249-19.686-27.756-30.839-40.576c-6.84-7.091-12.701-15.122-20.374-21.38c-7.581,8.216-14.394,17.239-23.404,23.999
		c-13.495,10.584-29.053,18.31-45.379,23.444c-9.34,3.374-19.395,3.89-28.709,7.263c-8.15-1.151-16.273,0.953-24.436,0.291
		c-37.427-1.204-75.993-14.143-102.268-41.714c-17.728-17.609-28.418-42.772-26.381-67.923c0.622-15.611,7.382-30.006,15.109-43.275
		c-7.898-0.41-15.81-0.437-23.682,0.251C1509.409,144.881,1482.459,150.239,1456.714,159.169z"/>
	<path opacity="0.65" fill="#224557" stroke="#224557" enable-background="new    " d="M949.45,93.284
		c-0.119-1.905,0.86-2.395,2.911-1.455l0.251,0.833C951.819,92.821,950.244,93.125,949.45,93.284z"/>
	<path opacity="0.83" fill="#274554" stroke="#274554" enable-background="new    " d="M937.358,94.581
		c0.04-2.514,4.644-2.672,5.874-0.873C941.354,94.435,939.356,94.912,937.358,94.581z"/>
	<path fill="#75C5F0" stroke="#75C5F0" d="M928.15,94.978c0.569,0.066,1.72,0.185,2.302,0.251c-0.661,0.212-1.971,0.635-2.633,0.86
		L928.15,94.978z"/>
	<path fill="#75C5F0" stroke="#75C5F0" d="M920.252,96.274c0.582,0.04,1.733,0.132,2.315,0.172
		c-0.661,0.238-1.971,0.701-2.633,0.939L920.252,96.274z"/>
	<path fill="#75C5F0" stroke="#75C5F0" d="M913.743,97.531c0.582,0.013,1.733,0.053,2.315,0.066
		c-0.648,0.265-1.945,0.794-2.593,1.058L913.743,97.531z"/>
	<path fill="#9ACCE2" stroke="#9ACCE2" d="M1456.714,159.169c25.745-8.93,52.695-14.288,79.843-16.471
		c7.872-0.688,15.783-0.661,23.682-0.251c-7.726,13.27-14.487,27.664-15.109,43.275c-2.037,25.15,8.652,50.314,26.381,67.923
		c26.275,27.571,64.84,40.51,102.268,41.714c8.163,0.661,16.286-1.442,24.436-0.291c5.411,0.503,10.835,1.548,16.286,0.556
		c3.321,8.427,6.536,16.908,9.261,25.56c1.376,4.022,0.833,8.308,0.569,12.449c-23.933-5.08-49.837-0.146-69.96,13.825
		c-2.884-21.737-16.815-41.555-36.012-52.047c-22.597-13.164-52.391-12.754-74.657,0.966c-17.583,10.081-29.794,28.193-34.239,47.8
		c-2.712,15.638-1.799,32.4,5.424,46.794c7.501,16.683,21.578,30.045,38.486,36.965c11.96,5.477,25.441,6.284,38.367,5.041
		c8.083-0.767,15.651-3.916,23.272-6.562c0.86,20.546,9.049,40.669,22.755,56.002c12.185,13.799,28.696,23.615,46.583,27.942
		c-5.411,7.951-12.952,14.024-19.461,21.009c-4.247,4.062-7.806,8.917-12.727,12.198c-2.633,0.185-5.094-1.005-7.475-1.865
		c-14.368-5.993-28.802-11.841-43.183-17.781c-2.712-1.032-5.451-2.13-8.335-2.328c-4.802,1.297-8.666,4.63-12.807,7.21
		c-22.054,14.196-44.439,27.902-66.481,42.124c-2.831,1.641-5.729,3.718-9.102,3.81c-6.43-5.636-11.034-12.992-16.762-19.289
		c-17.953-21.3-35.853-42.653-53.767-63.98c-3.704-4.26-6.8-9.089-11.087-12.807c-1.627-1.654-4.101-0.953-6.125-0.847
		c-10.782,1.482-21.38,4.207-32.255,5.054c-13.031,0.622-25.957,2.474-38.909,3.89c-1.032-1.138-2.051-2.276-3.043-3.4
		c17.331-3.519,32.453-14.804,42.27-29.318c15.413-22.557,19.183-52.576,10.015-78.282c-5.768-16.246-17.106-30.866-32.532-38.896
		c-10.703-5.689-23.192-7.647-35.152-6.006c0.119-7.766,0.913-15.532,2.778-23.086c6.297-30.667,18.138-60.236,35.178-86.524
		c5.305-8.11,10.147-16.961,18.151-22.769c5.16-3.731,10.544-7.144,15.889-10.61c10.981-7.025,23.443-11.351,34.107-18.932
		C1440.587,164.223,1448.842,162.093,1456.714,159.169z"/>
	<path fill="#F6CCCF" stroke="#F6CCCF" d="M858.534,172.227c31.104-12.912,64.853-18.469,98.418-18.879
		c-6.906,12.489-12.74,25.984-12.965,40.497c-8.692-5.054-17.675-9.684-27.148-13.098c-10.61-3.797-21.327-8.335-32.797-8.295
		C875.535,172.492,867.028,172.347,858.534,172.227z"/>
	<path fill="#90CAE6" stroke="#90CAE6" d="M1407.512,180.126c8.401-4.3,16.604-9.433,26.023-11.193
		c-10.663,7.581-23.126,11.907-34.107,18.932c-5.345,3.466-10.729,6.88-15.889,10.61c-8.004,5.808-12.846,14.659-18.151,22.769
		c-17.04,26.288-28.881,55.857-35.178,86.524c-1.865,7.554-2.659,15.32-2.778,23.086c-28.392,4.247-49.917,28.669-57.167,55.487
		c-1.746-3.559-3.241-7.329-2.818-11.365c0.781-18.284-1.164-36.806,2.448-54.878c2.209-11.404,9.949-20.48,16.405-29.767
		c6.165-9.129,13.614-17.358,19.157-26.923c4.22-7.091,10.346-12.674,16.101-18.482
		C1346.667,219.101,1375.905,197.351,1407.512,180.126z"/>
	<path fill="#F8D3D6" stroke="#F8D3D6" d="M796.208,206.467c18.932-14.394,40.179-25.679,62.326-34.239
		c8.494,0.119,17,0.265,25.507,0.225c11.47-0.04,22.187,4.498,32.797,8.295c9.473,3.413,18.456,8.044,27.148,13.098
		c0.146,10.968,2.302,22.054,7.237,31.911c3.135,5.993,6.615,11.828,10.491,17.371c-6.231-4.816-11.775-10.399-17.768-15.479
		c-18.363-13.508-39.571-23.232-61.837-28.18C853.573,194.639,823.144,194.626,796.208,206.467z"/>
	<path fill="#F9DADB" stroke="#F9DADB" d="M796.208,206.467c26.936-11.841,57.365-11.828,85.902-6.999
		c22.266,4.948,43.474,14.672,61.837,28.18c5.993,5.08,11.536,10.663,17.768,15.479c3.36,3.109,6.536,6.403,9.552,9.87
		c2.752,3.943,4.922,8.308,8.15,11.933c5.16,5.768,8.679,12.74,12.172,19.58c8.269,16.67,14.354,34.649,15.757,53.29
		c-9.367,3.466-17.596,9.618-23.946,17.292c0.331-21.38-5.517-42.561-15.558-61.347c-9.658-18.826-23.787-35.403-41.225-47.443
		c-22.504-15.506-49.454-25.547-77.025-24.991c-15.651-0.529-31.342,1.786-46.106,7.012c-24.317,8.877-46.9,23.682-62.71,44.4
		c-13.468,17.636-23.179,38.34-27.174,60.223c-1.945,10.359-1.839,20.943-1.654,31.434c0.556,26.751,11.272,52.391,26.46,74.088
		c3.255,5.027,7.819,9.301,13.653,11.126c-10.147,1.693-20.242,3.572-30.416,5.094c-9.248-6.972-14.315-17.609-19.316-27.717
		c-5.729-11.96-10.2-24.542-12.714-37.573c-2.209-11.444-4.167-23.311-1.826-34.887c1.058-5.557,1.879-11.153,3.016-16.696
		c6.549-16.022,15.135-31.117,24.356-45.723C736.66,258.976,763.715,229.063,796.208,206.467z"/>
	<path fill="#FAE0E1" stroke="#FAE0E1" d="M803.484,228.323c14.765-5.226,30.455-7.541,46.106-7.012
		c27.571-0.556,54.521,9.486,77.025,24.991c17.437,12.039,31.567,28.616,41.225,47.443c10.042,18.787,15.889,39.968,15.558,61.347
		c-7.964,9.433-12.688,21.049-16.048,32.797c5.398-5.861,11.431-11.166,18.35-15.188c1.693,2.143,4.406,4.194,3.89,7.303
		c-0.754,8.692-3.876,16.948-6.496,25.203c-4.167,12.82-10.716,24.687-18.429,35.681c-1.429-0.185-2.844-0.37-4.247-0.542
		c-7.21-9.168-15.558-17.397-24.846-24.449c2.487,1.217,5.08,2.236,7.673,3.255c11.642-17.834,17.913-38.87,18.681-60.104
		c0.185-31.725-12.859-63.689-36.515-85.082c-10.452-10.584-23.655-17.927-37.256-23.616c-7.872-3.347-16.524-3.876-24.952-4.406
		c-7.634-0.41-15.281-1.177-22.914-0.661c-27.36,1.746-53.991,14.328-72.408,34.689c-6.76,7.343-15.069,13.415-20.176,22.147
		c-6.985,12.145-10.915,25.759-13.349,39.478c0.781,0.595,2.368,1.773,3.149,2.368c-9.274,9.248-14.725,21.618-17.821,34.199
		c5.848-5.98,12.105-11.735,19.646-15.545c2.143,13.455,4.432,27.108,10.333,39.531c7.832,16.458,19.303,31.355,34.199,42.045
		c-10.597,1.826-21.181,3.771-31.805,5.398c-5.834-1.826-10.399-6.099-13.653-11.126c-15.188-21.697-25.904-47.337-26.46-74.088
		c-0.185-10.491-0.291-21.075,1.654-31.434c3.995-21.882,13.706-42.587,27.174-60.223
		C756.584,252.004,779.167,237.2,803.484,228.323z"/>
	<path fill="#F2AFB3" stroke="#F2AFB3" d="M1154.171,235.969c15.783,14.791,29.596,31.778,40.894,50.221
		c-11.735,14.95-21.75,31.143-30.283,48.117c-11.867,21.062-19.488,44.056-28.259,66.481c1.349-11.92,7.078-22.967,6.893-35.086
		c-0.198-16.101,0.648-32.321-2.156-48.263c-2.104-17.887-6.694-35.337-11.761-52.576c-3.903,0.833-7.832,1.535-11.709,2.461
		c5.517-3.162,10.69-6.866,15.902-10.491C1141.774,251.237,1147.662,243.206,1154.171,235.969z"/>
	<path fill="#93CAE5" stroke="#93CAE5" d="M1772.302,264.361c9.01-6.76,15.823-15.783,23.404-23.999
		c7.673,6.258,13.534,14.288,20.374,21.38c11.153,12.82,21.552,26.328,30.839,40.576c4.141,6.443,8.785,12.621,11.947,19.633
		c4.088,10.862,10.822,20.427,15.32,31.117c10.862,24.555,21.062,49.692,25.838,76.244c1.495,7.859-0.979,15.664-3.281,23.1
		c-6.297,20.877-14.275,41.304-24.806,60.421c-4.511,0.238-9.578,0-13.005,3.493c-13.891,12.714-28.034,25.177-42.402,37.361
		c-9.512-3.969-18.138-9.764-27.809-13.349c-9.87-4.326-19.064-9.975-28.656-14.831c-9.446-5.715-19.699-10.028-28.682-16.471
		c22.187-6.562,41.516-22.068,52.854-42.23c12.396-21.631,15.016-48.475,7.422-72.183c-9.473-30.402-36.131-54.574-67.327-60.99
		c0.265-4.141,0.807-8.427-0.569-12.449c-2.725-8.652-5.94-17.133-9.261-25.56c-5.451,0.992-10.875-0.053-16.286-0.556
		c9.314-3.374,19.369-3.89,28.709-7.263C1743.249,282.671,1758.807,274.945,1772.302,264.361z"/>
	<path fill="#FAE5E7" stroke="#FAE5E7" d="M767.882,279.972c18.416-20.361,45.048-32.943,72.408-34.689
		c7.634-0.516,15.281,0.251,22.914,0.661c8.427,0.529,17.08,1.058,24.952,4.406c13.6,5.689,26.804,13.032,37.256,23.616
		c23.655,21.393,36.7,53.356,36.515,85.082c-0.767,21.234-7.038,42.27-18.681,60.104c-2.593-1.019-5.186-2.037-7.673-3.255
		c-6.377-4.128-12.807-8.216-19.739-11.312c3.823-0.291,8.308-1.019,9.989-5.014c9.684-18.403,13.68-40.351,8.785-60.752
		c-5.252-26.222-23.126-49.467-47.125-61.308c-11.073-6.324-24.145-6.443-36.515-7.131c-20.678-1.244-41.621,6.046-57.365,19.422
		c-6.919,5.848-13.68,11.92-19.686,18.707c-5.821,6.536-8.719,14.923-11.682,22.994c-9.354,1.283-18.085,5.795-24.727,12.463
		c-0.781-0.595-2.368-1.773-3.149-2.368c2.434-13.719,6.364-27.333,13.349-39.478C752.813,293.388,761.122,287.315,767.882,279.972z
		"/>
	<path fill="#F7D3D5" stroke="#F7D3D5" d="M971.267,252.996c4.935,3.572,10.068,6.88,15.148,10.266
		c9.499,6.271,20.255,10.28,30.985,13.905c6.073,2.95,11.589,7.792,13.375,14.54c3.823,12.568,7.819,25.269,8.996,38.407
		c0.661,2.699-1.561,4.511-3.704,5.583c-9.552-1.786-19.567-1.283-28.722,2.104c-1.402-18.641-7.488-36.621-15.757-53.29
		c-3.493-6.84-7.012-13.812-12.172-19.58C976.188,261.305,974.018,256.939,971.267,252.996z"/>
	<path fill="#8BC9E8" stroke="#8BC9E8" d="M1297.994,270.301c2.077-2.712,4.802-4.789,7.462-6.893
		c-5.543,9.565-12.992,17.794-19.157,26.923c-6.456,9.287-14.196,18.363-16.405,29.767c-3.612,18.072-1.667,36.594-2.448,54.878
		c-0.423,4.035,1.072,7.806,2.818,11.365c-4.723,18.588-4.115,38.79,3.413,56.571c6.469,15.585,18.31,29.331,33.842,36.343
		c10.941,5.08,23.496,6.417,35.311,4.101c0.992,1.125,2.011,2.262,3.043,3.4c12.952-1.416,25.878-3.268,38.909-3.89
		c-9.036,3.519-18.773,4.234-28.286,5.636c-13.336,0.661-26.367,3.651-39.531,5.676c-12.291,2.104-24.647,3.771-36.965,5.583
		c-4.763,0.556-9.645,1.31-14.394,0.397c-3.876-4.723-5.385-10.782-7.568-16.365c-11.312-28.378-17.702-58.49-21.34-88.747
		c-0.794-6.271-0.278-12.727,1.945-18.667c3.228-8.93,6.972-17.662,10.756-26.367c4.63-10.994,11.457-20.903,15.836-32.03
		C1274.326,300.929,1286.352,285.661,1297.994,270.301z"/>
	<path fill="#F4BABD" stroke="#F4BABD" d="M1117.788,267.324c3.876-0.926,7.806-1.627,11.709-2.461
		c5.067,17.239,9.658,34.689,11.761,52.576c2.805,15.942,1.958,32.162,2.156,48.263c0.185,12.119-5.543,23.166-6.893,35.086
		c-3.294,12.926-7.118,25.746-9.168,38.949c-1.958,11.417-2.156,23.02-2.831,34.557c-15.558-8.203-31.553-15.691-46.411-25.15
		c2.17-0.318,4.379-0.529,6.589-0.741c8.864-24.449,15.281-49.996,16.26-76.072c0.159-18.575,0.807-37.295-2.606-55.645
		c-1.733-9.843-3.572-19.726-6.35-29.331c-0.82-3.903-4.22-6.178-7.184-8.401C1096.277,276.638,1107.377,272.63,1117.788,267.324z"
		/>
	<path fill="#FBEBEC" stroke="#FBEBEC" d="M793.601,289.802c15.744-13.376,36.687-20.665,57.365-19.422
		c12.37,0.688,25.441,0.807,36.515,7.131c23.999,11.841,41.873,35.086,47.125,61.308c4.895,20.401,0.9,42.349-8.785,60.752
		c-1.68,3.995-6.165,4.723-9.989,5.014c-6.959-2.739-14.09-5.014-21.433-6.39c10.028-7.7,14.315-20.282,16.471-32.281
		c3.016-19.236-4.3-39.267-17.424-53.383c-12.172-12.132-29.212-19.448-46.451-19.435c-23.774,0.516-47.456,14.751-56.982,36.898
		c-1.416,3.043,0.013,6.311,1.244,9.155c-8.427-5.821-18.813-8.771-29.027-7.647c2.964-8.07,5.861-16.458,11.682-22.994
		C779.922,301.722,786.682,295.65,793.601,289.802z"/>
	<path fill="#F6CACC" stroke="#F6CACC" d="M1017.4,277.168c15.161,3.4,30.733,5.927,46.318,4.895
		c8.361,24.621,13.283,50.684,12.026,76.76c-0.701,0.556-2.09,1.667-2.792,2.223c-8.613-12.621-21.869-22.12-36.885-25.349
		c2.143-1.072,4.366-2.884,3.704-5.583c-1.177-13.137-5.173-25.838-8.996-38.407C1028.989,284.96,1023.472,280.118,1017.4,277.168z"
		/>
	<path fill="#F5C2C5" stroke="#F5C2C5" d="M1063.718,282.063c7.104-0.463,14.156-1.574,21.102-3.109
		c2.964,2.223,6.364,4.498,7.184,8.401c2.778,9.605,4.617,19.488,6.35,29.331c3.413,18.35,2.765,37.07,2.606,55.645
		c-0.979,26.076-7.396,51.623-16.26,76.072c-2.209,0.212-4.419,0.423-6.589,0.741c-6.668,1.588-10.703,7.462-15.175,12.119
		c-4.617,5.146-9.909,9.618-14.738,14.553c2.209-5.266,4.128-10.677,6.893-15.691c11.788-21.922,18.231-46.239,22.319-70.674
		c3.03,3.083,6.046,6.205,9.129,9.248c-1.72-13.336-5.861-26.553-13.587-37.652c0.701-0.556,2.09-1.667,2.792-2.223
		C1077.001,332.747,1072.079,306.684,1063.718,282.063z"/>
	<path fill="#A3CEDF" stroke="#A3CEDF" d="M1543.701,296.378c22.266-13.719,52.06-14.13,74.657-0.966
		c19.197,10.491,33.128,30.31,36.012,52.047c-25.613,17.199-41.066,48.144-39.359,78.956c-7.62,2.646-15.188,5.795-23.272,6.562
		c-12.926,1.244-26.407,0.437-38.367-5.041c-16.908-6.919-30.984-20.282-38.486-36.965c-7.224-14.394-8.136-31.157-5.424-46.794
		C1513.907,324.571,1526.118,306.459,1543.701,296.378z"/>
	<path fill="#FCF1F2" stroke="#FCF1F2" d="M790.016,329.995c9.526-22.147,33.207-36.382,56.982-36.898
		c17.239-0.013,34.279,7.303,46.451,19.435c13.124,14.116,20.44,34.147,17.424,53.383c-2.156,12-6.443,24.581-16.471,32.281
		c-21.737-3.532-44.638,0.847-63.385,12.423c-4.273,2.395-8.097,5.438-12.079,8.242c-10.703,0.886-18.654-7.263-25.163-14.579
		c-4.445-5.398-9.221-10.968-11.206-17.808c-0.886-2.051,0.807-3.691,1.932-5.186c3.969-4.697,8.613-8.771,12.793-13.283
		c7.29,6.231,13.468,13.6,19.964,20.639c-0.357-2.487-0.688-4.961-1.125-7.422c7.911,10.703,21.168,17.292,34.557,16.035
		c19.938-1.495,37.07-19.527,37.229-39.571c0.556-20.917-17.609-40.06-38.459-40.894c-22.107-1.349-43.434,18.694-41.45,41.238
		c-4.154-7.409-9.843-13.931-16.749-18.879C790.029,336.306,788.6,333.038,790.016,329.995z"/>
	<path fill="#FDF8F8" stroke="#FDF8F8" d="M808.009,358.029c-1.984-22.544,19.342-42.587,41.45-41.238
		c20.85,0.833,39.015,19.977,38.459,40.894c-0.159,20.043-17.292,38.076-37.229,39.571c-13.389,1.257-26.645-5.332-34.557-16.035
		C814.65,373.111,811.925,365.266,808.009,358.029z"/>
	<path fill="#83C7EB" stroke="#83C7EB" d="M1256.716,330.947c2.209-4.71,4.895-9.195,8.52-12.965
		c-4.379,11.126-11.206,21.036-15.836,32.03c-3.784,8.705-7.528,17.437-10.756,26.367c-2.223,5.94-2.739,12.396-1.945,18.667
		c3.638,30.257,10.028,60.368,21.34,88.747c2.183,5.583,3.691,11.642,7.568,16.365c4.75,0.913,9.631,0.159,14.394-0.397
		c12.317-1.813,24.674-3.479,36.965-5.583c13.164-2.024,26.195-5.014,39.531-5.676c-4.286,1.548-8.652,2.924-13.203,3.268
		c-21.274,3.228-42.402,7.343-63.716,10.174c-7.422,0.781-14.804,2.646-21.221,6.536c-12.449,7.184-25.203,13.865-38.737,18.76
		c-3.466-6.787-6.946-13.627-9.089-20.956c-1.971-6.959-1.191-14.275-0.688-21.38c1.561-20.533,5.12-40.881,10.438-60.765
		C1228.642,391.766,1240.642,360.278,1256.716,330.947z"/>
	<path fill="#87C8E9" stroke="#87C8E9" d="M1858.865,321.951c2.686,3.241,5.358,6.549,7.104,10.438
		c26.301,48.448,42.402,102.281,47.919,157.093c0.992,15.281,2.778,30.561,1.72,45.895c-11.47-2.487-21.909-7.991-32.731-12.344
		c-6.165-2.408-11.947-6.006-18.469-7.316c-4.194,2.024-7.356,5.543-10.822,8.56c-10.319,9.089-20.718,18.099-31.011,27.214
		c-2.487,1.707-5.266,5.16-8.533,3.347c-8.798-4.128-17.847-8.189-25.322-14.5c9.671,3.585,18.297,9.38,27.809,13.349
		c14.368-12.185,28.511-24.647,42.402-37.361c3.427-3.493,8.494-3.255,13.005-3.493c10.531-19.117,18.509-39.544,24.806-60.421
		c2.302-7.435,4.776-15.241,3.281-23.1c-4.776-26.553-14.976-51.689-25.838-76.244
		C1869.688,342.378,1862.953,332.813,1858.865,321.951z"/>
	<path fill="#1F1A17" stroke="#1F1A17" d="M1327.431,330.855c11.96-1.641,24.449,0.318,35.152,6.006
		c15.426,8.031,26.764,22.65,32.532,38.896c9.168,25.706,5.398,55.725-10.015,78.282c-9.817,14.513-24.938,25.798-42.27,29.318
		c-11.814,2.315-24.37,0.979-35.311-4.101c-15.532-7.012-27.373-20.758-33.842-36.343c-7.528-17.781-8.136-37.983-3.413-56.571
		C1277.514,359.524,1299.039,335.102,1327.431,330.855 M1358.124,355.648c-16.564,5.914-20.546,30.72-7.435,42.085
		c5.914,5.464,15.413,6.112,22.068,1.627c10.425-6.694,14.037-21.406,8.943-32.493
		C1378.115,357.937,1367.438,352.049,1358.124,355.648z"/>
	<path fill="#1F1A17" stroke="#1F1A17" d="M737.506,343.966c6.641-6.668,15.373-11.179,24.727-12.463
		c10.214-1.125,20.599,1.826,29.027,7.647c6.906,4.948,12.595,11.47,16.749,18.879c3.916,7.237,6.641,15.082,8.123,23.192
		c0.437,2.461,0.767,4.935,1.125,7.422c-6.496-7.038-12.674-14.407-19.964-20.639c-7.369-6.245-16.127-11.47-25.904-12.449
		c-11.113-1.151-22.253,1.984-32.056,7.065c-7.541,3.81-13.799,9.565-19.646,15.545
		C722.781,365.583,728.232,353.213,737.506,343.966z"/>
	<path fill="#1F1A17" stroke="#1F1A17" d="M1654.37,347.458c20.123-13.971,46.027-18.906,69.96-13.825
		c31.196,6.417,57.855,30.588,67.327,60.99c7.594,23.708,4.974,50.552-7.422,72.183c-11.338,20.162-30.667,35.668-52.854,42.23
		c-15.214,4.498-31.593,4.988-47.033,1.323c-17.887-4.326-34.398-14.143-46.583-27.942c-13.706-15.334-21.896-35.456-22.755-56.002
		C1613.304,395.602,1628.756,364.657,1654.37,347.458 M1735.192,357.302c-12.754,2.686-22.491,15.201-21.763,28.246
		c0.106,13.64,11.603,25.918,25.19,26.976c11.92,1.402,24.118-5.914,28.616-17.014c4.339-10.055,2.037-22.504-5.636-30.323
		C1754.957,358.188,1744.585,355.119,1735.192,357.302z"/>
	<path fill="#1F1A17" stroke="#1F1A17" d="M1007.345,337.801c9.155-3.387,19.17-3.89,28.722-2.104
		c15.016,3.228,28.272,12.727,36.885,25.349c7.726,11.1,11.867,24.317,13.587,37.652c-3.083-3.043-6.099-6.165-9.129-9.248
		c-7.276-7.369-14.99-14.447-23.88-19.845c-8.771-5.305-18.853-8.547-29.172-8.216c-13.6,0.291-26.91,4.591-38.658,11.312
		c-6.919,4.022-12.952,9.327-18.35,15.188c3.36-11.748,8.083-23.364,16.048-32.797
		C989.749,347.419,997.978,341.267,1007.345,337.801z"/>
	<path fill="#F8D3D6" stroke="#F8D3D6" d="M668.062,407.192c4.842-23.88,12.158-47.403,22.742-69.378
		c-1.138,5.543-1.958,11.14-3.016,16.696c-2.342,11.576-0.384,23.444,1.826,34.887c2.514,13.032,6.985,25.613,12.714,37.573
		c5.001,10.108,10.068,20.745,19.316,27.717c-9.922,1.072-18.615,6.152-26.963,11.245c-3.453-3.043-7.012-6.152-9.182-10.306
		C677.23,440.597,667.917,424.933,668.062,407.192z"/>
	<path fill="#FBE9EA" stroke="#FBE9EA" d="M739.332,362.62c9.803-5.08,20.943-8.216,32.056-7.065
		c9.777,0.979,18.535,6.205,25.904,12.449c-4.181,4.511-8.824,8.586-12.793,13.283c-1.125,1.495-2.818,3.135-1.932,5.186
		c1.984,6.84,6.76,12.41,11.206,17.808c6.509,7.316,14.46,15.466,25.163,14.579c-8.732,6.853-15.982,15.281-23.073,23.748
		c-3.995,0.595-8.017,0.953-12,1.588c-14.897-10.69-26.367-25.587-34.199-42.045C743.764,389.728,741.475,376.075,739.332,362.62z"
		/>
	<path fill="#FFFFFF" stroke="#FFFFFF" d="M1358.124,355.648c9.314-3.599,19.99,2.289,23.576,11.219
		c5.094,11.087,1.482,25.798-8.943,32.493c-6.655,4.485-16.154,3.837-22.068-1.627
		C1337.578,386.368,1341.56,361.562,1358.124,355.648z"/>
	<path fill="#FFFFFF" stroke="#FFFFFF" d="M1735.192,357.302c9.393-2.183,19.766,0.886,26.407,7.885
		c7.673,7.819,9.975,20.268,5.636,30.323c-4.498,11.1-16.696,18.416-28.616,17.014c-13.587-1.058-25.084-13.336-25.19-26.976
		C1712.701,372.503,1722.438,359.987,1735.192,357.302z"/>
	<path fill="#F8D6D8" stroke="#F8D6D8" d="M985.701,372.701c11.748-6.721,25.058-11.021,38.658-11.312
		c-0.49,27.095-7.475,54.097-20.374,77.938c-6.006,11.788-13.005,23.404-22.822,32.427c-0.45,0.344-1.363,1.019-1.813,1.363
		c-4.974-11.642-11.338-22.65-18.932-32.771c1.402,0.172,2.818,0.357,4.247,0.542c7.713-10.994,14.262-22.861,18.429-35.681
		c2.62-8.256,5.742-16.511,6.496-25.203C990.106,376.895,987.394,374.844,985.701,372.701z"/>
	<path fill="#F7CFD1" stroke="#F7CFD1" d="M1024.359,361.39c10.319-0.331,20.401,2.911,29.172,8.216
		c-1.323,39.505-16.167,77.805-38.976,109.822c-3.89-0.344-7.792-0.595-11.656-1.125c-6.999-2.884-14.011-6.297-21.737-6.549
		c9.817-9.023,16.815-20.639,22.822-32.427C1016.884,415.487,1023.869,388.485,1024.359,361.39z"/>
	<path fill="#F6C8CB" stroke="#F6C8CB" d="M1053.531,369.605c8.891,5.398,16.604,12.476,23.88,19.845
		c-4.088,24.436-10.531,48.752-22.319,70.674c-2.765,5.014-4.683,10.425-6.893,15.691c-4.167,5.424-8.851,10.425-13.733,15.201
		c-10.65-3.916-21.141-8.229-31.567-12.714c3.863,0.529,7.766,0.781,11.656,1.125
		C1037.364,447.411,1052.208,409.11,1053.531,369.605z"/>
	<path fill="#F6CCCF" stroke="#F6CCCF" d="M659.41,484.931c0.476-26.076,2.342-52.338,8.652-77.739
		c-0.146,17.741,9.168,33.406,17.437,48.435c2.17,4.154,5.729,7.263,9.182,10.306C682.959,472.323,671.449,479.136,659.41,484.931z"
		/>
	<path fill="#FFFFFF" stroke="#FFFFFF" d="M917.672,413.952c8.282,2.924,15.889,7.673,21.896,14.13
		c-0.49,5.464-1.217,11.537-5.358,15.572c-2.408,2.487-7.276,3.784-9.38,0.225C919.021,435.147,918.254,424.139,917.672,413.952z"/>
	<path fill="#75C5F0" stroke="#75C5F0" d="M2009.568,449.289l1.111,0.291c-0.04,0.582-0.106,1.733-0.146,2.315
		C2010.296,451.248,2009.806,449.938,2009.568,449.289z"/>
	<path fill="#75C5F0" stroke="#75C5F0" d="M620.104,455.561c-1.588-1.641-1.283-2.805,0.926-3.506
		C621.387,453.378,621.069,454.542,620.104,455.561z"/>
	<path fill="#75C5F0" stroke="#75C5F0" d="M2010.851,457.148l1.085,0.37c-0.079,0.582-0.212,1.746-0.278,2.328
		C2011.447,459.172,2011.05,457.823,2010.851,457.148z"/>
	<path fill="#75C5F0" stroke="#75C5F0" d="M2012.095,465.099l1.058,0.41c-0.079,0.569-0.238,1.707-0.331,2.276
		C2012.651,467.124,2012.28,465.774,2012.095,465.099z"/>
	<path opacity="0.93" fill="#2C4552" stroke="#2C4552" enable-background="new    " d="M618.053,496.64
		c0.172-7.62-0.648-15.32,0.979-22.835c0.556,12.264,0.146,24.528,0.384,36.806l-1.058-0.609
		C617.828,505.557,618.079,501.085,618.053,496.64z"/>
	<path opacity="0.75" fill="#244758" stroke="#244758" enable-background="new    " d="M2013.735,474.559
		c2.223-0.172,2.765,3.876,0.86,4.697C2013.788,477.813,2013.365,476.186,2013.735,474.559z"/>
	<path fill="#C2C1C1" stroke="#C2C1C1" d="M727.967,505.914c31.421-9.631,62.789-19.408,94.197-29.119
		c1.786-0.926,3.771-0.49,4.988,1.164c27.479,27.492,55.116,54.825,82.542,82.37c21.882-12.357,43.672-24.899,65.475-37.388
		c1.627-0.926,3.4-1.839,5.371-1.495c15.836,1.27,31.633,3.784,47.496,4.538c13.587-9.949,26.486-20.877,39.835-31.157
		c30.019,17.874,59.932,35.906,89.99,53.727c0.225,6.456,0.384,12.939,0.45,19.408c-22.385-9.883-44.625-20.083-66.996-30.019
		c-4.26,53.528-7.7,107.586-1.085,161.075c8.401,70.503,34.094,139.259,76.482,196.439
		c-59.667,24.594-124.349,36.303-188.805,35.959c-85.003-0.569-170.918-21.777-243.326-67.102
		c-40.179-25.177-75.742-58.119-102.374-97.452c-31.99-46.662-50.472-101.937-55.645-158.125
		c-3.188-33.604-1.76-67.433,0.529-101.037c34.927,15.678,69.841,31.395,104.755,47.112c12.132-14.672,24.29-29.304,36.422-43.976
		C720.532,507.7,724.514,507.038,727.967,505.914 M828.74,503.506c-28.907,8.705-57.855,17.265-86.841,25.653
		c-7.104,1.852-10.849,8.613-15.426,13.706c-8.494,9.565-16.657,19.408-25.203,28.934c-32.294-13.627-64.245-28.087-96.751-41.145
		c-3.85,42.442-4.101,85.77,5.583,127.51c9.764,43.778,30.323,85.016,59.191,119.321c26.566,31.302,59.297,57.273,95.6,76.43
		c42.958,23.324,90.334,37.877,138.544,45.366c70.622,10.809,143.704,6.39,212.209-14.156c-1.098-2.328-2.17-4.67-3.241-6.999
		c-14.751-28.18-23.893-58.834-32.268-89.395c-11.087-42.482-19.183-85.783-24.039-129.416
		c-4.895-46.464-7.528-94.025,2.289-140.052c-10.743,7.568-21.075,15.691-31.448,23.735c-3.03,2.54-6.919,3.903-10.875,3.215
		c-11.867-1.164-23.695-2.739-35.589-3.546c-6.218-0.635-11.536,3.083-16.696,5.953c-12.476,6.933-25.031,13.733-37.533,20.626
		c-4.604,2.474-9.049,5.583-14.249,6.668c-4.313-2.672-7.568-6.641-11.153-10.134c-9.063-9.486-19.369-17.662-28.444-27.121
		c-8.652-9.01-18.495-16.776-27.121-25.812c-3.321-3.268-6.377-6.893-10.28-9.473C833.119,501.971,830.751,503.149,828.74,503.506z"
		/>
	<path opacity="0.7" fill="#224152" stroke="#224152" enable-background="new    " d="M2015.032,485.235
		c2.487,0.053,2.752,4.644,0.913,5.848C2015.204,489.218,2014.714,487.233,2015.032,485.235z"/>
	<path opacity="0.85" fill="#264656" stroke="#264656" enable-background="new    " d="M2016.5,498.386
		c2.606,0.82,2.13,6.496,0.754,8.613C2016.421,504.194,2016.077,501.27,2016.5,498.386z"/>
	<path fill="#DEDEDD" stroke="#DEDEDD" d="M828.74,503.506c2.011-0.357,4.379-1.535,6.258-0.132c3.903,2.58,6.959,6.205,10.28,9.473
		c8.626,9.036,18.469,16.802,27.121,25.812c9.076,9.459,19.382,17.636,28.444,27.121c3.585,3.493,6.84,7.462,11.153,10.134
		c5.199-1.085,9.645-4.194,14.249-6.668c12.502-6.893,25.058-13.693,37.533-20.626c5.16-2.871,10.478-6.589,16.696-5.953
		c11.894,0.807,23.721,2.381,35.589,3.546c3.956,0.688,7.845-0.675,10.875-3.215c10.372-8.044,20.705-16.167,31.448-23.735
		c-9.817,46.027-7.184,93.589-2.289,140.052c4.855,43.632,12.952,86.934,24.039,129.416c8.375,30.561,17.516,61.215,32.268,89.395
		c1.072,2.328,2.143,4.67,3.241,6.999c-68.505,20.546-141.587,24.965-212.209,14.156c-48.21-7.488-95.587-22.041-138.544-45.366
		c-36.303-19.157-69.034-45.127-95.6-76.43c-28.868-34.305-49.427-75.543-59.191-119.321c-9.684-41.741-9.433-85.069-5.583-127.51
		c32.506,13.058,64.456,27.518,96.751,41.145c8.547-9.526,16.709-19.369,25.203-28.934c4.578-5.094,8.322-11.854,15.426-13.706
		C770.885,520.771,799.833,512.211,828.74,503.506 M725.784,614.982c-23.02,2.183-47.099,8.031-64.668,23.959
		c-12.555,10.981-19.474,28.22-17.278,44.836c2.024,17.583,10.73,33.617,21.618,47.271c11.404,14.606,25.97,26.354,40.986,37.057
		c36.025,24.251,77.766,39.941,120.803,45.67c27.902,3.413,57.021,2.805,83.627-7.118c14.937-5.49,28.96-15.135,37.044-29.119
		c8.745-15.175,7.978-34.239,1.588-50.128c-6.059-14.778-15.611-27.968-26.751-39.333c-18.085-18.839-40.232-33.34-63.477-44.982
		C817.945,623.303,771.785,611.634,725.784,614.982z"/>
	<path fill="#75C5F0" stroke="#75C5F0" d="M562.011,514.923c-2.117-0.675-1.336-4.591,0.82-4.485
		C563.241,511.986,562.884,513.587,562.011,514.923z"/>
	<path opacity="0.83" fill="#24404E" stroke="#24404E" enable-background="new    " d="M2017.89,513.64
		c1.707,7.594,1.416,15.439,1.045,23.179C2017.81,529.146,2017.546,521.38,2017.89,513.64z"/>
	<path fill="#C2C1C1" stroke="#C2C1C1" d="M1281.801,563.901c40.298-12.277,80.451-25.163,120.829-37.15
		c6.615,5.318,12.092,11.907,18.284,17.728c26.711,26.645,53.502,53.237,80.174,79.922c1.191,0.833,2.606,3.268,4.273,1.892
		c24.542-13.944,49.057-27.968,73.532-42.045c3.135-1.667,6.284-4.286,10.094-3.453c18.085,1.879,36.157,3.837,54.243,5.609
		c1.799,0.357,3.162-1.23,4.578-2.09c14.844-11.788,29.728-23.549,44.612-35.284c41.41,24.542,82.489,49.665,124.071,73.916
		c-4.617,4.802-9.261,9.579-13.614,14.619c-1.892,1.852-3.559,4.234-6.125,5.133c-6.443-1.799-11.722-6.218-17.556-9.314
		c-32.559-18.416-64.853-37.309-97.531-55.513c-13.64,9.367-26.394,19.977-39.703,29.794c-4.67,3.638-10.875,2.792-16.352,2.209
		c-10.372-1.349-20.811-2.09-31.183-3.44c-5.292-0.609-10.941-1.244-15.863,1.217c-23.84,12.86-47.456,26.182-71.415,38.857
		c-9.393-8.824-19.144-17.278-28.167-26.486c-8.507-8.705-17.979-16.405-26.46-25.124c-9.989-10.319-21.274-19.289-31.011-29.847
		c-3.334-3.083-7.078-8.004-12.238-6.192c-35.059,10.333-70.092,20.917-105.245,30.998c-8.017,2.104-12.701,9.34-17.781,15.267
		c-10.214,11.894-20.586,23.642-30.733,35.602c-38.83-15.797-76.893-33.472-115.776-49.149c-3.757,42.812-4.75,86.18,2.17,128.728
		c8.057,51.319,27.651,100.945,57.815,143.307c28.974,41.119,67.235,75.331,110.073,101.487
		c38.486,23.761,80.743,41.026,124.269,53.092c49.586,13.468,101.037,20.229,152.436,19.752
		c48.395,0.357,96.777-5.967,143.625-18.019c47.376-12.304,93.165-31.17,134.694-57.167c32.069-20.282,61.797-44.664,86.326-73.717
		c29.939-34.557,52.47-75.437,66.097-119.057c8.613-27.624,13.587-56.307,15.664-85.148c1.72-30.998,1.005-62.154-1.932-93.073
		c-14.751,5.041-28.762,11.973-43.222,17.741c-7.554,2.911-14.778,6.589-22.306,9.512c-4.115,1.707-8.666,1.111-12.807-0.079
		c-35.099-9.962-70.516-18.813-105.615-28.788c8.11-8.838,15.982-17.86,24.052-26.738c31.805,8.93,63.597,17.913,95.401,26.87
		c9.155,2.368,18.125,5.517,27.386,7.422c25.573-10.69,50.79-22.306,76.218-33.406c2.064,29.754,3.268,59.601,2.54,89.435
		c-1.548,53.952-12.304,107.89-33.935,157.45c-20.943,47.879-51.756,91.393-89.885,127.127
		c-36.276,34.266-78.771,61.665-124.19,82.198c-54.283,24.595-112.733,39.544-171.923,45.855
		c-68.293,7.184-137.83,2.924-204.602-13.151c-49.956-12.092-98.405-30.958-142.685-57.114
		c-43.831-25.931-83.521-59.231-115.273-99.145c-32.36-40.537-56.399-87.688-70.132-137.724
		c-11.669-41.886-16.392-85.545-15.757-128.966c0.159-22.015,1.217-44.016,2.752-65.978c41.648,18.826,83.362,37.481,125.023,56.28
		c13.508-16.313,27.082-32.572,40.537-48.924C1275.159,568.571,1277.514,564.708,1281.801,563.901z"/>
	<path opacity="0.83" fill="#273D49" stroke="#273D49" enable-background="new    " d="M560.026,559.297
		c-0.278-9.036-0.781-18.191,1.072-27.095C561.534,541.251,561.336,550.327,560.026,559.297z"/>
	<path fill="#75C5F0" stroke="#75C5F0" d="M2086.209,552.801c2.077,0.357,2.924,4.617,1.019,5.795
		C2086.302,556.796,2085.654,554.799,2086.209,552.801z"/>
	<path fill="#DEDEDD" stroke="#DEDEDD" d="M1409.271,558.86c5.16-1.813,8.904,3.109,12.238,6.192
		c9.737,10.557,21.022,19.527,31.011,29.847c8.48,8.719,17.953,16.418,26.46,25.124c9.023,9.208,18.773,17.662,28.167,26.486
		c23.959-12.674,47.575-25.997,71.415-38.857c4.922-2.461,10.571-1.826,15.863-1.217c10.372,1.349,20.811,2.09,31.183,3.44
		c5.477,0.582,11.682,1.429,16.352-2.209c13.309-9.817,26.063-20.427,39.703-29.794c32.678,18.204,64.972,37.097,97.531,55.513
		c5.834,3.096,11.113,7.515,17.556,9.314c2.567-0.9,4.234-3.281,6.125-5.133c4.353-5.041,8.996-9.817,13.614-14.619
		c10.2-10.915,20.282-21.935,30.535-32.797c35.099,9.975,70.516,18.826,105.615,28.788c4.141,1.191,8.692,1.786,12.807,0.079
		c7.528-2.924,14.751-6.602,22.306-9.512c14.46-5.768,28.471-12.701,43.222-17.741c2.937,30.918,3.651,62.075,1.932,93.073
		c-2.077,28.841-7.052,57.524-15.664,85.148c-13.627,43.619-36.157,84.5-66.097,119.057c-24.528,29.053-54.256,53.436-86.326,73.717
		c-41.529,25.997-87.318,44.863-134.694,57.167c-46.847,12.052-95.229,18.376-143.625,18.019
		c-51.398,0.476-102.85-6.284-152.436-19.752c-43.527-12.066-85.783-29.331-124.269-53.092
		c-42.839-26.156-81.1-60.368-110.073-101.487c-30.164-42.362-49.758-91.988-57.815-143.307
		c-6.919-42.548-5.927-85.915-2.17-128.728c38.883,15.677,76.945,33.353,115.776,49.149c10.147-11.96,20.52-23.708,30.733-35.602
		c5.08-5.927,9.764-13.164,17.781-15.267C1339.179,579.777,1374.212,569.193,1409.271,558.86 M1695.475,665.295
		c-10.69,1.786-21.274,6.866-27.823,15.744c-6.628,8.719-8.269,20.48-5.57,30.958c4.419,18.39,17.199,33.604,31.818,45.048
		c19.832,15.082,44.704,24.846,69.907,22.941c14.13-0.556,28.696-7.237,35.985-19.779c6.337-10.862,5.186-24.37,0.741-35.681
		c-6.575-16.233-18.787-29.82-33.128-39.65C1746.847,670.177,1720.837,661.551,1695.475,665.295 M1366.102,682.468
		c-29.212,1.561-58.728,7.197-84.791,20.93c-19.647,10.346-36.898,26.698-44.744,47.826c-7.488,19.911-5.848,42.402,1.521,62.115
		c6.84,19.197,18.548,36.224,31.567,51.729c14.209,16.26,30.204,30.958,47.641,43.699c42.151,31.077,90.744,52.735,141.164,66.414
		c49.507,12.74,101.977,18.257,152.423,7.62c24.661-5.477,49.414-14.95,68.002-32.612c15.81-14.341,25.798-35.205,25.746-56.664
		c0.86-21.208-6.827-41.701-17.331-59.773c-13.124-21.829-30.429-40.92-49.731-57.431c-37.269-31.752-81.298-54.865-127.312-71.124
		C1464.057,689.387,1415.04,680.179,1366.102,682.468z"/>
	<path opacity="0.74" fill="#22404F" stroke="#22404F" enable-background="new    " d="M2088.035,570.476
		c1.045,4.591,1.614,9.327,1.005,14.037C2088.485,579.843,2088.048,575.173,2088.035,570.476z"/>
	<path opacity="0.85" fill="#273A44" stroke="#273A44" enable-background="new    " d="M560.079,578.176
		c0.781,5.94,1.177,11.947,1.005,17.953C559.51,590.268,559.55,584.156,560.079,578.176z"/>
	<path opacity="0.8" fill="#244252" stroke="#244252" enable-background="new    " d="M2089.424,594.316
		c1.548,8.52,1.31,17.225,0.979,25.838C2089.133,611.595,2088.882,602.942,2089.424,594.316z"/>
	<path fill="#FFFFFF" stroke="#FFFFFF" d="M725.784,614.982c46.001-3.347,92.16,8.322,133.49,28.114
		c23.245,11.642,45.392,26.142,63.477,44.982c11.14,11.365,20.692,24.555,26.751,39.333c6.39,15.889,7.157,34.954-1.588,50.128
		c-8.083,13.984-22.107,23.629-37.044,29.119c-26.605,9.922-55.725,10.531-83.627,7.118c-43.037-5.729-84.778-21.419-120.803-45.67
		c-15.016-10.703-29.582-22.451-40.986-37.057c-10.888-13.653-19.594-29.688-21.618-47.271
		c-2.196-16.617,4.723-33.856,17.278-44.836C678.686,623.012,702.764,617.165,725.784,614.982z"/>
	<path opacity="0.88" fill="#26414F" stroke="#26414F" enable-background="new    " d="M2089.464,668.907
		c-0.569-7.753-0.225-15.545,0.926-23.232C2090.667,653.415,2091.104,661.273,2089.464,668.907z"/>
	<path fill="#FFFFFF" stroke="#FFFFFF" d="M1695.475,665.295c25.362-3.744,51.372,4.882,71.931,19.58
		c14.341,9.83,26.553,23.417,33.128,39.65c4.445,11.312,5.596,24.819-0.741,35.681c-7.29,12.542-21.856,19.223-35.985,19.779
		c-25.203,1.905-50.075-7.859-69.907-22.941c-14.619-11.444-27.399-26.658-31.818-45.048c-2.699-10.478-1.058-22.24,5.57-30.958
		C1674.201,672.162,1684.785,667.081,1695.475,665.295z"/>
	<path opacity="0.85" fill="#274655" stroke="#274655" enable-background="new    " d="M2087.823,685.378
		c-0.37-2.897,0.066-5.795,0.873-8.56C2090.046,678.922,2090.535,684.651,2087.823,685.378z"/>
	<path fill="#FFFFFF" stroke="#FFFFFF" d="M1366.102,682.468c48.938-2.289,97.955,6.919,144.154,22.729
		c46.014,16.26,90.043,39.372,127.312,71.124c19.302,16.511,36.607,35.602,49.731,57.431c10.505,18.072,18.191,38.565,17.331,59.773
		c0.053,21.459-9.936,42.323-25.746,56.664c-18.588,17.662-43.341,27.135-68.002,32.612c-50.446,10.637-102.916,5.12-152.423-7.62
		c-50.419-13.68-99.013-35.337-141.164-66.414c-17.437-12.74-33.432-27.439-47.641-43.699
		c-13.018-15.505-24.727-32.532-31.567-51.729c-7.369-19.713-9.01-42.204-1.521-62.115c7.845-21.128,25.097-37.481,44.744-47.826
		C1307.374,689.665,1336.89,684.029,1366.102,682.468z"/>
	<path fill="#75C5F0" stroke="#75C5F0" d="M2086.302,698.661c-0.41-1.349-0.119-2.527,0.886-3.532
		C2088.749,696.73,2088.445,697.907,2086.302,698.661z"/>
	<path fill="#75C5F0" stroke="#75C5F0" d="M2083.563,717.315c0.159-0.688,0.49-2.051,0.662-2.739
		c0.106,0.569,0.304,1.733,0.41,2.315L2083.563,717.315z"/>
	<path fill="#72706F" stroke="#72706F" d="M1021.408,944.686c53.065-4.207,105.708-16.207,154.672-37.269
		c34.729,44.387,79.168,80.729,128.119,108.42c91.803,51.795,198.516,74.313,303.443,71.257
		c105.35-3.202,211.111-32.797,298.892-92.054c27.531,7.105,55.553,14.275,80.438,28.471c8.533,5.239,17.464,11.378,21.525,20.917
		c2.778,6.059,1.336,13.243-2.408,18.548c-5.371,7.541-13.045,13.217-21.274,17.318c-24.806,13.508-52.351,20.692-79.591,27.492
		c-85.902,19.408-174.014,26.447-261.781,30.469c-18.125-0.291-36.184,1.627-54.296,1.323c-32.652-0.106-65.33,0.569-97.968-0.714
		c-69.537-1.958-139.073-6.84-207.935-16.974c-25.957-3.718-51.742-8.573-77.29-14.447c-25.931-6.536-52.139-13.428-75.874-26.076
		c-9.539-5.345-19.527-11.589-24.634-21.631c-3.625-6.853-1.892-15.4,2.858-21.247c7.779-9.843,19.183-15.876,30.297-21.208
		c7.832-3.863,16.299-6.258,24.092-10.2c-6.496-0.437-12.899,0.9-19.329,1.469c-72.54,7.091-145.556,8.758-218.387,6.562
		c-57.762-2.117-115.59-6.324-172.598-16.22c-20.11-3.744-40.193-8.044-59.601-14.606c-11.867-4.406-24.608-8.705-33.366-18.337
		c-3.995-4.075-4.974-10.743-1.588-15.505c5.623-7.991,14.87-12.264,23.563-16.088c34.477-13.944,71.64-18.932,108.076-24.978
		C862.596,939.156,942.769,950.824,1021.408,944.686z"/>
	<path opacity="0.82" fill="#2D404A" stroke="#2D404A" enable-background="new    " d="M840.158,1216.218
		c10.266-1.72,20.705-1.283,31.064-1.045C860.915,1216.601,850.517,1216.667,840.158,1216.218z"/>
	<path fill="#1F1A17" stroke="#1F1A17" d="M871.222,1215.172c5.398-0.304,10.835-0.304,16.246,0
		c9.856,1.376,19.818,1.508,29.754,1.085c4.406,0.159,8.983-0.49,13.296,0.688c1.416,0.728,3.03,1.058,4.644,0.741
		c4.141-0.053,8.586-0.714,12.555,0.754c1.336,0.86,2.95,1.217,4.551,0.833c6.377-0.675,12.846,0.503,19.091,1.76
		c1.005,0.939,2.196,1.23,3.546,0.886c4.895-0.569,10.134,0.172,14.646,2.064c0.688,0.159,2.064,0.503,2.752,0.675
		c1.032,0,3.096,0.026,4.128,0.04c1.058,0.926,2.276,1.257,3.678,0.966c3.638-0.304,7.25,0.595,10.703,1.68
		c0.661,0.225,1.998,0.688,2.659,0.913c8.983,0.503,17.636,3.519,26.381,5.517c26.87,7.25,53.555,16.498,77.422,31.051
		c4.776,2.686,8.877,6.88,14.434,7.938c52.999,9.592,105.721,21.604,156.669,39.24c37.772,13.64,76.112,29.979,105.125,58.582
		c6.509,9.01,13.561,18.099,16.339,29.08c3.969,13.455,1.693,28.471-6.02,40.179c-11.828,18.231-30.535,30.482-49.189,40.854
		c-39.187,20.625-81.774,33.829-124.521,44.797c-57.749,14.606-116.437,25.177-175.39,33.538
		c-119.255,16.299-239.582,24.475-359.935,25.521c-14.315-0.106-28.709,0.741-42.958-1.111
		c-12.621-1.786-25.296-5.649-35.615-13.349c-7.435-5.464-12.873-13.058-18.165-20.48c-6.073-13.005-9.42-27.055-14.606-40.404
		c-2.58-10.796-9.049-20.877-18.813-26.447c-11.034-6.469-24.118-7.157-36.528-8.375c-69.854-7.369-140.185-8.269-210.357-7.62
		c-36.197,0.079-72.394,0.476-108.565-0.767c-26.301-1.191-52.721-3.374-78.348-9.75c-21.102-5.239-41.873-13.455-59.045-27.055
		c-8.242-6.403-16.074-14.698-17.94-25.349c-1.654-8.745,1.76-17.371,6.059-24.793c8.639-11.298,20.401-19.726,32.48-27.002
		c29.635-17.133,62.101-28.563,94.66-38.764c23.417-7.171,47.112-13.389,70.913-19.144c4.088-0.873,8.11-2.315,12.33-2.395
		c0.661-0.212,1.984-0.648,2.659-0.86c5.676-1.76,11.576-2.62,17.344-4.062c3.493-0.688,6.999-1.971,10.61-1.482
		c0.635-0.291,1.905-0.86,2.54-1.151c0.953-0.106,2.858-0.318,3.81-0.423c0.675-0.198,2.037-0.582,2.712-0.781
		c5.676-1.429,11.484-3.294,17.397-2.924c0.635-0.291,1.918-0.847,2.553-1.125c0.979-0.013,2.937-0.026,3.929-0.04
		c0.688-0.172,2.064-0.503,2.752-0.661c3.506-1.865,7.885-2.58,11.854-2.077c0.648-0.251,1.932-0.767,2.567-1.019
		c1.68-0.794,3.44-0.886,5.305-0.278c0.661-0.212,1.998-0.622,2.672-0.833c4.683-1.799,9.803-2.024,14.685-3.016
		c4.816-0.675,9.592-2.077,14.487-1.68c1.402,0.278,2.633-0.053,3.704-1.005c1.072-0.026,3.215-0.093,4.286-0.119
		c1.363,0.344,2.567,0.026,3.599-0.966c1.72-0.847,3.572-1.045,5.557-0.582c1.363,0.331,2.606,0.066,3.731-0.794
		c4.789-1.336,9.803-2.249,14.791-1.813c1.376,0.291,2.606-0.026,3.665-0.966c1.879-0.503,3.784-0.622,5.755-0.357
		c1.627,0.291,3.255-0.106,4.697-0.873c1.905-0.595,3.863-0.741,5.887-0.45c1.641,0.265,3.268-0.093,4.75-0.794
		c8.851-1.667,17.94-3.453,26.963-2.99c1.336,0.357,2.527,0.053,3.546-0.926c2.037-1.508,4.842-0.384,7.184-0.384
		c1.588,0.397,3.215-0.013,4.564-0.926c2.593-1.323,5.702-0.635,8.507-0.423c1.323,0.357,2.5,0.053,3.532-0.9
		c2.514-1.442,5.715-0.49,8.507-0.582c1.601,0.304,3.188-0.132,4.604-0.873c3.162-1.085,6.655-0.529,9.949-0.463
		c1.984,0.318,3.969-0.159,5.834-0.86c2.381-0.86,4.961-0.503,7.435-0.265c1.574,0.384,3.188,0.013,4.538-0.873
		c3.532-1.469,7.581-0.635,11.325-0.45c1.574,0.384,3.188,0,4.538-0.86c3.995-1.495,8.467-0.635,12.648-0.635
		c2.434,0.304,4.855-0.225,7.184-0.9c3.704-0.873,7.568-0.609,11.351-0.49c2.421,0.278,4.829-0.159,7.171-0.82
		c3.876-0.9,7.898-0.595,11.867-0.661c5.583,0.119,11.153-0.265,16.696-1.005c3.241-0.344,6.522-0.41,9.803-0.357
		c7.316,0.384,14.646,0.079,21.896-0.979c4.141-0.37,8.308-0.384,12.476-0.37c6.059,0.238,12.198,0.291,18.178-0.926
		c13.733-3.651,27.214-8.282,41.132-11.259c4.181-0.714,8.401-2.567,12.688-1.813c0.675-0.185,2.024-0.569,2.699-0.767
		c3.069-1.68,6.972-2.699,10.478-1.879c0.675-0.172,2.037-0.516,2.712-0.701c4.472-1.892,9.645-2.448,14.527-2.236
		c1.363,0.291,2.593-0.04,3.665-0.979c1.852-0.49,3.757-0.595,5.715-0.344c1.627,0.304,3.255-0.106,4.723-0.86
		c1.918-0.556,3.903-0.701,5.953-0.423c2.011,0.265,3.995-0.238,5.887-0.9c1.945-0.476,3.943-0.609,5.98-0.423
		c2.024,0.198,4.035-0.251,5.953-0.886c2.593-0.675,5.318-0.542,7.978-0.754c3.797-0.225,7.581-0.635,11.378-0.979
		c3.255-0.225,6.522-0.291,9.803-0.278C850.517,1216.667,860.915,1216.601,871.222,1215.172 M846.243,1227.86
		c-47.482,2.104-95.018,8.308-140.687,21.803c-24.131,7.568-48.329,16.537-68.955,31.514c-10.875,8.017-21.181,18.085-25.494,31.223
		c-1.786,5.98-3.215,13.19,0.714,18.667c4.935,6.853,12.82,10.703,20.387,13.971c24.026,9.618,49.758,13.905,75.239,17.728
		c38.327,5.345,76.985,7.898,115.643,9.314c66.15,2.104,132.498,0.807,198.37-5.927c30.548-3.453,61.268-7.554,90.731-16.67
		c9.711-3.36,19.726-6.827,27.809-13.402c3.784-3.109,7.144-7.475,7.144-12.595c0.04-11.404-5.821-21.935-13.389-30.098
		c-10.002-10.729-22.557-18.681-35.522-25.322c-21.737-10.901-45.061-18.271-68.597-24.198
		C969.719,1229.567,907.697,1225.426,846.243,1227.86 M436.657,1273.967c-69.894,9.565-139.457,22.134-207.711,40.113
		c-36.263,9.737-72.302,20.797-106.634,36.131c-16.789,7.951-33.882,16.418-47.231,29.622c-5.57,5.57-10.597,13.124-9.42,21.38
		c0.9,6.919,6.099,12.092,11.113,16.458c14.235,12.516,32.043,20.202,50.155,25.229c22.531,6.125,45.868,8.705,69.127,10.187
		c38.751,2.209,77.594,1.76,116.397,1.614c74.26-0.503,148.731,0.04,222.621,8.242c11.417,1.045,23.086,2.699,33.393,8.057
		c9.645,4.855,17.384,13.137,22.054,22.848c8.017,16.352,10.571,34.861,19.369,50.882c5.041,9.195,13.031,16.789,22.623,21.089
		c11.629,5.226,24.542,6.641,37.163,6.787c99.873,0,199.759-5.027,299.116-15.267c66.282-7.012,132.379-16.326,197.709-29.662
		c52.311-10.928,104.504-23.827,154.037-44.175c21.618-9.287,43.288-19.726,60.924-35.602c8.11-7.29,15.241-16.418,17.569-27.28
		c2.209-10.756-1.085-21.948-6.88-31.051c-7.29-11.417-17.755-20.414-28.749-28.14c-16.63-11.695-35.152-20.308-53.793-28.233
		c-52.854-21.419-108.552-34.834-164.448-45.511c8.123,10.28,13.905,22.61,14.262,35.893c-0.41,10.28-7.343,18.839-15.545,24.383
		c-13.627,9.274-29.662,14.182-45.551,18.032c-57.286,12.754-116.119,16.855-174.662,18.495
		c-76.654,1.349-153.745,0.384-229.646-11.589c-22.782-3.89-45.921-7.7-67.221-17.067c-10.333-4.71-20.903-10.862-26.645-21.062
		c-4.419-7.832-2.924-17.344-0.648-25.6c4.419-14.818,15.598-26.182,27.161-35.84c9.975-6.76,20.083-13.442,31.143-18.337
		C583.84,1257.773,510.017,1264.07,436.657,1273.967z"/>
	<path opacity="0.78" fill="#2C3F49" stroke="#2C3F49" enable-background="new    " d="M887.468,1215.172
		c9.922-0.318,19.924-0.582,29.754,1.085C907.286,1216.681,897.324,1216.548,887.468,1215.172z"/>
	<path opacity="0.68" fill="#2B404C" stroke="#2B404C" enable-background="new    " d="M818.976,1217.474
		c3.744-0.754,7.541-1.482,11.378-0.979C826.557,1216.839,822.773,1217.25,818.976,1217.474z"/>
	<path opacity="0.61" fill="#2C4553" stroke="#2C4553" enable-background="new    " d="M930.518,1216.945
		c0.701-2.037,4.789-1.574,4.644,0.741C933.548,1218.004,931.934,1217.673,930.518,1216.945z"/>
	<path opacity="0.69" fill="#2E4754" stroke="#2E4754" enable-background="new    " d="M805.045,1219.115
		c0.079-2.567,4.723-2.778,5.953-0.886C809.08,1218.864,807.069,1219.313,805.045,1219.115z"/>
	<path fill="#75C5F0" stroke="#75C5F0" d="M947.717,1218.44c0.701-2.037,4.63-1.363,4.551,0.833
		C950.668,1219.657,949.053,1219.3,947.717,1218.44z"/>
	<path opacity="0.71" fill="#2D444F" stroke="#2D444F" enable-background="new    " d="M793.178,1220.438
		c0.079-2.527,4.67-2.792,5.887-0.9C797.173,1220.2,795.189,1220.703,793.178,1220.438z"/>
	<path opacity="0.73" fill="#2F4754" stroke="#2F4754" enable-background="new    " d="M782.501,1221.721
		c-0.146-2.276,3.89-2.831,4.723-0.86C785.756,1221.615,784.129,1222.026,782.501,1221.721z"/>
	<path fill="#75C5F0" stroke="#75C5F0" d="M971.359,1221.033c1.601-1.614,2.792-1.31,3.546,0.886
		C973.555,1222.264,972.365,1221.973,971.359,1221.033z"/>
	<path opacity="0.69" fill="#2E4753" stroke="#2E4753" enable-background="new    " d="M773.121,1223.044
		c0.701-2.196,1.918-2.514,3.665-0.979C775.714,1223.005,774.484,1223.335,773.121,1223.044z"/>
	<path fill="#75C5F0" stroke="#75C5F0" d="M989.55,1223.984c0.582-0.106,1.76-0.304,2.342-0.397l0.41,1.072
		C991.614,1224.486,990.238,1224.142,989.55,1223.984z"/>
	<path fill="#75C5F0" stroke="#75C5F0" d="M756.266,1224.91c0.582,0.093,1.746,0.278,2.328,0.37
		c-0.675,0.185-2.037,0.529-2.712,0.701L756.266,1224.91z"/>
	<path opacity="0.66" fill="#2D4553" stroke="#2D4553" enable-background="new    " d="M996.43,1224.698
		c1.707-1.548,2.937-1.23,3.678,0.966C998.706,1225.955,997.488,1225.624,996.43,1224.698z"/>
	<path fill="#75C5F0" stroke="#75C5F0" d="M743.063,1227.556c0.582,0.079,1.76,0.225,2.342,0.304
		c-0.675,0.198-2.024,0.582-2.699,0.767L743.063,1227.556z"/>
	<path fill="#F8C300" stroke="#F8C300" d="M846.243,1227.86c61.453-2.434,123.475,1.707,183.394,16.008
		c23.536,5.927,46.86,13.296,68.597,24.198c12.965,6.641,25.521,14.593,35.522,25.322c7.568,8.163,13.428,18.694,13.389,30.098
		c0,5.12-3.36,9.486-7.144,12.595c-8.083,6.575-18.099,10.042-27.809,13.402c-29.463,9.115-60.183,13.217-90.731,16.67
		c-65.872,6.734-132.22,8.031-198.37,5.927c-38.658-1.416-77.316-3.969-115.643-9.314c-25.481-3.823-51.213-8.11-75.239-17.728
		c-7.568-3.268-15.453-7.118-20.387-13.971c-3.929-5.477-2.5-12.688-0.714-18.667c4.313-13.137,14.619-23.205,25.494-31.223
		c20.625-14.976,44.823-23.946,68.955-31.514C751.226,1236.168,798.761,1229.964,846.243,1227.86 M880.575,1238.14
		c-10.452,0.701-20.877,2.064-31.037,4.591c-8.533,2.117-17.252,4.71-24.303,10.161c-3.427,2.633-6.655,6.456-6.311,11.047
		c0.278,5.517,4.591,9.645,8.785,12.701c8.93,6.205,19.448,9.565,29.834,12.476c18.099,4.75,36.819,6.946,55.526,7.462
		c21.988,0.384,44.4-1.191,65.369-8.282c7.078-2.712,14.91-6.059,18.787-13.005c2.911-5.438-0.318-11.748-4.644-15.32
		c-9.83-8.414-22.61-12.066-34.835-15.453C932.569,1238.391,906.4,1236.433,880.575,1238.14 M1026.039,1275.21
		c-4.075,1.032-8.838,2.342-11.034,6.258c-1.852,3.651,1.773,6.787,4.789,8.163c7.713,3.519,16.564,3.876,24.859,2.659
		c4.935-0.939,10.399-2.276,13.733-6.337c1.892-3.969-1.76-7.303-5.08-8.692C1044.812,1273.437,1035.022,1273.517,1026.039,1275.21z
		"/>
	<path opacity="0.55" fill="#29414E" stroke="#29414E" enable-background="new    " d="M1010.811,1227.344l0.979-0.714l1.349,0.463
		l0.331,1.164C1012.809,1228.032,1011.472,1227.569,1010.811,1227.344z"/>
	<path fill="#FFF974" stroke="#FFF974" d="M880.575,1238.14c25.825-1.707,51.994,0.251,77.17,6.377
		c12.224,3.387,25.005,7.038,34.835,15.453c4.326,3.572,7.554,9.883,4.644,15.32c-3.876,6.946-11.709,10.293-18.787,13.005
		c-20.97,7.091-43.381,8.666-65.369,8.282c-18.707-0.516-37.428-2.712-55.526-7.462c-10.386-2.911-20.903-6.271-29.834-12.476
		c-4.194-3.056-8.507-7.184-8.785-12.701c-0.344-4.591,2.884-8.414,6.311-11.047c7.052-5.451,15.77-8.044,24.303-10.161
		C859.698,1240.204,870.124,1238.841,880.575,1238.14z"/>
	<path opacity="0.54" fill="#28404D" stroke="#28404D" enable-background="new    " d="M670.708,1242.625
		c5.967-1.257,12.105-1.561,18.178-0.926C682.906,1242.916,676.767,1242.863,670.708,1242.625z"/>
	<path opacity="0.77" fill="#2D434E" stroke="#2D434E" enable-background="new    " d="M636.337,1243.974
		c7.21-1.429,14.579-1.495,21.896-0.979C650.982,1244.053,643.653,1244.358,636.337,1243.974z"/>
	<path opacity="0.72" fill="#2C434F" stroke="#2C434F" enable-background="new    " d="M609.837,1245.337
		c5.477-1.164,11.1-1.707,16.696-1.005C620.99,1245.072,615.42,1245.456,609.837,1245.337z"/>
	<path opacity="0.61" fill="#2A4451" stroke="#2A4451" enable-background="new    " d="M590.799,1246.819
		c0.397-2.672,5.543-2.54,7.171-0.82C595.628,1246.66,593.22,1247.096,590.799,1246.819z"/>
	<path opacity="0.71" fill="#2C4653" stroke="#2C4653" enable-background="new    " d="M572.264,1248.208
		c0.384-2.672,5.517-2.553,7.184-0.9C577.119,1247.983,574.698,1248.512,572.264,1248.208z"/>
	<path fill="#75C5F0" stroke="#75C5F0" d="M555.078,1249.703c-0.159-2.209,3.797-2.871,4.538-0.86
		C558.267,1249.703,556.653,1250.086,555.078,1249.703z"/>
	<path fill="#75C5F0" stroke="#75C5F0" d="M539.215,1251.026c-0.119-2.183,3.797-2.884,4.538-0.873
		C542.404,1251.039,540.79,1251.409,539.215,1251.026z"/>
	<path opacity="0.73" fill="#2D4653" stroke="#2D4653" enable-background="new    " d="M525.946,1252.15
		c0.026-2.527,4.644-2.712,5.834-0.86C529.915,1251.991,527.93,1252.468,525.946,1252.15z"/>
	<path opacity="0.59" fill="#28414F" stroke="#28414F" enable-background="new    " d="M511.393,1253.486
		c-0.238-2.302,3.823-2.911,4.604-0.873C514.581,1253.354,512.994,1253.791,511.393,1253.486z"/>
	<path fill="#75C5F0" stroke="#75C5F0" d="M499.354,1254.968c0.688-2.196,1.865-2.5,3.532-0.9
		C501.854,1255.021,500.677,1255.325,499.354,1254.968z"/>
	<path fill="#75C5F0" stroke="#75C5F0" d="M486.282,1256.318c-0.119-2.17,3.771-2.897,4.564-0.926
		C489.497,1256.304,487.87,1256.715,486.282,1256.318z"/>
	<path fill="#C2C1C1" stroke="#C2C1C1" d="M436.657,1273.967c73.36-9.896,147.183-16.193,221.152-18.972
		c-11.06,4.895-21.168,11.576-31.143,18.337c-14.751-0.516-29.45,0.913-44.162,1.68c-59.773,3.903-119.401,10.214-178.578,19.514
		c-48.369,7.594-96.499,17-143.863,29.49c-35.721,9.618-71.402,20.414-104.676,36.819c-13.071,6.946-26.777,14.355-35.774,26.486
		c-4.948,6.271-5.623,15.783-0.079,21.935c10.782,12.608,26.725,19.422,42.376,23.84c28.365,7.25,57.881,8.295,87.027,8.216
		c26.023,0.106,52.02-1.244,78.004-2.514c37.057-1.402,74.088-3.771,111.198-4.115c45.749-0.609,91.618,0.635,137.102,5.927
		c11.365,1.283,23.774,6.522,28.339,17.821c5.689,14.818,2.077,30.932,1.217,46.265c-0.595,11.695-1.68,25.137,6.258,34.808
		c8.52,9.896,22.491,11.722,34.808,11.854c95.123,0,190.287-4.961,284.828-15.704c54.772-6.311,109.385-14.46,163.324-25.984
		c47.165-10.425,94.422-22.411,138.425-42.759c15.214-7.343,30.257-15.81,42.376-27.77c7.528-7.435,13.667-17.371,13.203-28.312
		c-0.225-12.489-7.66-23.417-16.088-32.043c-12.568-12.33-27.981-21.274-43.672-29c-22.081-10.862-45.405-18.866-68.836-26.208
		c-0.357-13.283-6.139-25.613-14.262-35.893c55.897,10.677,111.595,24.092,164.448,45.511c18.641,7.925,37.163,16.537,53.793,28.233
		c10.994,7.726,21.459,16.723,28.749,28.14c5.795,9.102,9.089,20.295,6.88,31.051c-2.328,10.862-9.459,19.99-17.569,27.28
		c-17.636,15.876-39.306,26.314-60.924,35.602c-49.533,20.348-101.725,33.247-154.037,44.175
		c-65.33,13.336-131.426,22.65-197.709,29.662c-99.357,10.24-199.243,15.267-299.116,15.267
		c-12.621-0.146-25.534-1.561-37.163-6.787c-9.592-4.3-17.583-11.894-22.623-21.089c-8.798-16.021-11.351-34.53-19.369-50.882
		c-4.67-9.711-12.41-17.993-22.054-22.848c-10.306-5.358-21.975-7.012-33.393-8.057c-73.889-8.203-148.361-8.745-222.621-8.242
		c-38.803,0.146-77.647,0.595-116.397-1.614c-23.258-1.482-46.596-4.062-69.127-10.187c-18.112-5.027-35.919-12.714-50.155-25.229
		c-5.014-4.366-10.214-9.539-11.113-16.458c-1.177-8.255,3.85-15.81,9.42-21.38c13.349-13.203,30.442-21.671,47.231-29.622
		c34.332-15.334,70.37-26.394,106.634-36.131C297.2,1296.1,366.763,1283.532,436.657,1273.967z"/>
	<path fill="#75C5F0" stroke="#75C5F0" d="M475.553,1257.627c0.714-2.183,1.892-2.487,3.546-0.926
		C478.08,1257.68,476.889,1257.985,475.553,1257.627z"/>
	<path opacity="0.69" fill="#2B4553" stroke="#2B4553" enable-background="new    " d="M443.841,1261.411
		c-0.106-2.302,3.956-2.805,4.75-0.794C447.108,1261.319,445.481,1261.676,443.841,1261.411z"/>
	<path opacity="0.69" fill="#2B4553" stroke="#2B4553" enable-background="new    " d="M433.257,1262.734
		c-0.159-2.276,3.876-2.858,4.697-0.873C436.511,1262.628,434.884,1263.025,433.257,1262.734z"/>
	<path opacity="0.68" fill="#2B4655" stroke="#2B4655" enable-background="new    " d="M423.837,1264.057
		c0.714-2.196,1.932-2.514,3.665-0.966C426.443,1264.031,425.213,1264.348,423.837,1264.057z"/>
	<path opacity="0.67" fill="#2A4553" stroke="#2A4553" enable-background="new    " d="M405.315,1266.664
		c0.82-2.17,2.064-2.434,3.731-0.794C407.921,1266.73,406.678,1266.994,405.315,1266.664z"/>
	<path fill="#75C5F0" stroke="#75C5F0" d="M396.16,1268.211c0.741-2.17,1.945-2.487,3.599-0.966
		C398.726,1268.238,397.522,1268.555,396.16,1268.211z"/>
	<path opacity="0.65" fill="#294352" stroke="#294352" enable-background="new    " d="M388.169,1269.336
		c0.728-2.196,1.958-2.527,3.704-1.005C390.802,1269.283,389.571,1269.614,388.169,1269.336z"/>
	<path fill="#75C5F0" stroke="#75C5F0" d="M356.668,1273.768c0.582,0.066,1.746,0.198,2.328,0.265
		c-0.675,0.212-2.011,0.622-2.672,0.833L356.668,1273.768z"/>
	<path fill="#FFFFFF" stroke="#FFFFFF" d="M582.504,1275.012c14.712-0.767,29.41-2.196,44.162-1.68
		c-11.563,9.658-22.742,21.022-27.161,35.84c-2.276,8.255-3.771,17.768,0.648,25.6c5.742,10.2,16.313,16.352,26.645,21.062
		c21.3,9.367,44.44,13.177,67.221,17.067c75.9,11.973,152.991,12.939,229.646,11.589c58.543-1.641,117.376-5.742,174.662-18.495
		c15.889-3.85,31.924-8.758,45.551-18.032c8.203-5.543,15.135-14.103,15.545-24.383c23.43,7.343,46.755,15.347,68.836,26.208
		c15.691,7.726,31.104,16.67,43.672,29c8.427,8.626,15.863,19.554,16.088,32.043c0.463,10.941-5.676,20.877-13.203,28.312
		c-12.119,11.96-27.161,20.427-42.376,27.77c-44.003,20.348-91.26,32.334-138.425,42.759
		c-53.939,11.523-108.552,19.673-163.324,25.984c-94.541,10.743-189.705,15.704-284.828,15.704
		c-12.317-0.132-26.288-1.958-34.808-11.854c-7.938-9.671-6.853-23.113-6.258-34.808c0.86-15.333,4.472-31.448-1.217-46.265
		c-4.564-11.298-16.974-16.537-28.339-17.821c-45.485-5.292-91.353-6.536-137.102-5.927c-37.11,0.344-74.141,2.712-111.198,4.115
		c-25.984,1.27-51.981,2.62-78.004,2.514c-29.146,0.079-58.662-0.966-87.027-8.216c-15.651-4.419-31.593-11.232-42.376-23.84
		c-5.543-6.152-4.869-15.664,0.079-21.935c8.996-12.132,22.703-19.541,35.774-26.486c33.273-16.405,68.955-27.201,104.676-36.819
		c47.363-12.489,95.494-21.896,143.863-29.49C463.103,1285.225,522.731,1278.915,582.504,1275.012z"/>
	<path fill="#75C5F0" stroke="#75C5F0" d="M348.73,1275.038c0.569,0.026,1.72,0.079,2.289,0.106
		c-0.635,0.251-1.918,0.767-2.567,1.019L348.73,1275.038z"/>
	<path fill="#FFF974" stroke="#FFF974" d="M1026.039,1275.21c8.983-1.693,18.773-1.773,27.267,2.051
		c3.321,1.389,6.972,4.723,5.08,8.692c-3.334,4.062-8.798,5.398-13.733,6.337c-8.295,1.217-17.146,0.86-24.859-2.659
		c-3.016-1.376-6.641-4.511-4.789-8.163C1017.201,1277.552,1021.964,1276.242,1026.039,1275.21z"/>
	<path fill="#75C5F0" stroke="#75C5F0" d="M334.27,1277.83c0.582,0.106,1.746,0.304,2.328,0.41c-0.688,0.159-2.064,0.49-2.752,0.661
		L334.27,1277.83z"/>
	<path fill="#75C5F0" stroke="#75C5F0" d="M327.364,1280.066c0.384-0.437,1.151-1.297,1.535-1.733l1.019,0.609
		C329.282,1279.219,327.999,1279.774,327.364,1280.066z"/>
	<path opacity="0.56" fill="#25404F" stroke="#25404F" enable-background="new    " d="M307.638,1282.632l1.389-0.397l0.939,0.754
		c-0.675,0.198-2.037,0.582-2.712,0.781L307.638,1282.632z"/>
	<path fill="#75C5F0" stroke="#75C5F0" d="M300.904,1285.344c0.384-0.437,1.138-1.31,1.521-1.733l1.019,0.582
		C302.809,1284.484,301.539,1285.053,300.904,1285.344z"/>
	<path opacity="0.54" fill="#243E4C" stroke="#243E4C" enable-background="new    " d="M270.621,1290.597l1.363-0.437l0.966,0.728
		c-0.675,0.212-1.998,0.648-2.659,0.86L270.621,1290.597z"/>
	<path fill="#72706F" stroke="#72706F" d="M1393.501,1370.585c9.274,6.562,17.424,14.738,24.052,23.973
		c7.329,10.306,12.052,23.007,10.809,35.787c-1.31,12.251-8.348,23.126-16.855,31.712c-18.112,18.403-41.463,30.455-64.681,41.172
		c-49.07,21.671-101.09,35.694-153.256,47.641c-65.502,14.579-131.863,25.031-198.489,32.85
		c-98.338,11.616-197.312,17.371-296.312,18.628c-12.33-0.066-24.674,0.437-36.991-0.066c-14.698-0.847-30.045-4.075-41.754-13.521
		c-12-9.684-18.31-24.568-21.975-39.147c5.292,7.422,10.73,15.016,18.165,20.48c10.319,7.7,22.994,11.563,35.615,13.349
		c14.249,1.852,28.643,1.005,42.958,1.111c120.353-1.045,240.68-9.221,359.935-25.521c58.953-8.361,117.641-18.932,175.39-33.538
		c42.746-10.968,85.333-24.171,124.521-44.797c18.654-10.372,37.361-22.623,49.189-40.854c7.713-11.709,9.989-26.725,6.02-40.179
		C1407.062,1388.684,1400.01,1379.595,1393.501,1370.585z"/>
	<path fill="#72706F" stroke="#72706F" d="M42.271,1398.566c4.075-7.898,10.915-13.905,17.636-19.514
		c-4.3,7.422-7.713,16.048-6.059,24.793c1.865,10.65,9.698,18.945,17.94,25.349c17.173,13.6,37.944,21.816,59.045,27.055
		c25.626,6.377,52.047,8.56,78.348,9.75c36.171,1.244,72.368,0.847,108.565,0.767c70.172-0.648,140.502,0.251,210.357,7.62
		c12.41,1.217,25.494,1.905,36.528,8.375c9.764,5.57,16.233,15.651,18.813,26.447c-5.371-7.396-11.378-14.659-19.554-19.064
		c-11.669-6.774-25.309-8.401-38.473-9.698c-77.237-9.089-155.135-9.42-232.808-8.811c-30.852-0.304-61.757,0.86-92.57-0.979
		c-31.395-0.688-63.041-3.255-93.483-11.378c-18.813-5.173-37.176-13.217-52.179-25.904c-4.445-3.943-9.036-7.951-12.026-13.164
		C38.514,1413.675,38.739,1405.168,42.271,1398.566z"/>
	<path opacity="0.59" fill="#274251" stroke="#274251" enable-background="new    " d="M320.154,1509.817
		c10.121-1.971,20.44-0.781,30.667-1.125c5.398-0.238,10.782,0.265,16.114,1.151
		C351.337,1510.188,335.739,1510.214,320.154,1509.817z"/>
	<path opacity="0.69" fill="#273E49" stroke="#273E49" enable-background="new    " d="M295.03,1511.286
		c4.591-1.032,9.301-1.68,14.011-1.045C304.384,1510.73,299.713,1511.153,295.03,1511.286z"/>
	<path fill="#1F1A17" stroke="#1F1A17" d="M309.04,1510.24c3.691-0.291,7.409-0.397,11.113-0.423
		c15.585,0.397,31.183,0.37,46.781,0.026c4.842,0.146,9.764-0.185,14.553,0.767c2.328,0.675,4.776,1.111,7.224,0.807
		c7.74-0.45,15.572,0.172,23.139,1.918c1.455,0.701,3.083,1.072,4.723,0.781c9.565-0.37,18.959,2.209,28.365,3.625
		c19.514,3.757,39.055,8.494,57.048,17.133c7.859,3.995,15.823,8.758,20.864,16.193c3.519,5.054,3.625,12.119,0.159,17.252
		c-4.511,6.708-11.404,11.417-18.496,15.069c-23.907,11.669-50.247,17.106-76.363,21.089c-51.346,7.224-103.63,7.62-155.135,1.879
		c-24.74-2.977-49.44-7.369-73.029-15.532c-12.211-4.564-24.793-9.843-33.789-19.633c-4.247-4.63-6.245-11.722-3.307-17.556
		c3.731-7.872,11.51-12.793,18.853-16.934c20.136-10.571,42.6-15.386,64.734-19.792c4.432-0.661,8.891-2.051,13.415-1.297
		c1.349,0.331,2.527,0.013,3.546-0.939c2.037-1.429,4.75-0.463,7.078-0.542c1.614,0.318,3.228-0.106,4.657-0.873
		c2.302-0.992,4.908-0.41,7.343-0.437c2.011,0.265,3.982-0.238,5.874-0.886c2.156-0.648,4.419-0.529,6.641-0.648
		C299.713,1511.153,304.384,1510.73,309.04,1510.24 M295.89,1522.901c-24.978,1.654-49.97,4.564-74.405,10.147
		c-12.979,3.202-26.142,6.774-37.705,13.68c-4.445,2.897-9.42,6.641-10.161,12.291c-0.45,5.596,4.22,9.75,8.388,12.701
		c9.631,6.364,20.798,9.87,31.845,12.912c30.032,7.832,61.07,10.941,91.975,12.687c35.086,1.72,70.291,1.138,105.258-2.223
		c24.965-2.62,50.049-6.165,73.969-14.05c9.168-3.36,18.919-6.932,25.6-14.394c3.294-3.572,3.599-9.38,0.41-13.098
		c-6.297-7.66-15.982-11.245-24.991-14.619c-24.436-8.255-50.155-11.828-75.715-14.5
		C372.319,1520.877,334.005,1520.441,295.89,1522.901z"/>
	<path opacity="0.72" fill="#2B4655" stroke="#2B4655" enable-background="new    " d="M381.488,1510.611
		c1.627-1.68,6.774-1.852,7.224,0.807C386.264,1511.722,383.816,1511.286,381.488,1510.611z"/>
	<path opacity="0.73" fill="#2A4552" stroke="#2A4552" enable-background="new    " d="M282.514,1512.82
		c0.026-2.567,4.67-2.752,5.874-0.886C286.497,1512.582,284.525,1513.085,282.514,1512.82z"/>
	<path opacity="0.77" fill="#2C4654" stroke="#2C4654" enable-background="new    " d="M270.515,1514.13
		c-0.198-2.289,3.85-2.844,4.657-0.873C273.743,1514.024,272.129,1514.448,270.515,1514.13z"/>
	<path opacity="0.75" fill="#2D4653" stroke="#2D4653" enable-background="new    " d="M411.851,1513.336
		c0.767-2.011,4.855-1.521,4.723,0.781C414.933,1514.408,413.306,1514.037,411.851,1513.336z"/>
	<path fill="#75C5F0" stroke="#75C5F0" d="M259.891,1515.612c0.701-2.209,1.892-2.514,3.546-0.939
		C262.418,1515.625,261.241,1515.943,259.891,1515.612z"/>
	<path fill="#DEDEDD" stroke="#DEDEDD" d="M295.89,1522.901c38.116-2.461,76.43-2.024,114.466,1.535
		c25.56,2.672,51.279,6.245,75.715,14.5c9.01,3.374,18.694,6.959,24.991,14.619c3.188,3.718,2.884,9.526-0.41,13.098
		c-6.681,7.462-16.432,11.034-25.6,14.394c-23.92,7.885-49.004,11.431-73.969,14.05c-34.967,3.36-70.172,3.943-105.258,2.223
		c-30.905-1.746-61.943-4.855-91.975-12.687c-11.047-3.043-22.213-6.549-31.845-12.912c-4.167-2.95-8.838-7.104-8.388-12.701
		c0.741-5.649,5.715-9.393,10.161-12.291c11.563-6.906,24.727-10.478,37.705-13.68
		C245.92,1527.466,270.912,1524.555,295.89,1522.901z"/>
	<path fill="#72706F" stroke="#72706F" d="M166.196,1571.191c8.996,9.79,21.578,15.069,33.789,19.633
		c23.589,8.163,48.289,12.555,73.029,15.532c51.504,5.742,103.789,5.345,155.135-1.879c26.116-3.982,52.457-9.42,76.363-21.089
		c2.037,4.776,0.714,10.28-2.977,13.865c-8.123,8.335-19.422,12.436-30.191,16.193c-27.439,8.705-56.161,12.555-84.764,15.109
		c-36.105,2.884-72.434,3.069-108.552,0.529c-29.106-2.421-58.331-5.874-86.445-14.063c-12-3.718-24.37-7.885-34.041-16.207
		c-4.128-3.387-6.615-8.983-4.869-14.249C155.229,1578.481,161.288,1575.133,166.196,1571.191z"/>
</g>
</svg>
