<?xml version="1.0" encoding="UTF-8" standalone="no"?>
<!-- Created with Inkscape (http://www.inkscape.org/) -->

<svg
   xmlns:dc="http://purl.org/dc/elements/1.1/"
   xmlns:cc="http://creativecommons.org/ns#"
   xmlns:rdf="http://www.w3.org/1999/02/22-rdf-syntax-ns#"
   xmlns:svg="http://www.w3.org/2000/svg"
   xmlns="http://www.w3.org/2000/svg"
   xmlns:sodipodi="http://sodipodi.sourceforge.net/DTD/sodipodi-0.dtd"
   xmlns:inkscape="http://www.inkscape.org/namespaces/inkscape"
   width="744.09448"
   height="744.09448"
   id="svg2"
   version="1.1"
   inkscape:version="0.48.5 r10040"
   sodipodi:docname="upratovacka.svg">
  <defs
     id="defs4" />
  <sodipodi:namedview
     id="base"
     pagecolor="#ffffff"
     bordercolor="#666666"
     borderopacity="1.0"
     inkscape:pageopacity="0.0"
     inkscape:pageshadow="2"
     inkscape:zoom="0.37584776"
     inkscape:cx="343.97624"
     inkscape:cy="639.3388"
     inkscape:document-units="px"
     inkscape:current-layer="layer1"
     showgrid="false"
     inkscape:window-width="1366"
     inkscape:window-height="705"
     inkscape:window-x="-8"
     inkscape:window-y="-8"
     inkscape:window-maximized="1"
     units="mm" />
  <metadata
     id="metadata7">
    <rdf:RDF>
      <cc:Work
         rdf:about="">
        <dc:format>image/svg+xml</dc:format>
        <dc:type
           rdf:resource="http://purl.org/dc/dcmitype/StillImage" />
        <dc:title></dc:title>
      </cc:Work>
    </rdf:RDF>
  </metadata>
  <g
     inkscape:label="Vrstva 1"
     inkscape:groupmode="layer"
     id="layer1"
     transform="translate(0,-308.26772)">
    <g
       id="g4030"
       transform="matrix(0.7524942,0,0,0.7524942,89.650277,279.06775)">
      <path
         sodipodi:nodetypes="sccccccccccccccccccccccccccccccsccscccccccccccccccccccccsssccccsccccsscccsccccccccccccccsccccccccccccsccssccccccccccssscccsccsscccccccssccccccc"
         inkscape:connector-curvature="0"
         id="path3973"
         d="m 8.21875,172.0625 c -20.239149,-0.0463 -42.512533,4.49185 -65.90625,15.65625 -0.08175,5.84071 0.72582,11.3821 4.03125,16.09375 18.041556,-9.87402 35.920857,-19.24442 50.625,-17.4375 -12.17232,4.29493 -22.855383,10.60448 -30.5,21.125 -47.716856,24.30528 -55.763235,57.90749 -62.0625,91.90625 3.742879,3.84935 7.507121,4.59559 11.25,5.5 l -0.59375,12.28125 c 2.607452,1.98943 7.038532,2.21518 11.15625,1.6875 -3.645744,13.35732 -3.035274,27.55023 -1.6875,41.90625 -4.485103,7.86429 -6.04697,17.82262 -7.03125,28.1875 4.329117,1.9578 8.467201,4.41483 14.75,1 0.646652,-8.59472 2.714378,-14.71097 5.375,-19.78125 -1.616057,8.60839 -2.40172,17.20411 -1,25.8125 3.341226,3.12691 7.54954,3.94563 12.40625,3.03125 0.816754,-23.41339 3.714867,-34.70946 7.03125,-43.625 -0.811569,10.69372 -0.851861,21.67858 2.34375,33.875 -6.11024,8.48614 -9.67157,17.3486 -8.71875,26.84375 2.905204,2.40745 6.492876,3.14422 10.40625,3.03125 0.209536,-5.35589 2.139042,-8.54432 4.34375,-11.40625 -0.150008,6.1538 0.111038,12.2837 1.46875,18.4375 5.808618,4.12265 11.353051,4.45862 16.65625,1 -4.424343,-15.5604 -4.067777,-26.33796 -1.4375,-34.84375 4.070775,-6.17031 8.619976,-15.53994 13.1875,-25.1875 -5.749339,26.89692 -5.16939,48.54534 -2.375,68.40625 3.6667865,1.60608 6.8582977,1.27551 10.03125,0.90625 -0.3109673,-16.34969 0.8722117,-32.19239 3.59375,-47.53125 0.4332393,5.04049 0.9392274,10.08451 3.84375,15.125 -0.396035,15.99519 1.103025,30.7817 4.75,44.25 7.190469,2.14175 12.638101,0.84898 16.6875,-2.34375 -5.353844,-24.49249 -10.479648,-65.99479 -2,-83.5 2.368927,13.93043 7.737416,19.0571 11.03125,27.40625 1.87888,4.76255 0.921681,32.412 -2.96875,50.0625 5.316206,0.35532 10.447369,-1.39761 15.40625,-5.6875 2.579108,-20.34711 5.649067,-40.75893 -3.6875,-61.0625 -14.338242,-31.18035 1.96147,-59.40548 22.53125,-60.625 -0.802635,5.85857 0.938357,10.3045 6.65625,10.3125 -4.379651,6.52454 -6.887408,20.17408 3.625,28.1875 0.761569,4.27955 4.295954,9.3908 11.46875,9.375 l 0.4375,-0.0625 16.9375,120.78125 c -18.228388,4.24813 -14.80239,15.48019 -3.25,18.4375 -7.520963,0.76768 -19.672136,15.31089 5.09375,17.5625 -9.93882,7.98218 -6.00715,16.32551 5.59375,17.0625 l 41.1875,293.75 c 1.26732,8.08613 15.78015,3.83626 14.09375,-5.25 L 131.65625,532.125 c 2.61523,-0.85441 5.36243,-1.96922 8.25,-3.40625 l 9.625,-1.25 c 24.15395,22.78968 51.12546,43.25161 88.46875,55.25 -21.92932,13.86551 -14.11475,38.66306 -4.65625,52.8125 -21.82804,17.6426 -44.09663,43.81969 -66.84375,79.84375 l 7.375,6.21875 -7.9375,29.46875 c 8.13059,4.65103 16.56343,9.25403 25.375,13.75 2.73269,16.16482 4.60408,32.15878 10.875,49.03125 -20.68624,7.42573 -28.30347,13.37774 -27.125,19.625 1.84769,9.79497 39.51953,11.08153 66,-4.9375 6.73699,-4.07546 -8.29971,-9.34189 0.84375,-14.25 11.5922,-6.22257 20.65205,-11.66731 29.1875,-16.4375 58.14785,18.86212 131.29271,32.13991 229.125,34.25 0.76906,3.07206 1.09718,6.18685 5.9375,8.75 l 23.90625,13.09375 c 4.50346,2.46824 8.8247,1.59626 12.84375,0.46875 18.29178,-5.13162 34.06015,-14.07614 49.4375,-23.4375 5.73811,-0.24852 11.52494,-0.52838 17.40625,-0.84375 19.30944,12.53983 30.55062,22.99839 36.65625,32.09375 l -4.4375,4.21875 c -2.80373,2.65616 -2.83327,5.98681 0.25,8.6875 22.87498,20.03659 58.81557,22.99646 64.4375,15.46875 8.45446,-11.32045 -16.16546,-20.7042 -23.65625,-31.1875 6.67262,-14.36926 12.58236,-31.33205 18.0625,-49.875 11.19015,-4.04007 22.18169,-8.59051 32.9375,-13.71875 -4.19746,-10.02895 -5.31948,-31.73847 -5.65625,-56.09375 -0.31026,-22.43813 -2.98139,-44.05055 -17.5625,-61.71875 13.90172,0.39431 27.2809,2.37032 40.21875,5.65625 13.78008,-10.45758 22.4712,-28.11713 21.1875,-54 -6.73026,-4.3039 -10.20158,-9.26598 -12.125,-14.53125 35.02829,-11.40122 53.27165,-0.42577 71.34375,10.78125 l 14.75,-26.0625 c -42.16284,-11.06895 -67.71336,-4.59376 -92.90625,2.25 5.58989,-15.57501 29.11396,-25.93738 64.5625,-32.84375 l -16.40625,-23.21875 c -25.24675,9.26257 -44.14713,23.19859 -54.9375,43.0625 -6.83428,-1.98104 -15.93707,10.17698 -26.625,32.28125 1.18257,-23.02209 -6.36138,-46.16596 -28.6875,-65.15625 L 699.46875,553.75 694,538.875 c 7.72194,-3.79024 17.65103,-10.98285 17.90625,-14.375 0.29229,-3.88483 -11.5575,-7.48011 -31.125,-7.90625 l 2.25,-14.71875 21.53125,6.78125 c 8.54581,-2.21668 15.05674,-8.48448 21.1875,-15.53125 -2.91447,5.47878 -4.49852,10.95872 -10.8125,16.4375 l 43.40625,5.875 c 5.40292,-6.94894 10.02151,-13.89481 13.59375,-20.84375 -0.91476,5.61483 -1.8296,11.25735 -3.9375,17.46875 10.2862,-1.2226 19.28414,-4.11414 24.125,-17.4375 l 30.46875,-17.90625 c -4.30593,-17.78215 -8.85033,-35.34285 -13.15625,-53.125 l 27.875,-2.375 C 818.67355,414.16396 793.16611,384.73769 765.15625,349.5 c -14.35038,-18.05344 -29.59115,-31.17794 -46.4375,-33.96875 -5.98071,-14.44055 -8.40863,-11.26942 -23.375,-10.3125 -2.97462,-5.68703 -5.02972,-12.59794 -7,-18.6875 -4.12717,-12.75592 -15.09473,-17.39251 -28.75,-17.1875 -26.06915,0.39138 -61.9289,18.44048 -78.75,31.375 L 604.625,319.5 l -6.34375,5.1875 24.15625,19.28125 c 7.92905,-7.1861 15.4147,-12.51933 23.34375,-16.65625 l -18.59375,25.125 c 12.01002,7.98063 24.02123,12.04582 36.03125,15.1875 -23.57528,12.53937 -45.72161,22.45851 -67.5625,30.0625 18.69964,-33.35495 -11.7914,-40.65271 -38.625,-33.8125 6.12131,-18.15691 3.29261,-32.67601 -17.78125,-33.09375 -23.49216,-0.2608 -52.64781,17.95276 -69.40625,45.28125 -5.29616,8.63659 -5.25861,18.56886 -0.96875,26 4.28986,7.43114 13.13327,12.17696 23.09375,10.71875 1.3429,-0.1966 3.24278,-0.19936 5.25,-0.3125 -0.0359,1.52767 0.0343,3.0313 0.28125,4.5 -35.51479,1.98973 -74.13298,-0.48451 -119.8125,-6.5 -9.39154,-0.88227 -22.45972,0.0285 -16.15625,17.96875 4.40509,12.5373 18.89659,20.3038 39.75,24.84375 L 369.71875,477.5 c -67.74124,13.98681 -139.53523,23.79914 -202.75,24.125 -6.02806,0.0311 -7.69615,-2.57819 -9.40625,-12.90625 C 154.76327,471.81284 146.481,476.77556 139.09375,480 c -5.62596,-0.43945 -10.55133,-0.56053 -14.90625,-0.4375 l -17.21875,-120.9375 1.375,-0.1875 c 3.76848,-2.69198 6.00335,-6.34317 6.03125,-11.0625 8.50926,-5.80053 9.66758,-25.94766 0.34375,-35.21875 3.10249,-5.56895 1.55849,-9.20906 -1.03125,-12.40625 7.88215,-8.25741 14.91256,-55.98726 -17.9375,-91.65625 C 78.095591,188.92437 46.857125,172.1509 8.21875,172.0625 z M 741.875,616.125 c 0.67445,-0.078 1.32932,1.75172 1.875,6.03125 l -4.625,4.625 c 0.74882,-6.38158 1.76426,-10.54229 2.75,-10.65625 z m 6.3125,28.96875 c -8.57567,16.1322 -3.04547,21.32065 -32.4375,23.375 10.05006,-13.10883 21.30305,-17.85684 32.4375,-23.375 z"
         style="fill:#000000;fill-rule:evenodd;stroke:none" />
      <path
         d="m 552.75,652.9375 c -2.14154,1.33645 -4.33426,2.58329 -6.5625,3.78125 l 7.03125,14.46875 c 2.339,-1.47776 4.50445,-2.96916 6.4375,-4.46875 L 552.75,652.9375 z m -10,5.5625 c -1.58862,0.78797 -3.18485,1.53207 -4.8125,2.25 l 6.125,15.46875 c 2.03602,-0.97672 3.99032,-1.9912 5.8125,-3.03125 L 542.75,658.5 z m -8.40625,3.75 c -1.77111,0.71302 -3.56273,1.40078 -5.375,2.03125 l 4.9375,16.125 c 2.30126,-0.80054 4.49664,-1.6605 6.59375,-2.5625 L 534.34375,662.25 z m -9.125,3.25 c -2.20045,0.68563 -4.43364,1.34238 -6.6875,1.90625 l 3.375,16.375 c 2.88142,-0.63526 5.64657,-1.35065 8.28125,-2.15625 L 525.21875,665.5 z M 514.75,668.28125 c -1.87978,0.40774 -3.77516,0.77104 -5.6875,1.09375 l 2.0625,16.25 c 2.39897,-0.29334 4.71181,-0.64657 6.96875,-1.0625 L 514.75,668.28125 z m -9.53125,1.6875 c -2.57772,0.35392 -5.18359,0.61422 -7.8125,0.8125 l 1.9375,15.75 c 2.70775,-0.0744 5.35117,-0.23944 7.90625,-0.46875 l -2.03125,-16.09375 z m 43.92758,-22.16821 c 0.90665,2.46955 -9.90293,8.30793 -24.14391,13.04038 -14.24096,4.73245 -26.52053,6.56689 -27.42719,4.09733 -0.90666,-2.46955 9.90293,-8.30792 24.14389,-13.04037 14.24098,-4.73245 26.52055,-6.56689 27.42721,-4.09734 z"
         style="fill:#00ffff;stroke:none"
         id="path3849"
         inkscape:connector-curvature="0" />
      <path
         sodipodi:nodetypes="csssssscccsscsssscsscccsscsscccsscc"
         inkscape:connector-curvature="0"
         d="m 512.89721,694.06858 c -4.83792,5.61757 -7.67625,12.49144 -11.55448,18.82556 -4.95897,8.09923 -6.46492,17.85724 -3.58496,28.12814 8.72577,31.11902 18.21758,61.84586 28.12814,92.38164 1.06009,3.26627 4.24509,7.66126 2.5921,-0.111 -4.38083,-20.59844 -10.99305,-45.87346 -24.65338,-89.51298 -2.73548,-8.73882 -1.22313,-17.91642 2.20613,-25.37048 3.97189,-8.63357 8.96888,-17.17149 14.74444,-25.57278 -2.626,0.62785 -5.25199,1.13943 -7.87799,1.2319 z m -10.93588,-3.78912 c -5.3577,10.22767 -11.0162,19.15051 -17.05887,27.72571 -6.09083,8.64355 -9.05712,19.31212 -3.69624,36.71437 l 22.47012,72.94146 c 0.18147,4.80937 2.62264,7.25575 5.53111,8.98805 l 16.25635,9.68234 c 11.61866,6.92012 15.3469,5.60783 27.99773,-0.35093 24.02851,-11.31785 49.07172,-27.45298 70.49703,-43.15185 4.82346,-3.53427 5.40539,-8.11616 4.78235,-13.23242 l 6.99059,-5.49265 c 4.89397,-3.84529 7.59797,-8.01732 4.49402,-13.48207 -7.57396,-13.33456 -15.21256,-26.04229 -22.12442,-39.06344 l -3.80264,1.72847 15.90193,40.10052 -7.20182,4.18083 c -3.52507,2.04638 -7.85739,4.81329 -9.82671,-0.78255 -10.32405,-29.33583 -19.84866,-54.63118 -33.09712,-87.40195 -0.84704,-3.49737 -0.60012,-5.90077 -0.34569,-8.29666 0.21751,-2.04825 2.65257,-3.09781 3.11125,-0.34569 l 0.69138,4.14833 c 6.35916,-1.11121 10.13743,2.07905 13.13638,6.56819 l 3.28906,-2.29235 -8.12878,-15.33805 c -3.35924,-6.3385 -10.32347,-5.21108 -16.59332,-3.45695 -5.76892,1.61399 -11.39562,2.78669 -17.09344,2.01041 -15.57486,10.77707 -33.48283,17.99309 -56.18025,17.89888 z"
         style="fill:#0000ff;fill-rule:evenodd;stroke:none"
         id="path3878" />
      <path
         d="m 624.84245,733.8436 18.92911,34.218 c 5.09501,9.21022 0.48957,16.52474 -9.64657,23.84339 0.87908,3.93324 -0.73459,7.03556 -2.73015,10.01058 13.46814,-4.00278 27.20493,-8.61003 42.59048,-16.92699 -2.86626,-23.73283 -3.80605,-47.19044 -3.27619,-70.43811 -10.52613,6.73832 -20.69081,13.49996 -45.86668,19.29313 z m -15.84432,1.42532 -3.54872,1.84949 c 3.89567,11.32215 7.96445,22.60367 11.41615,33.96646 0.69305,2.28147 2.29603,3.04875 4.00846,2.29956 l 3.15441,-1.38006 c -4.77738,-12.16946 -9.61267,-24.24587 -15.0303,-36.73545 z m -371.1429,-94.54844 c -26.45953,21.53828 -48.7839,45.48874 -62.46703,74.47992 56.70275,43.77377 182.51129,80.43215 315.53858,89.29581 l -17.6189,-52.85671 c -4.45056,-13.35169 -0.98356,-25.0464 4.80515,-33.6361 l 12.41332,-18.41976 c -78.9781,-3.18482 -173.66708,-9.06713 -252.67112,-58.86316 z m 474.36964,30.68421 -1.7305,4.20265 c 13.31684,-0.3127 35.42544,2.37403 40.54318,0.24721 3.66758,-1.52416 12.41392,-21.99729 14.58565,-34.61002 l -12.36072,1.23607 c -10.64249,32.77152 -14.51724,27.6214 -41.03761,28.92409 z m 2.96658,-9.64136 c 24.41913,-22.75066 38.39744,-26.26822 50.43175,-26.20474 l -10.13579,-17.30501 c -12.92534,9.9556 -25.97572,20.91161 -39.55432,36.09331 z m 16.06894,-26.94638 c 7.67686,-30.8376 12.50637,-32.38813 15.57451,-15.82173 l 3.95543,-2.96657 c -2.42203,-7.59907 -7.2139,-18.544 -10.87744,-17.0578 -6.87862,2.79048 -14.88799,24.8175 -16.81058,42.76811 z m 21.75487,-26.94638 0.24722,4.69708 c 32.53608,-11.88347 55.29183,-5.23579 75.40041,6.42757 l 8.89972,-15.82172 c -19.27644,-5.19896 -46.58647,-10.44475 -84.54735,4.69707 z m -5.93315,-14.09122 3.21379,4.20265 c 10.23374,-18.36932 32.21023,-25.55507 56.11769,-30.90181 l -8.89972,-13.34958 c -16.6249,7.22184 -33.17191,11.87352 -50.43176,40.04874 z M 711.52412,408.39337 c 30.35298,-8.80382 48.13876,-6.05939 51.17827,10.23566 20.27634,0.89623 40.55268,1.06049 60.82902,-0.61606 -14.96084,-8.48227 -31.46484,-24.72622 -54.10274,-55.53381 -19.1976,-26.12575 -35.54856,-35.06575 -50.30092,-40.94262 3.13444,7.64631 4.29316,15.59658 2.63202,23.98068 -1.53411,-12.10481 -3.75491,-24.08086 -11.11299,-35.09367 -4.02721,-0.45698 -8.69743,-0.27095 -13.45257,0 0.46342,2.65601 1.43272,4.80615 2.63202,6.72629 l 3.50937,-2.92448 c 10.28496,26.35237 11.98351,58.42901 8.18852,94.16801 z"
         style="fill:#ff0000;stroke:none"
         id="path3909"
         inkscape:connector-curvature="0" />
      <path
         d="m 618.08128,830.3595 c 12.50584,9.43125 25.51186,18.55841 32.5306,32.03395 0.98842,1.8977 1.20914,4.06855 -0.74498,5.46315 6.2316,6.08428 14.74581,8.17399 23.59089,9.68468 1.25853,-4.00614 3.54547,-7.49807 7.44976,-10.18133 -1.80564,-2.49867 -3.60689,-5.00171 -6.70478,-6.20813 9.91874,-15.56528 15.16564,-32.29851 19.86601,-49.16838 -22.32596,7.89276 -49.05468,14.25527 -75.9875,18.37606 z m -420.8267,-62.2136 c 2.38531,18.92166 4.46445,37.9964 16.75604,51.96492 -2.54522,0.11003 -5.09044,-0.60866 -7.63566,-2.75732 l -6.57516,4.02993 c 0.50249,2.96791 1.37242,5.86232 4.66624,8.27196 13.00495,-1.88666 21.11092,-5.40632 27.36112,-9.54457 1.76129,-2.44655 2.37989,-4.65873 10.18088,-9.12038 8.58151,-4.90806 15.1387,-9.95288 20.99807,-15.27132 -19.87857,-6.81269 -39.2963,-13.08776 -65.75153,-27.57322 z M 133.20869,518.41482 c 3.58757,8.76362 -19.27923,15.53385 -22.33357,9.39222 -4.1764,-8.39784 19.51882,-16.26797 22.33357,-9.39222 z m 1.61701,-13.86427 c 1.85005,7.25502 -30.32957,12.56911 -31.94291,5.03894 -1.94222,-9.06524 29.67761,-13.92236 31.94291,-5.03894 z m -5.45692,-20.23978 c -12.47781,-0.7341 -24.58051,1.08957 -26.2198,6.12239 -1.81069,5.55905 7.19026,5.73238 14.24121,5.45692 3.2451,-6.35231 7.71938,-8.60735 11.97859,-11.57931 z m 144.06219,15.21283 c -22.73745,19.71648 -43.58559,40.81361 -49.30722,72.96473 -25.45589,-12.77667 -50.0264,-26.99207 -70.22544,-48.31112 l -15.68866,1.99222 c 2.27837,-7.21474 -0.15231,-10.0568 -1.99222,-13.44743 4.45375,-3.53505 4.88527,-8.07567 1.99222,-13.44742 3.69086,-2.27758 10.8791,-1.49215 10.4591,-3.23735 -0.77653,-3.2267 -22.83187,3.51687 -24.40458,0.74708 -1.86756,-3.28907 20.63849,-15.48603 24.15556,-13.1984 3.51707,2.28763 2.25708,17.18282 8.71592,23.15946 38.76511,1.92398 77.53021,-1.9008 116.29532,-7.22177 z m 347.98631,211.6018 2.93975,16.28168 c 42.51099,-2.49793 85.76404,-47.90687 87.28787,-81.86065 -15.95907,-6.58182 -47.58601,-3.42935 -67.16191,8.59311 0.24594,22.61115 -6.43309,41.60837 -23.06571,56.98586 z m -19.53887,14.55727 c 0.33003,2.54225 0.53781,5.08451 3.3367,7.62676 l 11.12236,-5.2434 c 7.75296,-3.65496 0.39284,-15.17884 -4.13116,-11.28124 z m -5.56118,-12.07571 c 0.44829,2.91376 0.82757,5.85513 3.33671,7.94455 l 13.98239,-10.32791 c 5.46087,-4.0336 1.43495,-13.04719 -4.76673,-7.94454 z m -6.03785,-12.23459 c -0.0423,3.71798 1.47537,6.39602 3.97227,8.42122 l 13.18794,-10.16901 c 4.06717,-3.13613 -0.55305,-8.98611 -4.13117,-6.67342 z M 469.8724,549.1291 c -1.91251,3.82503 1.09378,4.79851 3.05579,1.82 l 6.43917,-9.77524 c 50.3431,30.72339 115.95699,1.93395 176.04177,-95.97612 2.27571,1.46265 3.74848,3.10503 4.87579,4.87579 1.41429,2.22153 4.74098,1.25718 2.87698,-2.04824 -10.93851,-19.39727 -31.97139,-25.89095 -51.37828,-25.30658 -4.04529,0.12181 -4.96466,3.82486 0.25662,4.00234 3.84951,0.13085 7.69862,0.54691 11.54793,2.05297 -40.44803,44.54917 -105.5454,72.04221 -158.84818,63.64192 -2.45488,-0.38688 -2.55351,2.09225 -0.25662,2.82282 6.98507,2.22174 14.48651,3.03329 22.75047,3.78564 l 6.24766,42.91932 c -5.60649,-2.20378 -11.03709,-4.7007 -16.1671,-7.69862 z M 714.76559,427.2098 c 7.18944,3.69056 15.05789,4.15581 23.67393,1.07 l 2.80877,1.87252 c 1.90503,1.27002 3.68465,-0.50802 2.13016,-2.34558 -11.58347,-13.69278 -24.43019,-10.45007 -36.11279,0.085 -1.77326,1.59908 -0.25675,3.97209 2.14988,2.52811 z m 6.01879,-2.66844 c 4.68164,-3.28622 8.55273,-1.98855 12.17135,0.39467 -3.9336,1.06711 -7.88774,1.68834 -12.17135,-0.39467 z m -310.41127,30.33157 c -33.75503,22.89295 -66.7217,46.85551 -88.62654,89.13968 4.21815,10.89661 7.67193,21.79322 11.09866,32.68983 19.72078,0.3837 38.77061,-1.96761 57.70872,-4.66333 12.08331,-1.71998 21.87346,-0.9502 41.38706,1.74875 90.17239,12.47187 166.97768,-4.56753 237.24695,-34.39206 7.41262,-34.24788 15.13533,-69.02886 28.08898,-96.94413 -0.36855,-1.74014 -0.17466,-3.10532 0.32697,-4.26534 37.99618,10.7365 61.74994,-6.16435 58.9961,-20.9084 -2.50239,-13.39785 -45.30169,-13.62106 -61.76373,9.61501 -2.66448,-2.95522 -0.96605,-6.98205 1.26993,-10.45943 -18.05245,-12.50203 -15.11376,-35.69492 -8.84784,-46.66637 l -16.32166,-2.33166 c -23.15065,14.49555 -47.7447,26.28472 -74.61329,33.80914 -5.99743,7.7205 -12.95514,16.00219 -24.00134,24.64065 1.62795,1.58953 2.60395,3.02245 3.35208,4.48181 1.07178,2.09069 -1.3379,3.25933 -3.18512,2.33166 -20.87666,-10.48415 -43.80164,-9.0192 -66.27047,8.79048 -2.51494,1.99344 -4.07338,-0.15908 -1.99593,-2.35503 2.28015,-2.41021 4.57068,-4.94618 8.54329,-7.41928 -6.63749,-1.23263 -11.10078,-4.31333 -13.78954,-8.90238 -43.58356,-0.97575 -86.01325,-3.527 -126.55215,-6.995 -7.24313,-0.61963 -8.51624,2.76631 -5.53698,8.7423 17.71819,35.5403 84.11093,28.74597 105.97626,12.29487 1.49557,-1.12524 1.44864,-2.84276 -1.02002,-3.12716 -4.68682,-0.53993 -10.38053,-1.11088 -15.39392,-1.58835 -2.37254,-0.22596 -2.65935,-2.55964 0.93501,-2.55831 9.6445,0.004 14.37268,0.22959 22.00013,1.27019 6.35622,0.86716 6.09671,4.52682 3.38137,6.20028 -22.88879,14.10633 -47.18681,19.77851 -72.39298,17.82158 z"
         style="fill:#ffccaa;fill-rule:evenodd;stroke:none"
         id="path3921"
         inkscape:connector-curvature="0" />
      <path
         d="m 103.59375,361 c -1.62048,1.3434 -3.609119,1.71101 -6.09375,0.75 L 114.28125,480 c 1.94825,-0.32741 3.8955,-0.52612 5.84375,-0.5625 L 103.59375,361 z M 127.75,534.0625 c -1.72938,0.40565 -3.60452,0.66671 -5.6875,0.71875 l 41.375,291.53125 c 0.99986,1.61147 4.15199,1.04839 5,-0.71875 L 127.75,534.0625 z m 575.15611,-90.23596 c -9.08502,16.25829 -14.31928,34.92331 -18.72023,54.10915 l 22.31062,6.81942 c 12.31368,-5.34002 14.88528,-20.03831 25.13106,-24.25744 -2.04047,8.93824 -4.58769,17.62311 -8.97545,25.38771 l 31.5423,4.87238 c 7.66557,-7.42594 13.83317,-17.34849 19.74599,-27.69568 0.35321,7.60777 0.31354,15.21553 -0.51288,22.8233 6.6096,-2.25872 14.69435,-10.56559 27.1828,-36.92758 -0.61985,6.27745 -1.41509,12.51105 -4.35951,18.20735 6.49424,-3.32232 12.93653,-6.38492 20.00244,-12.56563 -5.82328,-16.83966 -8.58175,-33.67932 -11.53987,-50.51898 l -41.03064,-0.25644 c -10.51121,22.92429 -33.43076,25.60185 -60.77663,20.00244 z m -69.37106,-90.21625 c 22.18904,8.0677 45.78209,12.81402 70.92708,13.22369 -3.30446,2.10962 -6.85888,3.21942 -10.81939,2.70484 -11.65386,17.47564 -5.0595,32.79241 3.30592,39.67108 3.59128,2.95302 9.17917,2.92296 9.61724,-0.60108 3.15509,-25.38127 1.81247,-51.40507 -2.40431,-77.83946 -7.814,-7.61819 -14.8073,-21.11667 -23.442,-44.17915 -2.43694,-6.50883 -8.73591,-9.23517 -16.22908,-9.91777 -25.42478,-2.31609 -50.09916,8.50947 -74.53353,24.04308 6.01077,6.80673 12.02153,12.49477 18.0323,16.52961 10.71367,-7.42213 20.43622,-11.30457 28.85169,-10.51884 -11.94702,3.46193 -23.10562,8.72598 -32.75869,17.43123 5.50987,7.23301 11.01975,11.3278 16.52962,14.42584 10.77751,-10.75841 22.75157,-14.09824 35.163,-14.72638 -9.39793,8.63359 -18.33324,17.56652 -22.23985,29.75331 z M 233.10664,823.00481 c -9.78324,5.30765 -20.48139,9.24294 -34.15094,8.72112 -3.73294,-2.27737 -5.00563,-5.27835 -5.05336,-8.63961 -6.67371,1.72212 -17.16076,6.74887 -12.95942,10.75876 6.14113,5.8613 40.67977,2.23204 54.6089,-7.49853 0.52401,-1.63789 -0.25788,-3.14176 -2.44518,-3.34174 z m 413.24589,46.37773 c -2.05737,0.59096 -2.30939,2.21355 -2.15411,4.06888 21.53839,14.81414 46.0186,20.90945 56.48554,13.52302 3.61646,-2.5521 -7.69747,-10.79669 -15.67713,-16.03615 -4.48469,2.27453 -6.83566,6.4694 -8.13775,11.60826 -14.99011,-1.77829 -23.05636,-7.30701 -30.51655,-13.16401 z"
         style="fill:#803300;stroke:none"
         id="path3931"
         inkscape:connector-curvature="0" />
      <path
         d="m -35.91984,390.16937 c -0.211293,0.84517 0.422586,8.66302 0.422586,8.66302 -3.620919,4.06644 -6.238807,9.38667 -7.606554,16.26957 l -4.437157,-0.84517 c -0.173066,-11.73868 5.095653,-18.48906 11.621125,-24.08742 z M -67.402523,348.9672 c -5.082413,11.65065 -10.252268,23.25758 -12.043711,36.55372 l 6.761381,3.1694 c 1.281737,-9.42728 4.525208,-17.38326 8.029141,-25.14389 z M 62.422012,307.57352 c -20.602375,13.49428 -31.944987,32.65497 -19.667209,66.26994 8.208157,21.57668 5.886242,39.82808 5.130576,58.57408 l -5.985672,2.13774 c 2.684816,-17.42281 6.016024,-35.03954 -0.855096,-49.59557 -5.13514,-9.73555 -8.690821,-20.52408 -12.398893,-31.21101 2.339054,-8.20713 3.758174,-17.33419 5.130576,-26.50797 -18.080714,33.5193 -15.142471,75.61777 -9.406056,118.85835 l -6.413221,-0.42755 c -10.1364089,-36.6276 0.399821,-67.57334 0.855096,-94.48811 -3.975772,9.02254 -7.499582,19.40096 -9.4060564,34.63139 -2.7218119,-17.10963 -6.9360047,-33.25359 1.7101924,-57.71899 -6.8214915,5.9182 -11.70816751,16.84416 -6.8407687,53.01596 -7.49983,17.95538 -6.6996807,33.64712 -6.8407685,49.59557 l -3.4203842,0 c -2.838119,-37.38806 2.7872176,-70.03858 8.1966334,-103.51936 -4.2925851,0.14068 -7.5101837,3.01682 -8.3770362,23.41628 l -12.6460378,35.21054 c -0.770099,-16.27047 0.487433,-34.41261 17.5294689,-67.12505 -9.9610219,6.11287 -31.3050849,46.92951 -23.9426899,105.17682 l -5.558124,-1.28264 c -0.811579,-21.91791 -0.372932,-44.08586 2.284182,-66.6975 -4.456286,4.33639 -5.68353,14.96077 -7.902308,31.23101 -4.557908,-17.78616 -9.72846,-33.52144 6.473222,-77.83374 -12.677619,14.87908 -23.747939,34.83385 -25.225334,85.08206 l -5.558124,-1.7102 c 3.835616,-44.86124 12.412746,-75.1364 26.70073,-93.9378 22.059088,-29.0273 65.136213,-37.33719 94.598258,-27.8023 -24.508755,-16.77465 -60.76339457,-5.50243 -85.882485,11.50845 -18.639176,12.62262 -30.176334,44.23933 -34.561407,76.88291 -0.583643,-14.01459 -3.819177,-24.56132 5.985672,-52.16086 -6.382394,3.58946 -12.096107,8.66488 -11.005941,28.86003 l -8.23372,21.59064 c 1.728394,-57.96187 16.507297,-102.48367 74.3933571,-102.61153 l -1.94914374,-4.7366 C -19.630384,248.1773 -36.162934,254.66596 -50.450667,265.67381 -38.171647,227.14305 9.4155282,215.82669 58.57408,245.1515 l 2.13774,-3.42038 C 33.207868,221.7307 -41.031378,202.44963 -59.001628,274.22477 l -6.840768,11.5438 c -0.252162,-15.78234 13.161038,-58.59439 50.450667,-64.9873 l -3.847932,-5.13058 c -46.131011,10.38942 -56.283934,69.76549 -52.588408,97.9085 l -8.123412,0 c 1.271358,-24.94877 6.086864,-47.23942 14.109085,-67.12504 -7.825885,10.32988 -14.77136,25.50201 -19.239662,54.2986 l -6.41322,-3.00962 c 6.23009,-39.12641 25.794743,-70.08244 53.03741,-81.53826 21.567323,-9.06928 65.399141,-13.59221 90.19118,13.5749 1.782033,-16.23906 -36.965207,-28.74333 -77.813742,-24.79778 11.519042,-9.30845 26.17421127,-17.44086 57.718984,-19.23966 -24.975401,-3.23078 -49.393494,-8.03215 -83.371866,14.10908 l -2.13774,-8.55096 c 35.066492,-24.07201 99.936427,-18.88806 135.879207,13.88813 21.632065,19.72627 37.959275,41.70486 29.581885,93.42643 2.28013,-48.86347 -20.407718,-80.70332 -55.1537,-104.32172 32.334128,29.32406 52.6214,63.23739 49.59557,106.03191 -4.78657,-56.06608 -51.125468,-105.37713 -92.350373,-106.03191 39.632217,8.64372 88.954483,63.4365 85.509606,107.31455 C 83.807726,246.21576 32.495378,234.83502 -3.8479323,239.59338 53.727375,244.04548 89.682639,265.20671 91.495278,308.00106 70.828693,250.39248 -24.430471,277.03829 -28.645718,331.08866 -16.356808,286.79436 62.661943,254.14015 84.65451,308.85616 65.530674,274.37837 13.235279,287.10167 6.0631856,306.79593 34.297658,283.50126 69.933441,291.38437 78.668837,310.1388 61.046729,294.1256 25.89066,293.09268 9.7393067,320.68285 28.738165,301.94981 48.383233,298.90946 62.422012,307.57352 z m 14.832389,11.83534 32.939949,-10.30654 c 4.17577,-1.30655 1.48528,-6.67158 -1.81677,-5.30817 l -32.174259,13.2846 c -0.875129,0.36134 -0.38011,2.77791 1.05108,2.33011 z m 32.058099,-5.06511 -2.5,0.75 c 4.06921,9.55204 4.93438,18.01449 4.0625,27.15625 l 3.15625,-0.9375 c 4.37419,-9.23297 2.01027,-21.20843 -4.71875,-26.96875 z M 103.90625,316 l -4.125,1.25 c 2.31566,10.04308 3.17892,17.97838 4.1875,27.09375 l 3.75,-1.15625 c 1.06152,-9.3682 0.37251,-17.53074 -3.8125,-27.1875 z M 96.875,318.15625 92.5,319.5 c -0.912248,10.01788 0.802296,18.8945 3.625,27.1875 l 4.9375,-1.5 c -1.03073,-9.26439 -1.90274,-17.08219 -4.1875,-27.03125 z m -7.4375,2.28125 -2.75,0.84375 c -1.759094,9.05693 -0.783883,20.64311 2.65625,27.4375 l 3.90625,-1.1875 c -2.779731,-8.21059 -4.527442,-17.11969 -3.8125,-27.09375 z m -6.03125,1.84375 -3.1875,0.96875 c -4.575473,8.72064 -3.697269,22.18452 4.03125,27 l 2.1875,-0.65625 c -3.632248,-7.35093 -4.557994,-18.12428 -3.03125,-27.3125 z m 4.358954,30.41182 c 4.39388,7.93871 21.392616,3.22899 23.123766,-5.60576 -9.46166,3.26422 -15.705868,4.6189 -23.123766,5.60576 z"
         style="fill:#ffe680;stroke:none"
         id="path3962"
         inkscape:connector-curvature="0" />
      <path
         d="m 502.38539,382.34973 c -0.17514,1.89646 -1.85451,3.29188 -3.75098,3.11673 -1.89647,-0.17514 -3.29188,-1.85452 -3.11674,-3.75098 0.17515,-1.89647 1.85452,-3.29188 3.75099,-3.11673 1.89647,0.17514 3.29187,1.85451 3.11673,3.75098 z m 0.76525,-6.33192 c 3.16618,1.96233 2.20474,7.84437 -2.14742,13.13793 -4.35216,5.29356 -10.44695,7.99402 -13.61311,6.03171 -3.16618,-1.96234 -2.20473,-7.84438 2.14743,-13.13794 4.35216,-5.29354 10.44695,-7.99402 13.6131,-6.0317 z M 539.1875,336.3125 c -20.33491,-0.22575 -48.85073,16.8994 -64.62972,42.63067 -8.65657,14.11652 0.70879,30.69557 16.59847,28.36933 2.40481,-0.35206 4.72898,-0.21908 6.9375,-0.4375 7.46668,-18.34153 27.03018,-30.90997 52.375,-40.71875 5.83923,-14.38633 5.22552,-23.08034 0.65625,-26.40625 -3.15283,-2.2949 -7.24483,-3.3854 -11.9375,-3.4375 z m -6.01412,62.03729 c -0.17514,1.89646 -1.85451,3.29188 -3.75098,3.11673 -1.89647,-0.17514 -3.29188,-1.85452 -3.11674,-3.75098 0.17515,-1.89647 1.85452,-3.29188 3.75099,-3.11673 1.89647,0.17514 3.29187,1.85451 3.11673,3.75098 z m 0.76525,-6.33192 c 3.16618,1.96233 2.20474,7.84437 -2.14742,13.13793 -4.35216,5.29356 -10.44695,7.99402 -13.61311,6.03171 -3.16618,-1.96234 -2.20473,-7.84438 2.14743,-13.13794 4.35216,-5.29354 10.44695,-7.99402 13.6131,-6.0317 z m -14.88843,35.39274 c 15.40725,-8.58144 32.21866,-7.33377 49.39098,-3.55971 26.04994,-27.53517 31.47258,-44.66832 25.4555,-50.94253 -14.39553,-15.01069 -61.05172,-1.0601 -85.74809,26.69201 -11.00837,12.37046 -4.99214,27.95048 10.90161,27.81023 z M 629,429.90625 c -4.07844,4.67823 -8.8688,9.61473 -14.3125,14.59375 l 19,23.40625 c 5.99579,-8.38972 11.83958,-17.32018 17.5,-26.75 -6.76993,-4.62627 -13.57096,-9.20898 -22.1875,-11.25 z m -18.1875,18.0625 c -7.89223,6.86933 -16.97128,13.73378 -27.03125,20.125 l 22.25,33.4375 c 8.36711,-8.70351 16.55464,-18.51393 24.5,-29.28125 z M 579.375,470.8125 c -6.68935,4.03671 -13.78544,7.82487 -21.21875,11.25 l 17.5,45.5625 c 8.98919,-6.13393 17.895,-13.62569 26.625,-22.3125 z m -25.96875,13.40625 c -8.63775,3.71702 -17.70257,6.87998 -27.125,9.34375 l 13.125,51.0625 c 10.61766,-2.65141 21.25387,-7.43394 31.8125,-14.09375 z m -32.1875,10.59375 c -9.5781,2.20527 -19.51187,3.66603 -29.6875,4.125 l 7.40625,44.90625 c 11.57566,3.60014 23.44377,4.11855 35.375,1.90625 z m 83.02777,330.87228 23.44939,-18.3517 c 19.87294,-4.25613 37.88829,-10.36987 52.33631,-20.05092 -2.67993,-25.48846 -5.96071,-50.97693 -3.39846,-76.46539 11.01689,-7.43858 20.58855,-16.80412 28.88692,-27.86739 12.78131,13.73993 16.74989,36.35109 16.31262,64.57077 -0.24946,16.09907 0.68838,31.14822 5.43754,44.51985 -24.39031,18.50086 -87.20152,33.67266 -123.02432,33.64478 z M 178.0469,723.9173 l -6.38052,26.12975 c 119.71072,69.07924 266.6253,76.43437 326.32519,76.28381 l -4.86849,-15.82079 C 411.44187,807.00822 249.87596,774.81304 178.0469,723.9173 z m 410.24185,-25.80258 5.06616,-3.22392 c -2.02592,-2.91843 -3.91157,-6.03106 -8.52036,-5.37321 0.82767,3.02757 1.81492,5.97536 3.4542,8.59713 z M 328.73804,521.60478 c -5.68269,5.97301 -8.63839,11.07552 -11.23891,18.5442 -6.04306,-3.6051 -12.50844,-5.57091 -20.79198,-8.42918 9.07423,-5.37509 19.96274,-8.48233 32.03089,-10.11502 z m 33.89913,-36.6662 c -24.73519,4.45808 -50.78144,9.48819 -75.51663,12.58611 -26.13106,22.48357 -54.89337,42.25254 -56.89969,78.13874 l 12.58611,5.24421 c 22.12346,-14.87546 43.16319,-23.46671 65.02821,-26.22106 -48.05742,19.98924 -103.84258,41.63166 -65.02821,78.66316 35.12347,33.51014 136.32202,58.19848 250.14885,61.88169 l 2.09768,-5.24421 -2.56648,-24.59216 c -0.92501,-8.54454 55.24757,-28.04778 61.30164,-18.87916 l 11.3116,20.48975 c 13.8891,-4.47993 19.75173,-5.44231 24.83513,-3.6616 4.65667,1.63122 8.8001,10.75399 14.72212,22.97222 7.07483,0.23631 8.32582,4.35519 8.91516,8.91516 4.54455,-1.01276 7.63872,1.74548 9.43958,7.86632 12.37311,-12.79669 16.97312,-34.80554 15.20821,-62.93053 -0.4061,-6.47146 2.21466,-9.71207 5.03842,-1.70598 0.94042,2.66634 1.3775,5.33269 1.77905,7.99903 21.44445,-9.65593 43.971,-14.08167 68.69916,-7.86631 0.54326,-33.50301 -4.81601,-62.81713 -29.892,-78.13874 -61.19834,25.33113 -122.52277,50.53618 -186.16948,73.41895 l -56.63748,-49.29559 c 9.48411,2.21253 21.68489,7.55335 58.21074,40.90485 44.88227,-13.9084 112.29588,-40.20903 190.36485,-72.37011 l -1.60145,-7.65768 c -10.48251,5.64894 -21.50044,10.22707 -32.63825,14.56541 14.74443,-8.7257 30.19086,-18.22767 48.49494,-33.74907 -8.80794,-3.33214 -16.95163,-3.01092 -25.11583,-2.80255 l -2.24993,9.71589 c 5.4738,-3.53004 10.57538,-4.4545 15.73263,-5.76863 -26.96166,36.14274 -188.20553,75.18849 -278.99201,48.24674 l -91.77369,6.29305 -8.91516,4.19537 -0.52442,-6.29305 13.63495,-3.14653 c -2.81788,-11.78008 -4.99536,-19.42403 -9.20328,-29.81407 -9.2461,-4.89556 -18.76637,-9.79112 -29.51053,-14.68668 12.80075,-10.02189 30.37848,-14.49738 45.53128,-16.3321 9.01803,-11.69144 19.03859,-22.04618 30.15421,-30.94084 z"
         style="fill:#ffffff;stroke:none"
         id="path3822"
         inkscape:connector-curvature="0" />
      <path
         sodipodi:nodetypes="sssss"
         inkscape:connector-curvature="0"
         id="path4018"
         d="m 591.85123,351.44904 c 14.49771,4.7209 21.2153,12.4007 18.92504,26.98586 -1.18919,7.5731 7.3542,4.6618 8.06372,-0.73431 2.05825,-15.65339 -10.80723,-30.44407 -26.49503,-30.10666 -2.3913,0.0515 -3.43512,2.89729 -0.49373,3.85511 z"
         style="fill:#000000;stroke:none" />
      <path
         style="fill:#000000;stroke:none"
         d="m 548.18109,319.2191 c 13.59221,2.63866 20.65576,9.12123 20.64544,23.38659 -0.005,7.40705 7.21085,3.50962 7.09172,-1.75028 -0.34556,-15.25826 -13.88512,-27.75253 -27.83401,-25.3924 -2.12624,0.35979 -2.66082,3.22073 0.0969,3.75609 z"
         id="path4020"
         inkscape:connector-curvature="0"
         sodipodi:nodetypes="sssss" />
    </g>
  </g>
</svg>
