<?xml version="1.0" encoding="UTF-8" standalone="no"?>
<svg
   xmlns:dc="http://purl.org/dc/elements/1.1/"
   xmlns:cc="http://creativecommons.org/ns#"
   xmlns:rdf="http://www.w3.org/1999/02/22-rdf-syntax-ns#"
   xmlns:svg="http://www.w3.org/2000/svg"
   xmlns="http://www.w3.org/2000/svg"
   version="1.1"
   id="svg5113"
   viewBox="0 0 217.36766 170.21969"
   height="48.03978mm"
   width="61.345985mm">
  <title
     id="title5839">Comic-Golfer</title>
  <defs
     id="defs5115" />
  <metadata
     id="metadata5118">
    <rdf:RDF>
      <cc:Work
         rdf:about="">
        <dc:format>image/svg+xml</dc:format>
        <dc:type
           rdf:resource="http://purl.org/dc/dcmitype/StillImage" />
        <dc:title>Comic-Golfer</dc:title>
        <cc:license
           rdf:resource="http://artlibre.org/licence/lal" />
        <dc:creator>
          <cc:Agent>
            <dc:title>Marek Srejma &lt;sam_web@yahoo.de&gt;</dc:title>
          </cc:Agent>
        </dc:creator>
        <dc:rights>
          <cc:Agent>
            <dc:title>Marek Srejma &lt;sam_web@yahoo.de&gt;</dc:title>
          </cc:Agent>
        </dc:rights>
        <dc:date>15.10.2015</dc:date>
      </cc:Work>
      <cc:License
         rdf:about="http://artlibre.org/licence/lal">
        <cc:permits
           rdf:resource="http://creativecommons.org/ns#Reproduction" />
        <cc:permits
           rdf:resource="http://creativecommons.org/ns#Distribution" />
        <cc:permits
           rdf:resource="http://creativecommons.org/ns#DerivativeWorks" />
        <cc:requires
           rdf:resource="http://creativecommons.org/ns#ShareAlike" />
        <cc:requires
           rdf:resource="http://creativecommons.org/ns#Notice" />
        <cc:requires
           rdf:resource="http://creativecommons.org/ns#Attribution" />
      </cc:License>
    </rdf:RDF>
  </metadata>
  <g
     style="display:inline;opacity:1"
     transform="translate(-7.7668178,-58.005176)"
     id="layer1">
    <path
       id="path4188"
       style="fill:#4c4c4c;fill-opacity:1;stroke:none;stroke-width:0.014175"
       d="m 55.555039,171.38849 c 2.824228,-1.21018 29.452842,-6.55584 33.285948,-7.38351 3.833106,-0.82768 8.270941,-1.39233 12.104773,-1.57376 1.19343,6.14856 -0.34098,12.12153 -3.994851,17.30909 -8.596904,-1.42993 -16.975392,-2.65352 -25.055333,-2.84442 -10.682985,6.05456 -18.72193,8.91648 -23.724057,13.13282 0.908404,-5.00322 0.908404,-10.00644 -1.089386,-15.00893 2.824447,-1.21091 5.648677,-2.4211 8.472906,-3.63129 z" />
    <path
       id="path4116"
       style="fill:#f1eed9;fill-opacity:1;stroke:none;stroke-width:0.014175"
       d="m 80.996634,133.00316 c 0.25623,5.05604 0.06511,9.18896 0.64797,14.30157 1.456283,4.67591 3.68658,10.62263 5.291851,14.93925 2.170058,5.83533 -1.27503,7.69681 -6.259307,6.90993 -6.366555,-1.00473 -8.251779,-2.64405 -11.43207,1.7916 -1.675973,2.33805 -3.661815,-4.29212 -11.815598,-1.08778 6.974125,-6.65129 3.746914,-9.25599 4.917902,-13.75649 1.880182,-6.56178 2.216694,-13.49589 3.663635,-20.11779 0.244807,-0.46994 -5.02362,1.361 -4.876955,0.90636 1.627887,-5.0513 -1.047055,-10.97254 5.555928,-13.03686 3.321563,-1.03853 6.818791,3.69854 9.197487,1.08793 2.612283,-2.86699 11.438386,0.73012 5.109157,8.06228 z" />
    <path
       style="fill:#fbcc9a;fill-opacity:1;fill-rule:evenodd;stroke:none;stroke-width:1px;stroke-linecap:butt;stroke-linejoin:miter;stroke-opacity:1"
       d="m 102.2261,164.32947 13.38137,9.46989 -1.02934,2.88215 -12.76377,-6.38189 0.41174,-5.97015 z"
       id="path5146" />
    <path
       style="fill:#fbcc9a;fill-opacity:1;fill-rule:evenodd;stroke:none;stroke-width:1px;stroke-linecap:butt;stroke-linejoin:miter;stroke-opacity:1"
       d="m 47.259535,178.94604 -12.969639,3.49975 2.264541,2.88214 10.910965,-1.44106 -0.205867,-4.94083 z"
       id="path5144" />
    <path
       id="path4128"
       style="fill:#fbcc9a;fill-opacity:1;stroke:none;stroke-width:0.014175"
       d="m 68.040501,158.74493 c -0.07576,3.37525 2.200214,2.62463 4.151354,4.09467 0.349869,4.81816 8.33433,0.61434 7.940717,-1.05576 1.280436,-0.43276 -0.511878,1.73401 1.247664,-0.21497 1.759542,-1.94897 0.633873,-6.91679 -4.151645,-9.11494 l -1.405157,0.31585 c 3.604766,-5.51949 -7.677851,-8.28923 -5.822304,-0.77728 -2.295277,-0.99293 -7.665761,5.07243 -1.960629,6.75243 z" />
    <path
       style="fill:#fbcc9a;fill-opacity:1;stroke:none;stroke-width:0.014175"
       d="m 54.938653,138.05774 c 1.069877,-0.47358 5.318817,-0.3974 7.1383,-0.18245 0.909741,-1.78493 3.069134,-2.31761 3.699748,-1.51729 l -1.093858,3.04083 8.919475,-5.42304 c 1.068564,-0.12235 1.49933,2.30746 1.855466,2.65287 l -9.09155,4.81463 c 2.969028,4.03652 2.670923,7.27744 0.260296,10.81902 -3.799828,5.58253 -6.619814,1.41492 -6.897843,-1.02367 -1.241587,-0.34826 -5.170285,-0.49034 -3.640321,-5.82288 -5.788712,0.0663 -5.530136,-5.41924 -1.149713,-7.35802 z"
       id="path4148" />
    <path
       id="path4040"
       style="fill:#fbcc9a;fill-opacity:1;stroke:none;stroke-width:0.014175"
       d="m 92.806695,88.438288 c -9.2284,2.642646 -7.426069,-13.163643 -0.466384,-17.554373 2.240586,1.171143 3.012926,1.845688 2.592341,0.924932 -1.454926,-3.185183 -0.421437,-6.235007 -1.401302,-6.705978 -1.959729,-0.94194 -5.858926,-0.59382 -10.445735,1.959329 -1.92585,1.071983 -8.291638,6.296888 -10.462993,10.19924 -2.171354,3.902351 -0.663022,11.131441 -1.209117,11.332986 -2.184382,0.806184 -6.347467,2.012873 -6.714749,7.183158 -0.293912,4.136053 4.587196,5.016848 8.588606,-0.312273 -2.174608,1.876238 -2.071934,4.039557 -2.342341,3.123096 0.964799,11.023845 0.82287,19.621045 -0.936965,24.672575 l 3.591579,2.1862 c -2.758728,-2.34234 -0.936892,-5.51753 5.465146,-9.5255 -3.513838,-3.04419 -4.295032,-8.82161 0.936966,-20.61258 3.591942,13.37733 9.507355,12.49763 13.741914,10.30633 3.342766,-1.72975 2.394143,-3.27931 1.092884,-5.777787 -1.301261,-2.498476 -13.096386,-6.089107 -2.185767,-1.561584 10.910622,4.527521 16.055182,-4.139988 13.741182,-10.306253 -1.88194,-5.016773 -7.963473,-3.514349 -13.585265,0.468482 z" />
    <path
       style="fill:#ffffff;fill-opacity:1;stroke:none;stroke-width:1;stroke-miterlimit:4;stroke-dasharray:none"
       d="m 92.806695,71.261149 c -1.93586,-0.881738 -6.039272,6.060767 -6.40211,12.804804 -0.188704,3.503347 4.520894,7.246545 5.933628,4.372335 6.401112,-0.87888 7.481668,-15.907901 0.468482,-17.177139 z"
       id="path4068" />
    <path
       style="fill:#d95300;fill-opacity:1;fill-rule:evenodd;stroke:none;stroke-width:1px;stroke-linecap:butt;stroke-linejoin:miter;stroke-opacity:1"
       d="m 93.609055,65.303141 c -9.607626,-1.455702 -13.374161,10.416557 -17.564028,17.225087 -2.329126,3.784824 -4.075968,5.531665 -6.696231,6.696226 0,0 -1.626673,-10.885228 2e-6,-14.265875 2.737169,-5.688538 12.678702,-10.69553 20.379821,-13.392453 10.518671,-3.683621 5.554492,-0.33895 3.880436,3.737015 z"
       id="path5141" />
    <path
       style="fill:#b5b5b5;fill-opacity:1;stroke:none;stroke-width:0.014175"
       d="m 31.709928,180.58765 c 7.247783,5.38719 4.87608,29.46706 0.605165,36.67499 C 8.0275462,258.25523 2.072352,158.55659 31.709928,180.58765 Z"
       id="path4216" />
    <path
       style="fill:#b5b5b5;fill-opacity:1;stroke:none;stroke-width:0.014175"
       d="m 141.49391,152.02188 c -18.17683,8.81738 -33.33293,21.80593 -22.99717,38.36967 9.61591,15.41112 47.39106,-50.20342 22.99717,-38.36967 z"
       id="path4204" />
    <path
       style="fill:#000000;stroke:#000000;stroke-width:0.15739487"
       d="m 70.008275,123.26098 0.894416,-24.668859 0.0851,-0.0074 c 1.09944,8.702989 1.07343,16.147859 -0.979515,24.676289 z"
       id="path4038" />
    <path
       style="fill:#000000;stroke:#000000;stroke-width:0.15739487"
       d="m 71.41365,88.594424 c -2.553412,1.396341 -5.030032,2.53753 -5.646563,5.644525 -0.358175,1.805079 -0.190017,4.37605 2.194,4.301953 2.235747,-0.06965 3.737661,-1.72661 5.31797,-3.082005 l 0.01698,0.01275 c -1.700818,2.087917 -4.171171,5.388063 -7.390587,4.129496 -3.142914,-1.228838 -2.30846,-5.096333 -0.880937,-7.332737 1.463444,-2.292505 3.982832,-2.870859 6.389142,-3.673983 z"
       id="path4042" />
    <path
       style="fill:#000000;stroke:#000000;stroke-width:0.15739487"
       d="m 71.41365,80.474374 c -1.090771,0.818351 -1.351678,1.657977 -2.146495,2.707291 l -3.471144,3.853506 -0.0079,-0.0046 c 0.95263,-2.531117 1.376888,-4.869305 3.987568,-6.13297 0.511396,-0.247501 1.079841,-0.316863 1.63794,-0.423237 z"
       id="path4046" />
    <path
       style="fill:none;stroke:#000000;stroke-width:0.01032775"
       d="m 71.413505,80.474374 c -1.873931,0.357082 -3.747788,3.274934 -5.621647,6.558466"
       id="path4048" />
    <path
       style="fill:#000000;stroke:#000000;stroke-width:0.15739487"
       d="m 74.224473,73.135007 c -0.752924,-0.445897 -1.278746,-0.507899 -2.158299,-0.53595 l -4.086655,-0.706878 -0.0025,-0.01282 c 1.693532,-0.644437 2.718219,-1.413827 4.474191,-0.688225 0.847058,0.35016 1.4037,1.161079 1.77324,1.943875 z"
       id="path4050" />
    <path
       style="fill:none;stroke:#000000;stroke-width:0.01032775"
       d="M 74.224255,73.135007 C 73.029369,71.464425 70.009513,71.466465 67.978062,71.885769"
       id="path4052" />
    <path
       style="fill:#000000;stroke:#000000;stroke-width:0.15739487"
       d="m 77.503779,70.948876 0.31373,-1.499218 c 0.01654,-0.497771 -0.244951,-0.985416 -0.184478,-1.479909 l 0.802686,-3.422655 0.0099,-0.0012 c 0.721886,1.991613 1.637722,3.358956 0.271253,5.230554 l -1.2131,1.172446 z"
       id="path4054" />
    <path
       style="fill:none;stroke:#000000;stroke-width:0.01032775"
       d="m 77.503561,70.948876 c 1.357215,-1.611347 1.251569,-3.954489 0.936892,-6.402402"
       id="path4056" />
    <path
       style="fill:#000000;stroke:#000000;stroke-width:0.15739487"
       d="m 82.500806,69.387292 c 2.603977,-4.976518 5.527075,-8.047585 10.123014,-11.276028 l 0.05464,0.06568 c -2.919451,4.440931 -5.988269,7.940365 -10.177654,11.210346 z"
       id="path4058" />
    <path
       style="fill:none;stroke:#000000;stroke-width:0.01032775"
       d="m 82.500806,69.387292 c 1.924932,-3.253004 5.725251,-7.573318 10.149972,-11.243184"
       id="path4060" />
    <path
       style="fill:#000000;stroke:#000000;stroke-width:0.15739487"
       d="m 90.152446,65.639576 c 2.33877,-1.651616 4.508509,-3.657458 7.20793,-4.613826 l 10.592954,-1.636746 0.001,0.0087 -10.020285,3.360653 -7.782059,2.881241 z"
       id="path4062" />
    <path
       style="fill:none;stroke:#000000;stroke-width:0.01032775"
       d="m 90.152446,65.639576 c 3.825092,-3.071061 10.227204,-4.840614 17.801614,-6.246229"
       id="path4064" />
    <path
       style="fill:#000000;stroke:#000000;stroke-width:0.15739487"
       d="m 92.806695,71.261149 c -0.669572,-0.137339 -1.267744,0.215881 -1.69834,0.750884 -2.86044,3.552526 -3.342037,7.708981 -3.966438,12.093555 -0.260106,1.827374 1.814916,3.81511 3.368995,4.336416 0.284878,0.09544 0.792705,0.106957 0.949351,-0.234023 1.534408,-3.331327 2.071379,-5.080815 2.316184,-8.787656 0.181419,-2.745105 -0.511469,-5.444017 -0.979223,-8.155023 l 0.0095,-0.0042 z m 0,0 0.0095,-0.0041 c 0.739517,2.701535 1.712911,5.368753 1.789413,8.168574 0.07577,2.759603 0.192348,8.181253 -2.152979,10.336272 -1.718013,1.578051 -4.163886,0.08692 -5.334728,-1.406686 -2.262268,-2.886378 -1.455721,-6.0341 -0.30455,-9.397995 0.636787,-1.861473 2.633119,-7.172011 5.390828,-7.772878 0.225864,-0.0494 0.39271,0.01238 0.602543,0.07679 z"
       id="path4066" />
    <path
       style="fill:#000000;stroke:#000000;stroke-width:0.15739487"
       d="m 94.524708,71.729632 c 4.586467,2.547876 3.073189,8.265913 2.502703,12.492822 l -0.0087,-8.01e-4 -1.039696,-9.43355 C 95.793954,73.50972 95.385944,72.641388 94.524751,71.729632 Z"
       id="path4070" />
    <path
       style="fill:none;stroke:#000000;stroke-width:0.01032775"
       d="m 94.524708,71.729632 c 2.433487,1.457031 2.979201,6.037815 2.498332,12.492458"
       id="path4072" />
    <path
       style="fill:#000000;stroke:#000000;stroke-width:0.15739487"
       d="m 92.806695,88.438288 c 3.12419,-2.153564 7.728875,-5.65487 11.778365,-3.656642 2.87793,1.420092 3.81417,5.32992 3.10161,8.225841 -0.91438,3.717188 -4.06917,6.51679 -7.90665,6.826878 -2.59232,0.209395 -4.7657,-0.649464 -7.131428,-1.553351 l 0.0044,-0.0099 c 3.911066,1.032191 8.305918,1.773316 11.342678,-1.6206 1.95699,-2.186569 2.40215,-5.622666 1.59998,-8.381978 -0.58069,-1.99903 -2.47065,-3.198505 -4.54494,-2.955813 -3.116906,0.364513 -5.524892,1.652002 -8.243986,3.125574 z"
       id="path4074" />
    <path
       id="path4100"
       style="fill:#ffffff;fill-opacity:1;stroke:none;stroke-width:0.014175"
       d="m 92.778281,106.31684 c -5.04652,1.79974 -8.955297,-1.02626 -12.04576,-7.459731 -0.67613,0.294132 -1.927117,1.353141 -2.604342,2.073641 0.277374,2.22474 1.714349,4.14266 3.01488,5.51335 l -0.617604,2.39909 c 1.487051,0.75125 3.771322,1.42836 5.172399,2.26572 l 1.327489,-4.37976 c -0.620029,1.89943 -0.760647,4.55433 -0.53187,6.88218 2.177752,-1.17303 4.54858,-2.28508 6.469141,-2.68668 -0.582872,-1.42125 -0.622943,-3.44243 -0.184333,-4.60781 z" />
    <path
       style="fill:#000000;stroke:#000000;stroke-width:0.15739487"
       d="m 94.837273,99.837643 c 0.673217,1.227167 2.090322,3.268527 0.793433,4.599947 -3.364623,3.45366 -9.014102,3.92848 -12.162334,0.004 l -0.939152,-1.22614 -1.779941,-3.245137 -0.749719,-2.040997 -1.991379,5.377494 -1.064177,5.59265 0.09931,2.1618 c 0.166264,2.15538 1.45623,3.00499 2.422193,4.69561 0.109289,0.19001 -0.0204,0.4193 -0.17049,0.53172 -1.926972,1.44049 -7.290405,3.78531 -6.821704,7.23125 0.11111,0.81776 0.606259,1.33645 1.1323,1.92034 l -0.01151,0.0136 c -0.95722,-0.93216 -1.832984,-2.21572 -1.114595,-3.6122 l 0.277593,-0.61311 2.185548,-2.6627 3.474057,-2.68725 -0.929679,-0.94273 -1.000135,-1.64785 -0.6542,-2.00799 c -0.900171,-6.0239 1.348618,-10.74705 3.338468,-16.339913 0.310379,-0.873505 1.446978,-0.569465 1.709269,0.133259 1.463007,3.921411 2.755523,11.495964 8.515019,11.434834 2.136951,-0.0227 4.393391,-0.85303 5.990458,-2.27727 1.291059,-1.15154 -0.01093,-3.23997 -0.548628,-4.393395 z"
       id="path4078" />
    <path
       style="fill:#000000;stroke:#000000;stroke-width:0.15739487"
       d="m 92.026377,79.316792 c -2.032035,-0.09333 -2.077935,3.948515 -1.185414,5.076516 0.02769,0.03432 0.05173,0.06055 0.07286,0.07934 l 0.0663,-0.05851 0.185061,-0.236718 c 0.44954,-0.854051 2.335857,-3.973651 0.859007,-4.852766 l 0.0022,-0.0079 z m -1.130769,5.17218 c -0.02405,0.0028 -0.05173,0.008 -0.08306,0.01836 l -0.05392,0.02295 -0.02987,0.02499 0.0066,0.03118 0.09326,-0.03862 0.06703,-0.05887 z m 1.130769,-5.17218 0.0022,-0.0079 c 1.861545,0.505933 0.791976,4.460568 0.550814,5.511338 -0.274678,1.197218 -1.981034,2.390646 -2.9537,1.145997 -1.495064,-1.913784 -0.468482,-5.302305 1.418564,-6.569685 0.304549,-0.204297 0.656458,-0.187394 0.982137,-0.07978 z"
       id="path4082" />
    <path
       style="fill:none;stroke:#000000;stroke-width:0.01032775"
       d="m 92.025649,79.316792 c -1.323847,-0.374057 -2.201068,2.107735 -2.312541,3.08929 -0.306008,2.705615 1.211643,4.175908 2.159537,2.092799 0.73806,-1.623515 1.369747,-4.838341 0.153004,-5.182089 z"
       id="path4084" />
    <path
       style="fill:#000000;stroke:#000000;stroke-width:0.15739487"
       d="m 94.961133,79.409323 c -0.0015,-0.02973 -0.0036,-0.0886 0.04371,-0.0714 0.828406,0.306081 1.218201,2.851478 1.242974,3.461017 0.02987,0.76152 -0.700903,4.502095 -2.389773,3.185681 -0.207647,-0.161091 -0.414567,-0.501124 -0.377409,-0.77602 l 1.476121,-5.799422 0.0044,1.46e-4 z m 0,0 0.0044,2.19e-4 0.206919,2.596399 c 0.245535,-0.988549 0.338067,-2.156623 -0.183603,-2.644924 l -7.3e-4,-0.001 -0.0015,-6.56e-4 -0.0015,-1.45e-4 7.28e-4,-6.56e-4 -0.0015,6.56e-4 -7.29e-4,0 0,-4.38e-4 -0.0058,0.0054 -0.0058,0.01027 -0.0058,0.01508 -0.0051,0.01982 z m 0.45464,5.653412 0.01311,0.169179 c 0,-0.05843 -0.0051,-0.114388 -0.01311,-0.169179 z"
       id="path4086" />
    <path
       style="fill:none;stroke:#000000;stroke-width:0.01032775"
       d="m 94.960404,79.409323 c 0.02987,-0.479412 0.875764,1.904021 0.689974,3.310708 -0.152275,1.154011 -1.245158,2.921496 -1.188329,2.405946 0.198177,-1.805079 0.382509,-3.823561 0.498355,-5.716654 z"
       id="path4088" />
    <path
       style="fill:#000000;stroke:#000000;stroke-width:0.15739487"
       d="m 88.746999,69.543501 c -0.294351,0.33894 -0.448083,1.185341 -0.673945,1.401004 -0.460468,0.439994 -1.111827,0.62236 -1.661911,0.944396 l -0.01311,-0.0062 c 0.05537,-1.291205 -0.219305,-2.40325 1.380676,-2.491482 0.328594,-0.018 0.646986,0.08262 0.968295,0.152275 z"
       id="path4090" />
    <path
       style="fill:none;stroke:#000000;stroke-width:0.01032775"
       d="m 88.746999,69.543501 c -1.068841,0.156501 -1.785043,1.075907 -2.342414,2.342268"
       id="path4092" />
    <path
       style="fill:#000000;stroke:#000000;stroke-width:0.15739487"
       d="m 93.900308,68.606535 c 0.329322,-0.156136 1.579581,-0.736166 1.903074,-0.248084 0.368666,0.557297 0.157375,1.293464 0.136974,1.961653 l -0.0204,0.0083 c -1.041882,-0.443128 -1.15117,-0.313585 -1.520566,-1.127856 -0.10783,-0.237739 -0.318392,-0.405896 -0.499082,-0.594019 z"
       id="path4094" />
    <path
       style="fill:none;stroke:#000000;stroke-width:0.01032775"
       d="m 93.899579,68.606535 c 1.012739,-0.0035 1.614553,0.696896 2.030577,1.717722"
       id="path4096" />
    <path
       style="fill:#000000;stroke:#000000;stroke-width:0.15739487"
       d="m 92.778281,106.31684 c -0.117303,1.70861 0.144989,2.79967 0.663745,4.41139 0.06557,0.20451 0.0408,0.48604 -0.167577,0.61019 l -6.779519,3.0471 c -0.337337,0.0702 -0.799262,-0.36232 -0.772304,-0.69857 l 1.294702,-6.9605 0.01676,0.005 0.195261,5.78624 5.157681,-1.92472 -0.138432,-0.75124 -0.0073,-1.30892 0.185061,-1.21929 0.351909,-0.99707 z"
       id="path4098" />
    <path
       style="fill:#000000;stroke:#000000;stroke-width:0.15739487"
       d="m 83.455257,103.81858 c -0.807276,1.55408 -1.333317,2.93906 -1.601438,4.6159 l 3.848407,2.66846 -0.008,0.012 -5.360957,-1.3296 c -1.154814,-0.3345 -0.08743,-2.25105 0.09617,-2.57534 0.79489,-1.40108 1.85353,-2.34235 3.025829,-3.39144 z"
       id="path4102" />
    <path
       style="fill:#000000;stroke:#000000;stroke-width:0.15739487"
       d="m 80.733249,98.857109 -1.081225,1.149061 -0.706003,1.03241 0.448811,1.13681 0.236062,1.34163 0.483054,1.29922 0.674674,1.26206 -0.01166,0.0112 c -1.547523,-1.24494 -4.146546,-2.96281 -3.356027,-5.38945 0.332965,-1.022061 2.467148,-1.46446 3.312311,-1.842889 z"
       id="path4106" />
    <path
       style="fill:#000000;stroke:#000000;stroke-width:0.15739487"
       d="m 78.442347,129.99569 c -4.098093,3.82385 -8.298555,6.85259 -13.220756,9.5338 4.098022,-3.82363 8.298555,-6.85311 13.220756,-9.5338 z"
       id="path4110" />
    <path
       style="fill:none;stroke:#000000;stroke-width:0.01032775"
       d="m 78.442129,129.99569 -13.220756,9.5338"
       id="path4112" />
    <path
       style="fill:#000000;stroke:#000000;stroke-width:0.15739487"
       d="m 72.808971,134.18456 c 2.074439,-1.26993 2.752535,2.44223 3.379632,3.69978 0.159051,0.31839 0.625858,1.39743 1.258928,1.29179 l 0.157594,-0.043 0.183241,-0.0925 0.210708,-0.153 0,0 0.220762,-0.22513 0.194023,-0.27832 0.169762,-0.33005 c 0.80611,-1.86956 0.602105,-4.05679 2.005368,-5.64584 1.126399,-1.27503 2.86554,-2.96572 2.036406,-4.86829 -0.833507,-1.91291 -3.271365,-2.81869 -5.218081,-2.37352 -0.820464,0.18754 -1.316196,1.06622 -2.119246,1.35561 -2.391302,0.86192 -4.678707,-1.42548 -6.86717,-1.98875 -2.505471,-0.6448 -5.2089,1.59794 -5.751699,3.95704 l -0.189214,0.82658 -0.408156,3.715 -0.736166,3.75588 0.189433,-0.0146 c 1.295285,-0.18798 2.735195,-0.86921 4.067858,-0.88815 -0.642616,0.0772 -1.735644,0.56903 -1.959175,0.63533 -0.176611,0.0525 -2.489808,1.06811 -2.672829,0.44516 -0.0082,-0.0284 -0.01013,-0.059 -0.0066,-0.0882 0.479629,-3.88483 -0.485168,-9.94371 3.330088,-12.5938 1.296378,-0.90061 2.841788,-1.51262 4.431861,-1.23358 1.847045,0.3243 3.424658,1.44924 5.277897,1.73222 0.827896,0.12641 1.324866,-0.82585 1.950068,-1.17594 3.017087,-1.68901 8.981316,1.16582 8.272399,5.04096 -0.380324,2.07721 -1.488507,3.12856 -2.939856,4.56607 -1.658997,1.6437 -0.931137,5.2269 -3.208924,6.32342 -1.196198,0.57632 -1.818704,-0.51584 -2.235311,-1.49798 -0.533765,-1.25754 -0.921446,-4.95513 -3.023571,-3.85423 z m -11.499319,2.73585 -0.0047,0.0248 0.0047,-0.0226 0,-0.002 z m 4.283302,-1.03532 c 0.106811,-0.001 0.21231,7.3e-4 0.317665,0.008 -0.08153,-0.0233 -0.190599,-0.024 -0.317665,-0.008 z m 0.317665,0.008 c 0.01158,0.001 0.02295,0.001 0.03454,0.003 0.06193,0.004 0.09792,0.035 0.07351,0.0911 l -0.01486,-0.007 c 0.0042,-0.0117 0.0118,-0.0306 -4.38e-4,-0.0408 -0.02455,-0.0204 -0.05574,-0.035 -0.09275,-0.0459 z"
       id="path4114" />
    <path
       style="fill:#000000;stroke:#000000;stroke-width:0.15739487"
       d="m 68.031759,129.09989 c -0.277009,3.23916 -0.981992,5.98594 -2.299354,8.95785 0.276937,-3.23931 0.98192,-5.98609 2.299354,-8.95785 z"
       id="path4118" />
    <path
       style="fill:#000000;stroke:#000000;stroke-width:0.15739487"
       d="m 81.061114,133.19514 1.150442,15.21585 5.377714,13.47817 c 1.152629,2.56973 1.976662,5.48772 -0.858277,7.32814 -3.833107,2.48813 -8.945542,0.20036 -12.954966,-0.37158 -2.332432,-0.33224 -2.996905,2.39487 -4.730946,3.15552 -0.912121,0.40072 -1.720126,-0.23971 -2.464816,-0.68487 -2.087626,-1.24881 -3.757188,-2.05463 -6.300691,-1.78505 -1.012156,0.10711 -1.950943,0.70892 -2.968636,0.69216 -0.172894,-0.003 -0.34557,-0.2601 -0.262948,-0.41165 0.540541,-0.99161 1.596266,-1.5876 2.3097,-2.46263 1.706355,-2.09324 2.500954,-4.00433 2.636909,-6.66951 l 0.345497,-4.57991 0.01494,0.004 c -0.252457,2.47793 0.335806,5.33327 -0.423456,7.72377 l -0.740902,1.82803 -1.357507,2.07939 -1.209166,1.35809 1.515684,-0.46265 2.390864,-0.13479 1.96413,0.38833 c 1.192481,0.31767 2.700951,1.9213 3.922285,1.90017 0.116137,-0.002 0.204078,-0.17633 0.261491,-0.24482 1.093102,-1.29542 1.99269,-2.64113 3.690958,-3.1526 4.263265,-1.28304 9.297159,2.59743 13.407128,0.27032 1.546066,-0.87504 1.508908,-2.6426 0.923123,-4.1311 l -5.23054,-14.95138 -0.40801,-15.37905 z"
       id="path4122" />
    <path
       style="fill:#000000;stroke:#000000;stroke-width:0.15739487"
       d="m 69.564638,151.0463 c -0.149581,-1.65682 0.23169,-3.20215 1.971124,-3.80178 2.494979,-0.86119 4.915207,0.80727 5.384709,3.32892 0.243494,1.30855 -0.419376,2.24187 -1.09026,3.29249 l -0.01319,-0.009 c 0.298284,-1.07321 0.73245,-2.29578 -0.05414,-3.29541 -0.927857,-1.17885 -3.549247,-2.80069 -5.071706,-1.73914 -0.753362,0.52531 -0.946292,1.38141 -1.126544,2.22365 z"
       id="path4126" />
    <path
       style="fill:#000000;stroke:#000000;stroke-width:0.15739487"
       d="m 77.228809,152.45393 c 2.312469,1.00691 4.565994,1.82657 5.345584,4.5034 0.51147,1.75663 0.0204,3.62765 -1.186871,4.90924 l -0.01457,-0.0131 c 0.67686,-1.56865 0.293622,-2.77228 -0.429139,-4.3096 -0.998166,-2.12165 -2.017463,-3.48484 -3.715002,-5.08992 z"
       id="path4130" />
    <path
       style="fill:#000000;stroke:#000000;stroke-width:0.15739487"
       d="m 77.803666,159.23636 c 1.354374,0.62513 3.285863,1.22184 3.260363,3.05643 -0.04954,3.46881 -5.273453,4.30451 -7.697761,2.99086 -0.874379,-0.47431 -1.179075,-1.13223 -1.254849,-2.0794 l 0.01566,-0.001 c 0.649683,1.76756 2.397276,1.73695 4.017294,1.20144 1.047274,-0.34535 2.752827,-0.9836 3.500359,-1.84479 1.122756,-1.29251 -1.084286,-2.68193 -1.841071,-3.32309 z"
       id="path4134" />
    <path
       style="fill:#000000;stroke:#000000;stroke-width:0.15739487"
       d="m 76.589909,156.03713 c 1.193721,1.22038 1.117292,2.59232 0.04525,3.94385 -1.566102,1.97521 -4.861655,3.52491 -7.303156,2.31108 -3.341454,-1.66191 -0.740466,-5.82361 1.595026,-7.06512 2.142198,-1.13879 3.925565,-0.70309 5.668932,0.80436 l -0.006,0.006 z m 0,0 -0.006,0.006 c -1.509053,-0.9202 -2.835596,-1.31583 -4.485922,-0.38833 -1.444427,0.81164 -3.734965,3.53001 -1.816227,4.97116 2.500517,1.87903 8.562231,-1.34643 6.308122,-4.58865 z"
       id="path4138" />
    <path
       style="fill:#000000;stroke:#000000;stroke-width:0.15739487"
       d="m 71.863773,153.92568 c -0.813033,-1.36829 -1.926972,-1.7763 -3.284843,-0.68998 -1.049898,0.84079 -2.85891,2.71327 -2.27043,4.21052 0.310015,0.78833 0.986292,1.21164 1.662131,1.65462 l -0.0054,0.0153 c -2.147371,-0.60181 -3.513111,-2.02839 -2.771335,-4.42618 0.620685,-2.00653 3.598574,-3.9708 5.631482,-2.62728 0.677079,0.44735 0.86469,1.11983 1.038386,1.863 z"
       id="path4142" />
    <path
       style="fill:#000000;stroke:#000000;stroke-width:0.15739487"
       d="m 54.938871,138.05774 c 2.664522,-0.88742 4.93517,-1.31 7.608435,-0.0721 6.275992,2.90634 8.966379,12.90404 2.640771,17.31273 -1.804861,1.25754 -4.045563,0.68706 -5.203873,-1.11474 l -0.329105,-0.5581 -0.466368,-1.1621 -0.117085,-0.61201 -0.07271,-0.0197 -0.769827,-0.21421 -0.880792,-0.34827 c -0.806401,-0.41821 -1.604716,-1.07976 -1.88974,-1.98321 l -0.177849,-0.63461 -0.04364,-1.50526 0.299158,-1.32676 -0.510814,-0.0444 -0.927639,-0.21129 -0.789062,-0.32058 c -1.790434,-0.91219 -2.283033,-2.95297 -1.349856,-4.67535 0.676495,-1.24808 1.760052,-1.89142 2.976868,-2.51728 l 0.0031,0.007 z m 0,0 0.0031,0.007 c -1.562386,0.9581 -3.241418,2.34168 -3.013371,4.40796 0.1404,1.27285 1.174267,2.09543 2.369153,2.3599 0.583309,0.12969 2.30846,-0.27686 2.224164,0.70746 -0.108196,1.2641 -0.625203,2.89396 0.472999,3.91835 0.893178,0.83351 2.616071,0.46484 3.314788,1.28523 0.849826,0.99744 0.610849,2.94058 2.28143,3.29978 0.974561,0.20983 2.033128,-0.81675 2.596399,-1.46155 3.531253,-4.04075 2.404928,-10.05889 -1.723112,-13.27926 -2.69097,-2.09979 -5.390465,-2.03349 -8.52551,-1.24516 z"
       id="path4146" />
    <path
       style="fill:#000000;stroke:#000000;stroke-width:0.15739487"
       d="m 55.555184,171.38849 -4.163666,1.98469 -3.852925,1.83677 1.19904,3.45205 0.656021,3.82509 0.09756,3.85278 -0.187612,2.03859 22.348226,-11.42719 0.0037,0.009 -22.852628,13.81696 c -0.764654,0.49398 -1.681729,0.0262 -1.595027,-0.92385 l 0.832413,-7.29317 c -0.09625,-3.95405 -0.598536,-3.61745 -1.326687,-7.54381 -0.02477,-0.13333 0.109288,-0.29144 0.223531,-0.33661 l 8.61804,-3.29177 z"
       id="path4186" />
    <path
       style="fill:#000000;stroke:#000000;stroke-width:0.15739487"
       d="m 88.841715,164.00498 c 1.07394,-0.20183 11.325915,-2.76209 12.383825,-1.93004 0.0845,0.0656 0.15592,0.16321 0.16539,0.26958 0.26521,3.1016 0.75992,6.23308 0.14499,9.2844 -0.67832,3.36463 -1.901618,6.12817 -4.010883,8.84726 -0.159561,0.2062 -0.559556,0.21275 -0.781775,0.17414 l -24.605613,-3.81052 4.37e-4,-0.009 24.296254,1.94169 1.979576,-3.46153 1.582495,-4.04731 0.718389,-4.27682 -0.19526,-4.07864 -5.597022,0.29362 -6.080803,0.80364 z"
       id="path4190" />
    <path
       style="fill:#000000;stroke:#000000;stroke-width:0.15739487"
       d="m 102.035,164.36781 c 5.00031,2.75844 9.26037,5.90813 13.44101,9.7988 l -0.0109,0.0109 -13.43008,-9.80973 z"
       id="path4194" />
    <path
       style="fill:none;stroke:#000000;stroke-width:0.01032775"
       d="m 102.035,164.36781 c 4.47864,2.30015 8.95655,5.56788 13.43519,9.80462"
       id="path4196" />
    <path
       style="fill:#000000;stroke:#000000;stroke-width:0.15739487"
       d="m 101.67217,170.4202 13.31423,6.29355 -13.31423,-6.29355 z"
       id="path4198" />
    <path
       style="fill:none;stroke:#000000;stroke-width:0.01032775"
       d="m 101.67144,170.4202 13.31496,6.29355"
       id="path4200" />
    <path
       style="fill:#000000;stroke:#000000;stroke-width:0.15739487"
       d="m 141.49465,152.02188 -21.79574,16.57321 c -1.34862,1.30708 -2.03859,3.17227 -2.70962,4.92671 -1.30345,3.4098 -1.50526,7.10738 -0.45172,10.61627 0.71255,2.37156 2.22291,7.30994 5.44328,7.60137 2.34752,0.21275 5.45422,-1.60363 7.00028,-3.21381 l 13.29529,-16.25335 c 3.22401,-5.28956 5.32453,-11.14523 7.05347,-17.09343 0.55009,-1.89288 -0.52458,-4.24257 -2.54933,-4.46625 -1.87393,-0.20619 -3.58392,0.6958 -5.28154,1.31802 l -0.004,-0.009 z m 0,0 -0.004,-0.009 c 1.91545,-0.77959 6.91503,-3.17957 7.92048,0.41966 0.99599,3.56863 -0.26593,7.38279 -1.60435,10.72555 -4.2484,10.60972 -10.5332,20.76551 -19.34622,28.15996 -2.5996,2.18067 -6.85601,3.62037 -9.62247,0.9734 -2.68194,-2.56609 -4.02837,-7.18243 -4.35187,-10.7598 -0.32786,-3.62401 0.54791,-8.05528 2.73003,-11.04905 3.16572,-4.34094 7.02724,-8.18351 11.41262,-11.2873 l 12.86615,-7.17368 z"
       id="path4202" />
    <path
       style="fill:#000000;stroke:#000000;stroke-width:0.15739487"
       d="m 46.96126,178.77202 c -3.889426,1.74278 -7.663589,2.89832 -11.86201,3.63128 3.889426,-1.74351 7.663589,-2.89832 11.86201,-3.63128 z"
       id="path4206" />
    <path
       style="fill:none;stroke:#000000;stroke-width:0.01032775"
       d="M 46.961114,178.77202 35.099031,182.4033"
       id="path4208" />
    <path
       style="fill:#000000;stroke:#000000;stroke-width:0.15739487"
       d="m 47.687518,183.97632 c -3.791723,0.98287 -7.340533,1.40254 -11.256845,1.33186 3.791795,-0.98286 7.340607,-1.40253 11.256845,-1.33186 z"
       id="path4210" />
    <path
       style="fill:none;stroke:#000000;stroke-width:0.01032775"
       d="m 47.687372,183.97632 -11.256844,1.33186"
       id="path4212" />
    <path
       style="fill:#000000;stroke:#000000;stroke-width:0.15739487"
       d="m 31.710073,180.58765 c 1.42155,1.51475 2.504525,2.69433 3.205937,4.7351 2.560698,7.44691 2.11145,16.50328 0.621996,24.03106 -1.249675,6.31613 -4.165852,12.30076 -9.033117,16.58413 -2.375346,2.09032 -5.831261,3.14605 -8.585037,1.12568 -4.333719,-3.17884 -5.705645,-9.75362 -6.335429,-14.68253 -1.055501,-8.26074 -0.757442,-16.95135 1.847614,-24.91847 1.441585,-4.40869 4.505156,-9.99041 9.797553,-10.24178 3.297448,-0.15591 5.801097,1.71437 8.484636,3.36099 l -0.0042,0.006 z m 0,0 -0.0041,0.005 c -3.501526,-1.99051 -7.239769,-4.33656 -11.250068,-2.22584 -5.116734,2.69286 -6.690268,9.94233 -7.475402,15.03589 -1.341785,8.70445 -0.764261,18.29996 2.398303,26.56362 1.082173,2.82766 3.710776,7.60283 7.533463,6.14273 1.766245,-0.67468 3.218323,-1.87975 4.488836,-3.26481 8.532432,-9.30116 9.821524,-23.22376 7.928214,-35.23601 -0.452163,-2.86918 -1.774478,-4.91725 -3.619266,-7.02069 z"
       id="path4214" />
    <g
       transform="translate(33.571433,-74.642866)"
       id="g6000">
      <path
         d="m 97.698311,204.47825 c -7.304104,-1.97695 4.680459,-4.59943 -2.178482,1.21041 -6.858936,5.80984 -14.121509,-2.98532 -7.988977,-6.77828 6.132534,-3.79296 3.631287,0.56553 -1.936588,-0.72626 -5.567877,-1.29179 -1.775572,-8.15087 2.4211,-8.95705 l 2.904884,5.32577 c -8.73141,-11.41794 11.500042,-18.66944 11.135752,-6.05203 -0.36429,12.61741 -9.446883,-0.0673 0.96829,-2.66292 10.41518,-2.59559 9.70991,8.12048 0.48452,11.37786 4.07572,3.02605 1.4936,9.23945 -5.810499,7.2625 z"
         style="fill:#ebe8e8;fill-opacity:1;stroke:none;stroke-width:1;stroke-miterlimit:4;stroke-dasharray:none"
         id="path4236" />
      <path
         id="path4234"
         d="m 102.056,188.50081 c -0.33224,-2.70096 -1.24224,-5.43448 -4.318346,-5.87301 -3.344951,-0.47693 -7.427235,2.05957 -8.367115,5.2905 -0.706002,2.4281 0.562471,4.50851 1.556266,6.62958 l -0.01311,0.01 c -1.476849,-2.23094 -3.44841,-4.83171 -2.468459,-7.72661 1.369019,-4.04331 5.244383,-6.73099 9.570015,-5.43069 3.331829,1.0016 4.120899,3.97869 4.040759,7.10032 z"
         style="fill:#000000;stroke:#000000;stroke-width:0.15739487" />
      <path
         id="path4238"
         d="m 88.015364,189.22707 c -2.150794,1.09929 -2.939128,2.47428 -3.948952,4.65903 -0.41821,0.90572 -0.875764,1.8206 -0.348266,2.79946 0.416025,0.77253 1.151171,1.07321 1.878303,1.48968 l -0.0036,0.0178 c -1.124213,-0.23759 -2.476473,-0.45551 -3.044773,-1.62992 -1.861545,-3.84564 1.991233,-6.77996 5.467331,-7.33602 z"
         style="fill:#000000;stroke:#000000;stroke-width:0.15739487" />
      <path
         id="path4242"
         d="m 95.519829,205.68866 c -1.905987,1.57965 -3.679374,2.85176 -6.305937,2.49986 -3.049873,-0.40874 -5.159866,-3.31931 -4.370075,-6.35766 0.37668,-1.4507 1.519107,-2.13768 2.682664,-2.92856 l 0.0095,0.0161 c -1.401076,1.50271 -2.483759,3.01389 -1.312917,5.06079 0.802905,1.4042 2.729294,2.76163 4.319804,3.01082 1.919103,0.30017 3.326736,-0.46776 4.97699,-1.30134 z"
         style="fill:#000000;stroke:#000000;stroke-width:0.15739487" />
      <path
         id="path4246"
         d="m 103.02429,185.83789 c 2.39123,-0.50236 5.41925,-1.24989 7.2502,0.93922 2.19888,2.62883 0.23022,6.64262 -1.86374,8.65775 l -1.26629,1.10359 -1.58468,0.82127 -0.58651,0.21253 0.36284,0.49865 0.40436,0.83736 c 0.85683,2.26759 -0.27395,4.7421 -2.4925,5.66704 -1.86737,0.77894 -3.674271,0.36357 -5.551117,-0.0905 l 0.0036,-0.0132 c 2.224382,0.27118 4.796307,0.49843 6.400657,-1.43781 0.83132,-1.0037 0.98651,-2.42831 0.38251,-3.58378 -0.39417,-0.75511 -1.93368,-1.46818 -1.79962,-2.35859 0.0444,-0.29376 0.2929,-0.50876 0.54717,-0.66206 2.95662,-1.78111 6.23236,-3.32347 6.82615,-7.10302 0.1683,-1.07197 -0.43496,-2.46627 -1.43167,-2.96178 -1.89798,-0.9433 -3.55042,-0.71467 -5.6014,-0.5267 z"
         style="fill:#000000;stroke:#000000;stroke-width:0.15739487" />
    </g>
    <ellipse
       style="fill:#ffec00;fill-opacity:1;stroke:none;stroke-width:1;stroke-miterlimit:4;stroke-dasharray:none;stroke-opacity:0.23529412"
       id="path5197"
       cx="215.231"
       cy="100.52832"
       rx="9.219101"
       ry="8.7869539" />
    <path
       style="fill:#000000;stroke:#000000;stroke-width:0.15969972"
       d="m 221.54551,94.30121 c -2.21111,-1.429799 -4.05558,-2.667169 -6.8241,-2.430755 -5.42023,0.462777 -11.14874,8.034258 -6.97933,12.927775 3.59057,4.21445 11.01274,5.38956 14.97737,0.95838 3.10489,-3.47082 1.42529,-7.477822 -0.21957,-11.141288 l 0.0162,-0.01008 c 1.48592,2.757654 3.01544,5.23114 2.39817,8.515888 -0.97213,5.16756 -6.91357,7.54524 -11.64259,6.87333 -5.1955,-0.7383 -9.5209,-5.00094 -8.2442,-10.479583 1.00391,-4.308324 5.13489,-8.13317 9.66136,-8.196895 2.87128,-0.04043 4.68469,1.344711 6.85662,2.983203 z"
       id="path4250" />
    <path
       style="opacity:1;fill:#000000;stroke:none;stroke-width:0.15700002;stroke-miterlimit:4;stroke-dasharray:none"
       d="m 217.73113,90.25856 -17.58095,-2.641522 c -8.77133,-0.07764 -18.82976,1.499066 -25.91305,7.168647 -1.54383,1.235304 -2.86149,2.684912 -3.89842,4.292326 4.41898,0.14663 10.65763,2.653169 11.61741,7.441959 0.63897,3.18747 -2.17708,5.46839 -4.8723,6.4538 -3.31636,1.21297 -8.62137,1.33426 -10.60156,-2.24249 -1.72979,-3.125 -0.58724,-7.51885 1.07124,-10.7312 l -14.88316,2.05694 -0.006,-0.0142 15.21697,-2.650574 c 0.20055,-0.356768 0.40672,-0.69585 0.61352,-1.011908 4.80016,-7.329625 14.73249,-10.427296 22.96124,-11.160054 5.86656,-0.522306 11.81951,-0.309787 17.6097,0.772291 l 8.66487,2.266061 z m -47.78612,9.460041 c -1.59063,2.724639 -2.39552,5.862049 -2.16729,9.165289 0.11523,1.67775 1.90475,2.71341 3.35465,3.02847 3.03917,0.66066 8.39948,-0.10813 9.55605,-3.59398 0.75897,-2.28638 -1.19066,-4.75718 -2.97603,-5.92939 -2.18791,-1.43664 -5.1096,-2.557261 -7.76738,-2.670389 z"
       id="path4258" />
    <path
       style="fill:#000000;stroke:#000000;stroke-width:0.15739487"
       d="m 23.944845,182.8441 c 1.031172,10.81735 0.380324,20.61687 -1.669343,31.28852 l -0.04794,-0.009 1.717284,-31.27904 z"
       id="path4262" />
    <path
       style="fill:none;stroke:#000000;stroke-width:0.01032775"
       d="m 23.9447,182.8441 c 1.216161,8.0203 0.464912,19.87663 -1.693386,31.28341"
       id="path4264" />
    <path
       style="fill:#000000;stroke:#000000;stroke-width:0.15739487"
       d="m 75.11969,136.79947 c -2.630715,2.25935 -5.065733,3.57883 -8.395019,4.54931 2.630716,-2.25936 5.065732,-3.57956 8.395019,-4.54931 z"
       id="path4266" />
    <path
       style="fill:none;stroke:#000000;stroke-width:0.01032775"
       d="m 75.119472,136.79947 -8.39502,4.54931"
       id="path4268" />
    <path
       d="m 215.66582,109.0023 c -2.20245,-2.31095 -1.37608,-5.96999 -0.32725,-9.225742 1.04883,-3.255755 2.00445,-8.886152 -5.05341,-6.995472 l -1.30552,1.262691 c 6.42651,-1.701276 6.16537,2.413891 5.11654,5.669646 -1.04883,3.255757 -2.82221,6.535987 -0.61976,8.846937 z"
       style="fill:#000000;fill-opacity:1;fill-rule:evenodd;stroke:none;stroke-width:1px;stroke-linecap:butt;stroke-linejoin:miter;stroke-opacity:1"
       id="path5996" />
    <path
       id="path6046"
       transform="translate(9.5478483,58.005175)"
       d="m 24.748047,25.359375 c -0.519144,-1.67e-4 -1.034183,0.03485 -1.542969,0.107422 C 11.79888,27.093812 1.8751982,40.514678 -0.37304688,50.455078 -2.4573989,59.670837 2.8956567,72.508481 10.201172,78.5 c 7.19841,5.904179 21.461793,4.055805 28.503906,0.953125 1.257339,0.99127 2.453629,1.728664 3.90625,2.552734 L 45,80.597656 C 44.122588,79.014716 43.299632,78.379281 42.158203,77.519531 46.821053,63.001273 50.209746,51.414355 44.679688,40.169922 41.277531,33.252219 32.535205,25.361884 24.748047,25.359375 Z m 0.190119,5.965051 c 8.044937,0.505076 18.119806,11.805608 18.119807,22.475086 0,10.669478 -7.928295,21.843741 -21.655341,21.843742 -7.287323,0 -18.2819126,-9.041409 -17.4884615,-22.980164 C 4.6219153,40.229959 17.665163,30.867813 24.938166,31.324426 Z"
       style="fill:#f0a200;fill-opacity:1;fill-rule:evenodd;stroke:none;stroke-width:1px;stroke-linecap:butt;stroke-linejoin:miter;stroke-opacity:1" />
    <path
       id="path6007"
       d="m 54.547848,138.6037 c 0.215744,-1.32948 -0.680221,-2.51404 -2.65625,-3.23596 4.989347,-7.58073 8.40603,-26.39817 3.013399,-37.857135 C 51.080223,89.38323 42.083439,81.276444 33.156263,82.270756 21.432825,83.576515 10.427908,96.640836 8.2022171,108.22489 c -1.8981597,9.87936 2.5436919,22.78716 10.7142879,28.65623 7.643886,5.49073 19.512646,5.33267 29.314384,0.71829 0.718568,2.05869 3.41929,2.8082 3.928572,2.41071 -0.789708,-1.10818 -2.618434,-1.75012 -3.875773,-2.74139 -7.042114,3.10268 -21.068301,4.42731 -28.266712,-1.47687 C 12.71146,129.80034 7.7147295,117.31867 9.7990818,108.10291 12.047327,98.162506 21.346775,85.545372 32.752974,83.918357 c 8.140575,-1.161197 17.22075,6.788939 20.849717,14.167823 5.530059,11.24443 2.70382,22.88942 -1.95903,37.40768 z"
       style="fill:#000000;fill-opacity:1;fill-rule:evenodd;stroke:none;stroke-width:1px;stroke-linecap:butt;stroke-linejoin:miter;stroke-opacity:1" />
    <path
       id="path6009"
       d="m 48.47642,124.83202 c -5.541318,6.71568 -15.398225,10.59939 -22.589286,7.32144 -8.762364,-3.99421 -14.266028,-14.35449 -11.517857,-24.82144 3.278941,-12.488477 14.31341,-17.865336 20.625004,-17.232129 3.138725,0.314891 9.017857,3.660714 9.017857,3.660714 l 0,0 c -2.738767,-1.948228 -5.121013,-4.571014 -8.75,-4.910714 -11.51133,-1.077547 -19.560343,8.093164 -22.232143,19.017849 -3.4192915,13.9811 7.012263,22.80937 12.232143,25.35715 4.877923,2.38087 17.755432,0.33 23.214282,-8.39287 z"
       style="fill:#000000;fill-opacity:1;fill-rule:evenodd;stroke:none;stroke-width:1px;stroke-linecap:butt;stroke-linejoin:miter;stroke-opacity:1" />
    <path
       d="m 37.271434,94.013345 c -1.684683,0.623823 -3.396249,1.174521 -5.077468,1.810065 -3.995519,1.460622 -8.163293,3.927019 -11.364402,5.75746 l 0,0 c 0.772928,-1.1368 1.99927,-1.867448 3.129208,-2.619472 2.349456,-1.430593 3.335758,-1.697076 5.874789,-2.741873 7.506732,-3.563878 5.197386,-2.065924 9.160056,-4.000178 z"
       id="path6011"
       style="color:#000000;display:inline;overflow:visible;visibility:visible;opacity:1;fill:#000000;fill-opacity:1;fill-rule:nonzero;stroke:none;stroke-width:1.85500002;stroke-linecap:round;stroke-linejoin:round;stroke-miterlimit:22.92558479;stroke-dasharray:none;stroke-dashoffset:0;stroke-opacity:1;marker:none;enable-background:accumulate" />
    <path
       d="m 44.180114,97.034989 c -2.252794,1.786126 -4.437796,2.772963 -6.641818,4.031041 -4.813717,2.44797 -10.051298,5.35216 -14.296153,7.08236 4.781857,-3.03537 11.087954,-5.74027 15.679874,-8.2017 1.036554,-0.561998 1.831508,-1.016105 2.858475,-2.138004 z"
       id="path6013"
       style="color:#000000;display:inline;overflow:visible;visibility:visible;opacity:1;fill:#000000;fill-opacity:1;fill-rule:nonzero;stroke:none;stroke-width:1.85500002;stroke-linecap:round;stroke-linejoin:round;stroke-miterlimit:22.92558479;stroke-dasharray:none;stroke-dashoffset:0;stroke-opacity:1;marker:none;enable-background:accumulate" />
    <path
       d="m 45.968981,107.02827 c -1.363936,0.75077 -4.685526,2.17278 -6.096171,2.82836 -4.98311,2.15985 -9.521984,4.72861 -12.622479,6.37184 l 1.901077,-1.59761 0,0 c 0.800412,-0.3337 2.426838,-1.14734 2.691069,-1.28833 -8.52937,4.43443 8.618054,-4.42227 10.169068,-5.15381 2.21658,-1.03608 4.382942,-2.11613 6.107074,-3.11236 z"
       id="path6015"
       style="color:#000000;display:inline;overflow:visible;visibility:visible;opacity:1;fill:#000000;fill-opacity:1;fill-rule:nonzero;stroke:none;stroke-width:1.85500002;stroke-linecap:round;stroke-linejoin:round;stroke-miterlimit:22.92558479;stroke-dasharray:none;stroke-dashoffset:0;stroke-opacity:1;marker:none;enable-background:accumulate" />
    <path
       d="m 30.190962,93.288052 c 2.840779,8.028308 3.757286,13.517098 7.129077,20.106188 l -1.087621,0.43747 C 33.459962,107.00135 31.434466,99.81852 29.01848,93.718442 Z"
       id="path6017"
       style="color:#000000;display:inline;overflow:visible;visibility:visible;opacity:1;fill:#000000;fill-opacity:1;fill-rule:nonzero;stroke:none;stroke-width:1.85500002;stroke-linecap:round;stroke-linejoin:round;stroke-miterlimit:22.92558479;stroke-dasharray:none;stroke-dashoffset:0;stroke-opacity:1;marker:none;enable-background:accumulate" />
    <path
       d="m 22.444897,97.883387 c 2.923118,7.992873 5.769698,11.785393 8.987365,18.955933 l -0.80912,0.6428 c -3.450561,-8.14941 -6.59518,-12.31637 -9.089653,-19.054465 z"
       id="path6019"
       style="color:#000000;display:inline;overflow:visible;visibility:visible;opacity:1;fill:#000000;fill-opacity:1;fill-rule:nonzero;stroke:none;stroke-width:1.85500002;stroke-linecap:round;stroke-linejoin:round;stroke-miterlimit:22.92558479;stroke-dasharray:none;stroke-dashoffset:0;stroke-opacity:1;marker:none;enable-background:accumulate" />
    <path
       id="path6029"
       d="m 110.05803,132.26039 c 0.44416,53.56635 -93.195654,51.86599 -99.752567,-7.07106 l 0,0 c 7.797098,51.42083 96.415777,64.89751 99.752567,7.07106 z"
       style="fill:#000000;fill-opacity:1;fill-rule:evenodd;stroke:none;stroke-width:1px;stroke-linecap:butt;stroke-linejoin:miter;stroke-opacity:1" />
    <path
       id="path6031"
       d="M 60.560551,157.26167 C 39.209788,155.82298 14.312171,113.12519 18.386683,95.894903 19.331632,121.92711 42.028023,153.11332 60.560551,157.26167 Z"
       style="fill:#000000;fill-opacity:1;fill-rule:evenodd;stroke:none;stroke-width:1.00000012;stroke-linecap:butt;stroke-linejoin:miter;stroke-miterlimit:4;stroke-dasharray:none;stroke-opacity:1" />
    <path
       style="fill:#000000;fill-opacity:1;fill-rule:evenodd;stroke:none;stroke-width:1.00000012;stroke-linecap:butt;stroke-linejoin:miter;stroke-miterlimit:4;stroke-dasharray:none;stroke-opacity:1"
       d="m 87.493849,150.13688 c -25.016031,7.65245 -60.723718,-40.99164 -51.594525,-65.02121 -1.357247,36.64905 29.552375,67.61041 51.594525,65.02121 z"
       id="path6042" />
    <path
       style="fill:#000000;fill-opacity:1;fill-rule:evenodd;stroke:none;stroke-width:1.00000012;stroke-linecap:butt;stroke-linejoin:miter;stroke-miterlimit:4;stroke-dasharray:none;stroke-opacity:1"
       d="M 104.33485,122.95576 C 111.61326,150.61671 54.856864,136.8569 53.284238,97.573141 55.90315,131.28784 106.93624,148.79817 104.33485,122.95576 Z"
       id="path6044" />
  </g>
</svg>
