<?xml version="1.0" encoding="UTF-8"?>
<!DOCTYPE svg PUBLIC "-//W3C//DTD SVG 1.1//EN" "http://www.w3.org/Graphics/SVG/1.1/DTD/svg11.dtd">
<svg version="1.1" xmlns="http://www.w3.org/2000/svg" xmlns:xlink="http://www.w3.org/1999/xlink" x="0" y="0" width="235" height="298" viewBox="0, 0, 235, 298">
  <g id="Layer_1">
    <path d="M90.479,278.358 C89.729,277.858 82.979,278.358 81.479,280.108 C79.979,281.858 79.729,284.108 92.229,285.608 C104.729,287.108 119.479,290.858 122.979,287.358 C126.479,283.858 118.479,280.608 107.979,279.108 C106.479,278.608 91.479,277.108 90.479,278.358" fill="#C62253"/>
    <path d="M90.479,278.358 C89.729,277.858 82.979,278.358 81.479,280.108 C79.979,281.858 79.729,284.108 92.229,285.608 C104.729,287.108 119.479,290.858 122.979,287.358 C126.479,283.858 118.479,280.608 107.979,279.108 C106.479,278.608 91.479,277.108 90.479,278.358 z" fill-opacity="0" stroke="#1A1919" stroke-width="1" stroke-linecap="round" stroke-linejoin="round"/>
    <path d="M43.225,280.358 C51.975,279.608 63.975,280.108 63.975,281.858 C64.975,284.358 57.475,285.858 47.225,286.608 C36.975,287.358 22.225,288.608 19.725,285.108 C19.569,284.42 19.518,283.737 19.559,283.063 C20.975,281.608 40.225,280.108 43.225,280.358" fill="#C62253"/>
    <path d="M43.225,280.358 C51.975,279.608 63.975,280.108 63.975,281.858 C64.975,284.358 57.475,285.858 47.225,286.608 C36.975,287.358 22.225,288.608 19.725,285.108 C19.569,284.42 19.518,283.737 19.559,283.063 C20.975,281.608 40.225,280.108 43.225,280.358 z" fill-opacity="0" stroke="#1A1919" stroke-width="1" stroke-linecap="round" stroke-linejoin="round"/>
    <path d="M55.725,271.358 C55.725,272.358 56.225,275.608 56.225,275.608 C56.225,275.608 62.975,281.358 55.225,282.108 C52.725,282.108 44.225,281.608 39.475,282.608 C34.725,283.608 21.975,285.608 21.975,282.358 C21.975,279.108 36.225,273.608 37.975,273.358 C39.725,273.108 42.475,271.108 42.225,269.858 C41.975,268.608 55.725,271.358 55.725,271.358" fill="#FFF1AF"/>
    <path d="M55.725,271.358 C55.725,272.358 56.225,275.608 56.225,275.608 C56.225,275.608 62.975,281.358 55.225,282.108 C52.725,282.108 44.225,281.608 39.475,282.608 C34.725,283.608 21.975,285.608 21.975,282.358 C21.975,279.108 36.225,273.608 37.975,273.358 C39.725,273.108 42.475,271.108 42.225,269.858 C41.975,268.608 55.725,271.358 55.725,271.358 z" fill-opacity="0" stroke="#1A1919" stroke-width="1" stroke-linecap="round" stroke-linejoin="round"/>
    <path d="M91.479,271.608 L91.479,275.358 C90.479,274.858 82.729,280.358 91.479,281.608 C100.229,282.858 111.979,285.608 113.979,285.608 C115.979,285.608 118.622,287.036 120.229,285.608 C122.479,283.608 122.979,279.858 120.229,278.608 C117.479,277.358 106.229,274.858 105.479,274.358 L104.979,270.608 L91.479,271.608" fill="#FFF1AF"/>
    <path d="M91.479,271.608 L91.479,275.358 C90.479,274.858 82.729,280.358 91.479,281.608 C100.229,282.858 111.979,285.608 113.979,285.608 C115.979,285.608 118.622,287.036 120.229,285.608 C122.479,283.608 122.979,279.858 120.229,278.608 C117.479,277.358 106.229,274.858 105.479,274.358 L104.979,270.608 L91.479,271.608 z" fill-opacity="0" stroke="#1A1919" stroke-width="1" stroke-linecap="round" stroke-linejoin="round"/>
    <path d="M41.725,222.108 C41.225,224.108 36.475,256.108 36.975,262.858 C37.475,269.608 37.225,266.358 37.225,266.358 L57.225,268.108 C57.725,266.858 60.725,226.608 61.725,224.108 L41.725,222.108" fill="#2F3257"/>
    <path d="M41.725,222.108 C41.225,224.108 36.475,256.108 36.975,262.858 C37.475,269.608 37.225,266.358 37.225,266.358 L57.225,268.108 C57.725,266.858 60.725,226.608 61.725,224.108 L41.725,222.108 z" fill-opacity="0" stroke="#1A1919" stroke-width="1" stroke-linecap="round" stroke-linejoin="round"/>
    <path d="M34.725,262.358 C34.725,262.358 34.475,269.327 34.475,270.358 C34.475,273.358 43.475,273.108 43.475,273.108 C46.225,273.358 58.475,273.108 59.225,271.608 C59.975,270.108 61.475,263.608 60.725,263.608 C59.975,263.608 51.725,263.358 49.975,263.358 C48.225,263.358 35.975,263.358 34.725,262.358" fill="#5F5977"/>
    <path d="M34.725,262.358 C34.725,262.358 34.475,269.327 34.475,270.358 C34.475,273.358 43.475,273.108 43.475,273.108 C46.225,273.358 58.475,273.108 59.225,271.608 C59.975,270.108 61.475,263.608 60.725,263.608 C59.975,263.608 51.725,263.358 49.975,263.358 C48.225,263.358 35.975,263.358 34.725,262.358 z" fill-opacity="0" stroke="#1A1919" stroke-width="1" stroke-linecap="round" stroke-linejoin="round"/>
    <path d="M47.725,283.858 C48.225,279.108 40.225,271.608 38.725,271.358 C37.225,271.108 34.475,270.358 29.225,272.358 C23.975,274.358 18.475,279.608 19.725,285.108 C22.225,288.608 36.975,287.358 47.225,286.608 C47.475,286.589 47.724,286.571 47.971,286.551" fill="#C62253"/>
    <path d="M47.725,283.858 C48.225,279.108 40.225,271.608 38.725,271.358 C37.225,271.108 34.475,270.358 29.225,272.358 C23.975,274.358 18.475,279.608 19.725,285.108 C22.225,288.608 36.975,287.358 47.225,286.608 C47.475,286.589 47.724,286.571 47.971,286.551" fill-opacity="0" stroke="#1A1919" stroke-width="1" stroke-linecap="round" stroke-linejoin="round"/>
    <path d="M126.231,126.562 C126.173,126.649 126.086,126.731 125.977,126.807 C125.417,127.192 124.239,127.414 123.061,127.267 C121.652,127.091 118.658,121.279 118.834,120.398 C119.01,119.517 124.646,117.404 124.646,117.404 L126.231,126.562" fill="#85C168"/>
    <path d="M126.231,126.562 C126.173,126.649 126.086,126.731 125.977,126.807 C125.417,127.192 124.239,127.414 123.061,127.267 C121.652,127.091 118.658,121.279 118.834,120.398 C119.01,119.517 124.646,117.404 124.646,117.404 L126.231,126.562 z" fill-opacity="0" stroke="#1A1919" stroke-width="1" stroke-linecap="round" stroke-linejoin="round"/>
    <path d="M38.522,115.643 C39.755,114.41 40.988,109.479 40.988,108.951 C40.988,108.422 40.108,108.598 39.403,108.422 C39.403,108.422 33.034,114.678 32.535,115.819 C31.302,118.637 28.213,126.385 29.007,126.386 C29.801,126.387 38.522,115.643 38.522,115.643" fill="#85C168"/>
    <path d="M38.522,115.643 C39.755,114.41 40.988,109.479 40.988,108.951 C40.988,108.422 40.108,108.598 39.403,108.422 C39.403,108.422 33.034,114.678 32.535,115.819 C31.302,118.637 28.213,126.385 29.007,126.386 C29.801,126.387 38.522,115.643 38.522,115.643 z" fill-opacity="0" stroke="#1A1919" stroke-width="1" stroke-linecap="round" stroke-linejoin="round"/>
    <path d="M34.648,111.416 C36.585,111.944 40.459,114.586 40.812,115.115 C41.165,115.643 34.648,124.977 34.648,124.977 L27.779,122.688 L34.648,111.416" fill="#F7CEB2"/>
    <path d="M34.648,111.416 C36.585,111.944 40.459,114.586 40.812,115.115 C41.165,115.643 34.648,124.977 34.648,124.977 L27.779,122.688 L34.648,111.416 z" fill-opacity="0" stroke="#1A1919" stroke-width="1" stroke-linecap="round" stroke-linejoin="round"/>
    <path d="M117.073,110.888 C117.073,110.888 113.022,114.938 112.494,115.467 C111.965,115.995 118.306,124.097 118.306,124.097 C118.306,124.097 126.407,120.046 126.759,119.517 C127.112,118.989 119.186,110.007 117.073,110.888" fill="#F7CEB2"/>
    <path d="M117.073,110.888 C117.073,110.888 113.022,114.938 112.494,115.467 C111.965,115.995 118.306,124.097 118.306,124.097 C118.306,124.097 126.407,120.046 126.759,119.517 C127.112,118.989 119.186,110.007 117.073,110.888 z" fill-opacity="0" stroke="#1A1919" stroke-width="1" stroke-linecap="round" stroke-linejoin="round"/>
    <path d="M60.886,57.169 C60.839,57.203 60.789,57.237 60.734,57.269 C59.956,57.728 58.396,58.001 58.068,59.81 C56.659,61.395 42.217,67.384 39.751,70.554 C36.757,70.027 36.229,69.851 33.939,71.964 C31.649,74.078 22.491,82.355 17.56,87.991 C12.628,93.627 3.646,98.206 3.47,105.075 C3.294,111.944 15.623,121.102 16.679,121.983 C16.327,123.391 16.15,126.385 18.088,126.209 C20.025,126.034 28.479,126.738 29.007,126.386 C29.184,124.272 35.348,111.592 39.223,109.126 C39.575,109.302 40.631,108.774 40.631,108.774 C40.631,108.774 34.115,104.018 32.53,103.666 C30.945,103.314 29.007,105.075 29.007,105.075 L28.303,104.018 C32.882,101.024 42.746,93.803 45.739,92.57 C45.739,92.57 45.038,101.555 45.391,103.668 C45.743,105.781 109.672,104.899 109.672,104.899 C108.967,102.258 109.675,91.867 110.028,90.81 C114.255,93.452 122,97.855 124.114,100.673 C123.585,101.201 121.295,104.019 121.295,104.019 C120.944,103.491 119.534,104.547 118.125,105.78 C116.717,107.013 114.075,109.83 113.899,110.711 C116.188,111.768 120.591,114.411 122.352,117.052 C124.114,119.694 126.051,125.506 125.523,126.915 C127.989,126.739 137.499,119.517 138.555,117.932 C139.612,116.348 138.204,114.411 137.323,113.53 C140.669,111.592 148.594,105.604 148.243,101.906 C147.891,98.207 139.26,90.105 137.852,88.52 C136.442,86.935 119.535,72.669 117.421,70.908 C115.308,69.147 115.132,68.442 114.604,67.914 C114.075,67.386 98.4,61.574 96.639,61.221 C96.463,59.989 94.702,56.995 93.998,56.819 C93.293,56.642 60.886,57.169 60.886,57.169" fill="#B9D689"/>
    <path d="M60.886,57.169 C60.839,57.203 60.789,57.237 60.734,57.269 C59.956,57.728 58.396,58.001 58.068,59.81 C56.659,61.395 42.217,67.384 39.751,70.554 C36.757,70.027 36.229,69.851 33.939,71.964 C31.649,74.078 22.491,82.355 17.56,87.991 C12.628,93.627 3.646,98.206 3.47,105.075 C3.294,111.944 15.623,121.102 16.679,121.983 C16.327,123.391 16.15,126.385 18.088,126.209 C20.025,126.034 28.479,126.738 29.007,126.386 C29.184,124.272 35.348,111.592 39.223,109.126 C39.575,109.302 40.631,108.774 40.631,108.774 C40.631,108.774 34.115,104.018 32.53,103.666 C30.945,103.314 29.007,105.075 29.007,105.075 L28.303,104.018 C32.882,101.024 42.746,93.803 45.739,92.57 C45.739,92.57 45.038,101.555 45.391,103.668 C45.743,105.781 109.672,104.899 109.672,104.899 C108.967,102.258 109.675,91.867 110.028,90.81 C114.255,93.452 122,97.855 124.114,100.673 C123.585,101.201 121.295,104.019 121.295,104.019 C120.944,103.491 119.534,104.547 118.125,105.78 C116.717,107.013 114.075,109.83 113.899,110.711 C116.188,111.768 120.591,114.411 122.352,117.052 C124.114,119.694 126.051,125.506 125.523,126.915 C127.989,126.739 137.499,119.517 138.555,117.932 C139.612,116.348 138.204,114.411 137.323,113.53 C140.669,111.592 148.594,105.604 148.243,101.906 C147.891,98.207 139.26,90.105 137.852,88.52 C136.442,86.935 119.535,72.669 117.421,70.908 C115.308,69.147 115.132,68.442 114.604,67.914 C114.075,67.386 98.4,61.574 96.639,61.221 C96.463,59.989 94.702,56.995 93.998,56.819 C93.293,56.642 60.886,57.169 60.886,57.169 z" fill-opacity="0" stroke="#1A1919" stroke-width="1" stroke-linecap="round" stroke-linejoin="round"/>
    <path d="M68.988,65.624 C68.812,66.857 70.397,74.255 72.335,76.896 C74.271,79.538 78.674,87.111 79.027,88.344 C80.612,84.645 83.959,79.362 85.544,76.72 C87.128,74.078 89.419,66.505 89.242,63.511 L68.988,65.624" fill="#F7CEB2"/>
    <path d="M68.988,65.624 C68.812,66.857 70.397,74.255 72.335,76.896 C74.271,79.538 78.674,87.111 79.027,88.344 C80.612,84.645 83.959,79.362 85.544,76.72 C87.128,74.078 89.419,66.505 89.242,63.511 L68.988,65.624 z" fill-opacity="0" stroke="#1A1919" stroke-width="1" stroke-linecap="round" stroke-linejoin="round"/>
    <path d="M86.229,226.608 C86.979,228.358 89.979,254.358 89.479,264.358 C91.979,266.358 110.979,264.858 110.979,264.858 C111.479,261.858 110.979,227.358 108.479,221.108 C107.729,221.358 86.229,226.608 86.229,226.608" fill="#2F3257"/>
    <path d="M86.229,226.608 C86.979,228.358 89.979,254.358 89.479,264.358 C91.979,266.358 110.979,264.858 110.979,264.858 C111.479,261.858 110.979,227.358 108.479,221.108 C107.729,221.358 86.229,226.608 86.229,226.608 z" fill-opacity="0" stroke="#1A1919" stroke-width="1" stroke-linecap="round" stroke-linejoin="round"/>
    <path d="M42.045,154.215 C41.517,154.567 29.013,172.179 28.836,177.286 C29.717,178.343 34.472,180.808 35.705,180.456 C36.938,180.105 42.045,154.215 42.045,154.215" fill="#D8232A"/>
    <path d="M42.045,154.215 C41.517,154.567 29.013,172.179 28.836,177.286 C29.717,178.343 34.472,180.808 35.705,180.456 C36.938,180.105 42.045,154.215 42.045,154.215 z" fill-opacity="0" stroke="#1A1919" stroke-width="1" stroke-linecap="round" stroke-linejoin="round"/>
    <g>
      <path d="M100.161,18.598 C101.394,20.182 102.803,21.239 104.388,24.233 C105.973,27.227 104.212,30.574 103.507,32.335 C102.803,34.096 102.626,37.794 102.45,39.203 C102.274,40.613 99.809,44.664 99.104,45.368 C98.399,46.072 58.949,49.595 58.244,49.419 C57.54,49.243 51.375,43.078 50.142,42.198 C48.91,41.317 48.557,39.028 48.557,38.499 C48.557,37.971 51.199,35.858 51.728,34.977 C52.256,34.096 53.136,34.272 51.903,30.221 C50.671,26.171 51.551,21.592 52.256,19.654 C52.96,17.717 57.892,15.251 61.062,12.609 C64.232,9.968 77.714,0.165 91.707,4.508 C96.814,6.093 100.336,8.558 100.161,18.598" fill="#2D2118"/>
      <path d="M100.161,18.598 C101.394,20.182 102.803,21.239 104.388,24.233 C105.973,27.227 104.212,30.574 103.507,32.335 C102.803,34.096 102.626,37.794 102.45,39.203 C102.274,40.613 99.809,44.664 99.104,45.368 C98.399,46.072 58.949,49.595 58.244,49.419 C57.54,49.243 51.375,43.078 50.142,42.198 C48.91,41.317 48.557,39.028 48.557,38.499 C48.557,37.971 51.199,35.858 51.728,34.977 C52.256,34.096 53.136,34.272 51.903,30.221 C50.671,26.171 51.551,21.592 52.256,19.654 C52.96,17.717 57.892,15.251 61.062,12.609 C64.232,9.968 77.714,0.165 91.707,4.508 C96.814,6.093 100.336,8.558 100.161,18.598 z M86.328,15.498 C85.614,16.013 79.869,21.717 78.769,23.986 M67.402,20.006 C65.817,20.887 55.955,26.171 55.778,27.227 C55.602,28.284 57.363,28.107 58.068,27.932" fill-opacity="0" stroke="#1A1919" stroke-width="1" stroke-linecap="round" stroke-linejoin="round"/>
    </g>
    <path d="M55.602,40.021 C53.136,36.851 48.558,34.033 48.205,41.783 C47.853,49.532 53.489,54.992 56.307,50.589" fill="#F7CEB2"/>
    <path d="M55.602,40.021 C53.136,36.851 48.558,34.033 48.205,41.783 C47.853,49.532 53.489,54.992 56.307,50.589" fill-opacity="0" stroke="#1A1919" stroke-width="1" stroke-linecap="round" stroke-linejoin="round"/>
    <path d="M99.632,39.028 C103.859,34.624 108.791,38.675 107.03,45.016 C105.269,51.356 99.632,54.527 98.928,52.413" fill="#F7CEB2"/>
    <path d="M99.632,39.028 C103.859,34.624 108.791,38.675 107.03,45.016 C105.269,51.356 99.632,54.527 98.928,52.413" fill-opacity="0" stroke="#1A1919" stroke-width="1" stroke-linecap="round" stroke-linejoin="round"/>
    <path d="M58.068,27.932 C56.307,33.039 56.13,34.448 54.722,41.493 C53.313,48.538 53.841,51.532 59.829,58.048 C65.817,64.565 70.394,69.496 76.737,69.496 C80.083,69.496 83.253,69.496 85.367,68.263 C87.48,67.031 98.047,55.935 99.456,53.117 C100.866,50.299 101.57,42.021 100.337,37.971 C99.104,33.92 95.758,27.931 95.406,25.466 C95.054,23 94.701,17.188 94.701,17.188 C92.412,20.006 84.134,24.761 78.322,24.937 C78.498,24.233 79.203,23.529 79.203,23.529 C75.68,25.29 61.062,28.108 58.068,27.932" fill="#F7CEB2"/>
    <path d="M58.068,27.932 C56.307,33.039 56.13,34.448 54.722,41.493 C53.313,48.538 53.841,51.532 59.829,58.048 C65.817,64.565 70.394,69.496 76.737,69.496 C80.083,69.496 83.253,69.496 85.367,68.263 C87.48,67.031 98.047,55.935 99.456,53.117 C100.866,50.299 101.57,42.021 100.337,37.971 C99.104,33.92 95.758,27.931 95.406,25.466 C95.054,23 94.701,17.188 94.701,17.188 C92.412,20.006 84.134,24.761 78.322,24.937 C78.498,24.233 79.203,23.529 79.203,23.529 C75.68,25.29 61.062,28.108 58.068,27.932 z" fill-opacity="0" stroke="#1A1919" stroke-width="1" stroke-linecap="round" stroke-linejoin="round"/>
    <path d="M77.265,35.682 C77.265,36.915 76.561,44.488 75.68,45.545 C74.799,46.601 73.214,47.13 73.743,48.363 C74.271,49.596 75.68,49.596 76.913,50.124 C78.146,50.652 79.731,50.652 80.788,50.124 C81.844,49.596 83.606,48.538 83.958,48.01 C84.31,47.482 82.901,46.954 82.373,45.017 C81.844,43.079 81.316,38.851 80.964,36.386" fill="#F7CEB2"/>
    <path d="M77.265,35.682 C77.265,36.915 76.561,44.488 75.68,45.545 C74.799,46.601 73.214,47.13 73.743,48.363 C74.271,49.596 75.68,49.596 76.913,50.124 C78.146,50.652 79.731,50.652 80.788,50.124 C81.844,49.596 83.606,48.538 83.958,48.01 C84.31,47.482 82.901,46.954 82.373,45.017 C81.844,43.079 81.316,38.851 80.964,36.386" fill-opacity="0" stroke="#1A1919" stroke-width="1" stroke-linecap="round" stroke-linejoin="round"/>
    <path d="M70.703,35.753 C70.703,36.849 70.236,37.736 69.659,37.736 C69.083,37.736 68.616,36.849 68.616,35.753 C68.616,34.659 69.083,33.771 69.659,33.771 C70.236,33.771 70.703,34.659 70.703,35.753" fill="#1A1919"/>
    <path d="M88.315,35.225 C88.315,36.32 87.848,37.208 87.271,37.208 C86.695,37.208 86.228,36.32 86.228,35.225 C86.228,34.131 86.695,33.243 87.271,33.243 C87.848,33.243 88.315,34.131 88.315,35.225" fill="#1A1919"/>
    <path d="M73.092,29.471 C72.387,28.943 65.871,29.119 64.638,29.824 C63.405,30.528 63.052,31.056 62.876,31.585 C62.701,32.114 62.172,30.528 62.172,30.528 C62.172,30.528 63.053,27.887 64.814,27.887 C66.575,27.887 72.035,27.71 72.563,27.71 C73.092,27.71 73.092,29.471 73.092,29.471" fill="#1A1919"/>
    <path d="M83.357,27.828 C83.357,27.828 82.653,29.413 83.357,29.413 C84.061,29.413 89.345,27.475 90.578,27.299 C91.811,27.123 91.986,27.299 92.163,28.532 C92.691,28.003 92.867,26.418 92.339,25.89 C91.811,25.362 90.93,25.538 89.873,26.066 C88.816,26.595 83.357,27.828 83.357,27.828" fill="#1A1919"/>
    <path d="M67.743,52.061 C67.915,53.294 70.841,54.175 74.8,54.175 C78.758,54.175 84.954,53.823 87.191,52.59 C89.429,51.357 89.429,51.357 89.429,51.357" fill-opacity="0" stroke="#1A1919" stroke-width="1" stroke-linecap="round" stroke-linejoin="round"/>
    <path d="M88.502,51.868 C88.186,52.042 87.761,52.276 87.191,52.59 C84.954,53.823 78.758,54.175 74.8,54.175 C72.821,54.175 71.1,53.954 69.852,53.58 C72.334,56.288 73.214,57.873 77.441,58.049 C81.669,58.225 86.706,58.719 88.502,51.868" fill="#EB9274"/>
    <path d="M88.502,51.868 C88.186,52.042 87.761,52.276 87.191,52.59 C84.954,53.823 78.758,54.175 74.8,54.175 C72.821,54.175 71.1,53.954 69.852,53.58 C72.334,56.288 73.214,57.873 77.441,58.049 C81.669,58.225 86.706,58.719 88.502,51.868 z M70.573,50.652 C70.573,50.652 70.396,51.709 70.396,52.237 M72.51,51.357 L72.51,52.766 M74.271,52.061 C74.271,52.061 73.743,52.766 74.271,52.942 M84.134,51.181 L84.31,52.237 M85.719,50.476 C85.719,50.476 86.247,50.828 85.895,51.533 M87.48,49.419 C87.48,49.419 88.009,49.771 87.832,50.476 M58.076,60.337 C58.076,60.337 57.188,78.305 57.364,80.595 C58.597,79.362 63.705,76.368 67.227,77.425 C70.749,78.481 75.857,83.06 77.09,84.645 M96.639,61.221 C97.168,62.278 101.218,70.028 101.747,71.613 C102.275,73.198 102.275,77.777 102.099,78.481 C101.042,77.777 88.89,76.016 83.254,81.299" fill-opacity="0" stroke="#1A1919" stroke-width="1" stroke-linecap="round" stroke-linejoin="round"/>
    <path d="M48.382,64.744 C47.411,62.582 54.194,60.693 54.194,60.693 C54.018,63.511 55.427,84.822 58.949,90.282 C63.528,90.282 99.812,90.106 100.869,89.753 C101.221,87.639 105.096,64.92 104.92,63.687 C105.977,63.511 109.672,65.977 109.672,65.977 C109.672,67.034 105.269,89.753 105.269,89.753 L106.678,90.634 C106.678,90.634 109.848,104.371 110.024,105.428 C110.201,106.485 107.03,135.545 107.03,135.545 C111.962,156.68 115.838,188.559 116.542,219.556 C110.026,224.311 93.47,236.463 29.363,222.198 C27.955,213.039 34.824,170.946 36.056,166.191 C37.289,161.436 40.987,142.59 41.164,141.181 C41.34,139.773 44.158,104.901 44.158,103.14 C44.158,101.378 50.731,92.107 51.083,91.578 L51.731,90.106 L52.612,89.753 C52.612,89.753 49.963,68.267 48.382,64.744" fill="#D8232A"/>
    <path d="M48.382,64.744 C47.411,62.582 54.194,60.693 54.194,60.693 C54.018,63.511 55.427,84.822 58.949,90.282 C63.528,90.282 99.812,90.106 100.869,89.753 C101.221,87.639 105.096,64.92 104.92,63.687 C105.977,63.511 109.672,65.977 109.672,65.977 C109.672,67.034 105.269,89.753 105.269,89.753 L106.678,90.634 C106.678,90.634 109.848,104.371 110.024,105.428 C110.201,106.485 107.03,135.545 107.03,135.545 C111.962,156.68 115.838,188.559 116.542,219.556 C110.026,224.311 93.47,236.463 29.363,222.198 C27.955,213.039 34.824,170.946 36.056,166.191 C37.289,161.436 40.987,142.59 41.164,141.181 C41.34,139.773 44.158,104.901 44.158,103.14 C44.158,101.378 50.731,92.107 51.083,91.578 L51.731,90.106 L52.612,89.753 C52.612,89.753 49.963,68.267 48.382,64.744 z" fill-opacity="0" stroke="#1A1919" stroke-width="1" stroke-linecap="round" stroke-linejoin="round"/>
    <path d="M42.397,110.536 C43.63,108.422 46.272,101.025 47.681,100.144 C50.146,99.792 54.021,104.724 55.43,107.189 C56.839,109.655 57.896,111.945 58.424,112.473 C58.953,113.001 58.072,116.876 57.72,117.58 C57.368,118.285 50.322,137.306 50.146,138.011 C49.971,138.715 46.977,141.357 43.278,141.885 C39.579,142.413 32.71,142.765 31.478,140.652 C30.245,138.539 29.188,138.715 30.949,137.306 C32.71,135.897 37.29,131.141 37.29,131.141 C37.29,131.141 31.301,132.903 31.478,130.437 C31.654,127.972 34.295,118.108 37.466,114.938 C40.636,111.768 42.045,110.536 42.045,110.536" fill="#FFFFFE"/>
    <path d="M42.397,110.536 C43.63,108.422 46.272,101.025 47.681,100.144 C50.146,99.792 54.021,104.724 55.43,107.189 C56.839,109.655 57.896,111.945 58.424,112.473 C58.953,113.001 58.072,116.876 57.72,117.58 C57.368,118.285 50.322,137.306 50.146,138.011 C49.971,138.715 46.977,141.357 43.278,141.885 C39.579,142.413 32.71,142.765 31.478,140.652 C30.245,138.539 29.188,138.715 30.949,137.306 C32.71,135.897 37.29,131.141 37.29,131.141 C37.29,131.141 31.301,132.903 31.478,130.437 C31.654,127.972 34.295,118.108 37.466,114.938 C40.636,111.768 42.045,110.536 42.045,110.536" fill-opacity="0" stroke="#1A1919" stroke-width="1" stroke-linecap="round" stroke-linejoin="round"/>
    <path d="M54.902,115.996 C54.55,115.292 48.385,112.121 47.505,112.121 C46.448,113.002 40.107,123.393 38.699,128.501 C40.284,129.91 47.329,133.08 48.033,132.904 L48.033,129.91 C47.153,129.734 42.574,127.092 42.574,127.092 C42.926,124.626 48.033,116.877 48.562,116.348 C49.266,115.996 53.493,117.405 54.021,117.933 C54.55,118.462 54.902,115.996 54.902,115.996" fill="#777776"/>
    <path d="M54.902,115.996 C54.55,115.292 48.385,112.121 47.505,112.121 C46.448,113.002 40.107,123.393 38.699,128.501 C40.284,129.91 47.329,133.08 48.033,132.904 L48.033,129.91 C47.153,129.734 42.574,127.092 42.574,127.092 C42.926,124.626 48.033,116.877 48.562,116.348 C49.266,115.996 53.493,117.405 54.021,117.933 C54.55,118.462 54.902,115.996 54.902,115.996 z" fill-opacity="0" stroke="#1A1919" stroke-width="1" stroke-linecap="round" stroke-linejoin="round"/>
    <path d="M96.293,115.29 C96.907,111.609 103.427,106.308 103.513,105.428 C103.599,104.547 106.86,101.377 109.854,102.081 C112.848,102.786 114.434,109.302 115.666,113.881 C118.484,116.875 121.478,122.687 122.006,124.449 C122.535,126.21 119.188,130.613 116.018,132.903 C115.842,133.607 113.729,136.777 113.729,136.777 C114.961,136.777 117.956,140.3 117.427,142.237 C116.898,144.174 106.684,147.345 104.922,146.64 C103.161,145.935 100.871,144.702 100.695,143.646 C100.52,142.589 101.048,124.449 100.872,123.92 C100.695,123.392 96.116,116.347 96.293,115.29" fill="#FFFFFE"/>
    <path d="M96.293,115.29 C96.907,111.609 103.427,106.308 103.513,105.428 C103.599,104.547 106.86,101.377 109.854,102.081 C112.848,102.786 114.434,109.302 115.666,113.881 C118.484,116.875 121.478,122.687 122.006,124.449 C122.535,126.21 119.188,130.613 116.018,132.903 C115.842,133.607 113.729,136.777 113.729,136.777 C114.961,136.777 117.956,140.3 117.427,142.237 C116.898,144.174 106.684,147.345 104.922,146.64 C103.161,145.935 100.871,144.702 100.695,143.646 C100.52,142.589 101.048,124.449 100.872,123.92 C100.695,123.392 96.116,116.347 96.293,115.29 z" fill-opacity="0" stroke="#1A1919" stroke-width="1" stroke-linecap="round" stroke-linejoin="round"/>
    <path d="M98.406,116.171 C100.167,114.057 105.627,112.12 106.332,112.12 C107.036,112.12 111.967,124.096 112.319,124.977 C112.672,125.858 112.319,127.091 112.319,127.091 C112.319,127.091 103.337,130.788 101.928,131.317 L102.809,127.795 L109.678,124.977 L105.099,115.995 C103.866,116.347 99.991,117.227 99.11,117.932 L98.406,116.171" fill="#777776"/>
    <path d="M98.406,116.171 C100.167,114.057 105.627,112.12 106.332,112.12 C107.036,112.12 111.967,124.096 112.319,124.977 C112.672,125.858 112.319,127.091 112.319,127.091 C112.319,127.091 103.337,130.788 101.928,131.317 L102.809,127.795 L109.678,124.977 L105.099,115.995 C103.866,116.347 99.991,117.227 99.11,117.932 L98.406,116.171 z" fill-opacity="0" stroke="#1A1919" stroke-width="1" stroke-linecap="round" stroke-linejoin="round"/>
    <path d="M77.622,109.832 C66.693,109.539 49.09,112.827 46.096,123.57 C45.744,124.274 45.92,125.155 46.096,126.916 C46.272,128.677 47.153,128.501 47.153,129.382 C47.505,131.143 47.682,149.811 47.857,151.221 C48.033,152.629 55.813,162.261 77.798,161.083 C87.661,160.555 98.404,155.095 101.398,151.749 C102.103,150.692 102.455,148.755 102.631,148.051 C102.807,147.346 102.455,130.79 102.455,130.79 C103.159,130.262 104.568,125.331 104.568,123.57 C104.568,119.695 97.347,110.36 77.622,109.832" fill="#8A8B8A"/>
    <path d="M77.622,109.832 C66.693,109.539 49.09,112.827 46.096,123.57 C45.744,124.274 45.92,125.155 46.096,126.916 C46.272,128.677 47.153,128.501 47.153,129.382 C47.505,131.143 47.682,149.811 47.857,151.221 C48.033,152.629 55.813,162.261 77.798,161.083 C87.661,160.555 98.404,155.095 101.398,151.749 C102.103,150.692 102.455,148.755 102.631,148.051 C102.807,147.346 102.455,130.79 102.455,130.79 C103.159,130.262 104.568,125.331 104.568,123.57 C104.568,119.695 97.347,110.36 77.622,109.832 z" fill-opacity="0" stroke="#1A1919" stroke-width="1" stroke-linecap="round" stroke-linejoin="round"/>
    <path d="M104.568,123.57 C104.568,119.695 97.347,110.36 77.622,109.832 C72.461,109.694 65.813,110.354 59.918,112.22 C54.55,115.468 48.562,119.167 48.21,124.803 C50.323,130.438 51.731,132.376 57.368,135.017 C56.487,134.137 53.494,129.558 53.669,128.853 C53.845,128.149 55.606,120.575 67.23,118.638 C78.854,116.701 92.944,119.343 95.938,123.393 C98.933,127.444 97.171,131.143 95.938,132.2 C97.523,131.671 103.688,126.036 104.568,123.57" fill="#343534"/>
    <path d="M104.568,123.57 C104.568,119.695 97.347,110.36 77.622,109.832 C72.461,109.694 65.813,110.354 59.918,112.22 C54.55,115.468 48.562,119.167 48.21,124.803 C50.323,130.438 51.731,132.376 57.368,135.017 C56.487,134.137 53.494,129.558 53.669,128.853 C53.845,128.149 55.606,120.575 67.23,118.638 C78.854,116.701 92.944,119.343 95.938,123.393 C98.933,127.444 97.171,131.143 95.938,132.2 C97.523,131.671 103.688,126.036 104.568,123.57 z" fill-opacity="0" stroke="#1A1919" stroke-width="1" stroke-linecap="round" stroke-linejoin="round"/>
    <path d="M95.938,132.2 C97.171,131.143 98.933,127.444 95.938,123.393 C92.944,119.343 78.854,116.701 67.23,118.638 C55.606,120.575 53.845,128.149 53.669,128.853 C53.494,129.558 56.487,134.137 57.368,135.017 C58.953,135.898 66.169,139.115 78.502,138.716 C83.962,138.54 91.536,136.427 95.938,132.2" fill="#7D563A"/>
    <path d="M95.938,132.2 C97.171,131.143 98.933,127.444 95.938,123.393 C92.944,119.343 78.854,116.701 67.23,118.638 C55.606,120.575 53.845,128.149 53.669,128.853 C53.494,129.558 56.487,134.137 57.368,135.017 C58.953,135.898 66.169,139.115 78.502,138.716 C83.962,138.54 91.536,136.427 95.938,132.2 z" fill-opacity="0" stroke="#1A1919" stroke-width="1" stroke-linecap="round" stroke-linejoin="round"/>
    <path d="M60.538,120.928 C59.667,121.145 57.544,121.28 57.544,122.337 C57.544,123.393 57.896,124.274 59.305,124.274 C60.714,124.274 62.651,123.922 62.651,123.217 C62.651,122.513 61.243,120.751 60.538,120.928" fill="#0B8B42"/>
    <path d="M60.538,120.928 C59.667,121.145 57.544,121.28 57.544,122.337 C57.544,123.393 57.896,124.274 59.305,124.274 C60.714,124.274 62.651,123.922 62.651,123.217 C62.651,122.513 61.243,120.751 60.538,120.928 z" fill-opacity="0" stroke="#1A1919" stroke-width="1" stroke-linecap="round" stroke-linejoin="round"/>
    <path d="M65.591,129.885 C65.591,129.885 63.495,129.292 63.468,130.173 C63.441,131.053 62.363,131.725 62.171,132.248 C61.979,132.771 60.725,133.437 61.045,134.504 C61.365,135.571 61.701,136.11 62.394,136.483 C63.087,136.857 67.104,138.037 67.632,138.053 C68.161,138.069 69.943,137.418 70.855,136.389 C71.767,135.36 71.821,133.599 71.49,132.884 C71.16,132.169 70.119,131.609 69.079,131.049 C68.039,130.489 65.591,129.885 65.591,129.885" fill="#F2C787"/>
    <path d="M65.591,129.885 C65.591,129.885 63.495,129.292 63.468,130.173 C63.441,131.053 62.363,131.725 62.171,132.248 C61.979,132.771 60.725,133.437 61.045,134.504 C61.365,135.571 61.701,136.11 62.394,136.483 C63.087,136.857 67.104,138.037 67.632,138.053 C68.161,138.069 69.943,137.418 70.855,136.389 C71.767,135.36 71.821,133.599 71.49,132.884 C71.16,132.169 70.119,131.609 69.079,131.049 C68.039,130.489 65.591,129.885 65.591,129.885 z" fill-opacity="0" stroke="#1A1919" stroke-width="1" stroke-linecap="round" stroke-linejoin="round"/>
    <path d="M70.929,120.399 C69.873,120.223 67.935,120.751 67.23,122.513 C66.526,124.274 64.765,126.036 67.23,127.092 C69.696,128.149 70.577,128.5 71.81,127.796 C73.043,127.092 74.804,126.035 75.508,126.035 C76.213,126.035 78.503,126.388 79.207,125.331 C79.911,124.274 73.747,119.166 70.929,120.399" fill="#F2C787"/>
    <path d="M70.929,120.399 C69.873,120.223 67.935,120.751 67.23,122.513 C66.526,124.274 64.765,126.036 67.23,127.092 C69.696,128.149 70.577,128.5 71.81,127.796 C73.043,127.092 74.804,126.035 75.508,126.035 C76.213,126.035 78.503,126.388 79.207,125.331 C79.911,124.274 73.747,119.166 70.929,120.399 z" fill-opacity="0" stroke="#1A1919" stroke-width="1" stroke-linecap="round" stroke-linejoin="round"/>
    <path d="M76.565,127.62 C75.332,127.796 74.099,127.62 73.043,129.205 C71.986,130.79 71.457,131.319 73.219,132.376 C74.98,133.432 76.036,134.665 77.622,133.608 C79.207,132.552 79.911,126.916 76.565,127.62" fill="#FADCB9"/>
    <path d="M76.565,127.62 C75.332,127.796 74.099,127.62 73.043,129.205 C71.986,130.79 71.457,131.319 73.219,132.376 C74.98,133.432 76.036,134.665 77.622,133.608 C79.207,132.552 79.911,126.916 76.565,127.62 z" fill-opacity="0" stroke="#1A1919" stroke-width="1" stroke-linecap="round" stroke-linejoin="round"/>
    <path d="M85.723,120.576 C85.723,118.952 89.951,118.462 91.359,119.166 C92.768,119.871 95.233,121.984 95.586,122.689 C95.938,123.393 94.705,125.155 92.768,126.211 C90.831,127.268 90.478,126.563 89.246,125.683 C88.013,124.803 85.723,121.456 85.723,120.576" fill="#FADCB9"/>
    <path d="M85.723,120.576 C85.723,118.952 89.951,118.462 91.359,119.166 C92.768,119.871 95.233,121.984 95.586,122.689 C95.938,123.393 94.705,125.155 92.768,126.211 C90.831,127.268 90.478,126.563 89.246,125.683 C88.013,124.803 85.723,121.456 85.723,120.576 z M47.153,129.382 C48.562,131.847 54.022,138.011 65.822,139.42 M102.455,130.79 C101.75,131.847 95.058,137.66 90.655,138.716 M20.206,99.969 C21.967,100.85 27.074,103.315 28.307,104.372 M14.746,101.378 C16.331,101.026 24.256,102.434 26.194,102.963 M29.893,104.548 C29.188,105.252 18.092,116.524 16.683,122.336 M32.887,90.458 C36.233,90.106 43.622,91.336 45.739,92.57 M124.114,100.673 C124.999,99.792 128.874,98.559 131.338,99.087 M129.049,99.087 C130.282,98.383 133.804,96.798 136.094,96.446 M121.295,104.019 C122.18,104.195 134.149,109.831 137.323,113.53 M37.29,131.141 C38.347,131.141 38.874,130.966 39.755,132.022 C40.636,133.079 42.045,133.431 42.573,134.664 M51.731,109.831 C51.731,110.888 47.681,118.813 40.636,121.455 C40.636,121.455 39.932,123.569 37.466,123.921" fill-opacity="0" stroke="#1A1919" stroke-width="1" stroke-linecap="round" stroke-linejoin="round"/>
    <path d="M51.731,109.831 C51.731,110.888 47.681,118.813 40.636,121.455 C40.636,121.455 39.932,123.569 37.466,123.921 C37.466,123.921 36.057,120.75 36.409,120.222 C36.761,119.694 42.045,113.53 42.573,113.001 C43.102,112.473 49.09,105.956 49.09,105.956 L51.731,109.831" fill="#FFFFFE"/>
    <path d="M51.731,109.831 C51.731,110.888 47.681,118.813 40.636,121.455 C40.636,121.455 39.932,123.569 37.466,123.921" fill="#FFFFFE"/>
    <path d="M51.731,109.831 C51.731,110.888 47.681,118.813 40.636,121.455 C40.636,121.455 39.932,123.569 37.466,123.921 M113.729,136.777 C113.2,137.129 109.678,139.243 107.212,137.129" fill-opacity="0" stroke="#1A1919" stroke-width="1" stroke-linecap="round" stroke-linejoin="round"/>
    <path d="M105.451,108.774 C105.979,111.416 103.514,118.108 105.803,121.102 C108.093,124.097 111.615,127.972 113.729,128.324 C114.785,127.795 115.666,126.739 115.49,124.801 C115.313,122.864 110.911,109.831 110.206,109.126 C109.501,108.422 106.859,105.956 105.451,108.774" fill="#FFFFFE"/>
    <path d="M105.451,108.774 C105.979,111.416 103.514,118.108 105.803,121.102 C108.093,124.097 111.615,127.972 113.729,128.324" fill="#FFFFFE"/>
    <path d="M105.451,108.774 C105.979,111.416 103.514,118.108 105.803,121.102 C108.093,124.097 111.615,127.972 113.729,128.324" fill-opacity="0" stroke="#1A1919" stroke-width="1" stroke-linecap="round" stroke-linejoin="round"/>
    <path d="M84.396,114.441 C84.562,112.108 84.563,108.941 84.492,108.069 C84.377,106.654 82.203,105.78 83.259,104.547 C84.316,103.314 86.253,102.786 86.782,101.376 C87.31,99.967 87.662,100.672 87.486,99.087 C87.31,97.502 90.127,93.979 91.008,93.979 C91.889,93.979 93.122,94.156 94.002,93.451 C94.883,92.746 97.701,90.457 98.229,90.281 C98.758,90.104 101.224,88.871 101.752,87.991 C102.28,87.111 103.513,80.065 104.394,76.719 C105.274,73.373 105.274,71.26 107.916,70.027 C110.558,68.794 111.262,68.794 114.256,68.794 C117.25,68.794 118.307,67.737 119.012,67.209 C119.716,66.68 120.42,67.209 119.716,64.391 C119.012,61.573 118.835,55.233 124.12,54.528 C129.403,53.824 130.812,53.471 132.925,55.409 C135.039,57.346 136.8,61.926 138.385,64.391 C139.97,66.856 140.146,65.095 139.793,69.322 C139.442,73.549 135.744,76.015 133.806,78.128 C131.869,80.242 132.221,81.299 130.635,81.299 C129.051,81.299 127.819,78.833 127.995,82.179 C128.17,85.525 126.937,87.815 123.063,89.4 C119.188,90.985 121.653,93.451 117.074,92.746 C112.495,92.042 108.796,92.042 107.211,95.036 C105.626,98.03 106.859,95.917 105.626,99.791 C104.394,103.666 100.871,104.018 98.405,105.779 C95.94,107.54 93.122,107.012 91.008,107.717 C88.895,108.421 88.418,107.835 88.719,109.478 C88.895,110.441 87.896,110.441 87.396,113.108 C86.896,115.775 86.229,116.941 86.229,116.941" fill="#FFFFFE"/>
    <path d="M84.396,114.441 C84.562,112.108 84.563,108.941 84.492,108.069 C84.377,106.654 82.203,105.78 83.259,104.547 C84.316,103.314 86.253,102.786 86.782,101.376 C87.31,99.967 87.662,100.672 87.486,99.087 C87.31,97.502 90.127,93.979 91.008,93.979 C91.889,93.979 93.122,94.156 94.002,93.451 C94.883,92.746 97.701,90.457 98.229,90.281 C98.758,90.104 101.224,88.871 101.752,87.991 C102.28,87.111 103.513,80.065 104.394,76.719 C105.274,73.373 105.274,71.26 107.916,70.027 C110.558,68.794 111.262,68.794 114.256,68.794 C117.25,68.794 118.307,67.737 119.012,67.209 C119.716,66.68 120.42,67.209 119.716,64.391 C119.012,61.573 118.835,55.233 124.12,54.528 C129.403,53.824 130.812,53.471 132.925,55.409 C135.039,57.346 136.8,61.926 138.385,64.391 C139.97,66.856 140.146,65.095 139.793,69.322 C139.442,73.549 135.744,76.015 133.806,78.128 C131.869,80.242 132.221,81.299 130.635,81.299 C129.051,81.299 127.819,78.833 127.995,82.179 C128.17,85.525 126.937,87.815 123.063,89.4 C119.188,90.985 121.653,93.451 117.074,92.746 C112.495,92.042 108.796,92.042 107.211,95.036 C105.626,98.03 106.859,95.917 105.626,99.791 C104.394,103.666 100.871,104.018 98.405,105.779 C95.94,107.54 93.122,107.012 91.008,107.717 C88.895,108.421 88.418,107.835 88.719,109.478 C88.895,110.441 87.896,110.441 87.396,113.108 C86.896,115.775 86.229,116.941 86.229,116.941 M74.729,71.941 C75.309,73.93 73.729,74.608 73.729,74.608 L71.669,74.893 M83.276,71.904 L82.61,74.238 L86.276,74.238" fill-opacity="0" stroke="#1A1919" stroke-width="1" stroke-linecap="round" stroke-linejoin="round"/>
    <path d="M87.479,262.358 C88.979,262.858 110.229,262.108 112.979,261.108 C112.979,261.108 113.979,270.108 113.229,271.108 C112.479,272.108 99.729,273.608 94.979,273.358 C90.229,273.108 87.479,272.358 87.479,272.358 L87.479,262.358" fill="#5F5977"/>
    <path d="M87.479,262.358 C88.979,262.858 110.229,262.108 112.979,261.108 C112.979,261.108 113.979,270.108 113.229,271.108 C112.479,272.108 99.729,273.608 94.979,273.358 C90.229,273.108 87.479,272.358 87.479,272.358 L87.479,262.358 z" fill-opacity="0" stroke="#1A1919" stroke-width="1" stroke-linecap="round" stroke-linejoin="round"/>
    <path d="M97.514,286.335 C108.597,288.007 119.963,290.373 122.979,287.358 C125.479,285.108 126.229,284.858 125.979,281.858 C125.729,278.858 118.229,273.858 108.979,272.608 C106.979,272.858 99.979,277.858 99.229,284.608" fill="#C62253"/>
    <path d="M97.514,286.335 C108.597,288.007 119.963,290.373 122.979,287.358 C125.479,285.108 126.229,284.858 125.979,281.858 C125.729,278.858 118.229,273.858 108.979,272.608 C106.979,272.858 99.979,277.858 99.229,284.608" fill-opacity="0" stroke="#1A1919" stroke-width="1" stroke-linecap="round" stroke-linejoin="round"/>
    <path d="M89.229,130.358 C90.229,129.358 88.729,126.858 86.229,127.358 C83.729,127.858 82.979,128.858 82.979,128.858 C82.979,128.858 86.842,133.405 87.661,133.256 C88.479,133.108 89.229,130.358 89.229,130.358" fill="#0B8B42"/>
    <path d="M89.229,130.358 C90.229,129.358 88.729,126.858 86.229,127.358 C83.729,127.858 82.979,128.858 82.979,128.858 C82.979,128.858 86.842,133.405 87.661,133.256 C88.479,133.108 89.229,130.358 89.229,130.358 z" fill-opacity="0" stroke="#1A1919" stroke-width="1" stroke-linecap="round" stroke-linejoin="round"/>
    <path d="M83.786,129.029 C81.673,129.381 79.559,131.671 80.087,132.552 C80.616,133.432 84.843,135.194 85.899,134.665 C86.956,134.137 87.837,133.961 87.661,133.256 C87.484,132.552 85.728,128.705 83.786,129.029" fill="#E46C3A"/>
    <path d="M83.786,129.029 C81.673,129.381 79.559,131.671 80.087,132.552 C80.616,133.432 84.843,135.194 85.899,134.665 C86.956,134.137 87.837,133.961 87.661,133.256 C87.484,132.552 85.728,128.705 83.786,129.029 z" fill-opacity="0" stroke="#1A1919" stroke-width="1" stroke-linecap="round" stroke-linejoin="round"/>
    <path d="M58.104,125.268 C57.833,126.301 54.743,127.73 55.564,128.74 C56.386,129.749 57.359,132.094 57.854,132.599 C58.348,133.105 60.511,133.462 59.853,132.622 C59.197,131.782 57.713,130.265 57.39,129.427 C57.066,128.59 57.872,130.933 57.713,130.265 C57.555,129.596 59.896,128.955 58.901,128.444 C57.907,127.933 57.085,126.924 58.591,126.441 C60.097,125.958 61.771,125.31 61.771,125.31 C61.771,125.31 62.445,124.651 60.61,124.797 C58.774,124.943 58.279,124.604 58.104,125.268" fill="#9D744E"/>
    <path d="M66.063,123.775 C65.576,125.478 65.062,126.608 65.563,127.108 C66.063,127.608 67.896,128.608 69.062,128.608 C70.229,128.608 72.062,128.608 72.396,128.108 C72.729,127.608 75.062,126.441 75.062,126.441 C75.062,126.441 75.895,125.442 74.729,125.775 C73.563,126.108 73.063,127.108 71.562,127.275 C70.062,127.441 69.062,125.941 69.229,125.108 C69.396,124.275 68.396,125.441 67.562,125.608 C66.729,125.775 66.729,123.775 66.729,123.775 C66.729,123.775 66.396,122.608 66.063,123.775" fill="#9D744E"/>
    <path d="M78.729,131.441 C78.396,132.275 77.562,132.942 76.896,132.775 C76.229,132.608 74.729,132.442 74.229,132.775 C73.729,133.108 75.229,134.941 76.063,134.941 C76.896,134.941 77.896,133.775 79.229,133.941 C80.563,134.108 79.562,133.774 79.062,133.108 C78.563,132.441 78.729,131.441 78.729,131.441" fill="#9D744E"/>
    <path d="M75.563,119.441 C77.53,119.083 84.729,119.774 85.229,120.108 C85.729,120.441 84.396,120.441 84.563,121.274 C84.729,122.108 86.562,123.941 86.396,124.441 C86.229,124.941 86.229,125.441 84.729,124.274 C83.229,123.108 83.229,122.774 82.896,122.108 C82.562,121.441 82.896,121.108 81.896,120.941 C80.896,120.774 79.729,120.608 79.062,120.441 C78.396,120.274 74.396,119.941 73.729,119.941 C73.063,119.941 73.729,119.775 75.563,119.441" fill="#B49572"/>
    <path d="M62.229,127.941 C60.903,128.303 58.396,128.608 59.562,130.608 C60.729,132.608 63.896,131.941 64.396,130.274 C64.896,128.608 64.062,127.441 62.229,127.941" fill="#E46C3A"/>
    <path d="M62.229,127.941 C60.903,128.303 58.396,128.608 59.562,130.608 C60.729,132.608 63.896,131.941 64.396,130.274 C64.896,128.608 64.062,127.441 62.229,127.941 z" fill-opacity="0" stroke="#1A1919" stroke-width="1" stroke-linecap="round" stroke-linejoin="round"/>
    <path d="M93.896,126.608 C93.896,125.274 91.229,124.441 90.896,124.941 C90.563,125.441 87.729,125.774 88.063,126.274 C88.396,126.774 88.562,127.941 88.562,127.941 C88.562,127.941 87.229,130.441 89.729,131.441 C92.229,132.441 93.896,131.441 94.896,130.774 C95.896,130.108 95.563,127.108 95.563,127.108 L93.896,126.608" fill="#0B8B42"/>
    <path d="M93.896,126.608 C93.896,125.274 91.229,124.441 90.896,124.941 C90.563,125.441 87.729,125.774 88.063,126.274 C88.396,126.774 88.562,127.941 88.562,127.941 C88.562,127.941 87.229,130.441 89.729,131.441 C92.229,132.441 93.896,131.441 94.896,130.774 C95.896,130.108 95.563,127.108 95.563,127.108 L93.896,126.608 z" fill-opacity="0" stroke="#1A1919" stroke-width="1" stroke-linecap="round" stroke-linejoin="round"/>
    <path d="M90.896,129.108 C91.396,128.774 92.396,129.274 92.396,129.274 L92.063,130.108 L90.563,130.441 L90.896,129.108" fill="#64A469"/>
    <path d="M95.062,127.441 C95.062,127.441 93.396,127.108 94.062,127.608 C94.729,128.108 95.563,128.441 95.563,128.441 L95.563,127.108" fill="#64A469"/>
    <path d="M94.062,130.108 C94.396,130.608 94.562,130.941 93.729,131.274 C92.896,131.608 92.396,131.274 92.729,130.774 C93.063,130.274 94.062,130.108 94.062,130.108" fill="#64A469"/>
    <path d="M70.062,41.941 C70.062,43.598 68.197,44.941 65.896,44.941 C63.595,44.941 61.729,43.598 61.729,41.941 C61.729,40.284 63.595,38.941 65.896,38.941 C68.197,38.941 70.062,40.284 70.062,41.941" fill="#F2B8AA"/>
    <path d="M95.396,41.941 C95.396,43.598 93.53,44.941 91.229,44.941 C88.928,44.941 87.063,43.598 87.063,41.941 C87.063,40.284 88.928,38.941 91.229,38.941 C93.53,38.941 95.396,40.284 95.396,41.941" fill="#F2B8AA"/>
    <path d="M53.887,40.006 L56.012,40.006 M54.231,42.344 L55.898,42.01 M99.361,39.144 L101.028,39.144 M99.461,41.279 L101.127,41.279 M99.028,37.11 L100.695,36.11 M56.729,38.275 L54.396,37.275" fill-opacity="0" stroke="#1A1919" stroke-width="1" stroke-linecap="round" stroke-linejoin="round"/>
    <path d="M149.219,292.677 C151.627,292.568 160.707,292.613 162.464,291.801 C163.887,291.144 165.091,288.189 158.852,287.313 C151.293,286.251 149.11,287.313 148.125,286.985 L149.219,292.677" fill="#72B847"/>
    <path d="M149.219,292.677 C151.627,292.568 160.707,292.613 162.464,291.801 C163.887,291.144 165.091,288.189 158.852,287.313 C151.293,286.251 149.11,287.313 148.125,286.985 L149.219,292.677 z" fill-opacity="0" stroke="#1A1919" stroke-width="1" stroke-linecap="round" stroke-linejoin="round"/>
    <path d="M185.963,293.443 C170.419,293.004 170.091,291.364 170.091,289.721 C170.091,288.078 173.157,287.641 174.141,287.861 C174.141,287.861 186.511,288.297 187.606,288.736 L185.963,293.443" fill="#72B847"/>
    <path d="M185.963,293.443 C170.419,293.004 170.091,291.364 170.091,289.721 C170.091,288.078 173.157,287.641 174.141,287.861 C174.141,287.861 186.511,288.297 187.606,288.736 L185.963,293.443 z" fill-opacity="0" stroke="#1A1919" stroke-width="1" stroke-linecap="round" stroke-linejoin="round"/>
    <path d="M175.017,284.358 C173.266,285.452 171.514,289.064 173.704,289.94 C175.893,290.816 184.759,291.364 185.745,291.473 C186.73,291.582 187.386,283.591 187.386,283.591 L175.017,284.358" fill="#7FA8CD"/>
    <path d="M175.017,284.358 C173.266,285.452 171.514,289.064 173.704,289.94 C175.893,290.816 184.759,291.364 185.745,291.473 C186.73,291.582 187.386,283.591 187.386,283.591 L175.017,284.358 z" fill-opacity="0" stroke="#1A1919" stroke-width="1" stroke-linecap="round" stroke-linejoin="round"/>
    <path d="M158.195,284.686 C158.961,285.123 163.559,289.285 159.071,290.16 C154.583,291.035 146.374,289.83 145.388,289.721 C144.403,289.612 147.687,283.044 148.125,283.044 C148.562,283.044 158.195,284.686 158.195,284.686" fill="#7FA8CD"/>
    <path d="M158.195,284.686 C158.961,285.123 163.559,289.285 159.071,290.16 C154.583,291.035 146.374,289.83 145.388,289.721 C144.403,289.612 147.687,283.044 148.125,283.044 C148.562,283.044 158.195,284.686 158.195,284.686 z" fill-opacity="0" stroke="#1A1919" stroke-width="1" stroke-linecap="round" stroke-linejoin="round"/>
    <path d="M153.598,246.155 C153.269,246.811 148.673,269.58 148.563,273.849 C148.453,274.177 146.702,280.965 146.592,282.059 C146.483,283.153 148.781,285.233 149.547,285.123 C150.314,285.014 162.573,285.561 162.902,285.342 C163.231,285.123 163.341,282.715 163.122,281.73 C162.902,280.744 164.216,274.724 164.435,273.301 C164.654,271.878 168.922,250.532 170.017,248.452 C169.689,248.234 153.598,246.155 153.598,246.155" fill="#4D5383"/>
    <path d="M153.598,246.155 C153.269,246.811 148.673,269.58 148.563,273.849 C148.453,274.177 146.702,280.965 146.592,282.059 C146.483,283.153 148.781,285.233 149.547,285.123 C150.314,285.014 162.573,285.561 162.902,285.342 C163.231,285.123 163.341,282.715 163.122,281.73 C162.902,280.744 164.216,274.724 164.435,273.301 C164.654,271.878 168.922,250.532 170.017,248.452 C169.689,248.234 153.598,246.155 153.598,246.155 z" fill-opacity="0" stroke="#1A1919" stroke-width="1" stroke-linecap="round" stroke-linejoin="round"/>
    <path d="M174.952,247.839 C174.633,248.662 173.877,265.046 174.485,267.612 C175.091,270.176 174.999,272.516 174.739,272.997 C174.48,273.479 172.34,275.46 173.142,277.111 C173.943,278.761 174.31,280.477 173.958,281.083 C173.607,281.69 171.273,284.585 171.977,285.587 C172.681,286.588 189.883,284.674 191.031,284.945 C192.178,285.215 190.696,276.803 190.625,275.597 C190.555,274.39 192.305,247.671 191.851,244.641 C191.65,244.782 174.952,247.839 174.952,247.839" fill="#4D5383"/>
    <path d="M174.952,247.839 C174.633,248.662 173.877,265.046 174.485,267.612 C175.091,270.176 174.999,272.516 174.739,272.997 C174.48,273.479 172.34,275.46 173.142,277.111 C173.943,278.761 174.31,280.477 173.958,281.083 C173.607,281.69 171.273,284.585 171.977,285.587 C172.681,286.588 189.883,284.674 191.031,284.945 C192.178,285.215 190.696,276.803 190.625,275.597 C190.555,274.39 192.305,247.671 191.851,244.641 C191.65,244.782 174.952,247.839 174.952,247.839 z M165.749,249.219 C165.749,250.533 163.122,257.977 163.34,259.181 C163.559,260.385 163.451,262.355 163.34,263.231 C163.23,264.107 160.822,268.703 160.712,269.579 C160.603,270.455 161.041,272.096 160.822,273.411 C160.603,274.725 159.618,276.913 159.618,276.913 C159.618,276.913 160.384,280.088 160.166,280.964 C159.947,281.84 159.18,284.467 159.29,284.795 M179.417,246.616 C179.439,247.498 178.801,251.358 178.465,252.072 C178.128,252.786 178.875,255.552 178.918,257.317 C178.962,259.081 178.311,270.247 178.274,271.471 C178.236,272.695 176.748,274.577 177.25,275.719 C177.753,276.862 178.322,278.438 178.278,278.886 C178.235,279.335 176.307,284.937 176.854,285.63 M163.121,274.068 C161.917,275.491 155.13,278.446 154.364,280.198 M175.107,276.927 C176.941,275.876 179.896,275.656 181.553,275.628 M177.023,269.777 C179.844,267.914 180.52,267.26 181.256,266.264" fill-opacity="0" stroke="#1A1919" stroke-width="1" stroke-linecap="round" stroke-linejoin="round"/>
    <path d="M136.897,110.034 C136.444,110.034 136.033,109.723 135.924,109.263 C135.798,108.725 136.131,108.187 136.668,108.06 C140.122,107.248 143.625,104.353 147.081,99.457 C149.883,95.488 149.714,92.134 148.622,90.319 C147.815,88.979 146.454,88.327 144.9,88.525 C144.564,88.571 144.227,88.438 144.008,88.179 C142.614,86.526 141.014,86.411 139.917,86.607 C137.67,87.006 135.579,89.025 134.587,91.75 C132.574,97.29 132.476,104.244 134.37,107.251 C134.664,107.718 134.523,108.335 134.056,108.63 C133.587,108.925 132.971,108.784 132.676,108.316 C130.201,104.384 130.749,96.457 132.708,91.067 C133.958,87.631 136.585,85.168 139.566,84.638 C141.683,84.262 143.658,84.921 145.182,86.495 C147.295,86.413 149.212,87.422 150.335,89.288 C151.753,91.643 152.072,95.855 148.715,100.61 C144.968,105.918 141.07,109.079 137.127,110.007 C137.05,110.025 136.973,110.034 136.897,110.034" fill="#CBCCCB"/>
    <path d="M136.897,110.034 C136.444,110.034 136.033,109.723 135.924,109.263 C135.798,108.725 136.131,108.187 136.668,108.06 C140.122,107.248 143.625,104.353 147.081,99.457 C149.883,95.488 149.714,92.134 148.622,90.319 C147.815,88.979 146.454,88.327 144.9,88.525 C144.564,88.571 144.227,88.438 144.008,88.179 C142.614,86.526 141.014,86.411 139.917,86.607 C137.67,87.006 135.579,89.025 134.587,91.75 C132.574,97.29 132.476,104.244 134.37,107.251 C134.664,107.718 134.523,108.335 134.056,108.63 C133.587,108.925 132.971,108.784 132.676,108.316 C130.201,104.384 130.749,96.457 132.708,91.067 C133.958,87.631 136.585,85.168 139.566,84.638 C141.683,84.262 143.658,84.921 145.182,86.495 C147.295,86.413 149.212,87.422 150.335,89.288 C151.753,91.643 152.072,95.855 148.715,100.61 C144.968,105.918 141.07,109.079 137.127,110.007 C137.05,110.025 136.973,110.034 136.897,110.034 z" fill-opacity="0" stroke="#1A1919" stroke-width="1"/>
    <path d="M143.913,88.441 C142.96,88.441 142.053,88.902 141.156,89.836 C137.366,93.782 135.592,104.234 135.562,107.119 C142.881,100.21 144.462,90.483 144.113,88.448 C144.046,88.443 143.979,88.441 143.913,88.441 z M135.773,109.284 C135.5,109.284 135.227,109.172 135.029,108.952 C135.025,108.948 135.021,108.943 135.017,108.938 C134.984,108.952 134.95,108.964 134.915,108.974 C134.395,109.119 133.855,108.849 133.694,108.332 C133.125,106.511 134.837,93.797 139.541,88.636 C141.583,86.394 143.627,86.267 144.981,86.555 C145.113,86.583 145.237,86.638 145.346,86.714 C145.822,87.047 146.071,87.665 146.131,88.659 C146.366,92.514 143.763,102.448 136.441,109.027 C136.25,109.199 136.011,109.284 135.773,109.284" fill="#CBCCCB"/>
    <path d="M143.913,88.441 C142.96,88.441 142.053,88.902 141.156,89.836 C137.366,93.782 135.592,104.234 135.562,107.119 C142.881,100.21 144.462,90.483 144.113,88.448 C144.046,88.443 143.979,88.441 143.913,88.441 z M135.773,109.284 C135.5,109.284 135.227,109.172 135.029,108.952 C135.025,108.948 135.021,108.943 135.017,108.938 C134.984,108.952 134.95,108.964 134.915,108.974 C134.395,109.119 133.855,108.849 133.694,108.332 C133.125,106.511 134.837,93.797 139.541,88.636 C141.583,86.394 143.627,86.267 144.981,86.555 C145.113,86.583 145.237,86.638 145.346,86.714 C145.822,87.047 146.071,87.665 146.131,88.659 C146.366,92.514 143.763,102.448 136.441,109.027 C136.25,109.199 136.011,109.284 135.773,109.284 z" fill-opacity="0" stroke="#1A1919" stroke-width="1"/>
    <path d="M136.773,123.284 C136.773,124.284 135.898,129.159 133.523,129.784 C133.398,130.534 132.273,132.534 130.898,133.159 C130.898,133.159 131.648,136.284 132.023,137.159 C132.398,138.034 122.898,141.659 122.898,141.659 C122.023,140.909 121.648,135.034 122.023,132.659 C120.523,131.159 120.148,128.284 120.773,126.534 C120.523,125.159 122.023,118.909 123.898,116.909 C123.773,114.784 125.648,112.284 126.898,112.284 C128.148,112.284 134.898,113.409 136.273,116.159 C137.523,114.784 140.023,115.034 140.523,115.659 C140.398,118.034 138.648,121.784 136.773,123.284" fill="#F7CEB2"/>
    <path d="M136.773,123.284 C136.773,124.284 135.898,129.159 133.523,129.784 C133.398,130.534 132.273,132.534 130.898,133.159 C130.898,133.159 131.648,136.284 132.023,137.159 C132.398,138.034 122.898,141.659 122.898,141.659 C122.023,140.909 121.648,135.034 122.023,132.659 C120.523,131.159 120.148,128.284 120.773,126.534 C120.523,125.159 122.023,118.909 123.898,116.909 C123.773,114.784 125.648,112.284 126.898,112.284 C128.148,112.284 134.898,113.409 136.273,116.159 C137.523,114.784 140.023,115.034 140.523,115.659 C140.398,118.034 138.648,121.784 136.773,123.284 z" fill-opacity="0" stroke="#1A1919" stroke-width="1" stroke-linecap="round" stroke-linejoin="round"/>
    <path d="M133.148,107.284 C131.898,108.909 122.523,133.909 122.523,135.034 C123.023,136.034 125.148,136.534 125.898,136.034 C125.898,135.284 136.648,109.034 136.648,109.034 C136.648,109.034 134.023,108.284 133.148,107.284" fill="#B4B5B4"/>
    <path d="M133.148,107.284 C131.898,108.909 122.523,133.909 122.523,135.034 C123.023,136.034 125.148,136.534 125.898,136.034 C125.898,135.284 136.648,109.034 136.648,109.034 C136.648,109.034 134.023,108.284 133.148,107.284 z" fill-opacity="0" stroke="#1A1919" stroke-width="1" stroke-linecap="round" stroke-linejoin="round"/>
    <path d="M120.773,126.534 C120.523,125.159 122.023,118.909 123.898,116.909 C123.773,114.784 125.648,112.284 126.898,112.284 C128.148,112.284 134.898,113.409 136.273,116.159 C136.648,117.034 135.773,121.284 133.898,121.909 C134.523,123.034 133.773,125.534 131.898,125.784 C132.398,127.159 131.398,129.534 129.148,130.159 C128.648,130.659 127.273,132.159 125.273,131.659 C123.273,131.159 123.648,130.534 123.648,130.534" fill="#F7CEB2"/>
    <path d="M120.773,126.534 C120.523,125.159 122.023,118.909 123.898,116.909 C123.773,114.784 125.648,112.284 126.898,112.284 C128.148,112.284 134.898,113.409 136.273,116.159 C136.648,117.034 135.773,121.284 133.898,121.909 C134.523,123.034 133.773,125.534 131.898,125.784 C132.398,127.159 131.398,129.534 129.148,130.159 C128.648,130.659 127.273,132.159 125.273,131.659 C123.273,131.159 123.648,130.534 123.648,130.534 M126.148,126.159 C126.898,126.534 129.648,128.784 129.148,130.159 M124.398,122.409 C125.898,122.534 130.273,123.409 131.523,125.909 M126.273,117.284 C127.648,117.284 132.148,118.284 132.273,118.659 L131.398,119.909 M127.648,117.659 C128.273,117.784 132.023,120.034 133.523,121.659" fill-opacity="0" stroke="#1A1919" stroke-width="1" stroke-linecap="round" stroke-linejoin="round"/>
    <path d="M186.431,158.357 C185.976,159.269 186.051,163.918 186.431,165.056 C182.133,167.078 172.781,167.204 170.758,164.803 C172.275,163.286 172.781,160.759 172.781,160 C172.781,160 186.557,158.104 186.431,158.357" fill="#F7CEB2"/>
    <path d="M186.431,158.357 C185.976,159.269 186.051,163.918 186.431,165.056 C182.133,167.078 172.781,167.204 170.758,164.803 C172.275,163.286 172.781,160.759 172.781,160 C172.781,160 186.557,158.104 186.431,158.357 z" fill-opacity="0" stroke="#1A1919" stroke-width="1" stroke-linecap="round" stroke-linejoin="round"/>
    <path d="M150.663,130.3 C150.159,129.036 146.872,127.898 143.712,130.679 C140.552,133.459 137.771,138.136 135.497,139.905 C138.909,140.916 148.135,138.641 149.526,137.63 C150.917,136.619 153.444,132.196 153.444,132.196 L150.663,130.3" fill="#286AA6"/>
    <path d="M150.663,130.3 C150.159,129.036 146.872,127.898 143.712,130.679 C140.552,133.459 137.771,138.136 135.497,139.905 C138.909,140.916 148.135,138.641 149.526,137.63 C150.917,136.619 153.444,132.196 153.444,132.196 L150.663,130.3 z" fill-opacity="0" stroke="#1A1919" stroke-width="1" stroke-linecap="round" stroke-linejoin="round"/>
    <path d="M203.873,130.552 C205.389,129.036 211.962,127.645 218.155,135.734 C218.533,135.987 208.549,140.536 203.62,137.503 C198.691,134.47 203.745,138.009 203.367,137.503 C202.988,136.998 202.355,131.437 203.873,130.552" fill="#286AA6"/>
    <path d="M203.873,130.552 C205.389,129.036 211.962,127.645 218.155,135.734 C218.533,135.987 208.549,140.536 203.62,137.503 C198.691,134.47 203.745,138.009 203.367,137.503 C202.988,136.998 202.355,131.437 203.873,130.552 z" fill-opacity="0" stroke="#1A1919" stroke-width="1" stroke-linecap="round" stroke-linejoin="round"/>
    <path d="M170.379,102.494 C169.116,102.873 161.911,105.148 159.636,107.423 C157.361,109.698 147.881,121.073 147.629,122.969 C147.377,124.864 149.526,132.069 151.674,133.712 C153.823,135.355 205.514,139.273 206.273,138.262 C207.032,137.25 209.686,130.679 209.812,129.92 C210.065,127.265 204.496,111.687 202.861,109.951 C200.839,107.802 185.925,100.219 170.379,102.494" fill="#286AA6"/>
    <path d="M170.379,102.494 C169.116,102.873 161.911,105.148 159.636,107.423 C157.361,109.698 147.881,121.073 147.629,122.969 C147.377,124.864 149.526,132.069 151.674,133.712 C153.823,135.355 205.514,139.273 206.273,138.262 C207.032,137.25 209.686,130.679 209.812,129.92 C210.065,127.265 204.496,111.687 202.861,109.951 C200.839,107.802 185.925,100.219 170.379,102.494 z" fill-opacity="0" stroke="#1A1919" stroke-width="1" stroke-linecap="round" stroke-linejoin="round"/>
    <path d="M152.053,137.756 C149.904,136.239 145.354,134.596 145.481,140.41 C145.608,146.224 152.051,149.636 153.696,148.878" fill="#F7CEB2"/>
    <path d="M152.053,137.756 C149.904,136.239 145.354,134.596 145.481,140.41 C145.608,146.224 152.051,149.636 153.696,148.878" fill-opacity="0" stroke="#1A1919" stroke-width="1" stroke-linecap="round" stroke-linejoin="round"/>
    <path d="M201.345,138.64 C205.641,134.849 210.695,139.405 208.42,144.205 C206.508,148.243 199.954,152.289 199.069,150.268" fill="#F7CEB2"/>
    <path d="M201.345,138.64 C205.641,134.849 210.695,139.405 208.42,144.205 C206.508,148.243 199.954,152.289 199.069,150.268" fill-opacity="0" stroke="#1A1919" stroke-width="1" stroke-linecap="round" stroke-linejoin="round"/>
    <path d="M152.053,135.734 C151.674,136.997 145.86,161.095 177.457,162.023 C181.754,162.149 205.135,160.758 202.355,135.228 C202.482,133.206 200.966,122.336 199.197,120.693 C197.426,119.05 170.127,113.869 164.06,116.649 C161.532,118.418 153.19,129.793 152.053,135.734" fill="#F7CEB2"/>
    <path d="M152.053,135.734 C151.674,136.997 145.86,161.095 177.457,162.023 C181.754,162.149 205.135,160.758 202.355,135.228 C202.482,133.206 200.966,122.336 199.197,120.693 C197.426,119.05 170.127,113.869 164.06,116.649 C161.532,118.418 153.19,129.793 152.053,135.734 z M176.825,139.525 C177.583,137.629 179.479,137.124 180.491,138.135 M170.398,148.076 C172.693,151.739 181.807,153.301 185.576,148.731" fill-opacity="0" stroke="#1A1919" stroke-width="1" stroke-linecap="round" stroke-linejoin="round"/>
    <path d="M170.884,134.742 C170.865,135.754 170.397,136.566 169.838,136.555 C169.28,136.544 168.842,135.715 168.862,134.703 C168.881,133.691 169.351,132.879 169.909,132.89 C170.467,132.901 170.904,133.73 170.884,134.742" fill="#1A1919"/>
    <path d="M190.348,135.121 C190.329,136.134 189.861,136.945 189.302,136.934 C188.744,136.923 188.306,136.094 188.326,135.082 C188.345,134.07 188.815,133.259 189.373,133.269 C189.931,133.28 190.368,134.11 190.348,135.121" fill="#1A1919"/>
    <path d="M163.397,124.232 C162.175,126.634 163.642,131.436 165.843,132.701 C165.721,129.92 171.959,119.43 175.503,118.165 C174.526,119.935 177.583,130.679 180.884,132.701 C180.87,129.667 185.799,120.947 187.568,119.177 L189.59,119.05 C189.211,121.578 192.75,131.183 198.058,134.217 C196.037,133.459 194.014,121.073 194.52,120.061 C195.152,120.061 196.667,119.935 197.426,121.452 C198.185,122.969 198.185,126.002 199.829,131.183 C201.471,136.366 203.816,141.626 199.644,146.429 C202.678,143.901 207.228,139.011 205.837,130.543 C205.583,128.268 204.631,122.21 204.251,121.831 C203.873,121.452 201.218,119.43 199.575,118.545 C197.932,117.66 178.075,112.806 175.182,113.11 C172.29,113.413 157.458,117.155 156.32,118.293 C153.54,121.2 147.481,133.164 150.641,142.39 C150.641,141.758 150.98,131.058 163.397,124.232" fill="#50341D"/>
    <path d="M163.397,124.232 C162.175,126.634 163.642,131.436 165.843,132.701 C165.721,129.92 171.959,119.43 175.503,118.165 C174.526,119.935 177.583,130.679 180.884,132.701 C180.87,129.667 185.799,120.947 187.568,119.177 L189.59,119.05 C189.211,121.578 192.75,131.183 198.058,134.217 C196.037,133.459 194.014,121.073 194.52,120.061 C195.152,120.061 196.667,119.935 197.426,121.452 C198.185,122.969 198.185,126.002 199.829,131.183 C201.471,136.366 203.816,141.626 199.644,146.429 C202.678,143.901 207.228,139.011 205.837,130.543 C205.583,128.268 204.631,122.21 204.251,121.831 C203.873,121.452 201.218,119.43 199.575,118.545 C197.932,117.66 178.075,112.806 175.182,113.11 C172.29,113.413 157.458,117.155 156.32,118.293 C153.54,121.2 147.481,133.164 150.641,142.39 C150.641,141.758 150.98,131.058 163.397,124.232 z" fill-opacity="0" stroke="#1A1919" stroke-width="1" stroke-linecap="round" stroke-linejoin="round"/>
    <path d="M204.125,115.133 C205.39,118.545 206.78,128.404 206.147,129.288 C192.497,119.682 183.777,119.683 173.16,119.304 C161.286,118.879 152.053,122.337 151.674,122.337 C151.295,122.337 150.41,122.21 150.284,121.705 C150.157,121.199 159.383,110.077 160.647,108.94 C163.175,107.676 195.531,104.642 204.125,115.133" fill="#286AA6"/>
    <path d="M206.147,129.288 C192.497,119.682 183.777,119.683 173.16,119.304 C161.286,118.879 152.053,122.337 151.674,122.337 C151.295,122.337 150.41,122.21 150.284,121.705" fill-opacity="0" stroke="#1A1919" stroke-width="1" stroke-linecap="round" stroke-linejoin="round"/>
    <path d="M170.886,142.317 C170.886,144.188 168.561,145.705 165.692,145.705 C162.824,145.705 160.498,144.188 160.498,142.317 C160.498,140.446 162.824,138.929 165.692,138.929 C168.561,138.929 170.886,140.446 170.886,142.317" fill="#F2B8AA"/>
    <path d="M196.634,142.317 C196.634,144.188 194.308,145.705 191.44,145.705 C188.571,145.705 186.246,144.188 186.246,142.317 C186.246,140.446 188.571,138.929 191.44,138.929 C194.308,138.929 196.634,140.446 196.634,142.317" fill="#F2B8AA"/>
    <path d="M165.833,123.792 C166.97,122.023 169.625,120.885 170.51,124.297" fill-opacity="0" stroke="#F7CEB2" stroke-width="3.5" stroke-linecap="round" stroke-linejoin="round"/>
    <path d="M165.833,123.792 C166.97,122.023 169.625,120.885 170.51,124.297" fill-opacity="0" stroke="#1A1919" stroke-width="2" stroke-linecap="round" stroke-linejoin="round"/>
    <path d="M187.001,125.765 C188.266,123.617 190.92,122.732 192.057,125.133" fill-opacity="0" stroke="#F7CEB2" stroke-width="3.5" stroke-linecap="round" stroke-linejoin="round"/>
    <path d="M187.001,125.765 C188.266,123.617 190.92,122.732 192.057,125.133" fill-opacity="0" stroke="#1A1919" stroke-width="2" stroke-linecap="round" stroke-linejoin="round"/>
    <path d="M198.11,181.639 C197.445,182.836 169.24,179.377 169.24,179.377 C169.24,179.377 157.981,177.684 157.532,177.515 C129.592,167.006 121.211,144.121 121.079,140.396 C121.744,140.264 130.791,136.937 133.054,135.739 C136.38,144.653 142.235,156.094 158.333,163.012 C159.396,163.411 162.59,165.008 162.989,165.806 C163.919,165.673 170.439,163.279 170.439,163.279 C173.898,165.939 181.615,166.87 188.533,162.48 C189.595,163.149 190.659,163.414 191.857,164.079 C192.602,164.493 195.449,165.011 196.247,165.144 C197.044,165.277 205.029,164.475 212.878,168.333 C220.728,172.192 230.073,179.768 231.104,185.097 C232.701,193.346 224.833,203.611 217.648,208.534 C216.183,208.134 212.476,204.921 210.215,202.26 C210.648,201.909 198.11,181.639 198.11,181.639" fill="#FFE511"/>
    <path d="M198.11,181.639 C197.445,182.836 169.24,179.377 169.24,179.377 C169.24,179.377 157.981,177.684 157.532,177.515 C129.592,167.006 121.211,144.121 121.079,140.396 C121.744,140.264 130.791,136.937 133.054,135.739 C136.38,144.653 142.235,156.094 158.333,163.012 C159.396,163.411 162.59,165.008 162.989,165.806 C163.919,165.673 170.439,163.279 170.439,163.279 C173.898,165.939 181.615,166.87 188.533,162.48 C189.595,163.149 190.659,163.414 191.857,164.079 C192.602,164.493 195.449,165.011 196.247,165.144 C197.044,165.277 205.029,164.475 212.878,168.333 C220.728,172.192 230.073,179.768 231.104,185.097 C232.701,193.346 224.833,203.611 217.648,208.534 C216.183,208.134 212.476,204.921 210.215,202.26 C210.648,201.909 198.11,181.639 198.11,181.639 z" fill-opacity="0" stroke="#1A1919" stroke-width="1" stroke-linecap="round" stroke-linejoin="round"/>
    <path d="M165.914,162.883 C165.381,162.883 162.322,163.814 161.922,164.08 C161.523,164.347 160.592,164.878 160.06,166.874 C159.528,168.87 158.198,174.457 158.463,175.921 C158.729,177.385 162.588,175.522 162.588,175.522 C162.588,175.522 163.386,165.81 164.583,164.745 C165.781,163.681 165.914,162.883 165.914,162.883" fill="#ABD2E5"/>
    <path d="M165.914,162.883 C165.381,162.883 162.322,163.814 161.922,164.08 C161.523,164.347 160.592,164.878 160.06,166.874 C159.528,168.87 158.198,174.457 158.463,175.921 C158.729,177.385 162.588,175.522 162.588,175.522 C162.588,175.522 163.386,165.81 164.583,164.745 C165.781,163.681 165.914,162.883 165.914,162.883 z" fill-opacity="0" stroke="#1A1919" stroke-width="1" stroke-linecap="round" stroke-linejoin="round"/>
    <path d="M197.843,163.548 C197.414,163.763 193.586,172.063 192.52,175.792 L197.176,175.926 C197.843,173.26 201.036,164.614 201.967,163.815 C201.967,163.815 198.375,163.282 197.843,163.548" fill="#ABD2E5"/>
    <path d="M197.843,163.548 C197.414,163.763 193.586,172.063 192.52,175.792 L197.176,175.926 C197.843,173.26 201.036,164.614 201.967,163.815 C201.967,163.815 198.375,163.282 197.843,163.548 z" fill-opacity="0" stroke="#1A1919" stroke-width="1" stroke-linecap="round" stroke-linejoin="round"/>
    <path d="M197.649,175.534 C197.649,175.534 196.816,215.201 197.149,217.034 C197.482,218.867 201.982,245.367 201.649,246.201 C176.649,254.535 150.982,247.534 145.315,243.867 C145.481,238.533 155.149,217.367 157.4,212.508 C155.803,204.393 156.315,183.034 158.149,175.867 C160.144,174.936 181.081,171.132 195.449,174.591 L197.649,175.534" fill="#ABD2E5"/>
    <path d="M197.649,175.534 C197.649,175.534 196.816,215.201 197.149,217.034 C197.482,218.867 201.982,245.367 201.649,246.201 C176.649,254.535 150.982,247.534 145.315,243.867 C145.481,238.533 155.149,217.367 157.4,212.508 C155.803,204.393 156.315,183.034 158.149,175.867 C160.144,174.936 181.081,171.132 195.449,174.591 L197.649,175.534 z" fill-opacity="0" stroke="#1A1919" stroke-width="1" stroke-linecap="round" stroke-linejoin="round"/>
    <path d="M149.523,93.784 C150.773,90.409 153.398,90.034 155.773,91.034 C158.148,92.034 160.523,95.284 158.773,100.034 C159.773,102.659 160.398,107.534 155.523,107.284 C154.273,108.909 149.023,109.034 148.523,106.409 C148.023,103.784 148.398,102.409 148.898,102.159 C143.148,101.409 146.773,93.659 149.523,93.784" fill="#FFFFFE"/>
    <path d="M149.523,93.784 C150.773,90.409 153.398,90.034 155.773,91.034 C158.148,92.034 160.523,95.284 158.773,100.034 C159.773,102.659 160.398,107.534 155.523,107.284 C154.273,108.909 149.023,109.034 148.523,106.409 C148.023,103.784 148.398,102.409 148.898,102.159 C143.148,101.409 146.773,93.659 149.523,93.784 z M151.898,99.659 C151.523,99.659 148.929,100.508 149.179,102.008" fill-opacity="0" stroke="#1A1919" stroke-width="1" stroke-linecap="round" stroke-linejoin="round"/>
    <path d="M190.523,172.409 C182.364,172.518 153.801,175.993 155.648,188.659 C157.398,200.659 184.649,201.55 195.273,200.784 C207.398,199.909 222.273,192.534 221.898,185.534 C221.478,177.695 209.148,172.159 190.523,172.409" fill="#CBCCCB"/>
    <path d="M190.523,172.409 C182.364,172.518 153.801,175.993 155.648,188.659 C157.398,200.659 184.649,201.55 195.273,200.784 C207.398,199.909 222.273,192.534 221.898,185.534 C221.478,177.695 209.148,172.159 190.523,172.409 z M165.648,180.784 C164.398,181.284 158.898,183.159 158.898,188.409" fill-opacity="0" stroke="#1A1919" stroke-width="1" stroke-linecap="round" stroke-linejoin="round"/>
    <path d="M157.823,193.006 C157.99,194.087 158.148,195.534 159.023,199.409 C159.898,203.284 163.847,217.034 193.773,217.034 C199.898,217.034 215.898,213.409 219.023,199.034 C219.794,194.793 220.258,192.115 220.382,189.759" fill="#CBCCCB"/>
    <path d="M157.823,193.006 C157.99,194.087 158.148,195.534 159.023,199.409 C159.898,203.284 163.847,217.034 193.773,217.034 C199.898,217.034 215.898,213.409 219.023,199.034 C219.794,194.793 220.258,192.115 220.382,189.759" fill-opacity="0" stroke="#1A1919" stroke-width="1" stroke-linecap="round" stroke-linejoin="round"/>
    <path d="M168.023,194.659 C171.773,197.409 182.993,199.093 191.773,198.409 C201.398,197.659 213.773,194.409 216.398,188.034 C216.773,185.909 215.398,185.034 214.148,186.284 C214.773,183.784 212.398,178.284 207.648,181.784 C207.273,179.409 199.773,178.284 195.773,183.034 C195.273,181.034 188.148,178.034 184.898,182.284 L182.898,182.284 C183.773,177.409 172.398,175.534 173.273,184.159 C171.023,183.284 167.773,185.534 169.398,189.534 C167.023,189.159 165.648,192.534 168.023,194.659" fill="#FFFFFE"/>
    <path d="M168.023,194.659 C171.773,197.409 182.993,199.093 191.773,198.409 C201.398,197.659 213.773,194.409 216.398,188.034 C216.773,185.909 215.398,185.034 214.148,186.284 C214.773,183.784 212.398,178.284 207.648,181.784 C207.273,179.409 199.773,178.284 195.773,183.034 C195.273,181.034 188.148,178.034 184.898,182.284 L182.898,182.284 C183.773,177.409 172.398,175.534 173.273,184.159 C171.023,183.284 167.773,185.534 169.398,189.534 C167.023,189.159 165.648,192.534 168.023,194.659 z" fill-opacity="0" stroke="#1A1919" stroke-width="1" stroke-linecap="round" stroke-linejoin="round"/>
    <path d="M213.661,182.926 C214.204,184.055 214.376,185.369 214.148,186.284 C215.398,185.034 216.773,185.909 216.398,188.034 C213.773,194.409 201.398,197.659 191.773,198.409 C189.874,198.557 187.861,198.594 185.833,198.534 C188.667,197.17 190.834,196.337 190.5,195.17 C193.333,195.67 197.834,194.836 199,191.503 C201.833,193.003 204,188.337 202.167,185.837 C206.333,190.003 211.155,190.182 213.661,182.926" fill="#FFFCE0"/>
    <path d="M187.773,185.784 C190.273,182.909 198.023,181.534 199.273,184.909 M158.898,188.409 C160.023,191.534 166.521,195.67 178.646,197.92 M218.648,184.284 C218.898,186.659 217.148,189.534 213.523,191.784" fill-opacity="0" stroke="#1A1919" stroke-width="1" stroke-linecap="round" stroke-linejoin="round"/>
    <path d="M211.273,202.784 C210.898,203.034 206.648,207.034 206.148,207.034 C205.648,207.034 197.302,207.169 195.648,208.659 C194.398,209.784 194.916,209.932 195.898,210.159 C197.523,210.534 199.773,210.534 200.273,210.534 C200.773,210.534 202.398,211.159 202.398,211.159 C201.898,211.909 199.648,213.784 199.273,213.784 C198.898,213.784 189.898,216.034 189.898,217.159 C189.898,218.284 194.523,218.784 197.898,218.284 C196.523,219.034 192.273,221.409 193.773,222.034 C195.273,222.659 198.773,221.784 201.148,220.659 C200.773,220.909 197.523,222.284 198.773,223.034 C200.023,223.784 203.648,223.034 205.773,221.534 C204.773,222.534 203.273,223.534 204.898,223.659 C206.523,223.784 209.898,221.284 210.648,220.284 C211.773,219.409 214.773,214.159 214.898,211.534 C215.148,211.159 217.898,208.159 217.898,208.159 L211.273,202.784" fill="#F7CEB2"/>
    <path d="M211.273,202.784 C210.898,203.034 206.648,207.034 206.148,207.034 C205.648,207.034 197.302,207.169 195.648,208.659 C194.398,209.784 194.916,209.932 195.898,210.159 C197.523,210.534 199.773,210.534 200.273,210.534 C200.773,210.534 202.398,211.159 202.398,211.159 C201.898,211.909 199.648,213.784 199.273,213.784 C198.898,213.784 189.898,216.034 189.898,217.159 C189.898,218.284 194.523,218.784 197.898,218.284 C196.523,219.034 192.273,221.409 193.773,222.034 C195.273,222.659 198.773,221.784 201.148,220.659 C200.773,220.909 197.523,222.284 198.773,223.034 C200.023,223.784 203.648,223.034 205.773,221.534 C204.773,222.534 203.273,223.534 204.898,223.659 C206.523,223.784 209.898,221.284 210.648,220.284 C211.773,219.409 214.773,214.159 214.898,211.534 C215.148,211.159 217.898,208.159 217.898,208.159 L211.273,202.784 z M202.523,215.909 C202.148,216.159 199.898,217.659 197.898,218.284 M205.773,217.284 C205.523,217.659 202.398,220.409 200.773,221.034 M208.023,218.659 C207.773,219.034 207.023,220.659 205.773,221.534" fill-opacity="0" stroke="#1A1919" stroke-width="1" stroke-linecap="round" stroke-linejoin="round"/>
    <g>
      <path d="M183.884,293.373 C184.545,293.399 185.238,293.422 185.963,293.443 C190.999,294.428 201.398,295.632 202.493,293.333 C203.587,291.035 203.37,285.561 192.313,282.825 C190.889,282.606 187.059,280.964 183.884,292.02" fill="#72B847"/>
      <path d="M183.884,293.373 C184.545,293.399 185.238,293.422 185.963,293.443 C190.999,294.428 201.398,295.632 202.493,293.333 C203.587,291.035 203.37,285.561 192.313,282.825 C190.889,282.606 187.059,280.964 183.884,292.02" fill-opacity="0" stroke="#1A1919" stroke-width="1" stroke-linecap="round" stroke-linejoin="round"/>
    </g>
    <path d="M151.417,292.7 C150.453,292.671 149.677,292.657 149.219,292.677 C146.702,293.333 134.7,294.202 132.581,292.677 C129.708,290.611 128.859,285.671 137.506,282.496 C146.154,279.322 150.204,279.761 150.861,290.16" fill="#72B847"/>
    <path d="M151.417,292.7 C150.453,292.671 149.677,292.657 149.219,292.677 C146.702,293.333 134.7,294.202 132.581,292.677 C129.708,290.611 128.859,285.671 137.506,282.496 C146.154,279.322 150.204,279.761 150.861,290.16" fill-opacity="0" stroke="#1A1919" stroke-width="1" stroke-linecap="round" stroke-linejoin="round"/>
    <path d="M231.104,185.097 C232.701,193.346 224.833,203.611 217.648,208.534 C216.183,208.134 212.476,204.921 210.215,202.26 C212.898,200.159 219.273,193.909 221.273,188.909" fill="#FFE511"/>
    <path d="M231.104,185.097 C232.701,193.346 224.833,203.611 217.648,208.534 C216.183,208.134 212.476,204.921 210.215,202.26 C212.898,200.159 219.273,193.909 221.273,188.909" fill-opacity="0" stroke="#1A1919" stroke-width="1" stroke-linecap="round" stroke-linejoin="round"/>
    <path d="M157.791,100.604 C157.457,101.937 153.092,105.7 151.425,106.033 C152.758,107.366 157.685,106.764 158.352,105.097 C159.019,103.43 157.791,100.604 157.791,100.604" fill="#FFFCE0"/>
    <path d="M168.023,194.659 C171.773,197.409 182.993,199.093 191.773,198.409 C201.398,197.659 213.773,194.409 216.398,188.034 C216.773,185.909 215.398,185.034 214.148,186.284 C214.773,183.784 212.398,178.284 207.648,181.784 C207.273,179.409 199.773,178.284 195.773,183.034 C195.273,181.034 188.148,178.034 184.898,182.284 L182.898,182.284 C183.773,177.409 172.398,175.534 173.273,184.159 C171.023,183.284 167.773,185.534 169.398,189.534 C167.023,189.159 165.648,192.534 168.023,194.659 z M159.094,192.898 C162.593,196.793 171.409,201.852 192.167,201.504 C198.5,200.837 207.667,200.503 216.833,193.503" fill-opacity="0" stroke="#1A1919" stroke-width="1" stroke-linecap="round" stroke-linejoin="round"/>
    <path d="M178.083,185.195 C178.992,187.242 183.994,187.242 185.813,185.65 C186.268,187.696 184.449,191.789 183.312,191.334 C182.175,190.879 175.582,189.514 178.083,185.195" fill="#FFFCE0"/>
    <path d="M174.217,195.654 C173.346,195.393 180.583,195.654 181.72,193.153 L181.039,196.79 C181.039,196.79 176.491,196.335 174.217,195.654" fill="#FFFCE0"/>
  </g>
</svg>
