<?xml version="1.0"?>
<svg xmlns:rdf="http://www.w3.org/1999/02/22-rdf-syntax-ns#" xmlns="http://www.w3.org/2000/svg" xmlns:cc="http://web.resource.org/cc/" xmlns:xlink="http://www.w3.org/1999/xlink" xmlns:dc="http://purl.org/dc/elements/1.1/" xmlns:svg="http://www.w3.org/2000/svg" id="svg2" viewBox="0 0 879.98 652.34" version="1.0">
  <defs id="defs4">
    <linearGradient id="linearGradient4298">
      <stop id="stop4300" offset="0"/>
      <stop id="stop4302" stop-opacity="0" offset="1"/>
    </linearGradient>
    <linearGradient id="linearGradient4795" y2="551.86" xlink:href="#linearGradient4298" gradientUnits="userSpaceOnUse" x2="639.67" gradientTransform="translate(-832.87 -26.601)" y1="2250.9" x1="-1995.5"/>
    <radialGradient id="radialGradient5208" gradientUnits="userSpaceOnUse" cy="432.36" cx="311.43" gradientTransform="matrix(1 0 0 .90566 0 40.789)" r="151.43">
      <stop id="stop3960" offset="0"/>
      <stop id="stop3962" stop-opacity="0" offset="1"/>
    </radialGradient>
    <radialGradient id="radialGradient5227" gradientUnits="userSpaceOnUse" cy="572.17" cx="421.08" gradientTransform="matrix(.91813 .0071937 -.0045801 .58456 37.095 178.04)" r="137.92">
      <stop id="stop4288" offset="0"/>
      <stop id="stop4290" stop-opacity="0" offset="1"/>
    </radialGradient>
    <linearGradient id="linearGradient5230" y2="627.48" xlink:href="#linearGradient4298" gradientUnits="userSpaceOnUse" x2="214.07" gradientTransform="translate(.86317 1.0132)" y1="677.91" x1="206.6"/>
    <linearGradient id="linearGradient5233" y2="-85.096" gradientUnits="userSpaceOnUse" x2="-933.36" gradientTransform="matrix(.57318 0 0 .57318 641.88 188.29)" y1="-69.8" x1="-754.53">
      <stop id="stop4204" offset="0"/>
      <stop id="stop4206" stop-opacity="0" offset="1"/>
    </linearGradient>
    <linearGradient id="linearGradient5236" y2="-47.459" gradientUnits="userSpaceOnUse" x2="-764.77" gradientTransform="matrix(.57318 0 0 .57318 641.88 188.29)" y1="-34.974" x1="-613.64">
      <stop id="stop4184" offset="0"/>
      <stop id="stop4186" stop-opacity="0" offset="1"/>
    </linearGradient>
    <linearGradient id="linearGradient5240" y2="549.39" gradientUnits="userSpaceOnUse" x2="-620.54" gradientTransform="matrix(.57318 0 0 .57318 641.88 188.29)" y1="628.4" x1="-603.28">
      <stop id="stop4170" offset="0"/>
      <stop id="stop4172" stop-opacity="0" offset="1"/>
    </linearGradient>
    <radialGradient id="radialGradient5246" gradientUnits="userSpaceOnUse" cy="324.37" cx="172.78" gradientTransform="matrix(.81141 -.73268 .58189 .64442 -198.74 216.53)" r="101.74">
      <stop id="stop4894" offset="0"/>
      <stop id="stop4896" stop-opacity="0" offset="1"/>
    </radialGradient>
    <radialGradient id="radialGradient5253" gradientUnits="userSpaceOnUse" cy="29.531" cx="-502.17" gradientTransform="matrix(.1088 -.33796 .59557 .19173 362.48 -13.622)" r="112.73">
      <stop id="stop4194" offset="0"/>
      <stop id="stop4196" stop-opacity="0" offset="1"/>
    </radialGradient>
    <linearGradient id="linearGradient5295" y2="627.48" xlink:href="#linearGradient4298" gradientUnits="userSpaceOnUse" x2="214.07" gradientTransform="translate(-22.425 5.7218)" y1="677.91" x1="206.6"/>
  </defs>
  <g id="layer1" transform="translate(-9.622 -80.006)">
    <g id="g5323">
      <g id="g4797" fill-rule="evenodd" transform="matrix(.56340 .10540 -.10540 .56340 1001.7 193.1)">
        <path id="path4799" d="m-146.39 807.39c-114.01 71-103.68 95.3 13.26 41.54 116.95-53.75 219.38-153.56 275.88-335.04 25.93-83.26-2.16-136.84-28.99-23.22-31.952 135.31-203.75 281.6-260.15 316.72z" fill="#fff" fill-opacity=".080357"/>
        <path id="path4801" d="m-562.58 881.38c-114.01 71-103.68 95.29 13.27 41.54 116.94-53.76 219.37-153.56 275.88-335.04 25.92-83.26-2.17-136.84-29-23.22-31.95 135.31-203.75 281.6-260.15 316.72z" fill="url(#linearGradient4795)"/>
      </g>
      <g id="g4789" fill-rule="evenodd" transform="matrix(.51275 .25616 -.25616 .51275 1104.9 333.75)">
        <path id="path4791" d="m-146.39 807.39c-114.01 71-103.68 95.3 13.26 41.54 116.95-53.75 219.38-153.56 275.88-335.04 25.93-83.26-2.16-136.84-28.99-23.22-31.952 135.31-203.75 281.6-260.15 316.72z" fill="#fff" fill-opacity=".080357"/>
        <path id="path4793" d="m-562.58 881.38c-114.01 71-103.68 95.29 13.27 41.54 116.94-53.76 219.37-153.56 275.88-335.04 25.92-83.26-2.17-136.84-29-23.22-31.95 135.31-203.75 281.6-260.15 316.72z" fill="url(#linearGradient4795)"/>
      </g>
      <g id="g3952" fill-rule="evenodd" transform="matrix(.57318 0 0 .57318 641.88 188.29)" stroke="#000" stroke-width="6.0329" fill="#fff">
        <path id="path3763" d="m-146.39 807.39c-114.01 71-103.68 95.3 13.26 41.54 116.95-53.75 219.38-153.56 275.88-335.04 25.93-83.26-2.16-136.84-28.99-23.22-31.952 135.31-203.75 281.6-260.15 316.72z"/>
        <path id="path3942" d="m-146.39 807.39c-114.01 71-103.68 95.3 13.26 41.54 116.95-53.75 219.38-153.56 275.88-335.04 25.93-83.26-2.16-136.84-28.99-23.22-31.952 135.31-203.75 281.6-260.15 316.72z"/>
      </g>
      <g id="g4781" fill-rule="evenodd" transform="matrix(.48405 -.30698 .30698 .48405 581.71 13.881)">
        <path id="path4783" d="m-146.39 807.39c-114.01 71-103.68 95.3 13.26 41.54 116.95-53.75 219.38-153.56 275.88-335.04 25.93-83.26-2.16-136.84-28.99-23.22-31.952 135.31-203.75 281.6-260.15 316.72z" fill="#fff" fill-opacity=".080357"/>
        <path id="path4785" d="m-562.58 881.38c-114.01 71-103.68 95.29 13.27 41.54 116.94-53.76 219.37-153.56 275.88-335.04 25.92-83.26-2.17-136.84-29-23.22-31.95 135.31-203.75 281.6-260.15 316.72z" fill="url(#linearGradient4795)"/>
      </g>
      <g id="g4519" fill-rule="evenodd" transform="matrix(.53294 -.21096 .21096 .53294 703.88 33.941)">
        <path id="path4521" d="m-146.39 807.39c-114.01 71-103.68 95.3 13.26 41.54 116.95-53.75 219.38-153.56 275.88-335.04 25.93-83.26-2.16-136.84-28.99-23.22-31.952 135.31-203.75 281.6-260.15 316.72z" fill="#fff" fill-opacity=".080357"/>
        <path id="path4523" d="m-562.58 881.38c-114.01 71-103.68 95.29 13.27 41.54 116.94-53.76 219.37-153.56 275.88-335.04 25.92-83.26-2.17-136.84-29-23.22-31.95 135.31-203.75 281.6-260.15 316.72z" fill="url(#linearGradient4795)"/>
      </g>
      <g id="g3755" transform="matrix(.57318 0 0 .57318 1250 183.6)">
        <g id="g3731" transform="translate(-1106.3 3.7418)">
          <path id="path3733" d="m-177.56 361.93c33.57 85 99.119 336.75 51.97 446.88-78.34 183.02-4.28 125.76-650.37 134.26-78.57 1.04-84.55-109-68.12-128.28 64.16-75.32 463.57 81.43 354.28 17.14-112.9-66.41-187.14-213.57-91.42-282.86" fill-rule="evenodd" stroke="#000" stroke-width="8" fill="#fff"/>
          <path id="path3735" d="m-829.54 885.71c-0.21-2.15-1-4.21-1.56-6.3-1.31-3.13-1.84-6.44-2.47-9.74-0.38-3.29-0.35-6.61-0.39-9.92-0.01-3.27 0-6.55 0.01-9.83-0.36-3.09 0.3-6.08 0.62-9.11 0.62-2.45 1.83-4.67 2.84-6.96 0.79-2.77 3.03-4.05 4.88-5.9 6.41-4.99 9.79-5.12 16.59-5.69 3.28-0.07 6.57-0.03 9.85-0.02s6.56 0.02 9.84 0.02l-6.9 5.01c-3.28 0-6.56 0-9.84-0.02-3.28-0.01-6.56-0.05-9.84 0.06-3.99 0.48-14.77 3.24-1.56-2.5-1.92 1.64-4.11 2.68-5 5.34-1.01 2.29-2.09 4.52-3 6.85-0.46 3.03-1.31 5.93-0.88 9.05-0.01 3.28-0.02 6.55-0.02 9.83 0.04 3.28 0 6.56 0.34 9.83 0.58 3.26 1.01 6.54 2.5 9.57 0.79 2.04 1.37 4.21 2.61 6.04l-8.62 4.39z"/>
          <path id="path3737" d="m-806.62 898.81c-0.45-2.08-0.59-4.24-0.87-6.36 0.03-2.94-0.7-5.77-1.29-8.63-0.53-3.09-0.47-6.23-0.59-9.34-0.12-3.28 0.7-6.49 1.26-9.7 1.79-5.99 7.08-6.68 12.66-9.51 3.1-0.43 6.23-0.29 9.35-0.32l-6.91 5.01c-3.13 0.09-6.3-0.09-9.38 0.63 0.59-0.4 2.5-0.1 2.08 0.48-0.62 3.12-1.62 6.27-1.45 9.51 0.14 3.05 0.1 6.13 0.66 9.15 0.55 2.89 1.26 5.74 1.29 8.7 0.53 2.01 0.34 4.32 1.81 5.99l-8.62 4.39z"/>
          <path id="path3739" d="m-788.6 920.1c0.16-2.18 0.59-4.32 0.88-6.48 0.3-2.95 1.32-5.71 2.14-8.53 0.71-2.41 2.6-4.05 4.01-5.99 3.74-4.38 7.46-5.87 12.93-8.92 0.43-0.11 0.85-0.21 1.27-0.32l-6.95 5.37c-0.42 0.15-0.83 0.3-1.25 0.45 12.63-7.53 4.62-3.21 2.23 0.01-1.5 1.84-3.42 3.41-4.25 5.73-0.97 2.75-2.19 5.44-2.35 8.41-0.05 1.95-0.76 3.93-0.05 5.88l-8.61 4.39z"/>
        </g>
        <path id="path3743" d="m-1283.9 365.67c33.6 85 99.2 336.75 52 446.88-78.3 183.02-4.3 125.76-650.4 134.26-78.5 1.04-84.5-109-68.1-128.28 64.2-75.32 463.6 81.43 354.3 17.14-112.9-66.41-187.1-213.57-91.4-282.86" fill-opacity=".080357" fill-rule="evenodd"/>
      </g>
      <g id="g4414" transform="translate(311.25 11.422)">
        <g id="g3711" transform="matrix(.51974 0 0 .51974 402.28 222.16)">
          <path id="path3713" d="m-1004.3 339.33c11.77 129.76-2 382.1-67.8 493.8-32.5 55.26-125.7 6.98-145.3 21.24-19.6 14.27-41 93.29 6.3 91.83 227.28-7 198.3 34.44 237.07-73.85 51.46-143.73 88.3-329.62 95.19-460.54" fill-rule="evenodd" stroke="#000" stroke-width="8" fill="#fff"/>
          <path id="path3715" d="m-1229.1 916.82c1.1-1.48 1.2-3.39 1.8-5.08 0.1-2.98 0.5-5.96 0.7-8.93 0.6-2.98 1.4-5.91 2.2-8.84 0.7-2.67 1.6-5.29 2.4-7.93 0.7-2.38 1.9-4.59 3-6.84 1-2.21 2.9-3.66 4.5-5.4 22.4-13.26-8 4.08 13.8-7.99 2.5-0.7 5.1-1.33 7.6-2.08 3.1-0.53 6.1-0.44 9.2-0.54 0.5-0.01 1.1-0.01 1.6-0.01l-6.9 5.03c-0.6 0-1.1 0.01-1.6 0.02-3.1 0.16-6.2 0.08-9.2 0.79-2.6 0.75-5.1 1.43-7.7 2.27 10.6-6.36-6.9 3.64 1.5-0.75-1.6 1.61-3.7 2.87-4.8 5.02-1 2.23-2.3 4.4-3 6.77-0.9 2.65-1.8 5.26-2.7 7.9-0.7 2.91-1.4 5.83-2 8.78-0.3 2.93-1 5.83-0.8 8.83-0.3 1.36 0.2 3.82-0.9 4.59l-8.7 4.39z"/>
          <path id="path3717" d="m-1214.3 923.37c0.7-1.89 1.8-3.61 2.7-5.38 1.7-2.66 3.4-5.24 5.1-7.86 1.6-2.46 3-4.99 4.5-7.52 1.7-2.13 3.2-4.39 4.8-6.63 3.7-4.7 9.9-6.41 14.9-9.06 2.7-0.69 5.4-0.66 8.1-0.81l-6.8 5.04c-2.7 0.26-5.4 0.14-8 1.02-3.3 6.37 6.2-7.09-0.2 0.32-1.5 2.26-3 4.58-4.8 6.61-1.6 2.57-3.1 5.16-4.8 7.6-1.5 2.56-3.2 5.08-4.6 7.68-0.8 1.53-1.7 3.04-2.3 4.6l-8.6 4.39z"/>
        </g>
        <path id="path3827" d="m-119.71 398.52c6.13 67.45-1.03 198.59-35.21 256.65-16.91 28.72-65.33 3.63-75.52 11.04-10.19 7.42-21.34 48.49 3.25 47.73 118.14-3.64 103.08 17.9 123.23-38.39 26.746-74.7 45.893-171.31 49.475-239.36" fill-opacity=".078431" fill-rule="evenodd"/>
      </g>
      <path id="path2772" d="m1151.4 760.93a281.43 365.71 0 1 1 -562.83 0 281.43 365.71 0 1 1 562.83 0z" transform="matrix(.43948 -.36796 .36796 .43948 -293.12 397.26)" stroke="#000" stroke-width="8" fill="#fff"/>
      <g id="g3671" transform="matrix(.57318 0 0 .57318 -31.192 121.15)">
        <path id="path3667" d="m286.37 402.12c48.8-51.55 126.54-58.21 136.05-13.79 9.5 44.42-111.44 121.78-98.01 191.49 15.7 81.54-87.67 59.14-97.18 14.72-9.51-44.43 10.35-140.87 59.14-192.42z" fill-rule="evenodd" stroke="#000" stroke-width="4.2995" fill="#dc0000"/>
        <path id="path3669" d="m272.53 590.11c0.97-3.69 0.83-7.55 1.09-11.33 0.17-5.64 0.15-11.29 0.17-16.94-0.18-5.77 0.1-11.54 0.31-17.3 0.63-5.95 2.58-11.61 4.26-17.31 1.42-5.13 3.43-10.04 5.31-15 1.71-4.07 3.49-8.14 5.16-12.22 2.23-3.71 4.19-7.58 6.26-11.38 1.81-4.38 4.53-8.24 6.99-12.25 2.47-3.96 5-7.88 7.53-11.8 2.34-3.61 5.46-6.57 8.25-9.8 3.07-3.03 5.67-6.49 8.34-9.87 2.83-3.04 5.1-6.5 7.61-9.78l13.17-5.66c-2.41 3.28-4.61 6.77-7.47 9.71-2.5 3.4-4.89 6.96-7.97 9.83-2.89 3.25-6 6.28-8.66 9.74-2.45 3.91-4.89 7.8-7.44 11.65-2.51 3.99-5.38 7.85-7.15 12.26-1.94 3.82-3.63 7.72-5.91 11.35-1.82 4.04-4 7.97-5.46 12.21-2.25 4.95-4.69 9.85-6.08 15.16-1.66 5.6-3.59 11.15-4.26 16.99-0.18 5.69-0.63 11.42-0.37 17.15 0.02 5.59-0.01 11.18 0.17 16.76 0.3 3.4 0.01 6.93 1.09 10.22l-14.94 7.61z"/>
      </g>
      <path id="path4296" d="m164.44 649.36c25.01-0.48 39.39-0.8 53.07 2.8 1.4-22.3 6.55-27.55 10.93-42.53-10.13-12.28-35.43-16.51-51.43-6.58-6.43 18.54-6.36 28.04-12.57 46.31z" fill="url(#linearGradient5295)" fill-rule="evenodd"/>
      <g id="g3706" transform="matrix(.51974 0 0 .51974 731.22 236.37)">
        <path id="path3692" d="m-1004.3 339.33c11.77 129.76-2 382.1-67.8 493.8-32.5 55.26-125.7 6.98-145.3 21.24-19.6 14.27-41 93.29 6.3 91.83 227.28-7 198.3 34.44 237.07-73.85 51.46-143.73 88.3-329.62 95.19-460.54" fill-rule="evenodd" stroke="#000" stroke-width="8" fill="#fff"/>
        <path id="path3702" d="m-1229.1 916.82c1.1-1.48 1.2-3.39 1.8-5.08 0.1-2.98 0.5-5.96 0.7-8.93 0.6-2.98 1.4-5.91 2.2-8.84 0.7-2.67 1.6-5.29 2.4-7.93 0.7-2.38 1.9-4.59 3-6.84 1-2.21 2.9-3.66 4.5-5.4 22.4-13.26-8 4.08 13.8-7.99 2.5-0.7 5.1-1.33 7.6-2.08 3.1-0.53 6.1-0.44 9.2-0.54 0.5-0.01 1.1-0.01 1.6-0.01l-6.9 5.03c-0.6 0-1.1 0.01-1.6 0.02-3.1 0.16-6.2 0.08-9.2 0.79-2.6 0.75-5.1 1.43-7.7 2.27 10.6-6.36-6.9 3.64 1.5-0.75-1.6 1.61-3.7 2.87-4.8 5.02-1 2.23-2.3 4.4-3 6.77-0.9 2.65-1.8 5.26-2.7 7.9-0.7 2.91-1.4 5.83-2 8.78-0.3 2.93-1 5.83-0.8 8.83-0.3 1.36 0.2 3.82-0.9 4.59l-8.7 4.39z"/>
        <path id="path3704" d="m-1214.3 923.37c0.7-1.89 1.8-3.61 2.7-5.38 1.7-2.66 3.4-5.24 5.1-7.86 1.6-2.46 3-4.99 4.5-7.52 1.7-2.13 3.2-4.39 4.8-6.63 3.7-4.7 9.9-6.41 14.9-9.06 2.7-0.69 5.4-0.66 8.1-0.81l-6.8 5.04c-2.7 0.26-5.4 0.14-8 1.02-3.3 6.37 6.2-7.09-0.2 0.32-1.5 2.26-3 4.58-4.8 6.61-1.6 2.57-3.1 5.16-4.8 7.6-1.5 2.56-3.2 5.08-4.6 7.68-0.8 1.53-1.7 3.04-2.3 4.6l-8.6 4.39z"/>
      </g>
      <path id="path3956" d="m462.86 432.36a151.43 137.14 0 1 1 -302.86 0 151.43 137.14 0 1 1 302.86 0z" fill="url(#radialGradient5208)" transform="matrix(.43358 .19644 -.38981 .8154 273.84 -109.32)"/>
      <g id="g4100" stroke="#000" fill-rule="evenodd" transform="matrix(.53105 0 0 .57888 380.76 571.37)">
        <path id="path4102" stroke-width=".73356px" d="m-373.98-280.01c50.19 24.45 26.34 15.15 66.06 44.22 59.46-62.31 181.95-242.24 198-349.12-34.6-18.31-14.52 3.21-70.29-33.63-16.09 131.07-133.38 277.56-193.77 338.53z"/>
        <g id="g4104" transform="matrix(-.99673 -.080760 .080760 -.99673 -705.21 -747.42)" fill="#fff">
          <path id="path4106" d="m-451.29-424.97l55 2.7-25.98-86.03-29.02 83.33z"/>
          <path id="path4108" d="m-422.29-508.3l36.59 77.73-10.21 8.45"/>
        </g>
        <g id="g4110" transform="matrix(-.95487 .29701 -.29701 -.95487 -805.42 -613.87)" fill="#fff">
          <path id="path4112" d="m-451.29-424.97l55 2.7-25.98-86.03-29.02 83.33z"/>
          <path id="path4114" d="m-422.29-508.3l36.59 77.73-10.21 8.45"/>
        </g>
        <g id="g4116" transform="matrix(-.51132 .85939 -.85939 -.51132 -815.03 -301.51)" fill="#fff">
          <path id="path4118" d="m-451.29-424.97l55 2.7-25.98-86.03-29.02 83.33z"/>
          <path id="path4120" d="m-422.29-508.3l36.59 77.73-10.21 8.45"/>
        </g>
        <g id="g4122" transform="matrix(-.63527 .77229 -.77229 -.63527 -767.9 -424.71)" fill="#fff">
          <path id="path4124" d="m-451.29-424.97l55 2.7-25.98-86.03-29.02 83.33z"/>
          <path id="path4126" d="m-422.29-508.3l36.59 77.73-10.21 8.45"/>
        </g>
        <g id="g4128" transform="matrix(.57696 .81677 -.81677 .57696 -261.19 12.138)" fill="#fff">
          <path id="path4130" d="m-451.29-424.97l55 2.7-25.98-86.03-29.02 83.33z"/>
          <path id="path4132" d="m-422.29-508.3l36.59 77.73-10.21 8.45"/>
        </g>
        <g id="g4134" transform="matrix(-.75297 .65805 -.65805 -.75297 -839.21 -425.62)" fill="#fff">
          <path id="path4136" d="m-451.29-424.97l55 2.7-25.98-86.03-29.02 83.33z"/>
          <path id="path4138" d="m-422.29-508.3l36.59 77.73-10.21 8.45"/>
        </g>
        <g id="g4140" transform="matrix(-.52195 .85298 -.85298 -.52195 -764.27 -406.89)" fill="#fff">
          <path id="path4142" d="m-451.29-424.97l55 2.7-25.98-86.03-29.02 83.33z"/>
          <path id="path4144" d="m-422.29-508.3l36.59 77.73-10.21 8.45"/>
        </g>
      </g>
      <path id="path1878" d="m199.72 183.92c-6.14-31.53-9.42-104.4-55.68-101.54-46.267 2.866-124.87 87.21-129.38 113-4.501 25.79 72.878-13.1 111.36-9.83 38.49 3.28 24.16 23.34 42.58 22.93 18.43-0.41 37.26 6.96 31.12-24.56z" fill-rule="evenodd" stroke="#000" stroke-width="4.5854" fill="#fff"/>
      <path id="path1872" d="m462.86 432.36a151.43 137.14 0 1 1 -302.86 0 151.43 137.14 0 1 1 302.86 0z" transform="matrix(.50418 .41295 -.81158 .99088 358.39 -265.84)" stroke="#000" stroke-width="5.0189" fill="#fff"/>
      <path id="path1874" d="m240 628.08a78.571 55.714 0 1 1 -157.14 0 78.571 55.714 0 1 1 157.14 0z" stroke="#000" stroke-width="8" transform="matrix(.57318 0 0 .57318 -18.09 40.904)"/>
      <path id="path1876" d="m428.57 340.93a40 34.286 0 1 1 -80 0 40 34.286 0 1 1 80 0z" transform="matrix(.57318 0 0 .57318 -18.09 40.904)" stroke="#000" stroke-width="8" fill="#fff"/>
      <path id="path3677" d="m-211.43 88.076a15.714 15.714 0 1 1 -31.43 0 15.714 15.714 0 1 1 31.43 0z" stroke="#000" stroke-width="8" transform="matrix(.57318 0 0 .57318 325 189.11)"/>
      <g id="g3725" transform="matrix(.57318 0 0 .57318 641.88 188.29)">
        <path id="path3696" d="m-175.02 361.42c33.57 85 96.579 337.26 49.43 447.39-78.34 183.02-4.28 125.76-650.37 134.26-78.57 1.04-84.55-109-68.12-128.28 64.16-75.32 463.57 81.43 354.28 17.14-112.9-66.41-187.14-213.57-91.42-282.86" fill-rule="evenodd" stroke="#000" stroke-width="8" fill="#fff"/>
        <path id="path3719" d="m-829.54 885.71c-0.21-2.15-1-4.21-1.56-6.3-1.31-3.13-1.84-6.44-2.47-9.74-0.38-3.29-0.35-6.61-0.39-9.92-0.01-3.27 0-6.55 0.01-9.83-0.36-3.09 0.3-6.08 0.62-9.11 0.62-2.45 1.83-4.67 2.84-6.96 0.79-2.77 3.03-4.05 4.88-5.9 6.41-4.99 9.79-5.12 16.59-5.69 3.28-0.07 6.57-0.03 9.85-0.02s6.56 0.02 9.84 0.02l-6.9 5.01c-3.28 0-6.56 0-9.84-0.02-3.28-0.01-6.56-0.05-9.84 0.06-3.99 0.48-14.77 3.24-1.56-2.5-1.92 1.64-4.11 2.68-5 5.34-1.01 2.29-2.09 4.52-3 6.85-0.46 3.03-1.31 5.93-0.88 9.05-0.01 3.28-0.02 6.55-0.02 9.83 0.04 3.28 0 6.56 0.34 9.83 0.58 3.26 1.01 6.54 2.5 9.57 0.79 2.04 1.37 4.21 2.61 6.04l-8.62 4.39z"/>
        <path id="path3721" d="m-806.62 898.81c-0.45-2.08-0.59-4.24-0.87-6.36 0.03-2.94-0.7-5.77-1.29-8.63-0.53-3.09-0.47-6.23-0.59-9.34-0.12-3.28 0.7-6.49 1.26-9.7 1.79-5.99 7.08-6.68 12.66-9.51 3.1-0.43 6.23-0.29 9.35-0.32l-6.91 5.01c-3.13 0.09-6.3-0.09-9.38 0.63 0.59-0.4 2.5-0.1 2.08 0.48-0.62 3.12-1.62 6.27-1.45 9.51 0.14 3.05 0.1 6.13 0.66 9.15 0.55 2.89 1.26 5.74 1.29 8.7 0.53 2.01 0.34 4.32 1.81 5.99l-8.62 4.39z"/>
        <path id="path3723" d="m-788.6 920.1c0.16-2.18 0.59-4.32 0.88-6.48 0.3-2.95 1.32-5.71 2.14-8.53 0.71-2.41 2.6-4.05 4.01-5.99 3.74-4.38 7.46-5.87 12.93-8.92 0.43-0.11 0.85-0.21 1.27-0.32l-6.95 5.37c-0.42 0.15-0.83 0.3-1.25 0.45 12.63-7.53 4.62-3.21 2.23 0.01-1.5 1.84-3.42 3.41-4.25 5.73-0.97 2.75-2.19 5.44-2.35 8.41-0.05 1.95-0.76 3.93-0.05 5.88l-8.61 4.39z"/>
      </g>
      <path id="path3781" d="m238 189.79c6.14-31.52 9.41-104.4 55.68-101.53 46.26 2.864 124.87 87.2 129.37 113 4.5 25.79-72.88-13.11-111.36-9.83-38.49 3.28-34.21 20.98-36.16 22.93" fill-rule="evenodd" stroke="#000" stroke-width="4.5854" fill="#fff"/>
      <path id="path4190" opacity=".5" d="m260.82 176.55c5.25-15.04 9.77-50.27 42.06-46.84 32.28 3.42 84.72 47.82 87.08 60.54 2.37 12.72-50.62-10.83-77.62-9.67-26.83 1.16-30.03 7.43-33.97 8.49" fill="url(#radialGradient5253)" fill-rule="evenodd"/>
      <path id="path3862" d="m51.007 410.77c0.264 0.08-0.064 0.11-0.106 0.18-0.196 0.16-0.393 0.3-0.6 0.45-0.205 0.13-0.415 0.26-0.616 0.4-0.205 0.13-0.438 0.14-0.67 0.17-0.278-0.05-0.552-0.07-0.834-0.09-0.408-0.08-0.81-0.19-1.205-0.31-0.457-0.14-0.9-0.31-1.36-0.43-0.312-0.02-0.588-0.1-0.876-0.2-0.189-0.11-0.336-0.29-0.491-0.44-0.089-0.21-0.269-0.35-0.423-0.51-0.15-0.2-0.252-0.43-0.361-0.65-0.149-0.23-0.205-0.49-0.282-0.74-0.11-0.27-0.134-0.55-0.167-0.84-0.038-0.38-0.018-0.75-0.011-1.12-0.026-0.3-0.086-0.6-0.134-0.9-0.031-0.22-0.027-0.45-0.034-0.68-0.029-0.25 0.028-0.49 0.077-0.73 0.15-0.27 0.179-0.57 0.221-0.87 0.07-0.24 0.168-0.49 0.251-0.73 0.056-0.22 0.142-0.43 0.217-0.65 0.126-0.2 0.231-0.41 0.337-0.62 0.101-0.21 0.239-0.39 0.363-0.57 1.45-2.08 1.753-2.28 2.743-2.84 0.169-0.16 0.366-0.29 0.555-0.42 0.172-0.13 0.362-0.16 0.569-0.22 0.19-0.16 0.417-0.16 0.645-0.21 0.275-0.05 0.554-0.04 0.834-0.06 0.256-0.02 0.514-0.03 0.771-0.04 0.233-0.02 0.46 0.01 0.69 0.04 0.196 0.1 0.406 0.16 0.613 0.23 0.205 0.11 0.436 0.16 0.658 0.23 0.193 0.07 0.364 0.18 0.537 0.29 0.149 0.18 0.346 0.29 0.535 0.41 0.129 0.17 0.277 0.31 0.421 0.46 0.134 0.2 0.214 0.41 0.299 0.63 0.067 0.21 0.124 0.41 0.193 0.61 0.019 0.07 0.021 0.15 0.032 0.22l-2.426 2.33c-0.008-0.06-0.011-0.12-0.023-0.18-0.043-0.21-0.087-0.41-0.121-0.62-0.082-0.17-0.136-0.36-0.288-0.48-0.108-0.16-0.199-0.33-0.347-0.45-0.16-0.14-0.288-0.3-0.507-0.36-0.158-0.09-0.31-0.18-0.468-0.27-0.197-0.1-0.38-0.22-0.602-0.26-0.213-0.05-0.426-0.11-0.641-0.15-0.196-0.03-0.38-0.09-0.584-0.06-1.759-0.11-2.425 1.01-2.825 1.59-0.093 0.28-0.216 0.54-0.181 0.84-0.065 0.21-0.158 0.41-0.127 0.64-0.006 0.24-0.007 0.49-0.034 0.74-0.041 0.36-0.096 0.73-0.095 1.09 0.052 0.32 0.127 0.62 0.204 0.93 0.028 0.26 0.037 0.52 0.13 0.77 0.088 0.22 0.188 0.44 0.272 0.66 0.117 0.19 0.223 0.38 0.366 0.55 0.138 0.16 0.267 0.35 0.455 0.46 0.112 0.15 0.209 0.31 0.361 0.42 0.207 0.15 0.419 0.3 0.604 0.48 0.375 0.25 0.753 0.45 1.208 0.52 0.447 0.06 0.898 0.13 1.351 0.03 0.317-0.03 0.63-0.03 0.938-0.13 0.202-0.08 0.412-0.12 0.584-0.26 0.192-0.13 0.387-0.25 0.572-0.38 0.195-0.15 0.39-0.3 0.57-0.47 0.176-0.18 0.32-0.43 0.569-0.4l-2.306 2.97z" stroke="#000" stroke-width=".57318px" fill="#fff"/>
      <path id="path3866" d="m85.035 416.28c-0.264 0.08 0.064 0.11 0.106 0.18 0.197 0.16 0.393 0.31 0.6 0.45 0.205 0.13 0.416 0.26 0.616 0.4 0.205 0.13 0.438 0.14 0.67 0.17 0.278-0.04 0.552-0.07 0.834-0.08 0.408-0.09 0.81-0.2 1.205-0.32 0.457-0.13 0.9-0.3 1.361-0.43 0.311-0.02 0.587-0.1 0.875-0.2 0.189-0.11 0.337-0.28 0.491-0.44 0.09-0.2 0.27-0.35 0.423-0.51 0.15-0.2 0.252-0.43 0.361-0.65 0.149-0.23 0.205-0.49 0.282-0.73 0.11-0.28 0.135-0.56 0.167-0.85 0.038-0.37 0.019-0.75 0.011-1.12 0.026-0.3 0.086-0.6 0.135-0.89 0.031-0.23 0.027-0.46 0.033-0.69 0.029-0.25-0.028-0.49-0.077-0.73-0.15-0.27-0.179-0.57-0.221-0.86-0.069-0.25-0.168-0.49-0.251-0.74-0.055-0.22-0.142-0.43-0.217-0.65-0.125-0.2-0.23-0.41-0.336-0.62-0.102-0.21-0.24-0.38-0.364-0.57-1.45-2.08-1.753-2.28-2.743-2.84-0.169-0.16-0.366-0.28-0.554-0.42-0.173-0.13-0.363-0.16-0.57-0.22-0.189-0.16-0.417-0.16-0.645-0.2-0.274-0.06-0.554-0.05-0.833-0.07-0.257-0.02-0.514-0.03-0.772-0.03-0.233-0.03-0.46 0.01-0.689 0.03-0.197 0.1-0.407 0.16-0.614 0.23-0.205 0.11-0.435 0.17-0.658 0.23-0.193 0.07-0.364 0.19-0.536 0.3-0.149 0.17-0.347 0.28-0.535 0.41-0.13 0.16-0.277 0.3-0.422 0.45-0.134 0.2-0.214 0.42-0.298 0.64-0.067 0.2-0.125 0.4-0.193 0.6-0.019 0.07-0.022 0.15-0.032 0.22l2.425 2.33c0.008-0.06 0.011-0.12 0.024-0.18 0.042-0.21 0.086-0.41 0.12-0.62 0.082-0.17 0.137-0.36 0.288-0.48 0.108-0.16 0.2-0.33 0.347-0.45 0.161-0.13 0.288-0.3 0.507-0.36 0.158-0.08 0.311-0.18 0.469-0.27 0.196-0.1 0.379-0.22 0.601-0.26 0.214-0.05 0.426-0.11 0.642-0.14 0.196-0.04 0.379-0.1 0.583-0.07 1.759-0.11 2.425 1.02 2.825 1.6 0.093 0.27 0.216 0.53 0.181 0.83 0.066 0.21 0.158 0.41 0.127 0.64 0.006 0.25 0.007 0.5 0.034 0.74 0.042 0.37 0.096 0.73 0.095 1.09-0.052 0.32-0.127 0.62-0.204 0.93-0.028 0.26-0.037 0.53-0.129 0.77-0.089 0.22-0.189 0.44-0.273 0.66-0.117 0.19-0.223 0.38-0.365 0.55-0.139 0.16-0.267 0.35-0.456 0.46-0.112 0.15-0.209 0.31-0.361 0.42-0.207 0.16-0.419 0.3-0.604 0.48-0.374 0.25-0.752 0.45-1.207 0.52-0.448 0.07-0.899 0.13-1.351 0.03-0.317-0.02-0.63-0.03-0.939-0.13-0.201-0.08-0.411-0.12-0.583-0.26-0.193-0.12-0.387-0.24-0.572-0.38-0.195-0.15-0.391-0.3-0.57-0.46-0.176-0.19-0.321-0.44-0.57-0.41l2.306 2.97z" stroke="#000" stroke-width=".57318px" fill="#fff"/>
      <path id="path3966" d="m66.519 407.73c-1.317 12.51-3.21 17.31 5.596 25.11 10.592 9.37 44.165-8.27 45.415-14.48" stroke="#fff" stroke-width=".57318px" fill="none"/>
      <path id="path4094" d="m-917.39-109.03a17.429 9.5066 0 1 1 -34.86 0 17.429 9.5066 0 1 1 34.86 0z" stroke="#000" transform="matrix(.57318 0 0 .57318 641.88 188.29)"/>
      <path id="path4890" opacity=".6" d="m24.621 362.78c-32.052 46.94-6.792 45.69 20.402-12.01 2.543-93.46 125.92-183.43 143.47-180.1 32.06-46.93 33.68-15.54-15.26-13.91-33.96 6.46-157.16 123.81-148.61 206.02z" fill="url(#radialGradient5246)" fill-rule="evenodd"/>
      <path id="path4096" d="m-917.39-109.03a17.429 9.5066 0 1 1 -34.86 0 17.429 9.5066 0 1 1 34.86 0z" stroke="#000" transform="matrix(.57318 0 0 .57318 615.55 225.53)"/>
      <path id="path4098" d="m-917.39-109.03a17.429 9.5066 0 1 1 -34.86 0 17.429 9.5066 0 1 1 34.86 0z" stroke="#000" transform="matrix(.57318 0 0 .57318 663.68 220.99)"/>
      <path id="path4146" d="m264.67 185.02c5.26-15.03 9.78-50.27 42.06-46.84 32.29 3.43 84.72 47.82 87.09 60.54 2.36 12.72-50.62-10.83-77.63-9.67-26.82 1.16-30.02 7.43-33.96 8.5" fill="#ffe4ff" fill-rule="evenodd"/>
      <path id="path4166" opacity=".5" d="m283.2 550.54c-1.97-13.48 9.52-33.66 23.84-45.82 0.73-19.74-32.77-34.09-32.77-34.09l-8.92 65.53s11.02 14.68 17.85 14.38z" fill="url(#linearGradient5240)" fill-rule="evenodd"/>
      <path id="path4178" d="m282.83 163.09c2.91-5.31 5.41-17.76 23.28-16.55 17.86 1.21 46.87 16.9 48.18 21.4 1.31 4.49-28.01-3.83-42.95-3.42-14.84 0.41-16.61 2.62-18.79 3" fill="#ffcdff" fill-rule="evenodd"/>
      <path id="path4180" d="m238.5 188.65c-9.61 4.08-5.07-27.29-20.15-28.62-14.81-0.4 20.64-24.28 28.23-16.96-1.96 10.63-8.95 38.99-8.08 45.58z" fill="url(#linearGradient5236)" fill-rule="evenodd"/>
      <path id="path4200" d="m128.89 187.86c18.36-20.03 55.09-35.22 65.63-38.03-4.97-18.46-9.36-32.47-13.03-42.89-59.95-85.423-118.59 84.97-90.277 82.22 31.867-11.29 34.827-3.08 37.677-1.3z" fill="url(#linearGradient5233)" fill-rule="evenodd"/>
      <path id="path4306" d="m187.73 644.65c25.01-0.48 39.01-3.57 52.69 0.03 1.4-22.31 6.93-24.78 11.3-39.76-10.12-12.28-35.43-16.51-51.42-6.57-6.43 18.53-6.36 28.03-12.57 46.3z" fill="url(#linearGradient5230)" fill-rule="evenodd"/>
      <path id="path4284" d="m306.58 503.75c70.28-68.38 159.33-78.43 227.37-8.21 3.15 3.25 30.8-60.9-2.52-110.01-34.92-51.45-186.04-31.01-211.87 13.68-15.61 27.01-40.02 130.84-12.98 104.54z" fill="url(#radialGradient5227)" fill-rule="evenodd"/>
      <path id="path2770" d="m428.57 340.93a40 34.286 0 1 1 -80 0 40 34.286 0 1 1 80 0z" transform="matrix(.57318 0 0 .57318 -111.44 32.716)" stroke="#000" stroke-width="8" fill="#fff"/>
      <path id="path3675" d="m-211.43 88.076a15.714 15.714 0 1 1 -31.43 0 15.714 15.714 0 1 1 31.43 0z" stroke="#000" stroke-width="8" transform="matrix(.57318 0 0 .57318 230.83 180.1)"/>
    </g>
  </g>
  <metadata>
    <rdf:RDF>
      <cc:Work>
        <dc:format>image/svg+xml</dc:format>
        <dc:type rdf:resource="http://purl.org/dc/dcmitype/StillImage"/>
        <cc:license rdf:resource="http://creativecommons.org/licenses/publicdomain/"/>
        <dc:publisher>
          <cc:Agent rdf:about="http://openclipart.org/">
            <dc:title>Openclipart</dc:title>
          </cc:Agent>
        </dc:publisher>
        <dc:title>Dog</dc:title>
        <dc:date>2006-12-30T13:59:23</dc:date>
        <dc:description>animal, animal, bulli, bulli, bullterrier, bullterrier, cartoon, cartoon, clip art, clipart, dog, dog, image, media, png, public domain, svg, </dc:description>
        <dc:source>http://openclipart.org/detail/2501/dog-by-drunken_duck</dc:source>
        <dc:creator>
          <cc:Agent>
            <dc:title>drunken_duck</dc:title>
          </cc:Agent>
        </dc:creator>
        <dc:subject>
          <rdf:Bag>
            <rdf:li>animal</rdf:li>
            <rdf:li>bulli</rdf:li>
            <rdf:li>bullterrier</rdf:li>
            <rdf:li>cartoon</rdf:li>
            <rdf:li>clip art</rdf:li>
            <rdf:li>clipart</rdf:li>
            <rdf:li>dog</rdf:li>
            <rdf:li>image</rdf:li>
            <rdf:li>media</rdf:li>
            <rdf:li>png</rdf:li>
            <rdf:li>public domain</rdf:li>
            <rdf:li>svg</rdf:li>
          </rdf:Bag>
        </dc:subject>
      </cc:Work>
      <cc:License rdf:about="http://creativecommons.org/licenses/publicdomain/">
        <cc:permits rdf:resource="http://creativecommons.org/ns#Reproduction"/>
        <cc:permits rdf:resource="http://creativecommons.org/ns#Distribution"/>
        <cc:permits rdf:resource="http://creativecommons.org/ns#DerivativeWorks"/>
      </cc:License>
    </rdf:RDF>
  </metadata>
</svg>
