<?xml version="1.0" encoding="UTF-8"?>
<!DOCTYPE svg PUBLIC "-//W3C//DTD SVG 1.1//EN" "http://www.w3.org/Graphics/SVG/1.1/DTD/svg11.dtd">
<svg version="1.1" xmlns="http://www.w3.org/2000/svg" xmlns:xlink="http://www.w3.org/1999/xlink" x="0" y="0" width="1110" height="835" viewBox="0, 0, 1110, 835">
  <g id="Layer_1">
    <path d="M786.374,803.786 C788.507,777.122 778.91,693.653 796.507,608.899 C801.156,586.513 769.582,591.692 748.476,589.653 C717.949,586.704 686.632,584.911 655.914,586.696 C652.835,628.099 669.222,790.743 671.175,802.72 C685.042,822.552 769.843,820.685 786.374,803.786" fill="#B5CCE0"/>
    <path d="M788.507,673.653 C747.976,662.989 727.277,639.474 705.441,644.423 C654.96,655.856 659.894,687.052 663.804,730.466 C664.605,739.349 664.777,748.321 679.707,803.786 C694.64,714.188 739.441,686.458 788.507,673.653" fill="#98B8D6"/>
    <path d="M786.374,803.786 C788.507,777.122 778.91,693.653 796.507,608.899 C801.156,586.513 769.582,591.692 748.476,589.653 C717.949,586.704 686.632,584.911 655.914,586.696 C652.835,628.099 669.222,790.743 671.175,802.72 C705.699,815.716 763.035,825.044 786.374,803.786 z M670.109,728.052 C682.91,715.255 719.175,716.325 727.707,720.591 M667.976,738.724 C680.203,731.966 712.531,729.466 725.574,734.454" fill-opacity="0" stroke="#1A1919" stroke-width="5.669" stroke-linecap="round" stroke-linejoin="round"/>
    <path d="M769.839,812.856 C756.316,820.317 691.98,822.552 668.511,804.856 C666.707,782.454 693.48,785.919 699.792,813.653 C701.597,795.521 728.207,797.388 736.324,817.653 C735.425,794.185 764.433,789.388 769.839,812.856" fill="#FFFFFE"/>
    <path d="M769.839,812.856 C756.316,820.317 691.98,822.552 668.511,804.856 C666.707,782.454 693.48,785.919 699.792,813.653 C701.597,795.521 728.207,797.388 736.324,817.653 C735.425,794.185 764.433,789.388 769.839,812.856 z" fill-opacity="0" stroke="#1A1919" stroke-width="5.669" stroke-linecap="round" stroke-linejoin="round"/>
    <path d="M996.847,275.458 C1021.54,301.247 1029.87,326.567 1045.91,358.653 C1055.52,377.856 1071.52,414.653 1106.72,437.056 C1076.31,446.653 1045.11,391.911 1031.52,376.255 C1011.36,353.044 988.3,297.657 988.644,267.044" fill="#C5D6E5"/>
    <path d="M996.847,275.458 C1021.54,301.247 1029.87,326.56 1045.91,358.642 C1053.41,373.645 1055.52,403.458 1071.52,425.856 C1057.7,421.161 1041.05,387.247 1031.52,376.255 C1011.36,353.044 988.3,297.657 988.644,267.044" fill="#9DBDDA"/>
    <path d="M996.847,275.458 C1021.54,301.247 1029.87,326.567 1045.91,358.653 C1055.52,377.856 1071.52,414.653 1106.72,437.056 C1076.31,446.653 1045.11,391.911 1031.52,376.255 C1011.36,353.044 988.3,297.657 988.644,267.044" fill-opacity="0" stroke="#1A1919" stroke-width="5.669" stroke-linecap="round" stroke-linejoin="round"/>
    <path d="M539.207,234.833 C463.996,265.513 362.457,240.845 312.832,322.067 C276.777,381.091 308.871,427.302 314.769,491.458 C322.714,577.856 376.902,618.88 383.511,659.458 C389.261,694.767 393.691,794.556 390.98,818.919 C416.582,834.919 494.441,833.856 509.378,817.856 C510.933,787.763 510.441,700.521 508.316,670.661 C534.98,680.255 602.175,695.188 635.246,695.188 C690.8,695.188 790.98,683.454 842.714,664.255 C856.042,675.989 860.847,767.724 860.308,797.056 C884.308,816.255 953.113,826.653 984.042,802.919 C985.699,746.38 983.597,688.841 996.308,616.255 C1011.7,528.38 1037.7,500.38 1039.7,390.38 C1041.01,318.692 1026.77,232.942 923.699,191.716 C870.363,170.38 818.386,175.192 771.699,175.716 C746.363,175.997 683.48,148.403 658.714,151.188 C616.613,155.927 587.808,166.95 549.378,185.099 C566.433,215.47 574.308,220.513 539.207,234.833" fill="#C5D6E5"/>
    <path d="M846.441,666.388 C859.246,698.388 861.371,800.833 861.378,800.786 C869.91,762.388 863.511,672.79 918.98,625.856 C901.91,640.79 867.777,659.989 846.441,666.388" fill="#9DBDDA"/>
    <path d="M582.972,659.521 C571.144,652.392 567.519,643.286 566.98,636.521 C570.019,674.595 477.378,655.724 445.378,630.122 C470.98,664.255 522.355,673.216 536.894,679.188 C565.144,690.802 605.089,695.192 635.261,695.188 C698.589,695.185 837.91,679.192 904.042,634.388 C884.988,642.817 831.66,662.856 801.699,666.38 C765.433,670.645 745.699,666.38 716.308,645.056 C703.511,674.923 693.011,674.923 667.457,674.923 C645.675,674.923 626.464,679.153 605.183,670.942 C600.933,669.302 591.925,664.927 582.972,659.521" fill="#9DBDDA"/>
    <path d="M434.714,617.325 C496.582,687.724 502.98,773.056 509.378,811.458 C509.378,792.255 509.363,734.919 509.378,732.521 C509.542,712.161 507.246,698.388 509.378,674.923 C490.418,659.895 452.824,633.517 434.714,617.325" fill="#9DBDDA"/>
    <path d="M539.152,232.974 C527.816,234.567 518.941,241.29 500.769,246.103 C478.418,252.02 454.535,253.188 431.753,256.849 C384.699,264.407 339.027,279.192 312.832,322.067 C280.644,374.763 310.566,421.603 309.542,476.06 C309.144,497.528 317.097,514.888 329.097,532.028 C341.019,549.067 313.652,562.88 325.91,581.056 C337.058,597.583 378.75,560.47 392.363,543.712 C409.699,522.38 402.785,523.958 424.363,502.38 C436.363,490.38 447.746,486.575 462.441,480.79 C478.949,474.294 488.347,452.017 502.98,440.255 C541.378,438.122 549.91,385.868 554.707,355.474 C556.003,347.294 558.839,363.317 559.253,364.595 C563.785,378.411 545.019,402.731 545.644,416.786 C546.55,437.263 548.933,454.462 577.644,453.056 C594.16,452.247 621.457,434.138 637.16,427.517 C657.636,418.88 681.339,429.7 699.246,421.099 C719.503,411.364 722.574,381.665 741.441,371.946 C759.121,362.841 787.847,380.517 797.378,354.923 C804.41,336.044 742.074,233.528 724.847,224.786 C686.371,205.27 675.824,291.048 636.91,275.513 C613.058,265.993 592.691,248.938 568.988,238.868 C555.535,233.149 546.785,231.903 539.152,232.974" fill="#9DBDDA"/>
    <g>
      <path d="M539.207,234.833 C463.996,265.513 362.457,240.845 312.832,322.067 C276.777,381.091 308.871,427.302 314.769,491.458 C322.714,577.856 373.691,619.536 383.511,659.458 C396.363,711.716 393.07,800.13 390.98,818.919 C416.582,834.919 494.441,833.856 509.378,817.856 C510.933,787.763 510.441,700.521 508.316,670.661 C534.98,680.255 602.175,695.188 635.246,695.188 C690.8,695.188 790.98,683.454 842.714,664.255 C856.042,675.989 860.847,767.724 860.308,797.056 C884.308,816.255 953.113,826.653 984.042,802.919 C985.699,756.38 987.183,689.38 996.308,616.255 C1000.01,586.649 1016.47,546.489 1025.7,506.38 C1034.94,466.27 1039.7,436.38 1041.7,386.38 C1044.26,322.431 1030.37,234.38 921.035,191.716 C873.152,173.028 818.289,175.196 771.699,175.716 C746.363,175.997 691.699,159.716 658.714,151.188 C617.691,140.587 587.808,166.95 549.378,185.099 C566.433,215.47 574.308,220.513 539.207,234.833 z" fill-opacity="0" stroke="#1A1919" stroke-width="5.669" stroke-linecap="round" stroke-linejoin="round"/>
      <path d="M581.699,34.379 C625.699,39.715 653.882,81.731 681.699,115.712 C710.871,151.345 750.714,217.427 775.699,272.38 C787.246,297.786 805.699,338.38 758.98,348.52 C744.644,351.634 726.386,355.009 715.035,365.044 C699.472,378.798 693.777,394.63 677.91,403.989 C669.418,409.001 635.691,404.325 622.441,408.255 C610.824,411.7 601.113,431.724 573.378,435.989 C541.472,440.899 541.378,418.923 535.511,382.653 C517.91,413.056 486.972,431.841 487.035,431.716 C468.363,466.38 433.699,483.442 393.699,477.044 C380.812,474.981 260.308,448.255 225.113,405.056 C218.714,446.653 205.91,449.856 194.714,448.255 C169.714,444.685 169.113,430.653 140.308,427.458 C123.996,425.645 91.698,432.38 75.698,422.38 C66.003,416.317 52.901,380.778 17.698,382.38 C-16.732,383.942 15.698,291.583 23.698,264.38 C39.046,212.2 75.565,139.981 128.363,82.379 C158.05,49.993 177.3,31.981 231.699,86.379 C255.699,58.379 318.128,30.286 356.308,27.458 C399.511,24.254 476.097,43.981 509.699,82.379 C536.683,63.969 565.113,32.364 581.699,34.379" fill="#C5D6E5"/>
    </g>
    <path d="M564.363,77.043 C542.363,125.044 561.16,167.481 579.699,202.38 C606.902,253.579 615.457,290.415 607.699,328.38 C603.398,349.419 574.441,390.653 539.246,401.856 C532.847,395.458 537.113,398.653 537.113,384.255 C577.699,354.38 586.121,278.708 559.035,214.38 C552.824,199.63 503.031,112.38 564.363,77.043" fill="#9DBDDA"/>
    <path d="M197.699,228.38 C194.457,238.997 189.078,270.95 187.699,300.38 C186.207,332.255 183.3,366.38 221.699,406.38 C223.699,430.38 225.937,439.173 215.699,436.38 C179.035,426.38 161.121,368.923 157.699,353.044 C143.035,285.044 189.128,188.438 191.035,163.716 C193.699,129.048 192.363,106.38 165.699,85.043 C208.363,75.715 210.703,128.227 211.488,141.614 C213.168,170.38 206.039,201.052 197.699,228.38" fill="#9DBDDA"/>
    <path d="M587.035,34.379 C631.542,36.997 675.542,103.841 708.363,150.38 C738.339,192.872 758.316,236.563 769.699,258.38 C793.699,304.38 797.3,331.583 771.699,344.38 C758.578,350.942 727.718,355.009 716.363,365.044 C700.804,378.798 704.363,391.716 677.91,403.989 C668.964,408.138 635.691,404.325 622.441,408.255 C610.824,411.7 601.113,431.724 573.378,435.989 C541.472,440.899 543.566,422.645 537.699,386.38 C515.035,411.712 486.972,431.841 487.035,431.716 C475.035,453.044 449.699,475.716 412.363,479.716 C394.23,481.657 399.46,480.384 379.035,475.716 C366.308,472.806 263.035,451.716 225.699,406.38 C225.699,448.38 205.91,449.856 194.714,448.255 C169.714,444.685 169.113,430.653 140.308,427.458 C123.996,425.645 109.699,436.38 79.698,424.38 C54.456,414.286 66.706,382.333 23.698,384.38 C-10.728,386.02 5.518,306.841 15.698,280.38 C35.698,228.38 82.233,131.981 135.035,74.379 C164.722,41.993 189.699,35.715 231.699,90.379 C259.035,55.715 309.074,31.473 357.699,29.043 C411.035,26.379 476.363,42.379 507.699,84.379 C539.699,56.379 564.367,33.047 587.035,34.379 z M315.246,7.192 C324.441,19.266 331.035,34.379 330.175,49.856 M340.308,3.457 C349.91,17.856 353.433,33.313 355.035,47.715 M370.109,6.354 C383.859,19.531 383.437,29.762 381.699,43.715" fill-opacity="0" stroke="#1A1919" stroke-width="5.669" stroke-linecap="round" stroke-linejoin="round"/>
    <path d="M268.308,168.255 C281.378,148.134 308.816,165.036 314.714,176.255" fill="#C5D6E5"/>
    <path d="M268.308,168.255 C281.378,148.134 308.816,165.036 314.714,176.255" fill-opacity="0" stroke="#1A1919" stroke-width="5.669" stroke-linecap="round" stroke-linejoin="round"/>
    <path d="M381.91,171.458 C398.98,139.458 426.714,150.653 433.113,163.458" fill="#C5D6E5"/>
    <path d="M381.91,171.458 C398.98,139.458 426.714,150.653 433.113,163.458" fill-opacity="0" stroke="#1A1919" stroke-width="5.669" stroke-linecap="round" stroke-linejoin="round"/>
    <path d="M292.308,265.856 C280.324,265.856 281.113,245.056 292.308,245.056 C305.113,245.056 301.91,265.856 292.308,265.856" fill="#1A1919"/>
    <path d="M417.113,261.056 C405.285,263.028 402.714,243.458 413.91,241.856 C428.168,239.817 426.714,259.458 417.113,261.056" fill="#1A1919"/>
    <path d="M445.699,450.38 C456.363,439.716 455.035,417.044 434.714,398.653 C433.878,397.903 419.621,431.884 416.66,435.099 C408.355,444.122 387.402,434.747 401.699,449.044 C421.699,469.044 438.097,457.981 445.699,450.38" fill="#E18E9A"/>
    <path d="M445.699,450.38 C456.363,439.716 455.035,417.044 434.714,398.653 C433.878,397.903 419.621,431.884 416.66,435.099 C408.355,444.122 387.402,434.747 401.699,449.044 C421.699,469.044 438.097,457.981 445.699,450.38 z" fill-opacity="0" stroke="#1A1919" stroke-width="5.669" stroke-linecap="round" stroke-linejoin="round"/>
    <path d="M287.511,395.458 C287.511,434.528 289.113,465.856 281.113,505.856 C276.933,526.751 268.777,581.231 248.089,593.372 C231.425,603.157 200.355,603.45 180.308,603.458 C161.371,603.458 136.503,591.56 120.589,604.974 C108.292,615.349 104.402,636.989 126.449,640.356 C136.261,641.856 147.011,623.618 156.308,641.856 C162.566,654.114 147.074,655.044 148.308,667.458 C149.785,682.208 160.589,688.13 185.113,669.056 C199.511,657.856 235.843,664.364 275.035,653.044 C335.035,635.716 377.742,568.368 389.699,547.716 C407.3,517.313 433.699,457.044 437.91,401.856" fill="#C5D6E5"/>
    <path d="M287.511,395.458 C287.511,434.528 289.113,465.856 281.113,505.856 C276.933,526.751 268.777,581.231 248.089,593.372 C231.425,603.157 200.355,603.45 180.308,603.458 C161.371,603.458 136.503,591.56 120.589,604.974 C108.292,615.349 104.402,636.989 126.449,640.356 C136.261,641.856 147.011,623.618 156.308,641.856 C162.566,654.114 147.074,655.044 148.308,667.458 C149.785,682.208 160.589,688.13 185.113,669.056 C199.511,657.856 235.843,664.364 275.035,653.044 C335.035,635.716 377.742,568.368 389.699,547.716 C407.3,517.313 433.699,457.044 437.91,401.856" fill-opacity="0" stroke="#1A1919" stroke-width="5.669" stroke-linecap="round" stroke-linejoin="round"/>
    <path d="M419.035,385.044 C427.621,403.704 451.031,409.044 461.699,395.716" fill="#C5D6E5"/>
    <g>
      <path d="M419.035,385.044 C427.621,403.704 451.031,409.044 461.699,395.716 M536.363,389.044 C573.164,342.645 587.035,302.38 567.035,242.38 C553.597,202.067 511.035,110.38 553.699,80.379 M191.699,88.379 C239.699,140.38 184.042,225.099 187.699,310.38 C189.699,357.044 199.511,376.255 226.714,408.255 M287.511,433.856 C300.48,404.591 354.714,401.856 372.308,424.255 M287.511,463.724 C303.511,443.458 340.41,443.157 361.113,461.056 M282.714,501.056 C297.441,480.966 334.238,484.091 349.91,496.255 M277.91,529.856 C290.097,520.856 324.847,520.255 335.511,533.056 M443.246,626.919 C459.246,647.724 481.644,662.653 507.246,670.653" fill-opacity="0" stroke="#1A1919" stroke-width="5.669" stroke-linecap="round" stroke-linejoin="round"/>
      <path d="M488.042,826.388 C473.113,831.724 412.308,835.989 392.042,821.056 C384.582,797.591 412.316,799.72 419.777,827.454 C421.91,809.321 445.378,809.321 454.98,829.591 C453.91,806.122 481.644,810.388 488.042,826.388" fill="#FFFFFE"/>
      <path d="M488.042,826.388 C473.113,831.724 412.308,835.989 392.042,821.056 C384.582,797.591 412.316,799.72 419.777,827.454 C421.91,809.321 445.378,809.321 454.98,829.591 C453.91,806.122 481.644,810.388 488.042,826.388 z" fill-opacity="0" stroke="#1A1919" stroke-width="5.669" stroke-linecap="round" stroke-linejoin="round"/>
    </g>
    <path d="M967.511,811.458 C951.511,818.919 887.511,825.856 858.714,806.653 C856.582,784.255 880.042,786.122 887.511,813.856 C889.644,795.724 921.113,797.591 930.714,817.856 C929.644,794.388 961.113,787.989 967.511,811.458" fill="#FFFFFE"/>
    <g>
      <path d="M967.511,811.458 C951.511,818.919 887.511,825.856 858.714,806.653 C856.582,784.255 880.042,786.122 887.511,813.856 C889.644,795.724 921.113,797.591 930.714,817.856 C929.644,794.388 961.113,787.989 967.511,811.458 z M837.91,666.653 C860.308,657.856 878.441,650.388 904.042,633.321" fill-opacity="0" stroke="#1A1919" stroke-width="5.669" stroke-linecap="round" stroke-linejoin="round"/>
      <path d="M705.113,736.255 C704.902,712.81 706.925,689.528 711.339,666.505 C714.011,652.548 725.972,633.521 725.019,620.024 C723.238,594.825 686.347,580.583 665.089,578.919 C641.011,577.036 612.449,582.474 589.918,590.606 C557.589,602.274 558.285,610.56 569.136,638.813 C589.621,692.145 583.574,758.489 582.98,814.653 C594.714,835.989 704.582,831.724 703.511,813.591 C704.933,788.364 705.339,761.442 705.113,736.255" fill="#C5D6E5"/>
      <path d="M562.714,629.056 C586.714,651.458 581.871,800.552 581.699,817.044 C593.433,838.38 704.582,831.724 703.511,813.591 C704.933,788.364 705.339,761.442 705.113,736.255 C704.816,703.911 708.574,667.138 719.511,637.056" fill-opacity="0" stroke="#1A1919" stroke-width="5.669" stroke-linecap="round" stroke-linejoin="round"/>
      <path d="M685.378,824.786 C669.378,832.255 604.363,838.38 582.98,820.521 C577.644,801.856 604.898,801.31 612.363,829.044 C614.5,810.911 641.644,807.724 651.246,827.989 C650.175,804.521 678.98,801.321 685.378,824.786" fill="#FFFFFE"/>
      <path d="M685.378,824.786 C669.378,832.255 604.363,838.38 582.98,820.521 C577.644,801.856 604.898,801.31 612.363,829.044 C614.5,810.911 641.644,807.724 651.246,827.989 C650.175,804.521 678.98,801.321 685.378,824.786 z M392.363,727.716 C403.031,719.716 429.964,717.579 441.699,722.38 M393.699,742.38 C407.035,735.716 431.035,734.38 441.699,739.716 M582.98,730.388 C585.332,718.177 627.777,718.653 635.246,725.052 M583.511,741.056 C595.738,734.302 623.269,736.067 636.308,741.056 M857.113,728.255 C866.714,717.591 904.042,712.255 911.511,718.653 M859.246,741.052 C871.472,734.302 899.535,729.669 912.582,734.653" fill-opacity="0" stroke="#1A1919" stroke-width="5.669" stroke-linecap="round" stroke-linejoin="round"/>
    </g>
  </g>
</svg>
