<?xml version="1.0" encoding="utf-8"?>

<!DOCTYPE svg PUBLIC "-//W3C//DTD SVG 1.1//EN" "http://www.w3.org/Graphics/SVG/1.1/DTD/svg11.dtd">
<svg version="1.1" id="Layer_1" xmlns="http://www.w3.org/2000/svg" xmlns:xlink="http://www.w3.org/1999/xlink" x="0px" y="0px"
	 viewBox="-64.5392 -32.3705 2049.0784 1027.741" enable-background="new -64.5392 -32.3705 2049.0784 1027.741"
	 xml:space="preserve">
<g>
	<path fill="#C1942D" d="M1250.97,0.89c12.17,10.53,23.88,21.62,35.8201,32.43c0.84,0.89,2.1699,0.39,3.22,0.18
		c14.3199-4.11,28.64-8.23,42.98-12.25c-6.5699,11.37-14.55,21.94-21.55,33.05c-0.45,1.03-0.25,1.91,0.6101,2.66
		c8.1399,9.17,16.33,18.3,24.45,27.5c4.15,4.87,8.8199,9.33,12.5699,14.53c-6.7-2.14-12.97-5.4-19.6399-7.57
		c-3.4601-1.74-7.0801-3.12-10.7001-4.46c-13.5499-5.66-27.09-11.39-40.8099-16.6c-3.2201,8.88-6.3301,17.8-9.4701,26.7
		c-2.7999-1.26-4.2799-4.11-6.23-6.32c-7.8199-9.51-15.5399-19.11-23.46-28.54c-14.3,13.79-27.9401,28.26-42.37,41.91
		c0.0699-8.45,1.2999-16.85,1.3199-25.31c-11.1599,5.41-21.4299,12.51-32.24,18.59c-3.65,2.42-7.9299,3.94-11.1,7.02
		c-1.0699-0.05-2.13-0.09-3.17-0.12c-3.26-0.04-6.25,1.38-9.2699,2.36c-8.4901,2.97-16.5601,6.97-24.9,10.29
		c14.98-14.31,30.71-27.84,46-41.84c0.96-1.14,2.89-1.87,2.7999-3.6c-7.6599-2.61-15.5-4.68-23.11-7.4
		c-0.1799-0.27-0.5399-0.8-0.72-1.07c25.0601-5.61,50.11-11.4,75.05-17.56c-9.2001-8.67-19.0901-16.59-28.13-25.42
		c8.22,0.8,16.1699,3.31,24.2999,4.72c16.9401,3.64,33.87,7.32,50.86,10.72C1260.75,23.62,1254.26,12.77,1250.97,0.89z"/>
	<path fill="#C5C836" d="M724.15,54.42c18.13-9.58,39.54-14.06,59.74-9.15c17.66,4.56,33.28,14.99,46.2,27.64
		c23.1,21.98,40.91,49.01,65.23,69.78c14.2,12.08,31.08,21.74,49.7,24.64c4.69,0.68,9.41,1.18,14.16,1.33
		c0.56,3.1,1.41,6.16,1.64,9.32c-9.9,4.73-20.75,12.1-22.06,23.97c-0.14,7.54,4.16,14.65,9.97,19.26
		c9.8,8.13,22.45,11.8,34.87,13.51c1.13-0.12,1.14,1.64-0.0699,1.41c-11.38,1.23-23.04-1.39-33.16-6.62
		c-8.42-4.59-16.01-11.82-18.61-21.31c-1.13-6.6-0.76-13.75,2.84-19.59c1.94-4.28,5.75-7.19,8.38-10.96
		c-4.85-1.48-9.98-1.69-14.83-3.18c-17.27-4.98-32.77-14.75-46.35-26.35c-23.86-20.49-42.5-46.2-65.98-67.08
		c-11.77-9.81-25.59-18.03-41.03-20.01c-16.13-2.15-31.99,3.08-46.94,8.55c11.37-2.15,23.7401-3.91,34.65,1.15
		c14.46,6.04,22.39,20.94,27.14,35.06c0.77,2.55,1.58,5.08,2.58,7.55c2.69,10.16,5.39,20.31,7.66,30.58
		c0.76,3.24,1.82,7.5,5.53,8.43c6.54,1,13.15-0.35,19.4901-1.94c1.28-0.33,2.55-0.68,3.85-1.03l2.18,0.47
		c0.02-0.27,0.08-0.82,0.1-1.1c9.77-2.19,19.84-4.62,29.89-2.67c7.57,1.28,13.98,6.78,17.23,13.61c2.93,6,1.41,13.57-3.12,18.36
		c-9.4301,10.7-24.11,14.37-34.48,23.91c-4.04,2.78-4.32,8.96-0.26,11.86c10.47,7.31,23.72,8.07,35.73,11.29
		c8.28,2.19,17.06,4.29,23.6,10.2c0.12,2.14,0.17,4.29,0.14,6.45c-8.51,8.36-16.91,18.06-19.03,30.18
		c-0.99,6.83,1.77,13.97,6.67,18.75c5.4,5.8,12.65,9.28,19.5699,12.9c-5.74,0.56-11.0099-2.33-15.96-4.81
		c-8.64-4.42-15.61-12.86-16.49-22.74c-0.89-11.7,4.88-22.7,11.94-31.61c1.2599-1.79,3.63-3.24,3.19-5.71
		c-16.86-6.28-35.7-5.42-51.9901-13.43c-1.41-0.78-2.78-1.64-4.08-2.55c-5.28-4.13-8.91-10.97-7.75-17.78
		c0.85-6.26,5.43-11.17,10.07-15.08c1.8-1.41,3.66-2.75,5.56-4.04c7.4-5.09,15.69-8.95,22.37-15.04c2.03-1.52,2.79-4.64,1.06-6.68
		c-2.62-3.81-7.65-4.69-11.96-4.48c-5.53,0.41-10.91,1.86-16.25,3.23c-1.94,0.51-3.88,1.01-5.81,1.5
		c-9.27,2.47-18.97,5.27-28.61,3.35c-6.11-1.15-11.4-5.27-14.48-10.6c-3.01-5.29-4.04-11.36-5.71-17.15
		c-3.56-13.18-6.89-26.58-13.17-38.79c-0.95-1.76-1.94-3.5-3-5.19c-4.08-6.64-11.07-11.61-18.94-12.28
		c-14.41-1.43-28.4,3.2-42.1,6.96c1.86,2.28,4.36,3.86,6.7,5.61c0.33,0.29,1,0.87,1.34,1.16c7.31,7.2,14.25,15.39,16.84,25.57
		c2.06,9.3,1.12,19.55-4.12,27.68c-6.03,10.17-17.8,16.39-29.57,16.13c-6.5,0.39-13.5-0.62-18.33-5.39
		c-0.05-0.51-0.16-1.53-0.22-2.04c13.02,5.55,30.06,1.28,38.12-10.57c5.08-7.95,5.75-18.82,0.76-26.97
		c-2.98-4.94-6.55-9.83-11.48-12.97c-4.89-0.12-9.57-1.43-14.19-2.9c-1.04-0.24-2.08-0.38-3.12-0.42c-2.47-0.18-4.61,1.3-6.85,2.1
		c-15.8,6.1-29.63,16.73-40.48,29.65c-18.22,20.9-29.67,48.68-27.84,76.65c1.07,10.19,4.13,20.54,10.8,28.53
		c4.75,5.94,11.1,10.48,18.07,13.47c0.55,3.82-0.5099,7.57-0.81,11.36c-4.05,0.98-8.21,2.13-11.53,4.75
		c-3.23,2.63-5.58,6.61-5.5,10.87c-0.61,8.18,1.83,16.08,3.45,23.99c2.9,12.67,5.74,26.26,1.61,38.99
		c-3.11,10.28-11.68,18.03-21.31,22.25c-1.33,0.47-2.78,0.45-4.16,0.63c6.77-5.75,14.59-11.2,17.95-19.8
		c4.42-10.46,2.16-22.03-0.7-32.58c-2.46-9.77-6.41-19.26-7.06-29.41c-1.65-9.98,2.77-20.63,11.46-26.04
		c-12.97-8.22-21.8-22.04-25.17-36.9c-4.26-18.54-2.11-38.18,4.04-56.03c-7.66,4.62-14.9,9.92-21.87,15.53
		c-5.34,4.71-10.8,9.77-13.63,16.46c-1.72,4.81-0.36,10.17,2.71,14.13c5.93,7.94,14.46,13.37,22.82,18.44
		c2.62,1.54,5.18,3.24,8.1,4.21c0.24,3.59-0.63,7.23-2.19,10.47c-11.29-0.72-22.94,3.18-30.92,11.31
		c-5.17,5.43-8.83,12.8-8.18,20.46c0.4,8.84,6.96,16.38,14.93,19.66c5.53,2.89,11.88,3.07,17.66,5.14
		c-14.7,3.38-32.98-3.66-38.07-18.77c-3.25-9.33-0.85-19.9,4.47-28c5.52-8.73,14.68-14.63,24.37-17.79
		c-10.25-6.21-21.12-13.14-26.45-24.35c-4.72-8.88-2.41-19.84,3.03-27.84c5.92-8.55,13.96-15.33,22.06-21.73
		c4.06-3.27,8.66-5.81,12.5699-9.26c-8.31-9.05-16.17-19.15-19.43-31.21c-2.57-8.83-0.52-18.89,5.47-25.89
		c6.69-7.82,16.68-11.74,26.39-14.3c9.09-1.89,18.37-3.22,27.68-2.96c5.62-0.05,11.25,1.44,16.85,0.74
		c3.8-2.65,8.38-4.15,13.02-4.26c5.54-0.12,11.21-0.21,16.55,1.51c2.48,0.59,4.76,2.25,7.41,2C698.25,69.96,711,61.41,724.15,54.42
		 M694.75,84.18c-0.05,0.5-0.16,1.52-0.21,2.03c3.47-0.14,5.85-3.05,8.41-5.06C700.12,81.88,697.37,82.91,694.75,84.18
		 M607.89,102.24c-4.76,1.24-9.5,3.12-13.21,6.46c-3.39,2.91-5.05,7.83-3.7,12.15c3.08,11.83,11.19,21.59,19.8,29.92
		c8.73-18.05,21.99-34.38,39.62-44.32c3.71-2.24,7.89-3.54,11.66-5.66c-10.95-1.58-22.05-1.59-33.08-1.33
		C621.87,99.53,614.81,100.64,607.89,102.24z"/>
	<path fill="#FBE4C4" d="M1196.39,104.11c14.4299-13.65,28.0699-28.12,42.37-41.91c7.92,9.43,15.64,19.03,23.46,28.54
		c1.9501,2.21,3.4301,5.06,6.23,6.32c3.14-8.9,6.25-17.82,9.4701-26.7c13.72,5.21,27.26,10.94,40.8099,16.6
		c11.25,13.44,19.05,29.78,22.16,47.04c3.75,20.18,0.92,41.5-7.91,60.03c-7.59,16.3-19.9,30.24-34.76,40.29
		c-17.6,11.74-39.0699,17.8-60.22,16.34c-37.88-0.91-73.4301-26.53-87.4399-61.55c-11.25-26.95-9.8501-58.87,3.8099-84.7
		c3.17-3.08,7.45-4.6,11.1-7.02c10.8101-6.08,21.0801-13.18,32.24-18.59C1197.6899,87.26,1196.46,95.66,1196.39,104.11 M1211,117.95
		c-5.54,4.96-7.3101,12.91-6.27,20.06c0.62,1.8,1.1801,3.62,1.8201,5.43l0.4199,0.27c2.3201,7.64,12.1801,11.61,19.1,7.5
		c7.05-4.28,9.6801-13.27,8.52-21.09c-0.52-2.56-0.72-5.57-2.84-7.38l-0.13-0.92l-0.15-0.07c-1.3199-2.29-3.08-4.9-5.84-5.4
		C1221.34,113.05,1214.8,114.44,1211,117.95 M1272.64,147.98c0.86,5.15,2.78,10.95,7.46,13.77c5.64,5.75,16.1901,2.54,19.59-4.35
		c1.3-2.28,2.4-4.73,2.7401-7.36c0.8999-0.3,1.2699-0.95,1.11-1.93c0.24-4.13-0.17-8.31-1.49-12.24c-0.38-0.13-1.12-0.39-1.49-0.52
		c-2.65-6.15-9.8701-10.78-16.54-8.37C1275.61,129.88,1271.8,139.7,1272.64,147.98 M1189.65,174.79c-0.3,4.94,2.75,9.24,5.28,13.23
		c7.4399,10.39,18.38,17.82,30.12,22.59c7.6399,3.05,15.62,5.48,23.86,6.17c10.97,1.25,22.7-1.32,31.27-8.54
		c4.85-4.06,9.7599-9.14,10.83-15.63c-0.47,0.12-1.42,0.36-1.9,0.49c-5.67,4.66-10.58,10.28-16.87,14.17
		c-10.7,7.33-24.8,9.6-37.16,5.53c-8.5-2.47-15.83-7.73-22.25-13.67c-7.58-6.45-13.6-14.44-19.98-22.02
		C1192.03,176.02,1190.92,175.22,1189.65,174.79z"/>
	<path fill="#333231" d="M1318.73,86.96c3.62,1.34,7.24,2.72,10.7001,4.46c10.63,15.12,17.24,33.06,18.5,51.53
		c1.6899,21.61-3.3601,43.74-14.7201,62.25c-9.01,15.12-22.0699,27.71-37.23,36.6c-20.27,11.83-44.63,16.24-67.7999,12.79
		c-20.5-3.08-40.0701-12.36-55.2401-26.53c-17.4299-15.95-29.08-38.1-32.33-61.51c-3.03-21.18,0.62-43.31,10.59-62.26
		c1.04,0.03,2.1001,0.07,3.17,0.12c-13.66,25.83-15.0599,57.75-3.8099,84.7c14.0099,35.02,49.5599,60.64,87.4399,61.55
		c21.15,1.46,42.62-4.6,60.22-16.34c14.86-10.05,27.17-23.99,34.76-40.29c8.8301-18.53,11.66-39.85,7.91-60.03
		C1337.78,116.74,1329.98,100.4,1318.73,86.96z"/>
	<path fill="#38332C" d="M711.56,96.28c8.14-1.65,16.48-3.03,24.81-2.37c-7.86,0.87-15.82,1.38-23.47,3.53
		C712.56,97.15,711.89,96.57,711.56,96.28z"/>
	<path fill="#FBE4C4" d="M736.37,93.91h0.15c10.87,1.96,22.02,3.13,32.38,7.27c6.28,12.21,9.61,25.61,13.17,38.79
		c1.67,5.79,2.7,11.86,5.71,17.15c3.08,5.33,8.37,9.45,14.48,10.6c9.64,1.92,19.34-0.88,28.61-3.35c2.89,8.21,4.42,16.84,5.03,25.51
		c-4.64,3.91-9.22,8.82-10.07,15.08c-1.16,6.81,2.47,13.65,7.75,17.78l-0.91-0.63c-8.32,30.92-32.51,57.02-62.76,67.55
		c-21.12,7.55-44.77,7.61-65.95,0.26c-31.23-10.56-56.26-37.61-64.2401-69.63c-9.49-35.13,2.48-74.84,29.5-99.13
		c6.46-5.98,13.76-10.98,21.4901-15.18c4.62,1.47,9.3,2.78,14.19,2.9c4.93,3.14,8.5,8.03,11.48,12.97
		c4.99,8.15,4.32,19.02-0.76,26.97c-8.06,11.85-25.1,16.12-38.12,10.57c0.06,0.51,0.17,1.53,0.22,2.04
		c4.83,4.77,11.83,5.78,18.33,5.39c11.77,0.26,23.54-5.96,29.57-16.13c5.24-8.13,6.18-18.38,4.12-27.68
		c-2.59-10.18-9.53-18.37-16.84-25.57C720.55,95.29,728.51,94.78,736.37,93.91 M741.22,152.53c-1.39,1.11-2.66,2.39-3.68,3.85
		c-0.41,0.12-1.24,0.37-1.65,0.5c-3.69,6.33-3.72,14.25-1.65,21.13c0.24,1.09,0.94,1.75,2.1,1.99c2.43,5.05,7.91,8.87,13.66,8.31
		c4.97-0.53,9.12-4.2,11.39-8.51c2-0.22,2.51-2.59,3.12-4.15c0.69-4.17,1.25-8.66-0.28-12.71c-0.64,3.75,0.69,7.74-0.77,11.34
		c1.49-8.36-0.84-18.48-8.82-22.78c0.44-3.17-3.73-2.18-5.64-2.5C746.31,149.14,741.51,148.92,741.22,152.53 M694.3,174.43
		c-14.57,5.91-14.67,30.4-0.37,36.71c4.57,1.6,9.92,0.61,13.45-2.78c8.09-7.82,8.37-22.23,0.62-30.39
		C704.6,174.33,699.05,172.57,694.3,174.43 M777.98,189.41c-0.94,5.15,0.02,10.39,0.13,15.57c0.13,9.72-0.54,19.95-5.69,28.47
		c-5.68,10.25-16.81,16.6-28.22,18.16c-13.95,2.06-27.95-1.1-41.33-4.86c-5.49-1.36-10.78-3.72-16.46-4.15l0.23,1.27
		c3.38,3.46,7.98,5.43,12.41,7.22c17.64,6.66,37.65,5.82,55.17-0.79c9.69-3.7,18.76-10.12,23.8701-19.33
		c6.22-10.58,6.81-23.77,3.47-35.4C780.75,193.33,780.11,190.76,777.98,189.41z"/>
	<path fill="#33322F" d="M736.52,93.91c9.77-2.05,19.76,0.17,29.38,2.08c1.06,1.69,2.05,3.43,3,5.19
		C758.54,97.04,747.39,95.87,736.52,93.91z"/>
	<path fill="#333231" d="M687.59,105.56c1.04,0.04,2.08,0.18,3.12,0.42c-7.73,4.2-15.03,9.2-21.4901,15.18
		c-27.02,24.29-38.99,64-29.5,99.13c7.98,32.02,33.01,59.07,64.2401,69.63c21.18,7.35,44.83,7.29,65.95-0.26
		c30.25-10.53,54.44-36.63,62.76-67.55l0.91,0.63c1.3,0.91,2.67,1.77,4.08,2.55c-9.79,33.8-37.87,61.45-71.74,70.89
		c-22.59,6.38-47.3,4.95-68.97-4.1c-15.07-6.34-28.62-16.28-39.21-28.74c-12.78-15.04-21.14-33.81-23.7-53.38
		c-2.87-22.29,1.44-45.58,12.84-65.02C656.47,128.43,670.52,114.25,687.59,105.56z"/>
	<path fill="#333232" d="M789.64,105.79c17.54,9.58,31.58,24.85,41.02,42.36c-0.62,0.43-1.2599,0.84-1.91,1.23
		c-1.3,0.35-2.57,0.7-3.85,1.03c-7.42-14.91-18.95-27.72-32.6801-37.07C791.22,110.87,790.41,108.34,789.64,105.79z"/>
	<path fill="#FBE4C4" d="M799.88,143.92c-2.27-10.27-4.97-20.42-7.66-30.58c13.73,9.35,25.26,22.16,32.6801,37.07
		c-6.34,1.59-12.95,2.94-19.4901,1.94C801.7,151.42,800.64,147.16,799.88,143.92z"/>
	<path fill="#0084F3" d="M1211,117.95c3.8-3.51,10.34-4.9,14.63-1.6c1.54,2.18,3.14,4.57,5.84,5.4l0.15,0.07l0.13,0.92
		c1.02,5.59,2.73,11.36,0.97,17.01c-1.7,6.41-7.53,12.69-14.6799,11.65c-5.0901-0.13-7.26-5.31-11.0701-7.69l-0.4199-0.27
		c-0.64-1.81-1.2001-3.63-1.8201-5.43C1203.6899,130.86,1205.46,122.91,1211,117.95z"/>
	<path fill="#3C8AC9" d="M1225.63,116.35c2.76,0.5,4.52,3.11,5.84,5.4C1228.77,120.92,1227.17,118.53,1225.63,116.35z"/>
	<path fill="#2B86CF" d="M1231.75,122.74c2.12,1.81,2.3199,4.82,2.84,7.38c1.16,7.82-1.47,16.81-8.52,21.09
		c-6.9199,4.11-16.7799,0.14-19.1-7.5c3.8101,2.38,5.98,7.56,11.0701,7.69c7.1499,1.04,12.98-5.24,14.6799-11.65
		C1234.48,134.1,1232.77,128.33,1231.75,122.74z"/>
	<path fill="#0084F3" d="M1272.64,147.98c-0.84-8.28,2.97-18.1,11.38-21c6.6699-2.41,13.89,2.22,16.54,8.37
		c1.8199,4.67,2.4099,9.71,1.87,14.69c-0.3401,2.63-1.4401,5.08-2.7401,7.36c-2.71-0.07-3.99,2.99-6.12,4.2
		c-3.9099,3.23-9.1399,1.09-13.47,0.15C1275.42,158.93,1273.5,153.13,1272.64,147.98z"/>
	<path fill="#A6C9DD" d="M1300.5601,135.35c0.37,0.13,1.11,0.39,1.49,0.52c1.3199,3.93,1.73,8.11,1.49,12.24
		c0.1599,0.98-0.2101,1.63-1.11,1.93C1302.97,145.06,1302.38,140.02,1300.5601,135.35z"/>
	<path fill="#D7E4E6" d="M741.22,152.53c0.29-3.61,5.09-3.39,7.78-3.53c1.91,0.32,6.08-0.67,5.64,2.5
		C750.34,149.45,745.14,149.84,741.22,152.53z"/>
	<path fill="#0084F3" d="M741.22,152.53c3.92-2.69,9.1201-3.08,13.42-1.03c7.98,4.3,10.31,14.42,8.82,22.78
		c-0.68,1.85-1.38,3.68-2.07,5.52c-2.27,4.31-6.42,7.98-11.39,8.51c-5.75,0.56-11.23-3.26-13.66-8.31
		c-0.69-1.76-1.32-3.53-1.92-5.31c0.68-3.73,0.86-7.54,0.1-11.27c0.68-2.47,1.83-4.78,3.02-7.04
		C738.56,154.92,739.83,153.64,741.22,152.53z"/>
	<path fill="#B5D3E4" d="M735.89,156.88c0.41-0.13,1.24-0.38,1.65-0.5c-1.19,2.26-2.34,4.57-3.02,7.04
		c-0.85,3.38-0.86,6.94-0.38,10.38l0.28,0.89c0.6,1.78,1.23,3.55,1.92,5.31c-1.16-0.24-1.86-0.9-2.1-1.99
		C732.17,171.13,732.2,163.21,735.89,156.88z"/>
	<path fill="#2884CD" d="M1293.5699,161.6c2.13-1.21,3.41-4.27,6.12-4.2c-3.3999,6.89-13.95,10.1-19.59,4.35
		C1284.4301,162.69,1289.66,164.83,1293.5699,161.6z"/>
	<path fill="#FEFFFE" d="M836.68,162.87c5.34-1.37,10.72-2.82,16.25-3.23c4.31-0.21,9.34,0.67,11.96,4.48
		c1.73,2.04,0.97,5.16-1.06,6.68c-6.68,6.09-14.97,9.95-22.37,15.04C840.69,178.04,839.06,170.34,836.68,162.87z"/>
	<path fill="#D2E3E3" d="M764.23,162.94c1.53,4.05,0.97,8.54,0.28,12.71c-0.61,1.56-1.12,3.93-3.12,4.15
		c0.69-1.84,1.39-3.67,2.07-5.52C764.92,170.68,763.59,166.69,764.23,162.94z"/>
	<path fill="#2281CD" d="M734.14,173.8c-0.48-3.44-0.47-7,0.38-10.38c0.76,3.73,0.58,7.54-0.1,11.27L734.14,173.8z"/>
	<path fill="#333232" d="M830.87,164.37c1.93-0.49,3.87-0.99,5.81-1.5c2.38,7.47,4.01,15.17,4.78,22.97
		c-1.9,1.29-3.76,2.63-5.56,4.04C835.29,181.21,833.76,172.58,830.87,164.37z"/>
	<path fill="#0083F3" d="M694.3,174.43c4.75-1.86,10.3-0.1,13.7,3.54c7.75,8.16,7.47,22.57-0.62,30.39
		c-3.53,3.39-8.88,4.38-13.45,2.78C679.63,204.83,679.73,180.34,694.3,174.43z"/>
	<path fill="#333230" d="M1189.65,174.79c1.27,0.43,2.38,1.23,3.2,2.32c6.38,7.58,12.4,15.57,19.98,22.02
		c6.42,5.94,13.75,11.2,22.25,13.67c12.36,4.07,26.4601,1.8,37.16-5.53c6.29-3.89,11.2-9.51,16.87-14.17
		c0.48-0.13,1.4301-0.37,1.9-0.49c-1.0701,6.49-5.98,11.57-10.83,15.63c-8.5701,7.22-20.3,9.79-31.27,8.54
		c-8.24-0.69-16.2201-3.12-23.86-6.17c-11.74-4.77-22.6801-12.2-30.12-22.59C1192.4,184.03,1189.35,179.73,1189.65,174.79z"/>
	<path fill="#333330" d="M777.98,189.41c2.13,1.35,2.77,3.92,3.58,6.16c3.34,11.63,2.75,24.82-3.47,35.4
		c-5.11,9.21-14.1801,15.63-23.8701,19.33c-17.52,6.61-37.53,7.45-55.17,0.79c-4.43-1.79-9.03-3.76-12.41-7.22l-0.23-1.27
		c5.6801,0.43,10.97,2.79,16.46,4.15c13.38,3.76,27.38,6.92,41.33,4.86c11.41-1.56,22.54-7.91,28.22-18.16
		c5.15-8.52,5.82-18.75,5.69-28.47C778,199.8,777.04,194.56,777.98,189.41z"/>
	<path fill="#38332C" d="M840.55,201.96l1.1-1.01c-0.1801,4.32-0.7401,8.6-1.36,12.87C836.23,210.92,836.51,204.74,840.55,201.96z"
		/>
	<path fill="#C0942D" d="M195.08,273.95c4.59-5.32,8.66-11.15,13.84-15.93c-5.51,11.64-10.31,23.64-14.21,35.91
		c-0.83,2.48-1.39,5.05-1.38,7.67c23.91-1.32,47.84-2.34,71.75-3.78c0.96,0.16,4.25-0.93,3.53,0.94
		c-14.18,5.07-28.51,9.76-42.66,14.93c2.03,2.48,4.64,4.36,7,6.5c2.51,2.21,4.9,4.56,7.43,6.75c7.25,6.17,14.24,12.63,21.43,18.87
		c-22.26-5-44.3-11.01-66.62-15.76c-5.21,9.36-10.58,18.63-16,27.88c-5.99-6.7-11.96-13.41-18.11-19.95
		c-12.32,9.42-25.09,18.29-37.11,28.08c-0.97,0.5-1.95,0.98-2.94,1.46c-0.39-0.29-1.19-0.86-1.58-1.15
		c-12.44-9.65-24.07-20.34-36.43-30.1c12.67-0.04,25.18,2.65,37.81,3.22c-0.06-15.19-0.2-30.38,0.08-45.56
		c7.73,6.27,14.06,14.14,21.51,20.76c0.22,0.01,0.65,0.04,0.87,0.06c5.24-14.29,10.31-28.64,15.54-42.93
		c0.76-1.95,1.26-4.04,2.4-5.82c2.91,12.95,5.12,26.05,8.01,39.01C178.24,295.01,186.37,284.22,195.08,273.95z"/>
	<path fill="#FB4402" d="M1249.85,262.08c0.9401-0.59,2.12-0.82,3.03,0.03c4.4399,2.81,9.26,4.92,14.01,7.16
		c21.24,9.73,42.7999,18.73,64.39,27.64c34.49,14.02,69.13,27.75,104.4399,39.61c1.99,0.17,0.88,2.31,0.17,3.29
		c-6.4301,8.73-12.85,17.47-19.27,26.22c-2.74,3.74-5.51,7.46-8.24,11.2c-5.5601,7.5-10.95,15.12-16.64,22.52
		c-15.29-14.42-30.4299-29.02-45.5699-43.6c0.0199,5.6,1.3199,11.08,1.95,16.63c-0.33,5.48,1.21,10.81,1.62,16.24
		c0.36,5.37,1.79,10.6,2.0701,15.98c0.24,4.21,1.3199,8.3,2.48,12.34c3.1699,22.14,6.01,44.32,9.34,66.43
		c-12.91-0.23-25.83-0.19-38.7-1.07c-47.1001-0.8-94.14-3.03-141.25-3.58c-0.05-34.01,0.21-68.03,0.12-102.05
		c-0.1101-3.64,0.8099-7.31-0.1001-10.9c-17.12,4.6-34.23,9.29-51.4299,13.52c-3.8201-7.22-6.78-14.9-10.24-22.31
		c-1.49-3.34-2.97-6.68-4.4601-10.01c-2.1499-5.43-5.5099-10.47-6.5399-16.27C1157.02,307.53,1203.5699,285.08,1249.85,262.08z"/>
	<path fill="#FEBD01" d="M757,300.87c6.75,12.4,14.99,23.91,23.24,35.35c0.19,1.44-0.52,3.51,1.49,4.13
		c0.06-0.51,0.18-1.54,0.24-2.06c0.29,0.17,0.89,0.49,1.1801,0.66c0.2,1.31,0.71,2.5,1.54,3.55c8.21,11.1,16.36,22.24,24.75,33.21
		c37.07,49.08,75.11,97.42,113.09,145.8c9.75,12.19,19.23,24.59,29.11,36.69c0.03,0.54,0.1,1.64,0.14,2.19
		c-5.6201,0.14-11.2401,0.14-16.8,0.95c-13.07,0.19-26.08,1.45-39.15,1.35c-3.64-0.29-7.29-0.17-10.9,0.21
		c-8.95,1.05-17.97,0.7-26.95,0.85c-1.97-0.07-3.79,0.69-5.61,1.27c-3.55,0.51-7.13,0.47-10.7,0.58c-6.58,0.17-13.14,1.01-19.73,0.9
		c-5.26-0.17-10.43,1.02-15.68,0.94c-8.74-0.72-17.49,0.53-26.24,0.28c-8.41-0.39-16.7,1.4301-25.11,1.0601
		c2.6801,1.42,5.79,1.41,8.69,0.8l-0.1,0.54c-10.49,0.07-20.99,0.09-31.47,0.64c-7.96,1.2-16.05,0.44-24.05,1.27
		c-5.64,0.6-11.34,0.22-16.98,0.71c-8.27,1.27-16.69,0.35-24.97,1.39c-2,0.3-4.03,0.22-5.9-0.55c3.96-8.15,6.76-16.79,10.07-25.22
		c18.54-50.22,36.3-100.73,54.04-151.24c1.07-2.9,2.28-5.79,2.55-8.9l0.18,0.26c3.3101-7.24,5.0601-15.09,8.3701-22.33l0.55,0.76
		c0.05-1.54-0.26-3.18,0.36-4.63c3.21-8.29,5.86-16.78,8.82-25.15C749.02,325.04,753.67,313.15,757,300.87 M775.72,409
		c-1.85,3.73-1.61,8.01-2.95,11.89c-1.58,9.55-3.86,18.96-5.38,28.52c-13.42,2.67-26.94,4.81-40.4,7.19
		c0.45,0.96,1.14,1.74,2.15,2.17c10.88,6,21.66,12.19,32.63,18.02c0.05,13.52-3.81,26.69-4.58,40.17c3.51-0.41,5.29-3.88,7.86-5.89
		c7.49-6.62,14.56-13.69,22.01-20.34l0.96-0.11c11.25,5.66,22.76,10.82,33.82,16.84c0.98,0.05,1.97,0.1,2.98,0.14
		c-5.59-11.35-10.62-22.97-16.17-34.34c-0.51-1.3-0.84-3.14,0.37-4.16c8.43-8.62,16.97-17.12,25.21-25.91
		c0.78-0.79,1.44-1.71,1.53-2.86c-2.27,0.48-4.51,1.11-6.82,1.18c-11.55,0.86-22.98,3.65-34.61,3.14
		C788.52,432.58,781.89,420.9,775.72,409z"/>
	<path fill="#333231" d="M232.95,320.19c19.16,5.56,36.4,17.47,48.39,33.43c12.58,16.25,19.15,36.88,19.06,57.38
		c0.11,19.81-6.45,39.46-17.89,55.58c-12.51,17.4-30.98,30.43-51.62,36.23c-21.58,6.3-45.36,4.39-65.77-4.96
		c-19.59-8.64-35.77-24.46-45.49-43.47c-13.25-25.75-13.71-57.68-0.99-83.73c0.55-1.36,1.8-2.81,0.81-4.28
		c0.39,0.29,1.19,0.86,1.58,1.15c0.99-0.48,1.97-0.96,2.94-1.46c-9.75,17.5-13.45,38.22-10.54,58.02
		c2.86,19.83,12.69,38.5,27.1,52.38c14.39,13.92,33.41,23.01,53.35,25.07c16.3,1.95,33.07-0.84,47.99-7.65
		c17.97-8.06,33.02-22.28,42.44-39.54c10.24-18.87,13.32-41.45,8.74-62.4c-5.1-23.29-19.47-44.42-39.46-57.47
		c-4.15-2.94-8.83-4.98-13.21-7.53C237.85,324.75,235.46,322.4,232.95,320.19z"/>
	<path fill="#C5C836" d="M1673.05,329.05c3.95-3.63,9.6399-5,14.8899-4.19c12.2301,1.74,22.9901,8.21,34.2201,12.91
		c2.73,1.33,5.65-0.39,8.4099-0.87c7.53-1.97,16.7001-2.84,23.1101,2.49c4.34,3.24,6.8099,8.4,7.59,13.68
		c1.24,5.18,0.65,10.87,2.96,15.72c3.85,3.16,9.13,1.11,13.51,0.37c6.66-1.61,13.53-1.59,20.29-2.49
		c4.35,0.4,9.11,0.67,12.6799,3.52c8.4701,5.81,12.5901,16.14,21.41,21.5c6.25,4.1,14.23,1.36,20.89,4.27
		c4.53,1.48,7.78,6.24,7.27,11.02c-0.5801,5.8-5.11,10.29-5.78,16.05c-0.3,4.11,3.42,6.82,5.99,9.47
		c4.53,4.75,9.8201,9.17,16.38,10.66c3.64,0.75,6.08,4.75,4.35,8.27c-4.96,9.17-8.6799,18.97-11.5399,28.99
		c-0.79,5.32-1.3401,11.86,3.33,15.65c7.96,6.82,19.12,6.01,28.91,6.37c-1.17,1.83-3.53,2.15-5.42,2.79
		c-9.28,2.21-19.89,1.8-27.9301-3.81c-6.97-5-9.1699-14.41-7.5599-22.5c1.74-8.91,3.99-17.81,7.6-26.17
		c-7.75-3.14-14.28-8.53-20.34-14.15c-1.4-1.28-2.3101,0.72-3.21,1.5c-3.39,4.08-9.2401,5.28-14.2001,3.89
		c-0.4299-0.27-1.3099-0.82-1.75-1.1c-2.46-1.46-3.9399-4.03-6.1799-5.68c-4.41,0.65-8.38,3.17-12.92,3.12
		c-12.9401,1.38-25.75-7.78-29.36-20.15c-1.2101-3.4-1.4-7.03-1.53-10.59c-6.75,0.8-13.51,2.8-20.34,1.46
		c-8.04-0.52-15.54-4.97-20.0901-11.56c-4.74-6.81-5.62-15.37-4.87-23.42c-3.6399,0.54-7.21,1.4-10.8099,2.07
		c-1.3101,0.15-2.59,0.32-3.85,0.49c-4.24,0.86-8.63,1.35-12.62,3.05c-0.98,1.08,0.6499,2.19,1.14,3.1
		c0.2799,0.35,0.85,1.05,1.1399,1.4c-2.87,4.54-5.45,9.26-8.5499,13.65c-1.5701-0.58-3.0801-1.07-4.63-1.56
		c-0.52-0.14-1.5601-0.43-2.0701-0.58c-7.95-2.24-16.9199-3.57-24.7-0.11c-7.9,3.56-13.21,11.3-15.38,19.5
		c-3.49,11.61-3.67,23.86-2.89,35.87c1.67,12.52,3.5701,25.47,9.8301,36.65c1.22,2.48,3.71,3.65,6.4399,3.08
		c-0.0599,0.29-0.1801,0.86-0.24,1.15c-0.59-0.01-1.75-0.05-2.34-0.06c0.45,0.17,1.35,0.52,1.7999,0.69
		c-0.7,1.72-3.1799,0.97-4.5499,0.8c-7.6001-3.69-10.79-12.17-14.05-19.4c-7.9-20.78-10.98-44.16-5.12-65.86
		c3.13-10.54,9.8101-20.63,20-25.45c7.74-3.99,16.55-4.66,25.11-4.21c0.22-7.87,7.4401-14.83,15.24-14.98
		c-0.5499-0.26-1.0699-0.51-1.5599-0.76c12.0399-1.56,25.15-1.61,35.99,4.67c1.91-0.16,3.75,0.5,4.84,2.18
		c0.12,0.16,0.38,0.46,0.5,0.62c0.54,1.25,1.09,2.53,1.65,3.8c1.52-0.15,3.0599-0.29,4.62-0.43c-0.22-1.23-0.4301-2.45-0.8101-3.62
		c-0.0699-0.2-0.22-0.59-0.2899-0.79c-2.4401-5.87-2.5701-12.37-4.52-18.39c-7.42-1.6-14.49,3.15-21.9501,1.58
		c-13.3799-4.07-24.34-14.53-38.58-16c-4.0599,6.53-0.35,14.05-0.17,20.99c-3.6899,0.36-7.35,0.91-11,1.49
		c-1.1-1.97-1.4299-4.23-2.0199-6.36c-10.01,2.02-17.79,9.31-24.36,16.68c-3.2301,4.08-6.8701,9.07-5.52,14.59
		c1.85,3.56,6.24,4.52,9.8999,5.12c0.1001,0.47,0.3,1.41,0.4,1.87c-4.39,0.2-9.46,0.72-12.9199-2.57
		c-4.27-3.27-3.9401-9.44-2.62-14.09c2.2699-6.6,6.3099-12.48,11.0299-17.57c6.0901-6.23,13.05-12.39,21.8301-14.21
		c0.26-0.26,0.77-0.77,1.0299-1.02C1668.09,338.07,1669.42,332.77,1673.05,329.05 M1747.96,384.16c1.3501,2.68,3.04,5.33,5.55,7.09
		c6.53,3.51,14.35,3.78,21.48,2.19c3.63-0.6,7.15-2.2,10.88-2.11c3.41,2.9,6.83,5.96,9.73,9.42c-1.91,4.45-1.5,9.46-1.15,14.18
		c1.2101,6.15,6.24,11.74,12.63,12.57c3.74,0.43,7.5-0.27,10.99-1.65c2.4-0.78,4.42-2.91,7.15-2.27c0.91,0.39,1.8301,0.82,2.75,1.28
		c1.27,1.15,2.9601,1.79,4.4301,2.74c-0.0801,2.33,0.5,4.57,1.49,6.68c1.83,0.29,4.09,0.77,5.27-1.15
		c4.27-3.96,1.3099-10.03,2.3099-15.03c-0.2899,2.64-0.5599,5.28-0.96,7.9c1.34-6.19-1.2-12.05-4.48-17.15
		c-12.42-0.46-21.3101-10.26-29.03-18.86c-2.4399-2.15-4.28-6.14-8.05-5.71c-1.97,0.15-3.96,0.3-5.84,0.74
		c-0.25-0.08-0.76-0.26-1.01-0.34c-11.46,1.05-23.0499,2.48-34.53,0.9C1754.34,385.19,1751.22,384.18,1747.96,384.16
		 M1843.08,409.17c-0.48,1.4,0.01,1.86,1.4501,1.36C1844.96,409.13,1844.47,408.68,1843.08,409.17z"/>
	<path fill="#FBE4C4" d="M240.38,326.94c4.38,2.55,9.06,4.59,13.21,7.53c19.99,13.05,34.36,34.18,39.46,57.47
		c4.58,20.95,1.5,43.53-8.74,62.4c-9.42,17.26-24.47,31.48-42.44,39.54c-14.92,6.81-31.69,9.6-47.99,7.65
		c-19.94-2.06-38.96-11.15-53.35-25.07c-14.41-13.88-24.24-32.55-27.1-52.38c-2.91-19.8,0.79-40.52,10.54-58.02
		c12.02-9.79,24.79-18.66,37.11-28.08c6.15,6.54,12.12,13.25,18.11,19.95c5.42-9.25,10.79-18.52,16-27.88
		c22.32,4.75,44.36,10.76,66.62,15.76C254.62,339.57,247.63,333.11,240.38,326.94 M221.05,370.09c-10.17,8.94-8.61,28.18,3.86,34.34
		l0.66-0.12c2.71,1.67,6.19,0.99,8.97-0.18c12.93-6.44,13.58-27.48,1.75-35.33C231.65,365.76,225.14,366.39,221.05,370.09
		 M173.8,383.93l0.53,1.38c-9.26,5.31-11.25,18.26-7.08,27.42c2.34,5.34,7.71,9.75,13.77,9.41c5.78-0.48,10.48-4.95,12.61-10.14
		c1.61-0.64,2.52-2.4,2.84-4c0.42-5.48,0.54-11.43-2.66-16.18c-0.04,0.56-0.13,1.68-0.17,2.24c-1.4-3.44-3.74-6.6-6.98-8.49
		c-0.07-0.48-0.21-1.45-0.28-1.93C182.27,382.85,177.81,382.5,173.8,383.93 M259.72,412.7c-3.85,2.39-6.62,6.07-9.56,9.43
		c-11.23,14.09-18.85,31.41-33.63,42.39c-6.66,5.1-15.98,8.71-24.08,4.84c-7-3.72-11.52-10.56-15.82-16.96
		c-1.71-2.34-2.94-5.38-5.77-6.58c-0.32,3.95,1.36,7.71,2.93,11.24c3.57,6.84,8.79,13.35,16.13,16.3
		c5.61,2.06,11.99,1.58,17.32-1.08c10.23-5.27,18.3-13.68,26.19-21.87c11.57-11.52,21.33-24.71,30.33-38.26
		C262.59,410.92,260.89,412.11,259.72,412.7z"/>
	<path fill="#333333" d="M780.41,336.92c1.3701-0.66,2.79-1.29,4.19-1.95c9.52,10.58,19.84,20.4,29.85,30.52
		c33.65,33.36,67.63,66.39,101.64,99.39c30.45,29.21,60.5699,58.79,91.72,87.26c-6.52,7.61-10.48,17.95-8.31,27.99
		c2.5,14.58,16.62,26.26,31.51,25.41c14.6-0.16,27.9-11.9,29.8-26.39c2.5499-15.08-7.9901-30.7-22.79-34.29
		c-10.6-3.15-21.74,0.81-30.21,7.29c5.03-6.57,13.36-9.45,21.31-10.4c6.1901-49.93,12.66-99.83,18.99-149.75
		c0.38-4.16,3.96-6.82,7.4401-8.48c20.6899-12.02,41.38-24.04,62.0199-36.15c1.4901,3.33,2.9701,6.67,4.4601,10.01
		c-21.1,12.26-42.16,24.59-63.27,36.83c-6.38,49.67-12.62,99.36-19,149.04c14.6,4.29,24.97,19.66,22.87,34.84
		c-1.35,16.11-16.51,29.42-32.64,28.79c-14.78,0.27-28.51-11.25-31.2-25.71c-1.44-6.81-0.44-14,2.53-20.27
		c-35.14-32.2401-69.26-65.57-103.58-98.67c-29.56-28.71-59.13-57.42-88.3-86.52c-8.39-10.97-16.54-22.11-24.75-33.21
		c-0.83-1.05-1.34-2.24-1.54-3.55c-0.29-0.17-0.89-0.49-1.1801-0.66C781.58,337.95,780.8,337.27,780.41,336.92z"/>
	<path fill="#333333" d="M734.1,364.45c0.41,0.56,0.82,1.13,1.2401,1.7c-3.31,7.24-5.06,15.09-8.3701,22.33l-0.18-0.26
		c-34.25,35.27-68.73,70.32-103.05,105.54c-1.91,2.17-4.83,3.23-7.69,3.07c-34.33-0.05-68.65,0-102.97-0.03
		c-3.21,3.61-6.63,7.21-11.09,9.28c-10.65,5.27-24.27,4.03-33.62-3.38c-5.59-4.18-9.51-10.25-11.67-16.84
		c-51.19,13.73-102.51,26.97-153.84,40.16c-1-3.46-2.01-6.91-3.01-10.36c51.91-13.49,103.9-26.71,155.67-40.75
		c0.9-10.89,7.1-21.38,16.91-26.49c12.64-7.23,29.95-4.4,39.55,6.58c7.67,8.2,10.08,20.41,7.07,31.11
		c32.31-0.19,64.64,0.28,96.92-0.22c7.86-7.43,15.2-15.43,22.83-23.1c30.16-30.85,60.31-61.72,90.49-92.55
		C731.05,368.46,732.97,366.74,734.1,364.45 M481.38,446.56c-13.77,3.01-24.49,16.35-24.05,30.51c-0.08,12.49,8.49,24.17,20.1,28.48
		c14.38,5.63,33.3-1.11,39.2-15.79c4.04-8.37,3.78-18.6-0.55-26.8C510,450.49,494.91,443.23,481.38,446.56z"/>
	<path fill="#0084F3" d="M221.05,370.09c4.09-3.7,10.6-4.33,15.24-1.29c11.83,7.85,11.18,28.89-1.75,35.33
		c-2.98-0.61-6.02-0.47-8.97,0.18l-0.66,0.12C212.44,398.27,210.88,379.03,221.05,370.09z"/>
	<path fill="#323232" d="M1408.38,377.23c2.73-3.74,5.5-7.46,8.24-11.2c49.28,62.09,98.58,124.17,147.78,186.32
		c6.9-4.0099,15.16-5.69,23.0399-4.02c12.3,2.22,22.52,12.44,25.25,24.57c1.4901,6.33,0.7301,13-1.3099,19.12
		c14.36,9.59,28.77,19.1,43.08,28.76c28.4401-16.95,58.0601-31.79,86.73-48.32l1.9601-0.43c-2.97,5.14-5.72,10.41-8.64,15.5699
		c-0.7,1.33-1.96,2.1801-3.17,2.96c-8.2,4.33-16.2799,8.89-24.4399,13.28c-16.09,8.94-32.51,17.3199-48.09,27.12
		c-0.41-0.43-1.25-1.3-1.66-1.7401c-1.76,0.9301-3.49,1.86-5.2101,2.8c-15.4099-10.23-30.87-20.38-46.1899-30.75
		c-10.35,12.51-30.33,15.08-43.41,5.41c-9.7-6.68-14.99-19.08-13.2799-30.7c0.84-6,3.71-11.5,7.3199-16.28
		c-48.78-61.56-97.6-123.08-146.42-184.61C1409.5601,375.63,1408.77,376.7,1408.38,377.23 M1574.1,550.2
		c-8.3199,1.94-16.52,6.81-20.52,14.59c-3.74,7-5.26,15.44-2.8999,23.14c2.6799,10.38,11.0199,19.19,21.38,22.1
		c11.8799,3.56,25.6-0.84,33.1499-10.6801c7.29-9.0699,8.52-22.35,3.3301-32.71C1602.46,554.28,1587.5699,546.96,1574.1,550.2z"/>
	<path fill="#797051" d="M1741.99,371.45c1.72-0.74,3.79-0.8,5.67-0.42c0.0699,0.2,0.22,0.59,0.2899,0.79
		c-1.83,0.21-3.6699,0.33-5.46,0.25C1742.37,371.91,1742.11,371.61,1741.99,371.45z"/>
	<path fill="#F7E5BF" d="M1742.49,372.07c1.79,0.08,3.63-0.04,5.46-0.25c0.38,1.17,0.5901,2.39,0.8101,3.62
		c-1.5601,0.14-3.1,0.28-4.62,0.43C1743.58,374.6,1743.03,373.32,1742.49,372.07z"/>
	<path fill="#EC8861" d="M1348.12,372.78c1.67,7.63,2.21,15.44,3.55,23.13c0.6899,7.17,2.4199,14.22,2.62,21.43
		c-1.16-4.04-2.24-8.13-2.48-12.34c-0.28-5.38-1.7101-10.61-2.0701-15.98C1349.33,383.59,1347.79,378.26,1348.12,372.78z"/>
	<path fill="#FBE4C4" d="M1723.01,378.14c3.6-0.67,7.17-1.53,10.8099-2.07c-0.75,8.05,0.13,16.61,4.87,23.42
		c4.55,6.59,12.05,11.04,20.0901,11.56c6.83,1.34,13.59-0.66,20.34-1.46c0.13,3.56,0.3199,7.19,1.53,10.59
		c3.61,12.37,16.4199,21.53,29.36,20.15c4.54,0.05,8.51-2.47,12.92-3.12c2.24,1.65,3.72,4.22,6.1799,5.68
		c-0.6799-0.46-2.04-1.4-2.71-1.87c1.6899,18.9-4.23,38.4-16.39,53c-10.54,13.1-25.71,22.4-42.17,25.84
		c-17.46,3.69-36.33,1.08-51.7899-7.95c-16.6001-9.03-29.2301-24.79-34.8501-42.78c-7.7999-24.05-2.09-51.76,14.4401-70.86
		c1.5499,0.49,3.0599,0.98,4.63,1.56c3.1-4.39,5.6799-9.11,8.5499-13.65C1713.17,382.91,1717.9399,380.16,1723.01,378.14
		 M1708.96,425.27c-2.39,8.26-1.38,18.41,5.51,24.29c3.25,3.21,8.22,3.74,12.5,2.65c4.6801-1.72,8.15-5.9,9.78-10.53l0.36,1.49
		c0.78-0.91,1.5701-1.9,1.61-3.17c0.5901-4.34,0.4301-8.75-0.15-13.08c-0.2599,0.32-0.7699,0.96-1.0299,1.28
		c-1.6801-7.1-7.61-14.15-15.48-13.66C1715.8199,414.99,1711.6801,420.17,1708.96,425.27 M1767.13,435.53
		c-2.63,0.85-5.52,2.23-6.8199,4.8l-0.4901,0.22c-0.83,1.19-1.7,2.37-2.2799,3.7l-1.4301-0.04c-1.85,4.67-3.38,9.9-1.86,14.89
		c1.26-2.72,0.4-5.86,0.63-8.76l0.77-0.95c-0.92,5.72-0.11,11.59,2.4,16.81l0.88,0.1c-0.8601,1.13,0.99,3.34,2.21,2.36l-0.0601,1.21
		c5.01,5.21,14.99,5.25,19.02-1.12c0.29-0.15,0.88-0.44,1.17-0.58l0.1-0.68c5.46-6.78,5.4-16.84,1.48-24.36l0.36-0.87l-0.61-0.91
		l-0.91,0.01c-0.5099-0.71-1.0599-1.36-1.6499-1.95c0.6499-3.43-4.04-4.14-6.42-5.06C1771.63,433.92,1767.35,432.34,1767.13,435.53
		 M1707.8101,465.83c-0.2101,1.56,0.0599,3.1,0.8799,4.47c3.65,7.27,9.63,13.08,16.0901,17.87c8.1899,5.7,17.35,10.33,27.24,12.09
		c8.65,1.48,17.9-0.82,24.66-6.48c3.9299-3.43,8.2899-7.66,8.6399-13.17c-3.1799,0.6-5.2699,3.22-7.6499,5.15
		c-5.62,4.71-11.3301,9.86-18.61,11.74c-9.26,2.81-19.28-1.03-26.2101-7.3c-6.87-6.18-12.59-13.5-18.97-20.15
		C1712.09,468.33,1710.29,466.43,1707.8101,465.83z"/>
	<path fill="#38332C" d="M1719.16,378.63c1.26-0.17,2.5399-0.34,3.85-0.49c-5.0701,2.02-9.84,4.77-14.1901,8.04
		c-0.2899-0.35-0.86-1.05-1.1399-1.4C1711.37,382.54,1714.8,379.48,1719.16,378.63z"/>
	<path fill="#D4E2E5" d="M173.8,383.93c4.01-1.43,8.47-1.08,12.58-0.29c0.07,0.48,0.21,1.45,0.28,1.93
		c-3.79-1.93-8.45-1.98-12.33-0.26L173.8,383.93z"/>
	<path fill="#0084F3" d="M174.33,385.31c3.88-1.72,8.54-1.67,12.33,0.26c3.24,1.89,5.58,5.05,6.98,8.49
		c2.17,5.79,2.09,12.13-0.01,17.94c-2.13,5.19-6.83,9.66-12.61,10.14c-6.06,0.34-11.43-4.07-13.77-9.41
		C163.08,403.57,165.07,390.62,174.33,385.31z"/>
	<path fill="#FBE4C3" d="M1747.96,384.16c3.26,0.02,6.38,1.03,9.61,1.42c11.4801,1.58,23.0701,0.15,34.53-0.9
		c0.25,0.08,0.76,0.26,1.01,0.34c13.73,9.02,23.9,22.86,29.5701,38.18c0.63,0.09,1.8999,0.29,2.5399,0.38
		c-2.73-0.64-4.75,1.49-7.15,2.27c-3.49,1.38-7.25,2.08-10.99,1.65c-6.39-0.83-11.4199-6.42-12.63-12.57
		c-0.35-4.72-0.76-9.73,1.15-14.18c-2.9-3.46-6.3199-6.52-9.73-9.42c-3.73-0.09-7.25,1.51-10.88,2.11
		c-7.13,1.59-14.95,1.32-21.48-2.19C1751,389.49,1749.3101,386.84,1747.96,384.16z"/>
	<path fill="#343232" d="M1793.11,385.02c1.88-0.44,3.87-0.59,5.84-0.74c13.8201,9.88,24.13,24.31,29.02,40.58
		c-0.9199-0.46-1.84-0.89-2.75-1.28c-0.64-0.09-1.9099-0.29-2.5399-0.38C1817.01,407.88,1806.84,394.04,1793.11,385.02z"/>
	<path fill="#C7DDE5" d="M193.81,391.82c3.2,4.75,3.08,10.7,2.66,16.18c-0.32,1.6-1.23,3.36-2.84,4c2.1-5.81,2.18-12.15,0.01-17.94
		C193.68,393.5,193.77,392.38,193.81,391.82z"/>
	<path fill="#343230" d="M1693.5699,397.69c0.51,0.15,1.55,0.44,2.0701,0.58c-16.53,19.1-22.24,46.81-14.4401,70.86
		c5.62,17.99,18.25,33.75,34.8501,42.78c15.46,9.03,34.33,11.64,51.7899,7.95c16.4601-3.44,31.63-12.74,42.17-25.84
		c12.16-14.6,18.08-34.1,16.39-53c0.6699,0.47,2.03,1.41,2.71,1.87c0.4401,0.28,1.3201,0.83,1.75,1.1
		c0.9,18.6-5.28,37.43-17.03,51.88c-10.51,12.84-24.98,22.71-41.22,26.58c-19.9,5.29-42.01,2.4-59.6-8.41
		c-14.72-9.04-26.77-22.76-32.78-39.05c-7.3199-19.34-6.66-41.69,2.39-60.35C1685.46,408.52,1689.29,402.91,1693.5699,397.69z"/>
	<path fill="#4989B9" d="M225.57,404.31c2.95-0.65,5.99-0.79,8.97-0.18C231.76,405.3,228.28,405.98,225.57,404.31z"/>
	<path fill="#FFFFFF" d="M775.72,409c6.17,11.9,12.8,23.58,18.61,35.65c11.63,0.51,23.06-2.28,34.61-3.14
		c2.31-0.07,4.55-0.7,6.82-1.18c-0.09,1.15-0.75,2.07-1.53,2.86c-8.24,8.79-16.78,17.29-25.21,25.91c-1.21,1.02-0.88,2.86-0.37,4.16
		c5.55,11.37,10.58,22.99,16.17,34.34c-1.01-0.04-2-0.09-2.98-0.14c-11.06-6.02-22.57-11.18-33.82-16.84l-0.96,0.11
		c-7.45,6.65-14.52,13.72-22.01,20.34c-2.57,2.01-4.35,5.48-7.86,5.89c0.77-13.48,4.63-26.65,4.58-40.17
		c-10.97-5.83-21.75-12.02-32.63-18.02c-1.01-0.43-1.7-1.21-2.15-2.17c13.46-2.38,26.98-4.52,40.4-7.19
		c1.52-9.56,3.8-18.97,5.38-28.52C774.11,417.01,773.87,412.73,775.72,409z"/>
	<path fill="#EAEB62" d="M1843.08,409.17c1.39-0.49,1.88-0.04,1.4501,1.36C1843.09,411.03,1842.6,410.57,1843.08,409.17z"/>
	<path fill="#010000" d="M259.72,412.7c1.17-0.59,2.87-1.78,4.04-0.55c-9,13.55-18.76,26.74-30.33,38.26
		c-7.89,8.19-15.96,16.6-26.19,21.87c-5.33,2.66-11.71,3.14-17.32,1.08c-7.34-2.95-12.56-9.46-16.13-16.3
		c-1.57-3.53-3.25-7.29-2.93-11.24c2.83,1.2,4.06,4.24,5.77,6.58c4.3,6.4,8.82,13.24,15.82,16.96c8.1,3.87,17.42,0.26,24.08-4.84
		c14.78-10.98,22.4-28.3,33.63-42.39C253.1,418.77,255.87,415.09,259.72,412.7z"/>
	<path fill="#0084F3" d="M1708.96,425.27c2.7201-5.1,6.86-10.28,13.1001-10.73c7.87-0.49,13.7999,6.56,15.48,13.66
		c0.52,4.5,0.5599,9.11-0.79,13.48c-1.63,4.63-5.1,8.81-9.78,10.53c-4.28,1.09-9.25,0.56-12.5-2.65
		C1707.58,443.68,1706.5699,433.53,1708.96,425.27z"/>
	<path fill="#D9E6E7" d="M1737.54,428.2c0.26-0.32,0.77-0.96,1.0299-1.28c0.5801,4.33,0.7401,8.74,0.15,13.08
		c-0.0399,1.27-0.83,2.26-1.61,3.17l-0.36-1.49C1738.1,437.31,1738.0601,432.7,1737.54,428.2z"/>
	<path fill="#D9E6E5" d="M1767.13,435.53c0.22-3.19,4.5-1.61,6.49-1.18c2.38,0.92,7.0699,1.63,6.42,5.06
		C1776.62,436.12,1771.8101,434.57,1767.13,435.53z"/>
	<path fill="#3689CC" d="M1767.13,435.53c4.6801-0.96,9.49,0.59,12.91,3.88c0.59,0.59,1.14,1.24,1.6499,1.95
		c0.29,0.45,0.8701,1.33,1.16,1.77c3.92,7.52,3.98,17.58-1.48,24.36c0.78-5.47,4.04-10.67,2.5601-16.36
		c-0.7301-6.83-5.55-14.22-12.9601-14.6c-4.0599-0.61-7.12,2.47-10.6599,3.8C1761.61,437.76,1764.5,436.38,1767.13,435.53z"/>
	<path fill="#0084F3" d="M1760.3101,440.33c3.5399-1.33,6.6-4.41,10.6599-3.8c7.41,0.38,12.23,7.77,12.9601,14.6
		c1.48,5.69-1.78,10.89-2.5601,16.36l-0.1,0.68c-0.29,0.14-0.88,0.43-1.17,0.58c-2.98,1.29-5.8199,3.08-9.0699,3.53
		c-3.67,0.21-7.04-1.52-9.89-3.62c-0.25-1.13-0.86-2.5-2.21-2.36l-0.88-0.1c-2.51-5.22-3.3201-11.09-2.4-16.81
		c0.61-1.72,1.2-3.45,1.89-5.14c0.58-1.33,1.45-2.51,2.2799-3.7L1760.3101,440.33z"/>
	<path fill="#C7DEE6" d="M1781.6899,441.36l0.91-0.01l0.61,0.91l-0.36,0.87C1782.5601,442.69,1781.98,441.81,1781.6899,441.36z"/>
	<path fill="#D1E2EA" d="M1756.11,444.21l1.4301,0.04c-0.6901,1.69-1.28,3.42-1.89,5.14l-0.77,0.95c-0.23,2.9,0.63,6.04-0.63,8.76
		C1752.73,454.11,1754.26,448.88,1756.11,444.21z"/>
	<path fill="#FBE4C4" d="M481.38,446.56c13.53-3.33,28.62,3.93,34.7,16.4c4.33,8.2,4.59,18.43,0.55,26.8
		c-5.9,14.68-24.82,21.42-39.2,15.79c-11.61-4.31-20.18-15.99-20.1-28.48C456.89,462.91,467.61,449.57,481.38,446.56z"/>
	<path fill="#333231" d="M1707.8101,465.83c2.48,0.6,4.2799,2.5,6.0699,4.22c6.38,6.65,12.1,13.97,18.97,20.15
		c6.9301,6.27,16.9501,10.11,26.2101,7.3c7.2799-1.88,12.99-7.03,18.61-11.74c2.38-1.93,4.47-4.55,7.6499-5.15
		c-0.35,5.51-4.71,9.74-8.6399,13.17c-6.76,5.66-16.01,7.96-24.66,6.48c-9.89-1.76-19.05-6.39-27.24-12.09
		c-6.4601-4.79-12.4401-10.6-16.0901-17.87C1707.87,468.93,1707.6,467.39,1707.8101,465.83z"/>
	<path fill="#3888CA" d="M1758.9301,466.3c1.35-0.14,1.96,1.23,2.21,2.36C1759.92,469.64,1758.0699,467.43,1758.9301,466.3z"/>
	<path fill="#3989CC" d="M1761.14,468.66c2.85,2.1,6.22,3.83,9.89,3.62c3.25-0.45,6.09-2.24,9.0699-3.53
		c-4.03,6.37-14.01,6.33-19.02,1.12L1761.14,468.66z"/>
	<path fill="#4C87BA" d="M286.96,479.51c0.4-0.27,1.19-0.82,1.59-1.09l0.51,0.63C288.53,479.16,287.48,479.4,286.96,479.51z"/>
	<path fill="#0084F3" d="M289.06,479.05c3.79,12.14,7.15,24.42,10.79,36.61c1,3.45,2.01,6.9,3.01,10.36c0.3,1.04,0.6,2.1,0.9,3.17
		c-17.51,5.48-34.92,11.31-52.47,16.67c0.25,4.82,1.81,9.43,2.72,14.15c2.55,11.14,4.88,22.33,7.51,33.45
		c-3.73-0.05-7.37,0.83-11.04,1.34c-16.48,2.85-32.98,5.64-49.51,8.28c-4.56,0.92-9.17,1.8-13.85,1.65
		c1.44-12.35,2.9-24.7,4.37-37.04c-3.8,1.23-7.26,3.26-10.82,5.02c-10.9,5.42-21.78,10.88-32.67,16.31
		c-2.35,1.23-4.7,2.53-7.34,3.04c-0.56-4.46-1.02-8.93-1.84-13.35c-0.5-6.57-2.11-13.06-1.3-19.69c-0.16,1.45-0.3,2.91-0.41,4.37
		c-1.11-6.48-1.84-13.03-2.67-19.55c38.49-14.03,77.03-27.9301,115.51-41.98c12.53-7.1,24.64-14.96,37.01-22.35
		C287.48,479.4,288.53,479.16,289.06,479.05z"/>
	<path fill="#0084F3" d="M1183.86,485.55c18.6801,0.35,37.37,1.58,56.0601,1c-3.9701,0.05-7.9601-0.04-11.8401,0.87
		c16.61-0.52,33.2301,0.82,49.8401,1.07c29.87,1.05,59.76,1.81,89.64,2.93c22.84,90.94,45.25,182,67.9299,272.99
		c9,36.03,17.74,72.1201,26.98,108.08c-0.27,0.17-0.8199,0.51-1.09,0.68c-31.26,4.86-62.51,9.84-93.79,14.6
		c-23.87-103.41-47.3099-206.93-71.13-310.35c-7.86-1.31-15.8099-2.15-23.72-2.94c-6.92,57.17-14.79,114.24-21.8,171.4
		c-0.0499-1.99-0.21-3.97-0.3899-5.94c-1.53,5.24-0.8301,10.79-2.2201,16.06c-1.35,4.96-0.5,10.21-1.9199,15.17
		c-1.5,4.88-0.48,10.1-2,14.98c-1.6,4.96-0.6,10.27-1.79,15.31c-1.2,4.98-1.75,10.14-1.02,15.25c-3.08,26.66-6.87,53.27-10.12,79.93
		c-29.48,0.9-58.98,1.78-88.48,2.2c-3.88,0.21-7.89-0.47-11.62,0.86c-3.1-0.67-6.28,0.01-9.39-0.07c0.23-2.72,0.51-5.42,0.76-8.12
		l0.21,0.05c0.3,0.07,0.91,0.2,1.2101,0.27c0.3999-5.67,2.3199-11.13,2.4199-16.82c0.01-4.1,1.92-7.89,1.9601-11.98
		c0.0499-3.38,0.63-6.7,1.3999-9.97c1.39-9.37,2.6101-18.77,4.49-28.05c0.3-7.06,1.78-13.99,2.8401-20.96
		c1.96-4.97,0.6899-10.44,2.3099-15.47c1.51-4.44,0.6801-9.24,2.04-13.71c1.27-4.23,0.71-8.74,1.96-12.97
		c1.3201-4.29,1.25-8.81,0.9401-13.23c-0.0601-1.58,0.2-3.13,0.47-4.66c0.13,1.37,0.3,2.74,0.52,4.12
		c1.91-9.79,2.71-19.78,4.77-29.55c0.27-6.63,2.4399-12.97,2.5399-19.6c2.27-11.05,3.14-22.34,5.4301-33.4
		c0.8199-10.95,3.59-21.64,4.61-32.56c0.55-3.67,1.87-7.21,1.73-10.96c-0.1-4.13,1.55-7.98,1.9-12.04
		c0.2-5.77,2.27-11.25,2.41-17.02c1.12-5.1,2.38-10.25,1.4199-15.5C1174.38,546.81,1179.55,516.22,1183.86,485.55z"/>
	<path fill="#FEBD01" d="M1746.02,566.73c6.27-12.19,13.47-23.96,18.51-36.73c-0.3401,1.56-1.7101,3.29-0.49,4.81
		c5.2,10.95,10.77,21.72,16.89,32.19c1.6899,3.31,4.21,6.27,5.0299,9.99c-1.25-0.47-2.51-0.76-3.75-1.06
		c-1.8099-0.81-3.5699-1.71-5.3199-2.58c-1.15,1.32-1.91,3.25-3.67,3.84c-1.7899,0.14-3.5499,0.1-5.2899,0.11
		c0.1,4.13,4.25,5.82,7.4199,7.4c7.17,3.33,14.47,6.42,21.8,9.4c-0.4601,0-1.39,0.01-1.86,0.01c3.71,3.92,5.24,9.44,9.3099,13.04
		c12.9401,21.2599,26.16,42.34,39.22,63.53c-3.8099,3.23-7.73,6.33-11.49,9.62c-4.2799,2.51-8.87-0.68-13.39,0.17
		c-11.9199,0.58-22.11,13.05-18.6699,24.83c1.73,7.05,6.5499,13.44,13.65,15.69c12.1799,5.07,27.23-4.86,27.64-17.97
		c0.0199-4.23-0.28-9.76-4.16-12.29c3.52-4.1,8.0699-7.11,12.13-10.64c2.5399,3.31,4.65,6.93,6.9099,10.45
		c9.9601,15.77,19.9,31.55,29.9501,47.27c1.0699,1.46,1.4,3.23,1.6799,5.02c-3.37-0.23-6.71-0.53-10.0099-1.11
		c-19.77-3.3-39.6901-5.79-59.39-9.33c-6-2.14-12.39-2.79-18.6901-3.12c-6.45-1.93-13.23-1.98-19.77-3.45
		c-5.48-0.33-10.7-2.23-16.1799-2.36c-9.6901-1.33-19.27-3.45-29-4.4c-4.63-1.35-9.41-1.79-14.2101-1.47
		c-2.23-0.26-4.4199-0.64-6.61-0.9901c-16.39-2.35-32.71-5.15-49.13-7.29c0.65-3.63,3.4401-6.25,5.13-9.4
		c21.8501-36.1299,42.3401-73.06,63.01-109.87l-1.88,0.52c1.2101-0.78,2.4701-1.63,3.17-2.96c2.92-5.16,5.67-10.43,8.64-15.5699
		l-1.9601,0.43C1743.42,571.16,1744.9,569.01,1746.02,566.73 M1754.55,633.42c-1.76,3.74-4.0901,7.23-5.38,11.18
		c-8.75,0.82-17.42-1.16-26.15-1.35c-0.03,1.84,1.5699,2.94,2.6899,4.16c4.39,4.23,8.54,8.71,13.0701,12.81
		c1.34,0.92,1.13,2.82,0.6,4.16c-2.49,5.86-5.28,11.58-7.79,17.42c-1.48,1.25-2.15,3.01-2.33,4.9c3.26-0.29,6.87-1.71,8.84-4.4
		c3.5701-1.35,6.8301-3.4,10.29-5.05c1.91-0.91,3.95-2.58,6.21-1.74c3.92,3.36,7.7101,6.89,11.52,10.38
		c2.08,1.69,3.73,4.25,6.77,4.16c0.4299-8.47-3.7001-16.76-2.17-25.12c7.03-3.15,13.42-7.62,20.26-11.19
		c1.48-0.3,0.53-2.49-0.77-1.99c-7.86-0.97-15.63-2.78-23.51-3.46c-0.71-2.07-1.24-4.19-1.45-6.36l-0.53-0.77
		c-0.77-6.46-2.99-12.64-3.5499-19.1299C1758.1801,625.32,1756.63,629.56,1754.55,633.42z"/>
	<path fill="#FBE4C4" d="M1007.81,552.15c8.47-6.48,19.61-10.44,30.21-7.29c14.7999,3.59,25.34,19.21,22.79,34.29
		c-1.9,14.49-15.2001,26.23-29.8,26.39c-14.89,0.85-29.01-10.83-31.51-25.41c-2.17-10.04,1.79-20.38,8.31-27.99V552.15z"/>
	<path fill="#FBE4C4" d="M1574.1,550.2c13.47-3.24,28.36,4.08,34.4401,16.44c5.1899,10.36,3.96,23.64-3.3301,32.71
		c-7.5499,9.84-21.27,14.2401-33.1499,10.6801c-10.3601-2.91-18.7001-11.72-21.38-22.1c-2.3601-7.7-0.8401-16.14,2.8999-23.14
		C1557.58,557.01,1565.78,552.14,1574.1,550.2z"/>
	<path fill="#333333" d="M137.52,559.02c-0.81,6.63,0.8,13.12,1.3,19.69c-24.14,10.61-48.55,20.66-72.49,31.72
		c-3.81,9.11-6.73,18.61-10.19,27.88c-7.78,21.73-15.57,43.46-23.32,65.2c2.85,2.37,5.53,5.13,6.94,8.63
		c3.72,8.47,0.73,19.23-6.73,24.67c-6.73,5.06-16.6,5.39-23.65,0.8c-5.21-3.16-8.56-8.89-9.38-14.86v-8.65
		c2.31-2.16,2.92-5.58,5.34-7.69c4.31-4.96,11.01-7.11,17.45-6.74c10.86-31.23,22.24-62.29,33.28-93.46c0.72-2.77,3-4.64,5.57-5.64
		c23.69-10.83,47.77-20.79,71.6-31.29c1.17-0.52,2.39-0.84,3.67-0.94c0.14-1.65,0.22-3.31,0.2-4.95
		C137.22,561.93,137.36,560.47,137.52,559.02 M2.9,711.09c-0.47,1.53-2.3,3.23-0.69,4.78c-0.4,0-1.21-0.01-1.62-0.01
		c0.37,3.69,0.01,7.55,1.45,11.07c2.61,7.45,10.12,12.77,18,12.88c10.62,0.54,20.42-9.2,20.01-19.82
		c0.1-7.21-4.34-13.91-10.43-17.52C20.37,697.1,7.51,701.64,2.9,711.09z"/>
	<path fill="#EFD576" d="M852.37,565.02c1.82-0.58,3.64-1.34,5.61-1.27c8.98-0.15,18,0.2,26.95-0.85c3.61-0.38,7.26-0.5,10.9-0.21
		c5.54,1.9,11.43,0.4,17.15,0.7c-15.96,1.57-32.06-0.03-47.99,1.83c-3.94,0.25-8.01-0.24-11.79,1.07c-0.11,0.38-0.33,1.14-0.43,1.51
		C852.63,566.86,852.5,565.94,852.37,565.02z"/>
	<path fill="#333333" d="M841.67,565.6c3.57-0.11,7.15-0.0699,10.7-0.58c0.13,0.92,0.26,1.84,0.4,2.78
		c5.48,58.53,10.72,117.08,16.62,175.56c40.53,39.43,80.94,78.99,121.45,118.44c-3.54,1.45-6.95,3.22-10.1201,5.36
		c-39.09-38.21-78.24-76.37-117.35-114.55c-2.17-2.08-4.76-4.32-4.78-7.59C852.74,685.24,847.23,625.41,841.67,565.6z"/>
	<path fill="#EFD576" d="M754.91,568.78c8.41,0.37,16.7-1.45,25.11-1.0601c8.75,0.25,17.5-1,26.24-0.28
		c-7.19,1.42-14.55,0.61-21.8,1.32c-3.08,0.32-6.16,0.61-9.2401,0.65c-0.22,0.39-0.65,1.1801-0.87,1.58
		c0.03-0.59,0.1-1.77,0.13-2.35c-3.64,0.1-7.29,0.3-10.88,0.94C760.7,570.19,757.59,570.2,754.91,568.78z"/>
	<path fill="#333333" d="M763.6,569.58c3.59-0.64,7.2401-0.84,10.88-0.94c-0.03,0.58-0.1,1.76-0.13,2.35
		c-4.03,26.48-7.81,52.99-11.63,79.5c-4.1899,30.75-8.95,61.44-11.81,92.35c-0.5699,0.1299-1.7,0.4-2.2599,0.53
		c0.3199,1.58,1.97,3.49,0.68,4.99c-35.41,44.52-70.84,89.03-106.28,133.53c-1.79-3.26-4.37-6.01-7.32-8.23
		c22.16-27.84,44.31-55.68,66.47-83.52c12.58-16.03,25.62-31.75,37.92-47.98c1.69-20.99,4.86-41.83,7.61-62.7
		c5.04-36.47,10.34-72.92,15.77-109.34L763.6,569.58z"/>
	<path fill="#333232" d="M1773.22,577.19c1.76-0.59,2.52-2.52,3.67-3.84c1.75,0.87,3.51,1.77,5.3199,2.58c0.05,2,2.41,2.92,3.9,1.56
		c22.03,9.93,44.65,18.51,67.01,27.66c17.04,7,34.39,13.31,51.15,20.97c0.02,2.86-0.05,5.73-0.1901,8.6
		c-18.26,15.02-36.37,30.2401-54.5499,45.3701c-4.0601,3.53-8.61,6.54-12.13,10.64c-1.9301-3.17-4.66-5.82-8.12-7.22
		c0.98-1.09,1.97-2.19,3.0499-3.21c3.76-3.29,7.6801-6.39,11.49-9.62c15.54-12.94,31.1001-25.85,46.6101-38.81
		c-29.7401-12.23-59.75-23.8-89.4301-36.17c-1.29-0.56-2.5699-1.12-3.85-1.6c-7.3301-2.98-14.63-6.0699-21.8-9.4
		c-3.1699-1.58-7.3199-3.27-7.4199-7.4C1769.67,577.29,1771.4301,577.33,1773.22,577.19z"/>
	<path fill="#655012" d="M1782.21,575.93c1.24,0.3,2.5,0.59,3.75,1.06l0.15,0.5C1784.62,578.85,1782.26,577.93,1782.21,575.93z"/>
	<path fill="#2D85CF" d="M1170.33,577.5c0.9601,5.25-0.2999,10.4-1.4199,15.5c-0.14,5.77-2.2101,11.25-2.41,17.02
		c-0.35,4.06-2,7.91-1.9,12.04c0.14,3.75-1.1799,7.29-1.73,10.96c-1.02,10.92-3.79,21.61-4.61,32.56
		c-2.29,11.06-3.16,22.35-5.4301,33.4c-0.1,6.63-2.2699,12.97-2.5399,19.6c-2.0601,9.77-2.86,19.76-4.77,29.55
		c-0.22-1.38-0.39-2.75-0.52-4.12c7.33-48.68,14.63-97.36,21.9399-146.05C1168.17,591.16,1168.63,584.21,1170.33,577.5z"/>
	<path fill="#0E549A" d="M250.48,594.8c3.67-0.51,7.31-1.39,11.04-1.34c2.74,12.23,5.43,24.47,8.15,36.71
		c-0.09,0.42-0.26,1.25-0.35,1.66c-23.18,3.28-46.19,7.67-69.32,11.25c-5.83,1.34-11.94,1.42-17.58,3.54
		c-0.07,5.16,0.17,10.55-1.92,15.4c2.08-19.11,4.15-38.23,6.62-57.29c4.68,0.15,9.29-0.73,13.85-1.65
		C217.5,600.44,234,597.65,250.48,594.8z"/>
	<path fill="#EACC69" d="M1795.29,594.11c0.47,0,1.3999-0.01,1.86-0.01c1.28,0.48,2.5599,1.04,3.85,1.6
		c-0.79-0.18-2.37-0.52-3.15-0.7c2.14,4.1,5.2001,7.73,6.75,12.15C1800.53,603.55,1799,598.03,1795.29,594.11z"/>
	<path fill="#FFFFFF" d="M1754.55,633.42c2.08-3.86,3.63-8.1,6.62-11.39c0.5599,6.49,2.7799,12.67,3.5499,19.1299l0.53,0.77
		c0.21,2.17,0.74,4.29,1.45,6.36c7.88,0.68,15.65,2.4901,23.51,3.46c1.3-0.5,2.25,1.69,0.77,1.99c-6.84,3.57-13.23,8.04-20.26,11.19
		c-1.53,8.36,2.6,16.65,2.17,25.12c-3.04,0.09-4.6901-2.47-6.77-4.16c-3.8099-3.49-7.6-7.02-11.52-10.38
		c-2.26-0.84-4.2999,0.83-6.21,1.74c-3.46,1.65-6.72,3.7-10.29,5.05c-2.27,0.8-4.51,1.68-6.71,2.61c0.0499-0.78,0.15-2.33,0.2-3.11
		c2.51-5.84,5.3-11.56,7.79-17.42c0.53-1.34,0.74-3.24-0.6-4.16c-4.53-4.1-8.6801-8.58-13.0701-12.81
		c-1.12-1.22-2.72-2.3199-2.6899-4.16c8.73,0.19,17.4,2.17,26.15,1.35C1750.46,640.65,1752.79,637.16,1754.55,633.42z"/>
	<path fill="#0084F3" d="M269.67,630.17c1.97,10.03,4.79,19.9,6.32,30.01c-32.3,4.82-64.56,9.97-96.89,14.6
		c0.25-4.28,0.55-8.5601,1.4-12.76c2.09-4.85,1.85-10.24,1.92-15.4c5.64-2.12,11.75-2.2,17.58-3.54
		c23.13-3.58,46.14-7.97,69.32-11.25C269.41,631.42,269.58,630.59,269.67,630.17z"/>
	<path fill="#FB4402" d="M253.98,670.8c10.08-0.84,20.01-3.31,30.13-3.51c8.93,28.09,18.88,55.88,27.68,84.01
		c-17.04,9.8-33.87,19.98-50.88,29.85c-3.12,1.83-6.22,3.69-9.34,5.53c-4.13,2.5-8.34,4.85-12.48,7.35
		c-1.9,1.12-3.72,2.55-5.99,2.83c-4.23-13.03-8.92-25.92-13.49-38.83c-0.69,0.5099-1.16,1.18-1.43,2.0099
		c-5.41,12.28-11.17,24.41-16.43,36.75c-7.02-0.49-13.63-3.35-20.5-4.7599c-3.63-1.13-7.3-2.11-11.03-2.8701
		c-0.25-0.12-0.75-0.36-1.01-0.47c-2.25-1.26-4.64-2.24-7.15-2.86c-6.42-1.67-12.8-3.49-19.27-4.95c-0.47-3.05,0.75-5.96,1.51-8.84
		c4.44-15.32,7.84-30.9,12.23-46.23c1.74-5.22,2.3-10.75,4.03-15.97c2.54-7.95,4.04-16.1801,6.19-24.23
		c0.61-3.92,5.33-3.32,8.24-4.03c6.8-1.45,13.85-0.5,20.59-2.3c5.05-1.22,10.34-0.28,15.36-1.6801
		c5.51-1.5699,11.36-0.62,16.86-2.23c4.66-1.19,9.55-0.53,14.2-1.75c5.22-1.29,10.63-1.19,15.91-2.07
		C256.6,671.28,255.29,671,253.98,670.8z"/>
	<path fill="#D36238" d="M194.96,678.25c19.7-2.32,39.35-4.98,59.02-7.45c1.31,0.2,2.62,0.48,3.93,0.75
		c-5.28,0.88-10.69,0.78-15.91,2.07c-4.65,1.22-9.54,0.56-14.2,1.75c-5.5,1.61-11.35,0.66-16.86,2.23
		c-5.02,1.4-10.31,0.46-15.36,1.6801c-6.74,1.8-13.79,0.85-20.59,2.3c-2.91,0.71-7.63,0.11-8.24,4.03
		c-2.15,8.05-3.65,16.28-6.19,24.23c-1.73,5.22-2.29,10.75-4.03,15.97c-4.39,15.33-7.79,30.91-12.23,46.23
		c-0.76,2.88-1.98,5.79-1.51,8.84c6.47,1.46,12.85,3.28,19.27,4.95c2.51,0.62,4.9,1.6,7.15,2.86c-9.38-2.04-18.62-4.79-27.88-7.3
		c-0.02-0.36-0.06-1.07-0.08-1.43c5.58-22.35,11.63-44.58,17.3-66.91c3.1-10.73,5.25-21.75,8.76-32.34
		C176.58,680.66,185.75,679.13,194.96,678.25z"/>
	<path fill="#B99536" d="M1800.27,705.3c-3.4401-11.78,6.75-24.25,18.6699-24.83c4.52-0.85,9.1101,2.34,13.39-0.17
		c-1.08,1.02-2.0699,2.12-3.0499,3.21c-6-2.02-13.04-2.3-18.51,1.28c-6.76,3.96-10.11,12.07-9.51,19.7
		C1801.02,704.69,1800.52,705.1,1800.27,705.3z"/>
	<path fill="#F9DE77" d="M1729.26,686.7c0.1799-1.89,0.85-3.65,2.33-4.9c-0.0499,0.78-0.15,2.33-0.2,3.11
		c2.2-0.93,4.4399-1.81,6.71-2.61C1736.13,684.99,1732.52,686.41,1729.26,686.7z"/>
	<path fill="#FBE4C4" d="M1810.77,684.79c5.47-3.58,12.51-3.3,18.51-1.28c3.46,1.4,6.1899,4.05,8.12,7.22
		c3.99,6.64,4.0399,15.59-0.62,21.92c-5.3,8.22-17.12,10.72-25.54,6.04c-5.21-2.95-9.01-8.28-9.98-14.2
		C1800.66,696.86,1804.01,688.75,1810.77,684.79z"/>
	<path fill="#38332C" d="M1837.4,690.73c3.88,2.53,4.1799,8.06,4.16,12.29c-0.41,13.11-15.4601,23.04-27.64,17.97
		c-7.1001-2.25-11.92-8.64-13.65-15.69c0.25-0.2,0.75-0.61,0.99-0.81c0.97,5.92,4.77,11.25,9.98,14.2
		c8.42,4.68,20.24,2.18,25.54-6.04C1841.4399,706.32,1841.39,697.37,1837.4,690.73z"/>
	<path fill="#FBE4C4" d="M2.9,711.09c4.61-9.45,17.47-13.9901,26.72-8.6201c6.09,3.61,10.53,10.3101,10.43,17.52
		c0.41,10.62-9.39,20.36-20.01,19.82c-7.88-0.11-15.39-5.43-18-12.88c-1.44-3.52-1.08-7.38-1.45-11.07c0.41,0,1.22,0.01,1.62,0.01
		C0.6,714.32,2.43,712.62,2.9,711.09z"/>
	<path fill="#333333" d="M1714.21,716.6c2.1901,0.35,4.38,0.73,6.61,0.9901c1.42,0.23,2.8501,0.54,4.29,0.8799
		c-12.66,38.2401-24.91,76.61-37.5499,114.85c14.47,18.43,29.09,36.74,43.6299,55.11c-3.9299,0.68-7.8199,1.58-11.5499,2.94
		c-12.98-16.36-25.92-32.74-38.92-49.07c-2.8099-2.94-5.2999-7.03-3.7999-11.21C1689.35,792.93,1701.8199,754.78,1714.21,716.6z"/>
	<path fill="#EFCD61" d="M1720.8199,717.59c4.8-0.32,9.5801,0.12,14.2101,1.47c9.73,0.95,19.3099,3.07,29,4.4
		c5.48,0.13,10.7,2.03,16.1799,2.36c6.54,1.47,13.3201,1.52,19.77,3.45c6.3,0.33,12.6901,0.98,18.6901,3.12
		c-2.79-0.05-5.55-0.08-8.3101-0.11c-0.09-0.27-0.29-0.8101-0.38-1.08c-3.62-0.56-7.22-1.28-10.88-1.21
		c-24.65-3.86-49.4199-7.21-73.99-11.52C1723.67,718.13,1722.24,717.82,1720.8199,717.59z"/>
	<path fill="#333333" d="M1799.1,729.99c3.66-0.07,7.26,0.65,10.88,1.21c0.09,0.27,0.29,0.81,0.38,1.08
		c6.1901,33.8,11.83,67.72,18.25,101.46c7.74,4.89,16.1,8.86,24.0601,13.44c18.95,10.31,37.7999,20.81,56.8099,31.01
		c-5.88-0.39-11.11,2.87-16.77,3.34c-23.27-12.84-46.6-25.58-69.9199-38.32c-2.6801-1.41-4.5801-4.18-4.9401-7.17
		C1811.6,800.69,1805.12,765.38,1799.1,729.99z"/>
	<path fill="#2D85CF" d="M1248.33,756c1.39-5.27,0.6901-10.82,2.2201-16.06c0.1799,1.97,0.34,3.95,0.3899,5.94
		c-3.21,23.6-5.74,47.31-9.34,70.83c-0.73-5.11-0.1799-10.27,1.02-15.25c1.1901-5.04,0.1901-10.35,1.79-15.31
		c1.52-4.88,0.5-10.1,2-14.98C1247.83,766.21,1246.98,760.96,1248.33,756z"/>
	<path fill="#2D85CF" d="M1144.53,748.67c0.3099,4.42,0.38,8.94-0.9401,13.23c-1.25,4.23-0.6899,8.74-1.96,12.97
		c-1.36,4.47-0.53,9.27-2.04,13.71c-1.62,5.03-0.35,10.5-2.3099,15.47c-1.0601,6.97-2.54,13.9-2.8401,20.96
		c-1.8799,9.28-3.1,18.68-4.49,28.05c-0.7699,3.27-1.35,6.59-1.3999,9.97c-0.04,4.09-1.9501,7.8799-1.9601,11.98
		c-0.1,5.69-2.02,11.15-2.4199,16.82c-0.3-0.07-0.91-0.2-1.2101-0.27c3.7001-26.41,7.89-52.75,11.76-79.13
		C1138.0601,791.19,1140.83,769.85,1144.53,748.67z"/>
	<path fill="#333332" d="M251.57,786.68c3.12-1.84,6.22-3.7,9.34-5.53c24.9,48.21,50.04,96.3,74.95,144.5099
		c-3.44,1.1201-6.77,2.57-9.85,4.46C301.16,882.32,276.27,834.54,251.57,786.68z"/>
	<path fill="#333233" d="M170.22,789.16c3.73,0.76,7.4,1.7401,11.03,2.8701c-22.81,37.46-45.64,74.91-68.47,112.36
		c-2.01-3.18-5.12-5.38-8.33-7.21C126.36,861.16,148.4,825.23,170.22,789.16z"/>
	<path fill="#FB4402" d="M990.84,861.8c14.06-5.22,29.28-6.92,44.2-5.97c12.98,1.05,26.25,3.65,37.47,10.59
		c4.59,3.02,8.99,7.16,10.36,12.68c1.14,3.6-0.27,7.46-2.16,10.55c-4,5.93-10.51,9.55-16.98,12.2c-11.34,4.45-23.6,6.31-35.75,6.08
		c-16.16,0.33-33.06-2.25-46.9-11.07c-5.03-3.31-9.89-8.42-9.83-14.82c-0.26-6.39,4.56-11.48,9.47-14.88
		C983.89,865.02,987.3,863.25,990.84,861.8z"/>
	<path fill="#FB4402" d="M544.35,871.34c15.59-8.72,34.05-10.59,51.63-9.73c13.82,1.08,28.22,3.89,39.75,12.05
		c2.95,2.22,5.53,4.97,7.32,8.23c1.4,3.35,1.83,7.26,0.31,10.66c-2.7,6.34-8.71,10.43-14.7,13.34
		c-7.6299,1.49-14.86,4.85-22.66,5.61c-5.38,0.18-10.64,1.55-16.03,1.64c-6.71,0.36-13.2599-1.53-19.9399-1.69
		c-6.69-0.23-12.61-4.15-19.3101-4.23c-7.47-3.2599-15.48-8.1299-18.09-16.33C530.51,882.33,537.54,875.21,544.35,871.34z"/>
	<path fill="#333333" d="M1452.6899,879.94c19.1201-2.41,39.17-1.24,57.1201,6.25c6.5499,2.87,13.0499,6.91,16.84,13.17
		c3.02,4.97,2.35,11.58-1.2101,16.09c-5.96,7.73-15.37,11.69-24.45,14.47c-18.63,5.27-38.61,5.55-57.49,1.38
		c-9.12-2.16-18.25-5.46-25.5699-11.47c-4.3101-3.58-7.88-8.92-7.2101-14.76c0.61-5.89,4.98-10.48,9.5601-13.79
		C1429.8101,884.64,1441.34,881.66,1452.6899,879.94z"/>
	<path fill="#FB4402" d="M1892.71,881.53c5.66-0.47,10.89-3.73,16.77-3.34c4.35-0.01,9.16,1.76,10.52,6.35v4.71
		c-4.3,12.36-14.5699,21.5-25.28,28.43c-9.13,5.54-19.72,10.6-30.6899,8.74c-3.88-0.69-6.55-4.59-6.1901-8.43
		c0.8-6.56,4.79-12.21,9.12-17c7.1901-7.93,16.12-14.18,25.8301-18.65L1892.71,881.53z"/>
	<path fill="#FB4402" d="M1719.64,891.37c3.73-1.36,7.62-2.26,11.5499-2.94c4.41-0.2,9.92,0.62,12.01,5.1
		c1.7301,5.7599-1.3899,11.49-4.5699,16.11c-5.8,7.84-13.37,14.29-21.71,19.29c-7.3101,4.3-15.36,7.79-23.91,8.42
		c-3.33,0.07-6.96-0.65-9.42-3.02c-2.48-2.7-2.24-6.8-1.1-10.04c2.4301-6.82,7.3101-12.43,12.51-17.33
		C1702.15,900.3,1710.5699,895.01,1719.64,891.37z"/>
	<path fill="#0084F3" d="M42.02,892.75c16.18-4.36,33.51-4.46,49.76-0.44c4.38,1.16,8.72,2.63,12.67,4.87
		c3.21,1.83,6.32,4.03,8.33,7.21c2.44,3.77,1.77,8.9-1.27,12.14c-5.76,6.47-14.42,9.16-22.58,11.14
		c-16.77,3.42-34.58,3.04-50.89-2.41c-5.69-2.19-11.73-4.98-15.19-10.25c-2.51-3.65-1.98-8.89,0.97-12.13
		C28.47,897.47,35.36,894.76,42.02,892.75z"/>
	<path fill="#D36238" d="M606,911.5c7.8-0.76,15.03-4.12,22.66-5.61c-11.87,6.06-25.45,7.78-38.61,8.33c-13.34-0.06-27-1.65-39.33-7
		c6.7,0.08,12.6201,4,19.3101,4.23c6.68,0.16,13.23,2.05,19.9399,1.69C595.36,913.05,600.62,911.68,606,911.5z"/>
	<path fill="#333333" d="M1133.86,908.78c17.22-2.0601,35.0601-0.79,51.48,5.0099c7.5801,2.88,15.3201,6.86,19.98,13.76
		c2.9501,4.23,3.3301,10.07,0.8601,14.62c-3.01,5.53-8.37,9.32-13.8601,12.14c-10.5399,5.33-22.33,7.44-33.96,8.69h-18.09
		c-12.62-1.11-25.46-3.49-36.66-9.69c-4.9299-2.8-9.73-6.44-12.27-11.64c-1.9099-3.84-1.9099-8.52,0.04-12.33
		c2.5-4.96,7.03-8.53,11.74-11.28C1112.53,912.75,1123.22,910.19,1133.86,908.78z"/>
	<path fill="#0084F3" d="M335.86,925.66c16.75-5.22,34.97-5.47,51.99-1.36c7.75,2.12,16.04,5.06,21.01,11.76
		c3.04,4.01,2,9.9-1.5,13.29c-6.5,6.45-15.69,9.13-24.44,10.88c-16.06,2.78-33.01,2.38-48.53-2.92
		c-6.55-2.55-14.08-6.05-16.47-13.23c-1.64-6,3.32-11.19,8.09-13.96C329.09,928.23,332.42,926.78,335.86,925.66z"/>
</g>
</svg>
