<svg width="278" height="504" xmlns="http://www.w3.org/2000/svg">

 <g label="Capa 1" id="imagebot_4">
  <title label="Capa 1"/>
  <metadata label="Capa 1" id="imagebot_34"/>

  <metadata fill-rule="evenodd" clip-rule="evenodd" id="imagebot_78"/>
  <polyline transform="translate(-25 4.6875) matrix(0.344066 0 0 0.448391 5.64134 9.58933)" fill-rule="evenodd" clip-rule="evenodd" fill="none" stroke-width="8.82625" stroke="rgb(55, 52, 53)" points="147.427,855.006 138.086,996.057 352.932,919.459 360.405,983.913" id="imagebot_77"/>
  <polyline transform="translate(17.1875 -3.125) matrix(0.344066 0 0 0.448391 5.64134 9.58933)" fill-rule="evenodd" clip-rule="evenodd" fill="none" stroke-width="8.82625" stroke="rgb(55, 52, 53)" points="302.489,884.426 309.028,1030.15 522.005,947.012 522.005,1036.41" id="imagebot_76"/>
  <polygon transform="translate(-10.9375 -3.125) matrix(0.539801 0 0 0.703475 -28.6656 -183.597)" fill-rule="evenodd" clip-rule="evenodd" fill="#7f007f" stroke-width="8.82625" stroke="rgb(55, 52, 53)" points="366.009,763.462 361.339,890.502 252.048,895.172 229.629,797.09 204.408,877.424 90.4461,862.479 132.481,716.757" id="imagebot_74"/>
  <path transform="translate(-293.75 -31.25) matrix(0.344066 0 0 0.448391 277.516 25.2143)" fill-rule="evenodd" clip-rule="evenodd" fill="#7fff00" stroke-width="8.82625" stroke="rgb(55, 52, 53)" d="M 155.54773786996049 424.07163977793306 C 122.13930162898451 488.365494051066 145.58503909538842 519.913101123852 225.88375710246072 518.715371730551 L 55.99535200406978 754.7924912790781 L 540.7708780131305 846.2460349617148 C 543.077512533586 842.4278157304157 542.7319228005167 843.3160548539107 544.0171371110152 838.8025127836797 L 483.41990675631183 571.8867927835508 C 554.1198997565537 582.6672452891629 594.878706306486 569.1969505316758 605.6963264061092 531.4769444713102 C 610.9813483056315 503.6712029463245 591.1428202435749 468.5787904511825 546.1808233089394 426.1994793023192 C 458.83638636521624 430.63363949763834 385.61533636072215 413.9741241253209 326.51767329545703 376.2189523383521 L 300.5475310075227 424.07234559698423 C 256.11817296024446 395.6817988354826 207.78519046186597 395.6817988354826 155.54765678096072 424.07234559698423 L 155.54773786996049 424.07163977793306 z" id="imagebot_72"/>
  <ellipse transform="matrix(0.344066 0 0 0.448391 5.64134 9.58933)" fill-rule="evenodd" clip-rule="evenodd" fill="rgb(253, 209, 161)" stroke-width="8.82625" stroke="rgb(55, 52, 53)" ry="18.7514" rx="31.0543" cy="150.756" cx="218.191" id="imagebot_71"/>
  <ellipse transform="matrix(0.344066 0 0 0.448391 5.64134 9.58933)" fill-rule="evenodd" clip-rule="evenodd" fill="rgb(253, 209, 161)" stroke-width="8.82625" stroke="rgb(55, 52, 53)" ry="19.1485" rx="18.6825" cy="299.677" cx="620.088" id="imagebot_70"/>
  <path transform="matrix(0.344066 0 0 0.448391 5.64134 9.58933)" fill-rule="evenodd" clip-rule="evenodd" fill="#ffd4aa" stroke-width="8.82625" stroke="rgb(55, 52, 53)" d="M606.076,193.655C621.1583,231.2001 623.6499,271.6781 613.54918,315.089C566.53528,413.928 481.53018,449.113 358.53618,420.644C224.18918,381.3257 174.05918,298.813 208.14518,173.104C259.88998,79.5696 332.43918,41.271 425.79218,58.208C498.28748,81.7653 558.38218,126.9142 606.07618,193.655L606.076,193.655z" id="imagebot_68"/>
  <line transform="matrix(0.344066 0 0 0.448391 5.64134 9.58933)" fill-rule="evenodd" clip-rule="evenodd" fill="none" stroke-width="8.82625" stroke="rgb(55, 52, 53)" y2="361.796" x2="784.084" y1="479.494" x1="523.877" id="imagebot_67"/>
  <line transform="matrix(0.344066 0 0 0.448391 5.64134 9.58933)" fill-rule="evenodd" clip-rule="evenodd" fill="none" stroke-width="8.82625" stroke="rgb(55, 52, 53)" y2="464.547" x2="727.513" y1="333.772" x1="728.447" id="imagebot_66"/>
  <polyline transform="matrix(0.344066 0 0 0.448391 5.64134 9.58933)" fill-rule="evenodd" clip-rule="evenodd" fill="none" stroke-width="8.82625" stroke="rgb(55, 52, 53)" points="784.084,420.645 727.98,399.16 753.668,447.733" id="imagebot_65"/>
  <line transform="matrix(0.344066 0 0 0.448391 5.64134 9.58933)" fill-rule="evenodd" clip-rule="evenodd" fill="none" stroke-width="8.82625" stroke="rgb(55, 52, 53)" y2="195.523" x2="84.8441" y1="403.831" x1="169.848" id="imagebot_64"/>
  <polyline transform="matrix(0.344066 0 0 0.448391 5.64134 9.58933)" fill-rule="evenodd" clip-rule="evenodd" fill="none" stroke-width="8.82625" stroke="rgb(55, 52, 53)" points="162.375,222.613 106.731,249.158 46.5452,210.47" id="imagebot_63"/>
  <polyline transform="matrix(0.344066 0 0 0.448391 5.64134 9.58933)" fill-rule="evenodd" clip-rule="evenodd" fill="none" stroke-width="8.82625" stroke="rgb(55, 52, 53)" points="41.8744,252.505 102.93,239.843 121.274,189.919" id="imagebot_62"/>
  <path transform="matrix(0.344066 0 0 0.448391 5.64134 9.58933)" fill-rule="evenodd" clip-rule="evenodd" fill="none" stroke-width="8.82625" stroke="rgb(55, 52, 53)" d="M593.935,173.105C655.8079,204.0039 719.191,223.6203 784.084,231.954" id="imagebot_61"/>
  <path transform="matrix(0.344066 0 0 0.448391 5.64134 9.58933)" fill-rule="evenodd" clip-rule="evenodd" fill="none" stroke-width="8.82625" stroke="rgb(55, 52, 53)" d="M609.814,211.404C668.6736,237.2667 723.786,255.6376 775.153,266.5169" id="imagebot_60"/>
  <path transform="matrix(0.344066 0 0 0.448391 5.64134 9.58933)" fill-rule="evenodd" clip-rule="evenodd" fill="none" stroke-width="8.82625" stroke="rgb(55, 52, 53)" d="M619.156,250.636C673.4577,278.0027 722.343,296.3736 765.811,305.7489" id="imagebot_59"/>
  <path transform="matrix(0.344066 0 0 0.448391 5.64134 9.58933)" fill-rule="evenodd" clip-rule="evenodd" fill="none" stroke-width="8.82625" stroke="rgb(55, 52, 53)" d="M635.97,308.551C684.1119,330.1912 731.2952,348.9293 777.518,364.7654" id="imagebot_58"/>
  <path transform="matrix(0.344066 0 0 0.448391 5.64134 9.58933)" fill-rule="evenodd" clip-rule="evenodd" fill="none" stroke-width="8.82625" stroke="rgb(55, 52, 53)" d="M200.672,167.499C129.3127,179.8672 63.304,163.36479 2.644,117.9908" id="imagebot_57"/>
  <path transform="matrix(0.344066 0 0 0.448391 5.64134 9.58933)" fill-rule="evenodd" clip-rule="evenodd" fill="none" stroke-width="8.82625" stroke="rgb(55, 52, 53)" d="M239.904,128.267C140.2239,128.01722 64.249,93.7661 11.98,25.514" id="imagebot_56"/>
  <path transform="matrix(0.344066 0 0 0.448391 5.64134 9.58933)" fill-rule="evenodd" clip-rule="evenodd" fill="none" stroke-width="8.82625" stroke="rgb(55, 52, 53)" d="M273.532,95.5724C197.8937,78.258 133.128,50.5462 79.236,12.4371" id="imagebot_55"/>
  <path transform="matrix(0.344066 0 0 0.448391 5.64134 9.58933)" fill-rule="evenodd" clip-rule="evenodd" fill="none" stroke-width="8.82625" stroke="rgb(55, 52, 53)" d="M140.888,4.03006C216.0903,37.59536 278.053,56.58946 326.777,61.01056" id="imagebot_54"/>
  <path transform="matrix(0.344066 0 0 0.448391 5.64134 9.58933)" fill-rule="evenodd" clip-rule="evenodd" fill="none" stroke-width="8.82625" stroke="rgb(55, 52, 53)" d="M281.939,161.895C275.07571,323.185 522.926,358.058 568.711,232.888" id="imagebot_53"/>
  <path transform="matrix(0.344066 0 0 0.448391 5.64134 9.58933)" fill-rule="evenodd" clip-rule="evenodd" fill="none" stroke-width="8.82625" stroke="rgb(55, 52, 53)" d="M482.774,145.081C471.0819,121.1151 458.3156,118.0021 444.4752,135.74018" id="imagebot_52"/>
  <path transform="matrix(0.344066 0 0 0.448391 5.64134 9.58933)" fill-rule="evenodd" clip-rule="evenodd" fill="none" stroke-width="8.82625" stroke="rgb(55, 52, 53)" d="M412.715,119.86C401.8561,106.7733 387.5328,107.3965 369.7453,121.72852" id="imagebot_51"/>
  <path transform="matrix(0.344066 0 0 0.448391 5.64134 9.58933)" fill-rule="evenodd" clip-rule="evenodd" fill="none" stroke-width="8.82625" stroke="rgb(55, 52, 53)" d="M302.49,92.77C340.0554,73.6629 367.1449,55.6036 383.7577,38.5918" id="imagebot_50"/>
  <path transform="matrix(0.344066 0 0 0.448391 5.64134 9.58933)" fill-rule="evenodd" clip-rule="evenodd" fill="none" stroke-width="8.82625" stroke="rgb(55, 52, 53)" d="M371.614,85.2977C392.2745,68.6293 410.3339,51.5038 425.7922,33.921" id="imagebot_49"/>
  <path transform="matrix(0.344066 0 0 0.448391 5.64134 9.58933)" fill-rule="evenodd" clip-rule="evenodd" fill="none" stroke-width="8.82625" stroke="rgb(55, 52, 53)" d="M427.661,93.7047C438.2807,77.8784 446.6877,62.932 452.882,48.8674" id="imagebot_48"/>
  <path transform="matrix(0.344066 0 0 0.448391 5.64134 9.58933)" fill-rule="evenodd" clip-rule="evenodd" fill="none" stroke-width="8.82625" stroke="rgb(55, 52, 53)" d="M496.785,117.991C493.00472,97.2996 488.33387,77.9949 482.7733,60.0767" id="imagebot_47"/>
  <path transform="matrix(0.344066 0 0 0.448391 5.64134 9.58933)" fill-rule="evenodd" clip-rule="evenodd" fill="none" stroke-width="8.82625" stroke="rgb(55, 52, 53)" d="M534.149,128.267C524.22918,114.7231 519.5583,100.7115 520.1373,86.232" id="imagebot_46"/>
  <path transform="matrix(0.344066 0 0 0.448391 5.64134 9.58933)" fill-rule="evenodd" clip-rule="evenodd" fill="none" stroke-width="8.82625" stroke="rgb(55, 52, 53)" d="M566.844,139.476C560.94807,129.2835 558.14573,118.3848 558.437,106.7818" id="imagebot_45"/>
  <line transform="matrix(0.344066 0 0 0.448391 5.64134 9.58933)" fill-rule="evenodd" clip-rule="evenodd" fill="none" stroke-width="4.41312" stroke="rgb(55, 52, 53)" y2="426.716" x2="390.365" y1="546.749" x1="422.99" id="imagebot_43"/>
  <line transform="translate(204.688 -51.5625) matrix(0.344066 0 0 0.448391 -209.984 51.7768)" fill-rule="evenodd" clip-rule="evenodd" fill="none" stroke-width="4.41312" stroke="rgb(55, 52, 53)" y2="416.907" x2="265.125" y1="500.043" x1="200.672" id="imagebot_42"/>
 </g>
 <metadata id="imagebot_3">image/svg+xmlOpenclipart</metadata>
</svg>