<?xml version="1.0" encoding="UTF-8"?>
<!DOCTYPE svg PUBLIC "-//W3C//DTD SVG 1.1//EN" "http://www.w3.org/Graphics/SVG/1.1/DTD/svg11.dtd">
<!-- Creator: CorelDRAW X7 -->
<svg xmlns="http://www.w3.org/2000/svg" xml:space="preserve" width="211.997mm" height="185.286mm" version="1.1" style="shape-rendering:geometricPrecision; text-rendering:geometricPrecision; image-rendering:optimizeQuality; fill-rule:evenodd; clip-rule:evenodd"
viewBox="0 0 21200 18529"
 xmlns:xlink="http://www.w3.org/1999/xlink">
 <defs>
  <style type="text/css">
   <![CDATA[
    .fil0 {fill:#FEFEFE}
    .fil1 {fill:#373435}
    .fil13 {fill:#FFF212}
    .fil3 {fill:#FFCC29}
    .fil2 {fill:#FBC8B8}
    .fil6 {fill:#F37D84}
    .fil12 {fill:#ED3237}
    .fil11 {fill:#BCD97B}
    .fil7 {fill:#A87F44}
    .fil9 {fill:#99625B}
    .fil10 {fill:#8E4543}
    .fil5 {fill:#247CBF}
    .fil4 {fill:#00A859}
    .fil8 {fill:#3E4095}
   ]]>
  </style>
 </defs>
 <g id="Capa_x0020_1">
  <metadata id="CorelCorpID_0Corel-Layer"/>
  <rect class="fil0" width="21200" height="18529"/>
  <path class="fil1" d="M4787 1864c50,-14 92,-50 146,-48 -30,56 -88,80 -132,122 -88,78 -182,154 -244,258 -82,111 -118,245 -152,377 4,26 20,36 44,32 92,-60 162,-146 252,-206 198,-137 400,-279 631,-353 136,-50 276,-100 422,-108 126,-6 252,-40 378,-14 102,26 210,8 310,42 431,68 843,206 1243,373 469,192 911,436 1363,662 250,120 505,234 745,376 118,58 240,108 364,156 108,58 230,84 340,137 -10,8 -30,24 -40,32 -192,-61 -378,-139 -568,-205 -248,-96 -509,-164 -765,-238 96,84 204,156 295,250 188,143 378,287 538,463 186,184 340,416 372,680 -2,78 22,162 -14,236 -66,177 -152,347 -268,495 -80,118 -186,214 -282,318 -224,200 -453,396 -713,550 -244,136 -488,279 -742,397 -214,134 -453,220 -665,356 -242,122 -482,254 -690,430 -110,84 -198,196 -260,320 -24,39 -20,87 -14,131 50,58 102,114 162,162 140,70 288,122 424,194 154,100 306,202 460,304 60,38 102,98 162,136 255,168 465,390 669,613 120,148 252,292 332,466 24,76 14,158 22,236 10,122 0,244 -4,368 515,-58 1063,80 1453,431 42,10 54,-30 70,-62 46,-70 24,-158 32,-237 -114,-58 -212,-156 -250,-278 -18,-70 -54,-142 -24,-212 46,-134 174,-222 310,-242 16,-114 74,-218 122,-322 78,-122 161,-242 247,-357 66,-62 124,-130 192,-186 118,-68 234,-142 362,-184 44,-12 72,-56 120,-60 84,-12 158,-58 238,-82 100,-16 198,20 298,12 87,2 177,-22 261,8 58,14 116,26 174,36 58,-94 102,-200 176,-284 64,-70 126,-142 182,-218 64,-84 158,-136 232,-208 -420,86 -828,228 -1221,400 -128,52 -248,116 -376,166 16,-370 48,-741 66,-1111 6,-294 44,-586 38,-880 -4,-293 -14,-589 -78,-875 -48,-176 -84,-354 -158,-520 -36,-79 -56,-165 -106,-235 -120,-174 -132,-406 -52,-600 110,-266 290,-500 512,-683 190,-150 366,-314 559,-462 530,-410 1166,-690 1833,-776 584,-81 1179,-38 1755,68 366,58 727,156 1067,298 266,120 522,268 734,468 189,164 335,372 451,591 142,296 240,614 268,942 86,653 -4,1309 -62,1962 -30,148 -32,298 -58,448 -12,190 -54,374 -66,564 -20,117 0,235 -6,351 -4,162 -8,324 -20,486 -8,66 -68,100 -112,142 -74,74 -176,108 -274,138 -82,10 -167,8 -249,14 -4,50 -8,102 -4,154 44,68 104,128 143,200 52,97 98,195 160,285 26,48 30,106 32,160 2,150 10,308 -48,450 -74,196 -233,342 -343,519 -56,104 -182,136 -256,224 -80,100 -194,166 -268,272 -44,64 -118,94 -166,154 -64,90 -154,158 -216,250 -16,130 8,262 2,394 -10,307 4,613 10,921 -4,290 2,583 -8,875 -80,12 -158,20 -238,28 -14,166 -37,332 -42,498 13,326 28,663 150,971 32,58 76,108 114,162 106,170 302,246 454,366 80,66 184,90 268,150 90,64 178,130 266,196 104,71 165,185 243,279 70,102 172,202 164,338 4,68 -32,134 -90,172 -70,58 -158,84 -241,120 -64,16 -128,4 -192,0 -104,-8 -206,50 -306,12 -214,-32 -410,-134 -590,-248 -76,-50 -154,-98 -210,-170 -55,-66 -143,-98 -187,-174 -90,-152 -224,-291 -394,-349 -174,-60 -274,-222 -370,-366 -40,-92 -20,-200 34,-280 50,-76 32,-172 44,-258 16,-124 -26,-244 -42,-364 -20,-97 -26,-199 -70,-287 -24,-112 -68,-218 -84,-332 -36,-100 -10,-212 -64,-308 -48,-2 -96,4 -140,20 -125,-28 -251,-50 -377,-28 -26,62 -50,128 -42,196 -30,184 -82,366 -142,540 -30,142 -54,287 -78,431 -12,90 6,182 8,272 -4,96 88,164 86,262 22,120 -68,214 -136,300 -64,32 -134,54 -198,82 -88,42 -186,44 -278,58 -128,22 -258,6 -387,14 -26,-26 -52,-52 -78,-78 -84,16 -170,28 -256,40 -18,104 -16,213 10,317 98,46 194,94 296,136 125,52 247,136 387,130 106,-2 212,8 316,10 98,28 200,70 266,150 28,92 64,212 -8,292 -30,36 -54,84 -104,98 -122,30 -246,60 -374,78 -415,28 -825,-62 -1235,-104 -126,10 -250,-34 -360,-92 -6,-96 -10,-194 -2,-290 36,-114 126,-198 178,-306 60,-76 36,-178 44,-269 -174,57 -360,13 -537,55 -6,90 26,176 54,260 12,52 79,54 103,98 74,118 22,264 46,392 24,66 -46,128 -111,128 -186,12 -370,58 -558,48 -120,-2 -236,32 -356,50 -116,24 -234,28 -352,28 -18,24 -28,56 -54,74 -115,42 -235,64 -355,86 -104,36 -212,40 -320,54 -218,12 -426,-60 -634,-106 -122,-24 -241,-66 -359,-104 -28,-10 -58,-18 -78,-42 -26,-98 -50,-226 44,-296 -2,-36 -4,-74 -4,-110 -130,6 -260,-4 -390,2 28,50 88,90 78,156 -6,62 6,146 -52,188 -244,92 -500,142 -751,204 -92,10 -182,34 -274,24 -114,-12 -230,-20 -340,-56 -122,-20 -242,-48 -360,-86 -46,-76 -90,-154 -116,-238 30,-110 40,-238 132,-316 60,-52 138,-92 220,-90 136,-2 272,-4 408,-24 44,-6 84,20 128,30 36,-4 74,-10 110,-14 -28,-52 -62,-108 -126,-122 -158,-48 -306,-126 -462,-186 -34,28 -72,50 -116,52 -128,14 -254,56 -382,34 -78,-8 -156,-14 -233,-30 -58,-26 -102,-74 -152,-112 0,-44 0,-87 -2,-129 -28,-8 -56,-16 -84,-24 24,-122 58,-242 66,-366 2,-74 42,-144 34,-220 -14,-116 42,-224 36,-340 -8,-260 10,-521 -6,-783 -10,-72 -34,-144 -32,-218 6,-76 -28,-144 -36,-218 -28,-170 -96,-340 -228,-456 -50,36 -102,68 -154,104 -220,234 -302,560 -344,868 -6,220 -20,443 12,661 22,154 34,312 90,458 38,146 88,288 126,436 20,90 60,174 70,267 -50,-2 -102,-22 -154,-10 -66,62 -142,114 -222,160 -56,56 -140,52 -212,72 -150,34 -305,18 -455,40 -140,56 -268,136 -400,202 -180,86 -348,192 -528,270 -197,70 -409,88 -615,98 -206,-10 -414,-36 -612,-100 -112,-40 -180,-140 -244,-234 -105,-138 -133,-324 -99,-492 49,-153 155,-281 277,-381 154,-106 332,-174 518,-206 276,-30 554,-8 833,-34 50,-172 76,-352 106,-530 26,-284 16,-571 30,-855 -12,-294 -16,-588 -34,-881 -10,-260 22,-520 20,-780 -4,-96 12,-190 16,-286 -52,-30 -138,6 -166,-58 12,-102 40,-207 34,-311 -66,-94 -142,-180 -221,-264 -142,-152 -280,-308 -420,-462 -216,-214 -400,-458 -566,-713 -30,-84 -56,-168 -82,-252 0,-102 -36,-220 42,-304 132,-244 296,-472 504,-656 86,-81 176,-159 266,-235 307,-218 613,-434 939,-622 132,-70 274,-124 406,-196 66,-36 146,-62 182,-136 84,-150 179,-313 337,-391 36,30 74,58 110,86 -24,-134 -134,-222 -214,-324 -121,-178 -329,-262 -495,-386 -142,-114 -310,-180 -462,-278 -160,-102 -332,-184 -492,-288 -203,-123 -411,-239 -601,-381 -60,-60 -108,-134 -182,-176 0,96 -28,190 -32,288 4,180 -30,363 -84,535 -2,32 -26,50 -54,60 0,-156 -54,-304 -98,-453 -156,-410 -481,-738 -605,-1164 -26,-131 -58,-263 -52,-399 -6,-138 26,-276 38,-412 20,-158 100,-298 168,-436 111,-178 243,-347 413,-471 90,-56 174,-122 272,-166 184,-82 376,-154 576,-186 38,-10 72,-36 102,-64 -58,-56 -124,-102 -184,-158 -142,-100 -318,-142 -488,-170 106,-74 238,-98 360,-132 70,-10 144,-14 214,-6 44,16 86,36 130,54 79,42 141,108 217,156 16,-54 12,-112 18,-168 34,-136 110,-256 198,-365 104,-120 242,-202 380,-280 48,-28 102,-48 156,-64zm11653 7916c40,-40 88,-72 134,-106 18,62 50,116 76,174 -58,54 -120,106 -184,156 -10,-74 -22,-150 -26,-224zm-6867 2834c176,-86 348,-180 530,-256 -6,180 -42,358 -32,538 -202,-28 -404,-78 -606,-38 -14,-42 -42,-86 -16,-126 20,-58 72,-92 124,-118zm-1529 -238c192,84 382,172 572,262 80,38 154,88 226,140 0,64 -6,128 -14,192 -72,-20 -138,-66 -212,-80 -84,6 -170,16 -250,38 -124,48 -238,120 -354,186 -3,-246 22,-492 32,-738zm-41 1825c16,-106 85,-188 157,-260 0,82 -48,154 -42,238 6,48 -26,84 -54,120 -20,-32 -38,-66 -61,-98zm4109 1131c-2,-68 6,-138 12,-208 137,34 279,30 417,52 -48,30 -102,50 -156,68 -90,30 -174,80 -273,88zm-687 -4233l0 0c-29,4 -52,27 -75,44 -105,83 -207,166 -314,244 20,32 50,58 64,92 14,84 0,176 -56,242 -64,66 -146,110 -220,160 -49,79 -147,92 -211,153 10,230 -12,458 10,684 8,126 -70,246 -26,370 60,-122 106,-250 152,-378 23,-48 -54,-80 -30,-130 38,-138 165,-222 257,-324 78,-128 220,-194 330,-290 110,-95 240,-159 356,-245 124,-88 272,-128 398,-210 -22,-36 -40,-76 -70,-106 -86,-72 -180,-135 -282,-184 -44,-21 -92,-36 -132,-60 -49,-29 -101,-70 -151,-62zm3800 -4201l0 0c-36,34 -88,92 -50,140 112,172 324,222 476,344 94,60 204,80 306,122 -2,-124 -20,-246 -14,-370 -12,-188 10,-380 -18,-566 -230,114 -484,186 -700,330zm-4047 8188l0 0c-76,66 -168,116 -266,146 -66,18 -127,-38 -193,-32 -80,2 -160,0 -238,-24 -84,76 -206,48 -310,58 -32,166 -86,328 -118,496 -14,106 12,222 -52,316 -14,48 -70,44 -110,57 -4,84 2,170 -26,252 36,0 72,-8 106,4 36,20 60,54 86,86 -40,36 -70,78 -98,122 68,12 136,18 200,-14 154,8 312,32 468,18 82,-44 179,-38 263,-76 96,-42 194,-80 294,-108 88,-42 190,-52 268,-112 50,-36 24,-104 28,-154 -40,-22 -82,-41 -124,-59 -76,-34 -116,-122 -104,-202 12,-130 106,-234 208,-306 -30,-150 -16,-306 -30,-458 -84,-4 -168,0 -252,-10z"/>
  <path class="fil2" d="M12375 3225c360,-198 758,-306 1156,-392 8,64 3,134 33,194 60,150 194,248 318,342 64,50 138,90 210,128 40,20 26,70 34,104 116,38 232,99 304,201 28,36 46,84 90,106 26,-10 40,-28 40,-54 -28,-48 -66,-92 -92,-142 86,32 160,88 242,130 188,96 363,220 527,354 332,278 586,664 666,1095 14,44 18,94 18,140 -4,354 6,706 4,1061l-8 14c-206,96 -430,160 -622,284 -94,38 -164,116 -208,206 60,118 156,216 272,280 82,44 158,98 232,154 -82,126 -166,254 -278,356 -102,123 -196,263 -343,335 -150,28 -296,128 -452,74 -88,-38 -192,-64 -252,-146 -86,-114 -160,-240 -196,-381 -20,-86 -70,-162 -78,-252 50,-38 110,-70 144,-124 40,-56 80,-132 48,-200 -78,-214 -276,-340 -438,-484 -421,-323 -901,-553 -1345,-837 -331,-216 -663,-438 -921,-740 -68,-73 -150,-135 -194,-227 -54,-108 -88,-230 -72,-354 28,-130 76,-258 150,-370 76,-156 202,-278 324,-398 36,-32 66,-73 114,-87 38,-4 74,4 112,-2 66,-42 126,-100 204,-122 83,-38 175,-38 265,-46 -4,-26 -8,-52 -10,-78 -80,-6 -158,18 -237,32 69,-68 157,-108 239,-154z"/>
  <path class="fil2" d="M8096 3091c142,-6 284,0 422,34 112,2 218,30 326,58 60,30 130,34 180,78 210,172 433,330 645,499 232,204 470,424 576,722 30,104 50,214 42,324 -24,136 -96,259 -160,379 -112,200 -272,366 -436,522 -234,196 -465,402 -739,544 -114,64 -230,128 -344,193 -126,74 -264,116 -386,196 -150,104 -325,166 -485,258 -126,86 -270,138 -398,220 -140,84 -282,168 -404,276 -126,90 -224,216 -288,356 -27,59 -6,123 -6,185 -25,62 -97,80 -141,126 -80,60 -120,154 -158,242 -40,98 -82,194 -134,286 -50,-156 -74,-320 -136,-472 -96,-124 -254,-174 -370,-274 -36,-217 -154,-417 -326,-553 -127,-122 -275,-218 -417,-322 -124,-94 -262,-164 -394,-244 -182,-112 -372,-202 -556,-306 -187,-121 -369,-247 -557,-363 -116,-68 -204,-174 -294,-270 -30,-134 16,-274 32,-408 -64,-156 -176,-294 -206,-465 -26,-152 70,-294 190,-378 124,-84 244,-182 392,-224 108,-34 218,-64 331,-90 120,-8 244,26 352,76 204,116 314,348 342,572 62,285 16,577 -30,859 90,-40 142,-128 208,-196 192,-220 374,-460 462,-743 39,-142 87,-294 55,-442 -8,-60 -14,-120 -24,-180 34,26 72,50 86,92 104,212 134,462 86,694 -18,173 -52,343 -98,509 36,-14 54,-46 68,-78 50,-118 122,-224 190,-330 92,-135 174,-277 274,-407 150,-224 298,-452 398,-704 74,-180 80,-389 12,-571 -4,-42 -38,-88 -12,-128 54,-14 108,-26 164,-28 206,4 415,-12 619,20 54,8 110,4 166,12 286,44 572,84 851,170 224,58 450,114 668,192 -20,-130 -146,-198 -228,-288 -128,-92 -278,-144 -410,-230z"/>
  <path class="fil1" d="M12166 3682c95,-16 189,22 259,84 116,100 176,254 180,406 -4,162 -94,334 -250,392 -187,50 -399,-70 -453,-254 -46,-162 -16,-342 72,-482 44,-70 110,-130 192,-146z"/>
  <path class="fil1" d="M13688 3684c144,-28 284,60 368,172 164,216 200,542 36,768 -62,88 -158,166 -272,160 -188,2 -369,-124 -427,-304 -60,-190 -36,-404 56,-580 50,-96 129,-190 239,-216z"/>
  <path class="fil0" d="M12146 3718c71,-28 149,-2 211,34 232,150 296,528 86,724 -110,114 -301,76 -411,-18 -126,-112 -144,-300 -100,-454 32,-116 96,-240 214,-286z"/>
  <path class="fil0" d="M13688 3722c120,-26 238,40 314,128 176,200 222,524 64,748 -56,78 -142,154 -246,148 -152,2 -303,-88 -369,-226 -88,-180 -64,-398 18,-578 44,-94 115,-190 219,-220z"/>
  <path class="fil1" d="M12725 3848c26,-2 50,-2 76,-2 8,142 -28,280 -46,420 -38,166 -110,322 -194,468 -36,60 -76,118 -96,184 -8,88 68,151 132,199 146,104 328,184 412,354 -22,8 -44,14 -68,20 -62,-72 -128,-140 -210,-190 -108,-76 -236,-134 -310,-250 -24,-45 -58,-99 -34,-151 44,-120 116,-228 180,-340 46,-90 70,-188 100,-284 44,-138 42,-286 58,-428z"/>
  <path class="fil1" d="M8410 3968c18,-6 52,-16 68,-20 46,140 100,278 140,420 36,174 70,350 100,526 24,112 4,225 4,339 4,176 -40,358 -146,502 -56,82 -148,134 -244,156 -140,12 -284,20 -423,-16 -86,-24 -180,-20 -262,-64 0,-10 0,-30 -2,-40 90,2 176,38 266,48 104,28 217,26 325,26 136,0 264,-84 332,-198 56,-124 100,-256 100,-392 12,-329 -56,-653 -154,-963 -32,-108 -80,-214 -104,-324z"/>
  <path class="fil1" d="M12090 3964c197,-44 367,184 327,366 -18,106 -118,222 -237,188 -118,-42 -174,-172 -194,-288 -14,-96 2,-224 104,-266z"/>
  <path class="fil0" d="M12082 4038c42,-34 103,-60 153,-24 88,68 120,188 104,294 -38,-68 -58,-148 -112,-204 -38,-42 -97,-46 -145,-66z"/>
  <path class="fil1" d="M9184 4022c90,-18 182,12 247,76 132,126 190,316 184,494 -2,138 -60,280 -174,364 -101,75 -233,111 -357,85 -124,-43 -216,-155 -260,-275 -66,-176 -28,-378 72,-534 66,-102 166,-188 288,-210z"/>
  <path class="fil1" d="M13590 4038c54,-30 122,-14 178,8 176,90 276,324 192,510 -30,72 -86,140 -162,160 -88,22 -170,-38 -218,-104 -85,-120 -115,-272 -93,-416 12,-62 42,-126 103,-158z"/>
  <path class="fil1" d="M7443 4062c82,-28 178,-16 250,34 110,74 174,200 208,324 46,166 40,356 -58,502 -90,131 -252,201 -408,195 -104,-6 -190,-72 -252,-153 -230,-286 -90,-784 260,-902z"/>
  <path class="fil0" d="M9204 4054c82,-18 166,28 223,88 102,110 148,262 154,410 6,160 -64,334 -213,410 -102,50 -234,83 -336,14 -158,-100 -230,-304 -198,-484 32,-196 162,-400 370,-438z"/>
  <path class="fil0" d="M13600 4120c46,-38 106,-72 162,-32 110,78 152,232 122,360 -36,-86 -58,-184 -128,-252 -42,-44 -104,-50 -156,-76z"/>
  <path class="fil0" d="M7443 4100c76,-28 168,-20 234,30 110,80 170,212 198,344 28,134 22,284 -52,406 -84,144 -262,221 -426,195 -172,-51 -272,-231 -288,-401 -14,-232 108,-490 334,-574z"/>
  <path class="fil1" d="M9266 4344c60,-14 132,-6 173,46 72,86 70,210 46,314 -26,98 -74,200 -163,254 -66,44 -160,40 -216,-16 -122,-100 -140,-290 -60,-420 50,-82 124,-158 220,-178z"/>
  <path class="fil1" d="M7565 4386c64,-16 140,-2 182,52 80,102 68,242 34,358 -36,110 -108,228 -230,255 -100,22 -190,-61 -232,-143 -102,-200 34,-470 246,-522z"/>
  <path class="fil0" d="M9224 4398c58,-36 118,0 160,40 -50,14 -108,16 -148,54 -74,62 -96,162 -140,244 -24,-122 18,-270 128,-338z"/>
  <path class="fil0" d="M7467 4484c30,-36 78,-62 126,-58 38,6 64,34 94,56 -56,16 -118,20 -160,62 -72,64 -96,162 -134,246 -30,-108 4,-220 74,-306z"/>
  <path class="fil2" d="M16310 4782c84,-198 314,-274 512,-288 200,0 410,46 578,160 88,58 150,154 160,260 -6,169 -126,305 -252,405 -20,20 -54,40 -50,74 2,116 12,236 -34,344 -70,214 -278,330 -446,458 -84,-134 -142,-282 -214,-422 -80,-184 -164,-364 -226,-554 -57,-138 -93,-297 -28,-437z"/>
  <path class="fil1" d="M16720 4890c72,-46 160,-62 244,-72 106,2 210,40 304,90 -4,18 -14,56 -20,76 -78,-28 -150,-70 -232,-86 -124,-6 -254,34 -342,126 -24,33 -60,39 -98,39 4,-87 80,-131 144,-173z"/>
  <path class="fil1" d="M12853 5669c8,-22 18,-44 28,-66 194,64 378,156 576,208 201,68 413,110 625,78 56,2 102,-34 150,-62 -66,-54 -148,-84 -228,-114 0,-26 4,-52 12,-78 190,48 390,170 454,366 -18,4 -50,10 -66,14 -28,-50 -62,-96 -104,-138 -80,38 -158,92 -248,104 -186,24 -372,-20 -553,-70 -222,-58 -432,-158 -646,-242z"/>
  <path class="fil1" d="M6406 6229c132,-16 228,98 355,114 118,18 234,44 354,56 200,-4 400,-8 596,-52 160,-20 315,-60 463,-116 10,20 18,42 28,62 -225,70 -449,137 -683,165 -160,32 -324,22 -486,20 -202,-22 -403,-79 -577,-185 -24,-14 -34,-42 -50,-64z"/>
  <path class="fil3" d="M15633 7448c112,36 218,84 326,130 16,373 8,745 16,1117 4,116 -18,238 26,348 96,-52 182,-118 276,-172 163,-94 315,-206 493,-266 136,-58 282,-98 430,-92 164,64 232,242 320,380 -46,42 -88,90 -146,114 -130,58 -258,114 -386,175 -68,28 -114,86 -172,128 -62,50 -134,92 -176,164 -50,96 -138,164 -210,242 -24,-102 -30,-210 -66,-310 -38,64 -4,136 0,204 40,306 96,610 124,918 70,397 54,799 42,1197 -112,48 -219,122 -343,136 -128,18 -256,44 -384,58 -148,-2 -294,-24 -440,-32 -36,-54 -62,-114 -68,-178 -36,-274 -74,-550 -114,-824 -30,-365 -14,-731 -2,-1095 30,-208 58,-416 90,-625 54,-268 102,-540 172,-806 42,-152 44,-314 100,-462 54,-145 56,-301 92,-449zm-1953 148l0 0c88,-40 172,-98 274,-98 32,86 46,178 80,264 24,79 70,147 86,229 30,160 10,322 22,484 10,112 18,226 8,338 -10,68 -24,138 -26,208 -134,-62 -242,-170 -372,-240 -114,-58 -235,-100 -355,-144 -196,-44 -398,-50 -598,-42 -82,12 -158,46 -240,58 50,-82 102,-162 164,-236 58,-68 90,-158 168,-210 72,-52 142,-112 198,-182 92,-74 174,-162 276,-224 106,-67 199,-157 315,-205zm-429 3697l0 0c132,-16 252,-82 379,-124 28,56 66,106 120,138 86,68 202,82 284,154 28,20 22,60 32,90 64,188 16,388 42,581 -124,0 -244,-32 -366,-50 -52,-26 -84,-82 -126,-120 -48,-59 -117,-93 -169,-145 0,-20 2,-40 4,-58 -116,-54 -240,-92 -346,-166 -70,-50 -174,-80 -194,-176 104,-60 218,-108 340,-124z"/>
  <path class="fil4" d="M15249 7943c90,-116 194,-221 290,-331 -6,86 -16,174 -44,257 -50,156 -62,318 -106,474 -44,170 -64,346 -104,516 -68,296 -98,599 -144,899 -14,206 -12,412 -20,618 6,220 0,445 40,663 32,210 58,422 86,634 14,80 20,166 60,238 30,51 94,42 144,38 142,-18 284,27 426,2 108,-15 216,-34 326,-52 118,-16 223,-78 331,-124 6,621 26,1241 12,1862 -429,44 -855,106 -1285,130 -140,12 -282,14 -421,0 -314,2 -628,-30 -938,-70 48,-66 92,-134 128,-208 30,-64 84,-110 112,-172 20,-123 14,-253 -34,-369 -30,-78 -60,-156 -78,-240 -14,-64 20,-130 -8,-192 -58,-136 -150,-252 -232,-372 122,16 246,50 370,22 -10,-126 -12,-251 -8,-377 70,40 140,78 214,108 -34,307 -16,615 -20,921 -4,180 26,360 12,541 -6,110 -20,222 0,332 78,-60 144,-132 206,-208 80,-116 126,-253 180,-383 52,-122 126,-236 176,-360 47,-128 67,-262 113,-390 46,-124 -2,-256 -54,-373 -48,-110 -141,-196 -193,-306 -32,-64 -12,-138 -34,-204 -40,-78 -104,-138 -148,-214 -24,-40 -6,-90 -2,-132 24,-114 36,-230 22,-344 -8,-116 -54,-237 -16,-353 64,-80 186,-86 242,-178 105,-124 38,-312 -86,-394 -54,-34 -118,-48 -180,-64 -32,-80 -60,-162 -94,-242 -74,-152 -180,-286 -276,-425 -50,-62 -34,-146 -26,-218 22,-138 16,-276 6,-414 -10,-154 -2,-306 -14,-458 72,76 146,156 244,200 90,32 190,50 284,32 78,-14 152,-46 226,-74 127,-46 233,-140 315,-246z"/>
  <path class="fil5" d="M5464 7676c60,50 116,104 164,165 68,82 172,120 254,186 56,48 142,76 166,154 46,122 68,250 104,376 10,38 36,70 62,100 104,-142 146,-318 234,-468 56,-98 160,-150 243,-220 148,180 394,206 580,330 150,96 300,192 444,296 130,126 294,208 423,336 136,126 264,259 388,395 116,146 250,284 324,456 24,192 26,388 14,580 -190,20 -372,74 -560,106 26,-88 64,-174 78,-264 -100,48 -148,154 -164,258 -90,-62 -182,-140 -301,-130 48,54 111,92 167,136 32,24 28,68 38,103 -153,68 -325,92 -459,194 -156,102 -288,234 -402,378 -54,64 -72,150 -120,218 -64,62 -168,112 -160,214 14,96 50,202 136,258 68,48 134,98 210,135 68,28 102,96 132,160 -426,54 -855,108 -1285,134 -80,6 -160,-10 -240,-6 -266,14 -532,12 -801,10 -344,-28 -688,-66 -1030,-122 16,-86 20,-174 38,-261 60,-198 56,-410 106,-610 62,-260 124,-520 182,-781 30,-158 88,-310 96,-470 -22,22 -38,48 -46,78 -92,372 -166,749 -262,1119 -48,190 -56,390 -94,582 -261,-308 -541,-602 -813,-904 -138,-156 -268,-325 -372,-507 -54,-144 -138,-306 -72,-460 98,-232 246,-440 420,-620 118,-110 234,-221 360,-321 303,-216 607,-428 927,-616 192,-104 418,-146 584,-296 70,-90 107,-206 191,-288 38,-39 78,-75 116,-113z"/>
  <path class="fil2" d="M12295 9212c134,-105 226,-259 278,-419 116,120 132,302 244,423 144,82 266,204 424,258 110,30 218,72 330,90 195,92 391,186 563,318 30,18 62,56 102,36 80,-30 154,-86 244,-82 94,2 194,10 272,68 60,46 96,118 108,190 -2,62 -40,118 -84,158 -96,66 -230,80 -300,180 -126,136 -278,243 -420,361 -142,120 -298,224 -452,328 -123,58 -253,112 -389,132 -104,14 -204,54 -296,104 -44,24 -46,78 -66,118 -46,76 38,168 -14,242 -60,82 -162,124 -258,146 -100,-2 -202,-14 -294,-54 -50,-56 -96,-114 -165,-150 0,-48 4,-94 -2,-140 -42,-112 -134,-190 -234,-250 -94,-80 -222,-106 -322,-176 -106,-54 -222,-82 -326,-136 -130,-94 -266,-184 -380,-300 -52,-40 -101,-86 -151,-129 -160,-8 -296,-108 -404,-220 -68,-84 -84,-202 -62,-306 38,-100 136,-162 236,-190 78,-2 160,14 222,62 54,40 105,84 163,118 -8,-34 -20,-68 -30,-102 52,-34 112,-58 156,-104 56,-52 92,-122 158,-162 78,-48 166,-80 254,-102 112,-28 212,-86 324,-114 90,-18 186,-12 272,-52 100,-46 217,-64 299,-144z"/>
  <path class="fil2" d="M17128 9202c124,-75 268,-105 392,-181 118,130 187,295 269,449 66,118 40,258 40,386 -14,256 -203,446 -343,644 -80,115 -224,165 -302,279 -64,90 -158,148 -230,230 -74,80 -162,146 -224,236 -40,56 -100,92 -150,136 6,-278 -2,-558 -46,-835 -8,-162 -42,-322 -58,-486 78,-64 158,-128 234,-194 -30,-84 -74,-164 -100,-248 58,-86 142,-148 208,-226 82,-94 206,-128 310,-190z"/>
  <path class="fil1" d="M11610 9546c100,-48 218,-56 324,-22 40,8 54,50 74,80 -110,-12 -226,-56 -332,-8 -76,22 -110,108 -186,128 8,-76 82,-118 120,-178z"/>
  <path class="fil1" d="M12969 9646c16,-94 120,-94 194,-104 122,-14 226,62 306,146 6,12 14,40 20,54 -76,-24 -126,-92 -202,-116 -102,-54 -214,-2 -318,20z"/>
  <path class="fil1" d="M11788 9668c62,-22 134,-8 188,32 148,106 196,342 68,482 -112,140 -360,64 -408,-100 -42,-148 6,-342 152,-414z"/>
  <path class="fil1" d="M13067 9666c142,-42 272,82 310,210 50,132 -4,298 -132,366 -140,50 -314,-40 -340,-190 -28,-142 22,-322 162,-386z"/>
  <path class="fil0" d="M11742 9720c52,-56 144,-56 206,-16 116,74 172,226 140,358 -26,100 -120,194 -230,174 44,-24 98,-48 118,-100 66,-132 -60,-318 -208,-290 -80,30 -88,136 -68,208 12,72 64,124 110,176 -68,-30 -132,-80 -154,-154 -36,-122 -4,-264 86,-356z"/>
  <path class="fil0" d="M12967 9786c36,-72 120,-134 204,-104 198,64 274,360 118,504 -38,44 -98,54 -154,50 46,-26 100,-52 120,-106 60,-130 -62,-308 -206,-284 -64,16 -86,92 -82,150 0,84 50,152 90,220 -162,-76 -172,-292 -90,-430z"/>
  <path class="fil0" d="M11758 9896c30,-16 62,-40 96,-22 70,40 90,128 86,202 -32,-48 -50,-108 -94,-146 -28,-16 -58,-22 -88,-34z"/>
  <path class="fil0" d="M13031 9896c32,-12 66,-40 100,-20 70,40 88,124 86,198 -32,-48 -50,-104 -94,-144 -28,-16 -62,-24 -92,-34z"/>
  <path class="fil1" d="M14344 10078c92,-54 204,-66 308,-54 38,4 60,38 80,66 -84,2 -166,-20 -248,-8 -54,20 -106,50 -162,62 4,-22 12,-44 22,-66z"/>
  <path class="fil1" d="M12253 10110c112,-76 268,-108 392,-42 84,28 132,108 144,194 16,52 -22,100 -56,136 -4,-48 8,-94 8,-140 -18,-50 -44,-108 -98,-128 -102,-46 -224,-40 -326,6 -56,26 -102,90 -92,152 4,34 8,66 10,100 -109,-54 -63,-216 18,-278z"/>
  <path class="fil1" d="M11440 10500c64,-32 122,-76 182,-114 -10,38 -22,78 -34,116 52,34 108,64 168,75 160,32 318,74 481,76 164,6 330,20 492,-10 142,-14 282,-30 416,-81 50,-24 102,-40 154,-54 -10,-34 -18,-68 -26,-102 80,14 128,80 186,128 34,38 96,65 85,125 -55,30 -85,-40 -129,-58 -46,0 -72,44 -98,76 -40,52 -100,84 -144,134 -64,62 -114,142 -192,188 -216,142 -490,154 -738,106 -167,-16 -329,-86 -449,-204 -120,-98 -236,-204 -336,-322 -58,28 -106,120 -176,74 44,-58 90,-121 158,-153z"/>
  <path class="fil0" d="M11538 10581c42,-4 84,0 124,15 523,145 1085,143 1603,-21 26,-4 52,-7 80,-4 -60,64 -116,142 -206,166 -130,50 -264,84 -400,116 -232,8 -470,28 -697,-36 -130,-22 -254,-74 -382,-102 -62,-20 -96,-80 -122,-134z"/>
  <path class="fil2" d="M8298 10723c172,178 420,252 660,294 158,20 318,42 479,28 220,8 444,-30 664,20 -2,198 80,398 22,594 -20,82 -50,160 -88,236 6,12 18,36 24,48 86,-102 160,-216 274,-292 70,-46 128,-110 194,-164 88,-52 182,-102 279,-140 128,-14 234,108 236,228 -42,148 -194,212 -303,302 -136,93 -258,207 -410,273 -72,40 -154,56 -222,98 -48,26 -56,92 -110,110 -150,68 -296,144 -444,214 -80,42 -150,112 -161,204 11,40 27,78 41,118 -75,46 -157,74 -241,94 -108,14 -216,6 -324,0 6,-76 18,-152 26,-228 -240,-180 -524,-284 -794,-404 -217,-108 -421,-238 -637,-346 -52,-26 -86,-79 -138,-101 -134,-12 -226,-126 -284,-238 -42,-78 -14,-180 60,-228 86,-36 182,-38 274,-44 72,2 152,-4 212,46 50,40 56,110 58,170 -8,120 -28,238 -26,357 70,-71 86,-175 126,-263 50,-116 86,-234 120,-356 24,76 26,158 64,228 103,-124 175,-266 241,-410 68,-142 86,-298 128,-448z"/>
  <path class="fil0" d="M11780 10813c166,22 326,86 497,86 140,18 282,10 422,-2 128,2 244,-58 370,-76 -30,80 -100,132 -166,180 -178,92 -386,110 -582,74 -203,-14 -433,-74 -541,-262z"/>
  <path class="fil1" d="M8348 11129c96,-32 204,-54 300,-6 16,20 30,42 40,66 -46,-8 -90,-24 -136,-34 -72,-12 -138,20 -208,34 2,-14 2,-44 4,-60z"/>
  <path class="fil1" d="M9521 11161c90,-42 198,-42 282,10 6,14 18,42 24,56 -52,-10 -100,-34 -150,-42 -66,-2 -128,24 -192,36 10,-20 22,-40 36,-60z"/>
  <path class="fil1" d="M8486 11233c66,-26 148,-18 200,36 84,86 120,224 80,340 -42,116 -178,180 -296,152 -112,-36 -180,-164 -164,-278 14,-106 80,-210 180,-250z"/>
  <path class="fil0" d="M8334 11441c30,-122 160,-246 290,-194 170,96 198,400 2,484 50,-72 104,-156 84,-250 -4,-54 -56,-104 -114,-92 -112,12 -204,142 -162,252 18,50 68,78 104,116 -156,-2 -250,-178 -204,-316z"/>
  <path class="fil0" d="M9441 11555c4,-118 78,-244 198,-274 104,-22 188,72 214,162 40,100 0,208 -58,292 -14,6 -42,18 -56,24 40,-60 88,-124 86,-202 4,-52 -20,-118 -78,-132 -114,-20 -224,96 -208,210 -4,56 44,94 78,132 -106,-4 -172,-114 -176,-212z"/>
  <path class="fil6" d="M14114 11459c138,-82 292,-136 446,-178 58,78 118,156 172,238 -56,86 -126,162 -192,240 -54,66 -148,90 -230,66 -144,-56 -196,-224 -196,-366z"/>
  <path class="fil0" d="M8560 11415c28,-2 58,-2 88,0 -34,26 -70,46 -102,72 -28,34 -48,74 -72,112 -2,-70 20,-150 86,-184z"/>
  <path class="fil1" d="M9539 11635c-16,-114 94,-230 208,-210 58,14 82,80 78,132 2,78 -46,142 -86,202 14,-6 42,-18 56,-24 -32,64 -122,18 -178,32 -34,-38 -82,-76 -78,-132z"/>
  <path class="fil0" d="M9647 11465c32,-32 76,-10 114,-8 -84,30 -136,98 -172,176 -8,-62 10,-128 58,-168z"/>
  <path class="fil1" d="M10619 11599c30,-82 124,-86 199,-88 62,4 136,22 148,92 -58,-6 -110,-34 -169,-40 -60,6 -118,28 -178,36z"/>
  <path class="fil1" d="M7161 11581c90,-24 188,-72 278,-28 36,10 54,38 70,70 -52,-8 -102,-20 -154,-28 -54,2 -106,18 -158,30 -10,-10 -28,-34 -36,-44z"/>
  <path class="fil6" d="M12893 11513c52,74 60,166 78,252 12,144 44,287 72,429 46,236 96,470 188,692 20,64 84,92 128,138 -66,34 -134,66 -202,92 -172,62 -318,176 -460,287 -30,-75 -44,-161 -98,-223 -76,-72 -160,-138 -260,-172 -6,-94 8,-198 -52,-278 -68,-112 -219,-160 -341,-124 -72,20 -158,28 -208,92 -80,114 -108,286 -12,398 -78,76 -108,182 -152,277 -32,64 -28,136 -28,204 -96,-6 -192,8 -272,66 -10,-44 -22,-92 -6,-134 34,-98 32,-207 80,-299 38,-76 52,-160 88,-236 52,-98 66,-212 136,-300 100,-192 186,-392 266,-594 36,-144 72,-287 96,-433 36,-44 98,-60 148,-90 -8,102 -50,196 -44,298 4,151 -30,323 80,443 109,146 329,168 477,76 78,-50 124,-132 174,-204 76,-140 148,-291 150,-453 -6,-68 -30,-134 -26,-204z"/>
  <path class="fil0" d="M12971 11567c176,88 336,206 494,322 88,60 155,141 227,217 128,144 248,300 314,484 -60,-2 -122,-10 -180,16 -104,38 -216,60 -323,98 -88,32 -146,110 -202,182 -80,-74 -88,-188 -124,-286 -62,-216 -98,-438 -142,-657 -14,-54 -2,-110 -10,-164 -24,-70 -40,-140 -54,-212z"/>
  <path class="fil1" d="M8864 11663c108,-40 228,-68 340,-30 78,22 164,66 182,154 35,58 8,132 -52,162 0,-54 32,-114 -4,-164 -50,-100 -178,-108 -274,-110 -92,10 -204,22 -252,112 -34,48 4,104 -2,158 -46,-15 -64,-62 -70,-106 6,-78 60,-146 132,-176z"/>
  <path class="fil7" d="M14708 11635c70,150 194,268 251,425 28,72 54,152 32,228 -53,192 -75,394 -175,568 -92,166 -164,342 -244,513 -36,92 -106,162 -178,224 0,-78 4,-156 10,-234 14,-181 -20,-361 -14,-541 4,-308 -16,-618 22,-927 134,-38 212,-156 296,-256zm-510 -900l0 0c116,-88 220,-193 336,-281 8,100 22,201 22,301 -8,158 -16,316 -28,474 -152,58 -308,110 -450,190 -106,-66 -230,-96 -328,-174 -40,-28 -56,-74 -74,-118 176,-128 358,-248 522,-392zm-1609 -2030l0 0c94,-30 188,-64 288,-62 216,-2 442,0 642,92 249,86 465,248 657,424 164,179 280,395 360,623 -118,-8 -222,52 -330,86 -60,-32 -110,-76 -166,-112 -142,-90 -292,-166 -444,-236 -149,-56 -317,-62 -455,-146 -78,-48 -152,-102 -224,-156 -74,-55 -88,-151 -138,-225 -62,-96 -132,-188 -190,-288zm-713 -30l0 0c208,-30 419,4 629,24 -2,60 10,126 -26,178 -74,126 -160,258 -296,323 -139,92 -301,134 -463,158 -110,12 -192,94 -296,122 -124,34 -250,70 -354,148 -90,70 -176,144 -250,230 -83,-50 -173,-86 -269,-98 58,-198 180,-370 283,-548 86,-147 242,-227 370,-331 106,-84 242,-108 366,-156 96,-42 202,-42 306,-50zm-1361 1861l0 0c80,24 168,30 230,93 193,164 375,354 617,440 -116,90 -228,182 -346,270 -40,-22 -78,-50 -122,-64 -42,-4 -84,6 -127,12 -66,-180 -210,-314 -312,-472 50,-84 62,-182 60,-279zm-358 1804l0 0c124,-104 276,-172 414,-258 8,160 -34,316 -18,476 10,156 -6,314 -22,472 -132,-30 -254,-100 -390,-122 -14,-188 2,-380 16,-568z"/>
  <path class="fil0" d="M11578 11837c96,-66 194,-136 304,-180 -16,136 -58,264 -86,397 -60,156 -126,312 -200,464 -32,86 -80,164 -132,240 -54,-80 -112,-164 -208,-198 -96,-58 -210,-46 -318,-38 -74,2 -118,72 -164,118 -5,-28 -11,-58 5,-82 41,-76 97,-142 163,-196 74,-60 114,-152 194,-206 148,-106 282,-231 442,-319z"/>
  <path class="fil0" d="M12106 11707c48,24 87,62 117,106 32,46 90,60 142,74 82,14 164,32 248,20 92,-26 176,-72 252,-132 -10,136 -78,255 -136,373 -56,74 -102,166 -194,202 -118,60 -276,38 -365,-64 -72,-68 -92,-172 -86,-266 6,-105 -14,-213 22,-313z"/>
  <path class="fil1" d="M8082 12148c54,-130 198,-172 326,-162 6,22 12,44 16,68 108,22 216,52 324,70 298,36 602,20 891,-68 4,-22 8,-46 12,-68 114,-15 238,18 314,110 -6,16 -14,46 -20,62 -30,-26 -62,-54 -92,-80 -118,94 -206,216 -312,322 -104,120 -273,156 -425,166 -182,-12 -380,-24 -530,-140 -126,-112 -250,-226 -354,-358 -48,30 -86,86 -150,78z"/>
  <path class="fil0" d="M8296 12068c90,-6 170,46 258,54 326,80 672,74 1001,-4 80,-16 158,-60 242,-58 -44,56 -86,122 -154,146 -112,46 -231,82 -347,110 -148,8 -294,12 -440,-2 -150,-26 -294,-74 -438,-118 -64,-12 -94,-76 -122,-128z"/>
  <path class="fil8" d="M7545 12146c30,-10 64,-12 94,6 124,64 244,136 366,204 -2,228 -24,456 -34,684 -6,46 0,102 -40,134 -174,152 -352,301 -498,481 22,24 44,48 66,70 -58,110 -160,204 -166,336 2,62 38,118 68,170 96,142 172,296 260,442 60,101 128,197 180,303 -60,72 -106,154 -164,226 -94,52 -204,72 -302,120 -210,80 -384,224 -568,350 -106,74 -207,162 -335,198 16,-324 58,-646 76,-968 -4,-297 -28,-589 -34,-883 2,-158 -52,-308 -108,-454 -68,-118 -152,-228 -234,-339 -112,108 -188,249 -272,379 -68,112 -136,228 -158,358 -28,154 -86,304 -80,460 6,232 -6,467 36,695 22,252 100,492 166,734 22,74 40,152 42,230 -348,-52 -685,-156 -1013,-280 -252,-90 -500,-188 -758,-252 44,-234 102,-468 112,-708 8,-215 6,-429 18,-641 -4,-226 -14,-450 -20,-674 -14,-237 -18,-473 -2,-709 16,-200 2,-402 26,-602 294,32 588,72 884,92 241,-2 481,2 721,-8 76,-4 154,6 230,6 324,-18 649,-50 971,-90 156,-22 316,-26 470,-70z"/>
  <path class="fil0" d="M8500 12280c92,14 180,42 270,62 196,32 396,32 592,2 73,-22 143,-46 217,-58 -104,220 -387,272 -607,234 -178,-14 -384,-68 -472,-240z"/>
  <path class="fil2" d="M10916 12576c108,-20 232,-30 330,32 98,38 144,136 206,212 -54,114 -96,232 -138,352 -62,112 -58,243 -104,361 -114,-124 -268,-202 -390,-319 -51,-42 -113,-68 -171,-100 32,-110 88,-212 123,-322 30,-80 57,-180 144,-216z"/>
  <path class="fil9" d="M11738 12762c36,-90 140,-106 222,-126 118,-30 257,22 311,132 40,72 28,156 30,234 -46,-6 -90,-12 -136,-18 -2,-62 20,-150 -47,-184 -74,-36 -192,-38 -228,50 -38,60 -20,130 -4,194 -36,14 -72,30 -110,42 -110,-68 -90,-226 -38,-324zm-412 889l0 0c52,-46 126,-50 192,-44 44,-4 60,44 86,72 -74,32 -162,46 -214,112 -52,124 76,272 206,246 62,-18 108,-66 162,-98 24,14 42,34 58,56 -86,74 -180,158 -298,170 -54,4 -130,4 -150,-60 -36,-90 -36,-190 -52,-284 -4,-56 -26,-120 10,-170zm1175 264l0 0c-82,36 -150,96 -230,134 -103,48 -173,136 -259,204 -114,118 -196,258 -306,380 114,20 226,61 330,111 50,24 62,86 88,130 42,-98 77,-199 113,-299 40,-118 116,-218 170,-330 54,-132 224,-178 248,-328 -50,-12 -106,-26 -154,-2zm872 138l0 0c74,-86 197,-102 303,-98 50,40 82,96 124,144 84,96 172,196 208,322 -102,-32 -214,-62 -320,-32 -84,30 -76,132 -92,204 -52,-60 -105,-122 -137,-194 -22,-48 -46,-96 -82,-134 2,200 201,312 239,501 18,62 26,124 34,188 -91,-62 -203,-60 -307,-44 -58,10 -100,56 -144,92 -44,-190 -104,-375 -186,-553 56,-48 112,-100 148,-166 48,-96 140,-154 212,-230zm-504 -745l0 0c156,-116 340,-186 522,-254 22,100 50,202 102,289 28,50 89,56 135,74 -147,68 -307,114 -431,220 -60,56 -146,48 -222,56 -102,6 -202,22 -304,36 8,-88 4,-176 16,-264 44,-68 120,-108 182,-157z"/>
  <path class="fil2" d="M13838 12656c38,-20 84,-20 128,-24 70,170 110,352 130,534 -8,136 -68,261 -128,381 -88,146 -214,266 -346,374 -76,30 -177,16 -237,82 -54,60 -116,112 -178,166 -66,56 -80,154 -150,206 -84,74 -194,140 -310,110 -4,-26 -10,-52 -16,-78 -64,40 -168,36 -184,-54 -50,24 -106,24 -156,4 34,-72 56,-154 120,-206 62,-54 140,-108 164,-194 8,-60 -56,-78 -100,-92 24,-32 48,-66 76,-94 156,-48 320,-44 480,-62 84,-26 140,-100 218,-140 96,-46 198,-82 299,-122 58,-30 120,-80 122,-153 4,-90 22,-202 -62,-264 -86,-66 -223,-72 -305,6 -26,-38 -64,-70 -72,-116 44,-76 100,-154 188,-182 101,-48 217,-36 319,-82z"/>
  <path class="fil10" d="M11962 12818c52,-10 110,-10 154,20 22,42 22,92 32,138 -80,8 -160,20 -236,38 -22,-68 -16,-156 50,-196zm-544 987l0 0c46,-56 124,-70 190,-88 38,68 74,136 116,204 -50,32 -92,74 -148,92 -102,2 -196,-108 -158,-208zm1889 1163l0 0c70,-32 152,-24 228,-20 69,6 81,88 111,138 -115,82 -263,104 -399,78 14,-66 -18,-164 60,-196zm405 -541l0 0c104,-28 208,16 308,42 -14,68 -14,150 -72,198 -60,55 -146,65 -222,51 -78,-51 -80,-155 -70,-237 2,-28 32,-44 56,-54zm-227 -1409l0 0c85,-18 193,-6 243,74 22,38 16,84 16,126 -4,54 0,123 -50,159 -58,6 -137,18 -173,-40 -40,-63 -66,-133 -86,-203 -12,-42 0,-102 50,-116zm-1789 1655l0 0c112,-4 216,47 318,93 72,24 60,114 76,174 -62,44 -130,98 -210,84 -92,-6 -154,-86 -182,-166 -26,-58 -8,-124 -2,-185z"/>
  <path class="fil11" d="M9014 13048c190,26 374,-58 537,-152 -10,132 -40,266 -12,398 22,109 48,217 88,321 -224,-4 -451,8 -675,30 -214,-14 -432,-4 -644,38 24,-76 94,-152 48,-232 -52,142 -122,278 -170,424 -187,-122 -409,-188 -631,-190 -32,0 -48,-34 -72,-50 104,-84 198,-182 294,-276 124,-105 253,-207 399,-281 84,-42 164,-102 260,-116 58,-10 116,-26 176,-22 58,18 108,60 168,76 76,20 154,30 234,32z"/>
  <path class="fil11" d="M9595 12906c272,-22 538,58 792,144 128,38 244,102 358,170 -122,32 -216,123 -278,227 -52,84 -36,184 -12,272 -78,-6 -160,-16 -232,-50 -52,-24 -108,-42 -166,-44 -92,0 -176,-44 -262,-74 -32,16 -62,32 -92,48 -40,-52 -52,-112 -30,-172 -18,4 -38,10 -56,14 -56,-173 -54,-357 -22,-535z"/>
  <path class="fil9" d="M12004 13042c209,-42 449,16 579,192 76,141 96,311 58,465 -24,86 -90,154 -166,198 -110,62 -210,152 -339,170 -126,8 -262,-42 -342,-146 -84,-110 -188,-220 -200,-364 -20,-102 32,-196 72,-289 24,-46 44,-104 96,-124 80,-38 160,-76 242,-102z"/>
  <path class="fil1" d="M11986 13204c94,-28 213,40 221,143 14,78 -49,142 -113,174 -92,6 -186,-58 -204,-150 -12,-71 30,-143 96,-167z"/>
  <path class="fil10" d="M11976 13230c56,10 122,2 164,48 45,44 25,113 23,169 -35,-20 -65,-44 -95,-66 -32,12 -62,24 -94,36 -14,-32 -30,-64 -38,-97 2,-34 26,-60 40,-90z"/>
  <path class="fil2" d="M10541 13443c42,-94 134,-163 236,-177 52,-8 91,36 131,62 96,77 208,139 282,239 56,102 100,212 106,330 8,84 30,164 38,248 -2,180 -22,362 -70,538 -4,153 -82,293 -178,405 -56,46 -126,66 -192,94 -88,-72 -205,-26 -307,-32 -76,-30 -140,-82 -200,-134 12,-24 22,-46 38,-66 70,-24 144,-34 206,-76 58,-34 86,-98 122,-152 -8,-9 -26,-25 -36,-33 -80,59 -188,101 -282,53 -42,-16 -50,-93 -6,-109 86,-40 174,-78 254,-126 82,-52 177,-12 265,-8 46,-74 54,-168 22,-250 -42,-136 -114,-266 -211,-372 -82,-72 -182,-124 -250,-212 -44,-70 -14,-160 32,-222z"/>
  <path class="fil2" d="M12046 13441c18,-20 70,0 50,30 -18,20 -68,-4 -50,-30z"/>
  <path class="fil1" d="M12205 13453c50,12 106,16 144,52 22,36 26,80 38,120 66,-22 132,-46 202,-50 -42,28 -88,48 -132,72 18,44 34,88 48,132 -40,-38 -70,-86 -110,-124 -50,18 -90,56 -140,72 -40,4 -81,-16 -101,-52 -8,-76 22,-150 51,-222z"/>
  <path class="fil10" d="M12223 13487c36,12 78,16 106,44 56,80 -60,230 -140,138 -9,-62 18,-122 34,-182z"/>
  <path class="fil0" d="M9813 13613c32,8 64,18 94,28 -24,14 -48,26 -72,40 -8,-24 -14,-46 -22,-68z"/>
  <path class="fil1" d="M11888 13629c110,-22 242,98 192,212 -44,134 -262,88 -284,-40 -30,-70 22,-150 92,-172z"/>
  <path class="fil0" d="M9709 13651c22,-4 44,-8 66,-12 8,12 24,36 32,48 -28,20 -56,40 -84,60 -6,-32 -10,-64 -14,-96z"/>
  <path class="fil0" d="M8676 13689c326,10 650,-44 977,-36 8,50 20,100 36,148 -116,132 -226,270 -293,432 -226,4 -454,18 -680,6 -184,10 -366,-16 -550,-24 2,-44 0,-88 14,-128 36,-114 52,-234 106,-342 38,-20 86,-10 128,-16 88,0 172,-48 262,-40z"/>
  <path class="fil10" d="M11848 13687c60,-42 130,-16 182,26 -54,40 -112,70 -168,106 30,6 58,18 88,14 40,-24 70,-58 110,-82 -8,52 -10,136 -84,132 -102,22 -194,-108 -128,-196z"/>
  <path class="fil0" d="M9985 13701c26,-16 58,-6 86,0 82,16 166,34 246,54 72,18 146,12 216,26 64,34 100,100 136,160 -94,84 -218,118 -334,160 -136,20 -272,-28 -402,-58 -54,-72 -90,-160 -150,-230 66,-40 132,-78 202,-112z"/>
  <path class="fil2" d="M15381 13801c308,-16 614,-68 922,-92 -7,204 -54,406 -34,610 14,296 39,603 155,879 44,74 100,140 148,212 60,88 160,132 242,198 74,64 162,118 220,200 70,82 120,186 214,246 54,42 134,85 124,167 12,86 -74,148 -152,152 -172,6 -350,-34 -486,-144 -116,-84 -228,-175 -348,-253 -83,-56 -141,-142 -223,-200 -144,-106 -278,-226 -414,-344 -86,-44 -172,-84 -258,-126 6,-126 30,-252 4,-376 -36,-200 -66,-403 -124,-599 -30,-116 -74,-230 -78,-352 -2,-52 -20,-100 -32,-150 38,-16 78,-28 120,-28z"/>
  <path class="fil2" d="M7531 13775c38,-62 118,-46 178,-32 108,32 214,64 321,100 44,12 70,48 92,84 -60,60 -119,124 -163,194 4,74 26,146 67,208 62,102 82,220 100,336 -88,93 -173,187 -247,293 -112,-200 -240,-393 -348,-595 -44,-98 -130,-168 -170,-268 14,-124 100,-222 170,-320z"/>
  <path class="fil2" d="M13864 13737c256,34 512,60 770,72 -32,76 -42,160 -46,242 -46,204 -116,402 -150,610 -18,91 -30,183 -48,273 -26,124 0,250 4,376 -136,66 -288,54 -434,52 -114,-4 -214,60 -324,76 -139,26 -279,52 -421,72 8,-100 18,-200 26,-300 84,24 168,10 252,2 127,26 257,8 381,-24 0,-138 4,-278 -16,-416 94,-36 192,-103 196,-215 44,-170 -72,-316 -172,-440 -68,-68 -120,-150 -190,-216 62,-50 120,-104 172,-164z"/>
  <path class="fil0" d="M9487 14169c60,-126 154,-230 254,-326 56,82 118,168 126,270 12,76 48,148 28,226 -8,82 -62,148 -104,216 -34,56 -98,74 -154,100 -70,-46 -158,-78 -206,-148 -12,-114 -4,-238 56,-338z"/>
  <path class="fil0" d="M10609 14187c22,-84 24,-200 126,-228 79,62 109,162 157,248 36,66 54,162 -4,220 -68,8 -137,6 -203,2 -82,-46 -100,-158 -76,-242z"/>
  <path class="fil6" d="M11846 14035c92,38 188,66 288,76 -64,64 -146,108 -200,182 -70,92 -136,186 -210,272 -90,88 -92,241 -38,349 30,68 92,110 154,146 -218,-6 -436,10 -652,-8 34,-100 86,-192 104,-296 24,-125 82,-237 100,-361 10,-64 10,-128 8,-192 168,42 334,-48 446,-168z"/>
  <path class="fil0" d="M9957 14299c66,-60 144,-104 222,-146 50,-4 102,-2 154,4 72,48 138,106 206,160 56,42 48,120 58,182 -70,48 -154,70 -226,116 -38,30 -24,84 -22,127 -76,-3 -154,4 -230,-4 -52,-41 -96,-91 -144,-137 -62,-88 -62,-206 -18,-302z"/>
  <path class="fil11" d="M8118 14339c-8,-44 38,-84 80,-76 394,30 788,30 1180,14 4,118 -22,242 20,358 25,72 59,143 83,215 -209,18 -417,10 -625,20 -150,12 -294,-28 -440,-44 -48,-6 -98,-8 -144,-24 -122,-121 -146,-299 -154,-463z"/>
  <path class="fil6" d="M12359 14391c140,36 278,80 408,142 74,22 150,-14 220,-34 110,204 148,435 210,655 -194,-8 -388,10 -580,-30 -216,-2 -430,-24 -641,-72 60,-34 128,-68 160,-134 87,-170 115,-367 223,-527z"/>
  <path class="fil0" d="M9637 14718c46,-43 110,-71 174,-57 82,20 184,6 244,81 62,80 118,164 170,252 16,20 6,46 -6,66 -78,36 -162,52 -240,88 -146,-68 -292,-136 -410,-248 24,-60 42,-122 68,-182z"/>
  <path class="fil12" d="M7745 15180c148,-144 244,-330 401,-467 48,57 84,143 168,149 140,16 280,38 422,54 246,6 492,-14 739,-12 38,-4 62,28 90,48 160,134 352,230 556,274 -38,150 -66,302 -102,452 -20,92 -8,186 -26,278 -14,40 -34,94 -86,96 -252,34 -513,42 -765,-6 -30,-10 -54,-28 -82,-42 40,-174 98,-376 -8,-538 -20,-26 -30,-78 -72,-64 -76,82 -128,186 -142,298 -14,96 -42,188 -50,284 -234,56 -474,26 -710,-6 -77,-20 -143,-68 -215,-100 -34,-232 -64,-468 -118,-698z"/>
  <path class="fil6" d="M13656 14732c48,26 100,40 152,54 16,122 18,244 16,366 -64,10 -130,18 -194,24 20,-36 50,-66 58,-106 14,-114 -4,-228 -32,-338z"/>
  <path class="fil0" d="M10401 14802c70,10 142,16 214,24 -56,36 -118,62 -184,70 -60,6 -90,68 -94,122 14,42 52,74 70,116 -60,16 -96,-32 -128,-74 26,-94 80,-174 122,-258z"/>
  <path class="fil2" d="M11464 15092c130,-6 264,0 396,-4 74,-2 148,6 220,26 -22,316 -46,632 -72,946 -12,135 38,259 78,383 -110,6 -208,54 -308,98 -52,-48 -98,-104 -156,-144 -62,-36 -134,-46 -204,-58 40,-32 98,-62 96,-120 0,-94 -22,-185 -12,-279 -12,-166 2,-334 -26,-500 -4,-116 -8,-232 -12,-348z"/>
  <path class="fil2" d="M12577 15174c84,2 164,20 244,36 126,10 252,2 378,0 -16,208 -36,416 -50,624 -8,132 -34,267 -2,397 8,54 64,76 102,104 -148,0 -272,94 -354,212 -110,-30 -218,-68 -320,-116 112,-146 88,-345 56,-513 -18,-248 -26,-496 -54,-744z"/>
  <path class="fil2" d="M12124 15382c147,-26 279,-96 417,-146 12,108 22,216 28,324 -158,-6 -322,20 -475,-36 10,-48 22,-94 30,-142z"/>
  <path class="fil9" d="M7283 15428c140,-64 276,-152 432,-168 52,206 94,420 84,634 82,42 166,82 247,126 0,83 -2,165 -8,247 -77,-2 -149,30 -221,50 -168,-28 -308,-136 -470,-182 -50,-4 -98,20 -146,32 -186,66 -392,54 -583,10 -60,-18 -134,-64 -124,-137 2,-40 4,-80 18,-116 104,-84 229,-138 343,-204 146,-94 272,-216 428,-292z"/>
  <path class="fil9" d="M15481 15358c90,40 188,72 264,138 58,48 116,98 172,148 100,88 216,156 308,252 128,136 299,221 441,341 152,132 358,194 556,182 84,-8 174,-58 192,-146 8,-52 10,-114 -24,-158 -44,-51 -102,-87 -152,-131 -56,-48 -94,-110 -132,-172 106,32 194,98 280,164 84,68 182,123 250,211 75,94 145,190 215,286 56,76 94,190 40,276 -96,108 -245,160 -387,148 -158,-22 -318,40 -474,-2 -194,-56 -368,-158 -532,-268 -84,-56 -145,-138 -225,-198 -88,-62 -124,-166 -198,-242 -52,-56 -110,-105 -174,-147 -84,-50 -184,-74 -258,-142 -82,-72 -152,-158 -208,-252 -50,-96 -4,-202 46,-288zm-1361 54l0 0c98,2 196,-16 290,-42 42,74 82,162 54,250 -26,62 -68,120 -122,162 -224,130 -490,148 -742,142 -79,8 -125,-82 -201,-68 -70,8 -142,22 -214,26 10,-106 16,-212 24,-318 202,-46 411,-58 607,-126 98,-34 202,-28 304,-26zm-2034 170l0 0c161,34 325,22 487,24 6,144 16,286 20,430 -176,58 -364,22 -547,50 12,-168 32,-336 40,-504zm-766 376l0 0c-68,-122 24,-264 128,-332 14,146 8,292 18,438 -54,-26 -124,-44 -146,-106z"/>
  <path class="fil9" d="M8822 16006c62,-184 32,-404 170,-556 106,114 98,284 60,424 -12,60 -40,122 -12,180 60,32 130,38 196,53 0,82 -2,162 -8,242 -48,20 -122,18 -142,76 2,82 44,156 40,238 -126,4 -252,4 -376,2 -22,-116 46,-222 42,-336 -26,-46 -84,-46 -130,-58 -2,-72 -8,-142 -12,-215 58,-14 120,-18 172,-50z"/>
  <path class="fil9" d="M2644 15912c208,-188 488,-298 768,-304 208,-8 414,-2 621,-14 106,-8 208,26 308,58 208,68 414,142 618,222 270,114 559,170 839,251 -148,160 -370,232 -583,232 -112,4 -228,-14 -330,36 -296,138 -570,318 -868,450 -134,46 -275,68 -415,88 -232,32 -466,4 -692,-44 -74,-18 -146,-50 -198,-104 -108,-112 -233,-234 -230,-402 -25,-172 40,-347 162,-469z"/>
  <path class="fil2" d="M8090 16022c172,22 346,42 520,40 -2,75 36,161 -4,229 -104,42 -220,52 -332,50 -64,8 -114,-38 -166,-68 -6,-84 -14,-166 -18,-251z"/>
  <path class="fil2" d="M9276 16113c193,22 383,4 575,-6 -4,70 -2,140 -14,210 -60,36 -116,82 -182,106 -130,12 -261,-10 -385,-42 0,-88 4,-178 6,-268z"/>
  <path class="fil0" d="M7903 16363c8,-12 26,-38 34,-50 97,-14 173,50 263,64 150,28 304,0 446,-42 32,-14 68,-4 100,4 2,40 18,86 -10,122 -44,60 -24,138 -22,208 -38,18 -72,40 -108,60 -150,38 -290,-38 -424,-92 -76,-34 -144,-80 -217,-118 -8,-56 -34,-108 -62,-156z"/>
  <path class="fil0" d="M11208 16427c50,-18 98,-42 150,-52 58,8 116,18 176,24 72,40 136,94 194,152 42,48 110,20 158,-2 74,-52 166,-44 252,-58 57,54 81,132 79,208 -2,84 10,172 -22,252 -239,60 -485,80 -731,78 -182,38 -364,78 -550,74 14,-40 32,-78 42,-120 -16,-90 -32,-182 -78,-262 -44,-60 -109,-96 -167,-140 46,-2 95,-16 139,4 190,114 440,148 642,48 -10,-142 -176,-166 -284,-206z"/>
  <path class="fil0" d="M13047 16447c120,-92 290,-82 418,-14 -90,32 -190,46 -268,106 -22,18 -22,48 -30,72 112,86 258,82 392,74 65,-24 135,-26 203,-40 48,-6 64,-60 104,-78 112,-4 224,0 336,14 56,18 112,44 162,78 34,42 64,90 84,142 2,92 -56,168 -126,222 -220,90 -466,96 -700,84 -301,-26 -597,-72 -895,-110 -106,-10 -206,-48 -308,-78 -2,-78 -6,-158 0,-236 20,-78 66,-150 126,-206 120,26 228,96 352,110 76,-14 90,-104 150,-140z"/>
  <path class="fil0" d="M9813 16417c42,-24 90,-16 136,-18 8,20 18,38 28,58 -32,46 -54,96 -62,152 -146,82 -298,158 -460,208 -57,6 -115,8 -173,0 -40,-20 -76,-46 -114,-68 2,-66 22,-142 -20,-202 -30,-38 -18,-84 -10,-128 68,-18 130,14 196,28 159,36 331,44 479,-30z"/>
  <path class="fil2" d="M10874 16551c80,-30 158,-72 244,-88 78,22 156,44 236,62 44,10 64,52 94,80 -184,84 -402,34 -574,-54z"/>
  <path class="fil2" d="M13209 16585c98,-72 226,-66 332,-124 79,42 159,74 243,100 -150,90 -333,86 -501,60 -26,-6 -50,-22 -74,-36z"/>
  <path class="fil13" d="M7389 16535c78,-4 156,-6 234,-10 38,104 146,146 240,188 70,16 142,14 215,24 42,6 74,-28 106,-50 156,68 348,154 510,50 18,20 36,40 54,60 -54,50 -100,116 -172,140 -74,30 -154,38 -232,48 -114,12 -228,38 -343,22 -46,0 -72,-44 -98,-74 -44,-48 -66,-108 -88,-166 -76,-62 -154,-126 -246,-160 -60,-24 -120,-46 -180,-72z"/>
  <path class="fil0" d="M7677 16539c36,-54 86,-10 122,18 40,38 74,80 108,124 -82,-38 -176,-66 -230,-142z"/>
  <path class="fil0" d="M7087 16613c40,-40 94,-62 146,-76 128,34 250,84 372,136 74,42 148,94 186,172 44,78 98,152 164,214 -132,-4 -264,20 -394,-6 -194,-22 -374,-102 -568,-112 -8,-114 2,-248 94,-328z"/>
  <path class="fil0" d="M7845 16525c58,8 108,42 160,66 45,26 103,42 123,94 -116,16 -227,-62 -283,-160z"/>
  <path class="fil0" d="M9975 16767c52,-68 108,-138 186,-176 20,8 32,24 34,44 -54,70 -144,94 -220,132z"/>
  <path class="fil13" d="M10257 16609c76,4 152,4 228,12 -100,52 -214,72 -304,144 -38,28 -80,52 -114,86 -32,90 -78,182 -160,236 -82,12 -168,12 -252,-2 -132,-20 -277,-18 -397,-86 -48,-34 -86,-78 -126,-120 20,-18 38,-38 62,-54 160,94 351,16 505,-54 26,20 52,40 82,54 78,-8 154,-18 232,-26 96,-40 208,-82 244,-190z"/>
  <path class="fil0" d="M9757 16741c92,-46 178,-110 280,-128 -52,90 -146,146 -246,168 -8,-10 -26,-30 -34,-40z"/>
  <path class="fil0" d="M10359 16723c98,-36 194,-80 296,-102 76,22 147,66 191,132 44,84 52,180 44,274 -111,14 -221,26 -327,62 -206,64 -424,68 -638,52 66,-54 116,-122 156,-196 54,-110 164,-184 278,-222z"/>
  <path class="fil0" d="M8608 16975c66,-26 108,-84 162,-126 -8,56 12,148 -58,168 -308,100 -628,200 -957,186 -120,-10 -244,0 -362,-36 -110,-8 -214,-40 -310,-92 -28,-18 -44,-52 -64,-78 120,-2 234,40 346,74 240,44 488,52 727,4 124,-24 252,-16 376,-38 48,-22 92,-46 140,-62z"/>
  <path class="fil0" d="M9112 16933c64,56 120,124 206,144 131,82 287,52 431,76 212,42 434,56 648,20 160,-8 302,-96 465,-92 -38,90 -135,114 -219,144 -76,22 -156,20 -232,46 -202,20 -408,28 -610,0 -226,-46 -453,-104 -671,-182 -12,-52 -18,-104 -18,-156z"/>
 </g>
</svg>
