<?xml version="1.0" encoding="UTF-8"?>
<!DOCTYPE svg PUBLIC "-//W3C//DTD SVG 1.1//EN" "http://www.w3.org/Graphics/SVG/1.1/DTD/svg11.dtd">
<svg version="1.1" xmlns="http://www.w3.org/2000/svg" xmlns:xlink="http://www.w3.org/1999/xlink" x="0" y="0" width="1072" height="1192" viewBox="0, 0, 1072, 1192">
  <defs>
    <clipPath id="Clip_1">
      <path d="M0.06,0.05 L1071.6,0.05 L1071.6,1192 L0.06,1192 z"/>
    </clipPath>
  </defs>
  <g id="Layer_1">
    <g clip-path="url(#Clip_1)">
      <path d="M447.08,583.765 C447.975,582.232 448.611,580.814 450.685,582.663 C452.205,584.017 453.886,584.626 452.118,587.262 C445.824,596.646 439.357,605.894 432.32,614.737 C430.074,617.559 427.777,620.339 425.503,623.139 C425.177,622.866 424.851,622.592 424.525,622.319 C432.047,609.47 439.577,596.625 447.08,583.765 z M930.168,569.8 C929.242,568.665 927.904,567.86 926.732,566.931 C906.444,550.839 892.464,530.498 885.088,505.606 C876.858,477.834 876.501,449.468 878.971,420.994 C881.733,389.148 885.065,357.375 884.466,325.32 C883.691,283.858 878.632,243.048 867.277,203.11 C852.38,150.719 828.251,103.906 785.951,67.939 C762.182,47.729 736.586,30.669 706.876,20.471 C692.095,15.397 676.391,14.48 661.275,10.548 C620.411,-0.082 578.779,-3.555 537.073,4.414 C460.31,19.08 404.801,62.198 373.622,133.834 C334.076,224.693 326.868,319.256 348.177,415.767 C360.49,471.53 384.422,521.64 426.062,562.024 C428.295,564.19 427.23,565.697 426.122,567.584 C420.143,577.763 414.19,587.958 408.223,598.146 C393.098,623.97 377.98,649.799 362.838,675.614 C358.983,682.187 353.42,684.763 346.109,683.504 C338.484,682.192 331.555,684.016 325.302,688.399 C309.32,699.6 302.66,729.262 312.462,746.263 C315.642,751.78 315.218,757.022 312.239,762.118 C259.455,852.405 206.577,942.637 153.876,1032.97 C151.663,1036.77 150.375,1036.24 147.415,1034.11 C129.443,1021.19 111.248,1008.58 93.332,995.578 C88.746,992.251 85.097,992.008 80.279,995.146 C55.61,1011.21 30.76,1027 5.973,1042.89 C-1.762,1047.85 -1.981,1051.93 5.296,1057.25 C65.788,1101.43 126.298,1145.58 186.77,1189.79 C190.828,1192.75 194.551,1192.69 198.603,1189.85 C223.538,1172.36 248.526,1154.95 273.474,1137.48 C280.67,1132.44 280.6,1128.52 273.297,1123.34 C241.534,1100.8 209.808,1078.21 177.938,1055.83 C174.162,1053.18 173.238,1051.53 175.859,1047.07 C226.756,960.499 277.47,873.819 328.046,787.059 C330.518,782.817 332.406,781.536 337.44,783.021 C356.96,788.779 371.199,780.871 377.334,761.531 C378.95,756.435 379.947,751.196 380.337,745.884 C380.507,743.561 381.375,742.449 383.467,741.464 C393.4,736.787 403.045,731.537 412.34,725.695 C442.34,706.84 470.688,685.963 493.523,658.45 C500.616,649.903 506.826,640.694 513.582,631.615 C514.087,635.637 514.298,639.562 514.052,643.457 C512.713,664.68 518.543,686.07 512.516,707.199 C511.736,709.931 511.743,712.587 508.009,713.333 C505.782,713.778 505.031,716.325 504.631,718.507 C503.552,724.396 502.531,730.296 501.525,736.198 C501.091,738.744 500.959,741.589 503.254,743.085 C506.024,744.891 505.605,747.057 505.173,749.551 C496.204,801.34 487.249,853.131 478.292,904.922 C476.807,913.512 477.504,914.83 485.627,917.947 C501.166,923.911 517.506,926.018 533.908,927.657 C536.932,927.96 538.503,928.76 539.539,931.83 C546.387,952.131 553.457,972.358 560.5,992.593 C561.115,994.361 561.425,995.933 560.904,997.878 C549.637,1039.93 538.437,1082.01 527.319,1124.11 C526.593,1126.85 525.289,1127.29 522.76,1126.89 C518.495,1126.22 514.185,1125.63 509.878,1125.49 C501.686,1125.21 493.526,1125.59 486.103,1129.73 C473.673,1136.66 472.461,1150.81 483.532,1159.62 C486.805,1162.22 490.464,1164.21 494.32,1165.78 C515.302,1174.36 537.476,1177.8 559.737,1180.81 C563.773,1181.35 566.322,1179.45 567.572,1175.5 C569.126,1170.6 570.924,1165.78 572.617,1160.92 L572.616,1160.92 C572.911,1159.91 573.206,1158.9 573.501,1157.89 C573.806,1156.07 574.131,1154.26 575.354,1152.77 C581.799,1133.18 588.244,1113.59 595.122,1092.69 C598.493,1102.29 601.547,1110.62 604.324,1119.05 C605.506,1122.64 608.702,1126.66 607.205,1129.73 C605.927,1132.36 601.2,1133.26 598.072,1135.05 C589.375,1140.03 580.998,1145.4 576.149,1154.69 C575.667,1155.76 575.185,1156.82 574.703,1157.89 C574.051,1161.19 573.901,1164.5 574.194,1167.85 C577.201,1176.91 582.305,1180.63 591.889,1180.88 C596.756,1181 601.516,1180.31 606.231,1179.23 C626.468,1174.59 645.126,1165.88 663.651,1156.85 C670.009,1153.76 670.657,1151.95 668.684,1144.89 C655.314,1097.05 641.963,1049.2 628.519,1001.38 C627.579,998.039 627.622,995.048 628.754,991.739 C635.304,972.588 642.007,953.477 647.898,934.122 C649.731,928.102 652.685,926.356 658.469,925.701 C670.528,924.336 682.394,921.765 693.677,916.991 C698.147,915.099 700.036,912.196 699.164,907.218 C690.296,856.606 681.476,805.987 672.797,755.342 C671.981,750.585 669.173,745.402 673.957,740.923 C674.436,740.474 674.514,739.309 674.384,738.544 C673.132,731.174 671.822,723.815 670.446,716.467 C670.304,715.712 669.77,714.629 669.169,714.423 C664.278,712.745 664.704,708.353 664.032,704.577 C663.46,701.362 662.78,698.284 659.281,697.002 C657.464,696.335 657.933,694.933 658.033,693.68 C659.748,672.353 661.94,651.076 664.722,628.983 C665.508,630.171 665.903,630.646 666.168,631.186 C687.791,675.154 709.41,719.124 731.011,763.103 C733.562,768.298 735.759,773.559 737.17,779.279 C739.958,790.584 746.108,800.034 755.608,806.939 C761.351,811.112 767.916,811.338 771.62,807.264 C773.939,804.714 775.262,805.257 777.682,806.683 C786.337,811.785 795.467,815.708 805.676,816.368 C811.497,816.743 813.891,814.538 814.5,808.758 C814.893,805.037 813.951,801.598 812.462,797.911 C815.829,797.911 818.82,797.965 821.808,797.9 C827.933,797.766 830.385,794.135 828.507,788.241 C828.123,787.034 826.774,786.121 828.307,784.312 C834.312,777.229 832.815,771.127 824.391,767.279 C821.741,766.068 819.645,765.05 820.098,761.24 C820.597,757.051 818.402,754.135 814.04,752.735 C809.29,751.21 804.581,749.592 799.67,748.683 C797.039,748.196 795.446,746.978 794.424,744.29 C791.062,735.445 787.396,726.715 783.793,717.962 C769.638,683.566 755.462,649.178 741.294,614.787 C741.53,612.185 740.433,609.911 739.479,607.617 C730.144,585.159 720.411,562.874 710.221,540.792 C705.149,529.801 698.504,519.904 689.504,511.663 C687.357,509.697 684.607,508.386 682.763,506.127 C683.808,504.786 685.033,504.673 686.092,504.248 C713.229,493.341 736.17,476.67 754.74,454.072 C770.099,435.382 780.416,414.045 787.206,390.947 C788.334,387.108 790.055,385.396 794.359,384.963 C811.11,383.28 821.791,373.921 826.266,357.733 C829.075,347.572 828.975,337.393 826.564,327.138 C823.324,313.355 813.714,304.432 800.476,304.675 C797.228,304.735 796.862,302.677 796.535,300.129 C793.874,279.406 789.13,259.169 782.12,239.474 C766.784,196.387 741.061,161.308 702.414,136.24 C699.908,134.614 698.63,133.13 699.226,129.828 C699.934,125.909 697.538,123.163 694.029,121.633 C690.633,120.152 687.876,121.491 685.589,124.096 C684.599,125.223 683.703,126.429 682.833,127.65 C670.409,145.076 656.281,160.922 640.176,175.084 C615.562,196.728 588.314,214.104 558.151,226.873 C529.84,238.858 500.578,247.949 470.513,254.259 C443.711,259.884 416.739,264.114 389.348,257.967 C388.535,257.784 387.694,257.769 386.86,257.786 C383.305,257.86 380.709,259.484 379.68,262.901 C378.703,266.143 379.003,269.501 382.178,271.336 C385.588,273.307 385.335,275.847 384.658,278.996 C382.486,289.099 380.686,299.323 380.285,309.624 C379.266,335.741 382.027,361.507 389.066,386.738 C397.309,416.281 411.045,442.892 432.411,465.09 C449.637,482.986 470.3,495.954 493.379,505.083 C498.03,506.923 498.154,506.999 494.792,510.907 C483.585,523.932 475.602,538.867 468.626,554.429 C466.447,559.291 464.18,564.125 461.334,568.648 C460.722,569.62 459.872,570.781 458.55,569.789 C457.627,569.096 458.019,567.975 458.456,567.039 C458.951,565.98 459.618,565.018 460.222,564.021 C463.502,558.605 466.688,553.13 469.732,547.584 C472.83,541.94 472.212,536.096 468.452,531.725 C461.375,523.497 450.989,524.09 444.844,533.11 C441.839,537.521 439.381,542.265 436.697,546.869 C435.058,549.681 433.409,549.699 431.266,547.425 C429.206,545.237 427.478,542.784 425.437,540.578 C408.777,522.563 395.901,502.038 385.382,479.959 C384.3,477.927 383.243,475.882 382.345,473.763 C377.981,464.035 374.184,454.071 370.811,443.97 C357.893,405.282 352.462,365.301 350.894,324.719 C350.219,307.244 351.484,289.78 353.1,272.405 C356.551,235.288 364.238,199.04 376.735,163.849 C389.337,128.36 407.372,96.448 435.284,70.442 C462.821,44.787 494.942,28.399 531.444,20.125 C544.631,17.135 558.007,15.642 571.487,14.951 C573.582,14.228 575.764,14.267 577.918,14.372 C592.701,15.086 607.544,15.334 622.18,17.643 C639.252,20.337 656.548,22.269 672.591,29.452 C674.771,30.428 677.143,30.473 679.474,30.369 C687.263,30.019 694.695,31.708 702.007,34.152 C721.462,40.655 739.117,50.584 755.671,62.546 C790.914,88.01 818.647,119.613 836.287,159.797 C858.869,211.237 868.402,265.326 869.911,321.073 C870.285,334.859 870.06,348.669 869.255,362.497 C868.404,377.125 867.116,391.698 865.68,406.257 C863.208,431.312 861.747,456.338 865.128,481.419 C869.155,511.298 879.24,538.617 899.682,561.337 C904.274,566.44 908.316,572.46 915.352,574.846 C917.626,576.516 919.795,578.36 922.201,579.81 C925.154,581.589 928.115,581.028 930.299,578.452 C932.646,575.683 932.433,572.578 930.168,569.8" fill="#6E4100"/>
      <path d="M571.574,13.705 C575.961,12.332 580.48,12.979 584.897,13.145 C611.049,14.127 637.228,16.33 662.142,24.414 C675.123,28.627 688.658,27.94 701.41,32.332 C728.418,41.633 751.83,56.819 773.764,74.774 C819.087,111.874 843.151,161.396 857.413,216.731 C864.906,245.806 868.979,275.37 870.66,305.35 C872.615,340.196 870.368,374.802 866.812,409.442 C863.419,442.489 862.801,475.491 872.153,507.955 C879.845,534.658 894.39,556.788 915.352,574.847 C899.642,586.872 881.465,587.637 863.013,585.551 C847.674,583.818 833.176,579.018 820.56,569.661 C819.088,568.57 818.145,568.181 816.968,569.943 C799.327,596.355 773.519,609.069 743.053,613.97 C742.438,614.069 741.879,614.51 741.294,614.789 C731.638,592.71 722.196,570.536 712.267,548.583 C701.605,525.007 698.894,521.78 679.587,505.51 C687.618,502.053 695.554,498.918 703.066,494.868 C746.071,471.681 772.765,435.607 786.393,389.28 C787.514,385.467 788.792,383.835 793.266,383.65 C811.112,382.915 823.791,370.534 826.278,352.057 C827.623,342.06 827.35,332.141 823.78,322.539 C819.774,311.767 811.674,305.887 800.24,305.934 C796.65,305.949 795.647,305.008 795.175,301.321 C789.209,254.78 774.831,211.552 744.336,174.856 C731.679,159.626 716.886,146.817 700.098,136.309 C698.246,135.149 695.721,134.565 697.582,131.188 C699.404,127.884 697.898,124.931 694.831,123.139 C691.414,121.141 688.413,122.138 686.159,125.313 C679.505,134.688 672.489,143.765 664.828,152.358 C642.099,177.854 615.713,198.768 585.672,214.913 C543.648,237.498 498.508,250.875 451.715,259.133 C437.243,261.688 422.678,262.735 407.982,262.138 C402.125,261.9 396.375,261.106 390.749,259.563 C386.733,258.461 382.72,258.046 380.855,262.452 C379.025,266.777 380.69,270.345 385.503,271.743 C388.298,272.554 386.813,274.354 386.532,275.738 C382.981,293.239 380.735,310.849 381.577,328.765 C383.616,372.184 393.895,412.968 420.203,448.516 C439.461,474.538 464.811,492.528 494.84,504.175 C496.235,504.716 497.628,505.263 499.014,505.824 C499.318,505.948 499.592,506.147 500.293,506.547 C491.153,516.203 483.869,527.096 477.773,538.749 C472.454,548.919 467.563,559.312 462.326,569.526 C461.626,570.893 461.513,574.021 458.283,572.111 C455.703,570.585 455.477,569.099 457.088,566.536 C460.981,560.338 464.613,553.972 468.247,547.614 C472.194,540.707 470.45,533.235 464.095,529.304 C457.586,525.277 449.87,527.265 445.617,534.203 C442.66,539.027 439.741,543.886 437.088,548.88 C435.473,551.922 434.315,552.192 431.802,549.616 C415.762,533.176 402.313,514.846 391.389,494.67 C388.887,490.049 385.677,485.745 384.436,480.496 C383.883,478.146 382.851,475.978 381.89,473.782 C374.612,454.13 371.212,433.586 368.181,412.992 C365.49,394.715 364.168,376.3 362.896,357.862 C361.417,336.415 360.524,314.966 361.179,293.511 C362.537,249.076 369.495,205.696 387.729,164.709 C394.383,149.754 402.492,135.597 412.042,122.292 C416.427,116.182 417.575,115.943 423.769,119.865 C438.775,129.368 454.875,135.686 472.705,137.322 C480.319,138.021 487.63,136.732 494.907,134.83 C496.826,134.328 498.661,133.511 500.475,133.207 C483.49,131.515 468.398,125.764 458.024,111.027 C452.811,103.623 450.408,95.174 449.218,86.332 C448.768,82.988 449.865,80.252 452.542,77.935 C485.809,49.141 523.524,28.624 565.9,16.702 C570.019,15.543 574.235,15.082 579.137,14.517 C576.106,14.61 573.619,16.126 571.574,13.705" fill="#DCBF5C"/>
      <path d="M1012.35,275.487 C1017.04,261.573 1021.7,247.732 1026.36,233.887 C1029.33,225.069 1032.22,216.224 1035.26,207.434 C1037.07,202.206 1039.67,201.306 1044.28,204.241 C1052.37,209.382 1059.11,215.928 1065.09,223.44 C1071.82,231.88 1072.24,241.551 1071.13,251.391 C1070.53,256.753 1066.45,260.387 1061.9,263.198 C1055.36,267.237 1048.04,268.687 1040.59,269.681 C1038.14,270.008 1036.28,268.94 1035.63,266.515 C1034.94,263.958 1036.38,262.339 1038.66,261.542 C1041.6,260.507 1043.79,258.504 1045.84,256.306 C1051.89,249.827 1051.53,244.503 1044.69,238.999 C1037.42,233.151 1036.7,233.24 1033.86,241.771 C1028.15,258.934 1021.73,275.865 1017.07,293.373 C1015.84,297.979 1012.62,301.149 1008.26,302.994 C1000.2,306.4 991.977,306.401 983.958,303.131 C972.008,298.26 970.023,285.854 979.576,277.057 C987.832,269.455 1000.53,268.761 1012.35,275.487" fill="#FF7164"/>
    </g>
    <path d="M320.288,1115.26 C316.879,1115.07 313.973,1113.55 313.061,1108.82 C311.522,1100.83 309.281,1092.98 307.825,1084.98 C307.205,1081.57 305.656,1080.32 302.519,1079.58 C296.703,1078.22 291.022,1076.28 285.224,1074.82 C280.965,1073.76 278.495,1071.49 278.468,1066.92 C278.44,1062.12 280.992,1059.78 285.494,1058.7 C291.304,1057.3 296.984,1055.37 302.787,1053.94 C305.699,1053.22 307.167,1052 307.76,1048.8 C309.276,1040.64 311.499,1032.61 313.115,1024.46 C314.063,1019.68 317.344,1018.15 321.365,1018.16 C325.386,1018.17 328.659,1019.7 329.59,1024.5 C331.172,1032.65 333.335,1040.69 334.906,1048.85 C335.505,1051.95 336.959,1053.23 339.9,1053.94 C345.871,1055.38 351.711,1057.37 357.68,1058.82 C362.083,1059.89 364.315,1062.48 364.263,1066.89 C364.213,1071.01 362.223,1073.62 357.99,1074.67 C352.024,1076.14 346.205,1078.24 340.206,1079.53 C336.652,1080.29 335.387,1082.12 334.734,1085.41 C333.182,1093.24 331.329,1101 329.563,1108.78 C328.49,1113.5 326.03,1115.37 320.288,1115.26" fill="#FFCF00"/>
    <path d="M200.645,860.388 C200.575,863.103 199.626,865.148 196.679,865.927 C192.504,867.031 188.409,868.478 184.196,869.394 C181.203,870.046 179.73,871.301 179.218,874.514 C178.357,879.919 176.694,885.192 175.685,890.579 C174.993,894.274 172.69,895.699 169.401,895.65 C166.279,895.604 164.183,893.99 163.506,890.645 C162.352,884.944 160.863,879.31 159.761,873.601 C159.318,871.305 158.359,870.228 156.051,869.688 C151.687,868.666 147.445,867.138 143.093,866.057 C139.998,865.289 138.552,863.377 138.533,860.393 C138.514,857.409 139.839,855.29 143.044,854.754 C143.693,854.645 144.301,854.194 144.941,854.159 C157.037,853.518 162.031,846.424 162.508,835.063 C162.584,833.261 163.242,831.487 163.6,829.694 C164.228,826.556 166.422,825.194 169.326,825.141 C172.374,825.085 174.808,826.185 175.546,829.65 C176.756,835.34 178.302,840.965 179.324,846.685 C179.819,849.452 181.047,850.598 183.695,851.199 C188.063,852.191 192.314,853.69 196.655,854.819 C199.619,855.589 200.583,857.59 200.645,860.388" fill="#FFCF00"/>
    <path d="M416.233,275.554 C449.714,274.608 480.165,267.774 510.266,259.008 C552.019,246.848 591.718,230.346 626.973,204.28 C648.789,188.15 668.413,169.75 685.128,148.39 C688.033,144.679 689.796,145.246 693.022,147.288 C730.591,171.077 755.063,204.935 769.357,246.558 C776.729,268.024 781.683,290.027 782.923,312.781 C783.254,318.848 786.34,321.013 792.305,319.741 C805.804,316.863 812.174,321.545 813.476,335.199 C813.904,339.692 813.92,344.155 813.482,348.649 C811.971,364.156 801.695,372.477 786.163,370.682 C779.54,369.917 777.892,371.004 776.26,377.323 C767.212,412.357 750.799,442.952 722.428,466.265 C698.44,485.975 670.544,497.039 640.28,502.379 C596.883,510.037 553.74,509.131 511.42,496.023 C453.878,478.199 418.255,438.997 402.593,381.411 C393.428,347.711 391.446,313.577 399.226,279.178 C400.032,275.614 401.238,274.528 404.744,274.923 C409.198,275.424 413.707,275.431 416.233,275.554" fill="#FEF8EA"/>
    <path d="M587.226,697.401 C569.581,697.401 551.936,697.358 534.291,697.434 C530.203,697.451 528.506,696.317 528.298,691.63 C526.989,662.169 526.974,632.698 526.944,603.222 C526.94,599.23 526.736,595.237 526.6,591.245 C526.457,587.013 524.182,584.738 520.016,584.721 C516,584.705 514.059,587.165 513.624,590.979 C513.568,591.472 513.509,592.002 513.623,592.474 C516.262,603.354 510.349,611.333 505.094,619.948 C475.475,668.507 431.893,700.982 382.805,727.283 C380.297,728.626 379.253,728.294 377.278,726.068 C370.994,718.987 369.29,712.205 376.305,704.616 C377.958,702.828 378.981,700.416 380.117,698.2 C389.44,680.005 402.238,665.049 417.314,650.926 C444.554,625.407 465.51,594.67 481.506,560.749 C488.892,545.085 496.696,529.671 508.749,516.864 C512.585,512.787 515.947,509.97 522.349,512.553 C527.945,514.811 534.307,515.3 540.388,516.176 C543.874,516.679 545.541,517.997 546.646,521.582 C551.001,535.709 561.047,543.977 575.488,545.708 C590.926,547.559 605.594,545.61 615.478,531.317 C616.604,529.687 618.013,527.912 618.252,526.069 C619.175,518.971 623.782,517.693 629.913,517.127 C638.312,516.352 646.588,514.299 654.981,513.388 C667.2,512.063 676.376,518.076 684.152,526.729 C692.513,536.033 697.449,547.347 702.471,558.578 C730.202,620.597 755.508,683.634 781.402,746.426 C782.694,749.559 781.737,750.246 778.914,750.896 C768.388,753.319 757.89,755.878 747.426,758.558 C744.695,759.258 743.366,758.694 742.065,756.041 C715.962,702.788 689.747,649.591 663.552,596.384 C662.305,593.851 661.224,591.213 659.74,588.826 C657.646,585.458 654.421,584.808 651.08,586.618 C647.919,588.331 646.238,591.736 648.372,594.625 C657.254,606.646 652.511,619.538 651.157,632.097 C649.033,651.789 646.658,671.455 645.301,691.219 C645.017,695.366 644.352,697.532 639.164,697.631 C621.853,697.963 604.545,698.476 587.226,697.401" fill="#FEFEFE"/>
    <path d="M535.085,746.867 C531.432,750.283 528.726,752.752 526.09,755.293 C522.492,758.761 522.211,761.783 525.344,765.787 C530.679,772.604 536.131,779.331 541.573,786.064 C542.184,786.82 543.012,787.878 543.802,787.936 C548.994,788.319 548.177,791.399 547.74,795.104 C545.42,814.77 543.364,834.467 541.265,854.158 C540.579,860.591 542.196,862.65 548.592,863.388 C553.546,863.96 558.523,864.342 563.497,864.713 C569.66,865.173 571.971,863.134 572.528,856.956 C573.873,842.04 575.226,827.124 576.588,812.21 C576.706,810.914 576.575,809.535 577.938,808.028 C580.786,817.614 583.554,826.891 586.298,836.175 C588.19,842.575 590.494,843.871 596.946,842.105 C601.435,840.876 605.938,839.698 610.409,838.405 C616.344,836.688 617.959,833.897 616.208,827.993 C612.663,816.046 609.062,804.115 605.305,792.234 C604.517,789.745 604.767,788.223 606.581,786.136 C612.365,779.48 617.755,772.48 623.267,765.59 C626.138,762.002 625.89,758.605 622.508,755.448 C619.835,752.953 617.189,750.429 613.803,747.231 C621.918,746.821 629.229,746.402 636.544,746.099 C642.531,745.852 648.53,745.856 654.51,745.517 C657.017,745.375 658.018,746.106 658.454,748.655 C664.707,785.205 671.067,821.737 677.39,858.276 C679.885,872.693 682.183,887.146 684.946,901.511 C685.68,905.326 684.802,906.789 681.179,907.797 C662.14,913.099 642.655,915.159 623.01,916.013 C594.386,917.258 565.766,917.296 537.189,914.893 C522.917,913.692 508.797,911.578 495,907.547 C492.008,906.672 491.245,905.449 491.805,902.268 C500.737,851.498 509.578,800.71 518.221,749.89 C518.836,746.27 520.205,745.558 523.323,745.909 C526.885,746.312 530.47,746.502 535.085,746.867" fill="#B9DEFE"/>
    <path d="M571.574,13.705 C574.551,13.835 577.528,13.966 580.506,14.096 C580.542,14.28 580.578,14.464 580.614,14.648 C575.399,15.896 570.133,16.964 564.977,18.422 C522.973,30.292 485.77,50.993 452.738,79.418 C450.03,81.748 450.332,84.308 450.699,87.067 C453.913,111.239 470.042,127.465 494.283,130.98 C497.24,131.409 500.203,131.796 504.101,132.332 C498.614,135.76 493.197,137.121 487.636,138.003 C470.748,140.679 454.947,136.71 439.63,129.97 C433.372,127.217 427.2,124.173 421.75,120.082 C418.008,117.273 416.385,118.375 413.994,121.692 C393.656,149.905 380.352,181.221 372.408,214.936 C363.021,254.772 361.09,295.163 363.055,335.904 C364.153,358.674 365.517,381.401 368.336,404.03 C371.072,426.001 375.035,447.717 381.367,468.963 C381.841,470.553 382.198,472.177 382.609,473.785 C383.062,474.85 382.503,475.026 381.616,474.912 C369.534,449.002 361.561,421.771 356.738,393.697 C343.118,314.413 349.402,236.707 376.456,160.839 C387.741,129.192 403.71,100.356 427.434,76.099 C457.297,45.564 493.253,26.515 534.954,18.026 C547.033,15.567 559.245,14.111 571.574,13.705" fill="#FEFEFE"/>
    <path d="M563.826,1037.61 C567.14,1025 569.966,1014.08 572.88,1003.19 C579.009,980.285 585.287,957.417 591.234,934.463 C592.178,930.817 593.626,929.756 597.283,929.733 C608.406,929.664 619.529,929.206 630.648,928.809 C636.075,928.615 636.09,928.53 634.301,933.907 C628.271,952.033 622.237,970.158 616.186,988.278 C609.662,1007.82 603.021,1027.32 596.67,1046.91 C595.523,1050.45 594.634,1051.71 590.749,1049.92 C583.373,1046.51 575.698,1043.75 568.209,1040.57 C566.249,1039.74 563.502,1039.21 563.826,1037.61" fill="#797979"/>
    <path d="M236.029,1147.37 C235.768,1147.66 235.589,1147.97 235.325,1148.15 C229.847,1151.92 224.427,1158.47 218.854,1158.6 C213.62,1158.73 208.151,1152.17 202.907,1148.39 C151.512,1111.28 100.175,1074.1 48.704,1037.1 C44.702,1034.22 45.161,1032.99 48.967,1030.82 C53.586,1028.19 58.025,1025.22 62.424,1022.23 C64.081,1021.1 65.234,1021.16 66.824,1022.33 C87.7,1037.75 108.592,1053.15 129.561,1068.44 C132.93,1070.9 130.425,1072.71 129.339,1074.66 C124.741,1082.93 128.369,1092.34 137.1,1094.61 C142.681,1096.06 147.647,1094.25 151.388,1089.01 C152.789,1087.05 153.676,1086.17 156.017,1087.9 C182.373,1107.38 208.798,1126.78 235.191,1146.21 C235.558,1146.48 235.757,1146.98 236.029,1147.37" fill="#FF7E79"/>
    <path d="M510.243,1138.58 C516.285,1138.62 522.149,1139.88 528.02,1141.05 C533.896,1142.21 536.144,1140.96 537.748,1135.01 C544.349,1110.49 550.877,1085.96 557.427,1061.44 C560.071,1051.54 560.073,1051.51 569.457,1055.28 C575.617,1057.75 581.716,1060.37 587.902,1062.78 C590.252,1063.69 590.74,1064.74 589.898,1067.24 C579.033,1099.52 568.277,1131.84 557.57,1164.17 C556.882,1166.25 556.045,1167.24 553.72,1166.88 C534.504,1163.85 515.304,1160.78 497.335,1152.79 C495.675,1152.05 494.104,1151.06 492.607,1150.02 C487.617,1146.55 487.955,1143.23 493.616,1140.64 C498.923,1138.21 504.592,1138.35 510.243,1138.58" fill="#FEF8EA"/>
    <path d="M594.664,1167.92 C591.746,1167.73 588.824,1168.51 587.471,1165.82 C586.124,1163.15 587.521,1160.64 589.202,1158.46 C595.107,1150.78 603.456,1146.51 612.034,1142.89 C623.886,1137.89 624.954,1137.94 619.942,1124.12 C614.619,1109.45 609.853,1094.57 604.436,1079.93 C602.471,1074.62 602.962,1069.98 604.279,1064.6 C606.194,1056.78 610.293,1053.17 618.154,1051.84 C628.662,1050.07 628.532,1049.58 631.473,1060.1 C639.037,1087.15 646.563,1114.21 654.322,1141.2 C655.443,1145.1 654.867,1146.86 651,1148.59 C634.157,1156.13 617.451,1163.96 599.112,1167.32 C597.48,1167.62 595.821,1167.77 594.664,1167.92" fill="#FEF8EA"/>
    <path d="M18.27,1050.33 C23.391,1047.27 27.952,1042.43 32.47,1042.47 C36.716,1042.51 40.967,1047.63 45.13,1050.64 C97.87,1088.7 150.569,1126.82 203.38,1164.78 C207.026,1167.4 206.73,1168.61 203.225,1170.68 C199.658,1172.79 196.326,1177.13 192.899,1177.13 C189.486,1177.12 186.031,1172.99 182.684,1170.55 C129.203,1131.52 75.736,1092.47 22.27,1053.43 C21.073,1052.55 19.922,1051.61 18.27,1050.33" fill="#FEFEFE"/>
    <path d="M260.401,1130.23 C259.853,1130.83 259.66,1131.12 259.398,1131.31 C248.401,1139.62 248.395,1139.63 237.293,1131.47 C212.88,1113.54 188.54,1095.5 163.991,1077.75 C160.376,1075.14 159.939,1073.16 162.596,1069.93 C163.534,1068.78 164.263,1067.42 164.87,1066.07 C165.95,1063.65 167.131,1064.01 169.009,1065.35 C199.37,1086.96 229.78,1108.51 260.401,1130.23" fill="#FEFEFE"/>
    <path d="M757.025,790.132 C753.209,785.342 750.769,780.352 749.307,774.803 C748.643,772.287 749.198,771.385 751.821,770.776 C765.079,767.699 778.282,764.389 791.5,761.14 C793.512,760.646 795.458,760.815 797.39,761.466 C798.443,761.821 799.192,761.843 798.92,763.694 C798.009,769.899 798.948,770.989 805.613,773.329 C802.162,776.772 801.432,780.452 805.298,784.791 C802.042,784.996 799.351,785.214 796.655,785.324 C793.309,785.46 790.341,786.139 789.155,789.836 C788.005,793.419 789.56,795.92 792.343,797.969 C792.71,798.24 792.929,798.712 793.879,799.962 C786.309,797.18 780.574,793.179 774.812,789.234 C773.166,788.107 771.563,786.916 769.957,785.731 C763.664,781.087 759.994,782.188 757.025,790.132" fill="#FEF8EA"/>
    <path d="M76.617,1013.29 C79.542,1011.38 82.257,1009.79 84.762,1007.91 C86.417,1006.67 87.416,1007.52 88.671,1008.41 C106.564,1021.12 124.432,1033.86 142.426,1046.43 C145.169,1048.34 143.983,1049.69 142.858,1051.64 C138.655,1058.89 138.695,1058.92 132.019,1054.01 C113.665,1040.53 95.313,1027.04 76.617,1013.29" fill="#FEFEFE"/>
    <path d="M588.061,711.418 C607.537,711.298 627.016,711.338 646.468,710.093 C647.131,710.05 647.8,710.065 648.466,710.079 C649.861,710.107 651.723,709.351 651.951,711.672 C652.192,714.129 650.094,713.6 648.806,713.714 C639.853,714.507 630.89,715.186 621.933,715.924 C611.648,716.772 601.38,717.994 591.079,718.391 C582.985,718.704 574.756,717.112 566.757,717.965 C553.615,719.366 541.085,715.93 528.283,714.731 C526.895,714.601 524.58,715.137 524.704,712.431 C524.828,709.719 526.783,709.969 528.654,710.077 C548.441,711.217 568.25,711.345 588.061,711.418" fill="#B9DDFD"/>
    <path d="M362.665,728.111 C367.163,732.453 368.421,737.324 367.596,743.229 C366.603,750.323 365.766,757.401 362.222,763.75 C357.902,771.487 348.054,774.345 340.099,770.478 C338.687,769.791 338.536,769.243 339.317,767.921 C347.137,754.661 354.901,741.368 362.665,728.111" fill="#FEF8EA"/>
    <path d="M567.72,972.18 C566.5,969.35 565.561,967.487 564.879,965.534 C561.148,954.864 557.621,944.12 553.72,933.512 C552.252,929.522 553.318,928.614 557.227,928.921 C563.348,929.403 569.493,929.624 575.633,929.801 C578.27,929.876 578.734,931.087 578.134,933.321 C574.745,945.92 571.377,958.525 567.72,972.18" fill="#797878"/>
    <path d="M320.991,728.221 C321.201,718.306 323.131,709.498 329.476,702.2 C334.394,696.544 341.172,694.722 347.481,697.09 C349.351,697.792 350.295,698.625 348.962,700.665 C346.678,704.159 346.015,708.828 339.644,708.211 C336.018,707.859 334.757,711.863 334.855,715.635 C335.039,722.668 334.118,729.577 331.507,736.168 C330.522,738.657 329.465,741.515 326.154,741.213 C323.014,740.928 322.805,737.882 322.234,735.549 C321.606,732.98 321.334,730.324 320.991,728.221" fill="#FEF8EA"/>
    <path d="M559.834,518.785 C575.332,520.285 590.714,520.178 606.175,519.749 C603.81,528.134 596.454,532.834 585.628,533.108 C571.245,533.474 563.393,529.213 559.834,518.785" fill="#FEF8EA"/>
    <path d="M567.755,765.372 C566.898,775.444 566.083,785.52 565.175,795.587 C563.624,812.786 562.021,829.979 560.421,847.173 C560.247,849.046 560.736,851.378 557.427,851.045 C555.426,850.843 554.566,850.495 554.84,848.107 C557.794,822.376 560.623,796.631 563.466,770.887 C563.734,768.457 564.989,766.685 567.755,765.372" fill="#B9DDFE"/>
    <path d="M597.205,731.048 C613.595,729.662 629.781,728.293 645.968,726.922 C649.451,726.627 652.96,726.502 656.408,725.978 C660.07,725.422 659.324,728.205 659.82,730.056 C660.613,733.018 658.332,732.389 656.835,732.447 C639.044,733.141 621.25,733.79 603.458,734.473 C600.848,734.573 598.482,734.317 597.205,731.048" fill="#B9DCFC"/>
    <path d="M581.224,764.424 C583.382,766.482 584.567,768.553 585.287,770.928 C590.585,788.403 595.906,805.87 601.139,823.364 C601.585,824.854 603.113,826.821 600.153,827.789 C597.032,828.808 596.992,826.404 596.468,824.622 C591.362,807.259 586.332,789.872 581.158,772.529 C580.368,769.883 580.502,767.458 581.224,764.424" fill="#B9DCFC"/>
    <path d="M601.565,771.475 C597.35,761.807 587.389,755.583 589.81,743.072 C594.457,747.316 598.887,751.316 603.265,755.372 C609.871,761.493 609.858,761.511 604.123,768.522 C603.497,769.288 602.828,770.02 601.565,771.475" fill="#B9DDFD"/>
    <path d="M556.886,744.488 C559.752,751.189 557.038,756.278 553.245,761.12 C552.63,761.905 552.103,762.759 551.549,763.59 C545.841,772.146 545.829,772.123 540.143,763.379 C539.316,762.107 538.798,761.252 540.139,760.023 C545.745,754.887 551.293,749.687 556.886,744.488" fill="#B9DDFD"/>
    <path d="M551.122,731.056 C549.976,733.677 548.358,734.581 545.874,734.412 C536.946,733.803 528.009,733.301 519.075,732.777 C517.253,732.67 515.104,733.008 515.824,729.987 C516.3,727.991 516.148,725.992 519.641,726.588 C530.019,728.357 540.489,729.587 551.122,731.056" fill="#B9DBFB"/>
    <path d="M619.948,1018.88 C621.498,1024.31 622.71,1028.77 624.051,1033.19 C624.924,1036.07 624.154,1037.69 621.015,1037.97 C620.207,1038.04 619.432,1038.59 618.632,1038.62 C617.021,1038.67 615.204,1040.29 613.964,1039.09 C612.585,1037.75 614.244,1035.99 614.692,1034.51 C616.18,1029.61 617.932,1024.8 619.948,1018.88" fill="#787877"/>
    <path d="M576.446,737.664 C576.446,738.986 576.434,740.307 576.45,741.628 C576.468,743.175 576.599,744.763 574.18,744.174 C572.638,743.798 570.306,744.908 570.392,741.771 C570.456,739.468 570.152,737.155 570.059,734.845 C569.986,733.021 568.921,730.852 572.461,730.808 C575.483,730.771 576.788,731.586 576.311,734.691 C576.162,735.66 576.288,736.672 576.288,737.664 C576.341,737.664 576.393,737.664 576.446,737.664" fill="#B8DAFA"/>
    <path d="M381.616,474.912 C381.947,474.537 382.278,474.161 382.609,473.785 C383.833,475.854 384.63,478.039 384.436,480.495 C382.828,478.972 382.284,476.911 381.616,474.912" fill="#F2EDE2"/>
    <path d="M417.753,235.056 C413.59,234.634 411.224,232.9 410.664,229.562 C410.019,225.716 411.998,223.2 415.629,221.999 C425.9,218.603 435.918,214.583 445.702,209.967 C481.321,193.161 513.279,170.793 543.362,145.597 C553.698,136.94 563.713,127.922 573.283,118.413 C576.722,114.996 580.69,114.733 583.423,117.473 C586.274,120.33 586.082,124.187 582.543,127.595 C537.356,171.112 487.961,208.406 428.808,231.198 C424.945,232.687 420.989,233.932 417.753,235.056" fill="#6E4100"/>
    <path d="M762.444,361.147 C762.43,378.524 745.518,396.419 728.58,395.8 C705.156,394.945 690.278,382.826 689.61,362.375 C688.946,342.012 708.389,321.976 727.492,322.032 C745.802,322.086 762.46,340.728 762.444,361.147" fill="#FFD5BA"/>
    <path d="M439.15,395.933 C416.134,394.468 400.141,381.619 400.856,362.21 C401.663,340.355 417.157,322.763 438.421,322.253 C459.494,321.747 473.323,341.726 473.969,360.816 C474.524,377.227 457.819,396.341 439.15,395.933" fill="#FFD5BA"/>
    <path d="M512.497,318.344 C512.398,323.4 510.994,327.62 508.553,331.46 C505.462,336.322 501.453,339.91 495.184,339.195 C488.693,338.454 484.657,334.375 482.708,328.486 C480.111,320.639 480.683,312.727 483.965,305.161 C485.028,302.709 485.453,300.899 483.805,298.421 C481.483,294.927 480.789,290.748 480.615,286.55 C480.491,283.542 481.466,281.212 484.81,280.882 C488.189,280.549 489.539,282.647 489.907,285.67 C490.107,287.316 490.222,288.983 490.568,290.599 C491.165,293.384 492.135,295.49 495.859,294.895 C499.64,294.291 502.518,296.529 504.886,299.24 C509.768,304.827 512.092,311.438 512.497,318.344" fill="#6E4100"/>
    <path d="M683.965,319.205 C683.784,323.742 683.176,328.484 680.367,332.674 C674.828,340.939 664.899,341.578 658.431,334.064 C651.589,326.116 650.692,314.471 656.799,304.284 C658.765,301.004 659.184,298.608 657.14,295.413 C655.915,293.499 655.177,291.186 654.62,288.953 C653.904,286.083 654.57,283.498 657.865,282.714 C660.764,282.023 662.636,283.432 663.478,286.266 C663.809,287.378 664.163,288.49 664.604,289.561 C665.815,292.501 666.938,294.892 671.106,295.166 C675.495,295.455 678.129,299.33 680.188,303.018 C682.922,307.916 683.847,313.315 683.965,319.205" fill="#6E4100"/>
    <path d="M583.815,442.191 C578.64,442.302 574,441.254 570.054,438.112 C567.384,435.985 566.364,433.304 568.563,430.292 C570.557,427.56 573.236,427.301 576.018,429.086 C582.149,433.019 587.99,432.091 593.61,428.083 C596.664,425.904 599.656,425.71 601.859,428.852 C604.061,431.994 602.745,434.827 599.856,437.009 C595.042,440.646 589.612,442.369 583.815,442.191" fill="#6E4300"/>
    <path d="M692.829,198.971 C692.694,201.548 691.777,203.283 689.602,203.871 C687.319,204.488 685.339,203.84 684.06,201.668 C682.325,198.721 679.922,196.503 676.76,195.184 C672.899,193.574 669.03,193.507 665.192,195.324 C662.346,196.67 659.538,196.944 657.989,193.641 C656.296,190.032 658.668,188.176 661.619,186.754 C671.818,181.84 686.088,186.28 691.604,196.145 C692.16,197.138 692.517,198.242 692.829,198.971" fill="#6E4100"/>
    <path d="M588.465,332.393 C588.434,336.87 586.526,339.171 583.022,339.819 C578.542,340.649 576.7,337.215 574.614,334.187 C572.563,331.21 570.813,328.228 573.066,324.653 C575.081,321.456 578.37,320.785 581.292,322.412 C585.312,324.65 587.184,328.834 588.465,332.393" fill="#6F4300"/>
  </g>
</svg>
