<?xml version="1.0" encoding="UTF-8" standalone="no"?>
<!-- Created with Inkscape (http://www.inkscape.org/) -->

<svg
   width="32.611721mm"
   height="48.886665mm"
   viewBox="0 0 32.611721 48.886665"
   version="1.1"
   id="svg1"
   xml:space="preserve"
   sodipodi:docname="Kartoffel_glänzend.svg"
   inkscape:version="1.4 (86a8ad7, 2024-10-11)"
   xmlns:inkscape="http://www.inkscape.org/namespaces/inkscape"
   xmlns:sodipodi="http://sodipodi.sourceforge.net/DTD/sodipodi-0.dtd"
   xmlns="http://www.w3.org/2000/svg"
   xmlns:svg="http://www.w3.org/2000/svg"><sodipodi:namedview
     id="namedview1"
     pagecolor="#ffffff"
     bordercolor="#000000"
     borderopacity="0.25"
     inkscape:showpageshadow="2"
     inkscape:pageopacity="0.0"
     inkscape:pagecheckerboard="0"
     inkscape:deskcolor="#d1d1d1"
     inkscape:document-units="mm"
     showguides="true"
     inkscape:zoom="1.7277022"
     inkscape:cx="180.00787"
     inkscape:cy="68.588209"
     inkscape:window-width="1920"
     inkscape:window-height="986"
     inkscape:window-x="-11"
     inkscape:window-y="-11"
     inkscape:window-maximized="1"
     inkscape:current-layer="layer1" /><defs
     id="defs1"><filter
       inkscape:collect="always"
       style="color-interpolation-filters:sRGB"
       id="filter26-9"
       x="-0.002461752"
       y="-0.0015736833"
       width="1.0049235"
       height="1.0031474"><feGaussianBlur
         inkscape:collect="always"
         stdDeviation="0.028797478"
         id="feGaussianBlur26-5" /></filter><filter
       inkscape:collect="always"
       style="color-interpolation-filters:sRGB"
       id="filter25-6"
       x="-0.012868339"
       y="-0.0054732582"
       width="1.0257367"
       height="1.0109465"><feGaussianBlur
         inkscape:collect="always"
         stdDeviation="0.072673208"
         id="feGaussianBlur25-0" /></filter></defs><g
     inkscape:label="Layer 1"
     inkscape:groupmode="layer"
     id="layer1"
     transform="translate(-137.82737,-94.596456)"><g
       id="g26"
       transform="matrix(0.94834497,0,0,0.94834497,48.918182,-137.3774)"><path
         id="path22-8"
         style="fill:#c18c40;fill-opacity:1;stroke-width:0.2;stroke-linecap:round;stroke-linejoin:round"
         d="m 126.38364,271.08849 c 0.55728,2.71754 1.23733,5.53937 0.81955,8.28182 -0.45857,3.01025 -1.82483,5.91202 -3.56562,8.41033 -1.32454,1.90092 -3.0801,3.56409 -5.06362,4.76141 -2.05896,1.24285 -4.42749,2.12514 -6.8221,2.34837 -2.25326,0.21005 -4.61439,-0.14884 -6.71724,-0.98512 -1.96788,-0.7826 -3.79421,-2.06518 -5.202406,-3.64696 -1.825132,-2.0501 -3.182175,-4.59913 -3.91473,-7.24439 -1.080662,-3.90227 -0.711582,-8.08947 -0.54516,-12.13519 0.134351,-3.26608 0.386261,-6.57289 1.24323,-9.7274 0.754748,-2.77823 1.815909,-5.53327 3.390406,-7.94349 1.33928,-2.05014 2.93139,-4.09147 5.02866,-5.35565 1.82308,-1.0989 4.03276,-1.8126 6.15796,-1.69125 2.13337,0.12181 4.17217,1.20217 5.94822,2.39035 1.84175,1.23213 3.61152,2.79539 4.64518,4.75542 1.38792,2.63178 1.00632,5.87166 1.7465,8.75345 0.78511,3.05672 2.21718,5.9367 2.85117,9.0283 z"
         sodipodi:nodetypes="aaaaaaaaaaaaaaaaa" /><path
         id="path22-6-3"
         style="mix-blend-mode:normal;fill:#cfa14c;fill-opacity:1;stroke-width:0.2;stroke-linecap:round;stroke-linejoin:round;filter:url(#filter26-9)"
         d="m 122.11336,270.58317 c 0.35862,1.50368 0.78491,3.03112 0.74964,4.57657 -0.0464,2.03108 -0.44329,4.10262 -1.25858,5.96347 -0.70109,1.60018 -1.72547,3.11703 -3.03622,4.27203 -1.28094,1.12874 -2.91824,1.81409 -4.51506,2.41828 -2.17409,0.82263 -4.4876,1.26174 -6.78714,1.60157 -2.18071,0.32227 -3.89095,0.9835 -6.60061,0.40784 -2.6849,-0.5704 -4.090168,-4.16018 -5.033297,-6.82493 -1.350983,-3.81712 -0.711582,-8.08947 -0.54516,-12.13519 0.134351,-3.26608 0.386261,-6.57289 1.24323,-9.7274 0.754748,-2.77823 1.815909,-5.53327 3.39041,-7.94349 1.339277,-2.05014 2.931377,-4.09147 5.028657,-5.35565 1.82308,-1.0989 4.03275,-1.8126 6.15795,-1.69125 2.13337,0.12181 4.44412,0.87252 5.94822,2.39035 0.74018,0.74694 0.89099,1.9185 1.14966,2.93775 0.83306,3.28255 0.5347,6.77309 1.25713,10.08175 0.67323,3.08329 2.11902,5.95846 2.85117,9.0283 z"
         sodipodi:nodetypes="aaaaaasaaaaaaaaaa" /><path
         style="fill:#e7c267;fill-opacity:1;fill-rule:nonzero;stroke:none;stroke-width:0.2;stroke-linecap:round;stroke-linejoin:round;stroke-dasharray:none;stroke-opacity:1;filter:url(#filter25-6)"
         d="m 109.59131,248.23396 c -1.8994,-0.77521 -4.03609,1.28169 -5.5438,2.6729 -2.30431,2.12626 -3.66887,5.17527 -4.751845,8.11772 -1.23864,3.36541 -1.66686,7.01292 -1.88093,10.59264 -0.14008,2.34245 -0.13615,4.74325 0.39598,7.02875 0.26824,1.15209 0.21596,3.09258 1.38595,3.26689 1.830375,0.2727 2.891845,-2.5326 3.563875,-4.25685 1.2956,-3.32413 -0.29911,-7.21343 0.49498,-10.69163 0.4311,-1.88825 1.14619,-3.77331 2.27692,-5.34582 1.1599,-1.61307 3.44109,-2.25117 4.45485,-3.95986 0.67393,-1.1359 0.97,-2.54246 0.89097,-3.86087 -0.0756,-1.26078 -0.11756,-3.0866 -1.28695,-3.56387 z"
         id="path23-2"
         sodipodi:nodetypes="aaaaaaaaaaaa" /><path
         style="fill:#fce48c;fill-opacity:1;fill-rule:nonzero;stroke:none;stroke-width:0.199999;stroke-linecap:round;stroke-linejoin:round;stroke-dasharray:none;stroke-opacity:1"
         d="m 108.14547,276.49917 c 0,0 0.68071,-0.30934 1.05143,-0.30722 0.32111,0.002 0.8872,0.16027 0.8872,0.16027 z"
         id="path24-0-01"
         sodipodi:nodetypes="cscc" /><path
         style="fill:#fce48c;fill-opacity:1;fill-rule:nonzero;stroke:none;stroke-width:0.199999;stroke-linecap:round;stroke-linejoin:round;stroke-dasharray:none;stroke-opacity:1"
         d="m 115.58875,266.72119 c 0,0 0.68071,-0.30934 1.05143,-0.30722 0.32111,0.002 0.8872,0.16027 0.8872,0.16027 z"
         id="path24-0-7-3"
         sodipodi:nodetypes="cscc" /><path
         style="fill:#fce48c;fill-opacity:1;fill-rule:nonzero;stroke:none;stroke-width:0.199999;stroke-linecap:round;stroke-linejoin:round;stroke-dasharray:none;stroke-opacity:1"
         d="m 112.14917,252.69827 c 0,0 0.68071,-0.30934 1.05143,-0.30722 0.32111,0.002 0.8872,0.16027 0.8872,0.16027 z"
         id="path24-0-33-9"
         sodipodi:nodetypes="cscc" /><path
         style="fill:#fce48c;fill-opacity:1;fill-rule:nonzero;stroke:none;stroke-width:0.199999;stroke-linecap:round;stroke-linejoin:round;stroke-dasharray:none;stroke-opacity:1"
         d="m 107.91584,247.14202 c 0,0 0.68071,-0.30934 1.05143,-0.30722 0.32111,0.002 0.8872,0.16027 0.8872,0.16027 z"
         id="path24-0-6-6"
         sodipodi:nodetypes="cscc" /><path
         style="fill:#fce48c;fill-opacity:1;fill-rule:nonzero;stroke:none;stroke-width:0.199999;stroke-linecap:round;stroke-linejoin:round;stroke-dasharray:none;stroke-opacity:1"
         d="m 118.76375,277.03994 c 0,0 0.68071,-0.30934 1.05143,-0.30722 0.32111,0.002 0.8872,0.16027 0.8872,0.16027 z"
         id="path24-0-20-8"
         sodipodi:nodetypes="cscc" /><path
         style="fill:#fce48c;fill-opacity:1;fill-rule:nonzero;stroke:none;stroke-width:0.199999;stroke-linecap:round;stroke-linejoin:round;stroke-dasharray:none;stroke-opacity:1"
         d="m 123.52625,280.21494 c 0,0 0.68071,-0.30934 1.05143,-0.30722 0.32111,0.002 0.8872,0.16027 0.8872,0.16027 z"
         id="path24-0-85-2"
         sodipodi:nodetypes="cscc" /><path
         style="fill:#fce48c;fill-opacity:1;fill-rule:nonzero;stroke:none;stroke-width:0.199999;stroke-linecap:round;stroke-linejoin:round;stroke-dasharray:none;stroke-opacity:1"
         d="m 117.97,288.94619 c 0,0 0.68071,-0.30934 1.05143,-0.30722 0.32111,0.002 0.8872,0.16027 0.8872,0.16027 z"
         id="path24-0-202-2"
         sodipodi:nodetypes="cscc" /><path
         style="fill:#fce48c;fill-opacity:1;fill-rule:nonzero;stroke:none;stroke-width:0.199999;stroke-linecap:round;stroke-linejoin:round;stroke-dasharray:none;stroke-opacity:1"
         d="m 99.978338,288.94619 c 0,0 0.680712,-0.30934 1.051432,-0.30722 0.32111,0.002 0.8872,0.16027 0.8872,0.16027 z"
         id="path24-0-84-8"
         sodipodi:nodetypes="cscc" /><path
         style="fill:#bf8c40;fill-opacity:1;fill-rule:nonzero;stroke:none;stroke-width:0.2;stroke-linecap:round;stroke-linejoin:round;stroke-dasharray:none;stroke-opacity:1"
         d="m 104.00958,269.71238 c 0,0 1.22351,-0.85271 1.93499,-0.93104 0.61625,-0.068 1.81136,0.42249 1.81136,0.42249 z"
         id="path24-9-3"
         sodipodi:nodetypes="cscc" /><g
         id="g24-0"
         transform="translate(9.2456123,61.930837)"
         style="opacity:0.8"><path
           style="fill:#bf8c40;fill-opacity:1;fill-rule:nonzero;stroke:none;stroke-width:0.2;stroke-linecap:round;stroke-linejoin:round;stroke-dasharray:none;stroke-opacity:1"
           d="m 90.231962,201.78336 c 0,0 1.31427,-0.70484 2.030031,-0.70001 0.619978,0.004 1.750028,0.63001 1.750028,0.63001 z"
           id="path24-2-2"
           sodipodi:nodetypes="cscc" /><path
           style="fill:#fce48c;fill-opacity:1;fill-rule:nonzero;stroke:none;stroke-width:0.2;stroke-linecap:round;stroke-linejoin:round;stroke-dasharray:none;stroke-opacity:1"
           d="m 90.222915,201.79881 c 0,0 1.31427,-0.19735 2.030031,-0.196 0.619978,0.001 1.712945,0.10225 1.712945,0.10225 z"
           id="path24-0-3-4"
           sodipodi:nodetypes="cscc" /></g><g
         id="g24-3-6"
         transform="rotate(-7.3366683,508.37891,137.23133)"
         style="opacity:0.8"><path
           style="fill:#bf8c40;fill-opacity:1;fill-rule:nonzero;stroke:none;stroke-width:0.2;stroke-linecap:round;stroke-linejoin:round;stroke-dasharray:none;stroke-opacity:1"
           d="m 90.231962,201.78336 c 0,0 1.31427,-0.70484 2.030031,-0.70001 0.619978,0.004 1.750028,0.63001 1.750028,0.63001 z"
           id="path24-2-7-1"
           sodipodi:nodetypes="cscc" /><path
           style="fill:#fce48c;fill-opacity:1;fill-rule:nonzero;stroke:none;stroke-width:0.2;stroke-linecap:round;stroke-linejoin:round;stroke-dasharray:none;stroke-opacity:1"
           d="m 90.222915,201.79881 c 0,0 1.31427,-0.19735 2.030031,-0.196 0.619978,0.001 1.712945,0.10225 1.712945,0.10225 z"
           id="path24-0-3-7-5"
           sodipodi:nodetypes="cscc" /></g><path
         style="fill:#bf8c40;fill-opacity:1;fill-rule:nonzero;stroke:none;stroke-width:0.2;stroke-linecap:round;stroke-linejoin:round;stroke-dasharray:none;stroke-opacity:1"
         d="m 117.1853,259.17649 c 0,0 1.31427,-0.70484 2.03003,-0.70001 0.61998,0.004 1.75003,0.63001 1.75003,0.63001 z"
         id="path24-22-3"
         sodipodi:nodetypes="cscc" /><path
         style="fill:#fce48c;fill-opacity:1;fill-rule:nonzero;stroke:none;stroke-width:0.2;stroke-linecap:round;stroke-linejoin:round;stroke-dasharray:none;stroke-opacity:1"
         d="m 117.17625,259.19194 c 0,0 1.31427,-0.19735 2.03003,-0.196 0.61998,10e-4 1.71295,0.10225 1.71295,0.10225 z"
         id="path24-0-5-5"
         sodipodi:nodetypes="cscc" /><path
         style="fill:#bf8c40;fill-opacity:1;fill-rule:nonzero;stroke:none;stroke-width:0.2;stroke-linecap:round;stroke-linejoin:round;stroke-dasharray:none;stroke-opacity:1"
         d="m 110.04155,262.88066 c 0,0 1.31427,-0.70484 2.03003,-0.70001 0.61998,0.004 1.75003,0.63001 1.75003,0.63001 z"
         id="path24-5-5"
         sodipodi:nodetypes="cscc" /><path
         style="fill:#fce48c;fill-opacity:1;fill-rule:nonzero;stroke:none;stroke-width:0.2;stroke-linecap:round;stroke-linejoin:round;stroke-dasharray:none;stroke-opacity:1"
         d="m 110.0325,262.89611 c 0,0 1.31427,-0.19735 2.03003,-0.196 0.61998,0.001 1.71295,0.10225 1.71295,0.10225 z"
         id="path24-0-53-9"
         sodipodi:nodetypes="cscc" /><g
         id="g25-3"
         transform="translate(10.486521,64.395178)"><path
           style="fill:#bf8c40;fill-opacity:1;fill-rule:nonzero;stroke:none;stroke-width:0.2;stroke-linecap:round;stroke-linejoin:round;stroke-dasharray:none;stroke-opacity:1"
           d="m 85.204878,216.07086 c 0,0 1.31427,-0.70484 2.030031,-0.70001 0.619978,0.004 1.750028,0.63001 1.750028,0.63001 z"
           id="path24-32-7"
           sodipodi:nodetypes="cscc" /><path
           style="fill:#fce48c;fill-opacity:1;fill-rule:nonzero;stroke:none;stroke-width:0.2;stroke-linecap:round;stroke-linejoin:round;stroke-dasharray:none;stroke-opacity:1"
           d="m 85.195831,216.08631 c 0,0 1.31427,-0.19735 2.030031,-0.196 0.619978,0.001 1.712945,0.10225 1.712945,0.10225 z"
           id="path24-0-9-0"
           sodipodi:nodetypes="cscc" /></g><path
         style="fill:#bf8c40;fill-opacity:1;fill-rule:nonzero;stroke:none;stroke-width:0.2;stroke-linecap:round;stroke-linejoin:round;stroke-dasharray:none;stroke-opacity:1"
         d="m 102.10405,282.98899 c 0,0 1.31427,-0.70484 2.03003,-0.70001 0.61998,0.004 1.75003,0.63001 1.75003,0.63001 z"
         id="path24-4-8"
         sodipodi:nodetypes="cscc" /><path
         style="fill:#fce48c;fill-opacity:1;fill-rule:nonzero;stroke:none;stroke-width:0.2;stroke-linecap:round;stroke-linejoin:round;stroke-dasharray:none;stroke-opacity:1"
         d="m 102.095,283.00444 c 0,0 1.31427,-0.19735 2.03003,-0.196 0.61998,10e-4 1.71295,0.10225 1.71295,0.10225 z"
         id="path24-0-2-9"
         sodipodi:nodetypes="cscc" /><path
         style="fill:#bf8c40;fill-opacity:1;fill-rule:nonzero;stroke:none;stroke-width:0.2;stroke-linecap:round;stroke-linejoin:round;stroke-dasharray:none;stroke-opacity:1"
         d="m 105.27905,288.01607 c 0,0 1.31427,-0.70484 2.03003,-0.70001 0.61998,0.004 1.75003,0.63001 1.75003,0.63001 z"
         id="path24-8-5"
         sodipodi:nodetypes="cscc" /><path
         style="fill:#fce48c;fill-opacity:1;fill-rule:nonzero;stroke:none;stroke-width:0.2;stroke-linecap:round;stroke-linejoin:round;stroke-dasharray:none;stroke-opacity:1"
         d="m 105.27,288.03152 c 0,0 1.31427,-0.19735 2.03003,-0.196 0.61998,0.001 1.71295,0.10225 1.71295,0.10225 z"
         id="path24-0-30-2"
         sodipodi:nodetypes="cscc" /><path
         style="fill:#bf8c40;fill-opacity:1;fill-rule:nonzero;stroke:none;stroke-width:0.2;stroke-linecap:round;stroke-linejoin:round;stroke-dasharray:none;stroke-opacity:1"
         d="m 112.95197,284.04732 c 0,0 1.31427,-0.70484 2.03003,-0.70001 0.61997,0.004 1.75002,0.63001 1.75002,0.63001 z"
         id="path24-82-3"
         sodipodi:nodetypes="cscc" /><path
         style="fill:#fce48c;fill-opacity:1;fill-rule:nonzero;stroke:none;stroke-width:0.2;stroke-linecap:round;stroke-linejoin:round;stroke-dasharray:none;stroke-opacity:1"
         d="m 112.94292,284.06277 c 0,0 1.31427,-0.19735 2.03003,-0.196 0.61998,0.001 1.71294,0.10225 1.71294,0.10225 z"
         id="path24-0-8-3"
         sodipodi:nodetypes="cscc" /><g
         id="g24-41-3"
         transform="translate(16.669544,77.647991)"
         style="opacity:0.8"><path
           style="opacity:1;fill:#976e32;fill-opacity:1;fill-rule:nonzero;stroke:none;stroke-width:0.2;stroke-linecap:round;stroke-linejoin:round;stroke-dasharray:none;stroke-opacity:1"
           d="m 96.811591,214.06351 c 0,0 1.31427,-0.70484 2.030031,-0.70001 0.619978,0.004 1.750028,0.63001 1.750028,0.63001 z"
           id="path24-328-8"
           sodipodi:nodetypes="cscc" /><path
           style="fill:#fce48c;fill-opacity:1;fill-rule:nonzero;stroke:none;stroke-width:0.2;stroke-linecap:round;stroke-linejoin:round;stroke-dasharray:none;stroke-opacity:1"
           d="m 96.802544,214.07896 c 0,0 1.31427,-0.19735 2.030031,-0.196 0.619978,0.001 1.712945,0.10225 1.712945,0.10225 z"
           id="path24-0-0-0"
           sodipodi:nodetypes="cscc" /></g><g
         id="g24-41-5-6"
         transform="translate(6.3507907,77.656731)"
         style="opacity:0.8"><path
           style="opacity:1;fill:#976e32;fill-opacity:1;fill-rule:nonzero;stroke:none;stroke-width:0.2;stroke-linecap:round;stroke-linejoin:round;stroke-dasharray:none;stroke-opacity:1"
           d="m 96.811591,214.06351 c 0,0 1.31427,-0.70484 2.030031,-0.70001 0.619978,0.004 1.750028,0.63001 1.750028,0.63001 z"
           id="path24-328-4-8"
           sodipodi:nodetypes="cscc" /></g><g
         id="g24-41-1-8"
         transform="translate(24.60704,69.983814)"><path
           style="opacity:0.8;fill:#976e32;fill-opacity:1;fill-rule:nonzero;stroke:none;stroke-width:0.2;stroke-linecap:round;stroke-linejoin:round;stroke-dasharray:none;stroke-opacity:1"
           d="m 96.811591,214.06351 c 0,0 1.31427,-0.70484 2.030031,-0.70001 0.619978,0.004 1.750028,0.63001 1.750028,0.63001 z"
           id="path24-328-7-3"
           sodipodi:nodetypes="cscc" /><path
           style="fill:#fce48c;fill-opacity:1;fill-rule:nonzero;stroke:none;stroke-width:0.2;stroke-linecap:round;stroke-linejoin:round;stroke-dasharray:none;stroke-opacity:1"
           d="m 96.802544,214.07896 c 0,0 1.31427,-0.19735 2.030031,-0.196 0.619978,0.001 1.712945,0.10225 1.712945,0.10225 z"
           id="path24-0-0-9-1"
           sodipodi:nodetypes="cscc" /></g><g
         id="g24-41-0-5"
         transform="translate(24.342457,54.637981)"><path
           style="opacity:1;fill:#976e32;fill-opacity:1;fill-rule:nonzero;stroke:none;stroke-width:0.2;stroke-linecap:round;stroke-linejoin:round;stroke-dasharray:none;stroke-opacity:1"
           d="m 96.811591,214.06351 c 0,0 1.31427,-0.70484 2.030031,-0.70001 0.619978,0.004 1.750028,0.63001 1.750028,0.63001 z"
           id="path24-328-5-8"
           sodipodi:nodetypes="cscc" /><path
           style="fill:#fce48c;fill-opacity:1;fill-rule:nonzero;stroke:none;stroke-width:0.2;stroke-linecap:round;stroke-linejoin:round;stroke-dasharray:none;stroke-opacity:1"
           d="m 96.802544,214.07896 c 0,0 1.31427,-0.19735 2.030031,-0.196 0.619978,0.001 1.712945,0.10225 1.712945,0.10225 z"
           id="path24-0-0-7-9"
           sodipodi:nodetypes="cscc" /></g><path
         id="path26-34"
         style="opacity:0.8;fill:#9e6c31;fill-opacity:1;stroke-width:0.2;stroke-linecap:round;stroke-linejoin:round"
         d="m 105.43917,278.95047 a 0.54448116,0.47023374 0 0 1 -0.54448,0.47023 0.54448116,0.47023374 0 0 1 -0.54448,-0.47023 0.54448116,0.47023374 0 0 1 0.54448,-0.47024 0.54448116,0.47023374 0 0 1 0.54448,0.47024 z" /><path
         id="path26-31-7"
         style="opacity:0.8;fill:#9e6c31;fill-opacity:1;stroke-width:0.2;stroke-linecap:round;stroke-linejoin:round"
         d="m 106.55848,279.06302 a 0.24736233,0.21363111 0 0 1 -0.24736,0.21363 0.24736233,0.21363111 0 0 1 -0.24736,-0.21363 0.24736233,0.21363111 0 0 1 0.24736,-0.21364 0.24736233,0.21363111 0 0 1 0.24736,0.21364 z" /><path
         id="path26-31-4-1"
         style="opacity:0.8;fill:#9e6c31;fill-opacity:1;stroke-width:0.2;stroke-linecap:round;stroke-linejoin:round"
         d="m 119.52306,279.85677 a 0.24736233,0.21363111 0 0 1 -0.24736,0.21363 0.24736233,0.21363111 0 0 1 -0.24736,-0.21363 0.24736233,0.21363111 0 0 1 0.24736,-0.21364 0.24736233,0.21363111 0 0 1 0.24736,0.21364 z" /><path
         id="path26-31-9-5"
         style="opacity:0.8;fill:#9e6c31;fill-opacity:1;stroke-width:0.2;stroke-linecap:round;stroke-linejoin:round"
         d="m 117.67098,262.65885 a 0.24736233,0.21363111 0 0 1 -0.24737,0.21363 0.24736233,0.21363111 0 0 1 -0.24736,-0.21363 0.24736233,0.21363111 0 0 1 0.24736,-0.21364 0.24736233,0.21363111 0 0 1 0.24737,0.21364 z" /><path
         id="path26-31-5-3"
         style="opacity:0.8;fill:#9e6c31;fill-opacity:1;stroke-width:0.2;stroke-linecap:round;stroke-linejoin:round"
         d="m 105.76473,264.77552 a 0.24736233,0.21363111 0 0 1 -0.24736,0.21363 0.24736233,0.21363111 0 0 1 -0.24737,-0.21363 0.24736233,0.21363111 0 0 1 0.24737,-0.21364 0.24736233,0.21363111 0 0 1 0.24736,0.21364 z" /><path
         id="path26-31-5-4-7"
         style="opacity:0.8;fill:#9e6c31;fill-opacity:1;stroke-width:0.2;stroke-linecap:round;stroke-linejoin:round"
         d="m 106.55848,262.39427 a 0.24736233,0.21363111 0 0 1 -0.24736,0.21363 0.24736233,0.21363111 0 0 1 -0.24736,-0.21363 0.24736233,0.21363111 0 0 1 0.24736,-0.21364 0.24736233,0.21363111 0 0 1 0.24736,0.21364 z" /><path
         id="path26-31-5-0-2"
         style="opacity:0.8;fill:#9e6c31;fill-opacity:1;stroke-width:0.2;stroke-linecap:round;stroke-linejoin:round"
         d="m 104.97098,257.1026 a 0.24736233,0.21363111 0 0 1 -0.24736,0.21363 0.24736233,0.21363111 0 0 1 -0.24736,-0.21363 0.24736233,0.21363111 0 0 1 0.24736,-0.21364 0.24736233,0.21363111 0 0 1 0.24736,0.21364 z" /><path
         id="path26-31-5-7-4"
         style="opacity:0.8;fill:#9e6c31;fill-opacity:1;stroke-width:0.2;stroke-linecap:round;stroke-linejoin:round"
         d="m 102.06056,286.73593 a 0.24736233,0.21363111 0 0 1 -0.24736,0.21363 0.24736233,0.21363111 0 0 1 -0.24736,-0.21363 0.24736233,0.21363111 0 0 1 0.24736,-0.21364 0.24736233,0.21363111 0 0 1 0.24736,0.21364 z" /><path
         id="path26-31-8-5"
         style="opacity:0.8;fill:#9e6c31;fill-opacity:1;stroke-width:0.2;stroke-linecap:round;stroke-linejoin:round"
         d="m 99.679314,256.83802 a 0.24736233,0.21363111 0 0 1 -0.247363,0.21363 0.24736233,0.21363111 0 0 1 -0.247362,-0.21363 0.24736233,0.21363111 0 0 1 0.247362,-0.21364 0.24736233,0.21363111 0 0 1 0.247363,0.21364 z" /><path
         id="path26-31-2-3"
         style="opacity:0.8;fill:#9e6c31;fill-opacity:1;stroke-width:0.2;stroke-linecap:round;stroke-linejoin:round"
         d="m 96.504314,272.18385 a 0.24736233,0.21363111 0 0 1 -0.247363,0.21363 0.24736233,0.21363111 0 0 1 -0.247362,-0.21363 0.24736233,0.21363111 0 0 1 0.247362,-0.21364 0.24736233,0.21363111 0 0 1 0.247363,0.21364 z" /><path
         id="path26-31-3-2"
         style="opacity:0.8;fill:#9e6c31;fill-opacity:1;stroke-width:0.2;stroke-linecap:round;stroke-linejoin:round"
         d="m 123.49181,286.20677 a 0.24736233,0.21363111 0 0 1 -0.24736,0.21363 0.24736233,0.21363111 0 0 1 -0.24736,-0.21363 0.24736233,0.21363111 0 0 1 0.24736,-0.21364 0.24736233,0.21363111 0 0 1 0.24736,0.21364 z" /><path
         id="path26-31-54-0"
         style="opacity:0.8;fill:#9e6c31;fill-opacity:1;stroke-width:0.2;stroke-linecap:round;stroke-linejoin:round"
         d="m 116.34806,250.22343 a 0.24736233,0.21363111 0 0 1 -0.24736,0.21363 0.24736233,0.21363111 0 0 1 -0.24736,-0.21363 0.24736233,0.21363111 0 0 1 0.24736,-0.21364 0.24736233,0.21363111 0 0 1 0.24736,0.21364 z" /><path
         id="path26-31-0-3"
         style="opacity:0.8;fill:#9e6c31;fill-opacity:1;stroke-width:0.2;stroke-linecap:round;stroke-linejoin:round"
         d="m 121.11056,253.9276 a 0.24736233,0.21363111 0 0 1 -0.24736,0.21363 0.24736233,0.21363111 0 0 1 -0.24736,-0.21363 0.24736233,0.21363111 0 0 1 0.24736,-0.21364 0.24736233,0.21363111 0 0 1 0.24736,0.21364 z" /><path
         id="path26-31-34-1"
         style="opacity:0.8;fill:#9e6c31;fill-opacity:1;stroke-width:0.2;stroke-linecap:round;stroke-linejoin:round"
         d="m 106.02931,248.37135 a 0.24736233,0.21363111 0 0 1 -0.24736,0.21363 0.24736233,0.21363111 0 0 1 -0.24736,-0.21363 0.24736233,0.21363111 0 0 1 0.24736,-0.21364 0.24736233,0.21363111 0 0 1 0.24736,0.21364 z" /><path
         id="path26-7-8"
         style="opacity:0.8;fill:#9e6c31;fill-opacity:1;stroke-width:0.2;stroke-linecap:round;stroke-linejoin:round"
         d="m 118.26521,270.58837 a 0.54448116,0.47023374 0 0 1 -0.54448,0.47023 0.54448116,0.47023374 0 0 1 -0.54448,-0.47023 0.54448116,0.47023374 0 0 1 0.54448,-0.47024 0.54448116,0.47023374 0 0 1 0.54448,0.47024 z" /><path
         id="path26-3-2"
         style="opacity:0.8;fill:#9e6c31;fill-opacity:1;stroke-width:0.2;stroke-linecap:round;stroke-linejoin:round"
         d="m 112.44438,256.03628 a 0.54448116,0.47023374 0 0 1 -0.54448,0.47023 0.54448116,0.47023374 0 0 1 -0.54448,-0.47023 0.54448116,0.47023374 0 0 1 0.54448,-0.47024 0.54448116,0.47023374 0 0 1 0.54448,0.47024 z" /><path
         id="path26-4-7"
         style="opacity:0.8;fill:#9e6c31;fill-opacity:1;stroke-width:0.2;stroke-linecap:round;stroke-linejoin:round"
         d="m 111.12147,293.07795 a 0.54448116,0.47023374 0 0 1 -0.54449,0.47023 0.54448116,0.47023374 0 0 1 -0.54448,-0.47023 0.54448116,0.47023374 0 0 1 0.54448,-0.47024 0.54448116,0.47023374 0 0 1 0.54449,0.47024 z" /><path
         id="path26-5-2"
         style="opacity:0.8;fill:#9e6c31;fill-opacity:1;stroke-width:0.2;stroke-linecap:round;stroke-linejoin:round"
         d="m 112.74829,291.73593 a 0.82872646,0.71571832 0 0 1 -0.82872,0.71571 0.82872646,0.71571832 0 0 1 -0.82873,-0.71571 0.82872646,0.71571832 0 0 1 0.82873,-0.71573 0.82872646,0.71571832 0 0 1 0.82872,0.71573 z" /><path
         id="path26-5-7-2"
         style="opacity:0.8;fill:#9e6c31;fill-opacity:1;stroke-width:0.2;stroke-linecap:round;stroke-linejoin:round"
         d="m 124.91913,275.33177 a 0.82872646,0.71571832 0 0 1 -0.82872,0.71571 0.82872646,0.71571832 0 0 1 -0.82874,-0.71571 0.82872646,0.71571832 0 0 1 0.82874,-0.71573 0.82872646,0.71571832 0 0 1 0.82872,0.71573 z" /><path
         id="path26-5-6-2"
         style="opacity:0.8;fill:#9e6c31;fill-opacity:1;stroke-width:0.2;stroke-linecap:round;stroke-linejoin:round"
         d="m 113.01288,258.39844 a 0.82872646,0.71571832 0 0 1 -0.82872,0.71571 0.82872646,0.71571832 0 0 1 -0.82874,-0.71571 0.82872646,0.71571832 0 0 1 0.82874,-0.71573 0.82872646,0.71571832 0 0 1 0.82872,0.71573 z" /><path
         id="path26-5-8-3"
         style="opacity:0.5;fill:#9e6c31;fill-opacity:1;stroke-width:0.2;stroke-linecap:round;stroke-linejoin:round"
         d="m 99.473467,273.21511 a 0.82872646,0.71571832 0 0 1 -0.82872,0.71571 0.82872646,0.71571832 0 0 1 -0.828736,-0.71571 0.82872646,0.71571832 0 0 1 0.828736,-0.71573 0.82872646,0.71571832 0 0 1 0.82872,0.71573 z" /><path
         id="path26-5-8-9-2"
         style="opacity:0.5;fill:#9e6c31;fill-opacity:1;stroke-width:0.2;stroke-linecap:round;stroke-linejoin:round"
         d="m 109.5733,251.74655 a 0.47917532,0.41383324 0 0 1 -0.47918,0.41383 0.47917532,0.41383324 0 0 1 -0.47918,-0.41383 0.47917532,0.41383324 0 0 1 0.47918,-0.41384 0.47917532,0.41383324 0 0 1 0.47918,0.41384 z" /><path
         id="path26-5-8-9-3-3"
         style="opacity:0.5;fill:#9e6c31;fill-opacity:1;stroke-width:0.2;stroke-linecap:round;stroke-linejoin:round"
         d="m 100.40752,271.5903 a 0.47917532,0.41383324 0 0 1 -0.479168,0.41383 0.47917532,0.41383324 0 0 1 -0.479181,-0.41383 0.47917532,0.41383324 0 0 1 0.479181,-0.41384 0.47917532,0.41383324 0 0 1 0.479168,0.41384 z" /></g></g></svg>
