<?xml version="1.0"?>
<svg xmlns:rdf="http://www.w3.org/1999/02/22-rdf-syntax-ns#" xmlns="http://www.w3.org/2000/svg" xmlns:cc="http://creativecommons.org/ns#" xmlns:dc="http://purl.org/dc/elements/1.1/" xmlns:svg="http://www.w3.org/2000/svg" id="svg2" viewBox="0 0 120 120" version="1.0">
  <g id="layer3" transform="translate(-111.76 -80.707)">
    <g id="g3179" transform="matrix(.49860 0 0 .49860 -9.5104 5.3711)">
      <path id="path3243" stroke="#000" stroke-width=".58358" d="m359.09 235.21c0.1 0.85 0.13 1.71 0.2 2.57 0.11 1.11 0.2 2.22 0.34 3.32 0.13 1.13 0.36 2.24 0.57 3.35 0.22 1.17 0.42 2.34 0.65 3.5 0.25 1.27 0.49 2.54 0.7 3.82 0.2 1.38 0.41 2.76 0.65 4.13 0.24 1.39 0.47 2.79 0.72 4.18 0.24 1.43 0.48 2.86 0.69 4.29 0.28 1.47 0.48 2.94 0.63 4.43 0.13 1.47 0.3 2.93 0.39 4.41 0.03 1.1 0.08 2.19 0.19 3.29 0.09 0.66 0.12 1.32 0.23 1.98 0.11 0.55 0.23 1.11 0.34 1.67 0.11 0.66 0.14 1.34 0.17 2.02 0.04 0.76 0.06 1.52 0.08 2.28 0.05 0.84-0.01 1.67-0.08 2.51-0.05 0.88-0.23 1.73-0.52 2.54-0.38 0.98-0.97 1.81-1.53 2.64-0.63 0.9-1.3 1.74-1.95 2.61-0.63 0.9-1.23 1.84-1.67 2.9-0.39 0.94-0.36 1.92-0.17 2.92 0.24 1.18 0.88 2.06 1.63 2.84 1.02 0.92 2.24 1.37 3.5 1.53 1.42 0.08 2.76-0.41 4.06-1 1.3-0.7 1.55-1.01 2.69-2.45 0.99-1.34 1.61-2.91 1.94-4.62 0.19-1.04 0.05-2.06-0.14-3.08l0.88-0.57c0.18 1.03 0.33 2.06 0.14 3.11-0.33 1.72-0.94 3.3-1.93 4.64-1.23 1.56-2.73 2.77-4.4 3.62-1.31 0.59-2.65 1.07-4.07 0.98-1.27-0.17-2.49-0.63-3.52-1.55-0.76-0.79-1.41-1.69-1.65-2.87-0.19-1.01-0.24-2 0.15-2.97 0.44-1.06 1.03-2 1.67-2.91 0.64-0.87 1.32-1.71 1.94-2.61 0.57-0.82 1.16-1.65 1.54-2.62 0.29-0.8 0.47-1.64 0.52-2.52 0.08-0.84 0.14-1.67 0.09-2.51-0.02-0.76-0.04-1.52-0.08-2.28-0.03-0.67-0.07-1.34-0.17-2.01-0.11-0.56-0.23-1.11-0.34-1.67-0.12-0.65-0.14-1.32-0.23-1.98-0.11-1.1-0.15-2.2-0.19-3.3-0.08-1.48-0.25-2.94-0.38-4.41-0.15-1.48-0.35-2.96-0.62-4.42-0.22-1.43-0.46-2.87-0.7-4.29-0.25-1.4-0.48-2.79-0.72-4.19-0.24-1.37-0.45-2.74-0.65-4.12-0.21-1.28-0.45-2.55-0.7-3.81-0.23-1.17-0.43-2.34-0.65-3.51-0.21-1.11-0.44-2.22-0.57-3.35-0.14-1.11-0.23-2.21-0.34-3.32-0.08-0.86-0.11-1.72-0.21-2.57l0.88-0.57z"/>
      <path id="path3245" stroke="#000" stroke-width=".58358" d="m361.36 246.55c0.9-0.75 1.89-1.25 2.93-1.63 1.15-0.41 2.33-0.63 3.52-0.7 1.39-0.06 2.75 0.15 4.08 0.54 1.41 0.38 2.63 1.17 3.76 2.19 1.19 1.12 2.2 2.48 3.08 3.93 0.83 1.43 1.42 3 1.92 4.61 0.42 1.45 0.54 2.96 0.56 4.48 0.07 1.4-0.13 2.75-0.62 4.03-0.59 1.26-1.44 2.26-2.44 3.08-1.38 1.15-2.89 1.74-4.53 2.11-1.25 0.3-2.54 0.38-3.81 0.37-1.07-0.06-2.12-0.24-3.18-0.43-0.58-0.1-1.16-0.23-1.74-0.36l0.85-0.64c0.58 0.13 1.15 0.27 1.74 0.37 1.05 0.19 2.1 0.37 3.16 0.42 1.28 0.01 2.56-0.08 3.81-0.37 0.66-0.15 1.32-0.3 1.95-0.57 0.2-0.08 0.4-0.19 0.6-0.28 0.19-0.11 0.37-0.25 0.57-0.33 0.12-0.05-0.21 0.15-0.31 0.22 0.99-0.81 1.85-1.8 2.44-3.06 0.51-1.27 0.7-2.6 0.64-4.01-0.02-1.51-0.13-3.01-0.55-4.45-0.5-1.61-1.09-3.18-1.91-4.6-0.88-1.45-1.89-2.8-3.07-3.92-1.14-1.01-2.36-1.79-3.75-2.17-1.34-0.38-2.7-0.59-4.08-0.53-1.19 0.08-2.37 0.31-3.52 0.73-0.23 0.08-0.67 0.24-0.9 0.34-0.13 0.06-0.48 0.3-0.38 0.19 0.77-0.94 0.6-0.27 0.09-0.08l-0.91 0.52z"/>
      <path id="path3247" stroke="#000" stroke-width=".58358" d="m356.15 234.64c-0.8 0.13-1.6 0.11-2.41 0.09-1.21-0.01-2.43-0.08-3.64-0.2-1.23-0.17-2.47-0.28-3.71-0.32-1.19-0.12-2.26 0.25-3.32 0.85-0.17 0.11-0.36 0.17-0.5 0.33-0.09 0.12 0.43-0.33 0.38-0.18-0.09 0.23-0.33 0.31-0.49 0.49-0.17 0.19-0.32 0.4-0.48 0.61-0.43 0.6-0.54 0.84-0.92 1.5-0.98 1.81-1.44 3.88-1.84 5.95-0.46 2.38-0.59 4.8-0.54 7.23 0.05 2.37 0.51 4.66 1.18 6.88 0.68 2.12 1.69 4.04 2.88 5.81 1.14 1.64 2.54 2.97 3.99 4.2 1.39 1.21 3 1.98 4.58 2.76 1.67 0.82 3.47 1.2 5.25 1.49 1.68 0.23 3.35 0.14 5.02-0.09 1.17-0.13 2.29-0.49 3.37-0.98 0.23-0.15 1.57-0.79 0.2-0.03-0.35 0.19 0.44-0.35 0.69-0.66 0.03-0.07 0.06-0.14 0.09-0.22l0.89-0.54c-0.03 0.08-0.05 0.16-0.08 0.24-0.69 0.89-1.69 1.39-2.61 1.87-1.09 0.48-2.21 0.84-3.37 0.96-1.67 0.22-3.35 0.31-5.03 0.07-1.79-0.29-3.58-0.67-5.25-1.5-1.59-0.78-3.2-1.56-4.6-2.77-1.45-1.23-2.85-2.57-3.98-4.21-1.2-1.78-2.21-3.71-2.89-5.83-0.68-2.23-1.14-4.53-1.19-6.9-0.05-2.43 0.07-4.86 0.54-7.24 0.39-2.07 0.85-4.15 1.82-5.96 0.97-1.74 2.05-3.07 3.71-3.94 1.06-0.59 2.15-0.95 3.34-0.82 1.24 0.03 2.47 0.15 3.71 0.31 1.21 0.13 2.42 0.2 3.64 0.21 0.81 0.01 1.62 0.02 2.42-0.11l-0.85 0.65z"/>
      <path id="path3249" stroke="#000" stroke-width=".58358" d="m353.88 264c-0.33 0.35-1.07 0.22 0.14-0.11 0.12-0.03-0.17 0.18-0.26 0.28-0.24 0.29-0.25 0.35-0.45 0.69-0.41 0.81-0.44 1.59-0.04 2.4 0.65 0.88 1.58 1.27 2.53 1.48 1.11 0.15 2.19-0.07 3.19-0.64-0.15 0.08-0.36 0.41-0.45 0.24-0.09-0.16 0.25-0.25 0.37-0.4 0.41-0.53 0.63-1.11 0.7-1.82-0.1-0.97-0.74-1.47-1.45-1.82-0.83-0.39-1.69-0.44-2.55-0.18 0.21-0.19-0.92 0.52-0.69 0.39 0.18-0.11 0.34-0.29 0.55-0.34 0.21-0.06-0.39 0.38-0.76 0.79-0.05 0.08-0.1 0.16-0.16 0.23l-0.9 0.53c0.06-0.08 0.11-0.15 0.16-0.23 0.75-0.88 1.63-1.59 2.63-2.02 0.87-0.24 1.74-0.19 2.57 0.21 0.73 0.37 1.37 0.89 1.48 1.89-0.12 1.62-1.17 2.47-2.32 3.19-1.01 0.56-2.1 0.77-3.21 0.61-0.96-0.22-1.91-0.62-2.56-1.52-0.41-0.83-0.39-1.62 0.02-2.46 0.54-0.98 1.35-1.64 2.3-2.04l-0.84 0.65z"/>
      <path id="path3251" stroke="#000" stroke-width=".58358" d="m371.57 262.48c-0.75 0.49-0.76 0.02-0.02-0.07 0.16-0.02-0.24 0.21-0.36 0.32-0.32 0.32-0.4 0.46-0.68 0.83-0.65 0.99-0.56 1.97 0.05 2.93 0.74 0.97 1.72 1.27 2.79 1.25 0.17-0.03 1.49-0.28 1.47-0.62 0-0.19-0.37 0.37-0.45 0.21-0.09-0.17 0.24-0.29 0.34-0.44 0.1-0.16 0.18-0.33 0.26-0.49 0.47-1 0.39-1.89-0.16-2.79-0.61-0.82-1.34-0.77-2.15-0.48-0.11 0.05-0.22 0.1-0.33 0.16l0.83-0.67c0.11-0.04 0.22-0.09 0.33-0.14 0.83-0.29 1.57-0.3 2.19 0.54 0.55 0.92 0.65 1.83 0.18 2.85-0.72 1.36-2 2.29-3.35 2.51-1.08 0-2.07-0.32-2.82-1.29-0.61-0.98-0.73-1.99-0.08-3.01 0.76-1.02 1.7-1.83 2.8-2.27l-0.84 0.67z"/>
      <path id="path3253" stroke="#000" stroke-width=".58358" d="m342.75 277.42c0.21 1.15 0.39 2.32 0.57 3.48 0.3 1.9 0.64 3.8 0.98 5.69 0.35 1.97 0.67 3.95 0.97 5.94 0.3 1.86 0.55 3.73 0.8 5.6 0.27 1.95 0.67 3.88 1.07 5.8 0.38 1.83 0.73 3.67 1.12 5.5 0.42 1.95 0.96 3.87 1.57 5.75 0.58 1.85 1.27 3.65 2.03 5.41 0.75 1.69 1.63 3.3 2.59 4.84 0.85 1.43 1.79 2.76 2.73 4.1 0.8 1.27 1.66 2.48 2.53 3.69 0.72 1.01 1.48 1.98 2.27 2.91 0.49 0.53 0.95 1.08 1.46 1.58 0.04 0.01 0.08 0.03 0.12 0.05l-1.29 0.94c-0.04-0.03-0.09-0.05-0.13-0.08-0.5-0.5-0.97-1.05-1.44-1.59-0.8-0.93-1.56-1.91-2.28-2.92-0.86-1.21-1.72-2.43-2.53-3.69-0.93-1.34-1.87-2.68-2.72-4.11-0.96-1.55-1.84-3.16-2.59-4.86-0.76-1.76-1.46-3.56-2.04-5.42-0.61-1.88-1.15-3.79-1.57-5.75-0.4-1.83-0.74-3.67-1.12-5.5-0.4-1.93-0.8-3.85-1.08-5.8-0.25-1.87-0.5-3.75-0.8-5.61-0.29-1.98-0.61-3.96-0.96-5.94-0.35-1.89-0.68-3.78-0.99-5.68-0.18-1.16-0.36-2.32-0.59-3.47l1.32-0.86z"/>
      <path id="path3255" stroke="#000" stroke-width=".58358" d="m372.33 334.32c0.65-0.62 1.26-1.28 1.88-1.94 0.86-0.98 1.77-1.91 2.65-2.88 0.91-0.98 1.72-2.08 2.45-3.25 0.78-1.26 1.44-2.61 2.06-3.99 0.65-1.47 1.19-2.99 1.71-4.52 0.58-1.78 1.03-3.61 1.46-5.44 0.46-2.02 0.83-4.08 1.14-6.14 0.32-1.96 0.57-3.93 0.85-5.9 0.23-1.75 0.48-3.51 0.76-5.26 0.28-1.64 0.56-3.29 0.88-4.92 0.29-1.43 0.51-2.88 0.69-4.33 0.13-1.1 0.27-2.19 0.31-3.3 0-0.67 0.06-1.37-0.23-1.97l1.31-0.88c0.29 0.62 0.24 1.32 0.24 2.01-0.04 1.11-0.18 2.21-0.31 3.32-0.18 1.45-0.41 2.9-0.7 4.33-0.32 1.63-0.6 3.28-0.88 4.92-0.28 1.75-0.53 3.51-0.76 5.27-0.28 1.96-0.53 3.93-0.85 5.89-0.32 2.07-0.69 4.12-1.14 6.15-0.43 1.83-0.87 3.66-1.45 5.44-0.52 1.54-1.06 3.06-1.71 4.53-0.61 1.38-1.27 2.74-2.05 4.01-0.72 1.17-1.53 2.27-2.44 3.26-0.88 0.97-1.79 1.89-2.65 2.88-0.61 0.65-1.22 1.31-1.86 1.93l-1.36 0.78z"/>
      <path id="path3263" stroke="#000" stroke-width=".58358" d="m338.05 258.33c-1.37-0.08-2.73-0.19-4.1-0.28-2.01-0.14-4.03-0.19-6.05-0.3-2.06-0.14-4.12-0.24-6.18-0.32-1.97-0.11-3.94-0.24-5.91-0.33-1.93-0.09-3.86-0.24-5.79-0.34-1.99-0.1-3.99-0.16-5.98-0.21-1.92-0.02-3.83 0.14-5.75 0.27-1.27 0.15-2.55 0.27-3.82 0.48-0.71-0.07-3.38 1.64-0.97 0.11-0.68 0.76-0.84 1.8-0.93 2.84-0.09 1.44 0.2 2.84 0.53 4.21 0.38 1.61 0.79 3.21 1.27 4.78 0.61 1.88 1.63 3.5 2.68 5.06 1.16 1.73 2.51 3.26 3.92 4.69 1.39 1.45 2.91 2.69 4.47 3.86 1.42 1.04 2.96 1.81 4.51 2.52 1.39 0.67 2.84 1.13 4.29 1.58 1.38 0.43 2.79 0.68 4.21 0.88 1.51 0.23 3.05 0.21 4.57 0.13 1.49-0.12 2.96-0.36 4.43-0.64 1.35-0.27 2.69-0.68 4-1.17 1.3-0.48 2.54-1.17 3.78-1.82 1.2-0.63 2.36-1.35 3.56-1.97 0.91-0.43 1.83-0.82 2.76-1.2 0.33-0.15 0.65-0.31 0.97-0.48l-1.25 0.99c-0.32 0.17-0.64 0.33-0.97 0.48-0.92 0.38-1.84 0.76-2.74 1.19-1.2 0.63-2.36 1.35-3.56 1.97-1.24 0.65-2.48 1.33-3.79 1.82-1.31 0.48-2.64 0.89-4 1.16-1.47 0.28-2.94 0.51-4.43 0.62-1.53 0.08-3.06 0.09-4.58-0.14-1.42-0.2-2.83-0.45-4.21-0.89-1.45-0.45-2.9-0.91-4.29-1.59-1.56-0.71-3.1-1.49-4.52-2.54-1.56-1.17-3.08-2.42-4.47-3.87-1.42-1.44-2.77-2.97-3.93-4.7-1.06-1.57-2.08-3.19-2.7-5.08-0.48-1.57-0.89-3.17-1.27-4.78-0.34-1.38-0.64-2.79-0.56-4.24 0.09-1.05 0.24-2.1 0.89-2.9 1.18-0.83 2.2-1.66 3.58-1.85 1.27-0.2 2.54-0.32 3.81-0.46 1.91-0.13 3.82-0.28 5.74-0.26 2 0.05 3.99 0.11 5.99 0.21 1.93 0.11 3.86 0.25 5.79 0.34 1.97 0.09 3.93 0.23 5.9 0.34 2.06 0.08 4.12 0.18 6.18 0.31 2.02 0.11 4.04 0.16 6.06 0.3 1.38 0.09 2.75 0.2 4.13 0.25l-1.27 0.97z"/>
      <path id="path3265" stroke="#000" stroke-width=".58358" d="m393.41 250.75c0.9-0.21 1.79-0.42 2.69-0.58 1.72-0.28 3.44-0.39 5.17-0.5 1.91-0.09 3.82-0.24 5.73-0.35 2-0.12 4.01-0.19 6.01-0.25 2.03-0.05 4.07-0.08 6.11-0.11 2.02-0.02 4.04-0.03 6.06-0.04 1.89-0.01 3.77-0.02 5.66-0.02 1.74-0.01 3.47-0.01 5.21-0.01 1.35-0.01 2.71-0.01 4.06-0.01 0.86 0.01 1.73-0.04 2.59 0.02 0.76-0.01 1.09 0.49 1.28 1.3 0.16 1.25-0.13 2.47-0.44 3.66-0.41 1.49-1.01 2.9-1.65 4.27-0.67 1.41-1.38 2.79-2.13 4.14-0.68 1.25-1.45 2.42-2.25 3.57-0.78 1.12-1.5 2.29-2.21 3.46-0.72 1.22-1.41 2.47-2.11 3.7-0.74 1.28-1.54 2.51-2.48 3.6-1.46 1.55-3.2 2.68-4.93 3.75-1.44 0.89-3 1.43-4.57 1.9-1.66 0.5-3.35 0.79-5.05 1.02-1.66 0.26-3.32 0.33-4.98 0.24-1.72-0.14-3.41-0.54-5.1-0.91-1.74-0.43-3.49-0.75-5.26-1.01-1.6-0.21-3.2-0.24-4.8-0.07-1.1 0.15-2.2 0.26-3.29 0.49-0.49 0.08-0.25 0.04-0.72 0.11l1.25-0.97c0.47-0.07 0.23-0.03 0.73-0.12 1.08-0.21 2.18-0.32 3.27-0.47 1.6-0.15 3.21-0.13 4.8 0.09 1.77 0.26 3.53 0.59 5.27 1.02 1.69 0.37 3.37 0.76 5.09 0.89 1.66 0.09 3.32 0.01 4.97-0.24 1.7-0.24 3.39-0.53 5.05-1.03 1.57-0.48 3.12-1.03 4.56-1.92 0.23-0.14 0.43-0.47 0.69-0.43 0.24 0.04-0.43 0.58-0.64 0.44s0.41-0.3 0.61-0.46c0.6-0.47 1.18-0.98 1.71-1.55 0.95-1.08 1.75-2.3 2.49-3.58 0.7-1.23 1.39-2.48 2.1-3.7 0.72-1.18 1.44-2.35 2.22-3.47 0.8-1.15 1.57-2.32 2.25-3.56 0.76-1.35 1.47-2.72 2.13-4.13 0.64-1.37 1.25-2.77 1.65-4.26 0.32-1.17 0.61-2.37 0.46-3.61-0.18-0.79-0.51-1.21-1.24-1.2-0.86-0.05-1.71-0.01-2.57-0.03h-4.05c-1.74 0-3.47 0.01-5.21 0.01-1.88 0-3.77 0.01-5.65 0.02-2.02 0.01-4.04 0.02-6.07 0.05-2.03 0.02-4.07 0.05-6.1 0.11-2.01 0.05-4.01 0.12-6.01 0.24-1.91 0.12-3.82 0.26-5.73 0.35-1.73 0.11-3.46 0.23-5.18 0.52-0.91 0.17-1.81 0.38-2.71 0.61l1.26-0.99z"/>
      <path id="path3267" stroke="#000" stroke-width=".58358" d="m414.65 258.22c0.39 1.1 0.64 2.25 0.9 3.4 0.36 1.57 0.52 3.18 0.59 4.81 0.04 1.21 0.03 2.44-0.1 3.65-0.02 0.11-0.05 0.22-0.07 0.33l-1.33 0.82c0.02-0.1 0.05-0.21 0.08-0.31 0.14-1.21 0.14-2.44 0.11-3.66-0.06-1.61-0.22-3.22-0.58-4.79-0.26-1.14-0.51-2.28-0.92-3.36l1.32-0.89z"/>
      <path id="path3269" stroke="#000" stroke-width=".58358" d="m413.17 266.09c0.69 0.02 1.37-0.07 2.05-0.16l-1.26 0.97c-0.68 0.09-1.37 0.16-2.05 0.17l1.26-0.98z"/>
      <path id="path3271" stroke="#000" stroke-width=".58358" d="m322.26 268.11c-0.71 0.8-0.86 1.88-0.85 2.98 0.17 1.56 0.73 2.96 1.5 4.21 0.5 0.77 1.16 1.34 1.8 1.93l-1.29 0.91c-0.64-0.6-1.3-1.18-1.79-1.95-0.78-1.27-1.35-2.69-1.52-4.26-0.03-1.11 0.1-2.2 0.79-3.04l1.36-0.78z"/>
      <path id="path3273" stroke="#000" stroke-width=".58358" d="m322.24 272.53c0.91-0.2 1.84-0.25 2.77-0.3 0.57-0.07 0.29-0.04 0.82-0.08l-1.26 0.97c-0.52 0.03-0.25 0.01-0.81 0.07-0.93 0.06-1.87 0.11-2.79 0.31l1.27-0.97z"/>
      <path id="path3275" stroke="#000" stroke-width=".58358" d="m354.95 312.97c0.73-0.63 1.51-1.17 2.33-1.64 0.89-0.5 1.84-0.77 2.82-0.83 0.92-0.05 1.78 0.27 2.64 0.59 0.55 0.22 1.11 0.43 1.67 0.65 0.31 0.14 0.59 0.26 0.93 0.22 0.49-0.16 0.96-0.38 1.45-0.54 0.63-0.22 1.27-0.21 1.91-0.1 0.72 0.11 1.4 0.4 2.08 0.68 0.71 0.29 1.44 0.49 2.18 0.59 0.48 0.06 0.96 0.09 1.44 0.12 0.3 0 0.51 0.04 0.32 0.42-0.4 0.59-0.94 1-1.48 1.4-0.83 0.61-1.7 1.12-2.62 1.54-0.8 0.35-1.63 0.59-2.47 0.79-0.79 0.18-1.59 0.28-2.39 0.29-0.82 0.04-1.65-0.06-2.46-0.14-0.78-0.09-1.56-0.21-2.34-0.35-0.81-0.16-1.62-0.29-2.43-0.45-0.76-0.11-1.49-0.36-2.18-0.76-0.52-0.28-0.89-0.74-1.16-1.32-0.12-0.28-0.09-0.58-0.07-0.88l0.44-0.28c-0.02 0.3-0.05 0.59 0.07 0.86 0.27 0.58 0.63 1.03 1.15 1.31 0.68 0.39 1.42 0.64 2.18 0.76 0.8 0.16 1.62 0.29 2.42 0.44 0.78 0.14 1.56 0.26 2.34 0.35 0.82 0.08 1.64 0.18 2.46 0.14 0.8-0.02 1.6-0.11 2.39-0.3 0.83-0.2 1.67-0.43 2.47-0.79 0.64-0.3 1.23-0.65 1.83-1.02 0.03-0.02-0.05 0.04-0.08 0.06 0.53-0.39 1.08-0.8 1.48-1.38 0.2-0.37-0.01-0.36-0.29-0.37-0.48-0.03-0.96-0.06-1.44-0.12-0.75-0.1-1.47-0.3-2.18-0.59-0.68-0.28-1.36-0.58-2.08-0.68-0.64-0.11-1.28-0.11-1.91 0.11-0.49 0.16-0.96 0.39-1.45 0.53-0.34 0.03-0.63-0.08-0.94-0.22-0.56-0.22-1.11-0.44-1.67-0.65-0.85-0.33-1.71-0.64-2.63-0.59-0.98 0.07-1.93 0.34-2.82 0.84-0.47 0.28-0.95 0.59-1.46 1.05l-0.45 0.26z"/>
      <path id="path3277" stroke="#000" stroke-width=".58358" d="m357.62 316.92c0.14 0.69 0.52 1.23 0.9 1.77 0.5 0.66 1.17 1.11 1.83 1.51 0.71 0.37 1.44 0.68 2.18 0.94 0.71 0.29 1.44 0.35 2.18 0.28 0.74-0.09 1.43-0.36 2.1-0.72 0.81-0.45 0.72-0.38 1.29-0.87 0.53-0.49 0.98-1.07 1.42-1.67 0.38-0.62 0.81-1.18 1.25-1.74 0.36-0.43 0.67-0.92 0.96-1.43l0.45-0.27c-0.29 0.51-0.6 1-0.96 1.44-0.44 0.56-0.87 1.12-1.25 1.74-0.43 0.6-0.89 1.18-1.41 1.68-0.68 0.57-1.41 1.06-2.17 1.45-0.67 0.36-1.36 0.63-2.1 0.71-0.74 0.06-1.47 0.01-2.18-0.28-0.74-0.27-1.47-0.58-2.18-0.95-0.67-0.4-1.34-0.86-1.85-1.52-0.37-0.54-0.76-1.08-0.9-1.78l0.44-0.29z"/>
      <path id="path3287" stroke="#000" stroke-width=".58358" d="m406.88 281.7c0.02 1.33-0.08 2.66-0.18 3.98-0.17 1.9-0.23 3.8-0.18 5.71 0.05 1.77 0.12 3.53 0.29 5.29 0.19 1.5 0.43 2.99 0.73 4.47 0.26 1.28 0.56 2.55 0.94 3.79 0.25 0.59 0.42 1.76 1.08 1.87 0.07-0.04 0.21-0.03 0.21-0.12 0-0.08-0.22 0.16-0.21 0.08 0.01-0.14 0.16-0.21 0.23-0.33 0.08-0.14 0.14-0.29 0.21-0.44 0.2-0.5 0.25-0.72 0.41-1.26 0.47-1.8 0.67-3.68 0.9-5.54 0.3-2.16 0.35-4.35 0.39-6.54-0.01-1.94-0.05-3.88-0.14-5.81-0.07-1.64-0.24-3.28-0.4-4.91-0.14-1.07-0.27-2.14-0.52-3.18l0.44-0.29c0.25 1.04 0.38 2.12 0.51 3.19 0.16 1.63 0.33 3.27 0.4 4.91 0.1 1.94 0.13 3.88 0.15 5.82-0.05 2.18-0.09 4.37-0.4 6.54-0.23 1.86-0.42 3.74-0.89 5.54-0.33 1.14-0.64 2.24-1.71 2.66-0.68-0.15-0.84-1.29-1.1-1.9-0.38-1.24-0.68-2.52-0.93-3.8-0.3-1.47-0.54-2.97-0.73-4.47-0.17-1.76-0.25-3.52-0.29-5.29-0.05-1.91 0-3.82 0.18-5.72 0.09-1.32 0.19-2.64 0.17-3.96l0.44-0.29z"/>
      <path id="path3289" stroke="#000" stroke-width=".58358" d="m406.22 282.34c-0.12 1.25-0.15 2.5-0.19 3.75-0.05 1.95-0.07 3.89-0.1 5.84 0.03 1.81 0.07 3.62 0.16 5.42 0.1 1.6 0.19 3.2 0.33 4.8 0.07 1.41 0.3 2.79 0.56 4.16 0.19 1.05 0.56 2.02 0.95 2.98 0.28 0.68 0.69 1.21 1.28 1.52 0.53 0.21 1.07 0.17 1.6-0.03 0.11 0 0.57-0.69 0.94-1.39 0.55-0.96 0.93-2.02 1.28-3.09 0.4-1.35 0.63-2.76 0.81-4.17 0.23-1.56 0.41-3.13 0.54-4.71 0.13-1.68 0.2-3.37 0.27-5.06 0.05-1.66 0.08-3.31 0.11-4.97 0.02-1.38 0.08-2.76-0.02-4.14-0.08-1.16-0.27-2.3-0.57-3.4-0.2-0.71-0.54-1.22-1.09-1.55l0.42-0.31c0.56 0.34 0.91 0.86 1.11 1.57 0.3 1.11 0.49 2.24 0.56 3.41 0.11 1.38 0.04 2.76 0.03 4.14-0.03 1.66-0.06 3.32-0.12 4.97-0.06 1.69-0.13 3.38-0.27 5.06-0.13 1.58-0.3 3.16-0.53 4.72-0.18 1.41-0.41 2.82-0.81 4.17-0.34 1.07-0.72 2.14-1.27 3.09-0.46 0.88-0.97 1.57-1.81 1.99-0.53 0.19-1.07 0.23-1.61 0.01-0.59-0.31-1-0.85-1.28-1.54-0.4-0.96-0.77-1.93-0.96-2.99-0.26-1.37-0.48-2.75-0.55-4.16-0.14-1.6-0.23-3.2-0.33-4.8-0.1-1.8-0.13-3.61-0.16-5.42 0.02-1.95 0.05-3.9 0.1-5.84 0.03-1.25 0.06-2.5 0.18-3.75l0.44-0.28z"/>
      <path id="path3291" stroke="#000" stroke-width=".58358" d="m320.25 288.29c-0.03 1.44 0.02 2.88 0.1 4.31 0.13 2.05 0.33 4.09 0.55 6.13 0.18 1.86 0.42 3.71 0.79 5.54 0.35 1.49 0.76 2.99 1.39 4.35 0.54 1.09 1.26 1.96 2.24 2.49 0.94 0.31 1.34-0.21 1.9-0.98 0.81-1.34 1.13-2.93 1.37-4.51 0.27-1.98 0.27-4 0.31-6-0.01-2.03-0.08-4.06-0.13-6.08-0.02-1.82-0.17-3.64-0.39-5.44-0.17-1.29-0.3-2.59-0.61-3.84-0.15-0.57-0.07-0.29-0.25-0.81l0.43-0.3c0.19 0.53 0.1 0.25 0.26 0.82 0.3 1.26 0.44 2.55 0.61 3.84 0.21 1.81 0.37 3.63 0.38 5.45 0.05 2.03 0.12 4.05 0.13 6.08-0.03 2-0.04 4.02-0.3 6.01-0.24 1.58-0.56 3.18-1.36 4.52-0.68 0.94-1.66 1.92-2.78 1.55-0.97-0.54-1.7-1.41-2.24-2.5-0.64-1.37-1.04-2.87-1.39-4.37-0.37-1.82-0.61-3.68-0.79-5.54-0.22-2.04-0.42-4.08-0.55-6.13-0.08-1.43-0.13-2.87-0.11-4.31l0.44-0.28z"/>
      <path id="path3293" stroke="#000" stroke-width=".58358" d="m318.47 288c0.01 1.21 0.09 2.43 0.22 3.63 0.26 1.9 0.55 3.79 0.86 5.68 0.33 1.86 0.7 3.7 1.1 5.54 0.4 1.77 0.96 3.49 1.49 5.22 0.46 1.57 1.02 3.09 1.65 4.58 0.49 1.19 1.13 2.27 1.86 3.26 0.52 0.64 1.08 1.13 1.82 1.28 0.35 0.05 0.76 0.06 1.05-0.22 0.05-0.06-0.21 0.16-0.18 0.09 0.04-0.12 0.16-0.18 0.24-0.27 0.61-0.8 0.91-1.83 1.21-2.84 0.37-1.36 0.58-2.77 0.75-4.19 0.22-1.63 0.22-3.27 0.23-4.92 0.01-1.68 0-3.36 0-5.04-0.01-1.52 0.08-3.04 0.15-4.56 0.05-1.25 0.15-2.51 0.3-3.76 0.16-1.13 0.27-2.26 0.37-3.4 0.08-1.03 0.13-2.06 0.18-3.1 0.02-0.74 0.01-1.44-0.35-2.07-0.39-0.6-0.93-0.82-1.54-0.97-0.08 0-0.16 0-0.24 0.01l0.42-0.33h0.25c0.6 0.16 1.15 0.39 1.54 0.99 0.37 0.64 0.38 1.34 0.36 2.09-0.05 1.04-0.1 2.07-0.18 3.11-0.1 1.13-0.21 2.27-0.37 3.4-0.15 1.24-0.25 2.5-0.3 3.76-0.07 1.51-0.17 3.03-0.15 4.55 0 1.68 0 3.36-0.01 5.04-0.01 1.65-0.01 3.3-0.22 4.93-0.17 1.41-0.38 2.83-0.75 4.19-0.3 1.01-0.6 2.04-1.2 2.85-0.55 0.63-1.21 1.12-1.99 0.98-0.74-0.17-1.3-0.66-1.82-1.3-0.73-1-1.37-2.08-1.86-3.27-0.63-1.49-1.19-3.02-1.65-4.58-0.53-1.73-1.09-3.45-1.49-5.23-0.41-1.84-0.77-3.68-1.1-5.54-0.31-1.89-0.6-3.78-0.87-5.68-0.12-1.2-0.21-2.42-0.23-3.63l0.45-0.28z"/>
      <path id="path3295" stroke="#000" stroke-width=".58358" d="m360.02 336.59c-0.66 0.01-1.3-0.23-1.93-0.45-0.89-0.3-1.77-0.66-2.67-0.98-0.96-0.33-1.94-0.64-2.92-0.92-0.98-0.25-1.96-0.46-2.95-0.6-0.97-0.13-1.95-0.08-2.92 0.03-0.94 0.08-1.86 0.31-2.78 0.49-0.95 0.19-1.91 0.32-2.87 0.42-0.91 0.13-1.81 0.26-2.71 0.37-0.69 0.06-1.36 0.19-2.04 0.32-0.36 0.11-0.75 0.11-1.09 0.27-0.49 0.26-0.7 0.38 1.11-0.75 0.03-0.03-0.07 0.06-0.09 0.1-0.13 0.22-0.16 0.52-0.2 0.78-0.11 0.84 0.01 1.67 0.19 2.48 0.15 0.88 0.52 1.65 0.92 2.4 0.33 0.65 0.77 1.18 1.22 1.71 0.27 0.35 0.58 0.65 0.92 0.9l-1.29 0.93c-0.35-0.26-0.65-0.57-0.93-0.92-0.45-0.53-0.89-1.08-1.22-1.73-0.4-0.76-0.78-1.54-0.93-2.43-0.18-0.82-0.31-1.66-0.22-2.51 0.19-1.18 0.53-1.49 1.78-1.96 0.35-0.12 0.73-0.15 1.09-0.24 0.67-0.14 1.35-0.26 2.04-0.32 0.9-0.11 1.8-0.24 2.7-0.37 0.96-0.1 1.92-0.23 2.87-0.42 0.92-0.19 1.85-0.41 2.79-0.49 0.97-0.1 1.95-0.15 2.92-0.01 1 0.15 1.98 0.36 2.96 0.61 0.98 0.28 1.95 0.59 2.92 0.93 0.89 0.31 1.77 0.68 2.67 0.97 0.63 0.21 1.27 0.45 1.94 0.42l-1.28 0.97z"/>
      <path id="path3297" stroke="#000" stroke-width=".58358" d="m344.99 343.74c-0.68-0.2-1.36-0.36-2.05-0.49-1.02-0.21-2.05-0.19-3.09-0.18-0.91 0.02-1.81 0.15-2.7 0.31-0.47 0.09-0.24 0.04-0.68 0.13l1.26-0.98c0.43-0.08 0.21-0.04 0.67-0.12 0.9-0.16 1.8-0.28 2.71-0.3 1.03-0.01 2.07-0.02 3.09 0.19 0.7 0.13 1.39 0.3 2.08 0.49l-1.29 0.95z"/>
      <path id="path3301" stroke="#000" stroke-width=".58358" d="m386.15 339.22c1.05 0.13 2.11 0.24 3.16 0.34 1.79 0.18 3.55 0.64 5.31 1.07 1.72 0.39 3.4 1 5.04 1.71 1.38 0.67 2.77 1.33 4.11 2.11 1.02 0.63 2.01 1.33 2.98 2.06 0.68 0.57 1.39 1.1 2.08 1.67 0.31 0.22 0.16 0.11 0.43 0.31l-1.29 0.93c-0.26-0.2-0.12-0.1-0.43-0.32-0.68-0.57-1.39-1.11-2.07-1.67-0.97-0.73-1.95-1.44-2.96-2.06-1.34-0.78-2.73-1.44-4.11-2.11-1.64-0.71-3.3-1.31-5.02-1.7-1.76-0.43-3.52-0.89-5.32-1.05-1.06-0.1-2.12-0.22-3.18-0.32l1.27-0.97z"/>
      <path id="path3303" stroke="#000" stroke-width=".58358" d="m399.7 341.24c0.38-0.78 0.74-1.58 1.12-2.36 0.51-1.04 1.06-2.05 1.7-2.99 0.53-0.74 1.13-1.42 1.68-2.15 0.29-0.43 0.63-0.83 0.98-1.2 0.24-0.23 0.3-0.34-0.02-0.45-0.7-0.18-1.4-0.29-2.11-0.38-1.12-0.17-2.24-0.15-3.36-0.11-1.24 0.01-2.47 0.19-3.69 0.36-1.11 0.15-2.21 0.36-3.31 0.58-1.09 0.2-2.18 0.42-3.26 0.66-1.11 0.25-2.23 0.44-3.33 0.77-1.11 0.37-2.21 0.78-3.33 1.13-0.89 0.32-1.78 0.61-2.69 0.88-0.65 0.21-1.3 0.33-1.98 0.36-0.62 0.05-1.23 0.16-1.85 0.17-0.57 0-1.14-0.07-1.67-0.31-0.58-0.26-1.01-0.78-1.45-1.27-0.37-0.39-0.7-0.82-1-1.29l-0.12-0.18 1.3-0.9 0.12 0.18c0.3 0.47 0.63 0.89 1 1.28 0.43 0.48 0.85 1 1.43 1.24 0.53 0.23 1.09 0.29 1.65 0.28 0.62-0.02 1.24-0.12 1.85-0.17 0.67-0.03 1.33-0.17 1.98-0.37 0.89-0.27 1.79-0.56 2.67-0.88 1.12-0.35 2.22-0.76 3.33-1.13 1.1-0.31 2.22-0.51 3.34-0.76 1.08-0.24 2.17-0.46 3.25-0.66 1.1-0.21 2.2-0.43 3.31-0.58 1.23-0.17 2.46-0.34 3.7-0.35 1.12-0.03 2.25-0.05 3.37 0.12 0.72 0.09 1.43 0.2 2.14 0.38 0.31 0.14 0.39 0.36 0.09 0.61-0.36 0.38-0.7 0.76-1 1.21-0.54 0.73-1.14 1.41-1.68 2.14-0.65 0.94-1.2 1.94-1.7 2.98-0.38 0.78-0.75 1.57-1.11 2.35l-1.35 0.81z"/>
      <path id="path3307" stroke="#000" stroke-width=".58358" d="m320.98 256.49c0.62-1.46 1.28-2.89 1.96-4.31 1-2.03 2.01-4.06 2.93-6.15 0.83-1.91 1.68-3.8 2.58-5.67 0.81-1.69 1.73-3.3 2.7-4.87 1.05-1.71 2.33-3.18 3.62-4.62 1.62-1.77 3.42-3.29 5.2-4.83 1.84-1.62 3.8-3.03 5.79-4.39 2.31-1.58 4.6-3.19 7-4.58 2.12-1.18 4.35-2.06 6.61-2.79 2.39-0.74 4.83-1.14 7.29-1.4 2.39-0.19 4.78-0.13 7.15 0.31 2.45 0.56 4.78 1.63 7.02 2.89 1.96 1.15 3.79 2.53 5.58 3.99 1.41 1.2 2.63 2.66 3.79 4.17 0.92 1.21 1.73 2.51 2.38 3.94 0.55 1.15 0.97 2.37 1.32 3.63 0.34 1.21 0.6 2.45 0.91 3.67 0.3 1.17 0.62 2.33 0.95 3.48 0.29 0.95 0.57 1.91 0.86 2.87 0.27 0.88 0.62 1.71 0.92 2.58 0.25 0.7 0.42 1.43 0.56 2.16 0.1 0.55 0.18 1.1 0.25 1.66 0.04 0.32 0.04 0.65 0.15 0.95 0.09 0.25 0.16 0.52 0.22 0.77 0.04 0.15 0.08 0.29 0.11 0.44 0.02 0.07 0.04 0.14 0.05 0.21 0.01 0.12 0.01 0.25 0.02 0.37l-1.33 0.86c-0.01-0.12-0.01-0.24-0.02-0.36-0.01-0.07-0.03-0.14-0.04-0.21-0.04-0.14-0.07-0.29-0.11-0.43-0.06-0.26-0.12-0.52-0.22-0.76-0.11-0.31-0.12-0.65-0.16-0.98-0.06-0.56-0.14-1.11-0.24-1.65-0.14-0.74-0.31-1.46-0.54-2.16-0.3-0.86-0.65-1.7-0.93-2.58-0.29-0.96-0.56-1.92-0.85-2.88-0.33-1.15-0.66-2.31-0.95-3.48-0.32-1.22-0.57-2.46-0.92-3.67-0.34-1.25-0.76-2.47-1.3-3.61-0.65-1.43-1.45-2.73-2.37-3.94-1.15-1.5-2.37-2.95-3.77-4.15-1.78-1.46-3.61-2.85-5.56-3.99-2.24-1.26-4.56-2.32-7.01-2.87-2.37-0.43-4.76-0.48-7.14-0.29-2.46 0.27-4.9 0.67-7.28 1.41-2.26 0.74-4.49 1.63-6.61 2.81-2 1.16-2.16 1.26-4.47 2.87-1.99 1.36-3.95 2.76-5.8 4.38-1.77 1.54-3.56 3.05-5.18 4.81-1.3 1.44-2.58 2.9-3.63 4.61-0.97 1.56-1.89 3.18-2.7 4.86-0.9 1.87-1.76 3.76-2.59 5.67-0.92 2.09-1.93 4.12-2.93 6.15-0.67 1.41-1.33 2.83-1.93 4.29l-1.34 0.81z"/>
      <path id="path3669" d="m361.22 355.28c-3.38-0.78-8.69-3.11-11.8-5.16-5.11-3.38-5.42-3.94-3.19-5.93 2.26-2.02 2.2-2.23-0.77-2.47-5.41-0.44-5.9-0.62-7.67-2.7-1.33-1.57-0.84-2.28 2.2-3.18 4.87-1.43 18.03 0.28 20.01 2.62 0.82 0.95 2 1.73 2.63 1.73 2.33 0 1.03-3.93-3.15-9.53-6.71-8.97-9.66-17.25-12.86-35.98-1.62-9.53-2.95-17.76-2.95-18.3s-1.37 0.75-3.05 2.86c-2.46 3.11-3.98 3.64-7.92 2.77-3.67-0.81-5.08-0.43-5.72 1.54-2 6.14-19 1.66-26.73-7.04-4.69-5.28-7.86-15.15-5.69-17.71 0.97-1.14 8.82-1.31 22.98-0.51 20.95 1.2 21.54 1.33 23.1 5.35 1.77 4.58 11.73 10.61 17.6 10.67 6.16 0.06 7.75 11.47 2.66 19.07-4.7 7.03-2.88 13.04 3.95 13.04 3.79 0 10.42-6.92 10.42-10.89 0-4.31-2.14-2.95-3.87 2.45-1.24 3.85-2.53 5.07-5.39 5.07-5.14 0-5.97-3.83-2.15-9.9 2.71-4.31 3.04-6.35 2.22-13.62-0.93-8.28-0.85-8.56 2.58-8.56 10.09 0 15.62-7.6 12.33-16.94-2.58-7.32-7.33-10.57-14.32-9.78-4.84 0.54-5.77 0.14-5.77-2.47 0-6.75-2.71-9.64-9.06-9.64-3.35 0-7.51 1.17-9.25 2.6-3.31 2.72-6.84 14.66-5.53 18.68 0.6 1.83-0.87 2.36-6.5 2.36h-7.27l4.53-9.71c10.85-23.25 32.81-35.91 49.38-28.47 8.13 3.65 12.95 9.98 15.99 20.98 2.37 8.58 2.37 9.07-0.12 11.21-2.17 1.87 1.54 2.08 22.84 1.33 21.9-0.77 25.43-0.55 25.43 1.62 0 4.27-11.78 23.38-15.99 25.94-4.6 2.8-9.87 3.19-9.87 0.73 0-0.93-1.29-1.69-2.87-1.69s-2.87 0.62-2.87 1.37-4.75 1.15-10.55 0.88l-10.54-0.48-2.46 16.2c-3.06 20.12-5.73 28.13-11.17 33.52-5.86 5.79-4.04 8.26 5.1 6.9 23.23-3.46 22.88-3.47 20.8 0.45-1.67 3.15-2.78 3.45-9.46 2.52-5.23-0.72-7.58-0.45-7.58 0.88 0 1.05 1.96 1.92 4.36 1.92s6.76 1.19 9.69 2.65l5.34 2.65-3.84 2.41c-5.23 3.26-20.87 7.47-27.04 7.27-2.76-0.09-7.79-0.8-11.17-1.58zm5.79-33.89c4.4-2.76 8.91-8.01 7.91-9.19-1.53-1.79-17.54-2.62-19.55-1.01-1.61 1.29-1.53 2.31 0.47 5.9 1.32 2.38 3.49 4.67 4.82 5.08 1.32 0.41 2.6 0.83 2.85 0.94s1.83-0.67 3.5-1.72zm-42.01-43.53c0-0.85 0.39-2.75 0.87-4.22 0.58-1.78 0.07-2.67-1.52-2.67-1.32 0-2-0.76-1.51-1.69s0.19-1.69-0.68-1.69c-2.46 0-3.28 4.46-1.53 8.31 1.62 3.56 4.37 4.8 4.37 1.96zm91.92-11.07c0-5.18-1.39-9.32-3.12-9.32-0.75 0-1.18 1.32-0.96 2.95 0.23 1.62-0.09 3.9-0.71 5.06-0.64 1.2-0.46 2.11 0.4 2.11 0.83 0 1.52 1.19 1.52 2.64 0 1.44 0.64 2.16 1.43 1.59 0.79-0.58 1.44-2.84 1.44-5.03z" stroke="#ffe6d5" stroke-width="1.5572" fill="#ffe6ba"/>
      <path id="path3809" d="m355.12 268.03c-0.9-0.31-1.69-1.13-1.69-1.73 0-0.25 0.07-0.37 0.16-0.26 0.2 0.23 1.42-0.5 1.86-1.12 0.62-0.87 3.08-0.34 3.59 0.78 0.2 0.45 0.16 0.77-0.15 1.33-0.68 1.21-2.1 1.59-3.77 1z" stroke="#ffe6ba" stroke-width=".27527" fill="#008000"/>
      <path id="path3811" d="m371.58 266.78c-1.34-0.9-1.45-2.01-0.32-3.32 0.68-0.79 0.83-0.86 0.9-0.42 0.07 0.38 0.34 0.52 1.04 0.52 0.52 0 1.08 0.16 1.25 0.36 0.46 0.54 0.37 2.17-0.16 2.73-0.53 0.57-1.96 0.64-2.71 0.13z" stroke="#ffe6ba" stroke-width=".27527" fill="#008000"/>
      <path id="path3813" d="m361.05 315.81c-3.2-0.56-4.72-1.23-4.98-2.18-0.21-0.78 0.61-1.56 2.1-2 1.58-0.47 2.39-0.39 4.58 0.42 1.87 0.7 2.04 0.72 3.39 0.3 1.35-0.41 1.56-0.39 3.82 0.3 1.31 0.41 2.67 0.75 3.02 0.76l0.63 0.01-0.59 0.59c-0.33 0.32-0.7 0.51-0.82 0.42-0.13-0.09-0.54 0.12-0.93 0.45-0.88 0.77-3.77 1.5-5.78 1.47-0.84-0.01-2.84-0.25-4.44-0.54z" stroke="#faa" stroke-width=".27527" fill="#f55"/>
      <path id="path3815" d="m361.45 320.23c-1.66-0.78-2.61-1.61-3.1-2.71l-0.4-0.91 0.98 0.16c4.91 0.81 6.51 0.92 8.51 0.58 1.14-0.2 2.12-0.31 2.17-0.24 0.25 0.29-1.62 2.3-2.79 2.99-1.59 0.93-3.53 0.98-5.37 0.13z" stroke="#faa" stroke-width=".27527" fill="#f55"/>
      <path id="path3817" d="m325.97 315.48c-1.03-1.28-2.43-4.17-2.01-4.17 0.13 0 0.31 0.14 0.4 0.3 0.24 0.46 1.62 0.35 2.4-0.19 1.04-0.72 1.96-2.6 2.44-4.99 0.33-1.64 0.42-3.51 0.41-8.1 0-3.28-0.08-6.98-0.18-8.21l-0.16-2.25 1.05-0.33 1.05-0.33-0.14 0.79c-0.39 2.39-0.71 7.51-0.91 14.73-0.23 8.53-0.47 10.48-1.59 12.84-0.72 1.52-1.48 1.49-2.76-0.09z" stroke="#808000" stroke-width=".27527" fill="#ff0"/>
      <path id="path3819" d="m408.81 309.86c-0.63-0.74-1.47-3.41-1.66-5.27l-0.16-1.48 0.58 1.9c0.32 1.05 0.81 2.09 1.11 2.32 0.47 0.36 0.61 0.34 1.21-0.22 1.64-1.52 2.52-7.05 2.51-15.82-0.01-3.39-0.09-6.44-0.18-6.79-0.16-0.6-0.09-0.64 1.03-0.64h1.2l-0.16 6.34c-0.27 10.58-1.29 16.7-3.31 19.7-0.46 0.68-1.57 0.66-2.17-0.04z" stroke="#808000" stroke-width=".27527" fill="#ff0"/>
      <path id="path3376" d="m352.25 270.48c-6.83-2.73-12.53-11.02-12.51-18.22 0.01-4.16 3.58-16.39 4.89-16.73 0.49-0.13 1.37 1.72 1.96 4.11s1.32 4.59 1.61 4.88c1.11 1.11 3.61-1.51 4.51-4.72 0.78-2.8 3.54-5.86 4.34-4.81 0.24 0.32 5.89 34.66 5.89 35.82 0 0.95-8.09 0.7-10.69-0.33zm7.27-2.28c2.11-1.9 2.07-3.58-0.1-4.74-4.4-2.35-10.24 1.93-7.02 5.15 1.53 1.53 5.21 1.32 7.12-0.41z" stroke="#fff" stroke-width="2.4796" fill="#fff"/>
      <path id="path3379" d="m367.79 268.08c-1.1-0.18-2.25-0.24-2.55-0.13-0.29 0.12-0.63-0.26-0.75-0.84-0.48-2.36-3.31-20.26-3.22-20.35 0.05-0.06 1.39-0.44 2.98-0.85 1.98-0.52 3.53-0.66 4.99-0.43l2.12 0.32v2.61c0 1.44 0.13 2.94 0.28 3.33 0.43 1.13 1.78 0.81 3.08-0.73 1.18-1.4 1.23-1.41 1.88-0.56 2.3 3 3.74 8.85 3.06 12.45-0.32 1.73-2.63 4.73-3.63 4.73-0.49 0-0.48-0.29 0.06-1.59 0.93-2.21 0.09-4.01-1.84-3.96-0.73 0.02-1.46-0.17-1.62-0.41-0.45-0.68-3.44 1.79-3.78 3.11-0.19 0.79 0.01 1.53 0.68 2.44 0.53 0.71 0.81 1.28 0.62 1.25-0.19-0.04-1.25-0.21-2.36-0.39z" stroke="#fff" stroke-width="1.2398" fill="#fff"/>
      <path id="path3391" d="m362.06 275.14c-0.57-0.73-1.36-1.32-1.75-1.32-1.12 0-0.34-0.49 1.42-0.88l1.6-0.36v1.96c0 1.08-0.05 1.95-0.12 1.94-0.06-0.02-0.58-0.62-1.15-1.34z" stroke="#ffe6ba" stroke-width="1.2398" fill="#ffe6ba"/>
      <path id="path3393" d="m412.31 281.97c-0.11-0.18-0.34-0.99-0.51-1.78-0.24-1.12-0.16-1.45 0.34-1.45 0.86 0 1.48 0.83 1.75 2.34 0.18 0.97 0.05 1.23-0.58 1.23-0.44 0-0.89-0.15-1-0.34z" stroke="#ffe6ba" stroke-width="1.2398" fill="#ffe6ba"/>
      <path id="path3395" d="m328.93 285.59c0-0.45-0.13-1.29-0.28-1.87-0.25-0.93-0.15-1.02 1.01-0.89 1.09 0.13 1.31 0.37 1.43 1.6 0.07 0.8-0.06 1.45-0.3 1.45s-0.76 0.12-1.15 0.27c-0.48 0.19-0.71 0.02-0.71-0.56z" stroke="#ffe6ba" stroke-width="1.2398" fill="#ffe6ba"/>
      <path id="path3324" stroke="#000" stroke-width=".58358" d="m326.01 232.04c0.28 1.05 0.22 2.17 0.2 3.25-0.06 1.96-0.11 3.93-0.14 5.89-0.02 2.24 0.05 4.48 0.26 6.71 0.18 1.84 0.46 3.66 0.73 5.48 0.14 1.02 0.27 2.04 0.57 3-0.26 0.23 0.25 0.12 0.19 0.17-1.2 0.86-0.7 0.46-0.55-0.57 0.16-1.66 0.24-3.32 0.38-4.98 0.16-2.2 0.48-4.37 0.79-6.55 0.28-2.09 0.76-4.14 1.35-6.14 0.46-1.56 1-3.08 1.55-4.6 0.33-0.83 0.61-1.7 0.96-2.52 0.31-0.73 0.84-1.7 1.69-1.43 0.91 0.7 1.34 2.02 1.76 3.14 0.73 2.14 1.05 4.42 1.35 6.68 0.23 1.89 0.41 3.78 0.61 5.67 0.05 0.2 0.1 0.62 0.26 0.8 0.19 0.22 0.44-0.04 0.43-0.04-0.71 0.39-0.7 0.49-0.25-0.12 1.02-1.57 1.63-3.44 2.22-5.27 0.62-2.03 1.02-4.14 1.36-6.25 0.22-1.52 0.41-3.04 0.59-4.56 0.05-0.69 0.03-0.35 0.06-1l0.88-0.56c-0.03 0.65-0.01 0.32-0.06 1.01-0.18 1.52-0.37 3.05-0.6 4.56-0.34 2.12-0.74 4.23-1.36 6.26-0.59 1.84-1.19 3.7-2.2 5.29-0.69 0.98-1.93 2.29-2.2 0.44-0.19-1.89-0.37-3.78-0.6-5.67-0.3-2.26-0.61-4.53-1.35-6.66-0.41-1.1-0.84-2.43-1.75-3.08-0.47-0.1-0.3-0.01 0.52-0.59 0.05-0.04-0.08 0.07-0.12 0.12-0.14 0.21-0.21 0.5-0.34 0.72-0.36 0.82-0.64 1.69-0.97 2.53-0.56 1.51-1.1 3.04-1.57 4.6-0.59 1.99-1.08 4.03-1.36 6.13-0.3 2.17-0.62 4.34-0.78 6.54-0.14 1.66-0.22 3.32-0.36 4.98-0.08 0.56-0.51 2.81-1.41 1.54-0.29-0.98-0.42-2-0.56-3.02-0.26-1.83-0.54-3.65-0.72-5.49-0.21-2.23-0.28-4.47-0.27-6.72 0.04-1.96 0.08-3.92 0.13-5.88 0.02-1.08 0.08-2.19-0.2-3.22l0.88-0.59z"/>
      <path id="path3326" stroke="#000" stroke-width=".58358" d="m344.56 226.93c1.1 0.98 1.61 2.55 2.12 4 0.77 2.28 1.3 4.66 1.82 7.03 0.21 0.61 0.34 2.99 1.01 3.15 0.12 0.03 0.24-0.04 0.36-0.06-0.15 0.09-0.44 0.47-0.43 0.28 0.01-0.25 0.31-0.34 0.44-0.54 0.17-0.23 0.31-0.48 0.45-0.74 0.52-0.97 0.88-2.02 1.24-3.09 0.65-2.15 1.08-4.37 1.51-6.59 0.14-0.75 0.27-1.49 0.4-2.24l0.88-0.55c-0.13 0.75-0.26 1.5-0.41 2.25-0.44 2.22-0.87 4.45-1.51 6.6-0.43 1.28-1.09 3.56-2.1 4.39-0.42 0.34-0.87 0.59-1.31 0.88-0.13 0.01-0.26 0.07-0.38 0.03-0.7-0.24-0.78-2.54-1.01-3.2-0.51-2.37-1.04-4.75-1.81-7.03-0.51-1.43-1.02-3-2.13-3.95l0.86-0.62z"/>
      <path id="path3328" stroke="#000" stroke-width=".58358" d="m354.86 224.24c1.12 1.1 1.88 2.57 2.6 4.03 1.07 2.17 1.71 4.55 2.32 6.94 0.28 0.96 0.53 2.77 1.68 2.82 0.17 0 0.34-0.07 0.51-0.1 0.18-0.12 0.41-0.17 0.54-0.36 0.06-0.1-0.34 0.1-0.31-0.01 0.09-0.32 0.36-0.53 0.52-0.81 0.56-0.95 0.97-2 1.38-3.05 0.55-1.57 1.08-3.15 1.56-4.75l0.88-0.54c-0.49 1.61-1.02 3.19-1.57 4.76-0.94 2.43-1.62 4.2-3.83 5.4-0.18 0.03-0.35 0.1-0.53 0.08-1.15-0.09-1.4-1.88-1.69-2.87-0.6-2.39-1.24-4.77-2.31-6.94-0.72-1.45-1.48-2.92-2.62-3.99l0.87-0.61z"/>
      <path id="path3330" stroke="#000" stroke-width=".58358" d="m368.48 225.9c0.82 1.24 1.31 2.76 1.81 4.21 0.92 2.79 1.48 5.72 1.89 8.67 0.3 2.57 0.44 5.16 0.57 7.74 0.08 0.46-0.12 2.63 0.69 2.53 0.12-0.02 0.23-0.1 0.34-0.15-0.16 0.09-0.41 0.45-0.47 0.25-0.07-0.21 0.28-0.31 0.39-0.49 0.14-0.22 0.26-0.45 0.37-0.69 0.47-1.02 0.73-2.13 1-3.24 0.64-2.75 0.82-5.6 0.91-8.44 0.04-2.22-0.13-4.43-0.28-6.63l0.87-0.56c0.14 2.21 0.3 4.42 0.26 6.64-0.08 2.85-0.26 5.7-0.89 8.46-0.31 1.27-0.76 3.6-1.73 4.44-0.4 0.35-0.84 0.61-1.26 0.92-0.12 0.04-0.24 0.12-0.36 0.12-0.85 0.01-0.62-2.08-0.7-2.6-0.13-2.59-0.26-5.18-0.55-7.75-0.42-2.94-0.98-5.87-1.91-8.65-0.49-1.44-0.98-2.95-1.82-4.17l0.87-0.61z"/>
      <path id="path3332" stroke="#000" stroke-width=".58358" d="m377.56 228.35c1.4 1.03 2.41 2.6 3.36 4.16 1.26 2.26 2.13 4.77 3 7.26 0.39 0.9 0.63 2.86 1.72 3.03 0.15 0.02 0.29-0.04 0.44-0.06 0.14-0.1 0.45-0.1 0.43-0.29-0.02-0.18-0.43 0.26-0.45 0.08-0.03-0.28 0.27-0.48 0.37-0.73 0.13-0.3 0.24-0.62 0.34-0.93 0.28-0.93 0.33-1.27 0.52-2.23 0.37-2.14 0.46-4.33 0.43-6.51-0.03-1.12-0.01-0.57-0.05-1.63l0.87-0.56c0.04 1.06 0.02 0.52 0.05 1.63 0.02 2.19-0.07 4.38-0.43 6.53-0.19 0.94-0.6 3.22-1.21 3.91-0.7 0.79-1.02 0.95-1.7 1.37-0.16 0.02-0.31 0.07-0.46 0.04-1.1-0.22-1.32-2.15-1.72-3.08-0.86-2.49-1.72-5-2.99-7.25-0.95-1.55-1.96-3.12-3.38-4.12l0.86-0.62z"/>
      <path id="path3334" stroke="#000" stroke-width=".58358" d="m389.29 226.26c1.38 0.85 2.37 2.35 3.32 3.76 1.56 2.34 2.66 4.97 3.54 7.74 0.65 2.05 1.05 4.19 1.63 6.27 0.21 0.58 0.54 1.33 1.19 1.17 0.14-0.03 0.53-0.19 0.39-0.18-0.15 0.01-0.29 0.12-0.43 0.19 1.28-1.51 1.98-3.43 2.47-5.45 0.5-2.36 0.56-4.8 0.51-7.22-0.04-1.08-0.09-2.16-0.15-3.24l0.88-0.56c0.05 1.08 0.1 2.16 0.13 3.24 0.05 2.43-0.01 4.87-0.51 7.24-0.47 2.03-1.17 3.95-2.44 5.48-1.32 1-2.12 1.99-2.91-0.1-0.56-2.08-0.96-4.22-1.61-6.28-0.87-2.76-1.97-5.39-3.53-7.72-0.95-1.4-1.95-2.9-3.34-3.72l0.86-0.62z"/>
      <path id="path3336" stroke="#000" stroke-width=".58358" d="m325.46 234.62c-0.92 1.08-1.63 2.37-2.34 3.64-1.06 1.92-1.98 3.95-2.78 6.04-0.65 1.77-1.16 3.61-1.65 5.45-0.27 0.92-0.46 1.87-0.75 2.79-0.74 1.52-1.28 1.47-1.58 0-0.21-1.73-0.2-3.46-0.01-5.19 0.29-1.93 0.68-3.84 1.11-5.74 0.21-0.97 0.11-0.49 0.31-1.42l0.88-0.54c-0.2 0.92-0.1 0.45-0.31 1.42-0.44 1.89-0.83 3.8-1.12 5.74-0.19 1.71-0.2 3.44 0.02 5.16 0.04 0.23 0.1 0.58 0.21 0.81 0.03 0.05 0.15 0.08 0.11 0.12-1.33 1.47-0.66 0.53-0.51 0.18 0.3-0.91 0.49-1.87 0.76-2.79 0.5-1.84 1.01-3.68 1.66-5.47 0.8-2.08 1.72-4.11 2.77-6.04 0.71-1.26 1.41-2.55 2.31-3.64l0.91-0.52z"/>
      <path id="path3338" stroke="#000" stroke-width=".58358" d="m318.34 236.43c0.22-0.14 0.42-0.32 0.66-0.42 0.12-0.05-0.21 0.18-0.3 0.27-0.13 0.12-0.25 0.24-0.37 0.37-0.47 0.53-0.9 1.13-1.32 1.72-1.07 1.5-1.93 3.19-2.73 4.9-0.64 1.37-1.25 2.75-1.87 4.13-0.24 0.56-1.1 2.6-1.87 1.91-0.38-1.01-0.3-2.21-0.28-3.29 0.1-2.15 0.46-4.27 0.9-6.35 0.46-2.29 1.18-4.49 2.03-6.61 0.7-1.74 1.62-3.33 2.52-4.93 0.57-1.08 1.21-2.1 1.91-3.07 0.37-0.51 0.19-0.25 0.54-0.78l0.89-0.52c-0.34 0.52-0.16 0.26-0.54 0.78-0.7 0.97-1.34 1.99-1.92 3.06-0.9 1.61-1.82 3.19-2.52 4.93-0.86 2.12-1.58 4.31-2.05 6.6-0.43 2.08-0.79 4.19-0.89 6.33-0.02 1.06-0.09 2.25 0.28 3.23 0.35 0.24 0.19 0.08-0.64 0.62-0.06 0.04 0.11-0.1 0.15-0.16 0.26-0.36 0.4-0.82 0.6-1.22 0.62-1.38 1.24-2.76 1.88-4.13 0.81-1.71 1.66-3.4 2.72-4.91 0.9-1.25 1.77-2.42 3.06-3.13l-0.84 0.67z"/>
      <path id="path3340" stroke="#000" stroke-width=".58358" d="m320.23 222.16c-0.99-0.04-1.96 0.23-2.92 0.47-1.47 0.36-2.79 1.18-4.1 1.99-1.32 0.65-1.09 1.03-2.83 1.72-0.92 0.13-0.8-0.95-0.7-1.7 0.43-1.82 1.4-3.38 2.3-4.91 1.12-1.78 2.4-3.42 3.7-5.02 0.47-0.56 0.94-1.13 1.39-1.71l0.89-0.52c-0.46 0.58-0.92 1.15-1.39 1.72-1.31 1.59-2.59 3.23-3.71 5.01-0.9 1.52-1.86 3.07-2.3 4.88-0.1 0.71-0.24 1.76 0.65 1.59 0.25-0.1 0.86-0.61 0.72-0.36-0.09 0.17-0.57 0.4-0.43 0.3 0.84-0.56 1.66-1.14 2.52-1.65 1.32-0.81 2.65-1.63 4.12-1.99 0.96-0.24 1.95-0.51 2.94-0.47l-0.85 0.65z"/>
      <path id="path3342" stroke="#000" stroke-width=".58358" d="m321.89 209.85c-0.29 0.27-0.62 0.53-0.82 0.91-1.11 1.74-0.94-0.24-1.06-0.78-0.25-0.75-0.66-1.4-1.05-2.04-0.15-0.34-0.6-0.69-0.47-1.09 0.9-1 2.07-1.11 3.22-1.22 1.48-0.05 2.95 0.16 4.41 0.39 0.78 0.13 0.41 0.08 1.14 0.17l-0.84 0.63c-0.73-0.1-0.35-0.04-1.13-0.17-1.46-0.23-2.93-0.44-4.41-0.38-0.55 0.06-1.1 0.12-1.65 0.27-0.11 0.03-0.43 0.22-0.34 0.12 0.17-0.21 0.42-0.32 0.64-0.47 0.05-0.04-0.1 0.08-0.14 0.11-0.19 0.33 0.33 0.75 0.44 1.04 0.39 0.66 0.8 1.31 1.05 2.06 0.29 1.25 0.27 1.14-0.75 1.95-0.02 0.02 0.03-0.04 0.04-0.05 0.19-0.4 0.52-0.66 0.81-0.94l0.91-0.51z"/>
      <path id="path3344" stroke="#000" stroke-width=".58358" d="m330.32 205.78c-0.71-1.01-1.6-1.83-2.46-2.66-0.29-0.42-1.75-1.2-1.43-1.98 0.05-0.12 0.16-0.2 0.24-0.31 1.63-1.31 3.45-1.41 5.36-1.38 1.09 0.05 0.56 0.03 1.6 0.06l-0.83 0.63c-1.04-0.03-0.51-0.01-1.6-0.07-0.88 0-1.75 0-2.62 0.16-0.26 0.05-0.51 0.11-0.76 0.18-0.22 0.07-0.44 0.32-0.65 0.23-0.15-0.06 0.27-0.22 0.4-0.33-0.08 0.09-0.2 0.16-0.26 0.27-0.36 0.71 1.15 1.56 1.4 1.94 0.86 0.84 1.76 1.66 2.48 2.66l-0.87 0.6z"/>
      <path id="path3346" stroke="#000" stroke-width=".58358" d="m337.01 200.21c0.93-1.35 2.2-2.31 3.41-3.29 2.47-1.95 5.11-3.58 7.79-5.08 2.48-1.4 5.07-2.48 7.71-3.37 2.35-0.79 4.76-1.25 7.19-1.5 2.05-0.19 4.12-0.19 6.18-0.17 0.92 0.05 2.26-0.27 2.14 1.27-0.31 1.07-0.61 2.16-0.86 3.26-0.13 0.58-0.07 0.3-0.19 0.85l-0.89 0.55c0.12-0.55 0.06-0.27 0.19-0.86 0.26-1.09 0.55-2.17 0.87-3.25 0.15-1.47-1.23-1.12-2.09-1.19-2.06-0.02-4.11-0.03-6.16 0.17-2.43 0.25-4.84 0.72-7.19 1.51-2.64 0.89-5.22 1.97-7.7 3.37-2.1 1.18-4.2 2.38-6.11 3.94-1.19 0.98-2.46 1.92-3.39 3.26l-0.9 0.53z"/>
      <path id="path3348" stroke="#000" stroke-width=".58358" d="m370.33 193.5c1.46-0.71 2.99-1.2 4.53-1.62 2.6-0.67 5.24-1.11 7.9-1.37 2.51-0.22 4.98 0.28 7.41 0.92 1.74 0.5 3.43 1.19 5.12 1.86 0.78 0.37 1.86 0.39 1.29 1.64-0.65 0.93-1.13 1.98-1.58 3.05-0.16 0.4-0.33 0.8-0.52 1.18l-0.89 0.54c0.19-0.38 0.36-0.78 0.52-1.19 0.45-1.07 0.92-2.12 1.57-3.05 0.61-1.19-0.47-1.17-1.23-1.55-1.69-0.68-3.37-1.37-5.1-1.87-2.43-0.64-4.9-1.13-7.4-0.9-2.66 0.26-5.3 0.7-7.9 1.38-1.55 0.43-3.09 0.92-4.55 1.65l0.83-0.67z"/>
      <path id="path3350" stroke="#000" stroke-width=".58358" d="m394.47 199.59c1.32-0.19 2.66 0.06 3.96 0.36 2.21 0.65 4.24 1.87 6.18 3.26 2.04 1.52 3.76 3.51 5.4 5.58 1.35 1.67 2.47 3.55 3.52 5.48 0.39 0.97 1.52 2.26 1.33 3.38-1.02 1.17-2.27 1.07-3.55 0.99-0.58-0.05-1.15-0.11-1.73-0.17l0.84-0.64c0.58 0.06 1.15 0.13 1.73 0.17 0.54 0.03 1.07 0.07 1.61 0.01 0.16-0.01 0.49-0.26 0.48-0.07-0.01 0.25-0.34 0.29-0.5 0.45-0.07 0.07 0.15-0.12 0.23-0.18 0.25-1.06-0.94-2.44-1.29-3.35-1.05-1.94-2.17-3.82-3.51-5.49-1.63-2.07-3.35-4.05-5.39-5.56-1.94-1.38-3.97-2.6-6.18-3.24-1.3-0.29-2.65-0.55-3.97-0.31l0.84-0.67z"/>
      <path id="path3352" stroke="#000" stroke-width=".58358" d="m409.12 218.03c0.89-0.18 1.64 0.41 2.34 0.97 1.35 1.17 2.53 2.58 3.64 4.06 1.11 1.69 2.12 3.47 3.05 5.3 0.67 1.36 1.21 2.8 1.74 4.23 0.53 1.55 0.92 1.19-0.53 2-0.83-0.58-1.67-1.11-2.53-1.61-1.32-0.75-2.71-1.27-4.15-1.6-1.35-0.3-2.7-0.36-4.04-0.1-0.99 0.22-1.93 0.63-2.86 1.07-0.11 0.05-0.21 0.09-0.31 0.13l0.83-0.66c0.1-0.04 0.2-0.09 0.31-0.13 0.93-0.43 1.87-0.84 2.85-1.05 1.35-0.25 2.71-0.18 4.05 0.12 1.44 0.34 2.84 0.86 4.16 1.61 0.87 0.49 1.71 1.03 2.54 1.58-1.31 1.08-0.63 0.89-0.76 0.41-0.11-0.41-0.3-0.78-0.42-1.19-0.53-1.44-1.06-2.87-1.74-4.23-0.92-1.83-1.92-3.61-3.04-5.29-1.1-1.48-2.28-2.88-3.64-4.04-0.71-0.55-1.45-1.13-2.33-0.92l0.84-0.66z"/>
      <path id="path3354" stroke="#000" stroke-width=".58358" d="m408.61 205.52c0.54-0.22 1.08-0.3 1.64-0.29 0.74 0.04 1.27 0.51 1.77 1.1 0.56 0.68 1.01 1.44 1.35 2.29 0.34 0.94 0.55 1.91 0.64 2.92 0.06 0.65 0.07 1.3-0.01 1.95-0.03 0.26-0.07 0.52-0.11 0.79l-0.89 0.55c0.04-0.26 0.07-0.52 0.11-0.79 0.08-0.64 0.08-1.28 0.02-1.93-0.08-1.01-0.29-1.98-0.63-2.9-0.33-0.85-0.78-1.6-1.34-2.28-0.5-0.57-1.03-1.03-1.76-1.06-0.56 0-1.09 0.09-1.62 0.31l0.83-0.66z"/>
      <path id="path3366" stroke="#000" stroke-width=".58358" d="m410.15 205.5c1.51-1.49 3.31-2.54 5.04-3.63 3.84-2.45 7.76-4.72 11.7-6.97 4.11-2.32 8.27-4.52 12.4-6.78 1.32-0.71 2.62-1.48 3.97-2.1 0.47-0.22 1.21-0.69 1.74-0.43-0.05 0.13-0.07 0.29-0.14 0.4-0.23 0.38-1.02 1.17-1.25 1.41-0.88 0.91-1.79 1.78-2.68 2.67-0.41 0.64-2.73 2.38-2.88 3.03-0.02 0.06 0.07 0.09 0.11 0.13 2.51-0.29 5-0.8 7.49-1.21 3.59-0.62 7.2-1.01 10.83-1.19 1.43-0.02 2.86-0.14 4.29-0.09 0.66 0.03 1.39-0.05 1.85 0.57-0.09 0.15-0.14 0.34-0.27 0.44-2.31 1.86-5.24 2.63-7.87 3.6-1.46 0.55-2.94 1.03-4.39 1.6-0.3 0.12-0.58 0.32-0.89 0.38-0.17 0.04 0.29-0.26 0.46-0.29 0.06-0.02 0.06 0.11 0.09 0.17 2.64 0.65 5.33 0.97 7.99 1.35 3.32 0.46 6.62 1.14 9.88 1.99 0.35 0.11 0.7 0.21 1.03 0.35 2.6 1.1-1.61 2.34-2.45 2.6-3.72 0.95-7.5 1.55-11.26 2.22-0.41 0.08-1.65 0.29-2.15 0.47-0.11 0.04-0.42 0.23-0.3 0.2 0.37-0.1 0.7-0.38 1.08-0.41 0.25-0.01 0.46 0.2 0.69 0.29 0.36 0.14 0.72 0.26 1.07 0.39 3.61 1.25 7.25 2.38 10.86 3.6 1.65 0.58 3.29 1.17 4.91 1.84 0.92 0.38 1.76 0.68 2.48 1.46-0.02 0.15 0.05 0.34-0.05 0.44-0.41 0.4-0.89 0.71-1.38 0.96-1.25 0.64-5.16 0.47-6.53 0.48-3.86 0.06-7.72-0.21-11.58-0.34 1.41-0.84-1.89 0.36-1.44 0.17 0.31-0.13 0.61-0.36 0.94-0.34 0.21 0.02 0.34 0.31 0.52 0.46 0.68 0.54 1.38 1.05 2.06 1.58 3.19 2.51 6.33 5.11 9.48 7.7 2.16 1.99 4.72 3.47 6.56 5.91 0.06 0.17 0.41 0.67 0.08 0.89-0.43 0.28-0.89 0.54-1.37 0.65-0.51 0.11-2.9-0.89-3.35-1.05-4.42-1.81-8.72-3.97-13.08-5.93-4.78-1.97-9.46-4.22-14.14-6.47-3.47-1.71-7.01-3.25-10.55-4.74-2.7-1.15-5.43-2.14-8.2-3-1.95-0.64-3.92-1.17-5.93-1.48-0.61-0.07-1.22-0.17-1.83-0.27l0.84-0.63c0.6 0.11 1.21 0.2 1.82 0.27 2 0.33 3.97 0.85 5.92 1.5 2.76 0.87 5.5 1.86 8.19 3.01 3.54 1.5 7.07 3.05 10.54 4.76 4.67 2.26 9.35 4.51 14.12 6.48 4.37 1.96 8.68 4.11 13.11 5.89 0.82 0.3 1.7 0.64 2.55 0.86 0.27 0.07 0.65-0.1 0.82 0.15 0.12 0.18-0.22 0.37-0.36 0.54-0.16 0.2 0.94-1.32-0.03-0.84-1.81-2.45-4.38-3.93-6.52-5.92-3.15-2.6-6.29-5.2-9.5-7.69-0.69-0.52-1.39-1.03-2.08-1.57-0.19-0.15-0.59-0.21-0.55-0.47 0.19-1.18 1.56-1.02 2.19-1.04 3.85 0.15 7.7 0.42 11.56 0.36 1.5-0.02 2.57-0.01 4.06-0.11 0.5-0.04 0.99-0.07 1.49-0.16 0.34-0.05 0.66-0.25 1.01-0.27 0.08 0-0.79 0.68-0.24-0.13-0.71-0.79-1.54-1.1-2.44-1.47-1.62-0.68-3.26-1.27-4.9-1.84-3.62-1.23-7.26-2.37-10.88-3.59-0.36-0.13-0.73-0.24-1.09-0.38-0.24-0.09-0.68 0-0.71-0.3-0.12-1.33 2.65-1.35 3.03-1.49 3.77-0.66 7.55-1.26 11.26-2.23 0.45-0.15 0.89-0.35 1.36-0.44 0.05-0.01-0.08 0.22-0.03 0.19 1.15-0.7-1.31-1.48-1.52-1.46-3.26-0.86-6.55-1.54-9.87-1.99-2.69-0.39-5.41-0.68-8.06-1.37-0.35-0.74-0.25-0.32 1.14-1.11 1.64-0.95 3.56-1.15 5.25-1.96 1.69-0.62 3.39-1.22 5.05-1.96 0.41-0.18 0.81-0.41 1.22-0.59 0.04-0.02-0.11 0.13-0.08 0.09 0.1-0.12 0.19-0.24 0.29-0.36-0.41-0.59-1.2-0.52-1.8-0.54-1.42-0.06-2.85 0.06-4.27 0.07-3.62 0.18-7.24 0.57-10.83 1.19-2.51 0.42-5.03 0.99-7.55 1.21-0.05-0.07-0.16-0.12-0.15-0.21 0.03-0.22 0.71-0.85 0.73-0.88 0.72-0.73 1.46-1.44 2.17-2.18 1.4-1.39 2.94-2.69 4.09-4.36-0.49-0.22-1.25 0.25-1.69 0.45-1.34 0.62-2.63 1.38-3.94 2.09-4.13 2.25-8.29 4.44-12.39 6.77-3.94 2.25-7.87 4.53-11.73 6.99-1.16 0.73-2.34 1.43-3.34 2.47l-0.9 0.52z"/>
      <path id="path3368" stroke="#000" stroke-width=".58358" d="m318.06 211.67c-0.97-0.48-1.91-0.22-2.83 0.28 0.12-0.05 0.38-0.29 0.34-0.16-0.05 0.23-0.29 0.32-0.42 0.49-0.41 0.55-0.7 1.22-0.98 1.88l-0.89 0.53c0.66-1.54 1.35-2.64 2.78-3.4 0.93-0.49 1.88-0.73 2.86-0.24l-0.86 0.62z"/>
      <path id="path3372" stroke="#000" stroke-width=".58358" d="m314.3 213.23c-0.25 0.63-0.41 1.29-0.56 1.94-0.09 0.41-0.16 0.82-0.26 1.21l-0.9 0.56c0.11-0.4 0.17-0.81 0.27-1.22 0.15-0.66 0.31-1.32 0.55-1.94l0.9-0.55z"/>
      <path id="path3374" stroke="#000" stroke-width=".58358" d="m315.68 211.86c-0.58-0.91-1.23-1.75-1.87-2.59-1.27-1.72-2.72-3.2-4.25-4.58-2.2-1.94-4.61-3.49-7.07-4.89-2.97-1.72-6.1-3.02-9.25-4.17-3.46-1.27-7-2.18-10.55-3.01-3.06-0.71-6.15-1.21-9.26-1.51-1.83-0.01-3.7-0.48-5.53-0.23-0.03 0.02-0.15 0.1-0.11 0.08 0.33-0.17 0.64-0.44 0.99-0.52 0.13-0.03 0.25 0.13 0.37 0.19 0.19 0.1 0.38 0.18 0.57 0.27 0.73 0.33 0.78 0.34 1.54 0.63 1.49 0.54 2.98 1.06 4.47 1.59 1.91 0.66 1.51 0.76-0.37 1.98-2.82 1.29-5.69 2.47-8.52 3.71-3.2 1.42-6.39 2.87-9.58 4.31-0.99 0.47-2 0.87-2.96 1.42-0.19 0.11-0.75 0.36-0.54 0.36 2.28-0.08-0.02-0.52 0.94-0.31 2.59-0.18 5.15-0.75 7.71-1.23 3.28-0.61 6.57-1.22 9.86-1.77 2.25-0.38 4.52-0.68 6.78-0.95 0.5 0.01 2.58-0.51 2.92 0.07 0.05 0.09 0.02 0.21 0.03 0.31-0.09 0.13-0.16 0.27-0.26 0.38-0.57 0.66-1.36 1.12-2.03 1.61-2.86 2.05 1.02-0.75-2.04 1.45-2.37 1.68-4.53 3.73-6.59 5.9-1.85 2.07-3.56 4.32-5.19 6.64-0.53 1.03-2.28 2.79-2.5 3.92 1.14-0.56 1.48-0.92 2.74-1.85 2.73-2.03 5.54-3.89 8.45-5.56 2.07-1.2 4.2-2.29 6.32-3.39 0.29-0.14 2.34-1.32 2.49-1.03 0.04 0.09 0 0.21 0 0.32-0.85 1.99-1.68 4-2.46 6.03-0.96 2.61-1.7 5.31-2.43 8.01-0.2 0.84-0.46 1.66-0.68 2.5-0.05 0.22-0.26 0.58-0.08 0.68 0.05 0.03 0.09-0.08 0.14-0.12-0.19 0.09-0.47 0.47-0.57 0.27-0.11-0.21 0.28-0.37 0.42-0.56 0.82-1.1 1.62-2.23 2.46-3.32 1.57-1.98 3.25-3.83 5-5.58 1.5-1.45 3.07-2.8 4.69-4.04 1.52-1.22 3.13-2.24 4.84-3.04 1.59-0.74 3.27-1.05 4.96-1.22 1.33-0.07 2.66-0.02 3.99 0.02 0.64 0.04 1.26 0.18 1.87 0.41 0.57 0.25 1.1 0.6 1.65 0.89 1.12 0.57 2.22 1.18 3.32 1.8 1.09 0.62 2.16 1.26 3.22 1.94 0.59 0.36 1.16 0.77 1.8 0.98l-0.85 0.63c-0.64-0.22-1.21-0.63-1.8-1-1.05-0.68-2.13-1.32-3.21-1.93-1.1-0.62-2.21-1.24-3.33-1.8-0.55-0.29-1.08-0.63-1.65-0.88-0.61-0.23-1.22-0.37-1.86-0.4-1.32-0.05-2.65-0.1-3.97-0.02-1.7 0.17-3.37 0.49-4.96 1.23-1.62 0.77-1.88 0.9-3.13 1.88-1.63 1.25-3.2 2.6-4.7 4.04-1.75 1.75-3.44 3.6-5 5.58-0.66 0.85-1.3 1.72-1.94 2.6-0.3 0.43-0.55 0.92-0.92 1.27-0.37 0.34-0.78 0.61-1.17 0.92-0.06 0-0.14 0.07-0.18 0.02-0.13-0.12 0.69-2.87 0.77-3.22 0.73-2.7 1.48-5.4 2.44-8.01 0.77-2.03 1.57-4.03 2.43-6 0.01-0.08 0.07-0.17 0.04-0.24-0.09-0.19-0.37 0-0.54 0.07-0.65 0.27-1.27 0.67-1.92 0.97-2.11 1.1-4.23 2.18-6.3 3.38-2.32 1.34-4.61 2.75-6.78 4.42-1.11 0.83-2.22 1.63-3.37 2.4-0.13 0.09-0.71 0.48-0.93 0.54-0.07 0.02-0.14-0.02-0.2-0.03 0.21-1.21 1.97-2.88 2.52-3.97 1.63-2.32 3.34-4.57 5.2-6.65 2.05-2.18 4.2-4.22 6.58-5.9 1.46-1.06 3.07-1.99 4.31-3.38 0-0.08 0.05-0.18 0.01-0.25-0.32-0.54-2.42-0.05-2.89-0.06-2.26 0.27-4.52 0.57-6.76 0.94-3.29 0.55-6.58 1.16-9.86 1.77-2.57 0.48-5.16 1.07-7.77 1.24-0.09-0.05-0.35-0.06-0.28-0.15 0.92-1.22 3.29-1.93 4.5-2.58 3.19-1.44 6.37-2.89 9.56-4.31 2.85-1.25 5.73-2.42 8.56-3.74-0.11 0.09-0.2 0.2-0.31 0.27-0.09 0.05 0.19-0.12 0.24-0.22 0.1-0.2-0.25-0.37-0.28-0.39-0.22-0.11-0.73-0.28-0.94-0.36-1.49-0.53-2.97-1.06-4.46-1.59-0.2-0.08-2.54-1.01-2.51-1.1 0.18-0.54 0.48-0.66 0.82-0.82 1.83-0.2 3.67 0.24 5.5 0.26 3.11 0.31 6.2 0.82 9.26 1.53 3.55 0.83 7.08 1.75 10.54 3.01 3.16 1.16 6.29 2.45 9.27 4.17 2.47 1.41 4.88 2.96 7.08 4.9 1.54 1.38 2.99 2.86 4.27 4.57 0.65 0.84 1.3 1.69 1.89 2.59l-0.87 0.6z"/>
      <path id="path3573" d="m279.47 222.04c0.21-0.66 0.78-2.55 1.28-4.21 0.49-1.66 1.38-4.13 1.98-5.5 1.26-2.91 1.34-3.72 0.35-3.72-0.95 0-11.63 5.91-14.43 7.99-1.21 0.9-2.32 1.51-2.45 1.35-0.6-0.7 7.27-9.37 11.45-12.63 4.34-3.38 5.25-4.55 4.17-5.34-0.26-0.19-4.66 0.34-9.78 1.16s-10.22 1.64-11.34 1.82c-1.25 0.2 0.81-0.96 5.33-2.99 10.71-4.82 11.91-5.54 11.16-6.61-0.34-0.48-1.1-0.89-1.7-0.92-0.59-0.02-0.81-0.17-0.48-0.33 0.9-0.43 11.45 1.9 16.68 3.68 9.05 3.08 16.59 7.76 20.96 12.99 1.92 2.31 2.09 2.71 1.39 3.39-0.67 0.65-1.45 0.42-4.83-1.4-3.51-1.88-4.54-2.16-7.88-2.16-2.5 0-4.82 0.4-6.64 1.15-3.34 1.38-8.49 5.52-12.61 10.12-1.69 1.9-2.82 2.83-2.61 2.16z" stroke="#ffff96" stroke-width=".55055" fill="#ff0"/>
      <path id="path3575" d="m449.96 221.05c-6.72-3.23-16.74-7.47-22.27-9.43-17.39-6.14-17.14-5.22-3.65-13.21 7.22-4.27 12.37-6.44 12.68-5.35 0.34 1.2 3.64 1.55 9.39 1 7.15-0.68 8.18-0.49 5.31 0.97-2.91 1.49-3.17 2.11-1.43 3.4 1.16 0.86 3.73 1.6 5.71 1.63 1.97 0.02 4.56 0.78 5.74 1.68 1.66 1.26 1.16 1.65-2.15 1.69-2.37 0.03-5.26 0.76-6.42 1.62-2.42 1.8-2.46 1.78 8.57 5.81l6.47 2.37-7.46 0.16c-4.1 0.1-7.77 0.77-8.16 1.5-0.38 0.74 2.17 3.47 5.67 6.07 6.13 4.56 7.56 6.19 5.28 6.03-0.59-0.04-6.57-2.71-13.28-5.94z" stroke="#ffff96" stroke-width="1.5572" fill="#ff0"/>
      <path id="path3583" d="m335.51 200.34c0.48 0.17 0.97 0.28 1.47 0.32 0.5 0.06 0.99-0.03 1.48-0.16 0.48-0.25 0.97-0.48 1.44-0.75 0.19-0.12 0.38-0.24 0.57-0.37l-1.25 1.01c-0.18 0.12-0.37 0.24-0.57 0.36-0.47 0.26-0.96 0.51-1.45 0.73-0.49 0.13-0.98 0.2-1.49 0.14-0.5-0.05-0.99-0.17-1.48-0.33l1.28-0.95z" stroke="#ffff96" stroke-width=".58358" fill="#ff0"/>
      <path id="path3585" d="m333.13 200.22c0.32 0.09 0.64 0.16 0.97 0.23l-1.27 0.95c-0.33-0.07-0.66-0.14-0.98-0.23l1.28-0.95z" stroke="#ffff96" stroke-width=".58358" fill="#ff0"/>
      <path id="path3587" d="m319.29 224.71c0.35-0.36 0.74-0.68 1.11-1.01l1.36-0.77c-0.38 0.33-0.76 0.64-1.11 1l-1.36 0.78z" stroke="#ffff96" stroke-width=".58358" fill="#ff0"/>
      <path id="path3589" d="m404.58 231.82c0.55 0.01 1.1 0.01 1.65 0 0.49 0 0.98 0.09 1.47 0.16 0.24 0.01 0.12 0.01 0.35 0l-1.27 0.97c-0.23 0-0.11 0-0.35-0.01-0.49-0.08-0.97-0.16-1.46-0.15h-1.66l1.27-0.97z" stroke="#ffff96" stroke-width=".58358" fill="#ff0"/>
      <path id="path3591" d="m317.54 241.84c0.11-0.62 0.18-1.24 0.25-1.86 0.06-0.48 0.1-0.97 0.13-1.45 0.06-1.19-0.05-0.7 1.4-1.46v0.16l-1.33 0.85c0-0.05 0-0.1-0.01-0.15 1.65-1.23 1.33-1.44 1.28-0.24-0.04 0.48-0.08 0.97-0.14 1.45-0.07 0.62-0.14 1.25-0.24 1.87l-1.34 0.83z" stroke="#ffff96" stroke-width=".58358" fill="#ff0"/>
      <path id="path3595" d="m395.55 233.95c-4.31-10.72-7.34-11.15-9.02-1.27l-1.27 7.48-2.81-6.28c-3.2-7.2-6.28-8.08-8.15-2.33-1.11 3.4-1.53 3.24-2.91-1.15-1.85-5.89-7.85-4.66-7.87 1.62-0.01 2.76-1.48 1.8-4.97-3.24l-4.96-7.16-1.43 8.08-1.43 8.08-2.81-6.29c-1.54-3.46-3.23-6.29-3.75-6.29-0.51 0-2.24 3.49-3.83 7.76-2.39 6.42-2.91 6.86-3.05 2.53-0.26-8.07-3.71-8.76-7.1-1.41l-3.06 6.64-0.11-5.97c-0.09-4.51-0.56-5.13-1.95-2.56-1.87 3.48-10.29 5.51-10.29 2.48 0-0.91 1.9-4.5 4.21-7.96l4.21-6.29h-9.13l4.61-5.76c2.54-3.18 6.85-6.43 9.58-7.24 3.03-0.89 4.41-2.52 3.54-4.19-0.94-1.78-0.3-2.2 1.89-1.22 1.82 0.82 4.68-0.11 6.35-2.07 6.85-8.05 32.23-15.14 28.45-7.94-0.93 1.77 1.48 2.41 7.5 1.98 13.55-0.96 18.43-0.12 17.54 3.03-0.45 1.57 2.9 5.07 7.45 7.76 5.77 3.44 8.25 6.44 8.25 10.01 0 2.81 1.83 7.53 4.07 10.5l4.06 5.39-8.52-1.3c-8.3-1.26-8.54-1.1-9.14 6.02l-0.62 7.32-3.53-8.76z" stroke="#ffff96" stroke-width="2.2022" fill="#ff0"/>
      <path id="path3647" stroke="#ff0" stroke-width=".19465" d="m411.76 210.63c-0.51-0.78-1.43-2.06-2.03-2.85l-1.11-1.42h0.58c1.29 0 2.8 1.97 3.31 4.31 0.15 0.69 0.25 1.28 0.22 1.31-0.02 0.04-0.46-0.57-0.97-1.35z"/>
      <path id="path3663" stroke="#ff0" stroke-width=".58358" d="m318.95 211.91c-0.16 0.14-0.32 0.28-0.47 0.41-0.11 0.1-0.06 0.05-0.16 0.15l-0.34 0.19c0.1-0.1 0.05-0.05 0.16-0.15 0.15-0.13 0.31-0.26 0.47-0.4l0.34-0.2z"/>
      <path id="path3665" d="m314.94 214.39c-0.37-0.21-0.36-0.37 0.08-1.18 0.5-0.94 1.08-1.33 1.93-1.31 0.66 0.01 1.51 0.25 0.97 0.27-0.46 0.02-1.19 0.61-1.84 1.49-0.73 0.98-0.71 0.97-1.14 0.73z" stroke="#000" stroke-width=".13764" fill="#ff0"/>
      <path id="path3434" stroke="#000" stroke-width=".58358" d="m340.39 202.11c0.96-0.81 1.89-1.66 2.84-2.48 1.34-1.19 2.72-2.28 4.09-3.41 1.33-1.16 2.76-2.14 4.21-3.07 1.42-0.84 2.91-1.53 4.41-2.15 1.45-0.59 2.91-1.13 4.38-1.67l-0.42 0.33c-1.46 0.53-2.92 1.07-4.37 1.67-1.5 0.62-2.99 1.3-4.41 2.14-1.16 0.75-2.29 1.57-3.36 2.5-1.36 1.13-2.75 2.22-4.08 3.41-0.95 0.82-1.88 1.66-2.83 2.48l-0.46 0.25z"/>
      <path id="path3440" stroke="#000" stroke-width=".58358" d="m284.15 197.3c1.25 0 2.5 0.15 3.74 0.39 2.4 0.54 4.73 1.42 7.01 2.47 2.35 1.12 4.57 2.56 6.76 4.06 1.99 1.44 3.93 2.97 5.85 4.55 1.08 0.93 0.56 0.47 1.55 1.38l-0.42 0.3c-0.99-0.91-0.47-0.45-1.55-1.38-1.92-1.58-3.86-3.12-5.85-4.55-2.18-1.5-4.41-2.94-6.76-4.06-2.27-1.05-4.6-1.93-7.01-2.45-1.24-0.24-2.49-0.39-3.75-0.39l0.43-0.32z"/>
      <path id="path3442" stroke="#000" stroke-width=".58358" d="m413.92 207.99c1.37-1.27 2.78-2.45 4.23-3.58 2.41-1.86 4.98-3.37 7.56-4.86 1.41-0.85 2.85-1.63 4.34-2.29l-0.41 0.32c-1.48 0.67-2.92 1.44-4.33 2.29-2.29 1.32-4.59 2.63-6.72 4.29-1.44 1.13-2.86 2.31-4.21 3.57l-0.46 0.26z"/>
      <path id="path3444" stroke="#000" stroke-width=".58358" d="m416.19 208.43c1.9-0.77 3.88-1.2 5.87-1.53 2.97-0.41 5.96-0.39 8.94-0.29 0.37 0.01 0.74 0.01 1.11 0.02l-0.41 0.31c-0.37 0-0.74-0.01-1.11-0.02-2.98-0.1-5.97-0.12-8.93 0.29-2 0.33-3.98 0.77-5.89 1.55l0.42-0.33z"/>
      <path id="path3446" stroke="#000" stroke-width=".58358" d="m416.11 209.91c1.87-1.42 3.99-2.26 6.1-3.03 1.68-0.57 3.39-1.04 5.09-1.53l-0.4 0.32c-1.7 0.49-3.41 0.96-5.09 1.53-1.79 0.66-3.62 1.33-5.25 2.46l-0.45 0.25z"/>
      <path id="path3454" stroke="#000" stroke-width=".58358" d="m308.17 204.5c0.66 0.95 1.08 2.08 1.5 3.19 0.34 0.9 0.66 1.81 0.98 2.71l-0.44 0.3c-0.32-0.91-0.63-1.82-0.97-2.72-0.42-1.11-0.83-2.24-1.51-3.18l0.44-0.3z"/>
      <path id="path3456" stroke="#000" stroke-width=".58358" d="m414.14 209.34c1.47-1.08 3.03-1.93 4.62-2.73 2.57-1.24 5.21-2.31 7.86-3.29 2.16-0.82 4.36-1.46 6.59-1.92l-0.41 0.32c-2.23 0.46-4.42 1.1-6.58 1.91-2.65 0.99-5.29 2.06-7.87 3.3-1.28 0.65-2.55 1.31-3.75 2.15l-0.46 0.26z"/>
      <path id="path3466" stroke="#000" stroke-width=".58358" d="m398.16 205.56c1.38 0.48 2.54 1.64 3.64 2.7 2.12 2.36 3.98 5.05 5.87 7.68 1.26 1.87 0.67 0.93 1.78 2.8l-0.42 0.29c-1.11-1.87-0.52-0.94-1.78-2.8-1.88-2.64-3.74-5.32-5.87-7.68-1.1-1.05-2.26-2.21-3.65-2.66l0.43-0.33z"/>
    </g>
  </g>
  <metadata>
    <rdf:RDF>
      <cc:Work>
        <dc:format>image/svg+xml</dc:format>
        <dc:type rdf:resource="http://purl.org/dc/dcmitype/StillImage"/>
        <cc:license rdf:resource="http://creativecommons.org/licenses/publicdomain/"/>
        <dc:publisher>
          <cc:Agent rdf:about="http://openclipart.org/">
            <dc:title>Openclipart</dc:title>
          </cc:Agent>
        </dc:publisher>
        <dc:title>Duvelena</dc:title>
        <dc:date>2008-09-18T21:01:32</dc:date>
        <dc:description>The Belgium hero for the Lappian Monkeys comic; a comic dedicated to the Lappis student accommodation in Stockholm.</dc:description>
        <dc:source>http://openclipart.org/detail/19554/duvelena-by-gounis_vn-19554</dc:source>
        <dc:creator>
          <cc:Agent>
            <dc:title>gounis_VN</dc:title>
          </cc:Agent>
        </dc:creator>
        <dc:subject>
          <rdf:Bag>
            <rdf:li>belgium</rdf:li>
            <rdf:li>cartoon</rdf:li>
            <rdf:li>clip art</rdf:li>
            <rdf:li>clipart</rdf:li>
            <rdf:li>comic</rdf:li>
            <rdf:li>image</rdf:li>
            <rdf:li>lappis</rdf:li>
            <rdf:li>lena duvel</rdf:li>
            <rdf:li>media</rdf:li>
            <rdf:li>png</rdf:li>
            <rdf:li>public domain</rdf:li>
            <rdf:li>scream theory</rdf:li>
            <rdf:li>svg</rdf:li>
          </rdf:Bag>
        </dc:subject>
      </cc:Work>
      <cc:License rdf:about="http://creativecommons.org/licenses/publicdomain/">
        <cc:permits rdf:resource="http://creativecommons.org/ns#Reproduction"/>
        <cc:permits rdf:resource="http://creativecommons.org/ns#Distribution"/>
        <cc:permits rdf:resource="http://creativecommons.org/ns#DerivativeWorks"/>
      </cc:License>
    </rdf:RDF>
  </metadata>
</svg>
