<?xml version="1.0"?>
<svg xmlns:rdf="http://www.w3.org/1999/02/22-rdf-syntax-ns#" xmlns="http://www.w3.org/2000/svg" xmlns:cc="http://web.resource.org/cc/" xmlns:xlink="http://www.w3.org/1999/xlink" xmlns:dc="http://purl.org/dc/elements/1.1/" xmlns:svg="http://www.w3.org/2000/svg" id="Layer_1" style="enable-background:new 0 0 225.36 274.624" xml:space="preserve" viewBox="0 0 225.36 274.624" version="1.1" y="0px" x="0px">
<g clip-rule="evenodd" fill-rule="evenodd">
	<path d="m134.88 0c1.732 0.028 3.175 0.346 4.561 0.72 0.765 17.499 2.489 32.419 1.92 51.12-1.221 0.43-3.803 0.334-5.04 0 0.589-5.562-0.025-13.579-0.24-17.52-0.206-2.408-0.254-4.984-0.479-7.44-0.206-2.237-0.119-4.654-0.96-6.24 1.124-1.651-0.07-3.984-0.24-6.24-0.311-4.123 0.018-8.858-0.96-12.72 0.42-0.623 0.93-1.148 1.44-1.68z"/>
	<path d="m124.32 0.48c2.498 3.536 1.32 9.137 1.68 13.44 0.22 2.629 1.176 6.404 1.44 9.84 0.183 2.377-0.164 4.777 0 7.2 0.459 6.796 1.629 13.624 1.2 21.36-0.583 0.749-1.025 0.145-2.16 0.24-1.111 0.088-1.77 1.088-2.88 0.48-1.512-1.335 0.035-4.995-1.2-6.96 1.545-3.487-0.836-7.075 0-10.32 0.373-0.854-0.815-0.145-0.72-0.72-0.116-0.756 0.736-0.543 0.479-1.44-0.528-1.088-0.153-2.315-0.24-3.6-0.229-3.414-1.091-7.271-1.439-11.28-0.155-1.783-0.021-3.704-0.24-5.52-0.119-0.988-0.378-1.936-0.479-2.88-0.235-2.184-0.09-3.356-0.721-6-0.248-1.041-0.925-2.118-0.72-2.64 0.73-1.867 4-1.039 6-1.2z"/>
	<path d="m110.4 1.2c1.233 1.038 1.079 2.978 1.2 4.56 0.269 3.524 0.554 6.944 0.96 10.08 0.208 1.61 0.306 3.279 0.96 4.56-0.154 2.535 0.469 5.334 0.96 8.64 0.592 3.985 0.891 8.655 1.439 11.76 0.679 3.834 1.572 8.439 1.92 12.72-11.25 4.335-24.1 7.303-34.32 12.48-0.75 0.38-1.443 0.697-1.92 1.44-12.204 4.916-23.424 10.816-32.88 18.48-2.092-1.787-2.865-5.005-3.84-7.68-1.041-2.855-2.223-5.447-2.88-8.16-0.023-0.895-0.937-0.016-0.96-0.48 0.654-2.276-0.659-4.451-1.2-6.72-0.56-2.347-0.947-4.855-1.44-7.44-0.588-3.084-1.203-5.51-1.68-9.12-0.082-0.62-0.312-1.522-0.48-2.16-0.159-0.605-0.623-1.304-0.72-1.92-0.414-2.628 0.434-5.467-0.72-7.92 0.911-1.302 0.049-2.334 0.48-3.6 0.744-2.186 3.946-2.565 3.84-4.8 0.638-0.002 1.371 0.091 1.68-0.24 7.986-5.134 16.804-9.436 26.64-12.72 3.268-2.332 8.36-2.839 12-4.8 1.703 0.17 3.155-0.53 4.56-0.96 1.967-0.603 4.147-1.125 6.24-1.68 3.647-0.967 7.539-1.487 11.04-2.4 2.095-0.547 4.64-1.001 7.2-1.2 0.134-0.346 0.374-0.585 0.72-0.72h1.2z"/>
	<path d="m173.52 6.72c2.694 1.979 7.125 2.979 8.16 6.24 0.541 1.706 0.216 4.662 0.239 6.96 0.088 8.385-0.93 16.153-2.159 24.48-0.878 5.941-1.354 11.7-2.881 15.84-1.784 0.483-2.47-1.475-3.6-2.16-0.438-0.266-0.996-0.219-1.44-0.48-3.077-1.81-6.172-3.33-10.56-4.32-3.209-0.725-6.77-0.976-11.04-0.96-0.095-12.672 0.259-32.496-0.72-45.84-0.125-1.702-0.665-3.394-0.24-4.8 1.133-0.731 4.121 0.038 6.48 0.48 4.219 0.79 7.767 1.797 11.52 2.88 2.29 0.661 4.26 1.619 6.24 1.68z"/>
	<path d="m131.76 57.6h0.72c0.45 3.231 1.077 7.561 0.72 10.8-0.941-0.251-0.589-1.643-0.72-2.4-0.351-2.022-0.696-5.374-0.96-7.68-0.07-0.387 0.23-0.413 0.24-0.72z"/>
	<path d="m171.84 72.96c0.015 1.074-2.25 0.812-2.88 0.48 0.08-1.055 2.57-1.087 2.88-0.48z"/>
	<path d="m168.72 90.72c2.134 0.025 3.967 0.352 5.279 1.2 0.354 1.806 1.556 2.765 3.12 3.36-1.326 1.832-4.309-0.338-4.08-2.4-1.06-1.102-3.91-0.413-4.32-2.16z"/>
	<path d="m135.6 114h1.439c1.114 1.261 0.076 3.068 0 4.8-0.043 0.997 0.29 2.024 0.24 3.12-0.17 3.742-1.456 7.84-4.8 7.44-0.707-1.138 0.206-2.433 0.72-3.12 0.636-3.853 3.253-6.976 2.4-11.52v-0.72z"/>
	<path d="m114.72 117.84c3.209-0.57 4.132 1.148 5.28 2.64 0.777 0.297 0.184-0.776 0.96-0.48 3.475-0.089 1.068 4.219 3.84 4.8-0.1 2.499-0.419 4.048 1.2 5.04-0.104 0.536-0.424 0.856-0.96 0.96-0.788 2.28-3.915 4.951-6 6.48-0.668 0.49-2.215 1.79-3.359 1.44-0.245-1.045 0.496-1.104 0.72-1.68-0.38-0.753-1.249-1.865-0.24-2.64-0.382-0.578-2.123 0.203-1.68-1.2-0.719 0.481-1.054 1.347-2.64 0.96 0.17-0.97-0.23-1.37-1.2-1.2 0.015-0.895-0.242-1.518-0.48-2.16-0.728-0.007-0.232 1.208-0.96 1.2-1.398-0.927-2.431 0.545-3.84-0.48-0.532-0.132-0.342 0.458-0.72 0.48-0.964 0.084-1.756-0.004-1.92-0.72-1.682 1.688-4.206 2.244-7.2 1.44v-0.72c-1.531 0.616-2.253-0.445-3.84 0-0.639 1.201-1.365 2.315-2.64 2.88-0.753 0.114-0.634-0.646-1.2-0.72-1.924 0.876-1.993 3.607-4.8 3.6-0.106-0.214-0.21-0.43-0.48-0.48-0.346-1.21 0.871-1.649 0.24-2.4-0.729 0.231-0.522 1.397-0.96 1.92-0.83 0.19-1.013-0.267-1.44-0.48-0.427 2.693-1.791 4.45-2.88 6.48-0.794 0.393-1.834 0.242-2.4-0.24-0.079-1.919 0.36-3.32 1.68-3.84-0.166-3.126 0.763-5.157 1.44-7.44h1.2c0.198-0.679-0.338-0.622-0.24-1.2 1.409-0.591 1.973-2.027 2.64-3.36h1.2c1.021-1.7 2.977-2.464 5.76-2.4 1.279-1.52 2.767-2.833 3.6-4.8 0.85-0.11 1.386-0.534 2.4-0.48 0.821-0.101 0.721 0.719 1.2 0.96 1.447 0.007 1.478-1.402 2.4-1.92 1.627 1.233 2.695-0.759 4.08-1.2 1.36 0.48 2.809 0.871 3.6 1.92 0.813-0.387 0.924-1.476 1.68-1.92 1.139-0.099 1.261 0.819 2.4 0.72 1.61-0.55 3.82-2.13 4.56 0.24zm-18.96 13.68c0.591 0.416 1.571-0.383 1.68-1.2-0.566-0.074-0.447-0.833-1.2-0.72-0.014 0.79-0.683 0.92-0.48 1.92z"/>
	<path d="m173.04 136.56c-0.748 1.416-2.626 0.576-3.84 0.24-1.308-0.362-2.603-1.176-3.84-1.2-1.111 1.57-0.214 2.695-0.96 4.32-0.239 0.521-1.373 1.841-2.16 2.4-2.6 1.845-9.527 2.606-11.76 2.16-2.006-0.4-2.94-2.896-3.84-4.8-2.002 0.344-2.403 3.481-5.04 2.4-0.375-0.86 0.641-1.315 1.199-1.92 2.54-2.747 6.314-4.014 11.761-5.28 0.701-0.163 1.212-0.597 1.92-0.72 6.63-1.15 12.41 0.36 16.56 2.4zm-18.72 0.48c0.545 0.415 1.341 0.579 2.4 0.48-0.193-0.833 0.357-0.922 0.239-1.68-0.94 0.34-2.66-0.1-2.64 1.2z"/>
	<path d="m139.44 134.4c0.214 0.106 0.429 0.211 0.479 0.48 0.501 0.932 0.091 2.73-0.479 3.36 0.553 1.655 0.215 3.314 0.479 4.8 1.474 8.255 6.478 13.426 9.841 19.68 1.595 1.133 2.423 2.846 3.84 4.32 0.374 0.389 1.674 0.403 1.199 1.44-1.508 0.877-2.624-0.707-3.6-1.681-3.519-3.509-7.067-8.024-9.6-13.2-2.188-4.469-5.271-12.235-2.88-18.72 0.19-0.21 0.66-0.14 0.72-0.48z"/>
	<path d="m114 143.28c-1.84 1.001-3.401-1.682-6-1.44-0.27 2.45-0.606 4.834-1.44 6.72-3.738 1.829-9.704 2.551-14.88 2.16-0.741-1.419-1.506-2.814-2.16-4.32-1.882 0.598-2.67 2.291-3.6 3.84 0.016 1.185 2.526 0.883 1.68 2.16-0.363 0.882-1.399 0.11-1.92-0.24-1.433 0.181-2.226-0.571-3.36-0.48-1.433 0.114-2.606 1.739-4.32 0.72-0.179-1.378 1.279-1.121 1.92-1.68 2.404-2.388 5.52-5.073 8.88-7.2 3.311-2.097 6.772-3.342 11.52-3.84 4.206-0.441 7.939 0.059 11.04 1.44 0.95 0.42 2.61 0.8 2.64 2.16zm-15.36-1.2v1.2c0.833-0.193 0.923 0.357 1.68 0.24 0.273-0.526 0.619-0.98 0.48-1.92-0.895-0.02-1.518 0.24-2.16 0.48z"/>
	<path d="m41.28 147.12c0.905 0.455 0.575 1.665 0.72 2.16 0.365 1.246 1.042 2.371 1.92 3.36 0.394 0.444 1.058 0.735 1.44 1.2 0.439 0.536 0.705 1.561 1.2 2.16 1.482 1.792 3.767 2.87 3.6 4.56-0.102 1.028-1.574 1.77-2.4 2.641-0.796 0.841-1.88 2.525-1.68 4.56 0.263 2.666 3.031 4.347 3.12 7.92-1.191 0.969-1.069 3.251-3.12 3.36-0.129-1.089 0.482-1.438 0.72-2.16 0.675-2.653-0.978-3.647-1.68-5.52-0.132-0.353 0.352-0.475 0.24-0.721-0.427-0.938-1.457-1.68-1.68-2.399-1.06-3.41 0.998-5.495 3.12-7.44 0.134-1.228-0.87-1.582-0.24-2.64-0.762-0.758-1.685-1.355-2.16-2.4-0.573 1.024-1.704 2.141-2.16 3.601-0.594 1.901 0.184 4.328-1.2 5.76-2.729-2.702-0.559-9.63 0.96-12.48-0.782-1.301-1.939-3.498-1.44-5.28 0.193-0.13 0.389-0.25 0.72-0.24z"/>
	<path d="m124.08 160.56c-1.759 2.306-4.502 2.62-6 5.521-0.626 1.212-0.63 1.861-1.2 3.36-0.677 1.778-0.646 4.045 0 6.72-2.125 2.594-4.243 5.197-5.76 8.399-1.613 0.707-1.916 2.725-4.08 2.881-0.593-0.957 0.898-1.573 1.44-2.16 1.124-2.419 2.811-4.83 4.08-7.681 0.373-0.837 1.017-1.88 1.2-2.64 0.626-2.592 0.336-5.089 1.2-7.2 0.525-1.282 1.64-2.123 1.919-3.6 2.5-0.98 3.98-4.14 7.2-3.6z"/>
	<path d="m137.28 180c-0.97 0.735-1.71-0.419-2.64-0.479-0.325 0.234-0.312 0.809-0.721 0.96-1.076 0.443-1.89 1.149-2.64 1.92-2.027 0.459-3.558 1.924-5.28 3.12-1.499 1.04-3.229 3.155-5.279 2.159 0.368-0.537 0.945-1.045 1.439-1.439 0.788-0.629 1.383-0.911 2.4-1.44 0.724-0.377 1.25-1.226 1.92-1.68 0.45-0.306 1.149-0.361 1.68-0.72 1.436-0.973 3.476-2.544 5.76-3.12-3.017-2.356-7.569-2.029-12-1.2-0.011-0.789-1.025-0.574-0.96-1.44 0.672-2.661 6.405-2.799 8.16-0.96 1.664 0.272 3.377 0.789 4.8 1.44 1.27 0.58 2.93 1.46 3.36 2.88z"/>
	<path d="m100.56 202.08c1.736 0.819 3.123-1.949 5.04-0.96-2.766 2.914-7.362 3.998-12.48 4.56-0.678-0.038-0.559 0.722-1.2 0.721-3.922 0.204-8.495 1.156-12.48 0.96-3.201-0.158-6.808-0.734-7.44-3.36-3.743-0.455-7.477-2.174-9.6-4.56-0.372-0.418-0.574-1.345-0.96-1.92-0.951-1.417-2.714-3.477-2.16-5.28 1.863 0.177 1.836 2.441 2.64 3.6 0.929 1.341 2.493 2.079 3.12 3.601 3.011 2.205 6.734 2.821 11.28 2.64 2.698-0.108 7.029 0.14 9.84-0.48 1.335-0.294 3.372-0.174 4.32-0.72 3.285-1.892 6.721-3.939 9.6-5.28-6.182 1.495-13.269 3.885-19.92 3.36 1.125 0.715 3.915-0.234 5.04 0.48 0.057 0.953-2.329 1.581-3.12 1.68-2.665 0.332-5.532-1.142-7.68 0-3.075-0.846-6.047-1.793-8.64-3.12-0.482-0.489 0.106-0.471 0.24-0.96-0.86 0.258-1.32-0.852-1.68-1.2-0.419-0.404-1.569-0.622-1.2-1.68 1.002-0.286 2.312 0.992 3.6 1.2-1.221-1.606-3.353-2.218-4.8-3.601-0.726-0.693-1.521-1.945-2.16-2.88-0.662-0.967-1.445-2.188-1.68-3.359 2.261 1.081 3.355 3.377 5.04 5.039 0.744 0.734 1.884 1.379 2.88 2.16 0.908 0.713 1.707 1.728 2.64 2.16 2.553 1.185 6.015 1.167 8.88 1.68 1.78 0.319 4.265 1.014 7.2 0.721 3.009-0.301 7.354-1.568 9.84-2.16 5.154-1.228 9.893-4.312 13.44-6.24 1.529-1.759 4.084-2.449 6.24-3.84 0.426-0.275 0.976-0.798 1.44-1.2 1.315-1.141 3.939-2.177 6-3.12 2.187-1.001 4.04-1.719 7.439-2.16 0.758-0.098 1.502-0.785 1.92 0 0.307 1.126-1.259 0.927-1.92 1.2-1.932 0.802-3.905 1.68-5.52 2.641-2.705 2.71-5.364 5.983-8.64 8.399-0.976 0.72-2.104 1.808-3.36 1.681-0.307-0.948 0.7-0.581 0.72-1.2-4.354 1.155-7.657 4.002-11.52 6-1.777 0.919-3.667 1.812-5.52 2.88-1.778 1.024-3.747 2.582-5.52 3.12-4.551 1.38-10.089-0.577-15.36 0.72 7.053 1.786 13.973 0.759 20.88-0.479 1.01-1.311 3.49-1.15 4.32-2.641 1.938-0.143 3.399-0.762 4.32-1.92 2.406-0.313 3.661-1.778 6-2.16-0.137 1.282-1.66 1.863-2.64 2.4-1.99 1.09-4.16 2.15-6.72 2.88zm10.08-13.2c-1.142 1.659-4.327 2.551-5.04 3.84 2.597-0.957 5.437-2.837 8.4-2.64 2.511-2.369 5.124-4.636 7.44-7.2-4.36 1.24-6.48 4.72-10.8 6zm-6.48 4.32c-0.101 1.003 0.719-0.111 0.96-0.24-0.45-0.05-0.53 0.27-0.96 0.24zm-0.24 0.24c-1.19 0.32-0.38 1.13 0 0zm-24.24 5.28c-3.674-0.166-7.204-1.754-10.08-1.92 3.271 0.65 6.712 2.86 10.08 1.92z"/>
	<path d="m131.76 184.56c0.232 0.007 0.186 0.294 0.239 0.48-0.249 1.514-1.655 1.998-2.64 3.12-0.605 0.69-0.871 1.744-1.44 2.399-1.074 1.238-2.68 2.191-3.84 3.36-1.004 1.013-1.493 2.428-2.88 2.88-0.233 0.874 1.169 0.111 0.72 1.2-0.812 0.783-1.013-0.397-1.68-0.479-2.097 2.202-5.033 5.652-8.88 4.56 2.046-1.554 5.354-1.847 6.72-4.08 1.116 0.345 1.099-0.696 1.92-1.44 1.146-1.037 2.87-1.542 3.12-3.6 0.598 0.037 0.743-0.377 1.2-0.479 2.25-2.87 4.46-5.78 7.44-7.92z"/>
	<path d="m122.4 190.8c0.103 1.155-0.852 1.867-1.44 2.4-1.186 1.073-2.275 3.151-4.08 3.359 0.7-2.74 3.178-3.702 4.561-5.76h0.96z"/>
	<path d="m213.12 191.28c0.388-0.068 0.413 0.227 0.72 0.24 0.544 1.939-0.313 3.942 0.721 5.52-1.649 1.889-3.954 2.689-7.92 3.36-2.922 0.494-5.95 0.543-9.841 0.72-3.673 0.167-6.148-0.027-8.399-1.68-0.762 0.043-1.499 0.655-2.4 0.72-0.646 0.046-1.097-0.416-1.92-0.48-0.882-0.068-1.581 0.362-2.16 0.24-1.555-0.328-3.308-1.501-3.84-3.12-1.445-0.794-2.755-1.725-4.08-2.64-1.036 1.05-2.19-0.041-3.12-0.48 0.022-1.026 0.481-1.758 0-2.64 5.248 0.912 6.77 5.551 11.761 6.72v0.721c1.513-0.073 2.842 0.037 4.08 0.239 0.632-1.133-1.781-1.026-1.681-2.399 1.716 0.306 3.699 1.231 5.521 2.399 0.48 0.31 1.266 1.002 2.399 1.2 2.091 0.365 5.127-0.177 7.2-0.479 0.464-0.068 0.762-0.457 1.2-0.48 1.025-0.055 1.827 0.357 2.64 0.24 3.2-0.46 8.56-4.16 9.12-7.92z"/>
	<path d="m203.76 203.52c1.304-0.377 1.494-1.865 3.119-1.921-0.439 2.921-3.148 3.572-4.8 5.28-5.937 1.739-14.374 1.391-18.96-1.439-0.852 0.188-0.842 1.238-1.92 1.199-0.923-0.247-2.27-1.07-1.2-1.92-2.504-0.906-4.689-2.484-6.96-3.84-1.664-0.993-2.411-1.529-3.84-2.88-1.312-1.239-3.75-2.708-5.04-4.08-0.369-0.393-0.745-0.743-0.72-1.439 1.36-0.081 1.621 0.938 2.88 0.96 0.314 1.205 1.974 1.066 2.16 2.399 0.858 0.406 1.859 0.632 2.64 1.2s1.16 1.584 1.92 2.16c1.868 1.416 4.359 2.537 6.721 3.6 1.128 0.508 2.49 1.003 3.84 1.44 1.247 0.404 2.426 1.112 3.6 1.439 3.396 0.947 7.72 0.206 12 0.24-2.139-0.501-5.172-0.108-5.04-2.88 1.598 0.723 4.255 0.385 5.521 1.44 1.177-0.983 2.776-1.544 4.319-2.16 0.08 0.56-0.04 0.92-0.24 1.2z"/>
	<path d="m172.8 206.16c-2.454 0.664-3.698-1.879-5.76-2.4-0.187-0.213-0.258-0.542-0.24-0.96-3.411-2.028-6.122-4.758-8.64-7.68v-0.72c3.609 0.719 5.848 4.865 8.4 7.439 0.825-0.104 1.345 0.095 1.92 0.24 1.07 1.73 4.31 1.29 4.32 4.08z"/>
	<path d="m123.12 199.2c0.03 1.63-1.382 1.818-1.68 3.12-1.57 0.589-1.787 2.532-3.601 2.88-0.709-1.171 0.382-1.594 1.2-1.92 0.487-1.913 2.374-2.427 3.12-4.08h0.96z"/>
	<path d="m111.6 199.68c0.458 1.867-1.906 2.448-3.12 3.36-1.575 1.184-2.962 2.794-5.04 3.84-1.061 0.534-2.256 0.577-3.36 0.96-0.401 0.14-0.577 0.557-0.96 0.72-0.796 0.341-1.832 0.231-2.64 0.48-1.125 0.348-1.569 0.438-3.36 0.72-1.017 0.16-1.524 0.542-3.12 0.24-1.413-0.267-0.866-0.174-2.64 0.72-1.279 0.645-2.213 0.497-2.88 1.44-2.761 0.097-4.958 0.288-7.2-0.24-0.326-0.076-0.41-0.273-1.2-0.479-1.642-0.431-3.964-1.576-5.52-2.641-0.922-0.631-2.037-1.689-2.4-2.64 2.366-0.164 4.015 1.842 6 2.64 0.344 0.139 0.842-0.104 1.2 0 1.173 0.339 2.423 1.149 3.6 1.2 4.521 0.195 8.559-3.779 13.2-3.12-0.224 1.536-2.344 1.176-2.88 2.4 2.607-0.514 4.653-1.587 7.68-1.681 0.346-0.054 0.083-0.716 0.48-0.72 0.85-0.42 0.59 0.16 1.44 0.24 0.619-0.581 2.281-0.119 2.16-1.44 0.803 0.428 2.083-0.857 3.12-1.439 0.998-0.56 1.968-0.741 2.64-1.44 0.143-0.766-0.451-0.742 0-1.2 1.89-0.35 3.05-1.43 4.8-1.92z"/>
	<path d="m189.12 201.6c1.18 0.051 1.952-0.124 2.88 0.24 0.486 0.191 0.284 0.583 0.721 0.96 0.296 0.256 1.483-0.19 0.96 1.2-2.107 0.188-2.7-1.14-4.561-1.2v-1.2z"/>
	<path d="m117.36 205.68c-0.578 1.232-1.859 2.084-2.88 2.88-1.061 0.828-2.264 1.374-2.88 2.641h-1.2c-1.005 1.154-1.509 2.812-3.84 2.64-1.475-2.358 1.072-3.346 3.12-3.6 0.521 0.04 0.109-0.852 0.24-1.2 0.729-0.812 1.27-0.982 2.64-1.68 1.98-1.01 2.88-3.58 4.8-1.68z"/>
	<path d="m102.96 208.08c-0.121 1.639-1.695 1.825-1.2 4.08 1.001 0.507 2.916 0.314 3.6 0.479-0.317 1.631-2.916 1.618-4.32 1.44-0.947 0.093-1.305 0.775-1.92 1.2-3.672 0.585-8.937 0.728-14.4 0.479-2.356-0.106-4.491 0.007-5.28-1.439 0.843-0.919 2.226-0.466 3.12-0.48 3.654-0.06 8.286 0.312 11.04-0.96 2.028-0.937 4.216-2.214 6.24-3.359 1.031-0.584 1.823-0.74 2.4-1.681 0.39-0.07 0.41 0.23 0.72 0.24z"/>
	<path d="m117.6 208.8c-0.173 1.747-1.683 2.158-1.92 3.84-1.923 1.26-4.651 3.33-7.44 4.32-1.682 0.598-4.524 1.608-5.52 0 2.916-1.005 5.726-2.114 7.68-4.08 2.718-0.722 4.549-2.33 6.24-4.08h0.96z"/>
	<path d="m40.8 212.88c0.912 0.644 0.368 2.11 0.24 2.88-0.147 0.884-0.569 1.619-0.72 2.4-0.521 2.708-0.704 5.206-1.2 7.68-0.512 2.558-0.947 4.93-1.68 7.44-0.39 1.335-1.284 2.522-1.68 3.84-1.646 5.47-2.083 11.336-4.8 15.84-0.478 2.81-0.648 5.385-1.68 7.44-0.742 1.479-2.443 2.331-2.64 4.08-2.374 0.247-4.141 2.217-6.24 3.119-1.445 0.622-3.039 1.04-4.56 1.681-2.738 1.153-5.358 2.289-8.4 3.6-2.358 1.017-4.416 2.009-7.44 1.68 0.701-2.258 4.607-1.312 5.76-3.119 3.206-0.475 5.665-1.695 7.68-3.36 2.151-0.042 3.427-1.317 5.04-2.16 0.485-0.253 1.177-0.258 1.68-0.479 3.873-1.71 7.037-4.057 8.16-7.92 0.315-1.085 0.362-2.395 0.72-3.601 0.935-3.147 1.497-6.833 3.12-9.84-0.482-0.973 0.499-1.601 0.72-2.4 0.749-2.708 0.912-5.559 1.68-8.159 0.34-1.152 1.067-2.201 1.44-3.36 0.204-0.633 0.275-1.319 0.48-1.92 0.547-1.603 1.149-4.042 1.68-6.24 0.708-2.93 0.962-5.67 1.92-8.4 0.207-0.193 0.143-0.657 0.48-0.72h0.24z"/>
	<path d="m225.36 244.08c-0.662 1.253-2.254 0.345-3.36 0.24-2.031-0.192-4.02-0.152-6.479-0.48-1.023-0.136-1.948-0.601-2.88-0.72-3.614-0.464-7.313-0.448-11.04-0.96-1.399-0.192-2.672-0.75-4.08-0.96-1.422-0.213-2.875-0.018-4.32-0.24-1.699-0.262-3.505-0.926-5.28-1.2-3.283-0.507-6.087-0.926-8.88-1.68-2.186-0.59-4.087-0.746-5.279-2.4v-0.72c0.194-0.046 0.238-0.24 0.479-0.24 2.622 1.062 4.878 2.009 8.4 2.4-0.012-0.001 0.415-0.027 0.479 0 2.815 1.188 8.199 1.828 12.24 2.4 6.677 0.944 14.46 1.797 22.56 2.64 1.301 0.135 2.735 0.5 4.08 0.72 1.16 0.19 2.73-0.08 3.36 1.2z"/>
	<path d="m141.36 242.64c0.551 0.188 0.233 1.486-0.48 1.2-0.21-0.76 0.21-0.91 0.48-1.2z"/>
	<path d="m193.44 196.56c0.538-1.634 2.587-0.842 4.08-0.72 2.841 0.233 5.648-0.773 7.439-1.68-4.625 0.236-9.641 0.338-13.439-0.72-2.555-0.712-5.389-0.611-8.16-1.44-5.604-1.677-10.669-4.73-15.6-7.44-1.621-0.89-3.369-1.76-4.561-3.119-3.058-0.542-5.096-2.104-8.4-2.4 1.277 0.883 3.378 0.943 4.561 1.92 0.854 1.029-1.506 0.448-1.44 1.44 0.006 1.189 1.753-0.077 1.92 0.479 0.88 0.08 0.97 0.951 2.16 0.72 0.206 1.074 0.566 1.994 1.44 2.4 0.256-0.286-0.492-0.821 0.24-1.44 2.836 1.413 5.82 3.928 6.479 6.721-2.145-0.575-3.037-2.403-5.04-3.12 0.081-1.089-1.373-0.641-0.72-1.68-0.628 0.092-0.671 0.77-1.68 0.479-0.97-1.191-2.189-2.131-3.36-3.12-0.637-0.076 0.225 1.345-0.72 0.96-1.119 0.239-1.059-0.701-1.681-0.96-3.688-0.152-5.062-2.617-8.399-3.12 3.12 1.92 6.81 3.271 7.92 7.2-1.906-0.894-3.562-2.038-4.8-3.6-2.164-1.036-4.371-2.029-5.761-3.84 0.623-0.595 1.178 0.233 2.16 0-0.484-1.195-1.136-2.225-3.12-1.921-1.309-4.957 4.098-6.21 7.2-6.72 0.036 1.976-2.713 2.209-3.84 3.36-0.57 0.583-1.468 1.793-0.72 2.64 0.985 0.206-0.285-1.074 0.479-1.439 2.604 0.355 5.627 0.292 7.681 1.199 1.045-0.043-0.287-1.141 0.72-0.96 0.995 0.766 1.716 1.805 3.84 1.44 1.904 0.896 3.46 2.141 6 2.4 2.708 1.852 5.581 3.539 8.4 5.279 5.144 1.576 9.581 3.858 15.119 5.04 0.495-3.952-0.485-7.437-1.199-11.04-0.92-4.64-1.124-9.096-2.4-13.2-0.363-1.166-0.99-2.341-1.44-3.6-0.439-1.229-0.798-2.526-1.199-3.84-0.775-2.539-1.955-4.908-2.641-7.44-0.774-2.865-1.129-5.7-1.92-8.4-1.221-4.17-3.34-10.316-2.16-15.12-0.332-0.627-2.036 0.117-2.399-0.48-0.194-0.915 0.703-0.737 0.72-1.44-0.778-0.213-2.206-0.679-1.439-1.68-0.493-0.242-1.44 1.112-2.4 1.2-0.75 0.11-0.768-0.513-0.72-1.2-1.616 0.805-1.995-0.393-2.88-0.96-0.822 0.218-0.666 1.415-2.16 0.96-0.65 0.87-0.542 2.499-1.92 2.64-1.32 0.36-1.203-0.718-1.92-0.96-0.899 0.061-0.545 1.375-1.681 1.2-1.455 0.095-1.697-1.022-2.399-1.68-1.583 0.745-2.734-0.485-3.601-1.2-0.28 1.206 0.612 2.092 0 2.88-2.596 0.356-2.614-1.866-4.319-2.4-0.499 1.181-0.793 2.567-1.921 3.12-1.121 0.081-1.415-0.665-1.92-1.2-0.896 0.623-0.378 2.662-1.199 3.36-0.864 0.144-1.354-0.086-1.44-0.72-1.001 1.912-3.499 1.347-4.8 1.92-1.322-0.9-1.425-3.098-0.72-4.8 0.278-0.202 0.643-0.317 1.199-0.24 0.48-1.84 0.911-3.729 3.12-3.84 0.592-1.676 1.686-4.038 3.36-3.84 0.676-0.523 0.835-1.565 1.439-2.16 1.563 0.363 1.909-0.491 2.4-1.2 2.287 0.447 2.549-1.131 3.6-1.92 1.762 0.631 2.646-0.173 3.36-1.2 1.647 0.034 2.956 1.461 4.08 0 1.329-0.289 1.395 0.686 2.4 0.72 1.161 0.122 0.405-1.675 1.439-1.68 1.434 0.087 2.645 0.396 3.601 0.96 0.636-0.244 0.649-1.109 1.199-1.44 2.416 0.304 4.753 0.688 6.721 1.44 0.879 1.281 1.529 2.791 2.88 3.6 0.652-1.981-0.841-4.742-0.721-6.24-0.847-0.898-2.062-0.541-3.84-0.72-5.804-0.584-11.753-1.807-18.96-1.2-2.415 0.203-6.384 0.528-9.12 0.48-3.206-0.057-6.979 0.569-9.359 0.72-9.469 0.598-19.329 1.614-28.56 3.36-4.903 0.928-9.93 1.254-14.88 2.16-3.979 0.729-7.804 1.867-12 2.64-6.645 1.224-12.536 2.575-19.2 3.12-0.752 0.061-1.675-0.113-2.4 0-2.133 0.331-4.155 1.841-6.24 2.4-2.122 4.976-2.759 15.482 0.72 19.44-0.392 0.004 0.384 1.356-0.24 1.68-2.497-0.063-2.984-2.136-4.32-3.36-1.473-0.367-2.437-1.243-3.36-2.16-5.452-1.622-7.808 2.699-9.84 6-1.09 1.771-1.353 3.653-1.92 5.28-0.146 0.42-0.625 0.581-0.72 0.96-0.206 0.826-0.096 1.897-0.24 2.64-0.709 3.652-1.194 6.493-0.96 11.52 0.102 2.183-0.212 4.391 0.24 6.48 0.273 1.264 1.191 2.614 1.68 4.08 0.501 1.504 0.763 2.864 1.44 4.08 2.623 4.712 4.832 9.437 9.84 11.279 0.815 0.065 1.946-0.186 2.4 0.24 0.301 2.088-1.452 3.794-2.16 5.76-0.417 1.158-0.611 2.719-0.96 4.08-0.979 3.825-1.953 9.911-0.96 15.36 0.169 0.929 0.641 1.887 0.96 2.88 1.304 4.054 2.34 7.877 4.8 11.04 1.882 2.42 4.034 4.4 6 6.24 2.684 0.503 4.138 3.037 6.24 4.32 1.49 0.909 3.789 1.633 5.76 2.399 11.079 4.311 34.092 3.374 45.6-0.24 1.747-0.548 3.501-1.271 5.28-1.92 1.762-0.642 3.746-1.058 5.279-1.68 0.646-0.262 1.013-0.907 1.681-1.2 1.74-0.763 4.298-1.019 6.24-1.68 0.71-0.242 1.306-0.811 1.92-0.96 2.147-0.522 5.449-0.109 7.92-0.48 0.2-0.029 0.754-0.467 0.96-0.479 2.098-0.136 4.502 0.054 6.479 0 9.529-0.262 17.338-0.513 24-4.32 1.308-0.747 2.541-1.9 3.84-2.88 0.843-0.635 1.302-0.684 1.92-1.44 2.441-2.983 4.863-6.497 6.24-10.56-0.021-0.779-1.431-0.169-1.2-1.2-1.392-0.128-3.506 0.466-3.6-0.96-1.666 0.506-3.78 0.477-5.52 0.24-2.786-0.379-4.815-2.482-6.721-2.4 0.111 1.249 2.031 0.689 2.16 1.92-4.096 0.054-7.786-3.521-12.24-3.119-0.508-0.853-1.656-1.063-3.12-0.961-0.924-0.436-1.077-1.643-2.399-1.68-0.977-0.177-0.812 0.789-1.2 1.2-1.605-0.395-1.766-2.234-2.64-3.36-0.854-0.267-1.489-0.75-2.16-1.199-0.896-0.096-0.101 1.499-0.72 1.68-1.443 0.082-1.252-1.469-1.681-2.4-1.303-0.022-1.65 0.91-2.399 1.44-1.184-1.146-2.398 0.225-3.12 0.96-0.727-0.073-0.857-0.743-1.92-0.48-1.71 1.49-3.149 3.251-4.32 5.28-1.798 0.442-3.037 1.442-3.6 3.12-1.006 0.205-0.526-1.074-0.96-1.44-1.264 0.737-2.291 1.71-3.36 2.641-1.934 0.021-3.356 1.715-5.04 1.2-2.587 1.093-4.547 2.812-7.68 3.359 0.434-1.006 1.627-1.253 2.4-1.92 2.921-2.838 5.81-5.71 8.4-8.88 0.654-0.175 0.483 0.477 0.96 0.479 0.727-0.938 1.426-1.9 2.16-2.88 0.619-0.826 1.188-2.186 2.399-2.399 0.272 2.219-1.831 4.068-2.399 6.24 2.96-1.841 4.104-5.497 6.72-7.681 0.85-2.19 1.478-4.603 2.64-6.479 0.633-0.072 0.788 0.332 0.721 0.96 0.57-1.19 0.958-2.562 1.199-4.08 0.679-0.198 0.622 0.338 1.2 0.24-0.298-1.24-0.467-3.402 0.24-4.32 1.372 0.408 1.33 5.435 0.24 6.24-1.561 0.304 0.075-1.196-0.72-1.44-0.057 3.464-1.425 5.615-2.16 8.4-1.136 0.121-2.12 0.931-1.44 2.16 2.651-1.589 2.499-5.981 5.521-7.2 0.071-1.703 0.418-3.543 0.479-5.28 0.071-2.017-0.528-4.096 0.48-5.52 0.917 0.716 0.997 2.562 0.96 4.079-0.039 1.595-0.139 3.872-0.48 5.28-0.296 1.221-1.643 2.067-0.96 3.12 1.328-0.195 1.341-3.777 3.12-4.32 0.907-0.205 0.85 1.075 0.48 1.44 0.942 0.577 1.673 1.366 3.119 1.439 0.759 0.119 0.09-1.19 0.96-0.96-0.915-2.444-2.898-3.821-3.84-6.239 1.789 0.131 2.475 1.365 3.12 2.64 1.857 1.022 2.857 2.903 3.84 4.8 2.174 0.387 1.52 3.601 4.08 3.601 0.531-0.242-0.591-0.826-0.24-1.681 1.194-0.233 0.95 0.971 1.681 1.2-1.471-3.089-4.585-4.535-5.76-7.92 2.188 0.371 3.2 1.919 3.84 3.84 1.282 0.168 0.827 1.298 2.399 0.72 1.127 3.273 4.686 4.115 5.761 7.44 2.095 0.707 3.106 3.771 6.239 2.64 0.496 1.82 5.059-0.244 5.28 2.4-1.621 0.262-2.111-0.608-3.6-0.48 2.559 1.213 6.465 2.32 9.6 2.16 0.989 0.371 1.377 1.344 3.12 0.96-0.808-0.712-1.909-1.131-3.36-1.199-0.874-0.79-2.021-1.274-3.12-1.921-0.907-0.533-2.372-0.93-2.64-2.159 2.765-0.66 4.749 1.473 7.68 1.439-0.274 0.755 0.377 0.583 0.48 0.96 2.312 0.001 4.859 1.134 7.2 0.721 1.164-0.206 1.771-1.115 2.88-1.2-0.197 1.655 0.095 2.323-0.72 3.359-1.19 0.674-3.326 0.553-4.561 0 0.131 4.34-2.313 8.051-3.84 11.521-1.098 0.515-1.185 1.795-1.92 2.64-0.936 1.076-2.736 1.516-3.12 3.12-0.408 0.088-0.453-0.188-0.48-0.479-2.764 4.035-5.627 7.973-10.319 10.079-0.59 0.371-0.956 0.965-1.44 1.44-1.765 0.636-3.473 1.327-4.8 2.4-2.325 0.214-4.354 1.624-6.72 2.399-5.352 1.756-11.608 3.052-18.24 3.36-4.977 0.231-10.253 0.227-15.12 0-1.921-0.09-4.043 0.138-5.76-0.24-0.463-0.102-0.372-0.427-0.72-0.479-2.802-0.425-5.601-0.091-7.92-1.44-8.03 1.289-20.404 1.67-29.76 0.96-2.813-0.214-6.176-1.182-8.64-1.92-3.293-0.986-6.427-2.53-9.36-4.32-1.365-0.833-2.492-1.039-3.12-2.399-0.969 0.083-1.72-0.696-2.4-1.2-6.078-4.503-10.132-13.166-11.52-22.8-0.127-0.37-0.25-0.016-0.24 0.239-0.312-7.983 0.676-15.906 4.08-22.079-5.519-1.68-8.308-5.614-11.04-11.04-0.453-0.899-0.919-1.953-1.44-2.881-0.146-0.259-0.579-0.414-0.72-0.72-1.044-2.255-1.593-5.474-1.92-8.88-0.058-0.604-0.459-1.23-0.48-1.68-0.146-3.231 0.615-6.611 0.72-9.84 0.077-2.376-0.055-5.198 0.48-7.44 0.037-0.156 0.656-0.413 0.72-0.72 0.081-0.391-0.407-0.569-0.24-0.96 0.233-0.545 0.883-1.028 1.2-1.68 0.634-1.305 0.976-2.317 1.68-3.6 0.913-1.663 1.709-2.05 2.88-3.6 0.452-0.598 0.549-1.523 0.96-1.92 0.719-0.694 3.112-1.845 4.08-1.92 3.175-0.247 4.511 1.949 6.96 2.88-0.488-3.208-1.131-7.551-0.24-11.04 0.389-1.524 1.196-2.974 1.92-4.08-0.516-0.604-0.901-1.338-1.44-1.92-0.016-3.861-2.346-7.061-2.16-11.28 0.034-0.767 0.456-1.583 0.48-2.4 0.101-3.373-1.833-6.673-1.44-10.08 0.268-2.324 1.509-3.792 0-5.76 0.102-0.858 0.639-1.281 0.48-2.4 0.731-0.389 1.291-0.949 1.68-1.68 2.054-0.505 3.445-1.675 5.28-2.4 2.938-2.679 6.644-4.161 10.08-6 0.685-0.366 1.292-1.13 1.92-1.44 0.609-0.3 1.326-0.203 1.92-0.48 0.938-0.438 1.491-1.187 2.4-1.68 0.993-0.538 2.333-0.715 3.36-1.2 1.835-0.866 3.604-1.949 5.52-2.88 1.249-0.608 2.729-0.968 4.08-1.68 1.56-0.822 3.967-2.208 6-3.12 3.939-1.768 8.043-3.139 12.96-4.56 2.387-0.69 4.785-1.775 7.2-2.4 2.24-0.58 5.149-0.516 6.96-1.68 2.983-0.336 6.014-1.713 9.359-2.16 0.648-0.086 1.323 0.111 1.92 0 1.376-0.257 2.694-0.982 4.08-1.2 2.862-0.451 6.12-0.104 9.12-0.24 4.098-0.187 8.61-0.771 12.96 0.24 0.558 0.129 1.121 0.597 1.681 0.72 1.726 0.379 3.594 0.308 5.279 0.72 1.566 0.383 3.26 1.256 5.04 1.92 1.255 0.468 2.466 1.033 3.601 1.44 1.125 0.404 1.958 0.482 3.119 1.2 0.486 0.3 0.747 0.938 1.2 1.2 1.604 0.926 3.334 1.441 4.32 3.12 0.662 5.459 0.136 10.895 0.24 16.08 0.041 2.059 0.716 4.045 0.72 6 0.003 1.385-0.573 2.752-0.48 4.08 0.086 1.215 1.499 3.643 0.48 5.76 4.225 1.055 9.271 1.289 11.76 4.08 0.502 3.613-2.055 4.935-3.84 6.72-1.632 1.632-4.628 2.925-6.96 4.08 0.17 1.91 0.577 3.583 0.48 5.76 1.799 2.287 0.769 6.621-1.44 7.68-2.156 9.332 2.161 17.791 4.08 25.44 0.355 1.416 0.268 2.783 0.72 4.08 0.196 0.562 0.73 0.905 0.96 1.44 0.771 1.792 1.222 3.983 1.92 6 2.157 6.224 3.375 12.603 4.32 20.88 0.239 2.094 0.402 4.781 0.24 7.68 2.36 0.914 5.707 0.879 8.399 1.2 0.486 0.058 1.193 0.044 1.681 0 4.664-0.422 10.637-1.179 12-4.561 0.457-0.103 0.603-0.517 1.199-0.479 0.136-0.585 0.206-1.234 0.961-1.2 0.493-1.986 1.079-3.88 2.399-5.04 1.397 1.12 0.493 3.938 0 5.04-0.408 0.912-1.111 1.604-2.399 2.88-1.021 1.009-1.907 2.003-3.12 2.641-1.673 0.879-4.145 0.975-5.521 2.159-1.403 1.209-2.603 2.578-3.84 3.36-2.85 0.02-6.37 0.37-9.84-0.48zm-55.68-140.4c0.723 6.171 1.271 9.655 1.68 16.08 1.749-1.451 2.604-3.795 6-3.6-0.557-1.363-2.257-1.583-2.641-3.12 0.225-0.976 1.337-1.063 1.681-1.92 0.116-2.756-0.697-4.583-0.48-7.44-1.61-0.44-4.02 0.27-6.24 0zm7.44 0c-0.471 2.026 0.468 4.626 0.24 7.2 1.867-0.187 3.143 0.217 4.32 0.72-0.121-2.759-0.357-5.403-0.721-7.92-1.45 0.25-3-0.412-3.84 0zm-8.16 0.48c-0.053-0.187-0.201-0.279-0.479-0.24-2.982 1.098-7.652 0.508-10.561 1.68 0.101 1.306 1.408 3.537 0.48 4.32-0.454 0.054-0.529-0.271-0.96-0.24 0.69-1.191-0.732-2.075-0.24-3.84-1.926 0.291-3.085 0.781-5.52 0.96 0.122 0.625 0.764 2.925-0.24 3.12-0.552-0.44-0.693-2.192-0.24-2.88-1.23 0.45-2.92 0.44-4.08 0.96 0.314 0.909 1.4 3.283-0.24 3.36-0.304-1.027-0.794-2.595 0-3.36-1.75 0.49-3.498 0.983-5.52 1.2 0.039 1.804 1.002 3.953 0.24 5.76-1.566-1.045-0.582-3.259-0.96-5.28-4.127 1.232-8.377 2.343-12.48 3.6-0.167 2.222 0.622 2.851 0.48 4.56 4.773-1.333 4.695 2.557 3.12 5.04 1.78 0.341 2.029-0.851 3.6-0.72-0.65-1.774-0.833-4.666-1.2-6.96-0.169-1.059-1.306-3.091 0.24-3.36 1.021 2.898 1.176 6.664 1.68 10.08 2.41-0.25 3.841 0.479 5.28 1.2 0.085-1.206-0.064-2.176-0.48-2.88-1.603-0.158-2.796-0.724-3.84-1.44-0.698-3.517 3.143-3.501 6.24-3.6-0.27-1.95 0.469-2.892 1.44-3.6 2.846-0.526 3.499 1.141 5.04 1.92 0.431-5.107 4.49-1.235 6 0-0.073-0.874 0.038-1.562 0.24-2.16 3.414-1.729 8.178 0.119 7.92 4.32 1.002 0.918 3.095 0.746 4.8 0.96 0.742 0.058 0.406 1.194 1.44 0.96-0.35-5.021-0.84-8.758-1.2-13.44zm13.68 8.4c0.655 0 1.54 0.999 2.159 0.24-0.713-0.327-0.421-1.659-0.479-2.64 0.7-0.58 1.658-0.902 3.12-0.72-0.091-2.182-0.219-2.838-0.24-5.04-2.159 0.319-3.234-0.446-5.04-0.48 0.07 2.951 0.47 6.377 0.48 8.64zm5.28-7.92c0.259 1.741 0.287 3.713 0.48 5.52 1.733-0.105 2.48 3.085 3.6 3.12 0.386 0.012 0.455-1.236 1.2-0.72 0.083-2.562-0.632-4.328-0.48-6.96-1.15-0.65-3.61-1.136-4.8-0.96zm6.48 7.2c0.567-0.552 2.154-0.086 3.12-0.24 1.022 0.257 0.601 1.959 1.92 1.92 0.517-1.402-0.212-3.625-0.24-5.28-1.946-0.534-3.708-1.252-5.52-1.92 0.56 1.841 0.04 3.591 0.72 5.52zm6.24 1.92c1.56 0.2 3.08 0.439 3.84 1.44-0.323-1.098-0.435-3.482 0-4.56-1.266-0.655-2.945-0.895-4.08-1.68-0.09 1.767 0.06 3.298 0.24 4.8zm-13.68-3.12c-2.212 0.012-1.123 1.173-0.96 3.6-3.775 1.417-5.839-4.133-9.359-1.44 0.231 1.928 2.37 1.949 2.159 4.32-2.592 0.128-4.442 0.997-5.52 2.64 3.016 5.464 5.604-2.347 10.56-0.24 0.387 2.714 2.382 6.911 5.28 4.8-0.382-0.978-0.848-1.873-1.2-2.88 3.758-3.5 6.152 4.448 10.08 4.56-0.312-1.687-2.041-1.958-1.92-4.08 2.062-0.301 2.534 0.986 3.84 1.44 0.145-0.496 0.371-0.909 1.2-0.72-0.086 0.714-0.382 1.218-0.72 1.68 0.758 0.362 1.026 1.214 2.16 1.2-0.079-0.986-0.932-1.484 0.239-1.92 1.098 0.343 1.023 1.857 1.2 3.12-0.711 0.208-2.162 0.001-3.12-0.24 0.876 2.484 0.329 6.391 0.48 9.6 0.721-0.319 1.836-0.244 2.88-0.24 0.161-1.201-0.223-1.857-0.24-2.88 0.734 0.174 0.706-0.414 1.44-0.24-0.249-4.57 0.286-10.46-0.96-14.64-0.177 0.687-0.983 1.536-1.681 0.96 0.011-1.27 1.086-1.474 0.721-3.12-2.399-2.174-6.047 0.663-8.4-0.48 0.179-1.261 1.62-1.26 2.16-2.16-0.527-1.303-2.142-0.767-2.88-0.48-1.148 0.445-1.647 2.689-3.12 2.16-0.89-1.103-2.37-4.33-4.32-4.32zm19.68 22.08c1.079 0.44 2.002 1.038 2.88 1.68-0.468-2.412-0.577-4.666-0.48-7.2 0.121-3.143-0.553-6.917-0.479-9.6 0.039-1.441 0.612-3.091 0.239-4.08-0.548-1.452-2.529-2.154-3.84-2.64 0.82 7.553 1.32 13.963 1.68 21.84zm-43.68-16.8c0.9-4.477-7.359-6.191-6.24-2.16 0.231 0.833 0.252 1.258 0.48 2.64-0.995-0.205-2.952 0.552-2.88-0.72 0.106-0.693 1.813 0.213 1.92-0.48-0.257-0.463-0.459-0.981-1.44-0.72-1.273-0.726-1.675-2.325-3.6-2.4-0.71 1.142 0.627 2.854-0.72 3.36-3.032 0.392-2.402-2.878-4.8-3.12-1.203 0.478-1.289 2.071-1.2 3.84-1.802 1.314-6.424-1.18-6.24 2.4 2.374 2.039 8.076-2.185 8.64 2.16-0.408 1.032-1.858 1.022-1.92 2.4 0.237 1.123 1.446 1.274 2.88 1.2 1.103-0.704 1.691-2.787 3.36-2.88 2.12-0.117 2.188 1.337 2.16 3.6 3.207 1.076 3.846-5.374 6.96-2.88 0.389 1.384-0.091 1.382-0.24 2.64 3.163 0.268 2.435-5.394 5.28-6.24 1.148 0.367 3.138 0.713 3.84-0.48-1.5-1.304-5.43-0.17-6.24-2.16zm-41.04 0.24c0.505 2.294 1.014 4.586 1.44 6.96 1.135 0.175 1.578-0.342 2.16-0.72v-2.4c0.507-1.013 1.822-1.218 2.4-2.16 0-1.42-1.156-2.761-0.48-4.08-2.059 0.582-3.75 1.53-5.52 2.4zm-1.2 0.24c-2.029 1.011-3.985 2.095-6 3.12 0.207 2.308 1.52 5.135 1.2 6.48 2.238-0.257 2.087-3.32 3.12-4.8 0.405-0.58 0.988-0.74 1.44-1.2 0.42-0.219 1.197-0.083 1.44-0.48-0.792-0.648 0.003-2.883-1.2-3.12zm6 3.84c-0.171 1.428-0.414 2.786-0.96 3.84-1.17-0.11-2.811 0.251-3.6-0.24 0.183-1.303-0.38-1.86-0.24-3.12-2.877 0.643-2.564 4.476-4.32 6.24-2.629 0.918-3.406-1.538-4.8-1.44-1.965 0.138-0.816 2.656-3.6 2.64-0.085-2.075-1.147-3.173-1.2-5.28-1.627 0.053-2.479 0.881-3.36 1.68 0.521 2.359 1.467 4.293 1.92 6.72 3.253-1.94 7.697-0.897 9.6 1.68 1.387 0.107 2.454-0.106 3.12-0.72 0.347-0.381-0.468-2.279 0.48-2.64 3.671-0.458 3.894 4.576 8.64 3.84-0.423-1.168-1.619-2.458-0.48-3.84 1.942-0.403 3.429 1.502 5.04 1.92 1.091 0.283 2.6 0.612 3.6-0.48-0.688-0.991-2.519-0.841-3.12-1.92 0.313-3.687 6.327-1.673 6.96-5.04-2.426-2.781-6.114 0.033-9.12 0.24 0.073-0.553-0.693-0.267-0.72-0.72-0.205-2.125 1.282-2.558 1.2-4.56-1.929-0.76-4.063 0.222-5.04 1.2zm17.28 23.52c3.162-0.758 6.938-0.902 10.32-1.44-0.607-1.985-2.104 0.228-3.12-0.48 0.509-2.044 1.964-5.18 4.32-3.84 0.04 1.24-1.292 1.109-1.2 2.4 4.044 0.125 2.836-5.004 7.439-4.32 0.798 1.116-0.494 2.366 0 3.12 1.856-0.385 2.699-1.781 3.12-3.6-0.172-0.627-0.864-0.736-0.96-1.44-0.074-1.512 1.072-2.514 1.92-3.12 0.26-0.185 0.634 0.177 0.96 0 0.545-0.295 0.967-1.816 1.681-0.48 0.247 1.127-1.121 0.639-0.96 1.68 0.306 2.238-0.4 6.324 0.239 8.88 1.157-0.443 3.037-0.163 4.561-0.24-0.431-7.334-1.282-14.203-1.92-21.84-1.191 0.249-2.103 0.777-3.36 0.96 0.371 1.517-0.029 3.103 0 4.56 0.035 1.712 1.033 4.054-0.479 4.8-0.668-3.416-0.432-6.939-0.721-9.84-2.56 1.36-1.636 6.204-5.279 6.48-0.509 1.843 1.231 3.54 0 4.56-1.199-0.719-0.342-2.932-0.721-4.32-0.24-0.882-0.942-0.931-0.96-1.68 0.273-0.526 0.62-0.98 0.48-1.92-2.137 0.583-2.168 3.272-4.8 3.36 0.408 0.711 0.61 1.63 0.479 2.88 2.98-0.26 3.797 1.643 5.521 2.64 0.808 0.152 2.229-0.309 2.64 0.24-1.47 2.739-4.989-0.056-6-1.44-1.816-0.216-2.801 0.399-4.08 0.72 0.116 1.244 1.869 0.851 1.92 2.16-1.444 2.827-7.08-1.089-8.64 1.92 0.315 1.125 3.007-0.127 3.359 0.96v1.44c-2.377 0.823-5.885 0.515-6.72 2.88 1.7-0.26 2.435 0.446 2.88 1.44-0.2 0.924-2.29 1.216-1.92 1.92zm-1.92-23.76c0.479 3.541 0.9 8.3 1.44 11.52 0.149 0.889 0.973 1.949 0.24 2.64-0.784-0.299-1.013-1.604-1.2-2.4-0.473-2.012-0.542-4.432-0.72-6.48-1.947 0.854-2.927 2.673-6 2.4-0.029 0.691-1.023 0.417-0.96 1.2 1.659 0.341 2.462 1.538 3.84 2.16 0.628 3.532 0.991 7.33 2.16 10.32 0.37 0.83-0.125 2.524 0.96 2.64 0.566-0.794 1.346-1.374 1.92-2.16-5.732-0.756 0.142-5.25 2.88-4.8-0.787-1.173-1.853-0.996-1.68-2.4 0.229-1.859 3.516-1.308 4.561-2.64-0.31-2.397-1.65-5.493-0.48-6.72 0.632 2.619 1.334 4.856 1.44 7.44 0.943-0.288 1.804 0.734 2.399 0-0.721-0.399-1.499-0.741-1.199-2.16 0.487-0.632 1.501-0.738 2.159-1.2 0.104-1.096-0.242-2.643 0.24-3.36-1.145 0.185-1.581-0.339-1.92-0.96v-2.64c-1.874-0.211-2.499 2.703-4.8 2.88-1.814 0.139-3.604-0.827-3.6-2.4 0.004-1.406 1.403-1.302 1.92-2.64-0.52-1.422-2.45-0.305-3.6-0.24zm-33.6 2.64c0.955 0.965 0.593 3.247 1.68 4.08 0.038-1.975 2.69-2.302 4.56-1.68 0.027-2.027-0.85-3.15-0.96-5.04-2.145 0.496-3.977 1.303-5.28 2.64zm69.84 0c0.067 1.695-0.217 5.814 0.24 7.92 1.801 0.121 2.992-0.367 4.319-0.72 0.217-2.069 0.055-5.407-0.239-7.44-0.088-0.604-0.05-1.793-0.721-1.92-1.67 0.247-3.01 0.829-3.6 2.16zm-4.8 18h4.56c0.138-1.862-0.29-4.29 0.24-5.76-0.689-0.03-1.14-0.3-0.96-1.2 1.896 0.104 3.008 0.991 4.32 1.68-0.036 1.875-0.228 3.907 1.92 3.6 0.148-0.651-0.305-1.905 0.239-2.16 1.756-0.155 2.5 0.7 3.601 1.2 0.412 0.627 0.307 1.774 1.439 1.68 0.712-0.663-0.463-1.729 0.48-2.16 2.69-0.451 2.767 1.713 4.32 2.4 1.32 0.201 1.885-0.354 2.64-0.72 0.827 0.589 0.002 1.542 0.24 2.88 1.692-0.173 2.5 0.54 4.08 0.48 0.287-1.354-0.731-2.524 0.479-2.88 1.111 0.249 0.594 2.126 0.72 3.36 3.086-0.045 5.116 0.964 7.681 1.44 1.552-2.668-1.193-5.271-0.24-8.16-1.034-0.965-1.648-2.351-3.84-2.16-0.078 0.882 0.204 2.125-0.24 2.64-0.241-0.001-0.285 0.194-0.48 0.24-2.325-0.713-4.433 1.151-6.239 1.44-1.382 0.221-3.396 0.133-4.08-0.96 0.598-1.292 2.768-0.539 3.84-0.24-0.447-2.433-4.863-0.897-6.24-2.4-0.175-1.135 0.343-1.578 0.72-2.16-2.064 0.709-7.414 2.552-8.64-0.24-0.033-1.953 3.385-0.456 3.601-2.16-3.145-0.663-5.243 1.796-8.881 1.44-0.553-0.074-0.267 0.693-0.72 0.72-0.467-1.184-2.153 0.222-1.92-1.44 0.101-0.539 1.273-0.006 1.44-0.48 0.185-2.825-0.317-4.963-0.24-7.68-2.429 0.739-4.766-0.449-5.76-1.92 0.41 7.07 1.3 12.573 1.92 19.68zm16.8-16.08c-1.201 1.833-0.015 4.33-0.24 7.2 1.527-0.153 2.814-0.545 4.32-0.72v-5.28c-1.837-1.044-2.104-3.656-4.8-3.84 0 1.118 0.91 1.326 0.72 2.64zm-6.24 4.56c1.975-0.251 4.02-0.064 5.04-0.72-0.359-0.521-0.409-1.351-0.479-2.16-2.92 0.279-3.628-1.652-5.04-2.88 0.07 2.011 0.13 4.028 0.48 5.76zm-77.04 8.64c-0.994-4.795-2.103-8.619-3.36-12.72-0.307-0.013-0.333-0.308-0.72-0.24-0.523 0.916-2.168 0.711-2.4 1.92 1.275 4.245 2.755 8.285 3.6 12.96 0.413-0.013 0.615 0.185 0.72 0.48 1.739 0.219 2.213-0.827 2.88-1.68-0.646 0.165-0.464-0.496-0.72-0.72zm91.44-10.56c-1.473 0.192-2.173-0.388-3.12-0.72v4.08c0.981 0.619 2.795 0.405 2.64 2.16-0.561 1.439-3.123 0.876-4.319 1.68 1.501 0.209 2.926 0.024 4.079 0.48 1.057 0.417 1.572 1.864 2.641 1.44 0.005-3.844 0.095-7.774-0.48-11.04-0.307-0.013-0.332-0.308-0.72-0.24 0.05 1.009 0.09 2.006-0.72 2.16zm-102.96 1.68c0.155 1.525 1.146 2.214 0.96 4.08 1.32-0.47 2.802-0.229 3.36 0.72-0.418 1.102 0.028 3.068-1.2 3.36 0.101 0.685 1.452 1.625 0.24 2.16-0.756-0.044-0.308-1.293-1.2-1.2-0.822 1.818-2.892 2.389-4.32 3.6 1.396 3.136-2.112 5.686-4.08 3.36-0.76 0.52-1.393 1.168-1.68 2.16 0.998 3.099 1.665 5.677 2.4 9.36 1.297-0.224 1.826-1.214 3.36-1.2 1.037 0.483 0.977 2.062 2.16 2.4-0.02-1.187-1.406-2.265-0.72-3.36 1.645 1.076 2.108 3.333 2.4 5.76 1.224-0.456 1.918-1.441 3.36-1.68-0.776-2.306-0.727-4.659-3.12-5.28-2.504-0.649-4.908 1.208-5.76-0.24 1.649-1.216 3.911-1.142 6.48-0.96 1.279 2.035 7.383 3.048 7.68-0.48-0.97-0.17-1.412-2.249-0.48-2.88 2.842 0.171 5.259 2.875 8.4 1.2 0.105-1.065-1.327-0.594-0.96-1.92 2.709-0.794 5.151 1.557 7.92 0.72-0.196-1.404-2.557-0.643-2.16-2.64 1.667-1.453 5.323-0.917 5.76-3.6-2.856-4.206-6.993 1.388-10.08 0 0.174-1.528 0.642-2.33 0-3.84-4.453-1.398-5.837 2.312-8.64 3.36-0.942-0.23-1.468-1.278-2.4-1.44-2.34-0.407-3.869 1.314-5.28 2.4-0.687 3.313-2.241 5.759-5.04 6.96-1.381-0.425-2.652-2.736-0.96-3.6 0.415 0.705-0.021 2.261 0.96 2.4 0.677-1.083 2.249-1.271 2.4-2.88-0.723-0.31-1.835-2.546-0.72-3.12 0.902 0.138 0.412 1.668 1.2 1.92 0.834-0.846 1.263-2.097 1.68-3.36 1.669-1.05 3.598-1.842 5.76-2.4-0.979-0.869-0.529-2.395-0.96-3.6-0.505-1.416-1.168-3.227-1.68-4.8-0.384-1.181-0.501-2.554-1.44-3.36-1.411 0.429-2.374 1.306-3.6 1.92zm-15.12 20.88c1.096 1.463 1.431 3.689 1.44 6.24-0.393 1.195 0.618-1.115 0.72-1.68 0.853 0.685 0.73 2.07 0.96 3.84 0.631 0.561 0.91-0.687 1.68-0.72 0.134-1.654-0.709-2.331-0.72-3.84-0.809-0.23-1.639 0.735-2.16 0 0.007-0.953 0.934-0.986 1.68-1.2-0.052-0.88-1.117-1.884 0.24-2.16 0.185 0.615 0.239 1.36 0.72 1.68 1.916-0.466 0.821-2.289 0.96-3.36 0.272-2.097 1.75-4.757 3.84-5.04 0.803 0.157 0.77 1.15 1.92 0.96 1.346-0.432 0.329-2.058 0.48-3.36 1.937-2.543 6.003-2.957 6.24-7.2-1.639-0.432-2.478 1.193-3.6 0.48-0.189-0.989 1.149-0.451 0.96-1.44-0.379-1.221-1.175-2.025-1.2-3.6-1.219 0.541-2.057 1.463-3.36 1.92 0.233 1.687 0.586 3.254 0.96 4.8 0.349 0.131 1.24-0.28 1.2 0.24-0.027 0.613-0.44 0.84-0.72 1.2-0.744 0.024-1.331-0.109-1.68-0.48-0.451-0.349-0.029-1.571-0.48-1.92-4.184-0.63-3.947 2.834-5.28 5.04-0.894 1.479-2.94 3.13-3.36 4.8-0.179 0.739 0.659 0.461 0.48 1.2-1.006 0.555-1.723 0.45-2.16-0.48-0.187 1.627 0.327 2.55 0.24 4.08zm41.04-0.24c2.195-0.845 4.811-1.269 6.96-2.16-1.218-3.742-1.255-8.665-2.16-12.72-2.593-0.527-3.733-2.507-5.52-3.84-0.327 0.396 0.196 1.4 0 2.4-0.589 0.211-1.384 0.216-1.44 0.96 0.314 1.926 1.122 3.357 1.2 5.52 2.491-0.317 5.523 1.088 5.04 3.6-0.259 1.35-1.959 1.267-2.64 2.64-0.121 1 0.701 1.059 0.48 2.16-0.507 0.529-0.709-0.308-1.44-0.24 0.598 1.3-0.537 1.36-0.48 1.68zm8.4-15.84c-0.449 0.831-1.407 1.153-2.64 1.2 0.838 4.042 1.274 8.486 2.4 12.24 1.723-0.437 3.014-1.307 5.28-1.2-0.048-0.912-1.009-0.911-0.96-1.92-0.224-4.256-1.183-7.777-1.68-11.76-1.43-0.17-1.899-1.301-3.6-1.2 0.231 1.049 1.26 1.299 1.2 2.64zm-23.04-0.96c0.685 1.794 0.804 4.156 1.68 5.76 0.892-0.708 1.566-1.634 3.36-1.44-0.597-1.723-1.575-3.065-1.44-5.52-1.477 0.124-2.607 0.593-3.6 1.2zm5.28 4.08c3.176-0.258 4.626 2.074 3.12 4.56 2.02 0.021 2.644-1.356 4.56-1.44-0.196-2.124-1.298-3.341-1.2-5.76-4.225 1.024-4.652-3.026-7.68-2.4 0.573 1.382 1.802 3.27 1.2 5.04zm-25.68-1.68c1.163-0.837 2.941-1.058 4.56-1.44-0.642-0.318-0.406-1.514-0.96-1.92-0.89 1.43-3.174 1.467-3.6 3.36zm100.08-2.64c1.137 0.177 1.649-0.27 2.64-0.24-0.31-1.123-2.02 0.115-2.64 0.24zm-53.28 0.48c0.622 4.119 2.02 8.673 2.16 12.48 1.816-0.263 3.719-0.441 5.04-1.2-1.322-3.638-1.516-8.405-2.64-12.24-0.62 1.26-2.96 1.395-4.56 0.96zm59.76-0.24c0.953-0.167 2.658 0.418 2.88-0.48-0.74-0.447-2.34-0.044-2.88 0.48zm-27.84 1.2c0.487 0.393 0.664 1.096 1.44 1.2-0.242-0.798 0.53-2.611-0.48-2.64-0.15 0.651-1 0.598-0.96 1.44zm13.92 6.72c1.393-0.445 2.381 0.415 4.08-0.24-2.096-0.436-3.83-1.955-2.64-4.32-0.496-0.464-1.335-0.585-1.92-0.96 0.27 1.67 0.82 4.003 0.48 5.52zm-98.64-2.16c-0.308 1.907 0.892 2.308 0.72 4.08 1.163 0.042 1.334-0.906 1.68-1.68-0.514-0.49-1.618-2.252-0.48-2.88 0.889 0.071 0.108 1.812 1.2 1.68 1.213-0.947 1.9-2.42 2.16-4.32-2.575 0.224-3.93 1.67-5.28 3.12zm81.36 2.88c1.257 0.467 2.868-0.601 4.801-0.24 0.047-0.927 0.008-1.769-0.24-2.4 0.077-0.479 0.774-2.367-0.24-2.4-0.73 2.389-2.44 3.797-4.32 5.04zm-2.16-3.12c-1.119 0.742-1.802 2.972-2.881 3.6-0.097 0.057-1.221-0.227-0.72 0.24 1.907-0.013 3.903 0.063 5.04-0.72-0.62-0.899-0.33-2.706-1.44-3.12zm24.48 2.4c0.966-0.154 2.552 0.312 3.12-0.24-0.824-0.456-0.672-1.888-2.16-1.68-0.22 0.74-0.45 1.466-0.96 1.92zm6 0.48c1.171-0.28 2.575 0.451 3.12 0-1.234-0.206-1.31-1.571-2.64-1.68-0.04 0.68-0.44 1-0.48 1.68zm-67.92 6c-0.355-0.044-0.22-0.58-0.24-0.96h-1.2c0.147 0.509 1.065 1.47 1.44 0.96zm-6.24 4.08c1.24-0.36 2.66-0.54 3.36-1.44-1.459 0.332-3.023-0.487-3.6-0.24 0.536 0.1 0.097 1.18 0.24 1.68zm63.6-0.72c6.755 0.025 13.15-0.823 19.439-0.24 1.814 0.168 3.628 1.198 5.521 0.48-7.01-1.94-17.39-1.14-24.96-0.24zm-72.48 2.16c-0.449 1.071-2.013 1.027-1.68 2.88 1.362 0.002 1.588-1.132 2.88-1.2-0.086-0.876-1.085-2.403 0.24-2.64 0.568 0.312 0.463 1.297 0.72 1.92 1.16 0.12 1.332-0.749 2.4-0.72 0.179-0.739-0.659-0.461-0.48-1.2-2.051 0.128-3.59-1.526-4.8-1.44 0.546 0.49 0.829 1.25 0.72 2.4zm5.28-1.2v0.96c1.493-0.027 2.155-0.885 3.36-1.2-1.218-1.02-1.67 0.43-3.36 0.24zm-26.88 2.16c0.352 2.373 1.029 4.573 3.84 3.84-0.301-2.179-0.981-3.979-1.44-6-0.053-0.187-0.201-0.279-0.48-0.24-0.226 1.22-1.596 1.28-1.92 2.4zm60.72 0.24c-3.338 0.447-6.155 0.64-9.12 1.44-2.774 0.749-5.585 1.354-8.16 2.4-0.327 0.132-1.836 0.278-1.2 0.48 7.48-0.548 14.071-3.509 21.36-4.56 3.964-0.571 8.172-0.453 12.24-1.68-5.24-0.25-10.23 1.27-15.12 1.92zm-45.36 1.2c-0.059 1.019 0.627 1.292 0.48 2.4 1.451 0.011 1.992-0.888 3.36-0.96 0.118-0.757-0.433-0.848-0.24-1.68-1.141 0.14-2.213 0.35-3.6 0.24zm-19.2 6c1.727-0.718 1.434-2.709 0.72-4.32h-0.72c0.023 1.87 0.288 2.66 0 4.32zm11.76-4.08c-2.36 0.209-3.577 2.388-6.24 1.92-0.409-0.072-0.573-0.499-1.2-0.48-1.661 0.739-2.047 2.753-3.6 3.6 0.524 1.956 1.68 3.28 1.44 6 3.029-0.263 4.61-2.665 4.08-5.76 0.871-0.569 1.021-1.859 2.4-1.92 1.291-0.171 0.492 1.748 1.92 1.44-0.311-2.071 0.817-2.703 1.92-3.36 0.13-0.85-0.85-0.59-0.72-1.44zm33.36 1.2c-1.537-0.28-0.527 0.73 0 0zm-10.08 1.68c-0.499 0.113-1.175-0.086-1.68 0-2.964 0.51-5.761 1.717-8.4 2.64-0.576 0.202-1.423-0.279-1.68 0.72 7.758-0.722 13.977-2.983 20.64-4.8-3.444-0.19-6.669 0.94-8.88 1.44zm-22.32 0c-0.064 0.864 0.443 1.157 0.48 1.92 1.013-0.027 1.37-0.71 1.92-1.2-1.091 0.051 0.07-2.15-1.2-1.92 0.232 1.03-0.935 0.66-1.2 1.2zm-3.12 3.36c-0.198 0.678 0.338 0.622 0.24 1.2 1.504 0.065 1.202-1.678 2.64-1.68 0.041-0.601-0.369-0.751-0.72-0.96 0.011 1.21-0.826 1.57-2.16 1.44zm-1.92 3.12c0.32-0.399 1.067-0.373 1.44-0.72-0.162-0.798-0.455-1.465-1.2-1.68-0.072 0.66-0.632 2.07-0.24 2.4zm96.24 60.24c0.576-0.576-0.788-0.621-0.721-0.24 0-0.02 0.81 0.15 0.72 0.24zm51.84 14.88c0.413 0.013 0.615-0.185 0.72-0.479-0.41-0.01-0.62 0.18-0.72 0.48zm-62.16 2.88c-0.25 1.39 1.04 0.1 0 0zm5.76 1.2h0.721c0.04-0.601-0.369-0.751-0.721-0.96v0.96zm2.64 2.4c0.506-0.502-0.316-0.902-0.721-1.2-0.11 0.75 0.3 0.98 0.72 1.2zm9.6 3.84c-1.159-0.685-2.215-2.741-3.6-2.4 0.73 1.12 1.46 3.49 3.6 2.4zm-4.56-1.44c-0.19 1.45 1.1 0.16 0 0zm5.04 2.4c0.086 1.757 2.229 2.727 3.359 2.64-1.28-0.6-2.13-2.78-3.36-2.64zm5.28 4.08c-1.39-0.69-0.63 0.59 0 0zm3.6 25.44c0.805-1.114 2.486-1.353 2.88-2.88-1.69 0.07-3.04 1.76-2.88 2.88zm-5.28 2.16c-1.645 0.755-2.872 1.928-4.08 3.12-0.699 0.261-1.419 0.501-1.68 1.2 2.181-0.779 4.46-1.459 5.52-3.36 0.874-0.006 0.511-1.25 1.68-0.96 0.439-1.801 2.42-2.061 3.12-3.6-2.24 0.48-3.78 1.66-4.56 3.6zm-2.4-1.92c-0.383 0.657-0.896 1.185-1.199 1.92-2.43 1.251-3.84 3.521-6 5.04-0.353 0.608-1.539 0.381-1.681 1.2 0.763 0.746 1.353-0.716 2.4-0.48 0.332-0.146 0.036-0.924 0.479-0.96 0.692-0.108 0.751-0.849 1.681-0.72 1.466-2.693 4.584-3.735 6.239-6.24-0.9-0.18-1.15 0.29-1.92 0.24zm-18.48 10.8c1.466-2.374 5.091-2.589 6.24-5.279 2.265-1.016 3.223-3.337 5.279-4.561-0.012-0.993-1.44 0.163-2.399-0.24-0.735 1.121-2.311 1.515-2.16 2.88-0.454 0.055-0.529-0.27-0.96-0.239-2.665 2.775-5.395 5.485-8.641 7.68 1.08 0.12 1.8-0.12 2.64-0.24zm13.44-10.32c-3.073 3.486-6.385 6.734-10.08 9.6 3.738-0.583 5.073-3.567 7.921-5.04 1.314-1.805 3.281-2.958 4.8-4.56h-2.64zm-18.72 0.72c-0.74 1.18-2.085 1.755-2.88 2.88-2.988 1.092-3.941 4.219-6.96 5.28 0.205 0.56-0.839 1.034-0.24 1.2 4.941-2.579 8.587-6.453 12.96-9.601-1.15 0.08-1.44 0.14-2.88 0.24zm4.56 0.48c-2.176 0.329-2.844 2.243-4.08 3.36-0.567 0.512-1.369 0.762-1.92 1.2-0.652 0.518-1.062 1.159-1.681 1.68-1.929 1.625-4.44 2.578-6.72 3.36-0.873-0.441-2.009-0.47-2.64 0.479 3.824-0.184 9.022 0.999 11.52-0.239 2.367-1.175 4.654-3.961 6.96-4.561 1.35-2.57 3.999-3.841 5.76-6h-2.399c0.017 1.057-0.574 1.506-1.2 1.92-1.643 0.35-2.312 1.33-3.36 2.16-1.794 1.422-3.414 2.868-5.04 4.08-0.452 0.337-1.028 0.396-1.439 0.72-0.733 0.576-1.031 1.256-1.92 1.44-0.657 0.137-2.238 0.328-2.88-0.48 0.383-0.416 1.08-0.52 1.92-0.479 1.447-1.513 3.104-2.815 5.279-3.601 1.365-1.755 3.553-2.688 4.801-4.56 0.989-0.13 1.625-0.614 2.159-1.2-1.19 0.09-2.92-0.36-3.12 0.72zm-10.08 0.24c-2.939 4.341-6.973 7.588-12.24 9.601 1.757 0.541 2.938-0.247 4.32-0.721 0.04-0.358-0.086-0.886 0.239-0.96 2.787-1.041 5.114-3.28 6.96-4.8 1.039-0.855 2.216-1.378 3.12-2.16 0.187-0.161 1.608-0.829 0.72-1.2-0.92 0.2-1.93 0.31-3.12 0.24zm-7.44 2.64c-0.171 0.069-0.306 0.616-0.479 0.72-0.404 0.239-0.982 0.091-1.2 0.24-0.931 0.636-1.179 2.215-2.641 1.92-0.839 1.8-2.935 2.345-4.08 3.84 1.522-0.108 2.99-0.93 4.32-1.681 3.25-1.833 7.042-4.106 8.88-6.479-1.44 0.88-3.37 0.86-4.8 1.44zm-9.84 3.6c-0.427 1.813-3.214 1.266-4.08 2.64 2.099 0.316 4.902-1.242 6.479-2.399 0.418-0.307 1.742-0.992 0.961-1.44-1.12 0.4-1.88 1.16-3.36 1.2z"/>
</g>
<metadata><rdf:RDF><cc:Work><dc:format>image/svg+xml</dc:format><dc:type rdf:resource="http://purl.org/dc/dcmitype/StillImage"/><cc:license rdf:resource="http://creativecommons.org/licenses/publicdomain/"/><dc:publisher><cc:Agent rdf:about="http://openclipart.org/"><dc:title>Openclipart</dc:title></cc:Agent></dc:publisher><dc:title>Joseph Joffre</dc:title><dc:date>2009-06-13T20:12:36</dc:date><dc:description>The Art of Caricaturing by Mitchell Smith, 1941 Frederick J. Drake &amp; Co. - stated as Public Domain by Archive.org</dc:description><dc:source>http://openclipart.org/detail/26596/joseph-joffre-by-johnny_automatic</dc:source><dc:creator><cc:Agent><dc:title>johnny_automatic</dc:title></cc:Agent></dc:creator><dc:subject><rdf:Bag><rdf:li>caricature</rdf:li><rdf:li>cartoon</rdf:li><rdf:li>clip art</rdf:li><rdf:li>clipart</rdf:li><rdf:li>externalsource</rdf:li><rdf:li>famous-people</rdf:li><rdf:li>france</rdf:li><rdf:li>french</rdf:li><rdf:li>general</rdf:li><rdf:li>history</rdf:li><rdf:li>image</rdf:li><rdf:li>man</rdf:li><rdf:li>media</rdf:li><rdf:li>military</rdf:li><rdf:li>person</rdf:li><rdf:li>public domain</rdf:li><rdf:li>svg</rdf:li></rdf:Bag></dc:subject></cc:Work><cc:License rdf:about="http://creativecommons.org/licenses/publicdomain/"><cc:permits rdf:resource="http://creativecommons.org/ns#Reproduction"/><cc:permits rdf:resource="http://creativecommons.org/ns#Distribution"/><cc:permits rdf:resource="http://creativecommons.org/ns#DerivativeWorks"/></cc:License></rdf:RDF></metadata></svg>
