<?xml version="1.0"?>
<svg xmlns:rdf="http://www.w3.org/1999/02/22-rdf-syntax-ns#" xmlns="http://www.w3.org/2000/svg" xmlns:cc="http://web.resource.org/cc/" xmlns:xlink="http://www.w3.org/1999/xlink" xmlns:dc="http://purl.org/dc/elements/1.1/" xmlns:svg="http://www.w3.org/2000/svg" id="Layer_1" style="enable-background:new 0 0 179.04 307.35" xml:space="preserve" viewBox="0 0 179.04 307.35" version="1.1" y="0px" x="0px">
<path clip-rule="evenodd" d="m100.46 106.21c0.643 0.391 1.034 1.032 1.127 1.972 1.062 0.217 1.347-0.344 2.253-0.282 0.46 0.949 1.615 1.202 1.69 2.536 4.089-0.268 4.979 7.165 2.817 9.578-1.961-0.084-2.148-1.877-1.69-3.663-1.366-0.793-2.229-2.089-2.817-3.662-2.686 0.455-4.34-1.565-6.761-0.282-1.317 0.285-0.936-1.13-2.254-0.845-1.894 0.923-3.14 2.494-4.507 3.944-3.095-0.09-3.462 2.547-5.071 3.944-0.661 0.09-1.057 0.445-1.972 0.282-1.062 1.097-1.956 2.363-2.817 3.662-4.003 0.411-4.437 4.39-7.324 5.916 4.924 1.252 9.09-1.415 12.959 0 2.459 0.899 4.494 5.183 6.761 6.761 2.027 1.411 3.424 0.736 5.916 1.69-0.608 2.315-3.028 1.365-4.789 1.972-2.889 0.996-5.57 4.781-9.015 2.817 0.377-1.594 2.655-1.288 3.099-2.817 0.391-5.18-1.485-8.093-6.479-7.888-0.74 1.735-0.662 4.598-1.69 6.761-0.866 1.823-3.699 5.891-7.324 4.789-2.733-0.831-3.572-7.215-2.254-10.705-1.774 0.854-1.98 3.278-3.662 4.226-0.036 0.505 0.345 0.594 0.282 1.127-2.363 1.089-2.995 4.957-6.479 4.226-2.784-0.583-3.863-5.985-3.381-10.142 0.164-1.417 0.642-3.503 1.127-4.789 0.49-1.301 1.433-1.805 1.408-2.817-0.035-1.464-1.695-2.148-1.408-3.099 0.466-0.661 1.644-0.61 2.817-0.563 1 1.441 1.854 3.028 2.535 4.79 1.853-1.059 1.889-3.934 3.099-5.634 0.969 0.064 1.228 0.838 1.408 1.69 1.143-0.736 1.345-2.412 2.254-3.38 1.297-0.357 1.366 0.512 1.973 0.845 1.63-1.562 3.573-2.812 4.507-5.071 3.68 0.905 4.469-1.877 6.479-3.381 2.61 1.127 3.951-1.676 5.916-2.817 2.063 0.689 3.235-0.289 4.507-1.127 2.624 1.05 3.803-0.57 6.76-0.59zm-25.078 27.61c0.047-0.328 0.445-0.306 0.845-0.282 0.18-0.645 0.559-1.699 0-2.253h-0.845c-0.087 0.77-1.247 2.1 0 2.53z" fill-rule="evenodd"/>
<path clip-rule="evenodd" d="m102.71 133.53c0.401 2.992-3.621 1.248-5.071 1.127-4.43-2.708-5.333-8.941-10.142-11.269-1.603-0.37-4.793 0.849-5.07-0.845 0.389-0.625 2.516-1.114 3.662-1.127 0.837-0.009 2.73 0.14 3.38 0.563 1.021 0.665 3.437 2.284 3.944 2.817 1.335 1.401 2.105 3.975 3.381 5.634 1.357 1.78 3.056 2.72 5.916 3.11z" fill-rule="evenodd"/>
<path clip-rule="evenodd" d="m168.63 152.13c-2.081-0.125-2.157-2.665-3.099-3.944-0.744-1.01-1.843-1.363-2.254-2.535-1.566-0.781-3.477-1.218-4.789-2.254-2.869 1.92-4.649 4.929-6.761 7.606 0.102 5.442 4.104 9.679 5.916 13.804 1.43 3.255-0.401 7.261-1.69 11.551-1.618 0.729-2.35 2.345-3.662 3.38-4.809 0.554-9.812-0.298-12.114-3.099 0.631-2.344 1.818-4.146 3.381-5.916 1.399-1.585 3.963-3.16 3.944-5.07-0.017-1.689-2.155-2.726-3.099-3.944-1.59-2.053-2.621-3.843-3.663-5.916 1.637-2.317 4.087-4.045 6.198-6.198 1.619-1.652 3.267-3.536 4.789-5.634 1.346-1.855 2.26-3.805 3.662-5.634 1.099-1.434 2.594-3.439 3.099-5.916 1.309-0.276 1.701 0.365 2.535 0.563 1.685 2.729 3.007 5.821 4.789 8.452 0.21 4.09 3.34 6.76 2.8 10.7z" fill-rule="evenodd"/>
<path clip-rule="evenodd" d="m97.637 157.2c1.521 0.901 0.078 2.157-0.281 2.817-0.5 0.916-1.813 1.53-1.69 2.535-4.014 1.301-7.433 4.896-12.678 4.226-2.671-0.341-4.031-2.575-7.042-2.535-0.577-2.658-1.941-5.372-2.254-8.733-0.119-1.278 0.188-2.668 0-3.943-0.418-2.835-2.068-4.787-3.381-6.479-0.873-0.535-2.92 0.103-3.099-1.127-0.046-0.328 0.062-0.501 0.282-0.563 3.088-1.15 4.487 0.799 5.915 2.536 0.383 0.465 1.157 0.73 1.409 1.126 1.741 2.743 1.875 6.542 3.099 9.86 1.673 4.538 4.71 7.54 10.986 6.479 1.199-0.203 2.749-0.834 3.663-1.409 1.233-0.775 1.777-2.093 3.099-2.535 0.838-0.6 0.339-2.51 1.972-2.28z" fill-rule="evenodd"/>
<path clip-rule="evenodd" d="m82.707 143.68c-0.11 1.7-4.758 2.163-5.07 0.282 0.701-1.04 4.13-1.22 5.07-0.28z" fill-rule="evenodd"/>
<path clip-rule="evenodd" d="m41.013 145.93c-0.255 2.596-5.143 1.164-6.479 0.563 0.115-0.679-0.515-0.612-0.281-1.408 2.049-0.34 5.374 0.33 6.76 0.85z" fill-rule="evenodd"/>
<path clip-rule="evenodd" d="m66.085 160.86c2.021 2.516 1.484 6.232 1.972 9.859 0.363 2.697 1.903 4.99 1.973 7.324 0.123 0.347 0.36 0.578 0.845 0.563 0.231 5.427 5.004 8.688 6.479 13.804-1.077 0.715-1.099-0.077-1.69-0.562-2.234-1.838-3.1-5.742-6.479-6.762-0.49-2.232-3.004-2.441-2.816-5.353-0.254-0.498-0.681-0.822-0.846-1.409 0.931-4.598 1.186-10.891-0.563-14.93-2.898 0.547-5.211 2.228-7.043 4.225-0.995 1.087-1.516 3.505-3.38 3.1-0.13-2.139 2.462-3.896 3.38-5.916 2.574-1.46 4.606-3.46 8.168-3.94zm4.508 22.82c-0.381-0.089-0.538-0.401-1.127-0.282-0.212 0.96 1.076 1.1 1.127 0.28z" fill-rule="evenodd"/>
<path clip-rule="evenodd" d="m82.425 216.36c0.051 0.795 1.339 0.352 1.126 1.409-0.247 0.899-1.521 0.882-2.253 1.126-1.518 0.508-2.328 0.504-4.508 0.846-3.188 0.501-8.563 0.55-12.959-0.281-1.149-0.218-2.241-1.082-3.38-1.127-2.16-0.087-4.591 1.385-7.043 1.408-3.173 0.029-4.997-0.741-7.324-2.535-2.793 1.338-9.53 3.592-15.213 2.535-1.331-0.247-3.284-1.133-3.099-2.535 2.403-0.043 4.817-0.056 7.043-1.127 1.067-0.514 1.512-0.822 2.535-1.408 0.467-0.268 1.141-0.387 1.408-0.564 1.525-1.006 2.473-2.703 3.944-3.662 0.618-0.402 1.755-0.161 1.972-1.127 2.646 0.674 5.066 2.401 7.889 2.254 2.136-0.111 3.871-1.896 5.634-1.972 2.601-0.11 3.757 1.771 5.634 3.38 1.27 1.088 2.4 1.971 3.381 3.1 3.778 1.86 11.973 1.7 15.213 0.27z" fill-rule="evenodd"/>
<path clip-rule="evenodd" d="m71.72 226.78c0.016 1.675-1.961 2.033-3.1 2.535-1.308 0.577-2.697 0.951-3.662 1.69-9.259 1.663-20.83 1.046-26.48-5.071-0.046-0.327 0.062-0.501 0.281-0.562 0.227-0.149 0.458-0.295 0.846-0.282 1.638 1.005 3.292 1.843 5.634 2.817 5.223 2.173 16.173 2.68 22.256 0.281 1.513-0.61 2.604-2.28 4.225-1.42z" fill-rule="evenodd"/>
<path clip-rule="evenodd" d="m70.593 243.4c-1.854 0.947-3.032-1.18-4.508-1.973-0.477-0.256-1.24-0.221-1.972-0.562-0.917-0.43-1.749-0.988-3.099-1.409-2.469-0.77-7.778-0.734-10.705 0-3.403 0.854-5.415 3.604-8.451 4.507 1.504-3.283 4.997-4.58 7.888-6.479 4.755-0.676 10.267-1.644 14.367 0 1.168 0.469 2.596 1.789 3.662 2.535 1.356 0.95 3.149 1.77 2.818 3.38z" fill-rule="evenodd"/>
<path clip-rule="evenodd" d="m170.04 118.6c0.161 1.154 1.627 1.002 2.254 1.69 0.302 1.166 1.842 3.222 2.254 4.789 0.039 0.147-0.341 0.693-0.281 1.126 0.282 2.083 2.119 6.302 2.535 8.452 0.139 0.716-0.095 1.498 0 2.253 0.301 2.41 1.36 4.618 1.69 7.043 0.488 3.594 0.804 7.957 0.281 11.269-0.483 3.066-2.502 6.672-4.226 10.142-4.004 8.06-7.205 15.897-12.113 23.382-1.605 2.447-1.951 3.731-3.944 5.353-2.915 2.371-8.043 3.802-14.085 3.381 2.309 5.548 1.435 13.847-2.254 17.185 3.251-0.241 5.431 0.293 7.605 1.127 1.454 0.557 2.478 0.815 3.663 1.972 0.85 0.829 1.242 2.463 3.099 2.535 4.407 5.344 7.762 11.74 12.677 16.621 0.532 0.528 0.915 1.263 1.408 1.69 1.188 1.027 2.797 1.408 3.663 2.816 0.002 2.727-3.651 1.796-4.508 3.662-5.974 0.525-9.247 6.14-14.367 8.452-2.114 1.83-4.4 3.487-5.916 5.916-4.356 3.438-8.917 6.671-12.113 11.269-2.275 0.627-3.179 3.136-4.789 4.789-2.263 2.32-5.336 3.794-7.889 5.916-2.015 1.674-3.525 3.934-6.197 4.789-0.626 0.312-0.764 1.114-1.408 1.408-1.817 0.891-4.008 1.815-6.198 2.817-0.707 0.323-1.606 0.527-2.253 0.845-0.941 0.462-1.542 1.344-2.536 1.972-2.471 1.563-5.834 2.993-9.015 4.789-2.973 1.68-6.212 3.691-8.733 4.789-0.778 0.34-1.586 0.243-2.253 0.563-2.245 1.079-5.345 3.917-7.606 3.944-2.413 0.029-3.707-2.818-5.916-2.817-0.723-2.281-3.872-2.137-4.226-4.789-0.861 0.204-1.026-0.288-1.69-0.281-1.253-2.315-3.808-3.329-5.353-5.353-3.1-0.563-4.832-2.492-6.761-4.226-0.977-0.151-2.109-0.145-2.254-1.127-0.907-0.062-1.192 0.498-2.254 0.281-1.193-0.966-3.075-1.244-3.662-2.816-11.058-4.281-26.188-7.771-39.722-4.789-1.235 0.296-0.925-0.953-1.972-0.846-0.987 0.507-3.269 0.934-4.507 0.282-0.882-2.322 2.049-2.426 1.972-4.789 5.023-2.583 7.851-7.362 11.55-11.269-3.464-1.389-8.296 1.814-10.705-0.282 0.028-2.745 1.918-3.87 3.1-5.634 0.543-0.812 1.713-1.626 1.972-3.1 2.172-0.367 2.933-2.902 4.226-4.507 0.367-0.456 1.034-0.68 1.408-1.127 0.902-1.078 2.121-2.442 3.1-3.662 1.328-1.657 2.637-3.534 3.662-5.353 0.729-0.303 1.047-1.019 1.972-1.127 0.674-2.8 3.196-3.753 4.507-5.916-1.734-1.176-4.071-1.75-5.915-2.816-1.019-1.642-1.327-3.352-1.973-5.354-1.515-4.701-3.145-8.143-1.69-12.959 0.269-0.888 0.352-1.758 0.563-2.535 0.363-1.324 1.337-2.603 1.69-3.943 0.114-0.434-0.139-0.983 0-1.408 1.578-4.837 4.247-9.336 4.789-14.086 0.143-0.826 0.533-0.161 0.846-1.127 0.266-3.832 0.463-7.227 0.281-10.424-0.311-5.471-1.967-9.949-3.099-14.93-0.556-2.445-0.567-5.336-0.282-8.451 1.154-0.631 1.801-1.768 2.536-2.818 3.335-1.923 5.746-4.771 7.324-8.451 5.049 1.46 1.508 7.357 1.972 11.832 0.184 1.763 1.133 2.75 1.409 4.227-0.095 1.032 1.429 0.448 1.127 1.689-5.284 0.871-6.046-6.82-4.508-11.268-2.646-0.27-3.54 3.575-6.197 4.225-2.587 3.626 0.048 9.841 1.126 14.932 1.474 6.954 2.248 14.475 0.846 21.41-0.21 1.037-1.398 1.87-0.563 3.098-0.741-0.083-0.222 1.094-1.127 0.846 0.078 1.824-1.112 3.298-1.69 5.07-0.633 1.943-1.19 3.51-1.972 5.354-1.024 2.416-1.604 4.144-2.535 7.324-0.363 1.238-1.073 2.235-1.127 3.381-0.166 3.533 2.312 8.193 3.38 10.986 2.039 5.328 12.597 4.582 15.776 9.859 2.049 8.021-0.919 14.104 1.972 20.565 0.571 1.275 1.903 2.903 3.099 4.507 1.779 2.386 2.786 4.304 5.353 5.071 0.606 0.182 1.506-0.111 2.254 0 4.213 0.627 7.977 3.514 12.959 2.817 3.985-0.558 8.2-4.403 10.705-7.325 1.001-1.168 2.364-2.36 2.817-3.38 0.666-1.504 0.72-3.285 1.126-4.508 1.708-5.132 4.205-7.148 8.733-9.859 1.827-1.095 4.073-2.158 6.479-3.381 1.888-0.959 3.211-1.695 4.508-3.1-0.194-1.133 0.27-1.607 0.281-2.535 1.281-0.949 1.917-2.363 3.099-3.38 3.481-2.997 8.373-4.274 12.959-6.198 1.922-0.806 3.642-2.001 5.634-2.816 6.468-2.647 14.167-5.325 18.875-9.578 3.01-2.719 4.041-6.587 4.226-11.27-0.396-0.824-1.575-0.865-2.817-0.845-1.904-2.001-3.755-3.343-4.507-6.197-0.423-1.606-0.03-3.345-0.282-5.071-0.443-3.044-2.859-5.389-2.253-8.17 1.317-0.373 1.715 0.889 2.253 1.691 1.379 2.055 2.063 5.368 3.1 8.169 6.026 4.523 17.887 0.511 21.691-4.226 0.152-2.477 2.052-3.207 2.254-5.635 1.498-1.278 2.189-3.273 3.099-5.07 2.553-5.047 4.792-11.173 7.888-16.058 0.449-3.255 2.236-6.038 1.972-10.142-0.22-3.417-0.798-7.337-1.408-11.268-0.332-2.138-0.491-5.155-1.127-7.606-0.19-0.734-0.263-1.545-1.127-1.972 0.047-2.483-0.666-5.264-1.127-7.325-0.823-3.682-4.17-2.879-9.015-3.944-2.203-0.484-5.537-1.678-8.732-1.127-1.554 0.268-4.678 1.867-5.916 2.817-1.229 0.942-2.544 2.513-3.944 3.944-1.43 1.46-3.113 2.648-3.944 3.662-3.216 3.923-4.839 9.253-8.732 11.269-0.843-0.002-1.184-0.506-1.408-1.127-2.982 1.072-6.062-0.839-8.452 0.282-3.47-1.379-0.154-6.768 0.563-9.578 0.464-1.815 1.565-3.299 0.846-5.634 0.804-0.511 0.908-1.721 1.127-2.817 0.438-1.001-0.957-0.17-0.846-0.845-0.173-3.868 1.149-6.895 0.563-10.423-0.279-1.685-1.745-3.147-2.254-5.071-0.251-0.95-0.087-2.103-0.281-3.099-0.497-2.538-1.852-8.328 0-11.268-0.25-0.666-1.573 0.646-1.409-0.845 0.618 0.209 1.309-0.773 0.282-0.563 0.534-1.062 1.632-1.561 2.817-1.972-6.7 0.344-10.236 6.291-18.312 6.198-1.112 0.361-0.682-0.821-1.408-0.845-4.35 1.316-8.953 0.727-13.241 0.845-1.079-0.047-1.234-1.019-1.972-1.409-1.493 0.479-2.69 1.254-4.226 1.69-1.037-0.965 0.544-1.694 0.563-2.536-2.901-0.258-4.351 1.806-6.761 2.536-2.149 0.65-4.296 1.047-6.762 0-0.339-1.936 2.27-0.924 2.817-1.972-2.321-0.2-4.553 1.552-6.761 2.536-2.333 1.039-4.548 2.379-6.762 2.535-0.09-2.746 4.321-3.36 5.353-5.916-1.449-0.33-2.474 1.163-3.662 1.972-2.723 1.854-6.586 3.538-10.142 4.789-1.608 0.566-3.917 1.751-6.197 0.563 0.862-1.662 2.885-2.07 4.226-3.099 1.404-1.078 2.515-2.507 4.226-3.099 0.34-1.163 1.439-1.565 1.972-2.535-2.607 1.055-6.068 1.256-7.043 3.944-1.449 0.616-2.944 1.187-3.662 2.535-2.592 0.221-4.939 2.748-7.605 1.127 0.162-1.81 1.916-2.027 2.535-3.38-2.199-0.227-2.774 1.169-4.508 1.409-1.257 5.316-3.487 9.658-6.197 13.522 0.087 0.664 0.979 0.524 0.845 1.409 3.303-2.235 4.132 2.431 7.043 1.408 1.132 0.934 2.355 1.776 2.817 3.381 3.438-0.316 3.246 3.114 5.916 2.817 1.54 2.123 2.309 5.016 4.226 6.761-0.212 6.267-0.354 12.604-2.254 17.184-0.337 4.062-1.962 7.678-3.099 11.55-0.791 2.695-1.296 5.101-2.254 7.607-0.415 1.086-0.868 1.891-1.408 3.098-0.598 1.336-1.696 3.654-2.254 5.071-0.481 1.222-0.383 2.714-0.845 3.944-0.286 0.76-1.126 1.306-1.409 1.972-0.329 0.776-0.282 1.974-0.563 2.817-0.529 1.588-0.815 1.631-1.127 3.943-0.127 0.945-0.625 1.486-0.563 1.973 0.175 1.379 2.119 3.721 3.381 5.352 0.283 0.367 0.478 0.782 0.845 1.127 0.194 0.182 1.026 0.436 1.127 0.564 0.464 0.588 0.028 1.865 1.127 1.971 3.218-0.669 6.06-2.574 9.015-3.943 0.762-0.353 1.721-0.494 2.536-0.846 0.339-0.146 0.567-0.754 0.845-0.845 0.42-0.138 0.995 0.155 1.408 0 2.714-1.014 5.62-3.312 9.578-1.69-0.037 0.902-0.639 1.24-1.689 1.127-1.041 3.655-3.522 5.869-5.353 8.733-0.292 2.619 0.634 6.456-0.563 8.169-1.728-0.15-0.741-3.015-1.409-4.225-1.687 1.629-5.402 1.434-8.169-0.282-1.237 1.127-0.222 3.159-1.127 4.226-2.02-0.318-0.908-3.775-0.563-5.07-0.479-1.4-1.154-2.602-1.973-3.662-1.197 0.021-1.315 1.125-2.816 0.845-1.686 2.446-4.824 3.439-6.762 5.634-0.632-0.842-1.855 0.541-1.972-0.562-0.356-1.108 0.665-0.838 1.408-0.846 1.026-1.629 2.507-2.379 3.944-4.226 0.298-0.382 1.13-1.534 1.127-1.409 0.002-0.073-1.783-2.684-2.254-3.38-0.85-1.257-1.69-2.585-2.254-3.381-1.488-2.101-2.639-1.95-1.689-5.353 1.033-3.706 2.647-6.514 3.662-10.986 4.794-8.728 6.706-20.338 10.423-30.143-1.034-0.087-1.994 3.819-4.226 2.535-1.184-0.094 0.532-1.56 0.563-2.253 0.628-3.722-0.282-6.12-3.099-7.043 0.353 3.796-0.636 9.642-3.944 9.86-3.104 0.205-4.738-3.734-4.507-8.169-1.336-0.104-7.438 1.529-7.606-1.409 2.199-0.317 6.055 0.53 7.043-1.69-3.135-2.071-9.011-4.609-9.015-9.86-0.002-2.14 1.503-7.059 3.943-7.324 0.085 2.347-1.31 4.357-1.127 6.761 0.312 4.095 4.411 6.04 6.479 8.452 1.171-1.741 2.553-3.27 3.662-5.071 1.509-0.303 5.401-1.52 5.916 0.563 0.179 1.305-1.54 0.713-2.535 0.845-2.086 1.107-3.709 2.676-5.353 4.226 3.701-1.322 8.298-1.507 10.986 0.845 1.717 1.502 1.37 3.82 3.1 5.071 1.575-1.635-0.861-3.218-0.563-5.353-0.194-1.308-1.71-1.295-1.409-3.099-0.456-0.576-2.078 0.013-2.535-0.563-0.65-1.509-1.04-3.28-1.69-4.789-2.272 0.393-3.606-1.577-5.07-2.817-0.623-0.618 0.278-1.151 0-2.254-1.12-0.087-1.415 0.651-2.535 0.563-1.15-1.009-2.277-2.042-3.1-3.38-0.927 0.012-1.402 0.476-2.535 0.282-0.421-0.425-1.263-0.428-1.127-1.409-0.889 0.675-1.778-0.093-2.817 0-0.595 0.053-1.348 0.613-1.972 0.563-1.157-0.093-1.957-0.883-3.099-0.845-1.637 0.054-2.748 1.833-4.508 0.845-0.346-1.943 1.221-1.973 1.69-3.099 0.634-1.056 0.918-2.463 1.973-3.099 0.918-0.073 1.355 0.334 1.408 1.127 1.128-1.025 1.866-0.792 2.817 0.282 0.533-0.593 1.086-1.167 1.408-1.972 1.144 0.359 2.341 0.664 2.535 1.972 4.083-2.584 5.321-8.014 7.325-12.677-2.607 1.339-6.712 3.617-12.396 2.817-1.175-0.986-2.989-1.33-2.817-3.663 2.785 0.82 5.1 2.261 8.17 1.69 3.067-0.57 5.23-3.799 6.761-5.634-4.691 2.782-18.963 3.466-16.902-5.071 1.344-0.029 1.254 1.375 1.69 2.254 1.389 0.489 2.425 1.331 3.662 1.972 2.882-1.024 6.054-0.196 8.732-1.408 4.794-2.169 8.517-9.852 8.17-17.748-0.394-8.961-3.929-18.162-3.944-26.481-0.014-7.598 2.726-13.8 5.071-19.156 0.644-1.47 1.226-2.303 1.972-3.662 0.331-0.603 0.284-1.488 0.563-1.972 0.354-0.613 1.209-0.97 1.69-1.69 0.474-0.708 0.668-1.632 1.127-2.253 2.152-2.915 4.25-4.042 6.197-7.043 3.925-1.495 6.387-6.352 9.86-8.733 1.046-0.717 5.728-1.466 7.606-1.409 0.963 0.03 1.841 0.35 3.38 0.563 2.792 0.387 5.467 1.842 8.451 1.972 1.344 0.88 2.544 1.451 3.944 2.253 1.448 0.83 2.621 1.725 4.226 2.817 0.893 0.607 2.139 1.289 2.817 1.972 0.505 0.509 0.704 1.621 1.408 2.536 0.69 0.896 2.039 1.559 2.535 2.254 0.158 0.22 0.312 0.731 0.563 1.126 1.106 1.739 2.411 4.034 3.663 6.198 3.031 5.245 5.292 9.146 7.605 15.776 1.334 3.823 2.087 6.64 4.226 9.578 0.723 0.993 0.863 1.513 1.973 1.69 2.063 0.33 4.235-1.553 5.916-1.972 2.508-0.625 7.156-0.834 9.578 0 8.284 2.854 12.284 10.42 15.212 19.156 1.21 3.611 1.343 7.508 4.789 9.297 6.179 0.978 10.787 1.263 14.649 4.507 0.591 0.496 1.104 1.43 1.69 1.972 2.104 1.946 4.547 4.667 5.634 7.606 2.867 2.11 3.104 6.85 4.508 10.423 0.68 0.654-0.44 0.754-0.563 1.408 1.26 5.68-0.54 13.13-3.08 17.5zm-138.89 12.68c-0.36-0.016-0.391-0.361-0.846-0.282-0.437 0.69 0.957 0.83 0.846 0.28zm3.662 3.66c0.582-0.242 0.297-1.961 0-2.254h-1.409c-0.056 1.27 0.182 2.26 1.409 2.25zm13.804 57.47c-0.765 0.201 0.201-1.328-0.563-1.127-0.461 0.58-0.245 2.1 0.563 1.13zm87.89 26.2c-3.684 2.326-7.066 4.953-12.395 5.635-6.185 3.3-12.898 6.07-19.438 9.015-1.583 2.267-3.785 3.915-3.662 7.888-1.281-0.178-1.742 1.149-2.536 1.69-0.917 0.626-2.162 0.704-2.816 1.69-1.127 0-1.691 0.562-2.817 0.562-2.769 2.633-6.735 2.909-9.297 5.916-1.154 1.356-1.646 3.496-2.253 5.353-0.511 1.562-0.669 3.578-1.409 5.071-0.371 0.751-1.325 1.464-1.972 2.254-0.701 0.856-1.351 1.949-1.972 2.535-1.649 1.557-3.934 2.781-5.916 3.944-5.211 3.056-9.959 2.694-16.058 1.126-4.243-1.091-7.472-1.52-10.424-3.099-1.649-1.628-2.59-4.198-3.943-5.916-0.558-0.707-1.242-0.932-1.69-1.689-0.715-1.209-2.007-4.114-2.254-5.353-1.103-5.532 1.755-12.208-0.845-17.467-1.788-1.029-3.636-1.998-5.916-2.535-3.67 2.34-4.222 7.798-8.17 9.859-1.052 2.869-3.813 4.495-5.634 6.762-0.924 1.149-1.57 2.539-2.536 3.662-0.491 0.572-1.29 0.877-1.689 1.408-0.538 0.715-0.549 1.598-1.127 2.254-1.248 1.415-3.365 2.069-3.662 4.226 2.993-0.398 6.312-0.851 9.578-0.845 6.936 0.013 13.775 1.679 19.156 3.381 1.097 0.969 2.408 1.723 4.226 1.972 1.847 2.197 4.767 3.015 7.043 4.226 4.316 2.297 8.258 3.614 14.367 3.381 3.771-0.145 8.049-0.807 12.113-1.409 1.733-0.257 3.321-1.157 5.071-1.408 4.302-0.618 8.988-0.45 13.24-0.563 4.402-0.117 9.638 0.475 12.958 1.408 1.872 0.526 3.292 1.061 4.79 1.409 0.852 0.198 2.059 0.042 2.816 0.281 1.036 0.327 2.144 1.473 3.099 1.972 0.296 0.155 0.814-0.124 1.127 0 0.733 0.291 1.222 1.786 2.254 1.69-0.463-9.788 0.708-21.204 3.381-30.706 1.359-1.739 2.329-3.868 2.817-6.479 1.198-0.84 1.56-2.222 2.253-3.381 3.842-6.411 8.755-11.531 10.705-19.72-0.19 0.02-0.38 0.02-0.57 0.02zm-0.84 25.64c1.058-6.173 1.598-12.862 2.254-19.438-0.06-0.315-0.313-0.438-0.563-0.562-2.81 4.5-2.34 13.69-1.69 20zm-8.45-1.97c-0.521 2.799 0.037 6.356 0 9.578-0.072 6.184-0.138 11.648 0 16.621 1.995-3.607 4.492-8.018 5.916-12.678 0.375-1.228 0.964-2.282 1.126-3.38 1.033-6.95-0.734-13.772-0.562-21.128-1.34 3.07-5.86 7.6-6.49 10.99zm-6.76 35.77c0.743-2.625 3.905-3.913 4.789-7.043 0.459-1.622 0.06-3.997 0.282-6.197 0.617-6.094 0.202-14.228 0-19.721-4.21 8.28-5.54 20.95-5.07 32.96zm-44.233-1.69c-0.479 8.279 0.431 17.612-0.563 25.917 0.833 1.14 2.023 1.921 3.099 2.817 0.908-0.595 1.955-1.05 2.817-1.69 0.186-9.524 0.162-17.787 0-27.325-1.731 0.44-3.503-0.36-5.353 0.28zm6.48 0.28c0.145 9.04 0.217 17.338-0.281 26.199 1.811-1.193 4.545-1.464 5.634-3.38 0.092-5.703 0.231-15.373-0.281-22.819-1.367-0.24-4.396-0.81-5.072 0zm-13.804 0c1.319 4.938-0.039 10.933 0.281 16.621 2.003 2.505 2.624 6.392 5.635 7.889 0.059-8.964 0.374-16.871-0.282-24.791-2.23-0.05-4.36 0.13-5.634 0.28zm-5.635 0.57c0.164 1.678-0.104 4.57 0 7.043 2.031 1.913 2.868 5.021 5.071 6.762-0.429-4.24 0.618-10.226-0.563-14.368-1.606 0.09-2.839 0.54-4.508 0.57zm25.918-0.57c-0.307 6.605 0.206 14.813 0 22.256 1.779-0.381 3.129-1.19 4.226-2.254 1.329-6.015 0.009-13.885 0.563-19.438-1.491-0.3-3.018-0.55-4.789-0.57zm-27.044 6.2c-0.067-1.84-0.59-3.657 0-5.353-1.525-0.378-3.406-0.284-4.789 0 2.016 1.36 3.31 3.45 4.789 5.35zm32.678 12.96c2.54-1.123 4.696-2.629 7.043-3.944 0.172-4.67-0.742-7.773-0.563-12.959-2.152-0.289-3.404-1.479-6.197-1.127-0.433 5.83 0.454 11.72-0.283 18.03zm14.37-9.58c3.23 0.348 4.999-3.03 4.227-7.606-0.688-0.251-1.222-0.657-2.254-0.563 0.54 3.77-3.31 4.56-1.98 8.17zm-6.2 4.51c1.877-0.753 2.896-2.361 4.789-3.099-0.013-1.892 0.355-3.4 0.563-5.071-1.506-1.592-3.461-2.736-5.916-3.38-0.26 4.3 0.87 7.22 0.57 11.55zm11.55-7.61c1.101-0.401 1.853-1.152 2.254-2.253-0.513-0.802-1.646-0.983-2.254-1.69v3.94z" fill-rule="evenodd"/>
<metadata><rdf:RDF><cc:Work><dc:format>image/svg+xml</dc:format><dc:type rdf:resource="http://purl.org/dc/dcmitype/StillImage"/><cc:license rdf:resource="http://creativecommons.org/licenses/publicdomain/"/><dc:publisher><cc:Agent rdf:about="http://openclipart.org/"><dc:title>Openclipart</dc:title></cc:Agent></dc:publisher><dc:title>Marquis de Lafayette</dc:title><dc:date>2009-06-13T20:07:30</dc:date><dc:description>The Art of Caricaturing by Mitchell Smith, 1941 Frederick J. Drake &amp; Co. - stated as Public Domain by Archive.org</dc:description><dc:source>http://openclipart.org/detail/26594/marquis-de-lafayette-by-johnny_automatic</dc:source><dc:creator><cc:Agent><dc:title>johnny_automatic</dc:title></cc:Agent></dc:creator><dc:subject><rdf:Bag><rdf:li>caricature</rdf:li><rdf:li>cartoon</rdf:li><rdf:li>clip art</rdf:li><rdf:li>clipart</rdf:li><rdf:li>externalsource</rdf:li><rdf:li>famous-people</rdf:li><rdf:li>franxe</rdf:li><rdf:li>french</rdf:li><rdf:li>history</rdf:li><rdf:li>image</rdf:li><rdf:li>man</rdf:li><rdf:li>media</rdf:li><rdf:li>military</rdf:li><rdf:li>person</rdf:li><rdf:li>public domain</rdf:li><rdf:li>svg</rdf:li></rdf:Bag></dc:subject></cc:Work><cc:License rdf:about="http://creativecommons.org/licenses/publicdomain/"><cc:permits rdf:resource="http://creativecommons.org/ns#Reproduction"/><cc:permits rdf:resource="http://creativecommons.org/ns#Distribution"/><cc:permits rdf:resource="http://creativecommons.org/ns#DerivativeWorks"/></cc:License></rdf:RDF></metadata></svg>
