<?xml version="1.0" encoding="utf-8"?>

<!DOCTYPE svg PUBLIC "-//W3C//DTD SVG 1.1//EN" "http://www.w3.org/Graphics/SVG/1.1/DTD/svg11.dtd">
<svg version="1.1" id="Layer_1" xmlns="http://www.w3.org/2000/svg" xmlns:xlink="http://www.w3.org/1999/xlink" x="0px" y="0px"
	 viewBox="-79 -76.7781 2078 2019.5563" enable-background="new -79 -76.7781 2078 2019.5563" xml:space="preserve">
<g>
	<path fill="#CFD037" stroke="#CFD037" stroke-width="0.3" d="M500.59,0h20.82c6.56,0.85,13.11,1.71,19.66,2.65
		c36.65,6.64,70.56,23.98,100.36,45.93c13.69,9.92,26.08,21.62,36.61,34.86c10.98-4.01,22.15-7.98,33.95-8.53
		c13.4-1.02,27.76-0.52,39.65,6.46c2.67,1.31,5.02,4.03,8.21,3.72c18.05-1.9,36.29-3.59,54.41-1.71
		c26.99,2.17,54.79,7.45,77.79,22.55c14.33,9.11,25.31,23.91,28.26,40.8c2.77,13.32-0.03,27.13-5,39.59
		c-6.23,16.15-16.34,30.43-27.3,43.69c-3.35,4.08-7.29,7.65-10.46,11.89c6.76,5.52,14.1,10.27,21.13,15.43
		c15.98,11.78,31.1,24.83,44.32,39.68c10.04,11.56,18.15,25.5,19.98,40.92c1.94,13.23-2.06,26.76-9.19,37.87
		c-8.71,13.39-21.09,23.9-34.17,32.84c-5.68,3.96-11.98,6.98-17.33,11.42c9.05,3.93,18.34,7.48,26.4901,13.18
		c21.6899,14.12,36.8799,38.64,37.6,64.76c0.47,16.14-6.31,32.26-18.16,43.23c-11.87,11.31-28.12,16.93-44.17,18.78
		c-7.48,0.47-15.23,1.13-22.49-1.18c4.11-2.98,9.36-2.83,14.11-3.93c8.47-1.54,16.79-4,24.61-7.63
		c10.96-4.82,20.74-12.95,26.28-23.69c5.53-10.34,6.2-22.71,3.77-34.01c-3.93-15.95-15.08-29.35-28.53-38.38
		c-15.89-10.88-35.53-15.14-54.58-14.64c-1.56-5.56-2.87-11.19-4.05-16.85c-0.14-1.28-0.93-3.06,0.49-3.92
		c4.55-3.37,9.86-5.5,14.64-8.5c17.75-10.56,35.65-21.93,48.94-38.03c7.15-8.51,11.93-20.04,8.69-31.18
		c-3.81-11.84-12.48-21.28-21.2-29.8c-14.56-13.78-31.2-25.06-47.64-36.41c-2.23-1.55-4.61-2.88-7.04-4.06
		c3.06,12.18,7.01,24.16,8.84,36.62c2.74,13.34,4.05,26.96,3.78,40.58c0.39,35.71-9.59,72.88-33.67,100
		c-7.15,8.5-15.91,15.37-24.94,21.75c6.43,4.51,12.59,9.68,16.81,16.39c6.72,10.23,8.77,22.8,8.45,34.85
		c-1.02,18.92-7.07,37.03-12.25,55.12c-5.31,17.87-9.94,36.18-10.32,54.92c0.52,9.65,1.75,19.45,5.88,28.31
		c5.13,12.54,14.95,22.31,25.14,30.8799c4.19,3.51,9.09,6.28,12.37,10.78c-6.23-0.07-11.75-3.25-17.06-6.13
		c-11.9-6.9-22.79-16.14-29.87-28.06c-8.15-13.39-11.52-29.26-11.47-44.8c0.51-11.31,1.19-22.66,3.65-33.74
		c3.71-20.12,9.76-39.82,11.79-60.24c0.96-10.58-0.04-22.45-7.55-30.66c-7.39-8.67-18.85-11.62-29.35-14.61
		c-0.51-7.26-1.36-14.51-1.58-21.77c-0.25-2.47,2.62-3.02,4.26-4.07c16.85-7.55,31.19-20.37,41.09-35.89
		c9.64-15.29,14.55-33.15,16.3-51.02c0.44-9.99,0.39-20,0.07-30c-1.26-17.8-5.41-35.31-11.22-52.15
		c-10.7-32.42-28.74-62.19-51.6-87.46c-22.35-25.56-50.17-46.8-82-59.06c-4.93-1.78-9.56-4.91-14.94-5.05
		c-2.41-0.04-4.79,0.44-7.09,1.07c-9.46,2.25-18.72,6.23-28.61,5.81c-3.15-0.2-5.17,2.65-7.33,4.48
		c-10.06,9.31-18.92,20.36-23.66,33.35c-5.77,16.95-2.54,36.54,8.09,50.91c6.53,9.06,16.04,15.58,26.37,19.62
		c11.74,4.89,24.76,6.56,37.37,5.05c5.64-0.64,10.7-3.5,16.26-4.51c-2.25,7.42-9.92,10.97-16.67,13.31
		c-16.92,5.22-35.44,3.36-51.8-2.97c-13.61-5.01-25.05-14.92-33.17-26.82c-8.78-13.04-13.05-28.91-12.63-44.57
		c0.54-19.74,9.13-38.59,21.55-53.68c5.1299-6.55,11.16-12.3,17.02-18.18c0.59-0.62,1.17-1.25,1.75-1.88
		c-0.28-0.23-0.82-0.68-1.09-0.9c3.12,0.42,5.26-2.13,7.49-3.86c3.16-2.67,6.81-4.76,9.6-7.85c-23.67-6.54-47.4-14-72.06-15.53
		c-12.56-0.98-25.68,0.09-37.1,5.78c-9.25,4.67-16.67,12.37-22.07,21.11c-2.33,3.16-4.3,6.57-5.67,10.25
		c-4.18,6.57-7.02,13.82-9.93,21c-8.37,21.2-13.68,43.4-19.66,65.33c-3.27,11.9-5.75,24.26-11.96,35.07
		c-6.61,11.73-18.68,19.92-31.91,22.18c-20.13,3.38-40.21-2.21-59.56-7.22c-3.98-1.19-7.96-2.35-11.99-3.31
		c-0.14,0.34-0.43,1.01-0.57,1.35c-3.31-3.37-8.34-3.43-12.62-4.67c-11.25-2.81-23.09-5.22-34.62-2.61
		c-7.03,1.53-13.27,6.86-15.36,13.8c-0.47,3.88,2.48,7.16,5.17,9.6c14.27,12.71,31.53,21.27,47.39,31.74
		c3.95,2.88,7.93,5.73,11.79,8.72c8.38,7.22,16.62,15.53,20.02,26.34c3.93,11.65,1.2,24.96-6.13,34.68
		c-2.33,3.17-5.86,5.66-6.72,9.71c-0.16-0.45-0.48-1.33-0.64-1.78c-3.29,2.36-6.58,4.74-10.11,6.75
		c-24.62,12.14-52.37,14.77-78.97,19.97c-11.45,2.69-23.35,4.65-33.8,10.34c3.15,5.26,7.79,9.39,11.22,14.46
		c12.29,16.99,22.79,36.77,22.55,58.27c0.62,14.29-5.17,28.53-14.95,38.86c-10.4,11.53-24.5,19.03-39.07,23.9
		c-4.39,1.38-8.9,3.11-13.58,2.5c1.91-1.85,4.07-3.45,6.47-4.6c8.49-4.21,16.81-8.87,24.32-14.67c8.78-6.94,16.84-15.43,20.95-26.01
		c4.2-10.57,4.08-22.59,0.32-33.27c-6.87-19.75-20-36.68-34.91-51.06c-1.8-1.79-3.81-3.83-3.6-6.58c0.12-4.15-0.79-9.48,3.01-12.31
		c5.95-5.17,13-8.94,20.37-11.66c14.55-5.34,29.65-8.99,44.8-12.2c12.58-2.84,25.34-5.05,37.52-9.42
		c7.66-2.8,15.54-5.79,21.78-11.22c4.45-3.58,7.06-9.51,6.01-15.21c-1.09-4.9-5.09-8.29-8.65-11.49
		c-6.25-6.42-14.18-10.79-21.79-15.36c-13.51-8.04-27.72-15.09-40.08-24.91c-6.25-5.09-12.16-10.94-15.78-18.24
		c-5.17-9.85-5.09-22.23,0.09-32.06c5.86-11.29,15.52-20.97,27.69-25.19c17.99-6.4,37.59-4.26,55.86-0.28
		c5.62,1.19,11.09,3.29,16.9,3.38c3.73,2.2,8.09,2.72,12.24,3.69c10.9,2.72,22.03,5.27,33.33,5.19c4.56-0.09,9.57-0.48,13.25-3.49
		c3.63-3.25,5.17-8.08,6.35-12.65c3.38-13.95,6.5-27.97,10.02-41.89c2.18-9.05,5.11-17.9,7.39-26.93c1.94-5.2,3.58-10.51,5.16-15.84
		c6.27-17.7,13.82-35.33,25.66-50.09c6.91-8.12,14.68-15.75,24.05-20.99c16-9.18,34.86-12.49,53.13-10.75
		c11.6,0.45,22.73,3.96,33.92,6.69c-10.44-5.12-21.54-8.69-32.59-12.25c-23.1-7.06-47.45-11.19-71.62-8.7
		c-17.39,2.23-34.38,7.69-49.68,16.28C425.6,64.39,408.2,78.2,392.48,93.5c-18.09,16.93-34.46,35.56-51.19,53.8
		c-27.58,30.03-54.63,60.92-86.81,86.19c-25.59,20.56-54.54,37.38-86.05,46.95c-11.34,3.56-23.22,4.79-34.78,7.35
		c0.63,2.49,3.38,3.72,4.98,5.59c8.44,8.07,15.23,18.05,18.83,29.21c4.61,13.6,3.43,28.99-3.06,41.79
		c-7.61,15.33-21.25,26.86-36.05,34.97c-20.84,10.85-44.74,15.88-68.17,14.12c-1.94-0.17-3.62-1.2-5.31-2.06
		c7.73-2.35,15.86-2.9,23.7-4.82c19.67-4.44,38.88-12.58,54.45-25.57c10.4-8.93,19.02-21.09,20.6-34.99
		c1.57-13.83-5.69-26.96-15.25-36.41c-9.28-8.98-20.48-15.77-32.13-21.24c0.69-6.78,3.22-13.18,4.31-19.89
		c14.32-0.04,28.63-1.92,42.58-5.09c21.94-5.11,42.67-14.62,61.65-26.64c25.14-16.16,47.58-36.25,67.67-58.31
		c15.64-16.74,30.62-34.09,45.42-51.57c23.09-27.11,46.29-54.4,73.54-77.49c23.71-20.15,51.13-36.68,81.45-44.51
		C481.88,2.13,491.32,1.48,500.59,0 M648.93,82.1c4.07,3.52,8.65,6.38,13.09,9.4c1.36-0.75,2.75-1.47,4.09-2.27
		C660.58,86.41,654.86,83.92,648.93,82.1 M733.05,123.29c6.08,2.94,12.57,4.97,18.6,8.06c24.61,12.22,45.89,30.61,63.0099,51.98
		c11.65,14.43,20.84,30.62,29.58,46.92c1.37-0.92,2.71-1.93,3.83-3.18c6.39-6.96,12.56-14.13,18.39-21.58
		c9.46-12.97,18.36-27.25,20.5-43.47c1.35-8.54-2.82-17.22-9.32-22.66c-11.71-9.92-27.17-13.43-41.89-16.13
		c-13.43-2.68-27.15-2.59-40.75-3.48C774.3,119.6,753.53,120.22,733.05,123.29 M841.49,340.83c-0.66,6.78-0.69,13.64-0.04,20.42
		C842.91,354.63,842.71,347.5,841.49,340.83z"/>
	<path fill="#333332" stroke="#333332" stroke-width="0.3" d="M512.88,113.03c20.63-4.43,41.98-8.32,63.07-4.91
		c17.16-0.5,34.35,1.45,51.07,5.26c0.27,0.22,0.81,0.67,1.09,0.9c-0.58,0.63-1.16,1.26-1.75,1.88c-15.74-4.62-32.18-6.02-48.46-7.29
		c-4.04-0.49-7.9,1.13-11.88,1.46c-16.51,1.95-32.92,5-48.8,9.94c-3.33,1.05-6.63,2.17-10.01,3.01
		C508.58,119.6,510.55,116.19,512.88,113.03z"/>
	<path fill="#FEE2BA" stroke="#FEE2BA" stroke-width="0.3" d="M566.02,110.33c3.98-0.33,7.84-1.95,11.88-1.46
		c16.28,1.27,32.72,2.67,48.46,7.29c-5.86,5.88-11.89,11.63-17.02,18.18c-12.42,15.09-21.01,33.94-21.55,53.68
		c-0.42,15.66,3.85,31.53,12.63,44.57c8.12,11.9,19.56,21.81,33.17,26.82c16.36,6.33,34.8799,8.19,51.8,2.97
		c6.75-2.34,14.42-5.89,16.67-13.31c-5.56,1.01-10.62,3.87-16.26,4.51c-12.61,1.51-25.63-0.16-37.37-5.05
		c-10.33-4.04-19.84-10.56-26.37-19.62c-10.63-14.37-13.86-33.96-8.09-50.91c4.7401-12.99,13.6-24.04,23.66-33.35
		c2.16-1.83,4.18-4.68,7.33-4.48c9.89,0.42,19.15-3.56,28.61-5.81c32.12,17.27,60.17,42.3,80.17,72.87
		c17.74,27.71,29.74,59.28,33.75,91.99c3.56,29.09,1.35,58.92-7.08,87.02C766.15,435.9,733.03,479.83,689.25,507.26
		c-30.92,20.15-67.51,31.09-104.27,32.86c-37.78,1.77-76.05-6.79-109.37-24.7c-32.01-17.06-59.36-42.56-79.02-73.01
		c-11.54-17.69-19.94-37.24-26.04-57.42c0.86-4.05,4.39-6.54,6.72-9.71c7.33-9.72,10.06-23.03,6.13-34.68
		c-3.4-10.81-11.64-19.12-20.02-26.34c1.29-18.54,4.26-37.16,10.81-54.62c19.35,5.01,39.43,10.6,59.56,7.22
		c13.23-2.26,25.3-10.45,31.91-22.18c6.21-10.81,8.69-23.17,11.96-35.07c5.98-21.93,11.29-44.13,19.66-65.33
		c2.91-7.18,5.75-14.43,9.93-21c3.38-0.84,6.68-1.96,10.01-3.01C533.1,115.33,549.51,112.28,566.02,110.33 M544.36,229.39
		c-10.79,2.06-19.05,10.89-23.28,20.65c-3.98,8.73-4.28,18.59-3.3,27.98c1.81,11.07,7.4,22,16.98,28.25
		c7.98,5.57,19.18,5.89,27.56,1.01c8.43-4.68,14.14-13.21,16.96-22.26c3.33-9.87,2.84-20.67,0.04-30.6
		c-3.22-9.79-9.74-19.01-19.34-23.36C555.08,229.09,549.57,228.03,544.36,229.39 M516.55,276.28c0.63-4.47,0.59-9.02-0.02-13.48
		C515.24,267.15,515.14,271.94,516.55,276.28 M650.33,280.39c-8.31,2.16-15.07,8.32-19.34,15.61c-5.94,10.28-7.87,22.81-5.41,34.42
		c1.95,10.67,7.84,20.86,16.99,26.92c6.64,4.12,15.14,5.36,22.57,2.74c9.57-3.2,16.62-11.56,20.3-20.72
		c3.81-8.58,3.65-18.2,2.92-27.37c-1.64-10.41-6.86-20.55-15.37-26.98C666.65,280.15,658.06,278.37,650.33,280.39 M689.43,312.8
		c-0.64,5.11-0.63,10.3,0.02,15.41C690.74,323.21,690.81,317.78,689.43,312.8 M480.76,322.76c-5.76,16.46-7.01,34.45-3.99,51.62
		c2.58,15.47,9.91,29.92,19.98,41.86c4.65,5.38,10.37,9.69,15.96,14.04c13.95,10.09,30.46,15.95,47.05,20.04
		c23.34,5.67,47.86,6.31,71.46,1.89c15.96-3.18,31.7401-8.54,45.34-17.65c2.48-1.79,5.58-3.52,5.99-6.89
		c-6.35-0.7-12.32,2.04-18.34,3.57c-12.38,3.87-24.97,7-37.47,10.44c-23.43,5.35-47.87,8.57-71.74,4.17
		c-13.63-2.23-26.37-8.31-37.42-16.47c-14.51-11.23-24.02-28.07-28.09-45.8c-2.09-9.05-2.39-18.37-2.76-27.6
		c-0.48-12.03,1.13-24.01,1.14-36.03c0.05-2.13-0.37-4.21-1-6.22C483.21,315.27,482.2,319.45,480.76,322.76z"/>
	<path fill="#333332" stroke="#333332" stroke-width="0.3" d="M673.57,134.36c2.3-0.63,4.68-1.11,7.09-1.07
		c13.36,8.02,26.66,16.31,38.39,26.64c16.71,14.42,31.24,31.35,43.03,50.01c19.9,31.17,31.45,67.51,33.63,104.4
		c2.59,38.88-5.55,78.35-23,113.17c-29.33,59.3-86.54,104.15-151.36,117.75c-44.08,9.58-91.13,5.59-132.79-11.79
		c-29.58-12.42-56.4-31.31-78.25-54.78c-23.47-25.09-40.9-55.75-50.51-88.73c3.53-2.01,6.82-4.39,10.11-6.75
		c0.16,0.45,0.48,1.33,0.64,1.78c6.1,20.18,14.5,39.73,26.04,57.42c19.66,30.45,47.01,55.95,79.02,73.01
		c33.32,17.91,71.59,26.47,109.37,24.7c36.76-1.77,73.35-12.71,104.27-32.86c43.78-27.43,76.9-71.36,91.16-121.02
		c8.4301-28.1,10.64-57.93,7.08-87.02c-4.01-32.71-16.01-64.28-33.75-91.99C733.74,176.66,705.69,151.63,673.57,134.36z"/>
	<path fill="#333332" stroke="#333332" stroke-width="0.3" d="M374.48,225.9c19.38-38.32,50.19-71.01,87.74-91.92
		c-1.58,5.33-3.22,10.64-5.16,15.84c-5.07,2.83-9.54,6.56-14.05,10.17c-23.13,19.14-43.03,42.55-56.29,69.6
		C382.57,228.62,378.21,228.1,374.48,225.9z"/>
	<path fill="#FEE2BA" stroke="#FEE2BA" stroke-width="0.3" d="M443.01,159.99c4.51-3.61,8.98-7.34,14.05-10.17
		c-2.28,9.03-5.21,17.88-7.39,26.93c-3.52,13.92-6.64,27.94-10.02,41.89c-1.18,4.57-2.72,9.4-6.35,12.65
		c-3.68,3.01-8.69,3.4-13.25,3.49c-11.3,0.08-22.43-2.47-33.33-5.19C399.98,202.54,419.88,179.13,443.01,159.99z"/>
	<path fill="#0484F2" stroke="#0484F2" stroke-width="0.3" d="M544.36,229.39c5.21-1.36,10.72-0.3,15.62,1.67
		c9.6,4.35,16.12,13.57,19.34,23.36c2.8,9.93,3.29,20.73-0.04,30.6c-2.82,9.05-8.53,17.58-16.96,22.26
		c-8.38,4.88-19.58,4.56-27.56-1.01c-9.58-6.25-15.17-17.18-16.98-28.25c-0.98-9.39-0.6801-19.25,3.3-27.98
		C525.31,240.28,533.57,231.45,544.36,229.39z"/>
	<path fill="#333332" stroke="#333332" stroke-width="0.3" d="M362.2,256.33c4.03,0.96,8.01,2.12,11.99,3.31
		c-6.55,17.46-9.52,36.08-10.81,54.62c-3.86-2.99-7.84-5.84-11.79-8.72c1.88-16.2,4.59-32.45,10.04-47.86
		C361.77,257.34,362.06,256.67,362.2,256.33z"/>
	<path fill="#D9E7E6" stroke="#D9E7E6" stroke-width="0.3" d="M516.55,276.28c-1.41-4.34-1.31-9.13-0.02-13.48
		C517.14,267.26,517.18,271.81,516.55,276.28z"/>
	<path fill="#0484F2" stroke="#0484F2" stroke-width="0.3" d="M650.33,280.39c7.73-2.02,16.32-0.24,22.66,4.62
		c8.51,6.43,13.73,16.57,15.37,26.98c0.73,9.17,0.89,18.79-2.92,27.37c-3.68,9.16-10.73,17.52-20.3,20.72
		c-7.43,2.62-15.93,1.38-22.57-2.74c-9.15-6.06-15.04-16.25-16.99-26.92c-2.46-11.61-0.53-24.14,5.41-34.42
		C635.26,288.71,642.02,282.55,650.33,280.39z"/>
	<path fill="#CBE2EA" stroke="#CBE2EA" stroke-width="0.3" d="M689.43,312.8c1.38,4.98,1.31,10.41,0.02,15.41
		C688.8,323.1,688.79,317.91,689.43,312.8z"/>
	<path fill="#333331" stroke="#333331" stroke-width="0.3" d="M480.76,322.76c1.44-3.31,2.45-7.49,6.11-9.03
		c0.63,2.01,1.05,4.09,1,6.22c-0.01,12.02-1.62,24-1.14,36.03c0.37,9.23,0.67,18.55,2.76,27.6c4.07,17.73,13.58,34.57,28.09,45.8
		c11.05,8.16,23.79,14.24,37.42,16.47c23.87,4.4,48.31,1.18,71.74-4.17c12.5-3.44,25.09-6.57,37.47-10.44
		c6.02-1.53,11.99-4.27,18.34-3.57c-0.41,3.37-3.51,5.1-5.99,6.89c-13.6,9.11-29.38,14.47-45.34,17.65
		c-23.6,4.42-48.12,3.78-71.46-1.89c-16.59-4.09-33.1-9.95-47.05-20.04c-5.59-4.35-11.31-8.66-15.96-14.04
		c-10.07-11.94-17.4-26.39-19.98-41.86C473.75,357.21,475,339.22,480.76,322.76z"/>
	<path fill="#333330" stroke="#333330" stroke-width="0.3" d="M351.59,338.56c3.56,3.2,7.56,6.59,8.65,11.49
		c1.05,5.7-1.56,11.63-6.01,15.21C352.88,356.43,351.36,347.52,351.59,338.56z"/>
	<path fill="#CED16F" stroke="#CED16F" stroke-width="0.3" d="M841.49,340.83c1.22,6.67,1.42,13.8-0.04,20.42
		C840.8,354.47,840.83,347.61,841.49,340.83z"/>
	<path fill="#CFD037" stroke="#CFD037" stroke-width="0.3" d="M1431.96,543.96c5.24-9.78,15.9301-16.29,27.05-16.34
		c15.63-0.3,30.1899,6.5,43.63,13.8c12.08,6.78,23.6899,14.36,35.62,21.41c3.0699,1.63,6.08,4.03,9.75,3.86
		c7.0599,0.07,13.87-2.42,20.9399-2.32c8.89-0.29,18.05-0.27,26.38,3.27c11.7001,4.56,20.75,15.06,23.8,27.21
		c2.96,12.5,2.09,25.4301,2.3099,38.17c0.16,3.72,0.2201,8.47,3.9901,10.49c6.7,4.48,15.0299,3.18,22.6,2.68
		c8.28-0.97,16.63-0.83,24.96-0.97c11.6,0.09,23.4401-0.1299,34.7,3.1c7.9601,2.41,14.55,7.88,19.9301,14.07
		c10.4401,12.24,16.9401,27.31,27.6,39.38c5.39,6.17,12.75,10.7,20.8401,12.28c9.7599,2.12,20.1,2.92,29.0099,7.84
		c7.63,3.99,13.28,12.34,12.6801,21.14c0.12,7.91-4.83,14.52-8.85,20.91c-3.4301,5.55-7.8301,11.2-7.7101,18.06
		c-0.5499,5.87,3.39,10.68,6.77,15.02c8.02,9.88,15.74,20.5,26.8401,27.18c4.0199,2.54,8.8999,3.41,12.74,6.3
		c3.49,2.62,5.61,7.15,4.74,11.53c-1.15,5.74-5.41,10.06-8.35,14.93c-7.16,10.62-12.7101,22.19-18.3,33.68
		c-3.58,7.68-7.49,15.35-9.24,23.7c-1.7001,7.86-0.74,16.58,4.02,23.25c5.89,8.28,15.33,13.06,24.71,16.3
		c7,2.63,14.48,3.44,21.83,4.62c4.89,0.85,10.12,0.31,14.75,2.43c-1.2799,1.01-2.49,2.2-4.0699,2.66c-7,2.2-14.39,2.12-21.63,2.06
		c-13.33,0.15-26.73-3.5099-38.02-10.61c-11.34-7.03-18.74-19.76-19.37-33.06c-0.9399-11.69,2.4401-23.14,6.48-33.97
		c5.4-14.3,11.1801-28.52,18.6801-41.87c-13.41-6.82-24.2001-17.69-34.1801-28.73c-2.58-2.59-4.38-6.21-7.49-8.1
		c-3.49,2.4-6.15,5.93-10.0599,7.74c-7.8501,4.59-17.98,4.87-26.1001,0.83c-3.24-1.9-6.23-4.24-8.7899-6.98
		c-2.1901-3.33-3.98-6.9-6.0701-10.28c-16.6,5.44-35.5499,6.53-51.6699-1.05c-17.01-7.89-29.65-24.15-33.5-42.46
		c-2.1-8.29-1.74-16.88-1.87-25.35c-18.66,1.64-38.39,1.99-55.77-5.97c-18.36-8.33-31.28-27-32.92-47.04
		c-1.49-10,0.42-20.01,2.5601-29.76c-9.2001,0.94-18.4301,1.42-27.6,2.55c-3.0901-0.2-6.1801-0.27-9.25-0.04
		c-8.4701-0.16-16.8201,1.4-25.1101,2.91c0.92,2.46,2.0801,4.85,3.6901,6.95c0.73,0.99,1.51,1.96,2.2999,2.94
		c-4.5099,5.07-8.47,10.62-12.73,15.9c-2.87,3.46-5.1599,7.46-8.6599,10.33c-3.66,0.07-6.77-2.42-10.1101-3.62
		c-1.36-0.58-2.7-1.12-4.0399-1.66c-12.7001-5.54-26.49-8.92-40.39-8.69c-17.21,0.7-32.55,11.5-41.98,25.45
		c-8.78,13.82-13.76,29.68-17.38,45.54c-1.76,10.77-4.3301,21.46-4.59,32.42c-1.55,27.67-0.3601,55.86,7.25,82.65
		c1.87,5.89,3.73,12.29,8.5099,16.54c2.16,2.01,5.3101,1.88,8.0701,2.24c-0.08,0.56-0.22,1.6801-0.29,2.2401
		c-5.38,4.28-12.96,1.49-17.15-3.11c-11.59-12.1-15.8999-28.86-20.34-44.54c-4.24-18.36-6.6-37.18-7.04-56.01
		c-0.6699-5.67,0.26-11.33,0.27-16.99c0.11-10.09,1.51-20.1,3.36-30c1.52-10.8,5.02-21.2,8.9401-31.34
		c6.39-16.4,16.85-31.39,30.9399-42.0699c14.7101-10.86,33.28-15.57,51.42-15.05c7.08-0.24,14.02,1.41,21.0601,1.93
		c1.4199-0.91,1.45-2.89,2.1299-4.31c2.4801-9.6,10.4801-16.85,19.3601-20.6299c7.6599-3.41,16.11-4.5601,24.45-4.2
		c12.86-0.39,25.59,2.21,37.86,5.86c8.03,2.65,16.03,5.9,22.76,11.14c2.12,1.9,5.15,1.49,7.6801,2.45
		c1.76,1.4,3.24,3.18,4.38,5.1299c0.3099,0.85,0.62,1.71,0.9299,2.59c0.88,2.72,1.79,5.45,2.75,8.16
		c3.64-0.4,7.26-1.0099,10.85-1.81c-0.52-2.5-1.1799-4.97-1.97-7.38c-0.12-0.3799-0.38-1.1299-0.5-1.5099
		c-2.89-10.81-2.62-22.08-3.5699-33.14c-0.77-3.16-1.2101-8.15-5.3101-8.5c-12.25-2.09-24.61,2.63-36.89,0.46
		c-6.95-0.66-12.9099-4.55-18.7899-7.94c-17.2101-10.33-32.4601-23.85-50.7301-32.3701c-4.61-1.83-9.37-4.09-14.4199-3.8199
		c-5.47,4.3199-5.16,12.16-5.9301,18.47c-1.35,8.45,1.67,16.85,0.37,25.3c-8.08,0.16-16.15,0.13-24.22,0.27
		c-0.63-4.45-0.95-8.93-1.71-13.35c-9.01-0.66-17.54,2.96-25.4601,6.8c-14.5199,7.68-27.97,17.76-38.49,30.43
		c-4.2,5.65-8.85,12.04-8.2899,19.45c-0.0901,3.07,1.95,5.61,4.0699,7.62c3.46,3.2,7.9,5.03,12.25,6.73c2.34,1,5.16,1.69,6.42,4.17
		c-7.99,2.43-16.6901,0.03-23.8401-3.77c-8.0399-4.25-11.74-14.09-10.22-22.79c2-14.51,11.54-26.42,21.04-36.97
		c10.65-10.96,22.98-20.44,36.62-27.37c7.83-4.04,16.45-6.29,25.22-7C1427.14,557.56,1428.3101,550.29,1431.96,543.96
		 M1584.84,668.98c2.3301,9.5,8.73,18.31,17.8101,22.33c8.7999,4.3,18.6699,5.55,28.35,5.93c10.08-0.07,20.04-1.73,30.01-2.97
		c3.1-0.6,4.34,2.78,6.12,4.63c4.46,5.9,10.29,10.83,14.1899,17.11c-1.4299,5.88-3.7,11.56-4.6699,17.58
		c-1.4,8.7-1.39,18.0699,2.5699,26.14c3.79,8.5,11.35,15.49,20.53,17.59c11.33,2.57,23.28,0.29,33.75-4.39
		c-0.0699-0.49-0.21-1.48-0.28-1.97c0.1,1.2,1.1801,1.29,2.17,1.38c3.45,0.18,5.78,3.1299,8.78,4.5099
		c2.51,2.95,6.58,4.12,8.95,7.22c0.24,4.38-0.99,9.29,1.59,13.21c2.0901,3.3199,6.9301,3.5099,9.9601,1.4
		c4.6899-3.27,8.8099-8.61,7.97-14.65c-0.64-5.39,0.9-10.7,0.67-16.05c-1.7001-7.77-3.7201-15.68-7.66-22.63
		c-3.39-1.53-7.15-1.98-10.54-3.47c-9.12-3.4-16.96-9.4-23.86-16.12c-11.3101-11.05-19.17-24.89-28.78-37.3
		c-2.1599-2.54-5.01-6.34-8.7999-4.59c-4.17-1.46-8.79-1.07-13.12-0.8c-5.75-1.27-11.74-0.67-17.5801-1.23
		c-21.21-0.33-42.58-2.05-63.1-7.71C1594.72,672.8,1589.99,670.26,1584.84,668.98 M1779.62,747.11c0.4,1.45,0.85,2.9,1.37,4.35
		c1.6-0.93,2.53-2.35,2.24-4.25C1782.33,747.19,1780.52,747.14,1779.62,747.11z"/>
	<path fill="#FBBB01" stroke="#FBBB01" stroke-width="0.3" d="M476.33,564.37c1.29-4.18,2.43-8.41,4.21-12.41
		c4.55,11.84,12.01,22.22,18.75,32.87c10.28,14.97,20.21,30.2,31.14,44.7c19.27,27.6,39.85,54.27,59.69,81.45
		c5.25,6.99,10.47,14.01,16,20.79c8.76,12.48,18.49,24.25,27.55,36.52c24.71,31.94,49.14,64.1,74.01,95.91
		c17.92,23.39,35.97,46.7,54.3,69.78c3.61,5,7.29,9.97,11.35,14.62c12.41,15.61,24.33,31.62,36.91,47.1
		c6.37,8.58,12.97,17,19.78,25.25c10.73,14.2399,22.24,27.86,32.81,42.22c11.12,12.97,20.79,27.11,31.86,40.11
		c1.13,1.4199,2.21,2.89,3.28,4.37c-9.96,1.21-19.97,1.8199-29.99,1.97c-8.81,1.12-17.71,0.27-26.51,1.4
		c-5.43,0.59-10.91,0.1899-16.33,0.79c-6.68,0.7699-13.42,0.3799-20.13,0.6599c-20,0.77-40,2.61-60.04,1.9401
		c4.04,0.23,8.08,0.5299,12.11,1.0699c-5.02-0.13-10.04-0.2-15.03,0.26c-8.99,1-18.04,0.4-27.05,0.96
		c-13.63,1.2301-27.34,1.1101-41.01,0.7201c3.14,0.13,6.29,0.23,9.43,0.48c-7.56,1.08-15.24,0.9299-22.84,1.62
		c-13.88,0.46-27.74,1.48-41.63,0.91c4.39,0.1799,8.78,0.4299,13.14,1.0399c-12.29-0.4399-24.54,0.7001-36.8,0.9601
		c-5.84-0.6001-11.7-0.3101-17.5099,0.3999c-8.14,0.9701-16.34,0.2101-24.4901,0.76c-18.11,1.12-36.21,2.5-54.36,2.6801
		c-16.66,1.97-33.58,0.23-50.15,3.29c-13.95,0.4099-27.81,2.1399-41.77,2.0399c-12.67,0.6801-25.36,1.29-38.06,0.8101
		c4.38,0.22,8.76,0.5399,13.11,1.09c-15.36-0.35-30.72,0.62-46.01,1.86c-13.04-0.0699-26.02,1.21-39.05,1.21
		c-7.95-0.1799-15.81,1.7201-23.75,0.89c2.73-8.11,6.55-15.8099,9.37-23.8999c13.14-33.53,24.9-67.5801,37.48-101.3301
		c11.05-30.67,21.7-61.49,32.81-92.14c21.41-60.45,42.68-120.94,63.71-181.52c7.19-20.93,14.84-41.71,21.51-62.82
		c5.21-13.42,9.74-27.12,14.14-40.83C460.86,611.6,468.23,587.86,476.33,564.37 M518.58,783.87c-5.67,28.91-11.59,57.77-17.05,86.72
		c-7.55,2.27-15.45,2.83-23.12,4.46c-21.88,3.3-43.62,7.4-65.37,11.41c21.15,11.61,42.15,23.5,63.25,35.19
		c5.15,2.93,10.63,5.39,15.22,9.21c-2.52,15.1-3.95,30.36-6.79,45.41c-1.1,13.87-4.57,27.51-5.11,41.41c3.3-1.54,5.67-4.36,8.28-6.8
		c4.72-4.61,10.03-8.57,14.52-13.42c7.34-7.72,15.76-14.29,23.17-21.93c4.2-4.14,8.99-7.66,13-12.01c2-1.85,3.72-4.31,6.38-5.2
		c8.61,3.75,16.9,8.27,25.38,12.35c18.14,9.15,36.5099,17.83,54.67,26.95c-2.6-7.03-6.24-13.6-9.2-20.47
		c-8.71-18.65-17.25-37.37-25.99-56c-0.79-2.14-2.85-5-0.61-6.9301c7.06-7.27,14.07-14.58,21.21-21.77
		c9.48-9.21,18.14-19.21,27.56-28.47c3.68-3.96,7.95-7.4,11.11-11.82c-3.89-0.85-7.78,0.3-11.61,0.89
		c-18.16,1.97-36.3,4.01-54.4,6.43c-7.56,0.67-15.02,2.54-22.65,2.21c-2.13-4.25-4.25-8.49-6.47-12.68
		c-5.7401-9.99-10.38-20.58-16.26-30.49c-4.55-9.41-9.8-18.45-14.43-27.82C521.92,788.29,521.05,785.38,518.58,783.87z"/>
	<path fill="#333333" stroke="#333333" stroke-width="0.3" d="M530.43,629.53c2.62-1.44,5.19-2.95,7.7-4.58
		c14.02,15.59,29.01,30.26,43.7,45.2c73.27,73.41,147.49,145.86,221.76,218.25c56.15,54.52,112.35,109.0099,169.11,162.9
		c14.01,13.0599,27.68,26.51,42.16,39.0399c11.1-12.5699,27.36-20.27,44.0601-21.26c17.2699-1.0399,35.1699,4.2001,48.33,15.65
		c13.1801,10.5701,21.54,26.26,24.65,42.74c92.09-13.28,184.15-26.73,276.24-40.0499c45.0599-6.4301,90.0699-13.3201,135.17-19.42
		c-4.2201,8.12-8.6001,16.16-13.16,24.11c-46.09,6.3-92.09,13.3201-138.15,19.87c-86.77,12.6-173.54,25.22-260.3199,37.75
		c-2.5801,14.5701-9.4501,28.46-20.26,38.66c-12.92,12.24-30.51,19.88-48.4301,19.41c-19,0.23-37.83-8.14-50.44-22.3201
		c-12.01-13.01-18.61-30.77-17.85-48.46c0-9.7001,2.9-19.02,6.54-27.9c-27.05-24.37-53.25-49.65-79.66-74.71
		C863.36,978.64,805.46,922.54,747.77,866.23c-52.75-51.54-105.44-103.16-157.65-155.25C570.28,683.8,549.7,657.13,530.43,629.53
		 M1051.4,1073.63c-13.48,2.12-25.8,8.8199-36.16,17.51c-14.8,15.21-21.71,37.59-18.1,58.5c2.36,14.91,10.28,28.6899,21.6,38.62
		c14.76,13.9299,36.41,19.54,56.23,15.76c16.26-3.1901,31.37-12.46,41.1801-25.87c8.65-12.1801,13.61-27.16,12.77-42.17
		c-0.61-17.24-8.52-34.0499-21.2301-45.6799C1092.8199,1076.49,1071.41,1069.99,1051.4,1073.63z"/>
	<path fill="#333333" stroke="#333333" stroke-width="0.3" d="M415.58,663.61c12.28-9.5,24.15-19.54,36.69-28.69
		c-4.4,13.71-8.93,27.41-14.14,40.83c-4.06,2.24-7.51,5.38-11.15,8.22C353.3,742.28,279.6,800.58,205.91,858.88
		c-1.65,1.01-2.06,2.88-2.2,4.69c-7.83,75.12-15.87,150.23-23.68,225.35c9.56,1.88,19.12,4.96,27.01,10.85
		c-15.29-8.52-33.43-12.28-50.7-8.61c-0.63-0.23-1.89-0.7101-2.52-0.9501c3.96-0.0399,3.3-4.52,3.75-7.2999
		c7.81-75.35,15.9-150.6801,23.74-226.03c0.49-6.45,4.54-12.2,9.81-15.74C265.99,782.02,340.75,722.77,415.58,663.61z"/>
	<path fill="#36332F" stroke="#36332F" stroke-width="0.3" d="M1575.6801,641.91c3.99-0.47,8.0499-0.33,12.0599,0.05
		c0.12,0.38,0.38,1.13,0.5,1.5099c-3.86,0.03-8.21-1.3199-11.63,1.03C1576.3,643.62,1575.99,642.76,1575.6801,641.91z"/>
	<path fill="#FDE2B7" stroke="#FDE2B7" stroke-width="0.3" d="M1576.61,644.5c3.42-2.35,7.77-1,11.63-1.03
		c0.79,2.41,1.45,4.88,1.97,7.38c-3.59,0.8-7.21,1.41-10.85,1.81C1578.4,649.95,1577.49,647.22,1576.61,644.5z"/>
	<path fill="#FEE2BA" stroke="#FEE2BA" stroke-width="0.3" d="M1530.3101,651.55c9.1699-1.13,18.3999-1.61,27.6-2.55
		c-2.14,9.75-4.05,19.76-2.5601,29.76c1.64,20.04,14.5601,38.71,32.92,47.04c17.38,7.96,37.11,7.61,55.77,5.97
		c0.13,8.47-0.23,17.06,1.87,25.35c3.85,18.31,16.49,34.57,33.5,42.46c16.12,7.58,35.0699,6.49,51.6699,1.05
		c2.0901,3.38,3.88,6.95,6.0701,10.28c-1.02,35.77-14.53,71.15-38.03,98.1801c-19.01,22.23-44.23,39.05-72.08,48
		c-36.7101,12.08-77.78,9.5099-113.05-6.06c-29.09-13.48-54.55-35.29-71.14-62.84c-20.84-34.1-28.48-76.16-20.2-115.33
		c6-32.87,23.78-62.95,47.7899-85.94c3.3401,1.2,6.4501,3.69,10.1101,3.62c3.5-2.87,5.7899-6.87,8.6599-10.33
		c4.26-5.28,8.2201-10.83,12.73-15.9C1510.87,658.97,1520.61,655.2,1530.3101,651.55 M1514.37,729.46
		c-9.6801,2.67-17.24,10.45-21.73,19.19c-7.37,14.88-7.48,33.83,1.77,47.94c5.0399,7.86,13.96,13.89,23.58,13.22
		c9.14,0.53,17.51-4.86,23.25-11.58c10.39-12.39,12.9301-30.01,8.77-45.36c-2.87-8.95-8.5601-17.58-17.26-21.71
		C1527.12,728.28,1520.42,727.68,1514.37,729.46 M1610.34,785.27c-7.22,1.67-13.34,6.47-17.87,12.18
		c-11.25,14.74-13.34,36.14-4.4199,52.51c4.6499,8.4,13.0299,15.38,22.8899,16.1c8.6001,0.85,17.02-3.12,23.01-9.11
		c11.54-11.5,15.77-29.27,12.12-44.96c-2.08-9.09-7-17.92-14.8999-23.15C1625.14,784.78,1617.36,783.42,1610.34,785.27
		 M1479.11,834.77c-0.09,2.14-0.21,4.36,0.49,6.45c2.36,7.69,6.0601,14.95,10.6,21.6c9.6001,14.12,22.05,26.19,36.0801,35.89
		c15.36,10.82,32.76,20.18,51.77,21.9c20.1399,2.01,40.58-6.63,54.13-21.45c3.4399-4.03,7.6599-8.33,7.62-13.99
		c-5-0.3-8.87,3.31-12.8501,5.75c-7.0599,5.08-14.46,9.65-21.88,14.17c-9.0699,5.47-19.37,9.05-29.98,9.68
		c-14.0299,1.15-27.7999-4.68-38.73-13.13c-13.4-10.83-22.51-25.7-32.52-39.48c-6.25-8.67-11.9399-17.86-19.51-25.48
		C1482.99,835.17,1481.0699,834.53,1479.11,834.77z"/>
	<path fill="#36332F" stroke="#36332F" stroke-width="0.3" d="M1521.0601,651.51c3.0699-0.23,6.1599-0.16,9.25,0.04
		c-9.7001,3.65-19.4401,7.42-28.3701,12.76c-0.7899-0.98-1.5699-1.95-2.2999-2.94C1506.5699,657.65,1513.83,654.6,1521.0601,651.51z
		"/>
	<path fill="#FEE2BA" stroke="#FEE2BA" stroke-width="0.3" d="M1584.84,668.98c5.15,1.28,9.88,3.82,15.03,5.15
		c20.52,5.66,41.89,7.38,63.1,7.71c5.8401,0.56,11.8301-0.04,17.5801,1.23c26.4199,22.59,45.1,54,52.6699,87.89
		c0.0701,0.49,0.2101,1.48,0.28,1.97c-10.47,4.68-22.42,6.96-33.75,4.39c-9.1801-2.1-16.74-9.09-20.53-17.59
		c-3.96-8.07-3.97-17.44-2.5699-26.14c0.97-6.02,3.24-11.7,4.6699-17.58c-3.8999-6.28-9.73-11.21-14.1899-17.11
		c-1.78-1.85-3.02-5.23-6.12-4.63c-9.97,1.24-19.9301,2.9-30.01,2.97c-9.6801-0.38-19.55-1.63-28.35-5.93
		C1593.5699,687.29,1587.17,678.48,1584.84,668.98z"/>
	<path fill="#333332" stroke="#333332" stroke-width="0.3" d="M1680.55,683.07c4.33-0.27,8.95-0.66,13.12,0.8
		c23.0199,21.76,40.64,49.68,47.9199,80.69c1.01,4.06,1.66,8.2,2.5801,12.29c-3-1.38-5.3301-4.33-8.78-4.5099
		c-0.99-0.09-2.0701-0.1801-2.17-1.38C1725.65,737.07,1706.97,705.66,1680.55,683.07z"/>
	<path fill="#333332" stroke="#333332" stroke-width="0.3" d="M1466.4,685.26c1.34,0.54,2.6799,1.08,4.0399,1.66
		c-24.0099,22.99-41.7899,53.07-47.7899,85.94c-8.28,39.17-0.64,81.23,20.2,115.33c16.59,27.55,42.05,49.36,71.14,62.84
		c35.27,15.5699,76.34,18.14,113.05,6.06c27.85-8.95,53.0699-25.77,72.08-48c23.5-27.03,37.01-62.41,38.03-98.1801
		c2.5599,2.7401,5.5499,5.08,8.7899,6.98c-2.5399,35.94-17.23,70.95-41.1299,97.93c-11.9801,13.54-26.1801,25.1-41.8601,34.1
		c-15.1799,8.96-31.7899,15.65-49.1699,18.82c-36.86,7.76-76.3401,2.62-109.8401-14.63c-29.62-15.21-53.99-39.91-70.12-68.92
		c-26.6599-48.22-26.4099-109.98,0.2101-158.17C1442.42,711.41,1453.76,697.6,1466.4,685.26z"/>
	<path fill="#0484F2" stroke="#0484F2" stroke-width="0.3" d="M1514.37,729.46c6.05-1.78,12.75-1.18,18.38,1.7
		c8.7,4.13,14.39,12.76,17.26,21.71c4.16,15.35,1.62,32.97-8.77,45.36c-5.74,6.72-14.11,12.11-23.25,11.58
		c-9.62,0.67-18.54-5.36-23.58-13.22c-9.25-14.11-9.14-33.06-1.77-47.94C1497.13,739.91,1504.6899,732.13,1514.37,729.46z"/>
	<path fill="#F7F6A9" stroke="#F7F6A9" stroke-width="0.3" d="M1779.62,747.11c0.9,0.03,2.71,0.08,3.61,0.1
		c0.29,1.9-0.64,3.32-2.24,4.25C1780.47,750.01,1780.02,748.56,1779.62,747.11z"/>
	<path fill="#FEFEFE" stroke="#FEFEFE" stroke-width="0.3" d="M518.58,783.87c2.47,1.51,3.34,4.42,4.69,6.83
		c4.63,9.37,9.88,18.41,14.43,27.82c5.88,9.91,10.52,20.5,16.26,30.49c2.22,4.19,4.34,8.43,6.47,12.68
		c7.63,0.33,15.09-1.54,22.65-2.21c18.1-2.42,36.24-4.46,54.4-6.43c3.83-0.59,7.72-1.74,11.61-0.89
		c-3.16,4.42-7.4301,7.86-11.11,11.82c-9.42,9.26-18.08,19.26-27.56,28.47c-7.14,7.19-14.15,14.5-21.21,21.77
		c-2.2401,1.9301-0.18,4.79,0.61,6.9301c8.74,18.63,17.28,37.35,25.99,56c2.96,6.87,6.6,13.44,9.2,20.47
		c-18.16-9.12-36.53-17.8-54.67-26.95c-8.48-4.08-16.77-8.6-25.38-12.35c-2.66,0.89-4.38,3.35-6.38,5.2
		c-4.01,4.35-8.8,7.87-13,12.01c-7.41,7.64-15.83,14.21-23.17,21.93c-4.49,4.85-9.8,8.81-14.52,13.42c-2.61,2.44-4.98,5.26-8.28,6.8
		c0.54-13.9,4.01-27.54,5.11-41.41c2.84-15.05,4.27-30.31,6.79-45.41c-4.59-3.82-10.07-6.28-15.22-9.21
		c-21.1-11.69-42.1-23.58-63.25-35.19c21.75-4.01,43.49-8.11,65.37-11.41c7.67-1.63,15.57-2.19,23.12-4.46
		C506.99,841.64,512.91,812.78,518.58,783.87z"/>
	<path fill="#0484F2" stroke="#0484F2" stroke-width="0.3" d="M1610.34,785.27c7.02-1.85,14.8-0.49,20.8301,3.57
		c7.8999,5.23,12.8199,14.06,14.8999,23.15c3.65,15.69-0.58,33.46-12.12,44.96c-5.99,5.99-14.4099,9.96-23.01,9.11
		c-9.86-0.72-18.24-7.7-22.8899-16.1c-8.92-16.37-6.8301-37.77,4.4199-52.51C1597,791.74,1603.12,786.94,1610.34,785.27z"/>
	<path fill="#333332" stroke="#333332" stroke-width="0.3" d="M1479.11,834.77c1.96-0.24,3.88,0.4,5.22,1.91
		c7.5701,7.62,13.26,16.81,19.51,25.48c10.01,13.78,19.12,28.65,32.52,39.48c10.9301,8.45,24.7001,14.28,38.73,13.13
		c10.61-0.63,20.91-4.21,29.98-9.68c7.42-4.52,14.8201-9.09,21.88-14.17c3.9801-2.44,7.8501-6.05,12.8501-5.75
		c0.0399,5.66-4.1801,9.96-7.62,13.99c-13.55,14.82-33.9901,23.46-54.13,21.45c-19.01-1.72-36.41-11.08-51.77-21.9
		c-14.03-9.7-26.48-21.77-36.0801-35.89c-4.5399-6.65-8.24-13.91-10.6-21.6C1478.9,839.13,1479.02,836.91,1479.11,834.77z"/>
	<path fill="#FBBB01" stroke="#FBBB01" stroke-width="0.3" d="M1586.5,980.24c0.33,0.03,0.98,0.1,1.3,0.13
		c-1.9601,6.15,0.62,12.12,3.22,17.62c8.4199,19.29,18.97,37.53,29.11,55.9401c5.3099,9.6599,11.3199,18.95,16.16,28.87
		c-3.28-1.54-6.66-2.8601-10.0801-4c-4.3099,6.2799-8.26,12.7899-12.2,19.2999c13.83,6.8,28.26,12.27,42.3199,18.5601
		c4.3501,6.12,7.8501,12.7799,11.8,19.1599c29.3099,48.78,59.35,97.13,89.38,145.4701c-10.24,8.8199-20.86,17.1899-30.98,26.14
		c-17.05-7.67-39.0601-3.63-51.1901,10.9299c-11.85,12.99-14.62,33.26-6.52,48.9c6.1101,13.09,19.39,21.8099,33.41,24.21
		c19.9301,3,40.98-9.5399,47.67-28.58c4.9-13.25,3.53-29.72-6.09-40.54c9.1499-6.51,17.3199-14.2999,26.1-21.2899
		c25.0599,39.9099,50.24,79.75,75.38,119.61c3.0399,5.3199,6.96,10.14,9.38,15.83c-3.88-0.01-7.7001-0.6-11.4801-1.3101
		c-35.09-4.83-69.98-11.1499-105.08-15.87c-17.3099-2.96-34.67-5.61-52.0699-7.97c-7.9501-1.49-15.9601-2.66-23.9701-3.74
		c-25.2999-4.33-50.72-7.86-76.09-11.72c-23.8199-3.76-47.61-7.71-71.52-10.8201c-3.6-0.6-7.22-1.62-10.86-0.8999
		c-7.09-3.1001-15.1-2.87-22.58-4.4601c-23.47-3.5599-46.88-7.51-70.41-10.63c-12.14-2.1699-24.3099-4.12-36.5499-5.63
		c15.73-22.9099,29.2999-47.1699,43.35-71.11c18.73-31.72,36.59-63.9299,54.88-95.9099c19.23-34.8,39.0699-69.27,57.86-104.3201
		c4.5599-7.95,8.9399-15.99,13.16-24.11c14.3199-25.87,28.2799-51.96,41.4299-78.44C1586.35,986.71,1586.45,983.42,1586.5,980.24
		 M1570.13,1195.0601c-5.74,10.8099-10.65,22.09-16.9301,32.6c-9.5499-1.4501-19.22-1.8101-28.7799-3.16
		c-9.1901-0.6801-18.28-2.49-27.51-2.45c1.01,1.2999,2.0499,2.6,3.22,3.7999c8.25,8.09,16.27,16.41,24.49,24.53
		c3.86,4.25,8.6901,7.73,11.79,12.62c-4.98,12.86-11.25,25.23-16.54,37.99c-1.97,5.0701-4.99,9.67-6.64,14.88
		c15.6801-7.77,31.23-15.8099,46.77-23.88c2.08-0.9,4.8101-3.04,6.77-0.75c13.47,12.4401,27.38,24.4301,40.89,36.8201
		c0.11-5.75-1.54-11.29-2.2001-16.9501c-2.02-11.7-3.47-23.49-5.61-35.16c-0.09-1.6-0.86-3.38,0.02-4.84
		c2.67-2.26,5.85-3.7999,8.86-5.5599c10.9501-6.27,21.8101-12.7201,32.76-19c2.34-1.38,5-2.4701,6.61-4.78
		c-18.23-2.72-36.33-6.36-54.64-8.54c-1.5699-0.1899-1.7799-2.12-2.09-3.3099c-3.71-17.99-7.23-36.03-11.27-53.9501
		C1576.1899,1182,1573.62,1188.79,1570.13,1195.0601z"/>
	<path fill="#FEE2BA" stroke="#FEE2BA" stroke-width="0.3" d="M1051.4,1073.63c20.01-3.64,41.4199,2.86,56.2899,16.67
		c12.7101,11.63,20.6201,28.4399,21.2301,45.6799c0.84,15.01-4.12,29.99-12.77,42.17c-9.8101,13.41-24.92,22.6799-41.1801,25.87
		c-19.8199,3.78-41.47-1.8301-56.23-15.76c-11.32-9.9301-19.24-23.71-21.6-38.62c-3.61-20.91,3.3-43.29,18.1-58.5
		C1025.6,1082.45,1037.92,1075.75,1051.4,1073.63z"/>
	<path fill="#333333" stroke="#333333" stroke-width="0.3" d="M1626.21,1078.8c3.42,1.1399,6.8,2.46,10.0801,4
		c33.3199,14.7799,67.23,28.2,100.97,41.98c42.6899,17.3199,85.55,34.23,128.17,51.72c7.0499,3.04,14.36,5.59,20.96,9.59
		c0.09,5.3,0.0599,10.62-0.21,15.92c0.08,1.41-0.75,2.53-1.79,3.4c-38.17,31.87-76.34,63.74-114.48,95.65
		c-8.78,6.99-16.9501,14.7799-26.1,21.2899l-1.03,0.2001c-3.6901-6.02-9.39-10.3-15.4401-13.7201
		c-0.21-0.35-0.61-1.0499-0.8099-1.3999c10.12-8.9501,20.74-17.3201,30.98-26.14c33.24-27.6801,66.47-55.37,99.5699-83.2101
		c-36.22-15.0499-72.73-29.38-109.0699-44.11c-30.63-12.26-61.14-24.8199-91.6801-37.3099
		c-14.0599-6.29-28.49-11.76-42.3199-18.5601C1617.95,1091.59,1621.9,1085.08,1626.21,1078.8z"/>
	<path fill="#363330" stroke="#363330" stroke-width="0.3" d="M118.93,1110.9301c9.09-10.3101,21.5-17.62,34.89-20.7201
		c0.63,0.24,1.89,0.7201,2.52,0.9501c-16.53,3.87-31.62,13.95-41.08,28.1c-6.32,10.13-10.65,21.6899-11.32,33.6899
		c-0.92,17.64,5.36,35.6801,17.54,48.5601c13.03,14.08,32.33,22.4399,51.59,21.35c18.11-0.78,35.87-9.35,47.33-23.47
		c10.61-12.88,16.62-29.72,15.54-46.46c-0.85-15.3101-7.12-30.13-17.23-41.6101c-3.47-4.2799-8.1-7.38-11.67-11.5499
		c5.89,2.35,10.54,6.8099,14.92,11.26c18.89,20.03,23.37,52.12,10.73,76.58c-7.91,16.1-22.12,29.21-39.25,34.87
		c-19.47,6.86-41.97,4.52-59.52-6.39c-19.11-11.88-31.9-33.4399-32.61-56.01C100.29,1142.21,106.97,1124.17,118.93,1110.9301z"/>
	<path fill="#FEE2BA" stroke="#FEE2BA" stroke-width="0.3" d="M156.34,1091.16c17.27-3.67,35.41,0.09,50.7,8.61
		c3.57,4.1699,8.2,7.27,11.67,11.5499c10.11,11.4801,16.38,26.3,17.23,41.6101c1.08,16.74-4.93,33.58-15.54,46.46
		c-11.46,14.12-29.22,22.6899-47.33,23.47c-19.26,1.09-38.56-7.27-51.59-21.35c-12.18-12.88-18.46-30.92-17.54-48.5601
		c0.67-12,5-23.5599,11.32-33.6899C124.72,1105.11,139.81,1095.03,156.34,1091.16z"/>
	<path fill="#333333" stroke="#333333" stroke-width="0.3" d="M683.42,1117.9c11.66,126.39,23.35,252.7899,35.54,379.13
		c-0.06,4.2899,4.11,6.51,6.65,9.35c57.33,56.01,114.49,112.1801,171.79,168.22c27,26.6801,54.4,52.9601,81.22,79.8201
		c-7.31,3.21-14.51,6.7999-21.21,11.1699c-84.96-83.0399-169.73-166.27-254.64-249.36c-3.11-3-5.81-6.79-6.01-11.25
		c-2.86-28.0599-5.53-56.14-8.17-84.22c-9.51-100.39-18.9-200.8-28.01-301.24C668.18,1118.83,675.86,1118.98,683.42,1117.9z"/>
	<path fill="#EFD069" stroke="#EFD069" stroke-width="0.3" d="M577.78,1122.83c5.81-0.71,11.67-1,17.5099-0.3999
		c-7.95,1.88-16.15,0.83-24.2,1.72c-17.9901,0.95-35.9901,1.5699-53.95,2.83c-2.6-0.34-5.21-0.5-7.82-0.27
		c-5.1-0.0499-10.26-0.22-15.24,1.0601l-0.7,0.0599c-8.4,0.77-16.88,0.0701-25.26,1.2101c-6.41,0.84-12.89,0.63-19.34,0.52
		c16.57-3.0601,33.49-1.3201,50.15-3.29c18.15-0.1801,36.25-1.5601,54.36-2.6801C561.44,1123.04,569.64,1123.8,577.78,1122.83z"/>
	<path fill="#614802" stroke="#614802" stroke-width="0.3" d="M494.08,1127.77c4.98-1.28,10.14-1.11,15.24-1.0601
		C504.44,1128.58,499.18,1128.4399,494.08,1127.77z"/>
	<path fill="#333333" stroke="#333333" stroke-width="0.3" d="M509.32,1126.71c2.61-0.23,5.22-0.0699,7.82,0.27
		c-14.72,99.1801-29.17,198.41-42.25,297.8301c-3.03,24.87-6.58,49.72-8.19,74.74c-1.65,0.1699-3.31,0.34-4.95,0.5499
		c0.92,2.99,1.98,5.9401,3.03,8.9c-52.99,66.9301-106.07,133.79-159.09,200.6899c-23.15,29.01-45.94,58.3201-69.31,87.15
		c-4.22-6.45-9.03-12.71-15.51-17.0499c23.95-30.65,48.3-60.98,72.4-91.52c49.68-62.64,99.32-125.3101,149.02-187.9301
		c2.48-2.87,1.59-6.97,2.06-10.4299c1.24-16.36,3.34-32.63,5.31-48.91c12.16-95.1899,26.02-190.15,39.94-285.1
		c1.18-9.37,3.16-18.65,3.78-28.0701l0.7-0.0599C499.18,1128.4399,504.44,1128.58,509.32,1126.71z"/>
	<path fill="#FEFEFE" stroke="#FEFEFE" stroke-width="0.3" d="M1570.13,1195.0601c3.49-6.27,6.0599-13.0601,9.97-19.0901
		c4.04,17.92,7.5601,35.9601,11.27,53.9501c0.3101,1.1899,0.52,3.12,2.09,3.3099c18.3101,2.1801,36.41,5.8201,54.64,8.54
		c-1.61,2.3099-4.27,3.4-6.61,4.78c-10.95,6.2799-21.8099,12.73-32.76,19c-3.01,1.76-6.1899,3.2999-8.86,5.5599
		c-0.88,1.46-0.11,3.24-0.02,4.84c2.14,11.67,3.59,23.4601,5.61,35.16c0.66,5.66,2.3101,11.2001,2.2001,16.9501
		c-13.51-12.39-27.42-24.38-40.89-36.8201c-1.96-2.29-4.6901-0.15-6.77,0.75c-15.54,8.0701-31.09,16.11-46.77,23.88
		c1.65-5.21,4.67-9.8099,6.64-14.88c5.29-12.76,11.5601-25.13,16.54-37.99c-3.1-4.89-7.9301-8.37-11.79-12.62
		c-8.22-8.12-16.24-16.4401-24.49-24.53c-1.17-1.2-2.21-2.5-3.22-3.7999c9.23-0.04,18.3199,1.7699,27.51,2.45
		c9.5599,1.35,19.23,1.71,28.7799,3.16C1559.48,1217.15,1564.39,1205.87,1570.13,1195.0601z"/>
	<path fill="#41340E" stroke="#41340E" stroke-width="0.3" d="M1675.34,1318.36c12.13-14.5599,34.14-18.6,51.1901-10.9299
		c0.2,0.35,0.6,1.0499,0.8099,1.3999c-9.1899-3.76-19.5699-5.46-29.2899-2.83c-13.6801,3.37-25.01,14.2-29.62,27.4399
		c-4.5,12.4901-2.6101,27.16,5.2,37.9601c4.64,6.34,10.72,11.87,18.09,14.84c13.22,5.55,29.27,3.87,40.86-4.66
		c8.1801-5.9199,14.01-14.89,16.49-24.64c2.92-11.7,0.12-24.33-6.2899-34.3899l1.03-0.2001c9.62,10.8201,10.99,27.29,6.09,40.54
		c-6.6901,19.04-27.74,31.58-47.67,28.58c-14.02-2.4-27.2999-11.12-33.41-24.21C1660.72,1351.62,1663.49,1331.35,1675.34,1318.36z"
		/>
	<path fill="#FEE2BA" stroke="#FEE2BA" stroke-width="0.3" d="M1698.05,1306c9.72-2.63,20.1-0.9301,29.2899,2.83
		c6.05,3.42,11.75,7.7001,15.4401,13.7201c6.4099,10.0599,9.21,22.6899,6.2899,34.3899c-2.48,9.75-8.3099,18.7201-16.49,24.64
		c-11.59,8.53-27.64,10.2101-40.86,4.66c-7.37-2.97-13.45-8.5-18.09-14.84c-7.8101-10.8-9.7-25.47-5.2-37.9601
		C1673.04,1320.2,1684.37,1309.37,1698.05,1306z"/>
	<path fill="#333333" stroke="#333333" stroke-width="0.3" d="M1481.02,1379.71c7.48,1.5901,15.49,1.36,22.58,4.4601
		c-14.22,43.84-28.45,87.6699-42.7,131.5c-12.2001,38.09-24.97,76.0199-36.86,114.1899c2.9399,5.1901,7.2999,9.4401,10.7999,14.28
		c11.3201,14.34,22.66,28.6799,33.9701,43.04c15.7899,20.24,32.09,40.1,47.5399,60.6c-8.0599,1.86-16.1899,3.5599-23.9199,6.5599
		c-29.5801-37.6699-59.3501-75.1799-89.01-112.7899c-2.67-4.01-3.29-9.29-2.9401-13.99c5.8301-18.77,12.15-37.39,18.11-56.1201
		C1439.48,1507.55,1459.91,1443.52,1481.02,1379.71z"/>
	<path fill="#333333" stroke="#333333" stroke-width="0.3" d="M1662.0699,1407.61c8.01,1.08,16.02,2.25,23.9701,3.74
		c4.74,30.65,10.5599,61.12,15.7799,91.7001c7.63,42.75,15.16,85.51,22.91,128.24c57.52,31.6599,115.0601,63.27,172.6,94.89
		c-11.46,0.6499-22.76,3.1799-33.1899,8.0299c-48.52-26.5699-96.9501-53.3099-145.4501-79.9299c-4.5299-2.64-9.95-4.47-12.73-9.23
		c-3.61-3.9701-3.83-9.4501-4.74-14.4401c-6.5599-36.78-13.1599-73.5599-19.6799-110.34
		C1675,1482.72,1668.01,1445.25,1662.0699,1407.61z"/>
	<path fill="#FD4604" stroke="#FD4604" stroke-width="0.3" d="M1897.33,1726.1801c5.5801,0.1699,11.54,0.8199,16.14,4.3099
		c3.64,2.52,5.5601,6.73,6.53,10.95v6.0601c-4.1801,18.21-16.9399,32.83-30.33,45.1899c-12.8,11.4601-27.1901,21.2401-42.86,28.3201
		c-10.0801,4.55-20.7401,8.17-31.79,9.27c-7.2001,0.5399-15.1,0.22-21.17-4.15c-4.74-3.39-6.75-9.51-6.1899-15.15
		c0.7799-8.9299,5.08-17.09,10-24.41c7.8199-11.2799,17.6799-21.0099,28.4199-29.5099c11.5801-9.28,24.3401-17.14,38.0601-22.8501
		C1874.5699,1729.36,1885.87,1726.83,1897.33,1726.1801z"/>
	<path fill="#FD4604" stroke="#FD4604" stroke-width="0.3" d="M978.62,1754.42c23.44-8.6901,48.39-13.17,73.38-13.16
		c24.87-0.52,49.96,2.4,73.66,10.15c13.72,4.6699,27.24,11,37.9199,21c6.7101,6.4,12.4501,14.96,12.25,24.58
		c0.3301,8.67-4.14,16.75-9.9299,22.9c-9.05,9.62-20.97,15.99-33.15,20.77c-21.3199,8.0699-44.0601,11.7899-66.76,12.7899
		c-22.16,0.74-44.46-1.1899-66.01-6.5299c-15.46-4.03-30.82-9.62-43.88-19.01c-8.1-5.9401-15.6-13.73-18.27-23.67
		c-1.95-6.9-0.72-14.4299,2.7-20.65c3.91-7.38,10.3-13.0399,16.8799-18C964.11,1761.22,971.31,1757.63,978.62,1754.42z"/>
	<path fill="#FD4604" stroke="#FD4604" stroke-width="0.3" d="M1516.35,1747.78c5.77,0.7999,11.87,0.15,17.28,2.7
		c4.8199,2,8.71,6.3,9.67,11.51c1.2899,7.76-1.4401,15.52-4.9601,22.35c-5.2899,9.89-12.64,18.54-20.6,26.39
		c-13.72,13.16-29.54,24.1801-46.8,32.1901c-11.9299,5.35-24.73,9.75-37.95,9.58c-6.42-0.0699-13.46-1.6-17.85-6.64
		c-3.98-4.52-4.23-11.03-3.15-16.66c2.0701-10.1499,7.9401-18.96,14.24-26.97c17.51-21.24,40.6901-37.6699,66.2001-47.89
		C1500.16,1751.34,1508.29,1749.64,1516.35,1747.78z"/>
	<path fill="#FD4604" stroke="#FD4604" stroke-width="0.3" d="M35.49,1769.61c18.4-8.51,38.48-12.6799,58.53-14.9399
		c11.97-0.9401,23.99-0.4501,35.98-0.5601c13.49-0.22,26.88,1.87,40.05,4.63c17.97,3.9401,35.83,10.14,50.82,21.05
		c6.48,4.34,11.29,10.6,15.51,17.0499c3.42,9.23,3.5,20.14-2.09,28.5701c-8.69,13.2799-23.13,21.35-37.48,27.2
		c-21.45,8.5-44.49,11.9401-67.4,13.39h-17.87c-20.71-0.92-41.45-3.89-61.19-10.37c-15.01-5.1801-30.05-12.16-40.96-24.03
		c-4.75-5-7.97-11.35-9.39-18.08v-8.04c1.28-5.28,3.47-10.36,6.83-14.64C14.21,1781.27,24.67,1774.65,35.49,1769.61z"/>
</g>
</svg>
