<?xml version="1.0"?>
<svg xmlns:rdf="http://www.w3.org/1999/02/22-rdf-syntax-ns#" xmlns="http://www.w3.org/2000/svg" xmlns:cc="http://creativecommons.org/ns#" xmlns:dc="http://purl.org/dc/elements/1.1/" xmlns:svg="http://www.w3.org/2000/svg" id="svg23882" viewBox="0 0 744.09 1052.4" version="1.1">
  <g id="layer1">
    <g id="g21174" transform="matrix(4.0527 0 0 4.0527 -1569.5 -1454.1)">
      <path id="path29" fill-rule="evenodd" fill="#b5a855" d="m401.67 429.53c0.0481 0.34701-1.128 1.1954-3.2362 2.5098-1.075 0.57305-2.422 1.3887-4.2896 1.1831l-0.0856-0.007-0.0432-0.003c-0.34026-0.44945 0.75421 1.004-0.76437-1.0071l-0.00044-0.006-0.00088-0.0138-0.002-0.0272-0.0159-0.22098-0.0287-0.44841-0.0477-0.91547c-0.0371-0.62048 0.11828-1.2266 0.18624-1.8579 0.2414-1.2206 0.66198-2.3304 1.109-3.3655 2.1382-3.6271 2.1378-7.7777 0.45721-8.0669-1.5318-0.12458-1.2445 2.8865-1.5601 2.67-0.10901 0.0326-0.38218-0.36483-0.4753-1.3224-0.16638-0.7875 0.22639-3.066 2.0402-3.2435 1.7463-0.219 3.1952 2.3739 3.1122 4.6934 0.0552 2.496-0.96429 4.7374-1.8081 6.6095-0.40954 0.94861-0.75509 1.8498-0.94619 2.7066-0.0415 0.43161-0.19197 0.84929-0.16946 1.266l0.0102 0.61898-0.00045 0.30696-0.002 0.15319-0.00044 0.0198v0.013c-1.519-2.0051-0.41925-0.55511-0.75731-1.0031l0.0278 0.003 0.0552 0.006c1.1527 0.26058 2.463-0.18185 3.5244-0.53139 2.1484-0.82017 3.6537-1.1069 3.7115-0.72027z"/>
      <path id="path31" fill-rule="evenodd" fill="#b5a855" d="m403.12 425.98c-0.53135-0.10282-0.76172-2.7155-0.0658-5.8887 0.79393-3.243 2.6554-5.037 2.9789-4.5085 0.43338 0.6046-0.36497 2.6043-1.0367 5.3252-0.61343 2.7911-1.2988 5.1883-1.8765 5.0721z"/>
      <path id="path33" fill-rule="evenodd" fill="#b5a855" d="m410.82 424.88c-0.39455 0.51561-2.6347-1.136-5.652-3.0037-3.0341-1.884-5.2945-4.2969-4.9591-4.9312 0.31422-0.58532 2.7936 0.61745 5.8704 2.5321 3.1237 1.923 5.1608 4.8635 4.7407 5.4028z"/>
      <path id="path35" fill-rule="evenodd" fill="#b5a855" d="m428.51 421.05c-0.0282 0.26944-1.9757 1.0056-5.2526 2.7027-1.6686 0.751-3.5645 1.8064-6.0982 2.2176-0.65845-0.008-1.41 0.1845-2.3487-0.62381-0.8288-0.69207-1.1867-2.3096-1.0256-3.3473 0.2595-2.1539 1.0609-3.6586 1.8505-5.1739 1.4784-2.9934 3.9361-5.3954 4.5858-7.2848 0.62757-1.1909-2.1814-2.7931-3.4489-2.7219-1.5746-0.0939-2.9123 0.49337-3.245 1.2937-0.35129 0.83249-0.0256 1.661-0.20565 1.7199-0.0168 0.0717-0.7604-0.40735-0.5318-2.1035 0.42235-1.7164 2.1157-2.6344 3.9684-2.805 0.95061-0.1142 2.098 0.18488 3.1135 0.744 0.88397 0.29711 2.8249 2.104 2.1373 4.6316-1.3019 3.6716-3.3399 5.1418-4.7177 8.0896-1.5557 2.8678-2.3849 5.6876-0.25287 5.1161 2.0694-0.1982 4.1215-1.0451 5.7936-1.5626 3.3496-1.2329 5.6869-1.3837 5.678-0.89233z"/>
      <path id="path55" fill-rule="evenodd" fill="#b5a855" d="m457.12 386.42c-0.30144 0.25459 5.0223-3.459 12.156 1.3308 3.1625 1.88 7.4958 7.5483 4.441 13.397-2.1912 5.0789-7.0019 10.47-13.357 10.353-5.9357-0.12845-11.866-1.3376-15.971-5.2633-4.0456-3.8164-5.4119-10.124-3.4741-14.219 2.0182-4.1288 5.7473-5.031 7.8211-5.0157 2.2075 0.0109 3.3457 0.58829 3.3311 0.61004-0.0207 0.1399-1.1947-0.26992-3.3134-0.13298-2.0036 0.11519-5.4358 1.1622-7.1494 4.9292-1.6708 3.6331-0.32923 9.5173 3.4379 12.97 3.7583 3.5831 9.6186 4.7902 15.281 4.8976 5.9248 0.0735 10.249-4.7113 12.515-9.6795 2.7467-5.0127-0.94838-10.133-3.9732-12.114-6.6692-4.7695-11.88-1.5335-11.745-2.0634z"/>
      <path id="path57" fill-rule="evenodd" fill="#b5a855" d="m470.95 397.44c0.0539-0.0119-0.35035 2.2038-2.515 4.7512-2.1306 2.5741-6.3898 4.6336-11.147 4.3859-9.992-0.31787-14.842-8.886-14.258-8.8391 0.0172-0.29859 4.8757 7.3342 14.302 7.616 4.501 0.21899 8.442-1.5483 10.571-3.7912 2.1572-2.2142 2.8263-4.2544 3.0464-4.1229z"/>
      <path id="path59" fill-rule="evenodd" fill="#b5a855" d="m463.86 387.31c-0.0825-0.0539 0.54141-1.2542 1.5353-3.4817l0.39454-0.87897 0.21362-0.4736c0.70795 0.65355-0.0344 0.35743 0.0146 0.5868-0.55613 0.41378-1.1536 0.87403-1.7776 1.4252-0.63291 0.52303-1.3134 1.1246-2.1069 1.6497-0.51678-0.11717-0.57939 1.3417-1.5058-0.0509 0.10382-0.5344 0.21316-1.0807 0.38396-1.6264 0.13293-0.55516 0.37072-1.094 0.58123-1.6556l0.42677-0.81124c0.29303 0.21456-0.34241-1.0569 0.71543 0.37671l-0.29924 0.30402c-0.80452 0.81817-1.6289 1.6546-2.5071 2.5435l-1.3364 1.353-0.3416 0.34456-0.17207 0.17253c-1.6051-0.88587-0.42808-0.39251-0.77805-0.65601l0.11872-1.0322c0.15975-1.3842 0.32613-2.8139 0.49869-4.2826l0.0644-0.5517 0.0322-0.27685 0.0159-0.1389 0.004-0.0351 0.002-0.0178c0.4369 0.12161-0.97447-0.29562 0.98015 0.26695l-0.0195 0.0662-0.31157 1.054-0.6222 2.1816c-0.41312 1.4885-0.9533 3.0062-1.6908 4.4793-2.2481-1.75-0.77142-3.4486-0.98282-5.119l0.31908-2.4822 0.15005-1.2359 0.009-0.0786 0.002-0.0183c2.173 0.23531 0.60107 0.0761 1.0856 0.13446l-0.005 0.0396-0.0163 0.16017-0.0353 0.31985-0.0697 0.64167c-0.18272 1.712-0.43691 3.4026-0.83498 5.0414-0.15535 0.82854-0.42809 1.6259-0.69244 2.4189l-0.19506 0.59223-0.0494 0.14831-0.0119 0.0376c-2.0067-0.10727-0.55914-0.0405-1.008-0.0697l-0.005-0.0183-0.019-0.0747-0.0772-0.29909-0.30539-1.1879c-0.38219-1.5844-0.63153-3.1703-0.79217-4.7399-0.0834-0.78453-0.0808-1.576-0.12313-2.3487l-0.003-0.0727-0.001-0.0366-0.001-0.0183c0.45147 0.0514-1.0119-0.14039 1.012 0.11123l-0.0185 0.13447-0.0371 0.26991-0.0746 0.53836-0.14872 1.0663c-0.10504 1.4519-0.2242 2.9009-0.40205 4.3266-0.51413 0.74005 0.51546 1.3436-1.2675 2.1623-0.3001-0.65601-0.74231-1.2611-0.88045-1.9463-0.35526-1.362-0.39277-2.6997-0.31157-3.9459l0.0759-0.92395c0.37158-0.13002-0.77761-0.35248 0.84203-0.40537l0.12004 0.42959c0.15093 0.57148 0.33187 1.1212 0.44574 1.6754 0.19638 2.0783 1.3831 4.5397-0.0569 5.8032-1.32-1.1731-2.1007-2.4164-2.8478-3.3463-1.41-2.1223-2.5094-2.272-2.5853-2.0926-0.10371-0.37522 1.4612-0.2976 2.899 1.7713 0.78335 0.87649 1.6722 2.1129 2.873 3.0986-0.51635-0.0781-0.37689-3.2628-1.0287-5.0113-0.12092-0.53144-0.3076-1.054-0.46251-1.5997l-0.12268-0.40933c1.5354-0.35593 0.40998 0.1498 0.74539 0.18489l-0.0552 0.88144c-0.0587 1.1835 0.009 2.4115 0.33054 3.5747 0.12534 0.59817 0.51061 1.047 0.74319 1.5997-1.4572-0.11518-0.18447-1.1355-0.4047-1.6719 0.1505-1.3491 0.25465-2.7738 0.34865-4.2663l0.14695-1.1385 0.0759-0.57494 0.0384-0.28969 0.0185-0.14436c2.0257 0.24718 0.56224 0.0781 1.0146 0.13793l0.00089 0.0173 0.002 0.0346 0.004 0.0687c0.0485 0.7361 0.0485 1.4801 0.13461 2.2305 0.16417 1.5028 0.41351 3.0324 0.78731 4.5505l0.29788 1.1385 0.0746 0.28624 0.0181 0.0712 0.005 0.0178c-0.44617-0.0193 1.0044 0.0692-0.99827-0.0386l0.0106-0.0356 0.045-0.13891 0.17917-0.55665c0.24406-0.74153 0.49958-1.4841 0.64699-2.2854 0.37688-1.5656 0.62402-3.2108 0.80143-4.8822l0.068-0.62635 0.0344-0.31243 0.0177-0.15523 0.004-0.0395c0.48545 0.0514-1.083-0.14139 1.0887 0.10875l-0.003 0.0208-0.01 0.0796-0.1549 1.2749-0.32349 2.4831c-0.1346 0.82113-0.13018 1.5987-0.20521 2.3907-0.0494 0.39993 0.0463 0.76428 0.0591 1.1454l0.0463 0.56455 0.0221 0.28227 0.011 0.14039 0.003 0.0351 0.001 0.0173c0.87294 0.17797-1.1876-0.21801-0.97223-0.18588l0.0296-0.0638c0.67169-1.3362 1.1929-2.7496 1.6104-4.2159l0.64123-2.1846 0.33103-1.0846 0.0203-0.0677c1.9578 0.55813 0.54106 0.16511 0.9775 0.29413l-0.002 0.0168-0.004 0.0351-0.0181 0.13892-0.0349 0.27536-0.0693 0.54923c-0.18484 1.4593-0.36577 2.886-0.54371 4.2747l-0.1319 1.0332c-1.6426-0.49782-0.0613-0.525-0.2524-0.80778l1.3376-1.311c0.87552-0.85673 1.7445-1.7065 2.5675-2.5094l0.30845-0.30007c1.3417 1.1232 0.25643 0.51561 0.50538 0.8577l-0.39143 0.70594c-0.20211 0.51264-0.43391 0.99662-0.57019 1.5201-2.031 3.6746 6.2438-5.652 4.0257-0.68171-1.1187 2.1771-1.8614 3.286-1.9095 3.2553z"/>
      <path id="path61" fill-rule="evenodd" fill="#b5a855" d="m447.01 393.87c0.27273 0.0732-0.34379 1.36 0.47442 2.3749 0.68625 1.0273 3.3531 1.3125 4.1758-0.50672 0.97312-2.1485-0.6174-3.6058-2.1201-3.5376-1.4921-0.0811-1.9237 0.78701-2.1311 0.77564-0.35394 0.0752 0.0582-1.8326 2.0521-2.0708 0.88883-0.12705 2.1351-0.0583 3.1855 1.0466 1.0812 1.2166 1.1315 3.0734 0.46073 4.6474-1.8328 3.3176-5.5955 2.3314-6.5633 0.40389-0.97973-2.2953 0.47309-3.3156 0.46604-3.1332z"/>
      <path id="path63" fill-rule="evenodd" fill="#b5a855" d="m461.73 397.44c-0.023-0.30255 0.71363-0.53835 1.6192-1.2982 0.86367-0.76921 2.0129-2.3497 0.6377-2.9241-1.0967-0.89033-2.8222-0.003-3.4282 0.7173-0.66771 0.63822 0.2317 1.1276 0.10768 1.4188 0.32658 0.30601-1.9069 0.17897-1.0834-2.1183 0.73127-1.4109 2.9162-3.0882 5.2826-1.5681 1.1501 0.42515 1.7922 2.713 0.98857 3.6701-0.53356 1.0648-1.2979 1.5552-1.9131 1.9201-1.3147 0.62831-2.2207 0.37867-2.211 0.18241z"/>
      <path id="path65" fill-rule="evenodd" fill="#b5a855" d="m475.73 393.87c-0.33849-0.30552 1.9608-2.5108 0.12578-3.9978-1.7648-1.3422-2.6501 2.2671-3.0504 1.9127-0.17521-0.0356-0.38307-0.74401-0.0335-1.9092 0.0658-1.1504 2.2176-3.0348 4.0067-1.5211 1.7516 1.2497 1.4427 4.0072 0.53002 4.7399-0.79481 0.90863-1.4934 0.92988-1.5786 0.77565z"/>
      <path id="path67" fill-rule="evenodd" fill="#b5a855" d="m438.6 393.87c-0.19859 0.11668-0.52826-0.20564-0.90647-0.93235-0.33717-0.59124-0.41131-2.7006 1.241-3.2415 2.8717-0.53489 3.6978 1.9957 3.388 2.0887-0.30187 0.42761-1.7207-0.71979-2.892-0.33864-0.93074 0.0821-0.37247 2.3022-0.83056 2.4238z"/>
      <path id="path69" fill-rule="evenodd" fill="#b5a855" d="m459.34 411.74c0.36321-0.27684 1.1302 0.56257 0.99077 1.7826-0.16153 1.1573-0.88396 1.7144-1.2569 1.4934-0.42411-0.23729-0.45765-1.0273-0.36806-1.7332 0.0786-0.66886 0.21889-1.2616 0.63417-1.5429z"/>
      <path id="path71" fill-rule="evenodd" fill="#b5a855" d="m457.21 398.03c0.0781 0.54132-1.0177 1.0139-1.0225 1.2453-0.16417 0.21554 0.15976 1.5142-0.30672 1.7337-0.14122 0.15622-1.6488-0.1656-1.1761-2.5168 1.3813-1.9354 2.5795-0.67678 2.5054-0.46222z"/>
      <path id="path4669" fill="#26231f" d="m428.62 422.01-6.9001 1.0026s-5.385-0.0198-5.4949-1.0026c-0.10989-0.98229 4.7826-4.8753 4.7826-4.8753l11.956-5.2837s2.8518 4.3004 2.523 5.4063c-0.32883 1.1059-5.1114 5.121-6.8665 4.7527z"/>
      <path id="path4671" fill="#26231f" d="m469.22 448.87c0.27892 9.2509 8.4301 16.664 18.996 18.017 1.4771 0.18991 2.8872 1.7412 4.442 1.6828 1.7763-0.0681 3.6166-1.7791 5.2685-2.1608 10.14-2.3339 17.52-10.213 17.247-19.28-0.31905-10.543-10.864-18.7-23.554-18.22-12.689 0.48101-22.718 9.4165-22.399 19.961z"/>
      <path id="path4673" fill="#f4b891" d="m470.92 448.49c0.26214 8.7031 7.8215 15.682 17.618 16.961 1.368 0.17793 2.6753 1.1672 4.1183 1.1112 1.647-0.0633 3.3501-1.2008 4.8819-1.5572 9.3997-2.1905 16.237-9.5988 15.98-18.128-0.29959-9.9178-10.078-17.596-21.841-17.152-11.763 0.44542-21.056 8.847-20.757 18.765z"/>
      <path id="path4675" fill="#26231f" d="m482.1 463.37s14.088-9.2825 24.448-7.8904c10.359 1.3921 10.359 8.8188 11.602 14.389 1.2433 5.5699 1.2428 25.529-0.8288 29.242 0 0-38.122 1.3931-41.022 1.3931-2.9009 0-1.2428-4.6416-0.414-6.9626 0.82834-2.3209-1.6285-17.836-1.6285-17.836s-19.062-11.725-18.567-13.948c0.70347-3.152 11.079-12.776 11.079-12.776l15.331 14.389z"/>
      <path id="path4677" fill="#26231f" d="m478.29 496.79s-5.1092-2.711-6.9914 8.1326c-1.8826 10.845-1.0754 9.639-2.1514 12.35-1.0756 2.7111-5.1096 26.808-3.4957 32.231 0 0-9.1424 6.6243-5.1092 9.6399 4.0337 3.0106 7.2602 4.5184 4.0337 6.6244-3.2265 2.1108-6.4539 7.5289-1.6135 7.5289s5.6467 0.90465 7.7981 3.6187c2.1515 2.7091 6.1846 0.6031 6.1846 0.6031s3.4962 6.0213 7.7986 2.106 3.4953 1.2062 6.7222-1.2063c3.2269-2.4074 4.8408-10.841 1.8822-11.444 0 0 7.5294-3.3122 5.1096-7.2275-2.4202-3.9203-5.1096-7.2324-5.1096-7.2324s1.3448-6.0213 2.4202-10.238c1.0759-4.2193-2.4202-7.8335-2.4202-7.8335s11.026 2.71 15.866 0.60206-4.0333 0.30109-3.4957 6.0252c0.53796 5.7246 2.689 9.0368 1.6129 12.952-1.075 3.9153 1.076 6.926 1.076 6.926s8.3361 1.2062 5.1091 4.2167c-3.2265 3.0156-1.8822 11.449 2.689 12.651 4.5712 1.2063 4.3025 3.3172 4.3025 3.3172s7.5298-1.5077 9.412-3.3172 2.689 1.2063 6.7222-4.2119c4.0336-5.423 3.2278-15.063-0.26875-15.063-3.4958 0 1.8826-5.423 2.4201-10.846 0.53807-5.4182-2.4201-10.542-6.4538-12.349-4.0336-1.8073-2.151-5.422-2.151-5.422s-3.4957-23.194-13.445-32.833-33.075-4.5179-38.453-0.30107z"/>
      <path id="path4679" fill="#26231f" d="m438.16 424.86s19.814 15.499 27.599 25.788-3.8214 9.1669-5.7032 9.1669c-1.8823 0-13.329-19.681-23.992-28.015 0 0 1.0212-7.2408 2.0967-6.9398z"/>
      <path id="path4681" fill="#26231f" d="m476.41 576.32s4.8408 20.783 6.9918 22.29c2.151 1.5028 3.7645 0 3.7645 0s-1.3443-16.269-1.3443-19.883c0-3.6137-8.8741-6.3228-9.412-2.4075z"/>
      <path id="path4683" fill="#26231f" d="m522.93 576.01c-0.12974 0.94422-2.9582 20.783-1.0759 21.687 1.8822 0.90465 4.0332-1.5079 4.0332-1.5079s4.0341-15.661 4.5712-19.576c0.5384-3.9153-6.991-4.5184-7.5285-0.60311z"/>
      <path id="path4685" fill="#26231f" d="m483.94 591.08s10.219-9.6399 12.638-7.8355c2.4206 1.8093 1.0759 2.1109-0.53715 5.4231-1.6134 3.3122-6.9918 11.746-9.6803 11.746-2.6894 0-5.1096-2.1059-5.1096-3.6138 0-1.5077 0.53797-5.1215 2.689-5.7196z"/>
      <path id="path4687" fill="#26231f" d="m507.87 586.25s18.285 2.4124 18.823 5.1215c0.5375 2.714-0.53807 8.7352-2.4202 9.0368-1.8823 0.30155-14.79-9.0368-16.403-10.54-1.6135-1.5078-2.4202-4.2168 0-3.6187z"/>
      <path id="path4689" fill="#26231f" d="m490.12 427.21s9.4125-1.5068 17.748 1.2048c8.3356 2.7105 13.983 9.6384 14.789 16.566 0 0-4.2857-5.5244-6.7062-5.5244-2.4202 0-0.0159 5.2239-1.8986 9.1397 0 0-2.4202 0.6016-3.2269 0.6016s1.3443-6.0237-0.8067-7.53 0.26921 9.6389-1.8823 10.844c-2.151 1.2047-1.3447-6.3248-2.9582-6.6268-1.6135-0.30109 0.8067 11.447-1.3443 8.7352-2.1509-2.7106-4.0336-8.4337-4.0336-6.3253s-2.1515 6.3253-3.4957 6.6268-0.19992-6.1049-1.1399-5.9871c-1.8897 0.23629-1.0111 7.4934-1.0111 7.4934s-1.8827 0.60218-3.2269 0.30109c-1.3448-0.30109-0.53795-6.0248-2.4202-6.3257-1.8823-0.30109 0.26875 7.2289 0.26875 7.2289s-2.4198-4.8189-4.0332-4.5179c-1.6135 0.30166 3.764 9.0363 0.80624 7.229-2.9582-1.8069-4.0333-3.9153-4.0333-3.9153s2.1507 8.1332 0.26886 6.0248c-1.8823-2.1095-3.2266-4.8205-3.2266-4.8205s1.3448 6.0248-0.26921 5.7232c-1.6134-0.30109-11.975-6.6046-11.832-14.157 0.26876-14.157 18.823-20.181 23.663-21.988z"/>
      <path id="path4691" fill="#26231f" d="m507.88 456.58c3.1391 0.63921 11.022-1.2996 13.632 1.9498 2.6109 3.2489 29.005 53.609 31.615 53.284 0 0-3.4807 2.274-4.641 1.9492-1.1597-0.3248-32.775-42.887-36.256-42.562-3.4807 0.3248-7.5413-15.271-4.3505-14.621z"/>
      <path id="path4693" fill="#26231f" d="m551.98 508.55s9.5559-3.4837 9.5692-1.4391c0.0168 2.3428-2.944 3.9168-0.0437 4.5659 2.9004 0.64958 5.2076 3.3453 4.6074 4.2183-0.88612 1.2902-4.3858-0.0989-4.2971 0.84386 0.66468 1.1909 3.2786 3.8708 1.7543 4.4922-2.2472 0.91754-5.4626-4.1086-5.0329-1.8622 0.26576 1.3892 2.7252 4.6094 0.68183 5.1117-1.2136 0.29752-3.0742-3.8214-3.7384-3.6227 0.17652 1.6373 1.3729 5.4592-0.26656 5.5081-1.0662 0.0322-8.8604-9.2305-8.1516-14.143 0.19109-1.3224 2.5976-3.673 4.9176-3.673z"/>
      <path id="path4695" fill="#007c33" d="m475.93 503.18s34.186-7.2121 41.956 0.49682c5.4048 5.3627 11.321 21.137 10.655 25.364 0 0-2.2194 4.4763 0.22248 6.217 2.4422 1.7406 8.2139 8.7031 7.9919 12.683-0.22248 3.9795-4.6622 7.959-3.9962 9.9464 0.66606 1.9874 5.1061 1.4929 4.8837 4.9733-0.22201 3.4802-1.3319 9.9464-3.9958 11.439-2.6638 1.493-10.434 4.2268-10.434 4.2268s-3.9956-1.9923-6.4375-2.2394c-2.4419-0.24722-5.55-3.9795-2.8862-6.9605 2.6642-2.9859 4.2181-5.7198 3.5522-7.712-0.66594-1.9874-6.8819-0.74156-7.7698-2.4866-0.88796-1.7401-1.3319-4.2268-0.22202-6.2141 1.11-1.9922-1.1099-3.7323-1.1099-7.2125s-1.332-5.9669 0-8.2054c1.3319-2.2379 0.66594-4.725 0.66594-4.725s-14.853-4.7443-18.648-0.49733c-0.44392 0.49733-0.22156 0.99466 1.9983 4.2272 2.2198 3.2336 1.5539 7.7074-0.6664 11.193-2.2194 3.4802-1.3314 5.9669 0.88842 8.2063 2.2198 2.2346 8.6573 3.7275 3.1078 6.7134-5.5497 2.981-3.9962 4.7211-3.3298 5.2204 0.66594 0.49928 0.44404 7.707-2.4422 8.7056-2.8858 0.99373-4.4397 3.4802-7.3256 1.4881-2.8858-1.9874-4.8213-2.4274-6.1846-1.7104-1.3632 0.71681-1.5852 2.9562-4.249-0.52403-2.6638-3.4852-6.216-3.4804-8.4354-3.9796-2.2203-0.49928-3.1078-1.7401 1.1099-4.2266 4.2177-2.4866 3.7737-5.9718 3.7737-5.9718s-9.9897-1.7401-6.438-4.9733c3.5522-3.2281 4.6626-3.4802 4.4401-6.4612-0.22199-2.9859-1.5539-11.938 0.88793-17.409 2.4418-5.4706 1.3319-6.7138 2.6638-12.184 1.332-5.4715 2.6643-9.4495 2.6643-12.434 0-2.984 1.3319-5.2214 3.1077-4.9727z"/>
      <path id="path4697" fill="#26231f" d="m520.55 458.17s13.098 14.672 12.21 16.909c-0.88796 2.2379-10.567 10.46-10.567 10.46s-1.8641-6.7302-4.084-8.9681c-2.2198-2.238 1.3319-20.639 2.4418-18.401z"/>
      <path id="path4699" fill="#77bd6d" d="m465.72 451.7s-8.6609 8.935-7.7725 9.9301c0.88794 0.99464 17.54 11.207 17.762 13.444 0.22236 2.2379 1.9978 16.413 1.9978 17.656 0 1.2434-0.88796 3.73-0.88796 3.73s35.519-2.238 37.961-1.2438c2.4422 0.99511 2.8831-13.482 2.6642-17.407-0.22201-3.9786 1.9978-2.4866 3.1078-0.99419 1.1099 1.492 2.658 5.9362 2.658 5.9362s8.6636-7.18 7.9981-8.1746c-0.6664-0.99465-8.2143-10.941-9.5462-12.93-1.3319-1.9898-4.2177-3.2331-4.2177-3.2331l-9.3237-0.24866s-7.7695-1.7406-14.429 1.7406c-6.66 3.4812-11.544 4.7251-11.544 4.7251s-13.542-13.18-16.427-12.931z"/>
      <path id="path4701" fill="#dddc2e" d="m475.05 498.7s-2.8858 3.2326-1.5539 3.2326 24.641-6.2165 43.067-1.2433l0.18669-3.5974s-33.264-1.3758-41.7 1.6081z"/>
      <path id="path4703" fill="#f4b891" d="m524.11 580.77s-0.66595 9.9464-1.5539 9.9464c-0.88793 0-5.3276-0.99369-4.2177 0 1.1099 0.99361 5.5496 4.7211 6.4375 3.9795 0.88794-0.7465 3.7737-14.925 3.7737-14.925s-4.4397-0.99365-4.4397 0.9986z"/>
      <path id="path4705" fill="#f4b891" d="m478.38 579.27c-0.36938 0.61794 3.9957 15.419 4.6617 16.165 0.66595 0.74156 3.1078-0.25217 3.1078-0.25217s3.9961-6.4662 2.2198-5.4676c-1.7754 0.99373-1.5539 1.7402-2.2198 1.2408-0.66595-0.49434-2.2203-8.4534-2.4418-9.9464-0.22199-1.4929-3.9957-3.9796-5.3276-1.7401z"/>
      <path id="path4707" fill="#006927" d="m488.81 588.22s6.8816-5.4725 7.3255-3.7324c0.44392 1.7401-8.1719 13.802-8.9698 14.114-0.79791 0.31145-4.3496-1.4287-4.3496-1.4287s4.6621-0.25218 6.882-3.4853c2.2198-3.2331 1.5539-6.4612-0.88794-5.4676z"/>
      <path id="path4709" fill="#006927" d="m524.99 596.93s-0.22248 1.9922-1.3328 1.7401c-1.11-0.24718-17.981-11.434-15.983-11.187 1.9979 0.24718 11.988 1.2408 11.988 1.2408s-4.6617-0.24718-3.7737 1.2458c0.88793 1.493 6.882 6.9605 9.1023 6.9605z"/>
      <path id="path4711" fill="#f4b891" d="m525.44 482.69s4.8841-5.9674 6.438-4.2272c1.5539 1.7401 16.957 32.471 19.177 32.471 2.2198 0 8.4614-4.0251 8.5064-2.2331 0.0221 0.89234-3.06 1.5103-2.3483 3.0774 0.51505 1.1331 9.6681 2.586 8.0188 3.3245-1.3288 0.59515-7.159-1.3278-6.4926 0.16366 0.66594 1.4914 3.3099 2.9586 2.6638 3.7299-0.64568 0.77114-3.9956-3.7309-4.2177-2.2385-0.22202 1.492 1.5768 5.1497 0.78115 5.2432-1.4374 0.16907-2.1448-3.5119-2.9683-3.3749-1.9612 0.32675 0.34552 4.7482-0.57594 5.1611-0.44311 0.19923-5.9283-8.7437-5.8925-10.62 0.0357-1.876-23.089-30.476-23.089-30.476z"/>
      <path id="path4713" fill="#461b28" d="m467.91 447.53s0.94001-7.4884 6.4759-10.881c5.5363-3.3933 12.271-7.8301 18.906-8.7748 12.326-1.7554 22.144 5.0306 24.128 7.839 1.9846 2.8084 3.6559 5.7336 3.6559 5.7336s-5.2227-6.9042-7.2073-5.9679-0.10462 0.11814-0.52207 1.2873c-0.41791 1.1696 1.2534 10.062 0.52207 10.764-0.73085 0.70197-2.0892 0.93584-2.0892 0.93584s1.1488-7.9566-0.83536-8.1899c-1.9847-0.23387-2.4026 0.23376-2.4026 0.23376l-0.6267 10.647s-0.73073-7.7218-2.6104-7.6047c-1.8809 0.11671-1.1497 9.7116-1.3588 9.2434-0.20879-0.46855-3.238-8.0743-4.1781-7.9571-0.93998 0.11717-1.567 6.7865-2.2979 8.1905-0.73132 1.4039-1.5667-8.4244-1.5667-8.4244s-3.1335 2.2232-2.9247 9.9459c0.0614 2.2706-1.7758 1.0525-1.7758 1.0525s-1.5668-8.7748-2.9247-7.839c-1.3579 0.93584-1.0446 5.8508-1.3579 5.3825-0.31341-0.46867-3.1339-1.8726-3.238-0.81959-0.10416 1.0529 1.3579 7.0198 1.0446 6.435-0.3134-0.58479-4.3867-4.5624-4.1781-3.7437 0.20879 0.81855 1.0446 5.733 0.6267 5.1482-0.41791-0.58491-3.5517-5.7336-3.4471-4.3296 0.10458 1.4045 0 3.0423 0 3.0423s-8.7739-9.3596-9.8185-11.349z"/>
      <path id="path4715" fill="#60223a" d="m487.44 431.03s-11.698 0.58532-13.996 9.595 6.3713-5.4987 6.998-4.7973c0.62668 0.70208-4.178 14.158-2.9246 16.732 1.2534 2.5736 1.7754-0.58526 1.7754-0.58526s3.1338-14.743 6.2672-14.041c1.5499 0.34747 0.1045 9.4777 0.1045 9.4777s3.0293-9.3601 3.1338-8.8919c0.10416 0.46763 2.8201 11.817 2.6113 13.455-0.20913 1.6383 0.10416-17.785 1.4626-16.498 1.3574 1.2873 10.653 12.871 9.8181 10.18-0.83548-2.6913-7.2073-12.87-5.4313-12.403 1.7753 0.46815 9.8184 9.4772 9.7139 8.4238-0.10462-1.0524-4.1781-8.1899-4.1781-8.1899s7.9385 5.383 7.3119 4.3295c-0.62715-1.0529-10.132-7.0203-9.2965-7.0203 0.83548 0 9.8185 2.2231 11.49 3.2761 1.6712 1.0535-17.757-11.233-24.86-3.0428z"/>
      <path id="path4717" fill="#6e3249" d="m491.3 429.05s9.0877-3.7442 23.084 4.7967-11.176-5.8497-23.084-4.7967z"/>
      <path id="path4719" fill="#6e3249" d="m488.17 432.32c0.0194 0.0499-0.20918 0.18143-0.5415 0.51957-0.33231 0.33616-0.7551 0.89477-1.173 1.6739-0.84997 1.5508-1.6766 3.9262-2.4948 6.5907l-0.60638 1.9507c-0.18888 0.63327-0.43514 1.2414-0.59093 1.793-0.3301 1.1385-0.50045 2.2103-0.57371 3.114-0.14873 1.8162 0.1196 2.9364 0.026 2.9616-0.0693 0.0366-0.50664-1.0806-0.46869-2.9883 0.019-0.9462 0.14917-2.0733 0.46427-3.2781l1.1576-3.7828c0.82306-2.6789 1.7313-5.0825 2.7163-6.6328 0.48413-0.77811 0.99033-1.3268 1.3946-1.619 0.40601-0.29463 0.67831-0.34209 0.69022-0.30254z"/>
      <path id="path4721" fill="#6e3249" d="m477.72 450.93c-0.0772 0.005-0.20654-1.2453 0.0455-3.2405 0.24582-1.9878 0.89941-4.7004 2.1188-7.4529 1.2079-2.7585 2.7666-4.9836 4.1021-6.3356 1.3341-1.3649 2.3708-1.883 2.4034-1.8088 0.053 0.0934-0.87955 0.75093-2.0941 2.1643-1.2185 1.4035-2.6709 3.6004-3.8501 6.2916-1.1885 2.6848-1.8924 5.3039-2.2432 7.227-0.35747 1.926-0.38704 3.1554-0.48236 3.155z"/>
      <path id="path4723" fill="#6e3249" d="m472.4 448.94c-0.0759 0.003-0.14961-1.2452 0.26964-3.1792 0.41087-1.925 1.3112-4.5169 2.8642-7.0114 0.78422-1.2408 1.6452-2.3358 2.6144-3.1436 0.9731-0.78849 1.9528-1.2492 2.7494-1.6437 1.6144-0.74351 2.5248-1.3545 2.5747-1.2858 0.0238 0.0366-0.16947 0.25904-0.57638 0.57592-0.40425 0.32083-1.03 0.71533-1.809 1.1593-0.77275 0.45085-1.7079 0.95065-2.5919 1.711-0.86807 0.76426-1.696 1.837-2.448 3.0294-1.5014 2.411-2.4427 4.9005-2.9502 6.7406-0.5159 1.8464-0.60063 3.0545-0.69684 3.0476z"/>
      <path id="path4725" fill="#6e3249" d="m491.72 447.53c-0.0922-0.0232 0.015-0.70845 0.0278-1.7975 0.0247-1.0915-0.15887-2.5731-0.64256-4.16-0.47751-1.5859-0.98282-3.0457-1.2017-4.1526-0.23345-1.1024-0.2489-1.8093-0.1677-1.8242 0.0891-0.0178 0.25818 0.64513 0.5927 1.6833 0.32084 1.0441 0.87778 2.4352 1.3725 4.0755 0.50311 1.6398 0.63462 3.2756 0.48898 4.4101-0.13107 1.1405-0.39542 1.788-0.47 1.7654z"/>
      <path id="path4727" fill="#6e3249" d="m497.57 446.01c-0.0936-0.004-0.1271-0.71188-0.28244-1.8306-0.15579-1.1158-0.44264-2.6492-0.99253-4.249-0.54107-1.6042-1.271-2.929-1.9087-3.7858-0.63637-0.86117-1.1527-1.2744-1.0989-1.3669 0.034-0.0732 0.65889 0.20318 1.4237 1.0292 0.76216 0.81865 1.6038 2.194 2.1691 3.8713 0.57503 1.6739 0.80232 3.2884 0.84821 4.4522 0.0459 1.1686-0.079 1.885-0.15843 1.8795z"/>
      <path id="path4729" fill="#6e3249" d="m506.66 443.2c-0.0794 0.0485-0.56268-0.82456-1.2723-2.2602-0.72377-1.4124-1.6885-3.4269-3.3249-5.0474-1.6448-1.6516-3.3373-2.8811-4.6581-3.506-1.3213-0.64513-2.2366-0.66244-2.2344-0.77021-0.015-0.0855 0.95723-0.25014 2.3928 0.30601 1.4294 0.53588 3.2274 1.7485 4.9172 3.4471 0.87381 0.85029 1.5398 1.8405 2.0698 2.7714 0.52825 0.9373 0.91927 1.8252 1.2317 2.5726 0.61254 1.5009 0.95016 2.4422 0.87822 2.4866z"/>
      <path id="path4731" fill="#6e3249" d="m508.02 436.42c-0.0635 0.0682-0.37954-0.18638-0.85262-0.62487-0.47531-0.43553-1.1068-1.0535-1.8536-1.6422-0.74672-0.59027-1.4784-1.0426-2.0084-1.3886-0.53091-0.34358-0.85528-0.58284-0.8213-0.6738 0.0327-0.088 0.41749-0.0104 1.0075 0.22344 0.5874 0.23532 1.3893 0.63772 2.1828 1.265 0.79394 0.62635 1.403 1.3308 1.8046 1.8637 0.40115 0.53688 0.60283 0.91159 0.54105 0.97735z"/>
      <path id="path4733" fill="#6e3249" d="m503 444.26c-0.0949 0.0188-0.24582-0.68419-0.64079-1.7411-0.39014-1.0574-1.0596-2.456-2.0186-3.8342-1.9109-2.7847-4.1277-4.3147-4.0257-4.4873 0.0393-0.0771 0.65183 0.19824 1.527 0.86858 0.87381 0.66639 1.9983 1.7485 2.9939 3.1891 1.0005 1.4361 1.6439 2.9523 1.9409 4.0972 0.30274 1.1484 0.29877 1.8968 0.2233 1.9077z"/>
      <path id="path4735" fill="#6e3249" d="m494.12 444.02c-0.0927-0.0257 0.0454-0.7262-0.17654-1.8123-0.20256-1.0886-0.7776-2.5163-1.5292-4.0414-0.74936-1.5276-1.4749-2.9108-1.88-3.9944-0.4241-1.0787-0.47309-1.842-0.3835-1.8523 0.0834-0.0143 0.27229 0.6481 0.78158 1.6334 0.49162 0.99464 1.2684 2.3215 2.0323 3.8772 0.76392 1.5498 1.3129 3.0942 1.4166 4.2984 0.12224 1.2102-0.19109 1.9289-0.26125 1.8914z"/>
      <path id="path4737" fill="#6e3249" d="m487.13 448c-0.19109 0.0104-0.3813-3.4408-0.0909-7.6685 0.13857-2.1134 0.36276-4.0221 0.6152-5.389 0.24626-1.3694 0.5415-2.1836 0.62491-2.1534 0.0816 0.0287-0.056 0.86265-0.18712 2.2315-0.13814 1.3669-0.28995 3.2632-0.42808 5.3623-0.28818 4.201-0.3791 7.6091-0.534 7.6171z"/>
      <path id="path4739" fill="#26231f" d="m441.69 427.47s1.038-9.5929-4.1153-13.917c-2.0892-1.753 2.2163 4.0334 0.80942 4.3839-3.6696 0.91505-6.5686-7.9596-7.7218-6.8176-1.091 0.62882-1.6894 2.1504-1.7551 2.5805-0.47399 3.0862 0.0424 4.0873-0.71671 5.2209-0.86455 1.2912-0.55651 3.1149-0.55651 4.0833 0 0.96853-0.88043 2.0412 0.56092 3.6568 1.4414 1.6146 9.1344 5.9303 9.1344 5.9303s5.5138-3.5065 4.3607-5.121z"/>
      <path id="path4741" fill="#f4b891" d="m464.45 450.81s-19.634-19.783-23.802-22.608-1.2481-2.8815-0.76791-4.9139c0.98717-4.1778-1.9745-9.3384-1.9745-8.233 0 1.1064 1.207 5.161-0.32878 5.038-1.5358-0.1226-5.5942-5.038-6.1427-6.389-0.54812-1.3516-1.316-1.9666-1.6452-0.73709-0.32879 1.228 0.76834 4.0547 0.32922 4.423-0.43867 0.36829-2.0839 1.7204-1.6452 3.0714 0.43867 1.3516 0.2189 1.8434 0 2.5805-0.21933 0.73707-0.21978 2.4574 0.43867 2.9488 0.65845 0.49134 9.0502 4.4057 10.64 5.652 3.2906 2.5806 19.415 24.942 20.292 24.573 0.87737-0.3683 5.1555-4.1768 4.6069-5.4058z"/>
      <path id="path4743" fill="#26231f" d="m431.76 412.47s11.584-6.9744 13.382-5.2837c6.1424 5.7751 0.47627 11.536 0.47627 11.536l-9.0727 0.8586s-3.5791-2.8108-4.1272-5.0226c-0.34246-1.3802-0.65845-2.0882-0.65845-2.0882z"/>
      <path id="path4745" fill="#e7410f" d="m433.6 412.5 9.2364-4.4526s-1.9745 5.5289 1.7551 8.6008l-6.9225 1.4514s-4.9463-3.3873-4.069-5.5996z"/>
      <path id="path4747" fill="#e7410f" d="m429.02 414.93 0.43867 1.8434s-1.9745 1.4747-1.8646 2.5805c0.10944 1.1054-5.265 1.5968-5.265 1.5968s-1.4259-2.2108-0.76789-2.9483c0.65801-0.73758 7.4588-3.0724 7.4588-3.0724z"/>
      <path id="path4749" fill="#c3c4c4" d="m421.01 418.86s0.10946 1.5972 0.65801 2.2118c0.54857 0.61448-2.5226 0.24569-2.1934-0.36831 0.32879-0.61448 1.5354-1.8434 1.5354-1.8434z"/>
      <path id="path4751" fill="#f6b007" d="m422.22 418.37 6.4715-2.8257 0.10989 0.98278-6.4715 2.5805-0.10989-0.73758z"/>
      <path id="path4753" fill="#f6b007" d="m441.96 414.31 1.316 1.7208-7.0201 0.98279-0.47442-1.05 6.1785-1.6536z"/>
      <path id="path4755" fill="#f6b007" d="m422.87 419.6 4.497-1.5968-0.21933 1.1059-4.0588 1.1054-0.21889-0.61448z"/>
      <path id="path4757" fill="#b3d06a" d="m477.62 474.83s1.5018 8.6932 1.7525 11.778c0.25023 3.0848-0.50045 7.0104-1.0014 7.8518-0.5009 0.84238 2.0027-0.84089 8.5117-1.1211 6.5091-0.28084 11.766-1.1217 11.766-1.1217s-13.269-0.28083-13.769-2.2439c-0.5009-1.9626 6.509-3.365 7.2601-3.6454 0.75111-0.28026-4.0058-0.56155-7.2601-2.8044-3.2547-2.2434 5.5077-4.4868 2.2529-4.7671-3.2543-0.28079-6.0086-7.0109-9.5131-3.9262z"/>
      <path id="path4759" fill="#b3d06a" d="m466.6 453.23s-6.2592 5.8892-6.0086 7.5715c0.25067 1.6823 13.269 10.376 13.269 10.376s-9.7638-7.8519-9.2629-10.656c0.50045-2.8045 3.2543-8.6927 2.0027-7.2912z"/>
      <path id="path4761" fill="#b3d06a" d="m519.17 471.46s4.2556 9.2538 4.7561 8.4124c0.50091-0.84089 5.0072-5.8888 5.0072-5.8888s-4.0054 3.9257-5.0072 2.2434c-1.0014-1.6823-5.257-6.7302-4.7561-4.7671z"/>
      <path id="path4763" fill="#018c3c" d="m507.91 502.87c0.76124 0.24373-31.043-1.403-32.545 2.5237-1.5022 3.9267-0.5009 8.1336-0.5009 10.937 0 2.8041-4.5063 4.4868-4.5063 9.2543v11.778s-3.7552 5.6095-2.7538 6.7317 1.5018 8.6907 1.5018 8.6907-4.2556 4.4888-3.5045 4.4888c0.75113 0 6.0086 0.55855 6.509 0.28175 0.50046-0.28175-4.2556 0-1.7525-2.808 2.5036-2.803 3.505-1.399 1.5022-7.5685-2.0032-6.1696 3.2543-13.743 3.2543-13.743s-3.5045-8.6937 0-10.937c3.505-2.2433 5.2575-4.4868 4.757-7.2912-0.50089-2.8045 1.2517-7.8524 2.0028-8.1327 0.75065-0.28031 24.284-4.7671 26.036-4.2065z"/>
      <path id="path4765" fill="#018c3c" d="m512.91 532.6c-0.50045 1.1217-6.2584 3.6454-2.7538 7.2922 3.505 3.6434 3.7552 8.6908 3.2547 10.653-0.5009 1.9674-2.7538 5.8926-0.25023 6.4513 2.5036 0.56351 7.0095-0.55867 6.2584 2.5261-0.75065 3.0848-2.2529 5.0474 0.75111 5.0474 3.0041 0-0.50089-1.1222 1.5023-3.9252 2.0026-2.8079 0.25021-7.5735-2.7539-8.4139-3.0041-0.84043-2.7538-5.6109-2.7538-5.6109s4.0054-2.5212 0.25023-5.3292c-3.7548-2.802-3.505-8.6912-3.505-8.6912z"/>
      <path id="path4767" fill="#006626" d="m488.38 533.72c-0.68758-0.43998 6.2584 4.2065 3.2543 8.9735-3.0041 4.7656-2.7539 11.78-2.7539 11.78s9.5136 4.202 5.2579 7.01c-4.2564 2.803-4.0062 6.7281-4.0062 6.7281s-1.2517 6.7332-2.0028 6.7332c-0.75065 0-17.023-1.6858-17.524-3.6484-0.50046-1.9625 10.265 1.1222 14.27-1.6807 4.0054-2.803-3.004-7.01 0.50054-9.2543 3.5049-2.2444 4.2561-2.5262 1.5022-4.7656-2.7539-2.2444-4.7565-3.3665-1.0013-7.8552 3.7552-4.4838 6.0081-11.777 2.5036-14.021z"/>
      <path id="path4769" fill="#006626" d="m533.94 544.37s2.0031 2.2444-0.50055 7.5735-0.75111 9.2543 0.75123 10.658c1.5018 1.3991 3.2547 8.6908-2.5037 10.095-5.7584 1.404-13.269 0-13.269 0s14.27 1.1222 13.77-3.3665c-0.50089-4.4838-7.7615-6.7282-4.2561-10.095 3.505-3.3665 8.762-13.179 6.0082-14.865z"/>
      <path id="path4771" fill="#f8d7bc" d="m443.32 431.64s20.028 18.509 19.527 19.631c-0.50043 1.1217-1.252 0.84088-1.252 0.84088l-18.28-20.47z"/>
      <path id="path4773" fill="#f8d7bc" d="m531.69 479.87-2.2534 0.56109s18.276 30.287 17.525 27.763c-0.75111-2.5237-14.336-29.455-15.271-28.324z"/>
      <path id="path4775" fill="#f6b007" d="m434.51 415.11 0.32834 1.3511 7.8974-2.2112 0.21934-3.3176-8.4451 4.1778z"/>
      <path id="path4777" fill="#f6b007" d="m443.82 408.05s-0.98723 0.73807-0.76789 2.3344c0.21933 1.5972 0.658 6.6352 2.523 5.4062 1.8646-1.229 1.316-7.7406-1.7551-7.7406z"/>
      <path id="path4779" fill="#13a652" d="m515.97 470.22s-2.0425 1.5256-1.7021 4.1951c0.34022 2.6695 2.0428 16.399 0 17.544-2.0429 1.1434-18.385 1.9062-24.172 0.76228-5.7879-1.145 15.32-2.2889 18.725-3.814 3.4043-1.5256 3.0641-7.2457 1.3619-7.2457-1.7023 0 0-1.9072 1.3615-4.9579 1.3619-3.0512 4.426-6.4835 4.426-6.4835z"/>
      <path id="path4781" fill="#006827" d="m516.65 509.5s9.5325 14.11 6.1281 18.305c-3.4043 4.1957-30.982 4.5758-37.79 0.38166 0 0 29.96 0.38119 32.002-3.8139 2.0429-4.1951 1.0217-13.729-0.34022-14.873z"/>
    </g>
  </g>
  <metadata>
    <rdf:RDF>
      <cc:Work>
        <dc:format>image/svg+xml</dc:format>
        <dc:type rdf:resource="http://purl.org/dc/dcmitype/StillImage"/>
        <cc:license rdf:resource="http://creativecommons.org/licenses/publicdomain/"/>
        <dc:publisher>
          <cc:Agent rdf:about="http://openclipart.org/">
            <dc:title>Openclipart</dc:title>
          </cc:Agent>
        </dc:publisher>
        <dc:title>school days</dc:title>
        <dc:date>2012-09-06T11:52:41</dc:date>
        <dc:description>back to school</dc:description>
        <dc:source>http://openclipart.org/detail/172176/school-days-by-sammo241-172176</dc:source>
        <dc:creator>
          <cc:Agent>
            <dc:title>sammo241</dc:title>
          </cc:Agent>
        </dc:creator>
        <dc:subject>
          <rdf:Bag>
            <rdf:li>books</rdf:li>
            <rdf:li>cartoon</rdf:li>
            <rdf:li>clip art</rdf:li>
            <rdf:li>clipart</rdf:li>
            <rdf:li>days</rdf:li>
            <rdf:li>girl</rdf:li>
            <rdf:li>school</rdf:li>
          </rdf:Bag>
        </dc:subject>
      </cc:Work>
      <cc:License rdf:about="http://creativecommons.org/licenses/publicdomain/">
        <cc:permits rdf:resource="http://creativecommons.org/ns#Reproduction"/>
        <cc:permits rdf:resource="http://creativecommons.org/ns#Distribution"/>
        <cc:permits rdf:resource="http://creativecommons.org/ns#DerivativeWorks"/>
      </cc:License>
    </rdf:RDF>
  </metadata>
</svg>
