<?xml version="1.0" encoding="utf-8"?>

<!DOCTYPE svg PUBLIC "-//W3C//DTD SVG 1.1//EN" "http://www.w3.org/Graphics/SVG/1.1/DTD/svg11.dtd">
<svg version="1.1" id="Layer_1" xmlns="http://www.w3.org/2000/svg" xmlns:xlink="http://www.w3.org/1999/xlink" x="0px" y="0px"
	 viewBox="0 0 2048 1295" enable-background="new 0 0 2048 1295" xml:space="preserve">
<g>
	<path d="M1.24,1296.1c0.007-55.833,0.013-111.666,0.02-167.499c0-2.167-0.064-4.336,0.028-6.499
		c0.06-1.423-0.687-3.708,0.551-4.077c1.833-0.546,4.075,0.415,5.223,2.167c1.803,2.753,3.541,5.511,5.601,8.109
		c1.2,1.513,0.865,3.992,0.181,5.808c-1.016,2.699-0.995,5.528-1.592,8.267c-0.846,3.88,0.864,6.019,4.834,7.101
		c5.163,1.407,10.497,1.273,15.763,1.749c1.209,0.109,2.496-0.004,3.085-1.167c2.084-4.115,4.138-8.499,3.973-13.043
		c-0.228-6.301-0.919-12.545,0.396-18.804c0.5-2.379-1.288-2.069-2.782-2.258c-7.785-0.986-15.609-0.816-23.425-0.928
		c-2.323-0.033-4.668-0.393-6.947-0.42c-4.143-0.05-5.059-1.647-4.997-5.636c0.257-16.496,0.223-33,0.022-49.497
		c-0.042-3.473,0.908-4.353,4.321-4.495c10.311-0.428,20.591,0.645,30.889,0.296c0.829-0.028,1.663,0.128,2.494,0.118
		c4.115-0.046,4.015-0.027,2.831-4.14c-0.921-3.201-1.455-6.416,0.013-9.733c1.27-2.869,1.783-5.962,1.753-9.159
		c-0.022-2.309-0.003-4.71,0.582-6.915c1.124-4.232,1.198-7.345-3.534-9.888c-3.29-1.767-3.278-6.551-5.072-9.798
		c-2.815-5.095-1.562-10.652-2.454-15.86c-1.694-9.887,0.421-18.776,3.758-27.66c1.36-3.62,4.918-5.098,8.477-5.26
		c4.273-0.195,7.776-2.91,12.002-3.017c1.542-0.039,2.022-1.664,2.803-2.632c1.525-1.892,2.807-3.75,5.607-2.108
		c1.305,0.765,1.717,0.002,1.872-1.223c0.516-4.066,1.442-8.155-2.17-11.481c-2.586-2.382-2.875-5.548-2.804-8.861
		c0.068-3.144,1.087-7.206-0.453-9.256c-3.43-4.567,0.012-6.499,1.907-9.485c7.884-12.418,22.188-12.773,31.707-7.27
		c5.549,3.208,8.561,13.543,6.11,19.749c-1.073,2.717-0.692,5.585-0.768,8.403c-0.033,1.238,0.527,1.719,1.801,1.734
		c4.126,0.047,4.677,2.794,5.353,6.239c1.919,9.775,2.59,20.049,9.71,28.094c1.169,1.321,2.135,3.105,2.484,4.82
		c1.272,6.247,4.137,11.854,6.664,17.594c2.838,6.447,1.457,13.092,0.754,19.585c-0.545,5.029-9.098,7.302-13.395,3.906
		c-0.612-0.483-0.985-1.649-1.838-1.352c-1.357,0.472-0.493,1.718-0.401,2.566c0.711,6.584,2.441,12.992,3.242,19.591
		c0.658,5.417,0.471,10.417-1.538,15.471c-1.526,3.839,1.907,9.138,5.923,9.333c4.815,0.234,9.629-0.128,14.465,0.333
		c13.73,1.31,27.525,1.492,41.301,1.995c0.658,0.024,1.389,0.048,1.972-0.198c9.857-4.17,20.05-0.264,30.032-1.281
		c0.328-0.033,0.744-0.107,0.987,0.047c8.347,5.273,17.184-0.81,25.685,1.1c1.633,0.367,2.354-0.598,2.199-2.343
		c-0.176-1.987-0.269-4.004-0.133-5.99c0.287-4.181,0.186-8.352,4.528-11.195c2.259-1.479,3.22-4.49,3.547-7.407
		c0.786-7.007,0.638-14.013,0.26-21.036c-0.124-2.304,0.489-4.523,1.446-6.717c1.97-4.518,4.345-8.908,4.908-13.949
		c0.347-3.105,3.292-3.874,5.419-4.517c6.688-2.021,11.162-5.903,12.993-12.744c0.142-0.532,0.876-1.003,0.685-1.709
		c-2.221-8.186,1.689-15.649,2.647-23.462c0.768-6.263,3.962-11.475,6.2-17.114c0.876-2.208,2.974-1.781,4.562-2.444
		c5.308-2.215,10.827-2.56,16.513-2.052c4.58,0.409,7.602,2.763,9.955,6.511c4.003,6.377,5.381,12.945,3.698,20.534
		c-1.82,8.209-3.163,16.677-1.861,25.114c0.683,4.429-0.25,9.902,6.039,12.043c1.604,0.546,2.079,0.69,3.004-0.424
		c2.506-3.02,5.021-6.032,7.564-9.021c0.507-0.596,0.638-1.276,0.251-1.816c-2.401-3.348-1.462-7.412-2.052-11.051
		c-1.5-9.255,1.752-17.787,7.274-25.079c4.566-6.03,13.727-7.614,20.941-4.302c3.52,1.616,7.56,2.008,10.414,5.324
		c3.848,4.47,5.134,9.359,3.323,14.779c-1.582,4.732-1.483,9.816-3.507,14.437c-0.643,1.469,0.318,2.765,1.771,3.596
		c8.387,4.796,14.058,12.363,20.249,19.485c4.641,5.339,4.384,11.992,6.006,18.11c1.996,7.527,3.557,15.198,4.792,22.889
		c0.762,4.743-0.863,9.599-0.03,14.489c0.295,1.729-1.459,3.163-3.168,4.132c-4.304,2.441-8.535,5.01-12.811,7.501
		c-0.564,0.329-1.385,0.512-1.352,1.246c0.055,1.208,1.138,0.958,1.883,0.964c8.157,0.06,16.257,1.111,24.438,1.059
		c12.281-0.078,24.639-0.323,36.827,0.884c13.144,1.302,26.257,0.537,39.363,1.184c6.313,0.311,12.604,1.093,18.943,0.828
		c0.832-0.035,1.671,0.056,2.499-0.01c5.844-0.463,6.649-1.323,6.781-7.161c0.252-11.095,0.252-11.095-10.773-11.077
		c-1.164,0.002-2.33-0.044-3.491,0.016c-5.126,0.268-8.338-2.133-8.389-7.306c-0.075-7.563,0.077-15.177,1.573-22.637
		c1.553-7.742,2.171-15.647,4.473-23.266c3.179-10.521,10.526-17.421,19.577-22.649c4.666-2.695,9.812-4.493,15.066-6.138
		c5.826-1.825,11.099-5.933,13.217-11.946c1.343-3.813,0.998-8.297,1.757-12.446c1.089-5.951,1.532-12.092,6.03-16.833
		c1.748-1.842,3.4-3.701,6.269-3.52c0.474,0.03,1.088-0.047,1.43-0.328c5.747-4.708,12.745-2.714,19.196-3.578
		c1.854-0.248,3.037,1.153,3.931,2.613c1.552,2.535,3.334,4.789,5.765,6.617c2.359,1.774,3.037,4.427,3.445,7.404
		c0.946,6.899,2.595,7.593,7.432,3.113c4.701-4.354,10.849-4.782,16.429-6.486c3.07-0.938,4.899-2.241,6.24-4.845
		c1.454-2.822,3.177-3.971,6.771-2.814c4.905,1.579,8.921-0.992,8.937-6.122c0.018-6.085,0.495-11.523,4.026-16.834
		c1.818-2.734,2.756-6.196,4.529-9.208c4.91-8.341,21.98-11.767,30.302,0.019c6.368,9.018,7.316,19.256,2.516,28.724
		c-2.863,5.646-6.621,11.397-11.304,16.06c-2.747,2.736-1.508,3.735,1.054,5.416c4.806,3.153,10.565,4.957,14.187,9.841
		c2.087,2.815,3.5,5.723,4.001,9.359c2.128,15.438,3.975,30.879,3.732,46.501c-0.01,0.662,0.012,1.357,0.197,1.983
		c2.156,7.296-0.37,13.339-4.989,18.829c-1.977,2.35-4.521,4.348-2.845,8.173c0.453,1.035-0.482,2.893-1.164,4.168
		c-1.776,3.322-1.63,6.48,0.796,9.254c4.295,4.909,4.197,11.276,5.798,17.039c0.813,2.927,1.936,4.06,4.949,4.258
		c18.42,1.213,36.867,1.41,55.309,1.936c13.408,0.382,26.834,1.326,40.223,1.6c13.896,0.284,27.953,3.315,41.596,0.918
		c10.945-1.923,21.688-0.901,32.497-1.576c2.349-0.147,4.414,0.223,6.777,1.635c3.169,1.895,7.295,2.461,11.254,1.395
		c1.542-0.416,2.978-0.7,4.743-0.228c6.96,1.858,14.135,1.117,21.231,1.169c9.999,0.073,20.008-0.254,29.997,0.067
		c8.234,0.264,16.437,1.41,24.671,1.809c6.483,0.314,12.993,0.018,19.488,0.132c2.542,0.045,3.448-0.876,3.61-3.469
		c0.391-6.26,1.218-12.492,1.711-18.747c0.411-5.21-0.701-10.376,0.094-15.683c1.457-9.722,3.78-18.944,10.205-26.705
		c0.956-1.155,2.118-1.678,3.496-1.401c3.562,0.718,4.617-1.376,5.075-4.279c0.722-4.576,1.583-9.082,4.244-13.066
		c1.026-1.535,1.173-3.133-0.326-4.909c-2.066-2.448-2.973-5.49-2.542-8.802c0.568-4.368-0.125-8.718-1.303-12.812
		c-2.37-8.235,6.511-20.039,16.109-21.346c6.224-0.848,11.771-0.688,16.767,3.23c4.57,3.584,6.189,8.884,7.259,14.234
		c1.87,9.34,3.462,18.739,5.011,28.139c0.382,2.317,1.702,3.914,3.594,4.33c4.238,0.931,7.539,3.387,10.857,5.832
		c2.895,2.133,5.653,4.494,8.903,6.033c1.425,0.675,2.78,3.086,4.128,1.952c1.8-1.515,5.079-2.878,4.931-5.033
		c-0.246-3.589,2.989-4.325,4.02-4.226c7.106,0.68,12.507-4.11,18.952-5.402c2.113-0.424,4.167-1.077,6.317-0.887
		c5.124,0.454,9.633-1.59,14.313-3.146c3.694-1.229,7.552-1.989,11.37-2.803c0.801-0.171,2.105-0.529,2.504,0.822
		c0.289,0.98-0.662,1.383-1.188,1.992c-3.966,4.589-9.573,4.671-14.876,5.096c-4.476,0.359-8.886,0.753-13.243,1.902
		c-2.535,0.669-5.052,0.845-1.964,4.175c0.938,1.011,0.79,2.467-1.048,3.067c-3.024,0.987-5.516,3.425-9.313,2.039
		c-2.637-0.962-5.255-0.459-6.993,2.847c-1.682,3.2-4.772,5.62-7.774,7.587c-2.337,1.532-2.661,3.045-2.134,5.35
		c1.391,6.081,2.545,12.225,4.209,18.229c0.754,2.72-0.994,4.771-0.854,7.47c0.368,7.125,1.655,14.204,1.382,21.364
		c-0.038,0.998,0.111,2.014-0.017,2.997c-0.771,5.933-0.799,6.049,4.883,6.524c4.144,0.347,8.318,0.453,12.479,0.452
		c11.143-0.002,22.276,0.722,33.393,0.803c8.921,0.065,17.851,0.568,26.778,0.278c1.494-0.048,3.009-0.07,4.473-0.332
		c3.225-0.577,5.413-1.684,6.842-5.459c1.934-5.11,5.793-9.459,8.476-14.328c2.354-4.272,5.986-8.356,4.708-13.745
		c-1.887-7.953-0.88-16.832-5.231-23.831c-3.613-5.812-5.891-11.994-8.288-18.177c-1.845-4.758-2.602-9.916-2.475-15.128
		c0.207-8.462,5.14-13.827,13.48-13.904c4.783-0.044,9.556-0.375,14.328-0.316c1.836,0.023,2.787-0.417,3.265-2.158
		c1.945-7.082,5.438-13.801,4.961-21.449c-0.103-1.649-0.264-3.227-0.702-4.873c-1.007-3.779-2.493-7.713,0.326-11.475
		c0.35-0.467,0.406-1.304,0.314-1.928c-1.407-9.55,3.459-15.487,11.267-19.786c0.374-0.206,0.533-0.805,0.791-1.221
		c0,0-0.114,0.105-0.114,0.105c0.395-0.393,0.791-0.785,1.186-1.178l-0.131,0.14c1.757,0.285,3.128-0.894,4.704-1.304
		c6.39-1.659,11.728,0.248,16.732,4.15c2.481,1.935,4.5,4.207,6.637,6.472c3.437,3.642,4.417,7.521,3.946,12.184
		c-0.425,4.207,1.281,8.175,1.276,12.474c-0.007,5.089,0.969,10.147-0.217,15.285c-0.474,2.053-0.308,4.251,1.088,6.212
		c1.041,1.462,1.917,3.125,2.484,4.827c2.001,6.001,5.335,8.851,12.313,7.925c5.394-0.716,11.73,7.157,11.979,13.732
		c0.167,4.407,0.829,8.842-0.573,13.267c-0.683,2.155-0.476,4.517,0.16,6.879c1.486,5.518-0.498,9.404-5.946,10.605
		c-3.613,0.797-4.652,2.928-5.511,5.903c-1.505,5.214-2.041,10.643-3.8,15.811c-1.169,3.435,1.122,5.853,5.849,6.614
		c3.863,0.622,7.772,0.677,11.607,1.817c6.725,1.998,11.806,6.494,17.107,10.63c2.478,1.934,5.734,2.741,7.641,5.428
		c0.373,0.526,1.088,1.279,0.94,1.616c-0.41,0.931-1.383,0.359-2.117,0.31c-8.884-0.593-16.756-4.63-24.945-7.521
		c-3.257-1.15-6.472-1.254-9.783-1.452c-1.975-0.118-2.901,0.584-2.533,2.518c0.977,5.137,0.937,10.25,0.05,15.397
		c-0.242,1.402,0.823,2.135,2.108,2.251c2.301,0.207,4.458,1.041,6.848,1.009c23.817-0.318,47.65-0.127,71.418,1.139
		c14.33,0.763,28.657,0.101,42.933,1.013c12.654,0.808,25.306,0.425,37.935,1.019c4.769,0.224,9.543,0.794,14.343,0.784
		c1.588-0.003,3.027-0.142,3.355-2.134c0.272-1.654-0.655-2.21-2.009-2.889c-5.587-2.805-6.071-4.065-3.228-10.259
		c4.622-10.07,8.167-20.537,11.859-30.955c1.18-3.33,1.941-6.652,3.909-9.874c2.782-4.556,6.806-7.071,11.039-9.277
		c1.994-1.039,3.617-2.135,4.748-3.839c3.164-4.763,8.011-7.355,12.68-10.172c1.927-1.162,3.187-2.528,0.804-4.03
		c-4.222-2.662-5.134-7.013-5.458-11.154c-0.669-8.545-3.943-16.851-2.375-25.6c0.291-1.624-0.066-3.307-2.284-2.676
		c-2.625,0.746-2.642-1.961-4.094-2.702c1.026-1.612,1.71-3.726,3.79-4.159c6.119-1.276,11.229-3.92,15.062-9.101
		c2.153-2.91,11.891-4.763,15.263-3.107c2.903,1.425,5.422,0.605,8.101-0.38c5.293-1.946,6.136-1.368,6.13,4.115
		c-0.002,1.975,0.781,3.432,1.71,5.243c5.533,10.785,7.821,22.079,2.616,33.807c-0.804,1.81-1.61,3.625-2.533,5.376
		c-0.862,1.635-1.001,3.878-3.868,3.776c-1.494-0.053-1.879,1.546-1.969,2.993c-0.091,1.448,0.535,2.179,1.885,2.413
		c1.745,0.303,2.271,1.817,2.96,3.087c2.907,5.359,9.084,9.348,14.292,7.271c6.161-2.457,9.453,0.827,13.33,3.995
		c6.002,4.904,8.826,12.038,11.937,18.638c2.901,6.155,5.672,12.266,9.728,17.734c1.125,1.517,2.013,3.076,1.874,5.011
		c-0.272,3.785,1.895,5.335,5.242,5.818c5.067,0.731,10.012,1.946,14.893,3.494c3.377,1.071,6.445,2.646,9.078,4.995
		c1.953,1.743,3.127,1.246,3.856-1.09c2.216-7.099,6.384-13.145,10.074-19.501c3.058-5.268,3.484-11.646,4.993-17.553
		c0.568-2.225,0.788-4.538,1.237-6.796c0.688-3.46,1.361-6.82,5.999-7.201c1.3-0.107,2.656-1.314,3.171-2.875
		c1.496-4.527,3.801-8.673,4.499-13.601c1.484-10.485,5.973-19.469,15.294-25.469c1.289-0.83,2.655-1.678,3.974-1.837
		c6.461-0.776,8.775-5.12,9.832-10.719c0.123-0.652,0.125-1.332,0.292-1.97c2.605-9.947,2.717-10.345,12.517-9.914
		c3.433,0.151,4.82-2.127,3.978-6.346c-0.547-2.742-1.194-5.473-1.966-8.159c-2.317-8.059-3.413-16.267-3.957-24.638
		c-0.339-5.22,1.409-9.876,2.964-14.451c1.261-3.708,4.937-6.083,9.008-7.118c4.497-1.144,9.104-1.594,13.685-2.251
		c9.258-1.326,15.117,4.023,21.015,9.867c7.949,7.875,6.373,17.222,5.034,26.788c-0.885,6.326-2.717,12.039-6.284,17.449
		c-3.106,4.711-3.11,10.413-2.48,15.934c0.309,2.706,1.657,4.536,4.199,6.2c5.871,3.842,12.121,6.35,18.786,8.446
		c10.372,3.263,13.323,12.133,14.112,21.794c0.828,10.148-0.747,20.187-2.53,30.155c-0.265,1.482-0.404,2.949-0.564,4.432
		c-0.443,4.093-2.669,6.735-6.673,6.592c-4.385-0.157-5.204,2.523-5.184,5.588c0.046,6.985,0.417,13.942-3.304,20.3
		c-0.638,1.09-0.379,2.34,0.302,3.332c4.36,6.353,3.869,13.878,5.068,20.977c0.892,5.286,0.738,5.168,6.038,5.49
		c6.975,0.425,13.944,0.743,20.934,0.715c2.159-0.009,3.007-0.271,3.01-3.002c0.007-6.203-0.359-12.405,1.909-18.574
		c1.682-4.575,5.276-7.092,8.369-9.973c1.947-1.813,1.296-2.145-0.043-2.96c-1.461-0.889-2.395-2.096-1.981-3.654
		c0.597-2.249,2.503-0.869,3.81-0.889c4.01-0.061,6.655-4.112,4.915-7.726c-0.575-1.195-1.448-2.277-1.497-3.665
		c-0.063-1.823,1.067-3.405,2.629-2.527c2.868,1.61,3.476-0.331,4.267-2.051c3.664-7.971,10.12-13.298,17.098-18.097
		c1.9-1.307,4.314-1.461,6.543-1.952c1.295-0.285,2.678-0.263,3.921-0.681c2.027-0.682,4.686-1.084,5.775-2.563
		c1.455-1.976-1.974-2.569-2.637-4.376c-2.261-6.162-4.605-12.291-7.715-18.135c-3.728-7.006-3.562-14.768-3.081-22.45
		c0.065-1.028,0.274-1.94-0.371-2.818c0.838,0.129,1.156-0.275,1.045-1.062c-0.019-0.136-0.238-0.373-0.297-0.354
		c-0.777,0.249-0.713,0.885-0.651,1.512c-9.334-2.859-19.693-1.337-28.453-6.934c-2.175-1.39-1.419-1.553-0.052-2.448
		c4.849-3.177,4.883-3.245-0.205-6.953c-3.215-2.343-4.173-5.295-3.363-9.128c0.519-2.456,1.94-2.792,3.481-1.464
		c3.118,2.689,7.107,4.352,9.506,7.858c1.768,2.585,3.098,3.325,6.003,0.806c3.822-3.314,8.531-5.571,12.467-8.851
		c1.253-1.045,2.837-1.491,4.085-0.451c1.447,1.205,0.366,2.606-0.239,4.022c-1.909,4.469-4.847,8.287-7.429,12.332
		c-0.903,1.415-2.009,3.056-0.621,4.545c1.6,1.717,3.886,2.438,6.237,2.486c0.868,0.018,1.348-0.829,1.458-1.753
		c0.419-3.548,2.704-6.407,3.658-9.727c1.361-4.737,5.041-5.822,9.124-6.244c3.695-0.382,7.65,0.882,10.912-1.926
		c6.708,1.728,14.274-1.754,20.424,3.849c5.198,4.736,10.006,9.414,10.974,16.913c0.462,3.581,1.674,7.08,2.732,10.56
		c0.352,1.158-0.367,3.318,1.184,3.298c1.373-0.018,3.223-0.784,4.09-2.375c0.553-1.015,1.019-2.091,1.402-3.182
		c0.789-2.249,1.862-3.732,4.518-4.53c3.216-0.967,4.922-4.74,8.533-5.579c3.752-0.873,7.387-2.382,11.172-2.954
		c6.789-1.025,12.713,1.842,18.148,5.43c9.624,6.354,16.503,15.192,21.233,25.598c3.622,7.97,7.406,15.868,9.363,24.555
		c1.408,6.251,1.659,12.505,1.544,18.77c-0.055,3.007,0.645,5.066,2.86,6.891c5.236,4.315,10.252,8.993,13.325,15.064
		c3.885,7.677,9.006,14.956,8.716,24.265c-0.161,5.168,2.53,9.865,3.574,14.872c0.282,1.352,1.917,2.854,4.077,2.927
		c8.953,0.301,17.902,0.743,26.853,1.119c2.19,0.092,2.045-1.894,2.526-3.135c0.493-1.273,0.517-2.569-1.502-2.885
		c-1.992-0.312-3.352-2.242-5.79-1.955c-1.93,0.227-3.487-1.226-3.404-3.437c0.079-2.099,1.942-2.128,3.359-2.127
		c9.66,0.007,17.925-4.446,26.298-8.347c3.326-1.55,6.642-2.908,10.167-3.829c0,6.667,0,13.333,0,20
		c-0.482,0.074-0.989,0.284-1.442,0.2c-4.052-0.749-5.172,2.913-5.186,4.998c-0.018,2.683,3.049,0.598,4.696,1.026
		c0.585,0.152,1.285-0.137,1.933-0.224c0,27.667,0,55.333,0,83c-1.328,0.019-2.657,0.09-3.983,0.048
		c-4.721-0.151-9.289-0.175-11.99,4.894c-0.504,0.947-2.191,1.42-3.427,1.793c-6.941,2.094-6.85,2.029-4.795,8.425
		c0.85,2.647,1.949,4.198,5.081,4.031c6.122-0.325,6.25-0.41,8.639,7.008c0.353,1.096,0.576,2.238,0.802,3.37
		c1.284,6.449,4.098,12.698,4.695,19.046c0.43,4.577,1.697,4.729,4.98,4.384c0,15.833-0.099,31.668,0.088,47.499
		c0.035,2.989-0.605,3.588-3.588,3.583c-70.833-0.106-141.667-0.082-212.5-0.082c-3.144-2.754-6.957-1.518-10.523-1.682
		c-0.133-0.006-0.317,1.096-0.477,1.682c-12.333,0-24.667,0-37,0c0.859-2.543,1.054-4.138-2.721-4.254
		c-7.935-0.245-15.847-1.496-23.777-1.591c-8.985-0.107-17.912-1.095-26.884-1.159c-0.887-0.006-2.278-0.5-2.453,0.85
		c-0.107,0.828,0.403,2.127,1.069,2.586c1.466,1.011,3.204,1.628,3.766,3.568c-17.333,0-34.667,0-52,0
		c0.948-2.287-0.22-4.581,0.029-6.883c0.258-2.381-1.081-3.205-3.314-3.218c-5.81-0.031-11.556-1.387-17.381-0.976
		c-2.066,0.146-4.907-1.505-5.908,0.024c-1.087,1.66-0.347,4.473-0.543,6.772c-0.137,1.599,0.737,2.859,1.117,4.281c-24,0-48,0-72,0
		c0.019-1.657,0.318-3.372-0.007-4.959c-0.515-2.516,2.171-5.57-0.201-7.279c-1.946-1.402-4.987-1.38-7.576-1.773
		c-5.91-0.897-6.318-0.539-4.16,4.994c1.156,2.965,0.724,6.145,1.944,9.016c-15,0-30,0-45,0c-0.961-4.309-1.9-8.624-2.891-12.927
		c-0.746-3.241-9.858-6.814-12.513-4.924c-0.797,0.568-0.538,1.434-0.59,2.244c-0.345,5.336,0.403,10.523,1.995,15.607
		c-12.667,0-25.333,0-38,0c-1.319-6.32-5.281-11.896-5.144-18.653c0.031-1.531-1.577-1.386-2.724-1.46
		c-15.039-0.968-30.073-2.028-45.119-2.874c-9.949-0.559-20.024-0.032-29.847-1.396c-12.52-1.739-25.097-1.931-37.617-2.332
		c-13.436-0.43-26.858-1.51-40.313-1.428c-0.975,0.006-1.956-0.471-2.928-0.447c-7.29,0.176-14.251-2.385-21.525-2.464
		c-8.292-0.09-16.613,0.69-24.874-0.875c-2.09-0.396-4.316-0.099-6.479-0.077c-0.952,0.01-2.562-0.166-2.409,1.011
		c0.338,2.605-1.379,4.645-1.168,7.345c0.62,7.926,3.111,16.127-1.853,23.65C837.24,1296.1,419.24,1296.1,1.24,1296.1z
		 M1458.209,1195.244l0.11-0.107c-0.144,0.893-0.426,1.808,0.379,2.55c0.023,0.021,0.325-0.148,0.356-0.265
		C1459.294,1196.504,1459.496,1195.578,1458.209,1195.244z M72.148,1146.83c1.961-0.713,0.872-2.553,1.371-3.807
		c0.006-0.016-0.619-0.367-0.672-0.309c-1.002,1.098-0.457,2.481-0.636,3.739c-0.023,0.162,0.006,0.331,0.011,0.497l-0.081,0.167
		L72.148,1146.83z M1457.222,1191.063c0.347,0.249-0.353,1.3,0.653,0.93c0.179-0.066-0.239-0.758-0.751-0.847
		c0.756-0.722,1.563-1.866,1.007-2.603c-2.753-3.649-1.354-7.837-1.815-11.77c-0.246-2.1-0.023-4.348-1.902-5.898
		c-0.146-0.12-0.79,0.029-0.845,0.183c-0.819,2.253-0.438,4.526-0.01,6.791c0.028,0.147,0.157,0.289,0.27,0.405
		c2.19,2.246,1.803,5.355,0.942,7.473C1453.44,1188.999,1455.057,1189.918,1457.222,1191.063z M1418.252,1217.151
		c1.983,0,3.67-0.165,5.311,0.039c2.385,0.297,4.031-0.819,4.702-2.791c0.904-2.659,2.621-4.746,4.027-7.057
		c3.152-5.184,6.079-10.525,9.543-15.491c2.114-3.03,1.671-6.487-0.071-8.184c-3.491-3.401-3.105-7.396-3.21-11.286
		c-0.061-2.295-0.872-2.464-2.543-2.39c-9.827,0.432-19.552-1.054-29.33-1.527c-7.941-0.385-16.1,0.754-23.805-0.241
		c-10.602-1.37-21.206-0.928-31.781-1.904c-13.207-1.218-26.617,0.522-39.845-1.309c-9.905-1.372-19.94-0.086-29.814-1.831
		c-1.58-0.279-3.299,0.21-4.951,0.368c-2.395,0.229-2.937,1.499-3.303,3.927c-1.862,12.341-3.076,24.85-8.294,36.457
		c-2.485,5.529-1.994,6.258,3.999,6.183c18.473-0.231,36.908,0.844,55.356,1.44c1.489,0.048,3.024-0.249,4.466,0.009
		c12.498,2.243,25.126,2.551,37.768,2.657c11.288,0.094,22.5,1.919,33.793,1.583
		C1406.445,1215.619,1412.415,1217.513,1418.252,1217.151z M679.878,1140.036c-1.457,0.744-4.142-1.373-4.792,1.758
		c-1.785,8.601-7.318,16.072-7.275,25.27c0.02,4.303-1.397,8.544-4.136,11.948c-2.627,3.266-0.535,3.048,1.801,3.013
		c13.629-0.201,27.187,1.138,40.768,1.936c7.957,0.467,15.924-0.135,23.898,1.011c6.043,0.869,12.277,0.833,18.402,0.593
		c7.285-0.286,14.598-0.79,21.821-0.014c13.611,1.463,27.191,3.021,40.914,2.667c2.148-0.055,3.838-0.029,3.825-3.085
		c-0.015-3.61,1.102-7.131,1.273-10.804c0.319-6.86,0.935-13.746,2.04-20.521c1.488-9.126,1.738-8.869-7.765-8.802
		c-13.063,0.092-26.198,0.608-39.174-0.524c-13.551-1.182-27.127-0.846-40.639-1.996c-7.637-0.65-15.305,0.227-22.891-0.706
		c-5.466-0.672-10.832-1.239-16.279,0.11c-1.545,0.383-3.342,0.522-4.859-0.448C684.715,1140.103,682.328,1140.375,679.878,1140.036
		z M666.076,1251.114c0-0.03,0-0.06,0-0.089c4.996,0,9.997,0.125,14.986-0.053c2.476-0.089,3.213,0.719,3.024,3.14
		c-0.388,4.968-0.828,9.933-0.056,14.94c0.387,2.51,1.534,3.455,3.932,3.388c3.159-0.088,6.407-0.566,9.465-0.022
		c10.81,1.92,21.857,0.668,32.641,2.684c0.803,0.15,1.727,0.212,2.483-0.031c4.775-1.539,9.602-1.055,14.3-0.031
		c9.574,2.086,19.348,2.335,29.019,2.863c8.6,0.47,17.249,0.782,25.831,1.471c3.331,0.267,3.895-0.766,4.253-3.241
		c0.118-0.817,0.216-1.638,0.292-2.461c0.814-8.873,1.565-17.753,2.453-26.619c0.547-5.462-0.525-7.031-5.935-7.933
		c-0.817-0.136-1.671-0.05-2.487-0.187c-5.071-0.846-10.345,0.161-15.217-0.587c-13.443-2.062-26.999-1.934-40.472-3.097
		c-18.948-1.636-37.982-2.556-56.998-3.012c-12.133-0.291-24.22-1.531-36.379-1.37c-3.567,0.047-4.171,1.062-4.024,4.124
		c0.207,4.31,1.628,8.533,0.965,12.888c-0.433,2.844,1.03,3.329,3.437,3.271C656.415,1251.032,661.247,1251.114,666.076,1251.114z
		 M891.126,1148.079c-2.991,0-5.49,0-7.989,0c-7.549,0-7.631,0.076-7.575,7.5c0.002,0.301,0.426,0.632,0.376,0.897
		c-1.252,6.642,0.907,13.369-0.539,20.028c-0.377,1.736-0.251,3.686,0.098,5.448c0.436,2.204,1.588,4.2,0.041,6.523
		c-0.796,1.195,0.458,1.474,1.543,1.677c3.39,0.635,6.746,0.237,10.131,0.002c6.145-0.428,12.071,1.71,18.127,1.87
		c12.1,0.32,24.145,0.766,36.237,1.795c9.824,0.835,19.813,2.01,29.775,1.289c6.187-0.447,12.248,0.994,18.403,1.044
		c2.553,0.021,3.469-0.859,3.567-3.474c0.135-3.596,0.879-7.166,1.228-10.76c0.194-2.002,2.985-4.021,0.526-5.933
		c-1.958-1.523-4.712-1.203-7.115-1.667c-0.558-0.108-1.221,0.506-1.856,0.563c-0.602,0.054-1.876,0.529-1.123-1.055
		c0.756-1.59-0.741-2.3-1.327-3.418c-2.572-4.908-5.565-9.964-4.102-15.676c0.857-3.345-0.048-3.621-2.807-3.691
		c-8.788-0.223-17.56-0.174-26.369-0.754C930.501,1148.98,910.554,1148.738,891.126,1148.079z M1096.469,1155.986
		c-2.137-0.127-4.126-0.197-6.104-0.391c-0.637-0.062-1.362-0.546-1.818,0.083c-0.576,0.794,0.114,1.463,0.46,2.206
		c1.79,3.841,3.504,7.718,5.204,11.6c0.364,0.831,1.106,2.347-0.418,2.277c-3.669-0.167-5.223,4.776-9.228,3.531
		c-0.461-0.143-1.457,0.365-1.722,0.841c-1.348,2.416-3.593,1.927-5.69,1.947c-2.164,0.021-4.33,0.049-6.493-0.017
		c-1.557-0.047-2.205,0.428-2.568,2.141c-1.189,5.611-2.606,11.179-4.14,16.707c-0.478,1.723-0.341,1.981,1.52,2.412
		c6.199,1.437,12.553,1.196,18.772,1.563c13.564,0.8,27.15,1.524,40.726,2.039c11.293,0.428,22.569,1.629,33.896,1.287
		c4.149-0.125,8.202,1.325,12.392,0.915c1.326-0.129,2.632,0.057,2.978-1.829c0.97-5.288,2.126-10.462,1.925-15.982
		c-0.285-7.81,0.835-15.54,4.356-22.743c1.988-4.067,1.394-4.958-3.166-5.461c-0.494-0.055-0.998-0.04-1.497-0.03
		c-13.272,0.272-26.486-1.355-39.77-1.128c-7.394,0.126-14.729,0.146-22.206-1.475
		C1108.386,1155.289,1102.199,1155.859,1096.469,1155.986z M406.053,1131.032c-8.144-0.185-16.249-1.163-24.384-1.24
		c-2.211-0.021-3.612,0.241-3.767,3.135c-0.396,7.415-1.958,14.715-2.21,22.188c-0.096,2.86-0.485,6.317-2.829,8.646
		c-0.859,0.854-1.883,1.363-1.446,2.75c0.516,1.637,1.895,1.617,3.259,1.607c17.798-0.124,35.524,1.585,53.296,2.103
		c3.162,0.092,6.329,0.014,9.492,0.098c11.069,0.294,22.04,2.274,33.153,1.907c2.658-0.088,5.342-0.015,7.987,0.253
		c5.055,0.511,4.919,0.208,5.773-5.005c1.102-6.733-0.312-13.708,2.086-20.234c0.697-1.898,0.972-3.832,1.354-5.751
		c0.47-2.361,1.556-5.435,0.537-7.012c-0.955-1.479-4.36-0.305-6.67-0.507c-1.799-0.158-3.577-0.852-5.362-0.844
		c-18.128,0.083-36.194-1.384-54.291-2.062C416.712,1130.863,411.379,1131.032,406.053,1131.032z M987.173,1268.682
		c0.811-6.168-0.717-12.217-0.885-18.331c-0.08-2.908-1.945-3.219-4.012-3.218c-13.99,0.008-27.947-0.619-41.865-2.054
		c-7.646-0.788-15.346-0.813-22.985-1.37c-13.438-0.979-26.842-1.848-40.322-1.55c-2.347,0.052-1.851,1.37-1.866,2.552
		c-0.062,5.151-0.064,10.302-0.048,15.453c0.017,5.456,0.035,5.473,5.415,5.891c1.326,0.103,2.664,0.075,3.997,0.073
		c8.798-0.014,17.541,1.339,26.352,1.052c2.693-0.088,3.811,1.149,3.343,3.957c-0.675,4.054,0.608,8.126,0.044,12.225
		c-0.292,2.125,1.115,2.943,3.131,2.811c9.428-0.62,18.766,1.089,28.186,1.078c6.165-0.007,12.432-0.564,18.508,0.714
		c6.824,1.435,13.69,1.884,20.614,2.198c2.958,0.134,3.758-0.986,3.504-3.726C987.737,1280.532,986.704,1274.651,987.173,1268.682z
		 M388.412,1235.042c2.158,0.105,4.322,0.144,6.474,0.326c10.657,0.9,21.309,1.862,31.967,2.754
		c8.076,0.676,16.166,1.182,24.231,1.961c3.263,0.316,5.555,1.833,5.165,5.791c-0.276,2.805,0.011,5.663-0.202,8.479
		c-0.197,2.602,0.911,3.63,3.385,3.726c3.473,0.135,6.977-0.308,10.413,0.623c1.871,0.507,2.227-0.778,2.412-2.231
		c0.501-3.932,1.055-7.857,1.551-11.789c0.869-6.898,1.68-13.804,2.585-20.698c0.237-1.803-0.028-2.962-2.19-2.808
		c-5.509,0.393-10.876-1.467-16.379-1.086c-6.668,0.462-13.229-0.833-19.851-1.149c-15.737-0.75-31.399-2.724-47.174-2.958
		c-4.451-0.066-8.91,0.243-13.335-0.812c-2.382-0.568-3.763,0.31-4.43,3.205c-1.141,4.948-1.914,10.03-3.878,14.774
		c-2.15,5.192-2.43,10.618-1.946,16.121c0.088,0.999-0.569,2.712,1.258,2.643c1.404-0.053,1.59-1.587,1.649-2.715
		c0.14-2.655,0.021-5.325,0.189-7.978c0.153-2.409,0.745-4.976,3.752-4.915C378.904,1236.403,383.543,1234.428,388.412,1235.042z
		 M1161.29,1267.768c0-1.998-0.147-4.01,0.036-5.991c0.247-2.668-0.613-3.392-3.438-3.897c-7.571-1.355-15.266-1.262-22.801-1.493
		c-15.78-0.485-31.458-2.674-47.261-2.449c-2.454,0.035-4.94-0.28-7.386-0.474c-5.447-0.432-10.837-1.587-16.347-1.425
		c-2.099,0.062-2.794,0.642-2.964,2.821c-0.443,5.684-1.337,11.332-1.871,17.012c-0.594,6.317-2.371,12.528-1.179,19.022
		c0.398,2.167,0.801,2.808,2.987,2.548c1.755-0.208,3.693-0.167,5.346,0.38c2.13,0.704,2.441,0.048,2.729-1.882
		c0.473-3.162,0.195-6.263,0.076-9.407c-0.084-2.226-0.38-4.93,2.739-5.646c4.317-0.992,8.708-3.047,13.02-2.381
		c9.865,1.522,19.78,1.19,29.652,1.51c11.795,0.382,23.509,1.757,35.264,2.481
		C1161.217,1279.193,1161.424,1280.899,1161.29,1267.768z M1766.578,1232.17c2.932,0,5.097-0.039,7.26,0.012
		c1.798,0.042,2.542-0.581,1.648-2.349c-2.127-4.205-0.149-9.207-2.762-13.427c-0.911-1.47-0.174-3.903,0.985-5.204
		c5.391-6.048,5.973-14.187,9.431-21.078c2.693-5.367,1.25-6.981-4.927-7.046c-11.134-0.118-22.275,0.105-33.393-0.817
		c-2.607-0.216-4.525,0.464-5.858,3.355c-1.504,3.261-1.439,6.834-2.843,10c-4.369,9.854-4.385,20.507-5.864,30.894
		c-0.372,2.613,0.84,3.544,3.341,3.681C1744.848,1230.809,1756.094,1231.532,1766.578,1232.17z M110.007,1200.955
		c-0.001-0.053-0.001-0.106-0.002-0.158c-2.327,0-4.655,0.05-6.98-0.01c-4.814-0.125-4.8-0.149-4.965,4.818
		c-0.093,2.796,0.567,5.67-0.808,8.341c-2.118,4.115-2.1,8.99-4.65,12.966c-0.658,1.026-0.19,2.13,0.115,3.304
		c1.057,4.071,2.48,7.239,7.637,5.215c0.394-0.155,0.965,0.14,1.454,0.225c13.286,2.306,26.709,2.213,40.123,2.381
		c2.276,0.028,2.985-0.691,3.463-2.938c2.112-9.937,1.487-20.117,2.951-30.099c0.292-1.991-1.143-2.012-2.533-2.087
		C133.877,1202.269,121.942,1201.61,110.007,1200.955z M1591.302,1180.687c-0.816-1.159,1.422-4.202-1.349-4.594
		c-3.708-0.524-7.563-1.963-11.306-0.693c-3.339,1.133-6.48,0.623-9.763,0.089c-4.207-0.684-8.484-1.825-12.677-0.045
		c-1.153,0.49-1.87,0.306-2.614-0.496c-0.891-0.96-2.113-1.491-2.988-0.46c-1.139,1.343,0.358,2.051,1.051,3.137
		c1.385,2.169,2.354,4.6,2.363,7.413c0.005,1.756-0.13,3.564-0.12,5.311c0.052,8.887,2.768,17.655,0.797,26.656
		c-1.167,5.33-0.231,5.825,5.29,6.167c8.442,0.523,16.952-0.873,25.341,0.939c1.894,0.409,2.762-0.147,2.376-2.278
		c-0.643-3.552,0.546-7.063,1.03-10.47C1590.158,1201.34,1590.236,1191.242,1591.302,1180.687z M127.883,1119.051
		c-0.006,0.087-0.011,0.174-0.017,0.261c-1.661,0-3.324,0.031-4.984-0.006c-4.99-0.111-7.137,1.857-7.207,6.649
		c-0.132,9.089-1.474,17.946-5.591,26.151c-1.26,2.512-0.674,2.883,1.883,3.205c12.39,1.559,24.889,0.28,37.299,1.704
		c6.217,0.714,6.475,0.01,7.008-6.355c0.014-0.165,0.006-0.333,0.013-0.499c0.405-8.698,1.51-17.315,2.963-25.894
		c0.344-2.03,0.091-3.295-2.665-3.416C147.01,1120.431,137.449,1119.678,127.883,1119.051z M1660.477,1061.026
		c0.232-4.122,0.462-8.25,0.064-12.401c-0.268-2.795-0.654-5.546-1.705-8.169c-1.714,2.204-2.703,4.796-3.99,7.235
		c-2.536,4.81-5.085,9.931-11.079,11.24c-4.752,1.038-9.873,1.183-10.583,7.685c-0.039,0.356-0.857,0.565-1.082,0.971
		c-2.781,5.01-5.818,9.864-6.839,15.706c-0.463,2.646-0.642,4.192,2.698,4.005c2.13-0.119,3.955,0.818,5.054,2.657
		c2.372,3.968,5.28,6.383,10.03,8.15c4.973,1.851,9.698,2.798,14.811,3.056c2.994,0.15,4.232-1.116,4.214-4.063
		c-0.026-4.145,0.344-8.302,0.145-12.435C1661.837,1076.773,1659.056,1069.068,1660.477,1061.026z M591.174,1169.968
		c0,1.995-0.025,3.991,0.011,5.986c0.017,0.953-0.126,2.102,1.41,2.024c5.934-0.301,11.694,2.027,17.673,1.163
		c1.291-0.187,2.789,0.136,3.052-1.744c0.963-6.872,5.322-12.681,5.688-19.873c0.312-6.129-0.047-11.923-2.304-17.62
		c-0.583-1.47-1.462-1.908-2.972-1.971c-4.64-0.195-9.293-0.372-13.901-0.907c-3.273-0.38-4.88,0.771-5.33,3.963
		C593.144,1150.62,591.669,1160.236,591.174,1169.968z M543.396,1243.775c-0.069,0-0.137,0-0.206,0.001
		c0,5.477,0.061,10.956-0.032,16.432c-0.034,2.026,0.483,2.81,2.73,3.023c5.437,0.515,10.886,0.717,16.316,1.124
		c3.605,0.271,4.079-0.82,4.164-3.948c0.285-10.471-1.523-20.691-3.183-30.942c-0.6-3.708-2.16-5.956-6.508-5.442
		c-3.109,0.367-6.327,0.294-9.445-0.045c-3.238-0.352-3.955,1.016-3.877,3.884C543.498,1233.162,543.396,1238.47,543.396,1243.775z
		 M294.304,1234.829c-0.312-6.049-0.667-13.642-1.845-21.19c-0.34-2.182-1.178-2.759-3.14-2.717
		c-2.805,0.061-5.726,0.442-8.391-0.189c-2.942-0.696-4.05,0.406-4.299,2.866c-0.876,8.664-3.259,17.208-1.427,26.08
		c1.401,6.788,1.149,7.209,8.253,7.262C295.986,1247.034,294.304,1250.036,294.304,1234.829z M1896.254,1187.26
		c-0.651,0.272-3.039-1.267-3.049,0.929c-0.022,4.978-3.336,9.218-2.472,14.483c0.54,3.292-0.354,7.028-2.073,10.067
		c-3.687,6.519-5.431,13.798-8.471,20.559c-0.503,1.119-1.186,3.272-0.89,3.448c1.431,0.854,3.174,0.6,4.791,0.139
		c0.278-0.08,0.435-0.546,0.717-0.656c4.232-1.642,8.134-4.068,12.282-5.731c2.965-1.188,4.013-2.349,3.563-5.25
		c-1.757-11.348-0.822-22.732,0.045-34.053C1900.989,1187.394,1900.265,1186.44,1896.254,1187.26z M305.115,1239.196
		c-0.612,3.78,0.747,6.141,4.545,7.02c0.781,0.181,1.471,0.741,2.214,1.105c7.763,3.804,10.925,2.028,11.381-6.392
		c0.027-0.497,0.059-0.996,0.038-1.492c-0.343-8.05-0.689-16.099-1.052-24.147c-0.029-0.652,0.05-1.613-0.325-1.897
		c-3.318-2.507-6.903,0.04-10.359-0.416c-1.714-0.226-3.102,0.422-3.24,2.23C307.698,1223.279,306.734,1231.302,305.115,1239.196z
		 M1909.185,1101.505c0.232,1.698-0.499,3.431,0.982,4.386c1.399,0.902,5.878-1.371,6.932-2.888
		c1.952-2.808,0.606-6.213,1.994-9.109c2.18-4.549,2.631-9.571,3.065-14.459c0.345-3.877,0.593-7.401,3.344-10.559
		c1.655-1.9,1.699-4.835,2.537-7.263c0.621-1.799-2.692-2.257-3.353-3.812c-1.109-2.608-2.321-1.772-4.215-1.013
		c-1.941,0.778-3.544,2.608-5.91,2.225c-3.557-0.575-3.608,1.606-3.453,4.181c0.267,4.463,0.21,8.936,0.254,13.405
		C1911.448,1085.089,1910.372,1093.435,1909.185,1101.505z M596.702,1249.362c0-0.062,0.001-0.125,0.001-0.187
		c2.656,0,5.314-0.08,7.966,0.024c2.379,0.093,2.853-0.694,2.063-2.955c-1.836-5.253-2.033-10.696-0.856-16.105
		c0.377-1.735-0.257-1.846-1.581-2.189c-5.482-1.421-11.188-0.641-16.691-1.824c-1.562-0.336-2.135,0.484-2.527,2.142
		c-1.552,6.563-1.929,13.334-3.735,19.857c-0.508,1.833-0.039,3.952,0.083,5.933c0.041,0.667,0.549,1.422,1.205,1.4
		c0.83-0.028,0.679-0.987,0.589-1.487c-0.665-3.722,1.556-4.553,4.534-4.598C590.735,1249.327,593.719,1249.362,596.702,1249.362z
		 M355.094,1228.237c0-3.647,0.037-7.295-0.014-10.941c-0.03-2.131-0.923-3.442-3.348-3.237c-1.315,0.111-2.693,0.192-3.969-0.07
		c-3.677-0.752-4.74,1.277-5.561,4.36c-1.458,5.476-0.977,11.152-2.201,16.672c-0.973,4.386-3.421,9.613,2.869,12.546
		c1.25,4.542,5.005,2.005,7.465,2.246c2.045,0.201,2.281-2.674,3.034-4.499C355.657,1239.766,355.542,1234.027,355.094,1228.237z
		 M545.049,1160.798c0,2.155-0.001,4.31,0,6.465c0.003,6.681,4.139,10.06,10.724,8.924c1.78-0.307,1.725-1.486,1.388-2.518
		c-0.856-2.618-0.712-5.089-0.012-7.736c0.395-1.492,0.468-3.288-0.547-4.81c-1.147-1.722-1.483-3.969-1.127-5.657
		c1.149-5.432-1.843-10.058-2.353-15.127c-0.068-0.68-0.938-1.279-1.436-1.916c-0.458,0.654-0.873,1.343-1.379,1.957
		C545.368,1146.377,544.251,1153.33,545.049,1160.798z M256.088,1146.47c0,4.156,0.15,8.481-0.046,12.789
		c-0.167,3.67,2.333,2.846,4.348,2.909c1.966,0.061,3.842,0.446,3.955-2.783c0.286-8.14-0.345-16.233-1.334-24.257
		c-0.304-2.463-0.14-5.282-1.636-7.658c-0.725-1.151-1.184-2.575-2.797-2.299c-1.495,0.256-1.134,1.763-1.416,2.841
		C255.588,1134.05,256.476,1140.211,256.088,1146.47z M1012.509,1282.403c-0.732-6.693-2.477-13.764-2.429-21.063
		c0.026-3.974-3.582-3.612-5.837-3.535c-2.061,0.071-0.834,2.516-0.977,3.9c-0.117,1.134,0.001,2.326,0.213,3.456
		c1.231,6.569,1.37,13.107-0.747,19.517c-0.911,2.759-1.51,5.207,2.116,6.287c3.876,1.155,6.539-0.316,7.339-4.092
		C1012.458,1285.59,1012.389,1284.233,1012.509,1282.403z M1581.633,1097.77c3.262-0.254,7.434,0.31,11.029-2.282
		c0.666-0.48,2.107-0.209,0.377-1.548c-6.159-4.768-11.607-10.468-18.711-13.994c-0.843-0.418-1.485-1.579-2.522-0.904
		c-0.681,0.443-0.665,1.472-0.511,2.3c0.482,2.601,0.392,5.241,0.585,7.844C1572.389,1096.065,1574.33,1097.634,1581.633,1097.77z
		 M258.458,1245.181c3.284,0.977,4.696-1.107,5.353-4.275c1.13-5.45-0.718-10.685-1.153-16.02c-0.044-0.541-0.191-1.54-0.962-1.524
		c-0.944,0.019-0.411,0.949-0.57,1.476c-0.549,1.809-1.978,3.969-3.455,3.629c-5.248-1.208-4.135,2.622-3.923,4.915
		c0.204,2.205-0.113,4.255-0.329,6.363C252.876,1245.03,252.94,1245.123,258.458,1245.181z M1690.265,1200.75
		c0-1.866,0.034-2.698-0.009-3.526c-0.05-0.947,0.283-2.251-0.969-2.514c-1.287-0.271-1.519,1.152-1.757,1.944
		c-1.125,3.742-3.042,7.23-2.337,11.496c0.501,3.035,0.24,6.348-3.399,8.004c-1.32,0.601-0.928,2.085-0.788,3.142
		c0.533,3.999,3.266,6.547,6.436,8.49c1.44,0.883,3.108,0.247,2.786-1.968C1688.966,1217.109,1689.214,1208.414,1690.265,1200.75z
		 M57.108,1212.627c-0.755,2.318,0.083,4.186,2.762,4.348c2.593,0.157,2.208,1.893,2.487,3.442c0.11,0.609,0.088,1.484,0.997,1.47
		c1.289-0.019,1.086-1.153,0.93-1.818c-0.961-4.103,0.053-7.807,2.107-11.319c1.769-3.026,0.307-5.49-0.777-8.384
		c-1.16-3.096-2.732-1.744-3.41-0.633C59.818,1203.646,56.672,1207.345,57.108,1212.627z M597.326,1063.859c-0.023,0-0.047,0-0.07,0
		c0-2.153,0.022-4.307-0.014-6.459c-0.01-0.598,0.186-1.493-0.563-1.658c-1.108-0.243-1.198,0.737-1.428,1.542
		c-1.655,5.766-3.269,6.932-9.407,6.252c-1.848-0.205-2.376,0.511-2.583,2c-0.37,2.656,2.582,6.357,5.257,6.617
		c8.75,0.849,8.796,0.808,8.808-7.797C597.326,1064.191,597.326,1064.025,597.326,1063.859z M583.553,960.444
		c-0.385,0.27-0.776,0.567-1.189,0.831c-2.003,1.28-3.108,3.239-4.316,5.22c-2.141,3.511-3.753,7.509-7.167,10.023
		c-2.045,1.506-1.35,2.129,0.259,3.048c1.007,0.575,1.943,1.274,2.925,1.896c2.379,1.506,3.838,1.116,4.635-1.837
		c1.588-5.889,3.403-11.716,5.134-17.566C584.004,961.486,584.431,960.91,583.553,960.444z M290.227,1140.445
		c-0.295-0.007-0.589-0.013-0.884-0.02c0-3.795,0.022-7.589-0.025-11.383c-0.006-0.525,0.331-1.52-0.737-1.425
		c-0.708,0.063-1.137,0.925-0.981,1.465c0.519,1.802,0.415,3.531,0.028,5.333c-1.878,8.732-2.549,17.584-2.524,26.501
		c0.003,1.122-0.44,2.525,1.37,2.536c1.423,0.009,1.86-0.967,1.968-2.319C288.994,1154.233,289.624,1147.34,290.227,1140.445z
		 M1889.562,1029.014c0.213-0.172,0.644-0.376,0.628-0.531c-0.11-1.023-0.541-2.294-1.45-2.413c-4.177-0.547-4.45-4.227-5.934-6.956
		c-1.436-2.64-1.918-5.587-2.739-8.421c-0.318-1.096-0.219-2.475-1.765-2.548c-1.506-0.071-1.927,1.22-2.028,2.348
		c-0.267,2.968-0.432,5.915-2.41,8.398c-0.679,0.852-0.052,1.619,0.638,2.035c4.739,2.855,10.158,4.463,14.565,7.935
		C1889.187,1028.956,1889.379,1028.961,1889.562,1029.014z M1184.287,1085.153c1.121-0.32,3.011,0.751,2.822-1.639
		c-0.237-2.992,0.556-5.83,1.142-8.709c0.142-0.699,0.503-1.871-0.437-2.093c-0.914-0.216-1.25,0.966-1.521,1.674
		c-1.023,2.68-1.547,6.633-2.917,7.88C1180.108,1085.24,1181.703,1084.912,1184.287,1085.153z M1045.237,1288.148
		c0.053-0.006,0.106-0.012,0.159-0.017c-0.307-2.861-0.589-5.725-0.94-8.58c-0.071-0.578-0.379-1.593-0.614-1.604
		c-1.053-0.048-0.594,0.934-0.574,1.397c0.15,3.482-1.099,6.726-1.617,10.091c-0.231,1.503-1.522,3.419,1.364,3.618
		c2.603,0.179,2.179-1.827,2.22-3.425C1045.248,1289.134,1045.237,1288.641,1045.237,1288.148z M240.229,1053.401
		c0.007,0,0.014,0,0.02,0c0,1.153-0.188,2.345,0.044,3.449c0.348,1.65,1.853,2.115,3.28,2.458c0.633,0.153,1.572,0.062,1.731-0.576
		c0.339-1.356-0.077-2.767-1.373-3.37c-2.121-0.987-1.641-2.513-1.213-4.123c0.318-1.197-0.268-1.987-1.345-2.077
		c-1.108-0.093-1.112,0.953-1.139,1.767C240.207,1051.753,240.229,1052.577,240.229,1053.401z M314.75,1165.121
		c1.295-0.555,4.185,1.195,4.31-1.284c0.168-3.339-3.065-1.042-4.623-1.76c-0.416-0.192-0.983-0.047-1.48-0.077
		c-1.33-0.079-3.288-1.287-3.529,1.057c-0.273,2.657,2.075,1.886,3.58,2.055C313.501,1165.168,314.004,1165.121,314.75,1165.121z
		 M1066.349,1075.592c-0.225,1.878-0.461,4.502,0.131,7.098c0.117,0.511,0.798,1.221,1.26,1.253c0.769,0.054,1.11-0.971,0.911-1.443
		c-1.012-2.408-0.085-4.901-0.485-7.309c-0.401-2.407-0.906-4.797-1.366-7.194
		C1065.076,1070.214,1066.86,1072.583,1066.349,1075.592z M1242.313,974.228c-0.266,0.137-0.611,0.209-0.785,0.421
		c-1.497,1.832,0.39,7.362,2.642,7.864c1.463,0.326,1.068-0.797,1.096-1.436c0.095-2.214-1.088-4.034-1.943-5.959
		C1243.099,974.614,1242.79,974.367,1242.313,974.228z M1003.348,1072.893c-0.077-1.396,0.505-2.879-0.503-3.013
		c-0.92-0.122-1.014,1.606-1.182,2.408c-0.633,3.031-0.958,6.13-1.295,9.216c-0.066,0.608,0.291,1.327,1.177,1.24
		c0.643-0.063,0.676-0.661,0.64-1.076C1001.91,1078.496,1002.888,1075.485,1003.348,1072.893z M1511.703,1220.611
		c0.084-0.905-2.822-5.467-3.06-5.27c-0.887,0.734-0.274,1.864-0.609,2.73c-0.715,1.849-0.233,2.897,1.806,2.961
		C1510.533,1221.054,1511.489,1221.412,1511.703,1220.611z M1802.516,1100.202c-0.996,0.859-2.76,0.768-3.133,2.071
		c-0.335,1.168,0.978,0.894,1.666,0.955c1.2,0.106,2.361-0.007,2.232-1.673C1803.24,1101.03,1803.551,1100.172,1802.516,1100.202z
		 M1042.336,1260.211c-0.288-0.906,0.481-2.23-0.633-2.655c-0.937-0.358-0.853,0.725-0.699,1.27
		c0.305,1.085-0.323,2.768,0.736,3.153C1042.618,1262.298,1042.072,1260.823,1042.336,1260.211z M255.207,1060.788
		c0.002-0.552-0.29-0.946-0.806-0.966c-0.759-0.029-1.157,0.48-1.234,1.199c-0.058,0.541,0.247,0.947,0.773,0.967
		C254.708,1062.019,255.041,1061.458,255.207,1060.788z M260.288,1210.1c0.055-0.649-0.403-0.969-1.107-1.003
		c-0.575-0.027-1.421-0.167-1.472,0.544c-0.029,0.41,0.671,1.008,1.173,1.285C259.491,1211.26,260.086,1211.047,260.288,1210.1z
		 M346.888,1164.887c-0.121-0.493-0.419-0.81-0.938-0.71c-0.493,0.095-0.767,0.461-0.641,0.972c0.098,0.401,0.142,0.979,0.829,0.723
		C346.581,1165.706,346.931,1165.436,346.888,1164.887z M1028.16,1290.953c-0.184-0.159-0.367-0.317-0.551-0.476
		c-0.107,0.268-0.305,0.542-0.288,0.801c0.011,0.169,0.337,0.318,0.521,0.475C1027.949,1291.488,1028.055,1291.221,1028.16,1290.953
		z"/>
	<path d="M2049.24,954.1c-6.504,2.652-13.371,3.286-20.258,3.088c-4.433-0.128-8.33,0.232-11.596,3.661
		c-1.795,1.885-4.491,1.948-6.959,2.194c-0.772,0.077-1.762,0.113-1.936-1.027c-0.146-0.96,0.492-1.661,1.228-1.977
		c1.794-0.771,3.671-1.35,5.504-2.031c0.622-0.231,1.353-0.539,1.134-1.359c-0.222-0.827-1.053-0.507-1.647-0.566
		c-4.017-0.397-8.093-0.081-11.796,1.232c-3.494,1.239-5.376-0.562-7.365-2.469c-1.235-1.185-1.671-2.969-0.974-4.641
		c0.677-1.623,2.316-0.944,3.534-0.98c5.44-0.158,11.029,0.608,15.939-2.616c1.086-0.713,3.445,0.241,3.199-2.212
		c-0.225-2.243,1.187-5.051-0.999-6.634c-5.364-3.886-8.692-9.541-12.739-14.486c-3.569-4.36-7.868-6.055-12.939-7.282
		c-7.731-1.871-15.454-3.687-23.309-5.01c-2.248-0.378-6.242-0.124-6.135-3.563c0.105-3.374,3.889-3.003,6.364-3.487
		c15.305-2.993,30.669-1.73,45.956-0.03c5.899,0.656,11.116,3.907,16.11,7.164c1.099,0.717,1.439,1.734,1.537,2.956
		c0.327,4.074,2.569,7.487,3.865,11.226c0.87,2.51,1.918,2.244,3.559,0.886c3.208-2.653,6.698-4.825,10.723-6.036
		C2049.24,931.433,2049.24,942.766,2049.24,954.1z"/>
	<path d="M437.212,74.382c15.64-0.399,31.26,0.922,46.776,2.193c14.18,1.161,28.328,4.035,42.378,6.877
		c9.507,1.923,19.279,2.466,28.731,4.755c17.868,4.327,36.008,7.689,53.075,14.902c9.474,4.004,18.238,9.265,26.553,15.214
		c4.957,3.547,10.431,6.284,14.943,10.589c4.92,4.695,7.645,10.009,8.588,16.722c2.014,14.338,4.903,28.549,9.089,42.406
		c4.222,13.976,10.973,26.856,18.451,39.387c3.831,6.42,8.641,12.097,12.749,18.291c1.435,2.164,3.717,3.41,6.047,4.22
		c6.658,2.313,13.489,4.183,20.141,6.42c6.921,2.326,13.044,0.263,19.041-1.593c11.018-3.41,22.224-3.862,33.529-5.056
		c11.535-1.218,23.356-0.882,34.697-4.183c3.787-1.102,7.895-0.802,11.836-1.163c10.741-0.985,21.56-2.017,32.343-1.117
		c9.665,0.807,19.169,2.845,28.572,5.32c6.525,1.718,13.209,2.794,19.63,4.97c16.151,5.472,29.186,15.439,40.765,27.677
		c4.796,5.069,10.215,9.543,15.086,14.546c16.297,16.74,26.831,36.665,31.676,59.465c0.874,4.111,1.721,8.432,1.366,12.807
		c-0.178,2.2-0.641,3.092-2.967,2.05c-2.795-1.252-5.761-2.126-7.92-4.521c-0.863-0.958-1.973-2.331-3.349-1.41
		c-1.375,0.921-2.034,2.609-1.737,4.36c0.247,1.456,0.91,2.797,0.918,4.352c0.022,4.026-0.631,4.575-4.642,4.145
		c-2.349-0.252-4.015-1.74-5.606-3.034c-2.077-1.69-2.977-1.909-4.156,0.826c-2.126,4.932-3.233,5.178-7.872,2.4
		c-1.414-0.847-2.743-1.851-4.039-2.875c-1.665-1.315-2.69-2.56-4.934-0.002c-1.718,1.959-5.01,0.857-7.335-0.659
		c-1.523-0.993-2.878-2.244-4.306-3.382c-0.641-0.511-1.263-1.409-2.109-1.139c-6.365,2.034-10.341-2.954-15.247-5.147
		c-1.146-0.512-1.807-1.948-3.387-1.784c-7.049,0.731-11.523-4.312-16.611-7.738c-1.977-1.331-3.834-2.694-6.138-3.023
		c-8.068-1.152-13.882-5.887-18.949-11.763c-2.415-2.8-4.908-5.365-8.354-6.916c-3.293-1.483-6.008-4.033-7.502-7.097
		c-1.461-2.995-3.515-4.543-6.316-5.798c-4.401-1.973-7.913-4.845-9.037-9.91c-0.431-1.941-1.968-2.955-3.725-3.718
		c-3.863-1.677-7.622-3.515-8.482-8.269c-0.295-1.632-1.632-1.475-2.706-1.598c-1.98-0.226-3.986-0.216-5.969-0.425
		c-4.218-0.444-5.452-1.952-4.756-6.05c0.295-1.736,0.324-2.524-1.865-2.999c-3.934-0.854-8.019-1.531-10.9-5.089
		c-1.621-2.001-4.453-0.887-6.656-1.024c-5.592-0.348-10.781-2.833-16.415-2.738c-2.163,0.036-4.038,0.041-1.777,2.839
		c0.716,0.886,1.281,1.929,1.748,2.975c3.07,6.882,7.539,12.094,14.907,14.936c5.141,1.983,9.376,5.612,11.493,11.116
		c0.299,0.778,0.935,1.485,0.288,2.227c-0.695,0.798-1.602,0.087-2.283-0.13c-2.977-0.948-6.122-1.337-8.92-2.896
		c-8.789-4.9-17.81-4.574-27.168-1.574c-7.564,2.425-14.643,5.265-21.347,9.893c-7.093,4.898-15.496,7.677-24.363,8.759
		c-6.014,0.734-11.892,2.568-17.84,3.867c-8.217,1.794-16.556,0.783-24.841,1.005c-7.815,0.21-15.396-1.662-23.08-2.642
		c-6.378-0.813-12.8-1.225-19.16-2.298c-3.908-0.659-7.738-1.57-11.514-2.676c-3.247-0.951-5.831-0.117-8.165,2.076
		c-2.433,2.286-4.121,5.148-6.114,7.784c-6.245,8.259-11.092,17.385-16.53,26.142c-0.939,1.513-2.104,2.461-3.563,3.251
		c-8.15,4.413-16.294,8.84-24.45,13.241c-1.477,0.797-3.078,1.125-4.765,1.269c-1.401,0.119-3.281,2.003-3.948,0.947
		c-1.174-1.86,1.431-2.865,2.404-4.104c1.413-1.799,3.53-3.056,4.45-5.298c0.883-2.151,1.163-4.004-2.191-3.733
		c-0.596,0.048-1.471,0.254-1.706-0.483c-0.312-0.977,0.644-1.438,1.251-1.939c5.551-4.582,12.328-6.077,19.124-7.462
		c2.427-0.495,4.904-0.74,7.359-1.094c0.713-0.103,1.389-0.462,1.481-1.129c0.114-0.824-0.758-0.856-1.333-1.096
		c-0.731-0.305-1.773-0.517-1.703-1.416c0.022-0.285,1.451-0.633,2.245-0.659c6.316-0.203,9.501-4.507,12.557-9.212
		c3.792-5.837,8.085-11.35,10.94-17.773c1.193-2.684,0.971-4.247-2.069-5.664c-4.355-2.03-8.767-3.832-13.402-4.94
		c-5.365-1.283-10.295-3.421-14.88-6.413c-2.745-1.791-5.065-2.311-8,0.209c-8.416,7.23-18.321,12.592-26.157,20.576
		c-0.996,1.014-2.137,1.315-3.458,1.665c-10.144,2.692-20.176,5.817-30.525,7.697c-0.65,0.118-1.327,0.15-1.988,0.127
		c-0.64-0.023-1.276-0.168-1.914-0.26c0.342-0.537,0.686-1.072,1.026-1.61c0.351-0.554,0.627-1.178,1.068-1.646
		c0.398-0.422,1.519-0.335,1.383-1.013c-0.152-0.755-1.096-0.522-1.733-0.438c-0.79,0.104-1.885,0.77-2.273-0.064
		c-0.545-1.171,0.794-1.748,1.563-2.124c3.111-1.521,6.195-3.255,9.491-4.205c6.133-1.767,11.841-5.253,18.638-4.569
		c2.178,0.219,4.656-1.92,5.554-4.032c0.554-1.301,1.656-0.995,2.512-0.872c8.312,1.19,12.713-5.624,18.705-9.134
		c1.385-0.812,0.399-1.935-0.677-1.882c-5.419,0.265-10.606-2.085-16.255-0.613c-4.216,1.099-8.968,1.326-13.268-0.437
		c-5.078-2.082-10.508-0.467-15.688-1.971c-6.334-1.84-11.785-4.66-15.809-10.014c-1.512-2.011-0.399-2.561,1.322-3.028
		c0.939-0.254,2.229-0.503,2.105-1.649c-0.101-0.929-1.215-1.546-2.166-1.907c-1.379-0.523-2.783-0.983-4.193-1.417
		c-6.566-2.022-8.61-5.256-6.792-11.742c0.481-1.716,0.039-2.35-0.996-3.304c-1.337-1.233-2.584-2.572-3.789-3.937
		c-0.526-0.596-1.354-1.818-1.196-1.994c3.086-3.433-0.663-6.571-0.341-9.844c0.064-0.651-0.329-1.702-0.034-1.919
		c2.972-2.185,2.456-4.777,1.182-7.597c-0.463-1.026,0.263-1.537,1.219-1.577c1.651-0.069,3.333-0.374,4.937,0.258
		c2.317,0.913,4.11,1.307,5.922-1.428c1.272-1.919,3.818-0.916,5.91-0.073c12.192,4.915,24.365,9.921,36.927,13.809
		c9.879,3.058,19.92,5.598,29.917,8.263c1.237,0.33,2.883,0.465,3.935-0.085c3.912-2.046,8.217-2.172,12.349-3.148
		c1.613-0.381,4.22,0.069,4.617-0.941c0.658-1.678-2.162-1.738-2.977-3.119c-1.681-2.85-0.54-6.561-2.944-9.195
		c-0.352-0.385-0.206-1.335-0.87-1.645c-1.59-0.743-3.579-0.144-5.012-1.46c2.334-1.35,0.757-3.116,0.033-4.182
		c-2.004-2.95-3.539-6.064-4.616-9.437c-0.049-0.155-0.141-0.393-0.252-0.417c-5.887-1.29-4.743-7.382-7.029-11.027
		c-2.419-3.857-4.642-8.169-6.277-12.671c-2.277-6.267-6.142-11.93-7.318-18.655c-4.125-1.879-3.823-6.417-5.734-9.624
		c-2.772-4.651-5.07-9.599-8.014-14.132c-3.368-5.186-5.823-10.852-9.079-16.074c-0.667-1.071-1.858-1.747-2.986-2.489
		c-3.516-2.313-7.385-3.853-10.561-7.085c-2.418-2.461-7.246-2.548-10.998-3.702c-9.347-2.876-19.224-2.654-28.679-4.931
		c-6.446-1.553-12.189-5.132-18.74-6.349c-0.806-0.15-1.585-0.642-2.376-0.642c-13.47-0.003-26.773-2.212-40.157-3.272
		c-8.938-0.707-18.179-0.588-26.74-4.486c-4.098-1.866-8.856-0.974-13.252-1.814c-2.589-0.495-4.759-1.061-1.403-3.861
		c1.721-1.436,2.632-2.497-0.958-3.096c-3.945-0.658-8.032,0.253-11.83-1.308c-0.698-0.287-1.86,0.043-1.954-1.098
		c-0.088-1.071,1.083-1.105,1.711-1.499c0.972-0.611,2.206-0.882,2.719-2.04c0.384-0.866,1.432-1.575,0.968-2.668
		c-0.495-1.166-1.681-0.848-2.616-0.882c-2.009-0.071-3.985-0.238-5.864-1.033c-0.891-0.377-2.44-0.217-2.506-1.253
		c-0.077-1.22,1.501-1.76,2.435-2.136c1.677-0.675,3.402-0.969,4.595-2.623c0.992-1.375,1.68-2.424,0.045-3.776
		c-2.164-1.789-1.306-2.614,1.018-3.03c8.6-1.541,17.074-3.643,25.889-4.096c10.245-0.526,20.445-1.874,30.681-2.648
		C428.862,74.12,433.047,74.382,437.212,74.382z"/>
	<path d="M861.282,353.454c-15.459-1.438-30.431-5.582-45.68-8.168c-5.625-0.954-11.245-2.327-17.157-0.498
		c-4.049,1.253-8.534-0.392-12.826,0.868c-8.025,2.357-15.112,6.769-22.757,9.914c-4.6,1.892-8.37,5.358-13.27,6.57
		c-0.252,0.062-0.436,0.4-0.652,0.61c0.402,0.148,0.811,0.441,1.206,0.424c7.151-0.302,14.345,0.565,21.454-0.563
		c3.827-0.608,7.64-0.382,11.461-0.452c1.109-0.02,1.96-0.285,1.803,1.815c-0.899,12.031-9.465,20.062-15.016,29.652
		c-2.653,4.584-7.707,6.377-12.077,7.062c-9.237,1.45-18.153,4.453-27.487,5.277c-2.332,0.206-3.533-0.254-4.152-2.914
		c-1.316-5.657-1.333-11.479-2.614-17.121c-0.748-3.292-4.768-5.082-7.335-2.81c-8.114,7.182-17.498,12.617-26.396,18.601
		c-9.013,6.062-16.578,13.245-23.545,21.333c-0.737,0.856-1.825,1.405-2.733,2.118c-3.134,2.462-5.565,5.267-7.383,9.039
		c-2.523,5.234-5.556,10.294-8.529,15.335c-4.487,7.608-9.451,14.931-13.783,22.649c-2.746,4.892-5.307,10.226-10.045,13.769
		c-1.306,0.977-1.635,2.46-2.385,3.718c-0.981,1.643-1.416,3.816-4.081,3.478c-0.288-0.037-0.861,0.174-0.882,0.328
		c-0.712,5.11-6.545,4.928-8.764,8.489c-0.473,0.759-1.031,1.96-2.202,1.586c-1.042-0.333-1.232-1.419-1.246-2.492
		c-0.012-0.944,0.448-2.38-0.57-2.694c-1.767-0.544-1.225,1.534-1.951,2.265c-0.777,0.782-1.177,2.399-2.519,1.992
		c-1.4-0.424-0.881-1.975-0.81-3.037c1.292-19.442,5.089-38.36,11.658-56.735c2.894-8.094,4.63-16.581,8.269-24.436
		c4.033-8.705,7.702-17.579,13.05-25.626c2.824-4.25,6.251-7.475,10.97-9.726c9.706-4.629,19.613-8.905,28.642-14.872
		c4.594-3.036,8.751-6.605,12.798-10.283c3.169-2.88,2.696-4.833-0.917-7.365c-2.559-1.794-5.352-1.457-8.165-1.511
		c-0.851-0.016-2.158,0.615-2.465-0.814c-0.228-1.063,0.501-2.381,1.317-2.442c4.667-0.348,6.759-4.195,9.921-6.677
		c4.457-3.498,9.886-3.323,15.256-2.574c4.082,0.57,8.173,1.07,12.255,1.639c7.163,0.998,13.294-2.266,19.349-5.129
		c5.515-2.607,11.201-5.336,15.537-9.742c5.338-5.425,11.489-4.738,18.013-3.7c19.945,3.172,38.239,11.535,57.149,17.966
		c11.692,3.977,23.27,8.367,35.487,10.557c3.055,0.548,3.241,3.363,4.694,5.182L861.282,353.454z"/>
	<path d="M1568.221,205.424c26.241,0.201,50.642,7.493,73.923,19.06c1.088,0.541,2.906,0.819,2.706,2.513
		c-0.468,3.972,2.592,4.33,5.089,5.562c14.257,7.038,29.672,6.148,44.878,6.73c4.355,0.167,8.68,2.954,9.25,6.463
		c0.526,3.24,0.488,6.573,0.663,9.867c0.026,0.485-0.353,1.057-0.2,1.459c2.24,5.917-2.081,4.209-4.717,3.9
		c-9.379-1.099-18.738-2.362-28.098-3.616c-2.99-0.401-5.974-0.41-8.969-0.224c-0.668,0.041-1.371,0.263-1.306,1.133
		c0.069,0.919,0.903,0.816,1.48,0.824c3.315,0.046,6.648-0.336,9.868,0.931c1.846,0.726,3.84,1.034,4.299,3.533
		c0.439,2.396,3.188,1.992,4.593,3.408c1.434,1.446,2.029,2.158-0.292,2.97c-1.21,0.424-2.21,0.919-3.731,0.513
		c-5.426-1.448-10.946-2.545-16.437-3.746c-2.289-0.501-4.723-1.023-6.233-2.813c-4.648-5.512-11.005-4.298-16.938-4.5
		c-2.585-0.088-5.821-0.085-7.656,1.321c-2.739,2.098,1.078,4.717,0.865,7.253c-0.262,3.137,0.833,5.842,2.285,8.509
		c0.826,1.516,1.538,3.063-1.097,3.786c-1.593,0.437-0.396,1.542-0.241,2.395c0.42,2.302,3.587,4.45,0.425,7.011
		c-0.137,0.111,0.115,1.077,0.433,1.317c3.684,2.771,0.263,7.403,2.757,10.489c0.157,0.194-0.12,1.056-0.422,1.248
		c-1.074,0.681-1.783-0.204-2.616-0.738c-0.706-0.452-1.074-1.865-2.241-1.021c-0.109,0.079,0.604,1.423,1.049,2.105
		c0.524,0.803,1.59,1.607,0.449,2.46c-0.386,0.289-1.586-0.214-2.23-0.636c-0.963-0.631-1.666-1.986-2.651-2.186
		c-2.066-0.42,0.167,1.961-1.128,2.193c-1.094,0.196-1.867-0.589-2.6-1.242c-3.355-2.986-6.678-6.008-10.024-9.004
		c-0.592-0.53-1.017-1.557-1.935-1.327c-1.189,0.297-0.226,1.413-0.516,2.069c-1.49,3.364-1.293,6.684-0.106,10.106
		c0.477,1.376,0.84,3.35-0.315,4.283c-2.525,2.04-1.778,4.151-0.976,6.546c0.674,2.013,1.405,4.09-0.777,5.872
		c-1.181,0.965-0.096,2.079,0.207,3.161c0.775,2.764,3.746,5.323,0.542,8.544c-0.707,0.711,0.893,2.295,1.318,3.521
		c0.338,0.973,0.628,2.135-0.158,2.811c-0.917,0.789-1.809-0.171-2.591-0.715c-0.405-0.282-0.69-0.736-1.096-1.015
		c-0.823-0.566-1.247-2.382-2.451-1.518c-0.785,0.564,0.579,1.693,0.748,2.656c0.14,0.797,0.667,1.53,0.786,2.327
		c0.091,0.608,0.03,1.521-0.352,1.855c-0.646,0.564-1.597,0.282-2.269-0.207c-0.664-0.484-1.139-1.224-1.794-1.723
		c-0.893-0.681-1.298-2.706-2.235-2.203c-1.049,0.564,0.051,2.042,0.467,3.097c0.249,0.633,0.295,1.516-0.364,1.755
		c-0.463,0.168-1.295-0.204-1.756-0.585c-3.492-2.884-6.214-6.497-8.946-10.04c-14.464-18.754-25.616-39.279-33.762-61.574
		c-2.415-6.61-5.91-12.923-8.518-19.547c-0.425-1.08-1.169-2.165-1.182-3.255c-0.071-5.696-3.875-8.019-8.308-10.357
		c-8.672-4.574-17.754-7.187-27.551-7.1c-3.465,0.031-6.828,1.437-10.36,0.997c-0.773-0.096-1.884,0.421-2.238-0.425
		c-0.487-1.165,0.805-1.67,1.477-2.282c3.256-2.965,7.548-3.348,11.548-4.076c4.285-0.779,7.985-2.553,10.981-5.426
		c7.962-7.632,18.171-9.053,28.307-10.625c2.766-0.429,5.136-0.449,7.556-2.652C1559.811,204.845,1564.253,205.296,1568.221,205.424
		z"/>
	<path d="M1332.531,514.088c-5.887,0.661-11.579,0.042-16.713-3.1c-2.4-1.469-5.145-2.541-6.83-5.031
		c-0.61-0.901-2.041-1.442-1.324-2.883c0.675-1.355,2.089-1.094,3.096-0.855c4.911,1.165,9.895,0.739,14.851,0.99
		c5.567,0.282,10.859-0.751,16.113-2.418c5.172-1.641,10.393-3.129,15.604-4.643c0.804-0.234,1.967-0.323,1.928-1.212
		c-0.067-1.531-1.518-0.85-2.261-0.789c-1.957,0.16-3.543-0.804-5.226-1.424c-1.709-0.629-3.392-1.777-5.187-1.552
		c-5.851,0.735-10.414-1.62-15.056-4.888c-5.072-3.57-10.769-6.241-16.089-9.477c-1.551-0.944-2.708-0.547-4.171-0.051
		c-9.334,3.163-18.373,7.18-27.916,9.731c-11.409,3.05-22.309,7.857-33.99,9.939c-4.855,0.865-9.775,1.37-14.659,2.077
		c-0.498,0.072-0.96,0.237-1.179-0.326c-0.246-0.633,0.339-0.839,0.723-1.118c3.786-2.753,8.169-4.256,12.464-5.935
		c22.278-8.709,45.498-14.192,68.632-19.947c8.45-2.102,16.938-4.175,25.521-5.575c5.807-0.947,11.797-1.761,17.73-0.393
		c1.794,0.414,3.303,1.347,4.765,2.514c7.356,5.877,14.96,11.424,22.592,16.942c2.865,2.071,5.3,1.918,7.698,0.267
		c3.407-2.345,7.301-2.801,11.069-3.952c5.643-1.723,11.182-3.924,16.545-6.398c16.1-7.43,33.09-11.735,50.662-11.939
		c9.354-0.109,19.286-0.845,28.269,3.616c5.801,2.881,11.185,6.453,15.913,10.841c5.08,4.714,6.255,11.128,6.504,17.717
		c0.06,1.569-1.085,3.574-2.518,3.021c-2.783-1.073-4.936-1.402-6.982,1.142c-0.259,0.322-1.584,0.321-1.893-0.014
		c-3.079-3.332-5.284-2.523-7.124,1.232c-0.158,0.322-0.957,0.589-1.688-0.038c-1.733-1.485-4.515-0.91-5.88-1.565
		c-3.067-1.472-6.624-0.661-9.177-2.368c-8.196-5.48-17.316-8.935-26.239-12.858c-2.41-1.059-4.227-3.03-6.754-4.162
		c-3.501-1.568-6.656-1.622-9.87-0.23c-6.924,3-12.619,7.752-17.86,13.112c-2.09,2.137-1.877,3.485,0.813,4.827
		c5.953,2.972,10.661,7.173,12.613,13.823c0.874,2.978,3.397,4.239,5.699,5.824c2.176,1.499,5.702,3.806,4.657,5.77
		c-1.315,2.473-4.141-0.646-6.301-1.326c-4.562-1.436-9.05-1.667-13.525,0.281c-10.205,4.444-20.851,4.415-31.629,3.123
		c-4.095-0.491-8.218-1.346-12.301-1.213c-6.184,0.202-12.193-1.489-18.353-1.191c-0.762,0.037-1.689-0.283-2.305-0.748
		c-4.355-3.286-8.03-1.691-11.096,1.798c-1.503,1.71-4.237,1.83-4.983,4.575c-0.357,1.311-11.993,2.188-12.989,1.245
		c-0.186-0.176-0.172-0.564-0.251-0.854c4.087-0.434,0.419-4.447,2.992-6.213c2.685-1.844,5.251-1.571,7.981-1.749
		c0.829-0.054,1.68,0.097,2.493-0.028c1.361-0.209,1.872-1.316,2.056-2.49c0.223-1.418-1.07-1.596-1.94-1.762
		c-3.393-0.645-6.799-1.29-10.231-1.645C1337.551,513.882,1335.031,514.088,1332.531,514.088z M1356.067,518.682
		c-0.171-0.205-0.325-0.553-0.501-0.564c-0.282-0.018-0.579,0.186-0.87,0.297c0.161,0.198,0.309,0.546,0.486,0.561
		C1355.458,518.999,1355.754,518.798,1356.067,518.682z"/>
	<path d="M88.783,405.864c-3.472-0.034-7.124,1.03-10.382-0.321c-2.689-1.114-3.255,0.798-4.205,2.107
		c-1.339,1.845-1.797,4.041-0.776,6.19c0.401,0.844,1.414,1.385,2.102,2.108c3.138,3.305,2.153,2.49-0.54,5.701
		c-3.201,3.817-6.631,0.266-9.632,1.954c-1.191,0.67-1.15-1.251-0.826-2.028c1.081-2.59,1.911-5.434,4.169-7.263
		c3.826-3.099,2.958-7.847,4.428-11.762c0.136-0.363-0.102-1.058-0.404-1.365c-3.561-3.609-3.753-8.419-4.191-12.93
		c-0.317-3.275-2.043-4.609-4.561-5.77c-14.419-6.649-29.433-11.401-45.019-14.443c-5.152-1.006-10.012-3.093-15.453-3.174
		c-4.195-0.063-1.741-3.848-2.103-5.9c-0.449-2.547,1.706-1.955,2.994-1.562c13.904,4.242,28.513,5.324,42.422,9.624
		c6.814,2.107,13.11,5.34,19.724,7.847c5.111,1.937,10.352,3.371,15.888,3.263c6.967-0.136,13.565,2.515,20.661,2.235
		c6.446-0.254,12.194-3.168,18.464-3.515c8.032-0.444,15.95-1.525,24.139-1.037c13.402,0.799,26.914,1.224,40.359-0.422
		c4.921-0.602,9.908-0.745,14.852-1.086c17.299-1.191,34.456-2.851,50.722-9.416c1.749-0.706,3.4-0.928,5.192-0.599
		c-0.493,1.768-2.137,2.379-3.417,3.321c-9.387,6.907-20.248,10.312-31.475,12.297c-13.874,2.453-27.983,3.686-42.032,2.918
		c-8.034-0.439-16.174-0.42-24.066-0.275c-11.852,0.218-23.824-0.36-35.71,1.226c-5.383,0.718-10.748,1.596-16.138,2.271
		c-1.246,0.156-2.484,0.518-2.64,1.781c-0.204,1.647,1.65,1.718,2.496,1.809c3.592,0.384,7.064,1.772,10.76,1.309
		c0.935-0.117,2.723-0.564,2.671,0.216c-0.104,1.544-1.837,0.763-2.867,0.859c-1.809,0.169-3.579,0.233-5.399,0.674
		c-7.09,1.719-9.781,6.792-8.059,13.997c1.121,4.689,2.103,9.224,4.909,13.293c0.823,1.193,1.446,2.945,1.362,4.689
		c-0.096,2.001,0.792,4.948-3.01,2.41c-0.769-0.514-2.004-0.313-2.834,0.362c-2.045,1.663-2.062,0.161-2.051-1.292
		c0.012-1.498-0.696-2.716-1.9-3.293c-4.078-1.954-1.407-3.731,0.422-4.435c4.25-1.637,3.751-4.251,2.42-7.497
		c-0.443-1.08-1.905-1.627-1.261-3.402c0.507-1.398-0.267-2.173-2.282-1.79C94.152,406.233,91.432,405.864,88.783,405.864z"/>
	<path d="M1219.276,919.066c-0.854-0.071-1.623,0.1-2.356,0.597c-0.718,0.486-1.796,0.776-2.263,0.074
		c-0.59-0.888,0.42-1.299,1.116-1.762c0.579-0.385,1.749-0.73,1.221-1.621c-0.218-0.368-1.616-0.333-2.32-0.066
		c-3.059,1.161-6.021,2.589-9.108,3.664c-0.901,0.314-2.547,0.77-3.026-0.377c-0.263-0.629,1.283-1.21,2.225-1.544
		c3.473-1.233,5.487-3.977,7.407-6.935c1.264-1.947,0.828-2.714-1.288-2.759c-4.319-0.092-8.641-0.074-12.961-0.123
		c-1.663-0.019-3.326-0.084-4.988-0.158c-1.161-0.052-1.945-0.821-2.073-1.822c-0.214-1.674,1.173-1.036,2.018-1.12
		c0.794-0.079,1.839,0.052,1.652-1.193c-0.112-0.75-0.927-0.731-1.583-0.854c-4.837-0.901-9.404,0.91-14.082,1.473
		c-4.653,0.561-9.295,0.28-13.935,0.553c-1.054,0.062-2.447,0.427-2.605-1.413c-0.143-1.657,1.197-1.936,2.211-2.211
		c4.279-1.161,8.55-2.726,12.915-3.117c7.734-0.693,15.236-2.832,22.987-3.259c5.758-0.317,11.485-0.547,16.777,2.443
		c2.251,1.272,2.002-0.565,2.068-1.849c0.27-5.281-0.75-10.62,0.93-15.84c3.059-9.508,0.421-19.228,0.828-28.84
		c0.053-1.241-0.154-2.572,0.287-3.734c0.588-1.549,0.709-2.161,3.165-0.897c7.118,3.664,8.523,10.253,10.723,16.736
		c2.616,7.71-0.51,15.004-1.363,22.434c-0.384,3.348,1.033,6.116,1.427,9.177c0.165,1.281,1.229,1.312,2.237,1.508
		c1.615,0.313,3.3,0.563,4.777,1.232c2.958,1.342,3.443,4.25,1.234,6.709c-5.295,5.895-12.417,8.544-19.683,10.859
		c-1.741,0.555-3.773,0.465-3.631,3.099c0,0,0.131-0.14,0.131-0.14c-0.395,0.393-0.791,0.785-1.186,1.178
		C1219.162,919.171,1219.276,919.066,1219.276,919.066z"/>
	<path d="M597.23,872.017c-4.865-0.856-9.493,1.366-14.36,1.089c-2.189-0.125-7.282,5.438-7.6,7.494
		c-0.153,0.993,0.308,1.669,1.079,2.004c3.147,1.368,6.323,2.751,9.88,1.597c5.657-1.837,11.52-3.082,16.786-6.047
		c0.83-0.467,2.133-1.889,2.974-0.346c0.679,1.244-0.794,2.001-1.703,2.675c-2.534,1.881-5.161,3.667-8.248,4.465
		c-2.329,0.602-4.264,1.82-6.103,3.237c-3.798,2.925-3.792,2.983,0.695,5.067c0.94,0.437,2.319,0.923,0.762,1.719
		c-1.52,0.777,1.571,4.017-1.864,3.061c-5.228-1.455-10.579-0.49-15.863-0.892c-3.757-0.285-6.457-3.394-10.36-3.164
		c-0.939,0.055,0.066-0.86,0.481-1.178c0.922-0.708,1.935-1.311,2.794-2.086c0.658-0.594,2.331-0.469,1.845-1.852
		c-0.376-1.07-1.504-2.119-2.735-1.645c-7.706,2.964-13.741-1.748-20.273-4.223c-1.487-0.564-1.187-1.135-0.269-2.039
		c4.894-4.817,4.691-4.81,3.951-11.263c-0.422-3.678-2.08-6.423-4.258-9.279c-3.914-5.131-7.717-10.469-7.548-17.436
		c0.032-1.315-0.275-3.001,1.3-3.448c1.929-0.547,2.417,1.276,3.02,2.595c3.568,7.8,9.441,13.686,15.835,19.144
		c0.252,0.215,0.655,0.391,0.727,0.657c1.859,6.808,7.255,4.14,11.564,4.314c2.491,0.1,4.988,0.051,7.48,0.117
		c0.709,0.019,1.468,0.491,1.469,1.116c0.002,0.811-0.906,0.635-1.498,0.681c-0.663,0.052-1.345-0.013-1.99,0.116
		c-0.454,0.091-0.955,0.365-0.798,1.017c0.135,0.562,0.599,0.785,1.088,0.706c1.308-0.209,3.203-0.054,3.791-0.843
		c1.842-2.474,4.301-2.234,6.606-1.875c8.765,1.363,17.56,0.987,26.359,0.87c0.698-0.009,1.89-0.505,2.025,0.557
		c0.123,0.971-1.057,1.129-1.833,1.235C607.371,870.629,602.504,872.816,597.23,872.017z M566.993,873.174
		c-0.631,0.261-1.804-0.431-1.782,0.847c0.018,1.019,0.969,1.16,1.801,1.065c0.824-0.094,1.831-0.516,1.8-1.293
		C568.766,872.649,567.598,873.486,566.993,873.174z M579.143,888.127c0.592-0.391,1.303-0.619,1.585-1.099
		c0.569-0.969-0.389-0.977-0.92-0.966c-0.658,0.014-1.799-0.532-1.655,0.888C578.19,887.319,578.714,887.638,579.143,888.127z"/>
	<path d="M820.311,889.797c-2.1,0.721-3.468-0.566-4.412-2.17c-2.332-3.96-5.264-7.716-6.336-12.215
		c-1.023-4.292-3.535-7.766-5.246-11.664c-1.239-2.822-3.327-3.465-6.062-1.981c-3.024,1.641-6.207,1.927-9.621,1.519
		c-2.487-0.298-2.828-1.633-2.046-3.357c1.186-2.614,2.815-4.879,6.257-4.803c2.89,0.065,5.475-0.222,8.296-1.896
		c6.495-3.854,14.143-4.095,21.485-5.002c2.66-0.328,4.565,1.73,6.723,2.899c0.688,0.373,1,1.141,0.128,1.424
		c-3.671,1.191-1.213,2.958-0.441,4.449c1.811,3.499,4.146,6.732,5.468,10.477c1.092,3.094,0.389,3.918-2.842,3.564
		c-0.328-0.036-0.652-0.103-0.979-0.147c-2.15-0.287-4.132-3.235-5.927-1.675c-0.94,0.816,0.29,3.992,0.334,6.107
		c0.078,3.808,0.548,7.639-0.314,11.418C824.252,889.045,823.399,890.982,820.311,889.797z"/>
	<path d="M1100.123,1061.987c1.633-5.655,0.773-12.084,3.078-18.019c0.966-2.487,1.466-5.107,1.043-7.754
		c-0.639-3.998,1.145-7.769,0.921-11.749c-0.06-1.061,1.115-2.406,2.046-3.273c5.392-5.022,11.032-8.51,19.032-9.521
		c6.566-0.829,14.162-1.678,19.638-7.176c1.866-1.873,2.562-4.088,3.647-6.239c0.307-0.609,0.894-1.076,1.555-0.633
		c0.234,0.157,0.247,0.96,0.076,1.34c-0.538,1.199-1.372,2.284-1.776,3.517c-0.283,0.865-1.518,2.004-0.648,2.634
		c3.141,2.274,1.438,4.412,0.065,6.551c-1.327,2.069-0.307,3.416,1.197,4.692c2.009,1.704,4.041,3.382,6.03,5.109
		c0.608,0.528,1.404,1.164,0.898,2.075c-0.465,0.839-1.488,0.725-2.23,0.521c-3.63-1.002-7.726-1.351-10.745-3.326
		c-7.085-4.635-13.464-2.212-19.114,1.693c-5.393,3.728-8.636,9.347-9.75,16.294c-1.481,9.239-5.371,17.705-10.735,25.402
		c-0.646,0.927-1.537,2.516-3.174,1.806C1099.559,1065.229,1100.575,1063.581,1100.123,1061.987z M1142.777,1010.496
		c-0.252-0.341-0.449-0.899-0.806-1.033c-0.857-0.323-1.486,0.403-1.935,0.921c-0.614,0.708,0.335,0.661,0.637,0.737
		C1141.417,1011.307,1142.206,1011.411,1142.777,1010.496z"/>
	<path d="M200.227,797.185c7.984-8.241,21.441-8.207,29.156,0.773c1.497,1.742,2.219,3.774,1.272,5.331
		c-0.998,1.64-3.273,1.924-5.376,1.069c-6.16-2.504-12.652-3.688-19.194-4.619c-2.443-0.348-5.91,2.745-5.962,5.15
		c-0.025,1.146,0.856,1.062,1.563,1.445c3.61,1.956,4.453,4.621,3.422,8.209c-0.421,1.465-1.124,1.632-1.992,1.208
		c-1.708-0.833-2.956-0.342-4.409,0.623c-3.264,2.168-7.132,2.428-10.836,2.447c-2.545,0.013-4.472,1.374-6.75,1.793
		c-1.741,0.32-2.99,4.435-5.403,0.679c-0.294-0.457-1.592,0.911-2.071,1.681c-1.206,1.939-2.448,3.903-3.293,6.01
		c-2.24,5.589-4.645,11.13-6.013,17.031c-0.1-0.118-0.185-0.259-0.309-0.342c-0.049-0.032-0.272,0.095-0.269,0.103
		c0.107,0.332,0.34,0.369,0.679,0.116c-1.591,2.382-1.895,5.218-2.823,7.833c-0.325,0.915-0.562,2.502-2.264,2.051
		c-1.375-0.364-0.922-1.587-0.911-2.47c0.036-2.961,0.773-5.788,1.922-8.507c2.602-6.155,4.711-12.299,5.421-19.149
		c0.62-5.982,5.606-10.181,10.834-12.835c2.731-1.386,5.463-2.881,8.266-4.179c-0.119,0.122-0.237,0.244-0.356,0.366
		c0.117-0.1,0.233-0.201,0.35-0.301c5.04-3.517,9.848-7.323,14.335-11.529l-0.087-0.156c0.364,1.115,0.778,0.641,1.197,0.038
		L200.227,797.185z"/>
	<path d="M916.411,921.057c-3.416-0.642-5.929,0.961-8.638,2.87c-6.752,4.76-13.679,9.289-20.709,13.631
		c-3.996,2.468-8.604,3.372-13.3,3.59c-0.597,0.028-1.526,0.236-1.671-0.447c-0.183-0.858,0.886-0.84,1.415-1.056
		c6.017-2.45,11.468-5.946,17.151-9.023c3.878-2.1,6.611-5.541,10.337-7.734c2.002-1.179,3.82-2.866,5.969-3.564
		c7.866-2.555,10.55-8.863,12.348-16.008c0.604-2.4,1.09-4.971,2.33-7.046c6.348-10.62,9.011-22.71,13.897-33.898
		c0.824-1.887,0.454-5.606,3.652-4.938c2.734,0.571,1.696,3.889,1.971,6.059c0.406,3.207-0.542,6.248-1.491,9.271
		c-2.239,7.131-5.122,13.978-8.802,20.494c-0.977,1.729-1.74,3.582-2.569,5.392c-1.391,3.04-2.148,6.306-2.552,9.561
		c-0.537,4.328,4.695,3.872,6.23,6.699c0.371,0.684,2.134,1.21,0.381,1.715C927.06,918.155,922.455,922.242,916.411,921.057z"/>
	<path d="M470.286,975.838c2.058-8.939-0.064-18.162,1.885-27.129c0.833-3.829-0.441-4.783-4.026-3.438
		c-0.881,0.331-2.067,1.37-2.542,0.145c-0.5-1.289,1.256-1.078,1.97-1.601c2.211-1.617,2.844-4.352,4.436-6.423
		c0.716-0.932,1.292-2.383,2.513-2.049c5.556,1.519,9.25-3.036,13.991-4.129c1.033-0.238,1.974-1.147,3.201-1.068
		c0.781,0.05,1.914-0.307,2.182,0.568c0.332,1.083-0.741,1.281-1.574,1.317c-1.036,0.045-1.924,0.284-2.667,1.087
		c-0.883,0.954-1.776,1.779,0.399,2.157c0.641,0.111,1.315,0.312,1.86,0.655c2.613,1.645,2.289,2.644-0.204,4.472
		c-1.997,1.464-4.309,1.57-6.382,2.539c-1.405,0.657-3.893-0.59-4.479,1.241c-0.711,2.219-1.153,4.563-1.237,7.091
		c-0.327,9.799,0.841,19.831-2.801,29.27c-0.876,2.27-2.06,5.973-4.76,5.423c-2.075-0.423-1.799-4.167-1.764-6.633
		C470.299,978.167,470.286,977.003,470.286,975.838z"/>
	<path d="M192.94,916.083c0.334,2.696-1.715,2.694-2.856,3.247c-4.028,1.953-7.939,3.97-10.477,7.874
		c-0.446,0.686-1.071,1.288-1.375,2.026c-0.685,1.661-1.989,3.576-1.623,5.032c0.455,1.814,2.857,0.607,4.378,0.922
		c1.088,0.225,1.851,0.739,2.086,1.81c0.238,1.082-0.338,1.626-1.237,2.343c-3.225,2.574-6.06,5.641-10.12,7.047
		c-1.423,0.492-2.37,1.246-2.291,3.259c0.371,9.511-3.231,18.464-4.172,27.805c-0.098,0.97-0.376,1.596-1.427,1.545
		c-1.017-0.049-1.134-0.516-1.13-1.589c0.028-7.584-1.355-15.019-2.619-22.464c-0.125-0.738,0.304-2.041-0.894-1.715
		c-2.008,0.547-2.042-0.339-1.481-1.642c2.37-5.501,3.466-11.74,8.99-15.444c0.925-0.62,1.836-1.614,2.212-2.635
		c1.474-4.002,4.628-6.311,7.953-8.551c4.234-2.852,8.367-5.855,12.633-8.657C190.533,915.611,192.009,914.545,192.94,916.083z"/>
	<path d="M546.65,824.301c-7.779-0.613-14.023-4.771-20.145-9.014c-2.497-1.731-4.606-1.995-7.699-1.696
		c-5.507,0.534-11.544,2.704-16.586-1.958c-1.136-1.05-2.413-0.44-3.726-0.007c-5.066,1.67-9.692,4.185-14.284,6.847
		c-1.598,0.926-3.38,2.282-5.538,1.214c0.944-1.69,1.926-3.281,3.412-4.649c3.799-3.497,8.505-5.133,13.21-6.679
		c2.186-0.718,4.376-1.058,6.327-2.548c1.448-1.105,3.669-1.028,5.332-0.577c8.032,2.177,16.793,1.463,24.091,6.69
		c5.2,3.724,10.911,6.735,16.414,10.032c0.84,0.504,2.068,0.795,1.422,2.081C548.434,824.922,547.439,824.505,546.65,824.301z"/>
	<path d="M175.239,901.898c-1.688,0.871-1.176,3.301-2.925,4.13l0.046,0.136c-0.372-0.925-0.791-0.439-1.206-0.04l0.09-0.12
		c0.013,0.415,0.027,0.831,0.04,1.246l-0.139-0.049c-3.963,3.749-7.393,7.911-9.832,12.822c-0.339,0.682-1.398,1.339-0.765,2.133
		c0.684,0.857,1.464-0.114,2.117-0.427c0.964-0.462,1.791-2.043,2.923-0.891c0.778,0.792-0.479,1.72-0.858,2.578
		c-0.397,0.898-1.222,1.903-1.057,2.695c0.466,2.241-0.723,2.723-2.398,2.578c-1.98-0.171-4.032,0.9-5.905-0.121
		c-4.231-2.306-8.298-1.154-12.478,0.18c-5.536,1.767-11.14,3.323-16.719,4.957c-1.441,0.422-3.191,1.08-3.722-0.978
		c-0.396-1.532,1.033-2.298,2.365-2.714c8.147-2.548,15.872-6.573,24.632-6.982c3.652-0.171,5.993-1.466,7.271-5.519
		c1.673-5.303,4.522-10.087,10.028-12.855c2.549-1.282,4.459-3.835,6.658-5.812l-0.052,0.15c0.724-0.356,1.491-0.646,2.162-1.083
		c1.337-0.87,2.301-3.777,4.015-2.092c1.122,1.102-1.578,2.661-2.299,4.184c-0.383,0.808-1.353,1.338-2.058,1.994
		C175.174,901.996,175.239,901.898,175.239,901.898z"/>
	<path d="M347.729,926.058c4.019-0.067,7.884,1.006,11.557,2.32c2.045,0.732,3.063,0.526,4.104-1.077
		c3.57-5.492,8.813-8.863,14.636-11.454c4.092-1.82,7.372-4.936,11.343-6.936c0.921-0.464,1.729-2.193,2.864-0.766
		c1.277,1.606-0.8,2.023-1.477,2.92c-3.258,4.318-8.38,6.343-12.274,9.931c-2.175,2.004-3.9,4.457-6.34,6.18
		c-1.095,0.773-2.317,1.785-1.762,3.255c0.43,1.138,2.031,0.852,3.007,1.411c0.795,0.455,2.279-0.711,2.417,0.66
		c0.101,1.003-1.421,1.05-2.19,1.56c-5.542,3.671-11.481,3.586-17.515,1.878c-1.621-0.459-5.766-0.208-2.279-3.976
		c0.626-0.676,0.599-1.619-0.575-1.866c-2.821-0.592-5.408-2.734-8.529-1.385c-4.286,1.852-8.831,0.936-13.258,1.262
		c-0.516,0.038-1.416,0.25-1.375-0.692c0.013-0.311,0.699-0.798,1.119-0.847c1.311-0.152,2.662-0.004,3.961-0.207
		c2.941-0.459,6.308,1.146,8.761-2.082C344.402,925.519,346.421,926.058,347.729,926.058z"/>
	<path d="M492.766,918.29c-5.341-3.147-10.681,0.268-16.21,1.695c-6.925,1.787-13.841,3.61-20.766,5.4
		c-1.125,0.291-2.265,0.567-3.415,0.713c-1.108,0.141-2.63,0.538-2.969-0.928c-0.487-2.106,1.485-1.689,2.624-2.003
		c10.344-2.849,20.639-5.891,30.904-8.957c9.138-2.729,14.425-8.142,19.82-15.011c5.124-6.525,9.917-13.239,14.519-20.111
		c1.093-1.632,1.691-3.59,2.72-5.273c0.557-0.911,1.085-2.614,2.361-2.158c1.58,0.565,0.262,1.947,0.099,2.961
		c-0.996,6.23-5.218,10.638-8.825,15.361c-1.702,2.228-4.125,3.966-5.555,6.329c-3.255,5.382-6.827,10.669-8.137,17.001
		C499.137,917.172,497.398,918.517,492.766,918.29z"/>
	<path d="M251.199,866.95c3.608,0,7.215-0.058,10.751,0.859c4.282,1.11,7.717,0.259,10.223-3.782
		c5.423-8.742,15.193-11.371,23.355-16.253c0.384-0.229,0.929-0.674,1.294-0.073c0.406,0.669-0.16,1.226-0.514,1.734
		c-2.61,3.738-6.041,6.712-9.783,9.135c-2.986,1.934-5.177,4.474-7.389,7.075c-2.854,3.357-2.666,4.166,1.24,6.018
		c0.806,0.382,1.045,0.836,0.394,1.345c-1.296,1.014-2.651,2.545-4.09,2.677c-5.116,0.468-11.134,1.148-14.567-2.861
		c-3.174-3.707-6.457-2.386-9.81-2.848c-1.798-0.248-3.672-0.006-5.384-0.77c-0.568-0.253-1.281-0.549-1.191-1.394
		c0.098-0.922,0.882-0.826,1.487-0.847C248.542,866.917,249.871,866.95,251.199,866.95z"/>
	<path d="M1197.478,793.316c-7.082-2.885-14.161-0.318-21.241-0.204c-3.521,0.057-7.082,0.173-10.103-1.896
		c-1.518-1.04-2.357-0.109-3.529,0.356c-4.45,1.768-8.753,3.985-13.578,4.657c-0.853,0.119-1.924,1.401-2.507-0.018
		c-0.46-1.119,0.911-1.548,1.593-2.219c3.26-3.208,7.757-4.394,11.363-6.948c5.103-3.615,10.457-3.403,16.115-2.277
		c3.088,0.615,6.255,0.653,9.384,1.144c6.52,1.023,12.371,4.849,19.204,4.443c0.334-0.02,0.958,0.524,1.009,0.87
		c0.141,0.954-0.762,0.812-1.331,0.962C1201.768,792.735,1199.683,793.333,1197.478,793.316z"/>
	<path d="M789.401,1052.28c-2.472-1.49-5.44-0.794-7.998-2.243c-3.56-2.017-5.103-1.415-6.901,2.406
		c-1.728,3.673-2.536,7.762-5.241,11c-1.469,1.759-2.343,2.016-3.374-0.382c-2.495-5.809-0.618-11.073,1.762-16.308
		c0.122-0.268,0.467-0.533,0.758-0.61c4.423-1.173,8.91-2.042,13.307-3.415c1.863-0.582,4.708,0.444,7.05-0.665
		c1.78-0.842,3.543-0.108,5.334,0.051c2.466,0.218,2.329,1.39,1.269,2.921c-0.858,1.239-1.219,1.918-0.741,3.881
		C795.463,1052.349,791.486,1051.332,789.401,1052.28z"/>
	<path d="M843.168,937.887c6.595-5.061,12.812-10.791,18.036-17.024c6.997-8.349,17.118-9.643,25.66-14.379
		c0.143-0.079,0.302-0.152,0.461-0.174c1.141-0.162,2.908-0.771,3.279,0.07c0.577,1.305-1.436,1.4-2.103,2.216
		c-1.434,1.756-3.726,2.048-5.406,3.383c-0.982,0.78-1.883,1.4-1.17,2.802c-1.833-0.967-3.678-1.068-5.503-0.01
		c-0.206,0.12-0.272,0.482-0.403,0.731c1.798,0.749,3.235-0.816,4.925-0.767c0.32,0.009,0.641,0.004,0.961,0.006
		c0.409-0.716,0.948-0.658,1.544-0.26l0.124-0.096c-1.799,5.973-7.593,7.358-11.963,10.368c-0.332,0.229-1.218,0.287-1.334,0.102
		c-3.029-4.812-5.291-0.72-7.148,0.921c-5.506,4.867-11.895,8.291-18.149,11.965c-0.668,0.392-1.25,0.25-1.876,0.01L843.168,937.887
		z"/>
	<path d="M1419.218,975.754c-0.376,1.389,0.928,2.629,0.899,4.112c-0.021,1.062,0.647,2.513-0.815,3.03
		c-1.257,0.445-2.67,0.411-3.543-0.956c-1.957-3.065-3.673-6.298-4.391-9.857c-0.685-3.392,3.074-7.605,6.702-7.92
		c1.293-0.112,2.963,0.37,3.623-1.019c1.51-3.177,4.212-1.926,6.463-1.86c1.611,0.047,4.44,0.216,1.498,2.953
		c-0.503,0.468-0.708,1.233-0.04,1.717c3.391,2.461,0.625,2.812-1.166,3.594c-1.569,0.685-4.752-0.615-3.941,3.103
		c-0.806,0.105-1.794,0.564-2.387,0.257C1418.532,971.054,1419.286,973.708,1419.218,975.754z"/>
	<path d="M431.327,949.777c-0.579-3.347,1.071-4.296,4.098-4.816c2.885-0.496,7.191,0.289,7.076-4.959
		c-0.021-0.978,1.257-0.986,2.021-0.741c1.87,0.599,3.706,1.311,5.523,2.055c0.399,0.163,1.006,0.853,0.941,0.964
		c-2.093,3.583,0.082,4.068,2.942,4.487c0.468,0.069,0.231,1.819-0.999,2.22c-3.314,1.08-6.786,0.699-10.172,0.95
		c-4.999,0.371-5.028,0.15-5.553,5.357c-0.247,2.45-0.35,6.199-2.635,6.269c-2.066,0.063-2.265-3.747-2.237-6.091
		C432.357,953.43,430.599,951.797,431.327,949.777z"/>
	<path d="M1384.402,748.834c-6.295-0.241-12.248-2.754-18.533-3.36c-1.155-0.111-3.829-1.696-1.954,1.986
		c1.036,2.033-0.89,3.003-2.863,2.133c-1.969-0.869-4.326-1.896-4.986-3.93c-1.186-3.656-4.216-4.471-7.104-5.493
		c-4.381-1.551-8.87-2.794-13.306-4.189c-2.076-0.653-4.198-1.291-4.961-3.694c-0.134-0.423-0.242-1.056-0.028-1.347
		c0.416-0.567,0.759,0.156,1.143,0.301c8.658,3.286,17.151,7.145,26.019,9.702c8.735,2.519,17.851,3.713,26.797,5.503
		c1.472,0.294,4.171-0.912,4.082,1.299C1388.623,749.85,1385.969,748.475,1384.402,748.834z"/>
	<path d="M1171.06,984.887c-0.018,0.809-0.66,1.006-1.217,1.365c-5.476,3.528-12.106,4.973-17.063,9.445
		c-0.167,0.151-0.652,0.119-0.889-0.011c-0.511-0.28-0.461-0.779-0.279-1.267c1.443-3.882,12.733-11.348,17.106-11.257
		C1169.833,983.185,1171.193,983.085,1171.06,984.887z"/>
	<path d="M333.881,920.938c2.465,1.331,5.196,2.698,7.796,4.282c0.692,0.421,0.731,1.469-0.472,1.742
		c-1.789,0.406-7.899-2.102-8.75-3.648c-0.282-0.512-0.369-1.223-0.278-1.801C332.21,921.301,333.019,921.212,333.881,920.938z"/>
	<path d="M861.18,353.311c0.097,0.051,0.193,0.102,0.29,0.153c-0.055-0.421-0.118-0.424-0.188-0.009L861.18,353.311z"/>
	<polygon points="175.174,901.996 175.338,902.156 175.239,901.898 	"/>
	<polygon points="843.105,937.752 843.084,938.099 843.168,937.887 	"/>
	<polygon points="173.405,898.843 173.286,899.087 173.353,898.993 	"/>
	<path d="M883.45,914.481c0.041-0.032,0.083-0.064,0.124-0.096L883.45,914.481z"/>
	<path d="M172.314,906.028c-0.389,0.39-0.779,0.781-1.168,1.172c0,0.001,0.139,0.05,0.139,0.05c-0.013-0.415-0.027-0.831-0.04-1.246
		c0,0-0.09,0.12-0.09,0.12c0.402,0.013,0.804,0.026,1.206,0.04C172.361,906.164,172.314,906.028,172.314,906.028z"/>
	<path d="M199.216,797.172c0.342-0.47,0.687-1.14,1.011,0.012c0.001,0,0.099-0.13,0.099-0.13c-0.399-0.013-0.798-0.025-1.197-0.038
		L199.216,797.172z"/>
</g>
</svg>
