<?xml version="1.0" encoding="UTF-8" standalone="no"?>
<!-- Created with Inkscape (http://www.inkscape.org/) -->

<svg
   version="1.1"
   id="svg1"
   width="880"
   height="880"
   viewBox="0 0 880 880"
   sodipodi:docname="pigeon-in-nest.svg"
   inkscape:version="1.3.2 (091e20e, 2023-11-25, custom)"
   xmlns:inkscape="http://www.inkscape.org/namespaces/inkscape"
   xmlns:sodipodi="http://sodipodi.sourceforge.net/DTD/sodipodi-0.dtd"
   xmlns="http://www.w3.org/2000/svg"
   xmlns:svg="http://www.w3.org/2000/svg">
  <defs
     id="defs1">
    <clipPath
       clipPathUnits="userSpaceOnUse"
       id="clipPath3">
      <path
         d="M 0,660 H 660 V 0 H 0 Z"
         transform="translate(-201.9067,-506.31982)"
         id="path3" />
    </clipPath>
    <clipPath
       clipPathUnits="userSpaceOnUse"
       id="clipPath5">
      <path
         d="M 0,660 H 660 V 0 H 0 Z"
         transform="translate(-107.16801,-487.70701)"
         id="path5" />
    </clipPath>
    <clipPath
       clipPathUnits="userSpaceOnUse"
       id="clipPath7">
      <path
         d="M 0,660 H 660 V 0 H 0 Z"
         transform="translate(-324.41851,-297.05371)"
         id="path7" />
    </clipPath>
    <clipPath
       clipPathUnits="userSpaceOnUse"
       id="clipPath9">
      <path
         d="M 0,660 H 660 V 0 H 0 Z"
         transform="translate(-413.81351,-434.91801)"
         id="path9" />
    </clipPath>
    <clipPath
       clipPathUnits="userSpaceOnUse"
       id="clipPath11">
      <path
         d="M 0,660 H 660 V 0 H 0 Z"
         transform="translate(-169.33791,-499.61131)"
         id="path11" />
    </clipPath>
    <clipPath
       clipPathUnits="userSpaceOnUse"
       id="clipPath13">
      <path
         d="M 0,660 H 660 V 0 H 0 Z"
         transform="translate(-329.39651,-507.54832)"
         id="path13" />
    </clipPath>
    <clipPath
       clipPathUnits="userSpaceOnUse"
       id="clipPath15">
      <path
         d="M 0,660 H 660 V 0 H 0 Z"
         transform="translate(-293.4106,-505.76321)"
         id="path15" />
    </clipPath>
    <clipPath
       clipPathUnits="userSpaceOnUse"
       id="clipPath17">
      <path
         d="M 0,660 H 660 V 0 H 0 Z"
         transform="translate(-93.374005,-540.97171)"
         id="path17" />
    </clipPath>
    <clipPath
       clipPathUnits="userSpaceOnUse"
       id="clipPath19">
      <path
         d="M 0,660 H 660 V 0 H 0 Z"
         transform="translate(-127.7979,-556.79831)"
         id="path19" />
    </clipPath>
    <clipPath
       clipPathUnits="userSpaceOnUse"
       id="clipPath21">
      <path
         d="M 0,660 H 660 V 0 H 0 Z"
         transform="translate(-128.25441,-553.39501)"
         id="path21" />
    </clipPath>
    <clipPath
       clipPathUnits="userSpaceOnUse"
       id="clipPath23">
      <path
         d="M 0,660 H 660 V 0 H 0 Z"
         transform="translate(-130.76661,-549.73931)"
         id="path23" />
    </clipPath>
    <clipPath
       clipPathUnits="userSpaceOnUse"
       id="clipPath25">
      <path
         d="M 0,660 H 660 V 0 H 0 Z"
         transform="translate(-501.38281,-200.23831)"
         id="path25" />
    </clipPath>
    <clipPath
       clipPathUnits="userSpaceOnUse"
       id="clipPath27">
      <path
         d="M 0,660 H 660 V 0 H 0 Z"
         transform="translate(-425.80761,-249.71001)"
         id="path27" />
    </clipPath>
    <clipPath
       clipPathUnits="userSpaceOnUse"
       id="clipPath29">
      <path
         d="M 0,660 H 660 V 0 H 0 Z"
         transform="translate(-165.1396,-246.54591)"
         id="path29" />
    </clipPath>
    <clipPath
       clipPathUnits="userSpaceOnUse"
       id="clipPath31">
      <path
         d="M 0,660 H 660 V 0 H 0 Z"
         transform="translate(-501.38281,-200.23831)"
         id="path31" />
    </clipPath>
    <clipPath
       clipPathUnits="userSpaceOnUse"
       id="clipPath33">
      <path
         d="M 0,660 H 660 V 0 H 0 Z"
         transform="translate(-248.98971,-177.0273)"
         id="path33" />
    </clipPath>
    <clipPath
       clipPathUnits="userSpaceOnUse"
       id="clipPath35">
      <path
         d="M 0,660 H 660 V 0 H 0 Z"
         transform="translate(-45.665501,-224.41891)"
         id="path35" />
    </clipPath>
    <clipPath
       clipPathUnits="userSpaceOnUse"
       id="clipPath37">
      <path
         d="M 0,660 H 660 V 0 H 0 Z"
         transform="translate(-82.0063,-342.51371)"
         id="path37" />
    </clipPath>
    <clipPath
       clipPathUnits="userSpaceOnUse"
       id="clipPath39">
      <path
         d="M 0,660 H 660 V 0 H 0 Z"
         transform="translate(-161.33541,-157.30371)"
         id="path39" />
    </clipPath>
    <clipPath
       clipPathUnits="userSpaceOnUse"
       id="clipPath41">
      <path
         d="M 0,660 H 660 V 0 H 0 Z"
         transform="translate(-479.17091,-230.72851)"
         id="path41" />
    </clipPath>
    <clipPath
       clipPathUnits="userSpaceOnUse"
       id="clipPath43">
      <path
         d="M 0,660 H 660 V 0 H 0 Z"
         transform="translate(-417.54881,-315.44921)"
         id="path43" />
    </clipPath>
    <clipPath
       clipPathUnits="userSpaceOnUse"
       id="clipPath45">
      <path
         d="M 0,660 H 660 V 0 H 0 Z"
         transform="translate(-438.60061,-253.33401)"
         id="path45" />
    </clipPath>
    <clipPath
       clipPathUnits="userSpaceOnUse"
       id="clipPath47">
      <path
         d="M 0,660 H 660 V 0 H 0 Z"
         transform="translate(-499.30081,-284.2324)"
         id="path47" />
    </clipPath>
    <clipPath
       clipPathUnits="userSpaceOnUse"
       id="clipPath49">
      <path
         d="M 0,660 H 660 V 0 H 0 Z"
         transform="translate(-383.66601,-190.3018)"
         id="path49" />
    </clipPath>
    <clipPath
       clipPathUnits="userSpaceOnUse"
       id="clipPath51">
      <path
         d="M 0,660 H 660 V 0 H 0 Z"
         transform="translate(-158.21001,-229.18461)"
         id="path51" />
    </clipPath>
  </defs>
  <sodipodi:namedview
     id="namedview1"
     pagecolor="#ffffff"
     bordercolor="#000000"
     borderopacity="0.25"
     inkscape:showpageshadow="2"
     inkscape:pageopacity="0.0"
     inkscape:pagecheckerboard="0"
     inkscape:deskcolor="#d1d1d1"
     inkscape:zoom="0.69318182"
     inkscape:cx="439.27869"
     inkscape:cy="440"
     inkscape:window-width="1440"
     inkscape:window-height="830"
     inkscape:window-x="-6"
     inkscape:window-y="-6"
     inkscape:window-maximized="1"
     inkscape:current-layer="g1">
    <inkscape:page
       x="0"
       y="0"
       inkscape:label="1"
       id="page1"
       width="880"
       height="880"
       margin="193.68401 22.157333 104.59333 42.827599"
       bleed="0" />
  </sodipodi:namedview>
  <g
     id="g1"
     inkscape:groupmode="layer"
     inkscape:label="1">
    <g
       id="group-MC0">
      <path
         id="path2"
         d="m 0,0 211.907,-71.402 186.506,59.629 43.062,-90.452 -207.246,-11.522 -11.321,-19.093 c -42.567,-71.782 -131.355,-101.452 -208.523,-69.683 -62.93,25.904 -102.579,86.267 -104.056,151.557 -0.489,21.581 -5.813,39.975 -16.935,58.477 -3.051,5.074 -5.137,10.841 -5.974,17.085 -3.275,24.47 13.907,46.963 38.378,50.239 24.472,3.276 46.963,-13.906 50.238,-38.377 0.21,-1.558 0.335,-3.108 0.382,-4.646 C -23.14,17.041 -14.006,4.719 0,0"
         style="fill:#c69e77;fill-opacity:1;fill-rule:evenodd;stroke:none"
         transform="matrix(1.3333333,0,0,-1.3333333,269.20893,204.90693)"
         clip-path="url(#clipPath3)" />
      <path
         id="path4"
         d="m 0,0 c -2.191,7.059 -5.109,13.926 -8.806,20.763 5.719,2.083 10.626,6.346 13.395,12.236 l 3.644,7.752 c 2.53,6.851 8.293,12.003 15.555,12.974 10.823,1.45 20.877,-6.939 22.457,-18.735 0.457,-3.414 0.153,-6.74 -0.771,-9.778 h 0.001 C 42.258,14.256 33.57,6.341 23.03,1.95 15.668,-1.12 7.611,-1.75 0,0"
         style="fill:#e1b58e;fill-opacity:1;fill-rule:evenodd;stroke:none"
         transform="matrix(1.3333333,0,0,-1.3333333,142.89067,229.724)"
         clip-path="url(#clipPath5)" />
      <path
         id="path6"
         d="m 0,0 c -34.756,-9.471 -72.668,-7.855 -108.127,6.743 -54.551,22.456 -91.603,70.807 -101.468,125.816 l 14.126,4.641 c 38.16,12.54 79.768,-4.588 98.041,-40.36 C -75.847,54.589 -41.51,20.893 0,0"
         style="fill:#e1b58e;fill-opacity:1;fill-rule:evenodd;stroke:none"
         transform="matrix(1.3333333,0,0,-1.3333333,432.558,483.9284)"
         clip-path="url(#clipPath7)" />
      <path
         id="path8"
         d="M 0,0 31.667,-11.952 204.264,22.325 186.506,59.629 Z"
         style="fill:#e1b58e;fill-opacity:1;fill-rule:evenodd;stroke:none"
         transform="matrix(1.3333333,0,0,-1.3333333,551.75133,300.10933)"
         clip-path="url(#clipPath9)" />
      <path
         id="path10"
         d="M 0,0 278.207,13.796 275.994,0.562 c -9.144,-54.639 -48.005,-99.614 -100.74,-116.584 -1.534,-0.494 -3.072,-0.961 -4.614,-1.403 -68.016,-19.478 -139.307,18.748 -160.72,86.181 z"
         style="fill:#7c6049;fill-opacity:1;fill-rule:evenodd;stroke:none"
         transform="matrix(1.3333333,0,0,-1.3333333,225.78387,213.8516)"
         clip-path="url(#clipPath11)" />
      <path
         id="path12"
         d="m 0,0 45.421,2.252 c 8.883,-18.65 12.383,-40.097 8.82,-62.03 -4.135,-25.468 -17.094,-47.299 -35.24,-62.894 -1.262,-0.444 -2.527,-0.876 -3.806,-1.287 -1.534,-0.495 -3.072,-0.961 -4.614,-1.403 -17.679,-5.064 -35.577,-6.22 -52.766,-3.984 C -17.118,-113.872 1.348,-88.02 6.44,-56.66 9.667,-36.803 7.103,-17.345 0,0"
         style="fill:#e1b58e;fill-opacity:1;fill-rule:evenodd;stroke:none"
         transform="matrix(1.3333333,0,0,-1.3333333,439.19533,203.26893)"
         clip-path="url(#clipPath13)" />
      <path
         id="path14"
         d="m 0,0 35.986,1.785 c 7.104,-17.345 9.667,-36.805 6.44,-56.659 -5.093,-31.362 -23.562,-57.212 -48.629,-72.687 -7.051,0.917 -13.978,2.403 -20.723,4.429 18.024,15.579 30.884,37.333 35.003,62.69 C 11.541,-39.129 8.334,-18.275 0,0"
         style="fill:#493527;fill-opacity:1;fill-rule:evenodd;stroke:none"
         transform="matrix(1.3333333,0,0,-1.3333333,391.21413,205.64907)"
         clip-path="url(#clipPath15)" />
      <path
         id="path16"
         d="m 0,0 -24.497,-11.373 4.633,-3.082 1.801,-2.65 29.585,1.878 3.238,8.644 z"
         style="fill:#d64520;fill-opacity:1;fill-rule:evenodd;stroke:none"
         transform="matrix(1.3333333,0,0,-1.3333333,124.49867,158.7044)"
         clip-path="url(#clipPath17)" />
      <path
         id="path18"
         d="m 0,0 c 5.932,0.794 11.384,-3.371 12.178,-9.302 0.795,-5.932 -3.371,-11.384 -9.303,-12.178 -5.93,-0.794 -11.382,3.37 -12.176,9.302 C -10.096,-6.246 -5.931,-0.795 0,0"
         style="fill:#e1b58e;fill-opacity:1;fill-rule:evenodd;stroke:none"
         transform="matrix(1.3333333,0,0,-1.3333333,170.3972,137.60227)"
         clip-path="url(#clipPath19)" />
      <path
         id="path20"
         d="m 0,0 c 4.052,0.541 7.776,-2.303 8.318,-6.355 0.542,-4.052 -2.301,-7.776 -6.354,-8.318 -4.052,-0.543 -7.776,2.301 -8.318,6.353 C -6.897,-4.267 -4.052,-0.543 0,0"
         style="fill:#3c281c;fill-opacity:1;fill-rule:evenodd;stroke:none"
         transform="matrix(1.3333333,0,0,-1.3333333,171.00587,142.14)"
         clip-path="url(#clipPath21)" />
      <path
         id="path22"
         d="M 0,0 C 1.102,0.147 2.115,-0.626 2.263,-1.727 2.41,-2.831 1.636,-3.842 0.534,-3.99 -0.567,-4.137 -1.58,-3.364 -1.728,-2.262 -1.874,-1.159 -1.101,-0.147 0,0"
         style="fill:#f4f0ec;fill-opacity:1;fill-rule:evenodd;stroke:none"
         transform="matrix(1.3333333,0,0,-1.3333333,174.35547,147.01427)"
         clip-path="url(#clipPath23)" />
      <path
         id="path24"
         d="m 0,0 c -49.728,-33.596 -124.601,-54.976 -208.341,-54.976 -83.74,0 -158.609,21.38 -208.337,54.976 -35.203,23.786 -45.76,70.715 -24.137,107.286 21.634,36.587 67.881,49.944 105.69,30.522 33.449,-17.183 77.945,-27.661 126.784,-27.661 48.844,0 93.338,10.478 126.785,27.661 37.809,19.421 84.06,6.065 105.693,-30.522 C 45.759,70.717 35.202,23.784 0,0"
         style="fill:#67503e;fill-opacity:1;fill-rule:evenodd;stroke:none"
         transform="matrix(1.3333333,0,0,-1.3333333,668.5104,613.0156)"
         clip-path="url(#clipPath25)" />
      <path
         id="path26"
         d="m 0,0 c -31.689,-16.481 -79.402,-26.967 -132.766,-26.967 -53.36,0 -101.073,10.486 -132.762,26.967 -22.433,11.669 -29.16,34.69 -15.382,52.63 13.787,17.948 43.258,24.499 67.352,14.972 21.314,-8.43 49.669,-13.568 80.792,-13.568 31.126,0 59.481,5.138 80.795,13.568 C -27.877,77.128 1.594,70.575 15.381,52.63 29.16,34.69 22.433,11.669 0,0"
         style="fill:#7c6049;fill-opacity:1;fill-rule:evenodd;stroke:none"
         transform="matrix(1.3333333,0,0,-1.3333333,567.74347,547.05333)"
         clip-path="url(#clipPath27)" />
      <path
         id="path28"
         d="m 0,0 c -1.182,0.504 -1.732,1.87 -1.229,3.053 0.503,1.18 1.87,1.73 3.051,1.226 L 17.778,-2.56 c 13.043,-5.588 26.955,-8.383 40.872,-8.383 13.919,0 27.828,2.795 40.872,8.383 1.183,0.506 2.549,-0.046 3.05,-1.227 0.504,-1.182 -0.047,-2.546 -1.229,-3.052 -13.637,-5.843 -28.171,-8.766 -42.693,-8.766 -14.524,0 -29.057,2.923 -42.694,8.766 z m 181.437,32.452 27.965,11.687 c 12.127,5.067 22.997,12.469 32.006,22.027 8.677,9.203 15.623,20.408 20.297,33.448 0.432,1.207 -0.198,2.535 -1.403,2.968 -1.206,0.433 -2.537,-0.194 -2.969,-1.401 C 252.885,88.771 246.276,78.108 238.02,69.353 229.472,60.284 219.146,53.254 207.615,48.435 L 179.65,36.751 c -1.186,-0.495 -1.749,-1.856 -1.254,-3.044 0.493,-1.186 1.854,-1.747 3.041,-1.255 m -67.988,14.97 c -1.281,0.023 -2.303,1.086 -2.277,2.366 0.023,1.283 1.086,2.303 2.367,2.277 l 32.835,-0.678 c 14.884,-0.307 29.232,3.577 41.311,10.936 11.779,7.175 21.4,17.662 27.255,30.792 0.524,1.17 1.899,1.696 3.07,1.174 1.172,-0.523 1.696,-1.898 1.174,-3.067 C 212.93,77.196 202.663,66.005 190.107,58.354 177.284,50.538 162.064,46.417 146.282,46.743 Z m 44.703,-61.08 h 17.129 c 16.038,0 31.947,2.114 47.533,6.288 15.563,4.168 30.807,10.401 45.549,18.643 1.12,0.623 1.526,2.04 0.903,3.162 -0.624,1.123 -2.039,1.525 -3.162,0.901 C 251.715,7.29 236.824,1.204 221.612,-2.872 206.431,-6.937 190.928,-8.996 175.281,-8.996 h -17.129 c -1.287,0 -2.33,-1.042 -2.33,-2.332 0,-1.285 1.043,-2.33 2.33,-2.33 m 121.75,76.439 c -1.289,0 -2.332,1.046 -2.332,2.333 0,1.287 1.043,2.332 2.332,2.332 h 11.513 c 9.605,0 18.838,2.558 26.861,7.191 8.037,4.639 14.873,11.359 19.671,19.671 0.646,1.112 2.07,1.489 3.179,0.846 1.111,-0.642 1.491,-2.067 0.849,-3.178 -5.213,-9.031 -12.639,-16.326 -21.367,-21.364 -8.736,-5.046 -18.77,-7.831 -29.193,-7.831 z m -377.803,21.942 10.858,-12.5 c 9.498,-10.939 21.839,-18.444 35.193,-22.034 13.218,-3.551 27.442,-3.27 40.903,1.311 14.551,-4.517 29.616,-6.774 44.675,-6.774 10.85,0 21.706,1.17 32.368,3.516 3.725,-2.613 7.633,-4.995 11.725,-7.124 14.383,-7.49 30.978,-11.861 49.432,-12.337 1.284,-0.029 2.348,0.985 2.378,2.266 0.03,1.281 -0.985,2.348 -2.268,2.378 -17.692,0.456 -33.602,4.647 -47.394,11.827 -2.657,1.384 -5.233,2.879 -7.73,4.479 7.779,2.056 15.434,4.745 22.888,8.068 1.174,0.523 1.699,1.898 1.176,3.07 -0.523,1.172 -1.898,1.698 -3.069,1.176 C 84.761,58.267 76.013,55.334 67.111,53.248 58.209,59.771 50.464,67.721 44,76.819 L 31.44,94.49 c -0.743,1.045 -2.195,1.29 -3.241,0.546 -1.046,-0.743 -1.29,-2.195 -0.547,-3.241 L 40.211,74.123 C 46.167,65.742 53.163,58.292 61.11,51.972 52.066,50.249 42.899,49.386 33.728,49.386 c -20.297,0 -40.584,4.219 -59.508,12.659 l -4.932,2.199 c -1.173,0.523 -2.547,-0.004 -3.07,-1.176 -0.523,-1.169 0.003,-2.545 1.175,-3.067 l 4.934,-2.202 c 2.975,-1.325 5.982,-2.551 9.017,-3.675 -10.667,-2.487 -21.655,-2.213 -31.991,0.565 -12.485,3.355 -24.015,10.363 -32.882,20.576 l -10.856,12.502 c -0.84,0.97 -2.308,1.075 -3.278,0.237 -0.971,-0.84 -1.076,-2.309 -0.238,-3.281 m 22.502,13.689 13.585,-8.231 c 12.452,-7.542 25.835,-13.233 39.727,-16.953 13.894,-3.723 28.325,-5.488 42.876,-5.182 1.281,0.026 2.301,1.086 2.276,2.369 -0.025,1.281 -1.086,2.301 -2.368,2.275 -14.086,-0.296 -28.083,1.42 -41.581,5.036 -13.501,3.618 -26.48,9.13 -38.525,16.426 l -13.585,8.229 c -1.096,0.664 -2.524,0.315 -3.188,-0.782 -0.664,-1.094 -0.313,-2.523 0.783,-3.187 M 84.077,17.245 106.511,9.825 C 102.885,8.409 99.21,7.199 95.5,6.199 80.631,2.188 65.209,1.531 50.04,4.427 L 29.983,8.257 C 28.722,8.497 27.502,7.671 27.261,6.406 27.021,5.145 27.848,3.927 29.11,3.684 l 20.057,-3.83 c 15.871,-3.03 32,-2.349 47.537,1.844 5.612,1.517 11.148,3.491 16.569,5.914 16.596,-5.202 33.793,-7.802 50.986,-7.802 18.073,0 36.151,2.874 53.532,8.624 1.224,0.402 1.888,1.716 1.485,2.94 -0.403,1.223 -1.72,1.887 -2.943,1.484 -16.904,-5.589 -34.489,-8.385 -52.074,-8.385 -15.059,0 -30.119,2.049 -44.753,6.151 7.3,3.793 14.351,8.427 21.049,13.869 0.996,0.809 1.148,2.275 0.338,3.269 -0.81,0.998 -2.275,1.147 -3.268,0.338 -7.782,-6.324 -16.054,-11.504 -24.639,-15.503 l -27.45,9.076 c -1.224,0.402 -2.54,-0.265 -2.943,-1.484 -0.403,-1.224 0.261,-2.542 1.484,-2.944 M 83.85,-69.519 c -1.172,0.53 -1.694,1.909 -1.165,3.08 0.526,1.168 1.906,1.692 3.078,1.166 l 10.199,-4.608 c 2.528,-1.142 5.09,-2.175 7.682,-3.099 0.657,0.265 1.313,0.535 1.966,0.815 1.182,0.504 2.549,-0.049 3.05,-1.23 0.177,-0.417 0.222,-0.858 0.158,-1.273 9.442,-2.811 19.198,-4.214 28.956,-4.214 14.266,0 28.529,3.001 41.813,9.001 1.171,0.529 2.551,0.006 3.079,-1.166 0.527,-1.171 0.005,-2.55 -1.167,-3.078 -13.903,-6.28 -28.817,-9.419 -43.725,-9.419 -11.5,0 -23.001,1.867 -34.041,5.605 -11.502,-4.387 -23.604,-6.582 -35.701,-6.582 -13.398,0 -26.808,2.692 -39.396,8.075 L 4.607,-66.17 c -1.181,0.504 -1.733,1.87 -1.229,3.051 0.503,1.182 1.87,1.732 3.051,1.229 l 24.029,-10.275 c 11.991,-5.128 24.781,-7.69 37.574,-7.69 9.759,0 19.515,1.49 28.916,4.473 -0.97,0.404 -1.937,0.822 -2.9,1.257 z m 240.844,45.836 -24.344,-15.772 c -13.769,-8.919 -29.525,-13.381 -45.288,-13.381 -8.382,0 -16.759,1.261 -24.838,3.782 2.835,2.237 5.539,4.679 8.083,7.32 0.891,0.924 0.861,2.396 -0.062,3.285 -0.926,0.891 -2.399,0.863 -3.289,-0.062 -3.102,-3.218 -6.452,-6.121 -10.004,-8.701 -5.248,2.033 -10.337,4.618 -15.178,7.757 -1.077,0.698 -2.516,0.391 -3.214,-0.686 -0.699,-1.075 -0.395,-2.514 0.683,-3.213 4.195,-2.72 8.564,-5.044 13.055,-6.978 -6.418,-3.97 -13.372,-6.944 -20.616,-8.855 -13.173,-3.474 -27.298,-3.421 -40.872,0.6 l -19.065,5.65 c -1.231,0.363 -2.525,-0.342 -2.888,-1.577 -0.361,-1.23 0.343,-2.522 1.577,-2.886 l 19.063,-5.648 c 14.399,-4.269 29.392,-4.323 43.369,-0.638 8.782,2.316 17.166,6.111 24.754,11.263 9.519,-3.384 19.482,-5.076 29.442,-5.076 16.625,0 33.265,4.717 47.819,14.145 l 24.345,15.773 c 1.078,0.698 1.381,2.138 0.683,3.213 -0.698,1.077 -2.138,1.384 -3.215,0.685 M 357.677,85.708 341.885,72.219 c -9.975,-8.519 -21.417,-14.853 -33.603,-18.8 0.116,0.54 0.039,1.122 -0.257,1.639 -0.638,1.112 -2.058,1.495 -3.171,0.857 -3.818,-2.205 -7.719,-4.244 -11.697,-6.109 -10.897,-1.709 -22.124,-1.598 -33.22,0.459 -1.261,0.23 -2.473,-0.605 -2.705,-1.869 -0.231,-1.261 0.604,-2.474 1.867,-2.705 6.607,-1.225 13.255,-1.791 19.857,-1.723 -3.902,-1.385 -7.859,-2.614 -11.86,-3.687 -13.15,-3.523 -26.769,-5.331 -40.516,-5.331 h -18.071 c -1.287,0 -2.333,-1.046 -2.333,-2.331 0,-1.289 1.046,-2.332 2.333,-2.332 h 18.071 c 14.14,0 28.163,1.863 41.72,5.494 8.971,2.405 17.739,5.59 26.204,9.525 3.401,0.554 6.772,1.279 10.099,2.17 14.664,3.927 28.467,11.098 40.306,21.209 l 15.792,13.49 c 0.974,0.835 1.09,2.304 0.254,3.279 -0.834,0.974 -2.303,1.09 -3.278,0.254 m -56.54,-89.694 c -2.277,-1.688 -4.611,-3.273 -7.003,-4.755 3.666,0.235 7.297,0.626 10.882,1.172 -1.319,1.159 -2.615,2.352 -3.879,3.583 m 15.488,18.038 c 1.012,0.794 2.477,0.619 3.269,-0.393 0.794,-1.011 0.619,-2.476 -0.392,-3.267 l -14.64,-11.503 c 1.97,-1.891 4.014,-3.693 6.123,-5.398 2.274,0.461 4.529,0.986 6.76,1.572 14.442,3.8 27.98,10.208 40.077,19.034 l 27.966,20.398 c 1.035,0.754 2.488,0.524 3.242,-0.512 0.754,-1.034 0.525,-2.486 -0.51,-3.24 L 360.556,10.344 C 347.975,1.167 333.912,-5.494 318.93,-9.435 c -1.022,-0.27 -2.045,-0.524 -3.076,-0.768 2.19,-1.553 4.44,-3.014 6.743,-4.372 14.639,-8.645 31.475,-13.337 48.983,-13.337 h 15.573 c 1.287,0 2.33,-1.045 2.33,-2.331 0,-1.287 -1.043,-2.332 -2.33,-2.332 H 371.58 c -18.344,0 -35.99,4.922 -51.351,13.989 -3.622,2.141 -7.115,4.512 -10.46,7.102 -7.981,-1.479 -16.18,-2.209 -24.521,-2.166 -5.884,-2.874 -12.02,-5.171 -18.316,-6.858 -13.121,-3.513 -26.953,-4.4 -40.68,-2.433 -1.273,0.181 -2.157,1.362 -1.977,2.632 0.182,1.273 1.36,2.157 2.632,1.977 13.098,-1.876 26.296,-1.032 38.822,2.323 2.993,0.805 5.948,1.749 8.856,2.834 -0.83,0.071 -1.659,0.147 -2.49,0.232 -1.279,0.124 -2.212,1.263 -2.086,2.54 0.126,1.277 1.263,2.21 2.541,2.087 3.898,-0.397 7.772,-0.62 11.615,-0.673 4.755,2.39 9.33,5.18 13.679,8.358 -5.332,5.685 -10.083,12.055 -14.131,19.045 -8.011,-0.854 -16.088,-1.287 -24.195,-1.287 h -14.827 c -1.286,0 -2.331,1.043 -2.331,2.332 0,1.285 1.045,2.331 2.331,2.331 h 14.827 c 19.684,0 39.188,2.596 57.904,7.65 18.633,5.038 36.494,12.518 52.976,22.306 1.105,0.655 2.534,0.287 3.187,-0.817 0.652,-1.108 0.287,-2.536 -0.82,-3.188 -16.846,-10.007 -35.1,-17.651 -54.141,-22.799 -9.771,-2.641 -19.751,-4.622 -29.854,-5.93 3.72,-6.139 8.015,-11.753 12.79,-16.797 z M -12.692,-6.528 c -1.01,0.79 -1.19,2.251 -0.4,3.259 0.789,1.011 2.25,1.191 3.261,0.402 l 26.318,-20.537 c 17.797,-13.889 39.19,-20.833 60.586,-20.833 12.939,0 25.876,2.541 38.016,7.619 -4.17,1.212 -8.301,2.616 -12.377,4.207 l -12.832,5.008 c -1.196,0.468 -1.787,1.818 -1.32,3.013 0.467,1.198 1.816,1.791 3.014,1.322 l 12.832,-5.01 c 5.659,-2.208 11.427,-4.042 17.268,-5.496 5.565,2.828 10.92,6.216 15.985,10.17 1.011,0.788 2.472,0.608 3.262,-0.401 0.788,-1.01 0.608,-2.471 -0.401,-3.262 -3.833,-2.991 -7.822,-5.671 -11.938,-8.047 9.06,-1.784 18.255,-2.677 27.452,-2.677 17.521,0 35.037,3.238 51.628,9.713 1.195,0.47 2.547,-0.122 3.015,-1.318 0.467,-1.197 -0.125,-2.548 -1.323,-3.015 -17.15,-6.693 -35.24,-10.043 -53.32,-10.043 -11.347,0 -22.7,1.318 -33.821,3.956 -14.226,-6.934 -29.686,-10.401 -45.14,-10.401 -22.391,0 -44.791,7.278 -63.445,21.832 z m -110.35,20.656 17.765,-16.282 c 11.664,-10.693 25.578,-18.192 40.67,-22.151 5.887,-1.541 11.954,-2.548 18.135,-2.991 4.297,-3.537 8.835,-6.705 13.563,-9.491 -4.212,-1.57 -8.482,-2.956 -12.798,-4.155 -14.113,-3.928 -28.746,-5.886 -43.526,-5.886 h -11.185 c -1.289,0 -2.332,-1.045 -2.332,-2.332 0,-1.288 1.043,-2.333 2.332,-2.333 h 11.185 c 15.168,0 30.216,2.019 44.764,6.067 5.713,1.59 11.344,3.494 16.873,5.709 6.777,-3.489 13.894,-6.228 21.22,-8.183 16.385,-4.373 33.826,-4.819 50.868,-0.937 1.254,0.283 2.039,1.524 1.759,2.778 -0.281,1.252 -1.525,2.038 -2.778,1.758 -16.292,-3.714 -32.971,-3.285 -48.648,0.898 -5.739,1.531 -11.344,3.569 -16.745,6.089 6.308,2.81 12.467,6.043 18.441,9.695 1.096,0.668 1.443,2.1 0.775,3.197 -0.669,1.094 -2.1,1.442 -3.197,0.774 -6.913,-4.227 -14.079,-7.872 -21.438,-10.941 -3.857,2.091 -7.593,4.436 -11.181,7.029 7.016,0.042 14.141,0.793 21.288,2.289 1.258,0.26 2.064,1.493 1.803,2.75 -0.26,1.256 -1.493,2.064 -2.75,1.802 -8.928,-1.865 -17.815,-2.522 -26.472,-2.035 -1.082,0.918 -2.149,1.86 -3.199,2.828 l -11.186,10.311 c -0.944,0.87 -2.417,0.81 -3.288,-0.137 -0.869,-0.944 -0.808,-2.416 0.137,-3.285 l 9.713,-8.955 c -3.716,0.515 -7.376,1.246 -10.966,2.186 -14.366,3.768 -27.606,10.903 -38.703,21.076 l -17.766,16.283 c -0.945,0.865 -2.415,0.8 -3.279,-0.146 -0.865,-0.947 -0.8,-2.416 0.146,-3.279 m -8.657,21.989 14.914,-7.237 c 9.916,-4.812 20.657,-7.218 31.389,-7.218 10.733,0 21.473,2.406 31.388,7.218 1.157,0.559 1.642,1.948 1.084,3.105 -0.558,1.157 -1.949,1.641 -3.106,1.083 -9.264,-4.495 -19.314,-6.745 -29.366,-6.745 -10.053,0 -20.102,2.25 -29.367,6.745 l -14.914,7.239 c -1.157,0.559 -2.547,0.072 -3.105,-1.084 -0.558,-1.157 -0.072,-2.547 1.083,-3.106 m -0.637,54.402 c -0.911,0.91 -0.911,2.386 0,3.297 0.91,0.91 2.386,0.91 3.296,0 l 6.58,-6.58 c 14.594,-14.597 30.972,-27.136 48.675,-37.357 16.086,-9.288 33.283,-16.671 51.242,-21.946 -0.464,0.61 -0.912,1.233 -1.341,1.877 l -4.774,7.108 c -0.713,1.066 -0.428,2.51 0.638,3.224 1.066,0.714 2.51,0.427 3.223,-0.639 l 4.774,-7.107 c 3.233,-4.819 7.56,-8.672 12.528,-11.321 4.958,-2.643 10.57,-4.086 16.384,-4.086 5.813,0 11.424,1.443 16.383,4.086 4.968,2.649 9.295,6.502 12.529,11.321 0.716,1.065 2.159,1.35 3.226,0.636 1.065,-0.713 1.349,-2.156 0.636,-3.222 C 37.998,24.349 33.091,19.979 27.458,16.977 21.815,13.968 15.453,12.326 8.889,12.326 c -6.565,0 -12.926,1.642 -18.569,4.651 -2.59,1.381 -5.025,3.047 -7.258,4.98 -0.425,-0.149 -0.898,-0.176 -1.369,-0.052 -20.313,5.443 -39.74,13.516 -57.81,23.947 -18.071,10.435 -34.774,23.22 -49.639,38.087 z"
         style="fill:#554031;fill-opacity:1;fill-rule:evenodd;stroke:none"
         transform="matrix(1.3333333,0,0,-1.3333333,220.18613,551.27213)"
         clip-path="url(#clipPath29)" />
      <path
         id="path30"
         d="m 0,0 c -49.728,-33.596 -124.601,-54.976 -208.341,-54.976 -83.74,0 -158.609,21.38 -208.337,54.976 -32.9,22.23 -44.271,64.675 -27.965,99.986 1.813,-24.499 13.682,-49.231 34.059,-61.038 48.273,-27.969 120.954,-45.765 202.243,-45.765 81.292,0 153.973,17.796 202.246,45.765 C 14.282,50.753 26.15,75.487 27.964,99.986 44.269,64.675 32.899,22.229 0,0"
         style="fill:#554031;fill-opacity:1;fill-rule:evenodd;stroke:none"
         transform="matrix(1.3333333,0,0,-1.3333333,668.5104,613.0156)"
         clip-path="url(#clipPath31)" />
      <path
         id="path32"
         d="m 0,0 10.198,-4.606 c 0.963,-0.435 1.929,-0.853 2.9,-1.257 -9.401,-2.984 -19.158,-4.474 -28.916,-4.474 -12.793,0 -25.583,2.563 -37.574,7.691 L -77.421,7.629 c -1.182,0.503 -2.548,-0.047 -3.051,-1.229 -0.504,-1.181 0.048,-2.547 1.229,-3.051 l 24.029,-10.277 c 12.588,-5.383 25.998,-8.074 39.396,-8.074 12.097,0 24.199,2.194 35.701,6.581 11.04,-3.737 22.541,-5.604 34.041,-5.604 14.908,0 29.822,3.138 43.725,9.419 1.172,0.528 1.694,1.907 1.167,3.078 -0.528,1.172 -1.908,1.695 -3.079,1.166 -13.284,-6 -27.548,-9.001 -41.813,-9.001 -9.758,0 -19.514,1.403 -28.956,4.214 0.064,0.415 0.019,0.856 -0.158,1.273 -0.501,1.181 -1.868,1.733 -3.05,1.23 -0.654,-0.281 -1.309,-0.55 -1.966,-0.816 -2.592,0.925 -5.154,1.957 -7.682,3.1 L 1.913,4.245 C 0.741,4.771 -0.639,4.248 -1.166,3.079 -1.694,1.908 -1.172,0.529 0,0 m 278.745,111.593 c 0.392,1.925 0.725,3.861 0.996,5.803 0.836,0.455 1.667,0.914 2.495,1.38 0.576,-1.471 1.105,-2.954 1.589,-4.444 -1.681,-0.936 -3.375,-1.849 -5.08,-2.739 M 251.692,65.728 c 4.027,3.014 7.655,6.563 10.873,10.519 3.923,2.232 7.731,4.688 11.407,7.368 l 13.657,9.961 c 0.092,-1.899 0.117,-3.797 0.073,-5.69 L 276.706,79.862 C 268.893,74.165 260.512,69.438 251.692,65.728 M 231.265,54.166 c 1.675,-1.129 3.379,-2.207 5.114,-3.233 10.152,-5.993 21.304,-10.173 32.996,-12.322 1.124,1.361 2.201,2.755 3.226,4.179 -12.023,1.894 -23.489,6.031 -33.854,12.153 -0.898,0.531 -1.789,1.076 -2.671,1.637 -1.583,-0.814 -3.185,-1.62 -4.811,-2.414 M 54.327,16.49 56.09,16.524 74.96,10.932 c 13.574,-4.022 27.699,-4.075 40.872,-0.6 7.244,1.91 14.198,4.885 20.616,8.855 -2.689,1.156 -5.333,2.459 -7.925,3.895 2.569,0.421 5.121,0.859 7.654,1.317 1.624,-0.753 3.267,-1.45 4.925,-2.092 1.732,1.257 3.418,2.593 5.05,4.008 2.89,0.586 5.756,1.2 8.595,1.832 -0.084,-0.127 -0.181,-0.25 -0.29,-0.363 -2.544,-2.64 -5.249,-5.083 -8.083,-7.319 8.079,-2.522 16.456,-3.782 24.838,-3.782 15.763,0 31.519,4.462 45.288,13.38 l 24.344,15.773 c 1.077,0.698 2.517,0.392 3.215,-0.686 0.698,-1.075 0.395,-2.514 -0.684,-3.212 L 219.031,26.165 C 204.477,16.736 187.837,12.02 171.212,12.02 c -9.961,0 -19.923,1.692 -29.442,5.076 C 134.182,11.943 125.798,8.148 117.016,5.833 103.039,2.147 88.046,2.201 73.647,6.471 l -19.063,5.647 c -1.234,0.364 -1.938,1.656 -1.577,2.887 0.204,0.694 0.703,1.221 1.32,1.485 m -253.541,81.238 c 0.164,1.615 0.378,3.23 0.641,4.84 3.81,-1.846 7.755,-3.313 11.776,-4.397 0.673,-1.806 1.403,-3.584 2.191,-5.328 -4.985,1.091 -9.884,2.719 -14.608,4.885 m 41.797,-78.978 c -2.199,1.376 -4.355,2.775 -6.467,4.193 11.645,0.647 23.149,2.521 34.327,5.633 4.316,1.199 8.586,2.585 12.798,4.155 -4.728,2.787 -9.266,5.955 -13.563,9.492 -6.181,0.443 -12.248,1.45 -18.135,2.991 -15.092,3.959 -29.006,11.458 -40.67,22.15 l -9.292,8.516 c -0.414,2.363 -0.721,4.745 -0.92,7.14 l 13.345,-12.231 c 11.098,-10.174 24.338,-17.309 38.704,-21.076 3.589,-0.941 7.25,-1.671 10.966,-2.187 l -7.615,7.019 c 4.416,-2.176 8.995,-4.274 13.722,-6.293 0.567,-0.501 1.14,-0.998 1.716,-1.487 0.683,-0.037 1.368,-0.069 2.054,-0.093 3.699,-1.522 7.485,-2.995 11.356,-4.417 -2.436,-0.183 -4.865,-0.28 -7.279,-0.296 3.588,-2.594 7.324,-4.938 11.181,-7.029 2.526,1.053 5.027,2.175 7.506,3.364 2.1,-0.69 4.22,-1.364 6.362,-2.024 -2.785,-1.441 -5.603,-2.797 -8.449,-4.066 5.401,-2.519 11.006,-4.558 16.745,-6.089 13.808,-3.683 28.392,-4.452 42.805,-2.049 2.862,-0.505 5.749,-0.984 8.655,-1.439 -0.13,-0.93 -0.82,-1.728 -1.793,-1.945 -17.042,-3.882 -34.483,-3.436 -50.869,0.936 -7.325,1.955 -14.442,4.694 -21.219,8.184 -5.529,-2.215 -11.16,-4.119 -16.873,-5.709 -9.52,-2.649 -19.256,-4.427 -29.098,-5.343"
         style="fill:#493527;fill-opacity:1;fill-rule:evenodd;stroke:none"
         transform="matrix(1.3333333,0,0,-1.3333333,331.98627,643.9636)"
         clip-path="url(#clipPath33)" />
      <path
         id="path34"
         d="M 0,0 C 9.684,7.735 22.715,11.066 35.691,7.912 48.667,4.759 58.715,-4.182 63.767,-15.502 54.084,-23.24 41.05,-26.571 28.075,-23.416 15.1,-20.263 5.052,-11.321 0,0"
         style="fill:#fab40a;fill-opacity:1;fill-rule:evenodd;stroke:none"
         transform="matrix(1.3333333,0,0,-1.3333333,60.887333,580.7748)"
         clip-path="url(#clipPath35)" />
      <path
         id="path36"
         d="m 0,0 c 10.865,-4.168 19.751,-13.138 23.361,-25.141 3.608,-12.006 1.141,-24.39 -5.625,-33.857 C 6.871,-54.832 -2.017,-45.862 -5.626,-33.857 -9.235,-21.852 -6.767,-9.467 0,0"
         style="fill:#fab40a;fill-opacity:1;fill-rule:evenodd;stroke:none"
         transform="matrix(1.3333333,0,0,-1.3333333,109.34173,423.31507)"
         clip-path="url(#clipPath37)" />
      <path
         id="path38"
         d="M 0,0 C 2.543,9.258 9.191,17.279 18.757,21.214 28.323,25.146 38.688,24.117 47.01,19.329 44.467,10.072 37.819,2.048 28.253,-1.884 18.687,-5.816 8.32,-4.792 0,0"
         style="fill:#fab40a;fill-opacity:1;fill-rule:evenodd;stroke:none"
         transform="matrix(1.3333333,0,0,-1.3333333,215.11387,670.26173)"
         clip-path="url(#clipPath39)" />
      <path
         id="path40"
         d="M 0,0 C 6.336,11.165 17.585,19.379 31.276,21.34 44.968,23.298 58.069,18.566 67.282,9.624 60.946,-1.543 49.696,-9.759 36.005,-11.716 22.314,-13.674 9.213,-8.94 0,0"
         style="fill:#fab40a;fill-opacity:1;fill-rule:evenodd;stroke:none"
         transform="matrix(1.3333333,0,0,-1.3333333,638.89453,572.362)"
         clip-path="url(#clipPath41)" />
      <path
         id="path42"
         d="m 0,0 c -1.281,10.504 2.143,21.463 10.249,29.477 8.106,8.014 19.108,11.306 29.597,9.902 C 41.127,28.875 37.705,17.915 29.597,9.899 21.49,1.887 10.489,-1.405 0,0"
         style="fill:#fab40a;fill-opacity:1;fill-rule:evenodd;stroke:none"
         transform="matrix(1.3333333,0,0,-1.3333333,556.73173,459.40107)"
         clip-path="url(#clipPath43)" />
      <path
         id="path44"
         d="m 0,0 c 2.614,8.979 9.204,16.693 18.577,20.387 9.373,3.692 19.457,2.542 27.49,-2.244 C 43.456,9.163 36.865,1.446 27.49,-2.247 18.117,-5.937 8.034,-4.79 0,0"
         style="fill:#fab40a;fill-opacity:1;fill-rule:evenodd;stroke:none"
         transform="matrix(1.3333333,0,0,-1.3333333,584.8008,542.22133)"
         clip-path="url(#clipPath45)" />
      <path
         id="path46"
         d="m 0,0 c -1.134,9.283 1.892,18.969 9.056,26.051 7.165,7.08 16.886,9.994 26.154,8.751 C 36.344,25.519 33.319,15.833 26.154,8.75 18.99,1.669 9.268,-1.241 0,0"
         style="fill:#fab40a;fill-opacity:1;fill-rule:evenodd;stroke:none"
         transform="matrix(1.3333333,0,0,-1.3333333,665.7344,501.02347)"
         clip-path="url(#clipPath47)" />
      <path
         id="path48"
         d="M 0,0 C 12.29,9.821 28.828,14.05 45.297,10.046 61.764,6.045 74.517,-5.303 80.927,-19.671 68.637,-29.489 52.1,-33.718 35.632,-29.716 19.163,-25.712 6.41,-14.364 0,0"
         style="fill:#fab40a;fill-opacity:1;fill-rule:evenodd;stroke:none"
         transform="matrix(1.3333333,0,0,-1.3333333,511.55467,626.26427)"
         clip-path="url(#clipPath49)" />
      <path
         id="path50"
         d="M 0,0 C 2.612,8.98 9.201,16.696 18.575,20.388 27.95,24.079 38.031,22.929 46.063,18.143 43.455,9.162 36.862,1.445 27.489,-2.247 18.116,-5.937 8.033,-4.787 0,0"
         style="fill:#fab40a;fill-opacity:1;fill-rule:evenodd;stroke:none"
         transform="matrix(1.3333333,0,0,-1.3333333,210.94667,574.42053)"
         clip-path="url(#clipPath51)" />
    </g>
  </g>
</svg>
