<?xml version="1.0" encoding="utf-8"?>

<!DOCTYPE svg PUBLIC "-//W3C//DTD SVG 1.1//EN" "http://www.w3.org/Graphics/SVG/1.1/DTD/svg11.dtd">
<svg version="1.1" id="Layer_1" xmlns="http://www.w3.org/2000/svg" xmlns:xlink="http://www.w3.org/1999/xlink" x="0px" y="0px"
	 viewBox="0 0 2608.177 1329.884" enable-background="new 0 0 2608.177 1329.884" xml:space="preserve">
<g>
	<g id="XMLID_1_">
		<path fill="#EC1C23" d="M2569.316,952.306c5.7,11.72,0.74,27.31-10.05,34.21c-41.01,50.85-234.67,24.99-296.94,6.45
			c-0.56-1.27-1.1-2.53-1.62-3.76c9.2-4.6,41.97-30.83,62.11-49.89c38.99-32.33,108.72-122.55,177.92-156.779
			c63.54-28.48,36.97,56.59,25.88,68.33c-29.57,60.93-77.93,69.68-82.33,71.83c-4.28,2.95-2.11,11.22,3.58,10.29
			C2484.556,930.996,2552.516,914.266,2569.316,952.306z"/>
		<path d="M2560.156,925.956c20.7,12.07,34.37,39.09,13.62,63.37c-13.98,16.28-34.1,26.32-54.67,31.46
			c-67.14,15.4-199.199,3.61-265.329-18.05c-34.27,13.42-253.45,179.619-475.089,160.009c24.25,103.51,6.91,40.31,24.21,90.14
			c14.49,3.87,29.21,7.03,44.05,9.33c4.91,0.82,10.08,0.99,14.6,3.34c0.53,9.83-14.03,6.05-54.94-2.76
			c1.93,8.25,5.72,15.93,7.71,24.17c-0.18,5.01-8.27,5.39-11.23,2.57c-4.03-8.45-5.88-17.78-9.69-26.32
			c-15.68,7.41-31.62,14.5-48.44,18.87c-4.01,1.35-9.55-0.9-9.03-5.73c16.13-5.94,32.95-10.62,48.01-19.18
			c3.78-5,1.55-11.61,0.02-17.07c-6.9-26.24-11.6-53.01-18.59-79.2c-26.68-3.17-52.62-10.54-78.08-18.85
			c-3.13,26.96-8.23,53.66-11.03,80.67c-0.27,2.95-1.8,5.56-2.5,8.4c-0.48,5.63-0.13,11.31-0.07,16.97
			c14.66,4,54.34,19.25,55.71,19.94c-0.64,4.2-3.13,5.8-6.91,5.8c-10.44,0-30.72-12.24-48.88-15.59c-0.15,7.8,0.29,15.6-0.27,23.4
			c-1.78,0.36-3.53,0.7-5.26,1c-2.64-8.36-0.38-17.31-1.38-25.92c-17.57,4.99-35.37,9.65-53.64,11.04
			c-2.99,0.45-7.27-1.42-6.47-5.01c1.68-5.11,9.75-0.69,50.7-12.23c4.42-0.68,6.9-5.1,8.23-8.95c2.78-34.66,8.17-69.05,10.88-103.71
			c-60.37-26.54-112.79-60.21-171.38-133.59c-98.47-123.24-151.73-292.499-161.97-429.838c-18.78-21.06-117.69-81.88-103.35-107.63
			c5.57-9.65,16.31-14.58,26.12-18.9c33.5-12.96,68.16-22.72,103.18-30.64c30.47-67.95,84.16-126.26,153.92-149.359
			c0.63-0.56,1.87-1.69,2.5-2.25c-30.63-17.47-65.98-22.9-99.6-31.93c-5.94-0.98-2.62-10.48,2.69-8.35
			c95.75,23.83,76.5,21.78,98.62,30.35c-8.28-11.37-19.32-20.35-28.61-30.81c-3.01-4.58,4.86-9.06,7.89-4.82
			c12.72,12.35,25.33,25,35.83,39.34c0.6,0.51,1.79,1.52,2.39,2.02c69.09-17.36,145.38-4.3,204.52,35.51
			c131.53,84.33,168.11,329.579,181.56,344.469c39.26,41.69,80.28,100.95,149.67,160.389c33.23,28.78,78.43,62.47,78.43,62.47
			c2.71,2.58,0.63,7.24-2.54,8.33c-2.85,1.48-5.74-0.39-8.29-1.54c-0.83,2.14-0.9,5.41-3.78,5.7c-16.8,4.53-67.33,16.81-67.33,16.81
			c53.24,42.87,163.71,80.98,174.05,88.47c5.14-3.95,10.77-7.26,15.57-11.66c1.25-0.93,2.26-2.51,3.96-2.72l0.19-1.23l1.3-0.65
			l1.05,0.61c97.18-79.98,192.09-207.889,254.05-200.519c51.35,4.2,25.2,106.11-42.75,152.059
			C2500.476,917.426,2535.616,911.796,2560.156,925.956z M2559.266,986.516c10.79-6.9,15.75-22.49,10.05-34.21
			c-16.8-38.04-84.76-21.31-121.45-19.32c-5.69,0.93-7.86-7.34-3.58-10.29c4.4-2.15,52.76-10.9,82.33-71.83
			c11.09-11.74,37.66-96.81-25.88-68.33c-69.2,34.23-138.93,124.45-177.92,156.779c-20.14,19.06-52.91,45.29-62.11,49.89
			c0.52,1.23,1.06,2.49,1.62,3.76C2324.596,1011.506,2518.256,1037.366,2559.266,986.516z M2235.447,999.426
			c3.7-2.43,8.49-4.04,10.21-8.52c-49.84-19.04-104.14-44.02-104.14-44.02c-2.49-2.19-5.52-3.6-8.4-5.1
			c-25.2-12.86-49.42-27.67-72.06-44.63c-116.94,24.03-234.9,35.52-336.989-66.87c-129.09-130.609-68.16-274.559,62.58-268.429
			c52.21,2.52,90.71,31.29,121.75,57.38c-21.47-75.14-43.46-151.349-83.29-219.209c-122.34-208.039-327.079-124.03-358.059-88.58
			c-9.12,4.53-40.92,35.3-42.43,41.37c-10.27,11.74-20.48,27.1-28.3,40.77c-4.81,2.46-52.43,79.22-38.87,202.159
			c21.61,201.509,132.46,452.068,319.87,528.488c-0.03-2.15-0.07-4.27-0.14-6.38c3.93,1.58,7.95,2.97,12.03,4.22
			c-0.17,2.18-0.36,4.38-0.5,6.61c12.39,6.05,50.69,17.39,73.64,19.55c-0.73-1.84-0.42-4.21-1.89-5.63
			c-2.17-11.23-6.16-22.02-9.79-32.84c-1.67-5.49-4.84-10.62-5.07-16.45c3.62-1.89,9.84-3.29,12.06,1.24
			c6.37,14.63,14.04,40.18,17.93,55.89c73.32,8.57,142.18-8.32,150.38-11.43c1.06-0.96,2.33-1.31,3.77-1.08
			c8.13-0.28,30-7.82,31.37-8.27c27.5-2.78,172.8-66.61,202.02-88.91c4.56-1.26,25.62-13.51,29.12-16.34
			C2197.397,1022.366,2232.867,1000.916,2235.447,999.426z M2130.337,868.326c3.62-0.43,4.05-4.37,4.76-7.22
			c-55.03-42.24-103.14-88.72-103.14-88.72c-2.82-0.9-1.22-1.61-6.46-7.17c-44.16-44.06-71.14-79.4-97.88-108.93
			c-17.14-18.93-34.18-35.48-55.58-50.41c-66.05-46.34-137.43-35.14-163.63-11.38c-9.78,4.64-37.69,29.95-42.64,68.03
			c-6.14,45.48,12.64,94.11,45.54,135.61c26.99,34.04,63.5,63.29,103.57,82.05C1913.197,924.146,2027.417,894.536,2130.337,868.326z
			 M1342.428,557.478c-2.2-75.17,19.1-115.33,19.57-125.91c-9.23,0.72-120.84,28.01-110.65,44.79
			c9.69,19.24,31.67,34.04,42.14,42.67C1302.338,526.248,1335.928,552.758,1342.428,557.478z"/>
		<path fill="#FF4552" d="M2245.656,990.906c-1.72,4.48-6.51,6.09-10.21,8.52c-2.58,1.49-38.05,22.94-43.2,24.99
			c-3.5,2.83-24.56,15.08-29.12,16.34c-29.22,22.3-174.52,86.13-202.02,88.91c-1.37,0.45-23.24,7.99-31.37,8.27
			c-1.44-0.23-2.71,0.12-3.77,1.08c-8.2,3.11-77.06,20-150.38,11.43c-3.89-15.71-11.56-41.26-17.93-55.89
			c-2.22-4.53-8.44-3.13-12.06-1.24c0.23,5.83,3.4,10.96,5.07,16.45c3.63,10.82,7.62,21.61,9.79,32.84
			c1.47,1.42,1.16,3.79,1.89,5.63c-22.95-2.16-61.25-13.5-73.64-19.55c0.14-2.23,0.33-4.43,0.5-6.61c-4.08-1.25-8.1-2.64-12.03-4.22
			c0.07,2.11,0.11,4.23,0.14,6.38c-187.41-76.42-298.26-326.979-319.87-528.488c-13.56-122.94,34.06-199.699,38.87-202.159
			c7.82-13.67,18.03-29.03,28.3-40.77c1.51-6.07,33.31-36.84,42.43-41.37c30.98-35.45,235.72-119.46,358.059,88.58
			c39.83,67.86,61.82,144.069,83.29,219.209c-31.04-26.09-69.54-54.86-121.75-57.38c-130.74-6.13-191.67,137.82-62.58,268.429
			c102.09,102.39,220.05,90.9,336.989,66.87c22.64,16.96,46.86,31.77,72.06,44.63c2.88,1.5,5.91,2.91,8.4,5.1
			C2141.517,946.886,2195.817,971.866,2245.656,990.906z M1461.748,461.548c36.64,15.93,75.24-19.68,59.1-53.84
			c-14.41-32.19-63.58-33.74-80.22-2.33C1429.398,425.798,1438.738,451.818,1461.748,461.548z"/>
		<path fill="#EC1C23" d="M2135.097,861.107c-0.71,2.85-1.14,6.79-4.76,7.22c-102.92,26.21-217.14,55.82-315.459,11.86
			c-40.07-18.76-76.58-48.01-103.57-82.05l33.5-4c15.95,17.94,44.4,34.92,65.34,12.3c14.58-14.15,15.59-32.19,9.21-51.4
			c3.1,1.11,6.18,2.31,9.32,3.4c22.27,7.35,38.52,3.66,41.78-19.88c1.92-15.09-4.06-29.59-9.85-43.18
			c21.82,2.99,59.73,7.85,67.13-13.13c2.56-8.09,1.04-16.94-2.66-24.43l2.54-1.53c26.74,29.53,53.72,64.87,97.88,108.93
			c5.24,5.56,3.64,6.27,6.46,7.17C2031.957,772.387,2080.067,818.867,2135.097,861.107z"/>
		<path d="M1925.077,657.817c3.7,7.49,5.22,16.34,2.66,24.43c-7.4,20.98-45.31,16.12-67.13,13.13c5.79,13.59,11.77,28.09,9.85,43.18
			c-3.26,23.54-19.51,27.23-41.78,19.88c-3.14-1.09-6.22-2.29-9.32-3.4c6.38,19.21,5.37,37.25-9.21,51.4
			c-20.94,22.62-49.39,5.64-65.34-12.3c-4.11-4.61-7.38-9.29-9.49-13.37c-2.19-3.92,2.2-8.38,6.19-8.09
			c3.17-0.18,4.65,3.07,6.37,5.19c32.09,47.47,59.46,23.08,62.64,3.13c3.45-21.06-12.44-36.46-14.85-40.11
			c-2.9-4.03,2.02-10.88,6.75-8.32c10.3,5.16,30.88,20.63,46.59,17.14c7.2-2.22,10.14-10.5,9.99-17.39
			c-0.52-15.03-8.08-28.46-14.5-41.64c-2.39-3.65,0.16-9.83,4.97-8.94c17.07,2.52,34.2,7.49,51.62,5.18
			c21.41-3.18,13.61-18.65,14.28-25.07C1916.937,657.997,1921.687,658.457,1925.077,657.817z"/>
		<path fill="#F58235" d="M1927.617,656.287l-2.54,1.53c-3.39,0.64-8.14,0.18-9.71,4.03c-0.67,6.42,7.13,21.89-14.28,25.07
			c-17.42,2.31-34.55-2.66-51.62-5.18c-4.81-0.89-7.36,5.29-4.97,8.94c6.42,13.18,13.98,26.61,14.5,41.64
			c0.15,6.89-2.79,15.17-9.99,17.39c-15.71,3.49-36.29-11.98-46.59-17.14c-4.73-2.56-9.65,4.29-6.75,8.32
			c2.41,3.65,18.3,19.05,14.85,40.11c-3.18,19.95-30.55,44.34-62.64-3.13c-1.72-2.12-3.2-5.37-6.37-5.19
			c-3.99-0.29-8.38,4.17-6.19,8.09c2.11,4.08,5.38,8.76,9.49,13.37l-33.5,4c-32.9-41.5-51.68-90.13-45.54-135.61
			c4.95-38.08,32.86-63.39,42.64-68.03c26.2-23.76,97.58-34.96,163.63,11.38C1893.437,620.807,1910.477,637.357,1927.617,656.287z"
			/>
		<path d="M1520.848,407.708c16.14,34.16-22.46,69.77-59.1,53.84c-23.01-9.73-32.35-35.75-21.12-56.17
			C1457.268,373.968,1506.438,375.518,1520.848,407.708z M1462.758,444.318c7.49,0.45,14.96-6.2,14.1-13.95
			c-0.3-8.97-11.01-14.67-18.97-11.41C1443.198,423.918,1447.718,444.918,1462.758,444.318z"/>
		<path d="M1361.998,431.568c-0.47,10.58-21.77,50.74-19.57,125.91c-6.5-4.72-40.09-31.23-48.94-38.45
			c-10.47-8.63-32.45-23.43-42.14-42.67C1241.158,459.578,1352.768,432.288,1361.998,431.568z"/>
		<path fill="#FFFFFF" d="M1270.078,120.219c6.51,37.25-2.63,75.73-19.25,109.18c-0.72,3.11-4.85,4.3-6.88,1.72
			c-1.97-1.54-0.58-3.93,0.22-5.67c15.74-31.94,24.77-68.58,18.44-104.13C1261.278,116.749,1270.048,113.779,1270.078,120.219z"/>
		<path fill="#D6181F" d="M1189.328,54.559c54.96-33.98,147.03,52.32,78.02,190.099c-7.46,16.24-16.75,31.7-27.95,45.64
			c-5.65,7.04-11.98,13.22-18.31,19.62c-4.78,4.84-10.95,8.5-16.5,12.47c-4.36,3.12-8.78,6.93-13.36,10.28
			c-2.78,2.03-5.6,3.89-8.51,5.33c-3.65,1.81-11.29-1.4-14.97-2.22c-11.21-2.53-22.31-4.91-33.03-9.15
			c-155.73-58.86-109.55-306.579-16.34-230.869c26.02,21.77,36.9,45.58,44.2,53.06c1.58,0.14,3.18,0.08,4.79-0.15
			c0.27-3.48-0.26-6.95-1.49-10.22C1154.798,106.689,1160.349,69.639,1189.328,54.559z M1250.828,229.399
			c16.62-33.45,25.76-71.93,19.25-109.18c-0.03-6.44-8.8-3.47-7.47,1.1c6.33,35.55-2.7,72.19-18.44,104.13
			c-0.8,1.74-2.19,4.13-0.22,5.67C1245.978,233.699,1250.108,232.509,1250.828,229.399z"/>
		<path d="M1239.258,43.139c63.3,23.38,92.16,142.07,7.63,251.959c-14.75,19.02-32.93,36.03-54.94,46.21
			c-0.49,0.33-0.96,0.51-1.42,0.6l-8.47,3.58c-6.77,2.71-54.11-4.9-88.16-31.28c-101.45-78.51-77.55-237.779-15.11-241.409
			c35.33-2.81,62.69,34.32,73.76,47.71c-0.63-14.15-0.44-28.74,4.63-42.16C1169.148,44.319,1207.178,30.659,1239.258,43.139z
			 M1267.348,244.659c69.01-137.78-23.06-224.079-78.02-190.099c-28.98,15.08-34.53,52.13-23.45,83.89
			c1.23,3.27,1.76,6.74,1.49,10.22c-1.61,0.23-3.21,0.29-4.79,0.15c-7.3-7.48-18.18-31.29-44.2-53.06
			c-93.21-75.71-139.39,172.009,16.34,230.869c10.72,4.24,21.82,6.62,33.03,9.15c3.68,0.82,11.32,4.03,14.97,2.22
			c2.91-1.44,5.73-3.3,8.51-5.33c4.58-3.35,9-7.16,13.36-10.28c5.55-3.97,11.72-7.63,16.5-12.47c6.33-6.4,12.66-12.58,18.31-19.62
			C1250.598,276.359,1259.888,260.899,1267.348,244.659z"/>
		<path d="M1142.889,554.998c10.52,19.96-44.86,58.22-83.75,93.34c-3.57,2.68-2.31,7.61-2.91,11.47
			c-15.15,182.809-109.97,422.898-276.239,492.538c0.69,26.56,5.49,52.85,7.41,79.34c1.09,6.91-0.64,15.26,5.19,20.47
			c14.04,5.21,28.95,7.8,43.75,9.9c2.14,3.94-2.27,7.58-6.1,6.72c-15.75-1.68-31.12-5.8-46.3-10.2
			c-0.65,22.74,1.29,20.66-4.17,23.17c-4.61-6.03-1.53-14.21-2.63-21.18c-11.64,5.15-23.49,9.88-35.78,13.2
			c-2.18,0.79-4.62,0.4-6.35-0.89c-1.13-0.85-1.96-2.08-2.21-3.63c0,0,22.71-9.1,44.16-18.02c1.96-28.24-1.97-36.93-7.27-94.2
			c-52,17.17-49.03,12.86-64.48,17c-5.82,25.09-10.27,50.49-16.43,75.5c-1.1,3.27,0.21,6.55,1,9.73
			c10.27,5.86,21.27,10.13,32.37,14.11c2.56,0.92,5.12,1.82,7.69,2.72c3.24,14.2-34.39-4.61-47.36-11.41
			c-3.96,7.67-4.69,16.63-8.93,24.14c-2.84,1.4-5.96,0.41-8.69-0.65c0.34-8.24,4.78-15.55,6.12-23.61
			c-13.35,2.64-26.54,6.46-40.15,7.53c-3.35,0.44-6.94-3.64-3.88-6.37c15.85-2.91,31.83-5.57,47.28-10.3
			c2.39-7.5,5.07-14.89,7.86-22.24c0.66-2.92,11.55-52.89,11.84-57.94c-189.46,17.35-374.519-137.459-395.139-142.569
			c-54.37,19.19-167.59,30.4-223.95,15.03c-25.86-7.87-55.11-29.71-50.21-55.8c8.71-44.41,65.66-35.81,81.99-35.14
			c-11.45-9.27-22.39-19.38-30.74-31.62c-18.39-26.64-41.68-82.2-14.7-99.81c52.17-33.74,164.3,137.399,240.25,188.579
			c11.01-7.47,100.6-40.31,145.08-78.8c-3.46-0.81-6.9-1.59-10.34-2.41c-50.66-13.49-46.43-11.35-49.34-16.49
			c-3.18,0.62-7.41,1.7-9.18-1.98c-1.87-2.91,0.63-5.61,2.9-7.26c111.88-88.35,132.44-132.53,187.99-197.209
			c11.44-18.26,43.77-242.979,160.98-313.129c46.84-29.62,106.19-39.08,159.73-24.53c0.47-0.47,14.48-19.77,32.42-37.45
			c3.22-3.26,8.85,2.29,5.49,5.54c-8.33,8.9-16.72,17.78-24.29,27.36c22.67-12.64,48.08-18.65,72.98-25.08
			c4.62-0.97,9.23-3.42,14.02-2.08c0.84,2.49,1.48,6.57-2.13,7.05c-20.9,6.12-66.87,15.42-82.63,29.33
			c62.4,23.06,105.38,74.73,130.26,134.06C1056.699,517.248,1131.039,533.138,1142.889,554.998z M1133.109,563.778
			c1.85-2.95-0.71-5.82-2.57-7.96c-17.27-14.02-68.54-27.68-87.58-31.97c-2.93-0.4-1.55,3.14-1.06,4.73
			c9.25,27.78,14.63,56.94,15.19,86.25c0.34,5.47-0.98,11.33,1.38,16.53c5.44-0.22,2.98,0.3,7.28-2.37
			C1116.019,587.807,1126.639,576.778,1133.109,563.778z M1046.669,645.617c4.73-91.23-30.12-153.749-35.08-157.839
			c-3.24-5.71-12.57-22.94-19.18-29.89c-1.19-0.7-1.98-1.71-2.37-3c-0.39-0.56-1.15-1.65-1.53-2.19
			c-1.63-4.75-23.67-29.35-29.11-30.38c-2.38-1.61-3.92-2.33-5.26-4.87c-17.92-27.52-208.38-122.32-313.669,108.75
			c-23.86,52.64-39.17,108.61-53.77,164.349c33.74-30.08,72.6-57.05,122.15-49.99c53.09,6.38,91.41,50.34,90.93,105.42
			c-1.3,62.76-41.45,122.4-90.9,161.499c-72.22,56.57-157.68,52.1-246.51,31.52c-5.16-1.92-4.02,3.2-39.37,25.47
			c-24.73,16.48-84.53,45.22-117.25,57.2c1.01,3.19,0.65,3.62,42.08,29.05c0.68,0.3,2.03,0.91,2.7,1.22
			c2.95,2.63,18.43,12.49,22.63,13.36c6.35,5.69,39.78,24.33,48.32,27.98c15.54,12.01,111.44,52.84,127.42,54.25
			c8.75,3.75,24.39,7.17,32.42,8.65c7.06,3.6,65.79,15.08,116.13,7.73c0.09-2.05,0.16-4.07,0.21-6.09l1.01-0.06
			c3.45-14.47,7.71-28.76,12.9-42.69c1.4-4.74,7.8-3.83,10.84-1.23c-4.47,14.4-10.03,28.55-12.82,43.42
			c-1.41,1.28-0.89,3.49-1.35,5.2c20.68-3.06,40.71-9.36,60.21-16.77c0.09-2.23,0.09-4.44,0.03-6.63c3.36-1.12,6.68-2.35,9.95-3.69
			c0.11,1.75,0.21,3.53,0.32,5.31c25.03-10.32,58.91-33.69,62.09-38.6c93.64-62.87,160.45-233.549,160.13-242.819
			C1021.659,809.607,1042.179,723.827,1046.669,645.617z M774.089,810.137c54.71-124.53-48.55-193.189-138.15-143.63
			c-31.74,17.6-61.84,51.87-62.53,54.7c-1.3,1.06-2.56,2.19-3.68,3.46c-25.85,30.28-73.84,101.2-169.77,179.989
			c-3.62,1.99-1.25,7.85,2.33,8.29c73.37,19.97,148.6,40.26,219.68,24.88c57.32-13.19,105.84-51.35,134.83-96.54
			c1.94-3.02,3.78-6.06,5.54-9.13C763.739,830.827,770.839,817.877,774.089,810.137z M287.67,1024.756c1.1-1.87,2.13-3.77,3.16-5.67
			c-17.57-13.24-34.09-27.84-49.62-43.43c-19.43-17.37-34.58-38.88-53.79-56.47c-2.11-2.11-4.02-2.39-4.86-5.09
			c-8.71-13.83-105.01-113.17-121.23-73.51c-10.28,25.75,21.67,103.89,76.62,119.45c5.25,0.43,6.46,9.47,0.94,10.15
			c-12.21,0.74-63.08-9.61-78.94-1.42c-15.63,2.54-29.02,19.2-24.5,35.18C58.6,1074.146,271.95,1033.686,287.67,1024.756z"/>
		<path d="M1130.539,555.818c1.86,2.14,4.42,5.01,2.57,7.96c-6.47,13-17.09,24.03-67.36,65.21c-4.3,2.67-1.84,2.15-7.28,2.37
			c-2.36-5.2-1.04-11.06-1.38-16.53c-0.56-29.31-5.94-58.47-15.19-86.25c-0.49-1.59-1.87-5.13,1.06-4.73
			C1061.999,528.138,1113.269,541.798,1130.539,555.818z"/>
		<path fill="#FFD105" d="M1011.589,487.778c4.96,4.09,39.81,66.61,35.08,157.839c-4.49,78.21-25.01,163.989-45.7,213.639
			c0.32,9.27-66.49,179.949-160.13,242.819c-3.18,4.91-37.06,28.28-62.09,38.6c-0.11-1.78-0.21-3.56-0.32-5.31
			c-3.27,1.34-6.59,2.57-9.95,3.69c0.06,2.19,0.06,4.4-0.03,6.63c-19.5,7.41-39.53,13.71-60.21,16.77c0.46-1.71-0.06-3.92,1.35-5.2
			c2.79-14.87,8.35-29.02,12.82-43.42c-3.04-2.6-9.44-3.51-10.84,1.23c-5.19,13.93-9.45,28.22-12.9,42.69l-1.01,0.06
			c-0.05,2.02-0.12,4.04-0.21,6.09c-50.34,7.35-109.07-4.13-116.13-7.73c-8.03-1.48-23.67-4.9-32.42-8.65
			c-15.98-1.41-111.88-42.24-127.42-54.25c-8.54-3.65-41.97-22.29-48.32-27.98c-4.2-0.87-19.68-10.73-22.63-13.36
			c-0.67-0.31-2.02-0.92-2.7-1.22c-41.43-25.43-41.07-25.86-42.08-29.05c32.72-11.98,92.52-40.72,117.25-57.2
			c35.35-22.27,34.21-27.39,39.37-25.47c88.83,20.58,174.29,25.05,246.51-31.52c49.45-39.1,89.6-98.74,90.9-161.499
			c0.48-55.08-37.84-99.04-90.93-105.42c-49.55-7.06-88.41,19.91-122.15,49.99c14.6-55.74,29.91-111.71,53.77-164.349
			c105.29-231.069,295.749-136.27,313.669-108.75c1.34,2.54,2.88,3.26,5.26,4.87c5.44,1.03,27.48,25.63,29.11,30.38
			c0.38,0.54,1.14,1.63,1.53,2.19c0.39,1.29,1.18,2.3,2.37,3C999.019,464.838,1008.349,482.068,1011.589,487.778z M943.629,553.598
			c20.56,0.37,38.3-19.51,35.84-39.89c-1.03-20.53-21.95-36.93-42.13-33.27c-18.33,2.34-32.93,20.22-31.22,38.71
			C906.719,538.248,924.509,554.668,943.629,553.598z"/>
		<path d="M979.469,513.708c2.46,20.38-15.28,40.26-35.84,39.89c-19.12,1.07-36.91-15.35-37.51-34.45
			c-1.71-18.49,12.89-36.37,31.22-38.71C957.519,476.778,978.439,493.178,979.469,513.708z M968.589,525.948
			c2.59-9.04-8.08-17.57-16.36-13.2c-7.61,3.12-9.1,14.54-2.62,19.57C955.809,537.988,967.169,534.328,968.589,525.948z"/>
		<path fill="#99CA46" d="M635.939,666.507c89.6-49.56,192.86,19.1,138.15,143.63c-3.25,7.74-10.35,20.69-11.75,22.02
			c-1.76,3.07-3.6,6.11-5.54,9.13l-29.12-1.67c0.83-1.3,1.65-2.65,2.47-4.05c3.45-4.72-4.25-11.15-7.87-6.4
			c-6.66,9.54-13.32,19.94-24.03,25.37c-17.68,9.36-35.71-11.87-29.48-33.93c1.65-7.68,6.2-14.17,10.8-20.35
			c2.96-2.98,0.84-9.3-3.57-8.88c-12.38,5.95-23.71,16.96-38.37,16.11c-6.05-0.53-9.33-6.86-9.73-12.31
			c-2.28-27.12,26.28-51.53,3.82-48.13c-63.23,13.58-50.03-7.61-51.22-18.6c-1.32-2.93-5.07-2.65-7.64-3.63
			c-0.13,0.29-0.26,0.59-0.39,0.88l-2.74-1.03c1.12-1.27,2.38-2.4,3.68-3.46C574.1,718.377,604.199,684.107,635.939,666.507z"/>
		<path fill="#F58220" d="M727.679,839.617l29.12,1.67c-28.99,45.19-77.51,83.35-134.83,96.54
			c-71.08,15.38-146.31-4.91-219.68-24.88c-3.58-0.44-5.95-6.3-2.33-8.29c95.93-78.79,143.92-149.709,169.77-179.989l2.74,1.03
			c-2.9,6.8-4.56,14.55-1.95,21.72c6.54,18.5,38.46,13.45,55.47,11.56c-4.85,12.74-10.03,26.27-7.59,40.16
			c3.85,22.9,20.93,21.67,42.25,12.57C645.099,859.497,693.159,893.426,727.679,839.617z"/>
		<path d="M722.279,829.167c3.62-4.75,11.32,1.68,7.87,6.4c-0.82,1.4-1.64,2.75-2.47,4.05c-34.52,53.81-82.58,19.88-67.03-27.91
			c-21.32,9.1-38.4,10.33-42.25-12.57c-2.44-13.89,2.74-27.42,7.59-40.16c-17.01,1.89-48.93,6.94-55.47-11.56
			c-2.61-7.17-0.95-14.92,1.95-21.72c0.13-0.29,0.26-0.59,0.39-0.88c2.57,0.98,6.32,0.7,7.64,3.63
			c1.19,10.99-12.01,32.18,51.22,18.6c22.46-3.4-6.1,21.01-3.82,48.13c0.4,5.45,3.68,11.78,9.73,12.31
			c14.66,0.85,25.99-10.16,38.37-16.11c4.41-0.42,6.53,5.9,3.57,8.88c-4.6,6.18-9.15,12.67-10.8,20.35
			c-6.23,22.06,11.8,43.29,29.48,33.93C708.959,849.107,715.619,838.707,722.279,829.167z"/>
		<path fill="#F58220" d="M290.83,1019.086c-1.03,1.9-2.06,3.8-3.16,5.67c-15.72,8.93-229.07,49.39-252.22-20.81
			c-4.52-15.98,8.87-32.64,24.5-35.18c15.86-8.19,66.73,2.16,78.94,1.42c5.52-0.68,4.31-9.72-0.94-10.15
			c-54.95-15.56-86.9-93.7-76.62-119.45c16.22-39.66,112.52,59.68,121.23,73.51c0.84,2.7,2.75,2.98,4.86,5.09
			c19.21,17.59,34.36,39.1,53.79,56.47C256.74,991.246,273.26,1005.846,290.83,1019.086z"/>
	</g>
</g>
</svg>
