<?xml version="1.0" encoding="utf-8"?>

<!DOCTYPE svg PUBLIC "-//W3C//DTD SVG 1.1//EN" "http://www.w3.org/Graphics/SVG/1.1/DTD/svg11.dtd">
<svg version="1.1" id="Layer_1" xmlns="http://www.w3.org/2000/svg" xmlns:xlink="http://www.w3.org/1999/xlink" x="0px" y="0px"
	 viewBox="0 0 1720 1670.6" style="enable-background:new 0 0 1720 1670.6;" xml:space="preserve">
<style type="text/css">
	.st0{fill:#373435;stroke:#373435;}
	.st1{fill:#B8B175;stroke:#B8B175;}
	.st2{fill:#BEBD78;stroke:#BEBD78;}
	.st3{fill:#82844F;stroke:#82844F;}
	.st4{fill:#F7F7D3;stroke:#F7F7D3;}
	.st5{fill:#A1A77E;stroke:#A1A77E;}
	.st6{fill:#4F523B;stroke:#4F523B;}
	.st7{fill:#E5F1AD;stroke:#E5F1AD;}
	.st8{fill:#71745E;stroke:#71745E;}
</style>
<g>
	<path class="st0" d="M496,44.7c1.9-4.4,5.4-8.8,10.5-9.3c6.5-0.4,12.2,3.6,17,7.5c11.5,9.8,20.6,22.2,29.3,34.5
		c23.3,33.3,37.8,72.3,44.4,112.3c8.9,0.4,17.8-0.1,26.6,0.2c4,0.2,7.6,3.8,7.5,7.8c0.1,7.9-0.3,15.8-1.4,23.6c23,0.5,46,0.1,69,0.2
		c54.9,0,109.8,0,164.7,0c3.1,0,6.2-0.2,9.2,0.2c3.8,0.7,6.7,4.5,6.5,8.4c0,22.2-1.5,44.4-5,66.4c-3,18.2-7.3,36.3-14,53.5
		c-6,15.4-14,30.1-25,42.6c-10.2,11.6-23.2,20.9-37.9,25.9c-18.5,6.5-38.7,6.2-57.7,2.2c-6.8-1.3-13.4-3.7-20.1-5.3
		c-2.9,5.5-6.6,10.4-9.8,15.6c183.6,0.1,367.3,0.1,550.9,0c33.6-3.2,68,0.1,99.9,11.2c26.3,9.2,50.5,24.7,68.8,45.8
		c4.1,3.5,9.3,5.4,13.9,8.3c78.4,43.5,156.8,86.9,235.2,130.4c2.7,1.3,5,3.8,5,7c0.3,2.8-1.3,5.3-2.5,7.7
		c-15.5,30-39.3,56-68.7,72.9c-15.7,9.2-33,15.4-50.7,19.5c0,4,0.6,8.3-1.1,12.1c-6.9,17.4-18.8,32.7-33.5,44.1
		c-15.3,11.8-33.7,19.4-52.7,22.4c-0.4,49.9-0.1,99.8-0.2,149.7c0,66.3,0,132.6,0,199c0.2,8.1-0.3,16.1-1.8,24.1
		c-5.6,31.3-20.7,60.5-41.1,84.7c-20.4,24.3-46.3,43.6-74.5,57.9c-1.6,0.9-3.5,1.4-4.8,2.8c-0.6,27.1-2.1,54.8-12,80.3
		c-4.2,11.2-10.5,21.3-14.9,32.4c-4.2,10.6-5.5,22.1-5.6,33.4c0,4.5-4.3,6.7-7.5,8.9c-24.4,18-40,46.5-43.8,76.4
		c-0.9,6.1-1.1,12.2-1.2,18.4c-0.2,4.1-4,7.7-8.2,7.5c-33.3,0.1-66.7,0-100,0c-4.4,0.4-8.7-3.1-8.9-7.6c0-4,0.8-8,1.7-11.9
		c3.6-14.3,10.3-27.6,18.1-40.1c8.1-12.8,17.6-24.8,27.9-35.9c5.7-7.4,7.6-16.9,9.2-25.9c2.5-16,3.1-32.2,3.1-48.4
		c-36.3,10.7-73.6,17.3-111.1,22.5c-1.3,11.8-2.9,23.7-5.6,35.3c-0.6,2.4-1.3,5.2-3.5,6.7c-24.6,16.1-41.4,42.8-46.9,71.5
		c-1.8,8.6-2.4,17.5-2.6,26.3c-0.1,5-5.3,8.2-10,7.6c-33-0.1-66.1,0-99.1,0c-4.9,0.2-8.9-4.6-8.1-9.4c1.3-14.6,7.4-28.3,14.3-41
		c8.5-15.3,19.1-29.3,30.8-42.3c5.7-5.4,8.2-13.1,10.1-20.5c1.9-7.9,3-16,3.6-24.1c-53.1,1.9-106.4,2.7-159.2-3
		c-1.4,22.7-3,45.5-7.2,67.9c-0.8,3.7-1.4,7.5-2.7,11.1c-1.2,3.2-4.7,4.5-7.3,6.6c-25.7,19.1-41.6,49.9-44.1,81.7
		c-0.5,4.4-0.4,8.9-0.7,13.4c-0.5,4.3-4.8,7.4-9,7c-33,0-66,0-99,0c-4.2,0.4-8.5-2.7-9-7c-0.3-4.6,0.8-9.1,1.8-13.5
		c6.8-25.2,21.9-47.2,38.5-66.9c3.9-4.8,9-8.8,11.2-14.7c5.5-13.1,6.9-27.4,7.6-41.4c-31.6,3.5-63.7,2.2-95.1-2.6
		c-23.2-3.6-46.1-8.9-68.3-16.6c-11.9-4.1-23.7-9-34.7-15.2c-1.3,21.3-3.2,42.8-7.7,63.7c-0.8,3.1-1.2,6.8-4,8.9
		c-24.4,15.9-41.2,42.4-46.9,70.8c-1.8,8.5-2.6,17.2-2.7,26c0.5,5.5-5,9.5-10.2,8.7c-33-0.1-66,0.1-99-0.1c-4.9,0.1-8.7-4.8-8-9.5
		c1.3-13.4,6.6-26.1,12.7-38c9.4-17.6,21.6-33.5,35.1-48.1c5.3-6.7,7.3-15.2,8.9-23.4c3.4-19.8,3.3-39.9,3.3-59.9
		c-0.1-10.1,0.1-20.3-0.1-30.4c-23.3-9.6-45-23.3-63.4-40.5c-14.9-14.1-27.8-30.6-36.8-49.2c-1.3-2.3-1.7-5.6-4.5-6.6
		c-52.7-27.3-101.4-63.9-138.2-110.8c-20.8-26.5-37.7-56.2-48.9-88c-9.3-26.5-15.3-54.4-14.8-82.6c0-179.1,0.1-358.2-0.1-537.3
		c-11.8-7.6-21.2-18.6-27.3-31.1c-8.1-16.2-11.5-34.3-13.5-52.2c-2.7-25-2.4-50.2-2.4-75.3c0.1-15.1,0-30.3,0.2-45.4
		c0.8-25.7,8.5-51.8,25.4-71.6c17.7-21.1,43.6-33.7,70.1-40c17.4-4.2,35.4-6.1,53.3-5.6c33.4,0,66.8,0.1,100.2,0c0.1-26,0-52,0.1-78
		c0.1-12,0.4-24.5,5.8-35.5c3.1-6.6,9.6-11.7,17-12.1c9.2-0.4,17.5,4.7,24.4,10.2c35.1,28.9,62.6,66.4,82.5,107.2
		c1.5,2.7,2.3,5.8,4.2,8.2c21.6,0.2,43.2,0,64.7,0.1c2.4,0,4.8,0,7.2-0.2c-0.2-38.3,0-76.6-0.1-114.9
		C491.6,64.5,491.9,54.1,496,44.7 M511.4,60.9c-3.2,2.6-3.3,7.2-3.5,11c0.1,9.5-0.1,19.1,0.1,28.7c-0.2,14.8-0.2,29.5,0,44.3
		c-0.1,11-0.2,22.1,0,33.1c-0.2,3.9-0.2,7.8,0,11.7c12.2,0,24.6,0.5,36.8-0.3c2.2,0.7,4.6,0.3,7,0.4c9.6-0.2,19.2,0.3,28.7-0.2
		c-1-8.1-3-16-5-23.9c-1.7-5.7-2.9-11.6-5.3-17.1c-5.2-16.7-12.9-32.6-21.5-47.8l-0.7-0.1c-2.1-5.2-5.8-9.7-8.8-14.4
		c-6-8.1-11.5-16.7-19.2-23.3C517.6,61.2,514.3,59,511.4,60.9 M308.2,80.8c-4.4,4.2-4.7,10.8-5.6,16.5c-1,14.3-0.3,28.7-0.6,43.1
		c0.2,13.1-0.5,26.2,0.4,39.3c-0.8,10.9-0.2,22-0.3,33c0,26.5-0.1,53,0,79.5c0.3,10.9-1.1,21.7-2.9,32.4
		c-2.9,12.8-7.9,25.4-16.4,35.6c-6,7-13.4,12.9-21.8,16.7c-5.1,2.5-10.7,3.8-16.1,5.2c-9.6,1.3-19.3,1.7-29,0.8
		c-2.4-0.4-5.2-0.3-7.1-2.1c-2.3-1.7-3.1-4.6-3-7.2c0-22.8,0-45.7,0-68.6c-0.1-2.5,0.3-5.3,2.2-7.1c3-3.5,9.2-3.3,12.1,0.2
		c2,2.1,1.9,5.1,1.9,7.8c-0.1,20.3,0.1,40.6-0.1,60.9c10.1,1,20.5-0.1,30-3.8c10.9-4.2,19.8-12.8,24.9-23.2c8-15.8,9.5-34,9.2-51.5
		c0.1-27.4-0.1-54.8,0.1-82.2c-29.5-0.3-59,0-88.6-0.1c-13.7,0.1-27.5-0.7-41.1,1.4c-27.3,3.4-55.1,12.7-75.3,32.1
		c-17.6,16.6-26.7,40.6-27.9,64.5c-0.6,13.3-0.3,26.5-0.4,39.8c0,26.9-0.6,53.8,2.5,80.6c2.1,16.1,5.4,32.4,13.1,46.8
		c6.6,12.5,17,23,29.6,29.5c17.2,8.9,36.9,11.5,56,12.2c22.9,0,45.9,0.3,68.8,0.3c8.9,0.2,17.7-0.9,26.6-1
		c11.7-1.1,23.6-1.9,35.1-4.4c28.5-5,56.6-15.1,79.9-32.5c29.1-20.1,49.6-51.2,59.9-84.8c6.4-20.1,9.4-41.3,9.2-62.3
		c0.5-21.4-2-42.8-6.6-63.6c-3.7-17.7-9-35.1-15.7-52c-6.3-16.9-14.5-33.1-23.6-48.7c-6.6-10.5-13.3-21-20.9-30.8
		c-3.3-4-6.2-8.5-10-12c-1.1-1.7-2.4-3.3-3.7-4.7c-10.2-11.3-21.1-22.2-33.3-31.5C316.3,82.6,312.3,79.6,308.2,80.8 M426.1,206.1
		C442,247,451.2,291,449.5,335c-1.2,37.8-11.1,76-31.9,107.9c-17.1,26.4-41.8,47.6-69.9,61.5c0.5,25-1.5,50.5-9.9,74.3
		c-5.2,14.8-12.9,28.8-23.6,40.3c-10.7,11.6-24.4,20.5-39.4,25.4c-5,1.6-10.2,3-15.4,3.3c-4.6,0.4-8.5-4-8.3-8.4
		c-0.1-12,0.1-24-0.1-36c-20-19.1-30.1-46.7-31.6-74c-9.5,0.2-19,0.1-28.5,0.1c-25.7-0.4-51.8,1.2-77.1-4.7
		c-6.1-1.1-11.9-3.7-17.9-5c0.1,163.4,0.1,326.8,0,490.2c-0.5,12.4-0.1,24.9-0.2,37.4c-0.6,23.6,3.9,47.1,10.9,69.5
		c15.3,48.1,44,91.3,80.2,126.1c24,23.4,51.4,43.3,80.3,60.3c5.1,2.6,9.7,6.2,15.2,7.9c0.1-95.5-0.1-190.9-0.1-286.4
		c0.7-3.2,3.5-6,6.8-6.3c4.8-0.9,9.5,3.5,9.2,8.4c0.1,59.5-0.2,119,0.1,178.5c-0.3,20.4-0.1,40.8-0.1,61.3
		c-0.1,18.8-0.1,37.6,0,56.5c1,5.3,4.3,9.8,6.6,14.6c14.7,25.5,36.9,46.1,62.2,60.9c24.6,14.4,52,23.5,79.9,28.5
		c14.2,2.4,28.5,4.4,43,4.5c0.2-21,0.2-42.1,0-63.1c0.1-16.3,0.1-32.7,0-49c0-40.8,0-81.5,0-122.3c-0.3-4.1,2.6-8.2,6.7-8.8
		c4.7-1,9.6,3.1,9.5,7.9c0.1,44.1,0,88.2,0,132.3c-0.1,20-0.1,40,0,60c-0.3,15.8,0,31.6-0.1,47.4c-0.6,4.3,4.3,5.8,7.2,7.9
		c19.1,10.5,40.2,16.7,61.2,22.1c28.6,7.1,58,10.9,87.4,11.6c33.7,0.2,67.8-4.1,99.3-16.4c17.6-6.8,34-16.4,48.7-28.2
		c0.1-18.8,0.2-37.6-0.6-56.4c-0.4-16.9-0.1-33.8-0.6-50.6c0-21.7-0.7-43.3-0.7-65c-0.3-37-1.1-74-1.2-111c0-6,8-9.7,12.6-5.8
		c3.8,2.5,3.6,7.4,3.5,11.4c0.1,23.7,0.4,47.5,0.9,71.2c0.1,29.6,0.6,59.2,1,88.8c0,20.6,0.1,41.3,0.7,61.9
		c0.3,17,0.1,34.1,0.2,51.1c0.2,1-0.4,3.2,1.3,3.2c17.1,1.7,34.3,3.2,51.5,3.3c18.2,1.3,36.4,0.8,54.6,0.8
		c11.7,0.1,23.4-1.1,35.2-0.9c5.9,0,11.7-1,17.6-0.9c4.3,0.1,8.7-0.2,13-0.7c15.2-0.6,30.3-2,45.4-3.2c44.2-4.2,88.4-9.9,131.7-19.9
		c18.6-4.4,37-9.5,54.8-16.4c13.6-5.4,26.9-11.7,38.4-20.8c7.4-6.2,14.3-13.8,16.5-23.4c1-6.1,0.9-12.2,1-18.3
		c0-49.7-0.2-99.5-0.2-149.2c1.6-5.5,9.3-7.8,13.4-3.7c3.6,3.1,2.4,8.3,2.6,12.5c-0.1,21.9-0.1,43.8,0,65.7
		c-0.1,25.3-0.1,50.5,0,75.8c10.9-3,21.5-7.3,31.9-11.7c16.6-7.3,32.6-16.1,47.3-26.7c27.5-19.7,50.7-46.1,64.5-77.2
		c7.3-16.7,12.4-34.7,12.1-53c-0.2-11.8,0.3-23.6-0.3-35.4c0.5-5.8,0.1-11.6,0.2-17.4c-0.1-15.2,0.3-30.4-0.2-45.6
		c0.4-28.6,0.1-57.2,0.2-85.8c0-112,0-223.9,0-335.9c0-15.1,0.1-30.3-1.7-45.3c-3.1-29.4-11.5-58.8-27.8-83.7
		c-15-23.2-37.1-41.4-62.3-52.5c-28.9-12.7-60.9-17.5-92.4-16c-11.1,1.3-22.4,0.8-33.5,0.9c-66.3,0-132.6,0-199,0
		c-23,0.1-46.1-0.2-69.1,0.2c1.6,1.8,4,2.8,6.1,4c9.1,5.2,18.1,10.7,26.6,16.8c21.7,15.3,41,34.8,53.2,58.7
		c8.5,16.3,13.8,34.1,17.2,52.2c4.3,23.7,5.7,47.8,6.2,71.9c1,26.9,0.1,53.8-0.1,80.7c-0.4,62.3-0.7,124.6-0.4,186.9
		c0,18.8,0,37.7,0.7,56.5c0.3,3.9-2.4,7.9-6.3,8.6c-4.2,1-8.8-1.9-9.6-6.2c-0.7-6-0.5-12.1-0.6-18.1c-1.1-78.6-0.2-157.3,0.1-236
		c0.4-25.6,0.7-51.2-0.1-76.8c-0.5-19.8-1.7-39.6-4.9-59.1c-3.1-18.5-8-36.8-16.8-53.4c-7.5-14.5-18-27.4-30.1-38.3
		c-22.3-20-49-34.3-75.8-47.3c-3.1-1.9-6.8-1.2-10.2-1.3c-76.2,0-152.4,0-228.6,0c-1.7-0.3-3.1,0.6-4,2
		c-15.4,17.6-33.8,32.6-54.2,44c35.2,25.5,69.7,52.7,98.4,85.5c20.6,23.6,38.2,50.3,48.5,80c7.9,22.8,11.3,47,12.8,71
		c1.6,24.4,0.6,48.8,0.8,73.2c0,51.2,0,102.4,0,153.6c0.5,4.5-3.2,8.9-7.8,8.8c-4.7,0.4-8.8-4.1-8.4-8.8c0-66-0.1-132.1,0.1-198.1
		c0-26-1.7-52.2-7.7-77.5c-7-29.5-22.1-56.6-40.9-80.2c-21.9-27.6-48.5-51.2-76.2-72.8c-11.9-9.1-23.8-18.3-36.2-26.5
		c-25.4,10.5-53,16-80.5,14.1c-20.7-1.1-41-6.2-60.1-13.9l-0.7,0.4c-3.6,11.7-7.9,23.4-14.6,33.8c-8.8,14.4-21.7,26.3-37.1,33.3
		c0,33.8,0,67.6,0,101.4c0.4,4.4-3.2,8.7-7.7,8.7c-4.7,0.4-8.9-4-8.4-8.6c0-35.2,0-70.4,0-105.6c-0.3-3.7,1.7-7.4,5.3-8.7
		c9-3.6,17.2-8.9,24-15.7c10.7-10.8,17.6-24.6,22.1-39c5.1-16.6,7.3-34,7.8-51.2c0.7-25.1-1.5-50.3-6.2-75c-0.9-3.6,1.4-7.6,4.8-8.9
		c2.4-0.8,5-1.1,7.4-1.6c12-2.4,23.8-5.8,35.2-10.3c27.1-10.7,51.3-29.1,68.2-53c19.5-27.8,30-61.6,31.5-95.4
		C552,206.1,489,206,426.1,206.1 M626.7,239.1c-3.9,16.4-8.6,32.7-16.4,47.7c-6.2,13.1-14.3,25.3-23.7,36.3
		c-4.1,4-7.2,8.9-11.8,12.2c-12.3,11.7-26.6,21.2-41.8,28.5c-15.1,7.6-31.5,12.3-48,16.1c0.9,13,3.8,25.9,3.7,38.9
		c1.9,9.8,0.3,19.7,1,29.6c0.4,4-0.9,8-1,12c0.2,8.4-1.9,16.6-2.6,24.9c4,2.7,8.9,3.8,13.3,5.6c11.3,3.8,22.9,6.7,34.7,8
		c4.9,1.1,10,0.3,15,1.2c3.8,0.6,7.7,0.3,11.5-0.3c26.4-0.6,52.3-9.1,75.2-22c30-17.4,54.7-43.4,71.9-73.4c1.4-2.2,2.3-5.1,4.9-6.2
		c3.1-1.1,6.5-0.6,9.4,0.6c10.2,3.8,20.8,6.5,31.6,8c7.7,0.5,15.4,0.6,23.2,0.1c16.6-2,32.2-9.9,43.8-21.9
		c12-12.5,20.2-28.1,26.2-44.2c7.6-20.7,11.9-42.5,14.3-64.5c1-6.7,0.8-13.6,2-20.3c0.3-6-0.4-11.9-0.1-17.9
		c-0.5-0.1-1.6-0.3-2.1-0.4c-77.1,0-154.2,0-231.3,0C628.4,237.8,627,237.7,626.7,239.1 M256.7,527.1c-7.1,1.5-14.4-0.3-21.4,1.9
		c1.4,21.4,8.4,43.3,23.3,59.2c2.5,2.9,6.2,5.1,7.8,8.7c0.6,11.1-0.2,22.2,0.4,33.3c16.9-4.1,31.5-15.2,41.7-29
		c10.4-14,16.5-30.8,19.9-47.8c2.5-13.9,4.2-28,3.3-42.1C307.7,520.3,282.2,525.4,256.7,527.1 M1450.9,519.3
		c2,5.3,4.8,10.2,6.7,15.5c7.2,17.7,11.5,36.4,14,55.2c3.8,28.8,2.3,57.9,2.6,86.9c-0.1,22.9-0.1,45.8,0,68.6
		c-0.1,16.7-0.2,33.5,0,50.2c6.2-0.6,12.1-2.7,17.9-4.7c23.8-8.7,44.4-27.3,53.4-51.2c0.3-14.1,0.1-28.3,0.1-42.4
		c-0.3-11.6,1.1-24,8-33.7c2.3-3.1,5.2-6.9,9.6-6.3c6.2-0.2,9.9,8.1,5.9,12.7c-4.2,4.4-6.8,10.3-6.8,16.4c-1.1,1.5-0.8,3.6-0.9,5.4
		c0,8.4-0.1,16.8,0.1,25.2c10.5-2.2,20.7-5.9,30.5-10.3c31.1-14.2,56.7-39.3,72.9-69.3c-6.6-3.7-13.1-7.3-19.7-11
		c-11-5.8-21.6-12.1-32.6-17.9c-43.9-24.4-87.8-48.7-131.7-73C1470.8,530.2,1461.1,524.1,1450.9,519.3 M1322.5,1342.2
		c-6.8,2.7-13.9,4.6-20.7,7.2c-2.2,8.6-5.5,17.1-11.4,23.8c-5,6.4-11.4,11.5-18,16.1c-14,9.9-30,16.5-46,22.6
		c0,5.2-0.1,10.4-0.8,15.6c-1,7.7,0.4,15.5-1.1,23.1c-0.6,10.3-2.1,20.6-4.7,30.6c-2.5,9-6.2,18.1-13.1,24.7
		c-2.6,3.1-5.9,5.8-7.4,9.6c14.4,0.7,28.6,5.1,41.3,11.9c5.9,2.9,10.8,7.3,16.4,10.7c1.4-3.2,2.4-6.5,3.7-9.7
		c5.1-13.5,12.9-25.9,22.2-37c6.6-7,13.3-14.2,21.3-19.6c0.2-10,1.3-20.2,4.6-29.7c3.1-9.1,7.6-17.6,11.8-26.2
		c9.6-18.6,13.5-39.5,14.8-60.1c1.1-6,0.7-12.2,0.4-18.3C1331.1,1338.4,1327,1340.8,1322.5,1342.2 M402.8,1431.7
		c-1.3,4.3-0.6,8.9-0.7,13.4c0.4,7.3,0.9,14.6,0.4,22c-0.7,8.1-1,16.2-0.7,24.3c-1.6,18-2.9,36.7-11.7,52.9
		c-3.1,5.8-8.6,9.9-12.3,15.4c16.3,3.3,32,9.8,45.5,19.5c3.5,2.3,6.4,5.4,10,7.5c7.8-26.4,24-50.5,46.2-66.8
		c2.7-1.7,2.6-5.3,3.3-8.1c2.8-14.4,4-29,5.5-43.5c0-7.2,1.8-14.2,0.7-21.4c-16-0.3-31.8-2.5-47.6-5.3
		C428.3,1439.2,415.5,1435.5,402.8,1431.7 M1071,1443c-12.6,1.5-25.3,2.4-37.9,3.7c-4.7-0.4-9.3,1.2-13.9,0.9
		c-5-0.3-9.8,1.5-14.8,0.9c-2.1,0.2-5.1-0.8-6.5,1.3c-0.9,12.5-2.5,25.1-6.5,37c-2.6,6.7-5.8,13.4-10.9,18.5c-2.3,2.5-5.3,4.7-6,8.3
		c19.7,1.5,39,9.4,54.2,22.1c0.7,0.6,2.3,1.9,2.6,0.1c8.1-26.1,25.2-48.9,47.1-65c1.6-9.5,4.3-19,4-28.7
		C1078.5,1441.8,1074.8,1442.7,1071,1443 M799.4,1459.4c-24.3,15.2-51.9,24.3-80,29.3c-1.3,9.2-1.4,18.5-3.1,27.6
		c-2.1,11.5-4.9,23.5-12.2,32.9c-3,3.5-6.5,6.6-8.9,10.6c6.7,1.5,13.3,3.2,19.7,5.7c9.9,3.5,18.9,9,27.4,15.1c2.8,2,5.3,4.6,8.4,6.2
		c7.1-24.9,22.2-47.2,42-63.7c2-1.7,4.5-3,6.1-5.2c3.3-15,5.1-30.3,6.3-45.6c1.1-5.4,0.2-11,1.5-16.4
		C803.7,1456,801.6,1458,799.4,1459.4 M961.9,1528.4c-9.1,13.3-17.9,27.4-21.4,43.2c26.9,0.2,53.7,0,80.6,0.1c1.3,0,3.7,0.1,3.6-1.8
		c-0.1-5.2,1.3-10.4,1.2-15.6C1009.7,1537,985.5,1527.6,961.9,1528.4 M1187.7,1530.2c-8.9,12.6-16.9,26.3-20.4,41.4
		c26.5,0.3,53,0,79.5,0.2c1.3-0.1,2.8,0,4.1-0.4c1-3.1,0.5-6.5,1.2-9.7c0.1-2.4,1.3-5.4-0.9-7.2
		C1234.7,1537.9,1210.9,1529.7,1187.7,1530.2 M366,1574.7c-9.5,13.6-18.4,28.1-22.4,44.3c28,0.2,56.1,0.1,84.1,0
		c-0.1-4.9,1-9.7,1.1-14.6c-12-12-26.6-21.8-43-26.7C379.4,1575.9,372.8,1574.1,366,1574.7 M683.4,1574.6
		c-9.7,13.5-18.5,28.1-22.4,44.4c28,0.2,56.1,0.2,84.1,0c0-4.3,0.6-8.5,1.1-12.8c0.4-1.6-1-2.7-2-3.6c-10.3-9.7-22.1-17.9-35.4-22.9
		C700.7,1576.7,692.1,1574.2,683.4,1574.6z"/>
	<path class="st1" d="M511.4,60.9c2.9-1.9,6.2,0.3,8.5,2.1c7.7,6.6,13.3,15.2,19.2,23.3c3,4.7,6.7,9.2,8.8,14.4
		c-8-1.2-16.2-1.5-24.3-0.6c-5.2,0.6-10.5,0.4-15.7,0.4c-0.2-9.6,0-19.1-0.1-28.7C508.1,68.1,508.3,63.5,511.4,60.9z"/>
	<path class="st1" d="M308.2,80.8c4.1-1.2,8.1,1.9,11.4,4c12.2,9.3,23.1,20.1,33.3,31.5c1.4,1.5,2.6,3.1,3.7,4.7
		c-16.6,2.6-33.2,5.7-49.2,10.8c-1.8,0.7-4.7,1.4-4.4,3.9c-0.3,14.1,0.1,28.3-0.2,42.4c-0.1,0.4-0.3,1.1-0.4,1.4
		c-0.8-13.1-0.1-26.2-0.4-39.3c0.3-14.4-0.4-28.7,0.6-43.1C303.5,91.6,303.8,84.9,308.2,80.8z"/>
	<path class="st2" d="M523.7,100.1c8.1-1,16.3-0.6,24.3,0.6l0.7,0.1c8.6,15.2,16.4,31.1,21.5,47.8c-20.6-2.9-41.4-4.4-62.2-3.7
		c-0.2-14.8-0.2-29.5,0-44.3C513.2,100.5,518.5,100.8,523.7,100.1z"/>
	<path class="st2" d="M307.4,131.8c16-5.1,32.6-8.3,49.2-10.8c3.8,3.5,6.7,8,10,12c7.6,9.8,14.3,20.2,20.9,30.8
		c-4.7,1.2-9.5,1.2-14.3,1.7c-18.9,1.9-37.6,5.1-56,9.5c-4.8,1.1-9.5,2.8-14.4,3.2c0.3-14.1-0.1-28.3,0.2-42.4
		C302.7,133.2,305.6,132.6,307.4,131.8z"/>
	<path class="st3" d="M508,144.8c20.8-0.7,41.6,0.8,62.2,3.7c2.5,5.4,3.6,11.4,5.3,17.1c2,7.9,4.1,15.8,5,23.9
		c-9.6,0.5-19.2,0-28.7,0.2c-2.3-0.1-4.7,0.3-7-0.4c-6.5-3.1-13.6-4.7-20.4-6.9c-5.4-1.6-10.8-3.4-16.4-4.5
		C507.8,166.9,507.9,155.9,508,144.8z"/>
	<path class="st3" d="M387.5,163.8c9.1,15.6,17.4,31.8,23.6,48.7c-20.3-2.2-40.6-3.3-61-2.8c-16.1,0.2-32.1,1.6-48,2.9
		c0.1-11-0.5-22.1,0.3-33c0.1-0.4,0.3-1.1,0.4-1.4c4.9-0.4,9.6-2.1,14.4-3.2c18.5-4.3,37.2-7.6,56-9.5
		C378,165,382.8,165,387.5,163.8z"/>
	<path class="st1" d="M508.1,177.9c5.6,1.1,11,2.9,16.4,4.5c6.8,2.2,13.9,3.8,20.4,6.9c-12.2,0.8-24.5,0.3-36.8,0.3
		C507.9,185.7,507.9,181.8,508.1,177.9z"/>
	<path class="st1" d="M156.3,207.4c13.6-2.1,27.4-1.2,41.1-1.4c29.5,0.1,59.1-0.2,88.6,0.1c-0.2,27.4,0,54.8-0.1,82.2
		c0.3,17.5-1.2,35.7-9.2,51.5c-5.1,10.4-14,19-24.9,23.2c-9.5,3.7-19.9,4.8-30,3.8c0.3-20.3,0-40.6,0.1-60.9c0-2.7,0.1-5.7-1.9-7.8
		c-2.9-3.6-9.1-3.8-12.1-0.2c-1.9,1.8-2.3,4.5-2.2,7.1c0,22.9,0,45.7,0,68.6c-0.1,2.7,0.7,5.6,3,7.2c1.9,1.8,4.7,1.7,7.1,2.1
		c1,0.6,1.9,1.5,1.9,2.7c5.1,36.7,7.5,73.9,6.6,111c-0.3,5.5,0.5,11.4-1.6,16.6c-22.9,0-45.9-0.3-68.8-0.3
		c-19.1-0.7-38.8-3.3-56-12.2c-12.6-6.5-23-16.9-29.6-29.5c-7.7-14.4-11-30.7-13.1-46.8c-3.1-26.7-2.5-53.7-2.5-80.6
		c0.1-13.3-0.2-26.6,0.4-39.8c1.3-23.9,10.4-47.9,27.9-64.5C101.2,220.1,129,210.9,156.3,207.4z"/>
	<path class="st4" d="M426.1,206.1c62.9-0.1,125.9,0,188.8,0c-1.5,33.8-12,67.6-31.5,95.4c-16.8,23.9-41,42.3-68.2,53
		c-11.4,4.5-23.2,7.9-35.2,10.3c-2.5,0.5-5,0.8-7.4,1.6c-3.5,1.3-5.7,5.3-4.8,8.9c4.7,24.7,6.9,49.9,6.2,75
		c-0.6,17.3-2.7,34.7-7.8,51.2c-4.4,14.4-11.4,28.2-22.1,39c-6.8,6.9-15.1,12.2-24,15.7c-3.5,1.3-5.6,5-5.3,8.7
		c0,35.2,0,70.4,0,105.6c-0.4,4.6,3.7,9.1,8.4,8.6c4.5,0.1,8.1-4.3,7.7-8.7c0-33.8,0-67.6,0-101.4c15.4-7,28.3-19,37.1-33.3
		c6.6-10.4,10.9-22.1,14.6-33.8l0.7-0.4c19.2,7.6,39.5,12.7,60.1,13.9c27.5,1.8,55.2-3.6,80.5-14.1c12.5,8.2,24.3,17.4,36.2,26.5
		c27.8,21.6,54.3,45.2,76.2,72.8c18.8,23.6,33.9,50.7,40.9,80.2c6,25.4,7.7,51.5,7.7,77.5c-0.1,66,0,132.1-0.1,198.1
		c-0.5,4.6,3.6,9.1,8.4,8.8c4.6,0.1,8.3-4.3,7.8-8.8c0-51.2,0-102.4,0-153.6c-0.2-24.4,0.8-48.8-0.8-73.2
		c-1.4-24.1-4.9-48.2-12.8-71c-10.4-29.7-27.9-56.4-48.5-80c-28.7-32.9-63.2-60-98.4-85.5c20.4-11.5,38.8-26.4,54.2-44
		c0.9-1.3,2.3-2.2,4-2c76.2,0,152.4,0,228.6,0c3.4,0.1,7.1-0.6,10.2,1.3c26.8,12.9,53.5,27.2,75.8,47.3
		c12.1,10.9,22.6,23.8,30.1,38.3c8.7,16.6,13.7,35,16.8,53.4c3.2,19.6,4.4,39.4,4.9,59.1c0.8,25.6,0.4,51.2,0.1,76.8
		c-0.3,78.7-1.2,157.3-0.1,236c0.1,6-0.1,12.1,0.6,18.1c0.7,4.3,5.4,7.2,9.6,6.2c3.9-0.7,6.6-4.7,6.3-8.6
		c-0.7-18.8-0.7-37.7-0.7-56.5c-0.3-62.3,0-124.6,0.4-186.9c0.2-26.9,1.1-53.8,0.1-80.7c-0.5-24.1-2-48.2-6.2-71.9
		c-3.4-18-8.6-35.9-17.2-52.2c-12.2-23.8-31.5-43.3-53.2-58.7c-8.6-6.1-17.5-11.7-26.6-16.8c-2.1-1.2-4.4-2.2-6.1-4
		c23-0.4,46-0.1,69.1-0.2c66.3,0,132.6,0,199,0c11.2-0.1,22.4,0.4,33.5-0.9c31.4-1.5,63.5,3.3,92.4,16
		c25.2,11.1,47.3,29.3,62.3,52.5c16.3,24.9,24.6,54.3,27.8,83.7c1.8,15,1.7,30.2,1.7,45.3c0,112,0,223.9,0,335.9
		c-0.1,28.6,0.2,57.2-0.2,85.8c-9.8,15.3-20.3,30.2-32.6,43.6c-9.7,11.3-20.8,21.2-32.2,30.7c-19.7,16.3-41.5,29.9-64.5,40.9
		c-8.6,3.6-16.9,8.3-26.1,10.3c-0.2-4.2,1-9.4-2.6-12.5c-4.1-4.1-11.8-1.9-13.4,3.7c-0.7,4.4-0.3,8.8-0.3,13.2
		c-0.1,8.9,0.1,17.7-0.1,26.6c-5.8,3.1-10.7,7.6-16.3,11c-30.5,19.8-65,32.5-99.7,42.8c-43.4,12.5-87.9,20.6-132.6,26.5
		c-48.3,6.3-96.9,10.1-145.6,11.9c-9.9,0.7-19.9,0.5-29.9,0.8c-12.3,0.8-24.6,0.3-36.9,0.6c-0.4-29.6-0.9-59.2-1-88.8
		c-0.4-23.7-0.7-47.5-0.9-71.2c0.1-4,0.3-8.9-3.5-11.4c-4.6-3.8-12.6-0.2-12.6,5.8c0.1,37,0.8,74,1.2,111c0,21.7,0.7,43.3,0.7,65
		c-0.2-1-0.5-2-0.7-2.9c-11.5,4-23,8.1-34.7,11.3c-42.6,11.7-86.6,18.6-130.8,18.3c-46.4,0.4-93-7.4-136.3-24.2
		c0-44.1,0-88.2,0-132.3c0.1-4.8-4.7-9-9.5-7.9c-4.1,0.6-7,4.7-6.7,8.8c0,40.7,0,81.5,0,122.3c-31.1,1.5-61.1-9.6-88.1-24.2
		c-28.9-15.8-54.9-36.5-78.4-59.4c-9-9.6-18.1-19.2-25.1-30.5c-0.3-59.5,0-119-0.1-178.5c0.3-4.8-4.4-9.3-9.2-8.4
		c-3.3,0.3-6.1,3.1-6.8,6.3c-0.7,8.7-0.1,17.4-0.3,26.2c0,37.4,0.1,74.8-0.1,112.2c-6.8-1-12.9-4.4-19.1-7.3
		c-15.6-7.7-29.7-18.1-43-29.2c-25.8-22-48.5-47.4-69.5-73.9c-16.6-21-32.1-42.8-46.8-65.1c-2.2-3.4-4-7.1-6.9-10
		c-0.7,10.9-0.1,22-0.3,32.9l-0.3-0.7c0-163.4,0.1-326.8,0-490.2c6.1,1.3,11.8,3.9,17.9,5c25.3,5.9,51.4,4.2,77.1,4.7
		c9.5,0,19,0.1,28.5-0.1c1.5,27.3,11.5,54.9,31.6,74c0.1,12,0,24,0.1,36c-0.2,4.5,3.7,8.8,8.3,8.4c5.3-0.3,10.4-1.7,15.4-3.3
		c15-4.9,28.7-13.8,39.4-25.4c10.7-11.5,18.4-25.5,23.6-40.3c8.3-23.8,10.4-49.2,9.9-74.3c28.1-13.9,52.8-35.1,69.9-61.5
		c20.8-31.9,30.7-70,31.9-107.9C451.2,291,442,247,426.1,206.1z"/>
	<path class="st1" d="M302.1,212.6c16-1.3,32-2.7,48-2.9c20.4-0.5,40.8,0.6,61,2.8c6.6,16.9,12,34.2,15.7,52
		c-27.4-10.7-56.4-17.6-85.8-19c-5.8-0.6-11.7-1-17.6-0.4c-6.7,0.8-13.5,0.4-20.1,2c-0.9,14.9-0.2,30-0.3,44.9l-0.9,0
		C301.9,265.6,302.1,239.1,302.1,212.6z"/>
	<path class="st5" d="M626.7,239.1c0.3-1.4,1.7-1.3,2.9-1.3c77.1,0,154.2,0,231.3,0c0.5,0.1,1.6,0.3,2.1,0.4
		c-77.2-0.1-154.4,0-231.6-0.1C629.7,238,628.1,238.5,626.7,239.1z"/>
	<path class="st6" d="M626.7,239.1c1.5-0.7,3.1-1.1,4.7-1.1c77.2,0.1,154.4,0,231.6,0.1c-0.3,6,0.4,11.9,0.1,17.9
		c-1.1,6.7-0.9,13.6-2,20.3c-2.4,21.9-6.6,43.7-14.3,64.5c-6,16.1-14.2,31.7-26.2,44.2c-11.6,12-27.2,20-43.8,21.9
		c-7.7,0.5-15.4,0.4-23.2-0.1c-10.8-1.5-21.4-4.2-31.6-8c-3-1.2-6.4-1.7-9.4-0.6c-2.6,1.1-3.5,3.9-4.9,6.2
		c-17.2,30-41.9,56-71.9,73.4c-22.9,13-48.8,21.5-75.2,22c-3.8,0.6-7.7,0.9-11.5,0.3c-5-0.9-10.1-0.1-15-1.2
		c-11.8-1.4-23.4-4.3-34.7-8c-4.5-1.8-9.3-2.8-13.3-5.6c0.7-8.3,2.8-16.5,2.6-24.9c0.1-4,1.4-7.9,1-12c-0.7-9.9,0.9-19.8-1-29.6
		c0.1-13.1-2.8-25.9-3.7-38.9c16.5-3.8,32.9-8.5,48-16.1c15.3-7.3,29.5-16.8,41.8-28.5c4.6-3.4,7.7-8.3,11.8-12.2
		c9.4-11,17.4-23.3,23.7-36.3C618.1,271.8,622.8,255.5,626.7,239.1 M803.9,281.4c-2.6,1.5-4.3,4.2-4.8,7.1c0.3,2.9,2.3,5.4,4.3,7.4
		c5.3,5.2,10.5,10.4,15.7,15.7c2,2,4.5,4,7.4,4.3c3.2-0.6,7.1-2.6,7.3-6.3c0.1-2.2,0.5-5-1.5-6.6c-6.8-6.8-13.6-13.6-20.3-20.3
		C810,280.4,806.6,281.1,803.9,281.4z"/>
	<path class="st2" d="M303.3,247.2c6.6-1.6,13.4-1.2,20.1-2c5.9-0.6,11.7-0.2,17.6,0.4c29.4,1.4,58.4,8.3,85.8,19
		c4.6,20.9,7,42.3,6.6,63.6c-29.7-15.1-61.3-26.7-94.1-32.6c-12-2.2-24.2-3-36.3-3.4C303,277.1,302.4,262.1,303.3,247.2z"/>
	<path class="st0" d="M803.9,281.4c2.7-0.3,6.1-1,8.1,1.2c6.8,6.8,13.6,13.6,20.3,20.3c2,1.6,1.5,4.3,1.5,6.6
		c-0.2,3.7-4,5.7-7.3,6.3c-3-0.3-5.4-2.3-7.4-4.3c-5.2-5.3-10.4-10.5-15.7-15.7c-2-2-4-4.5-4.3-7.4
		C799.6,285.6,801.4,282.9,803.9,281.4z"/>
	<path class="st3" d="M302,292.1l0.9,0c12.2,0.4,24.3,1.3,36.3,3.4c32.8,5.9,64.5,17.5,94.1,32.6c0.2,21.1-2.8,42.3-9.2,62.3
		c-26.5-19-54.8-35.6-84.6-49.1c-13.3-6.2-26.9-11.6-40.5-16.9C300.9,313.8,302.3,303,302,292.1z"/>
	<path class="st1" d="M299.1,324.5c13.6,5.3,27.2,10.7,40.5,16.9c29.7,13.5,58,30,84.6,49.1c-10.2,33.6-30.8,64.7-59.9,84.8
		c-2.2-8.1-6.1-15.6-9.6-23.1c-11.4-24-26.3-46.3-43.8-66.3c-5-5.5-10.5-10.5-15.6-15.9c-3.9-3.6-7.7-7.7-12.6-9.9
		C291.2,349.9,296.2,337.3,299.1,324.5z"/>
	<path class="st2" d="M260.9,376.8c8.4-3.8,15.8-9.7,21.8-16.7c4.9,2.2,8.6,6.3,12.6,9.9c5.1,5.4,10.6,10.3,15.6,15.9
		c17.5,20,32.5,42.3,43.8,66.3c3.5,7.6,7.4,15.1,9.6,23.1c-23.3,17.5-51.4,27.5-79.9,32.5c-8.8-43.1-21.4-85.8-41.7-125
		c0.5-0.2,1.5-0.5,2-0.7C250.3,380.7,255.8,379.3,260.9,376.8z"/>
	<path class="st3" d="M215.8,382.9c9.7,1,19.3,0.5,29-0.8c-0.5,0.2-1.5,0.5-2,0.7c20.3,39.2,32.9,81.9,41.7,125
		c-11.6,2.5-23.4,3.3-35.1,4.4c-8.9,0.2-17.7,1.2-26.6,1c2.2-5.3,1.3-11.1,1.6-16.6c0.9-37.1-1.5-74.2-6.6-111
		C217.7,384.3,216.8,383.5,215.8,382.9z"/>
	<path class="st6" d="M256.7,527.1c25.6-1.8,51-6.8,75-15.9c0.9,14.1-0.8,28.2-3.3,42.1c-3.4,17-9.5,33.8-19.9,47.8
		c-10.3,13.8-24.9,24.9-41.7,29c-0.5-11.1,0.3-22.2-0.4-33.3c-1.6-3.6-5.3-5.8-7.8-8.7c-14.9-15.9-22-37.8-23.3-59.2
		C242.2,526.9,249.6,528.6,256.7,527.1z"/>
	<path class="st4" d="M1450.9,519.3c10.3,4.8,20,10.9,30,16.3c43.9,24.4,87.8,48.6,131.7,73c-8.4,9.4-18.6,16.9-28.8,24.2
		c-32.9,22.3-71.1,35.3-109.6,44.2c-0.3-29,1.2-58.1-2.6-86.9c-2.5-18.9-6.9-37.6-14-55.2C1455.6,529.5,1452.8,524.5,1450.9,519.3z"
		/>
	<path class="st7" d="M1612.6,608.6c11,5.8,21.6,12.1,32.6,17.9c-1.9,4.6-5.4,8.2-8.5,11.9c-19.4,22.8-45.7,39.3-74.2,48
		c0-6.1,2.6-12,6.8-16.4c4-4.6,0.3-12.9-5.9-12.7c-4.4-0.6-7.3,3.2-9.6,6.3c-6.9,9.7-8.3,22.1-8,33.7
		c-15.9,18.5-35.7,34.1-58.4,43.4c-4.3,1.8-8.7,3.3-13.1,4.8c-0.1-22.9-0.1-45.8,0-68.6c38.5-8.9,76.6-22,109.6-44.2
		C1594,625.5,1604.1,617.9,1612.6,608.6z"/>
	<path class="st5" d="M1645.2,626.5c6.6,3.6,13.2,7.3,19.7,11c-16.2,30-41.8,55.1-72.9,69.3c-9.8,4.4-20,8.1-30.5,10.3
		c-0.2-8.4-0.1-16.8-0.1-25.2c0.2-1.8-0.2-3.9,0.9-5.4c28.6-8.7,54.9-25.2,74.2-48C1639.7,634.6,1643.3,631.1,1645.2,626.5z"/>
	<path class="st5" d="M1487.3,740.8c22.7-9.3,42.5-24.8,58.4-43.4c0,14.1,0.2,28.3-0.1,42.4c-9,23.9-29.6,42.5-53.4,51.2
		c-5.8,2-11.7,4.1-17.9,4.7c-0.2-16.7-0.2-33.5,0-50.2C1478.6,744.1,1483,742.5,1487.3,740.8z"/>
	<path class="st7" d="M96.5,977.6c2.9,2.9,4.6,6.6,6.9,10c14.8,22.3,30.3,44.1,46.8,65.1c21.1,26.5,43.7,51.9,69.5,73.9
		c13.3,11.1,27.4,21.5,43,29.2c6.1,3,12.2,6.3,19.1,7.3c0.1,18.5,0.3,37-0.1,55.5c-14.1-4.1-27-11.5-39.2-19.4
		c-28.4-18.8-52.9-42.9-74.4-69.1c-29.5-36.1-53.7-76.7-71.9-119.7C96.4,999.5,95.8,988.5,96.5,977.6z"/>
	<path class="st5" d="M95.9,1009.8l0.3,0.7c18.1,43,42.3,83.5,71.9,119.7c21.6,26.2,46,50.3,74.4,69.1c12.2,7.9,25.2,15.3,39.2,19.4
		c0.4-18.5,0.2-37,0.1-55.5c0.1-37.4,0-74.8,0.1-112.2c0.2-8.7-0.4-17.5,0.3-26.2c0,95.5,0.2,190.9,0.1,286.4
		c-5.5-1.7-10.1-5.3-15.2-7.9c-28.9-17-56.3-36.9-80.3-60.3c-36.2-34.9-65-78.1-80.2-126.1c-7-22.5-11.5-45.9-10.9-69.5
		C95.8,1034.7,95.4,1022.2,95.9,1009.8z"/>
	<path class="st7" d="M1425.2,1109c12.4-13.4,22.8-28.3,32.6-43.6c0.5,15.2,0.1,30.4,0.2,45.6c-0.2,5.8,0.3,11.6-0.2,17.4
		c-7.9,12.4-16.1,24.6-25.6,35.8c-23.3,27.9-51.9,51-83.1,69.4c-15,8.7-30.5,16.7-46.7,23c-0.1-21.9-0.1-43.8,0-65.7
		c9.2-2,17.5-6.7,26.1-10.3c23-11,44.8-24.6,64.5-40.9C1404.4,1130.3,1415.6,1120.3,1425.2,1109z"/>
	<path class="st5" d="M1432.3,1164.2c9.5-11.2,17.7-23.4,25.6-35.8c0.6,11.8,0.1,23.6,0.3,35.4c0.3,18.3-4.8,36.3-12.1,53
		c-13.7,31.1-37,57.5-64.5,77.2c-14.7,10.6-30.7,19.4-47.3,26.7c-10.4,4.4-21,8.8-31.9,11.7c-0.1-25.3-0.1-50.5,0-75.8
		c16.2-6.2,31.7-14.3,46.7-23C1380.4,1215.3,1409,1192.1,1432.3,1164.2z"/>
	<path class="st5" d="M1286,1195.2c0-4.4-0.4-8.8,0.3-13.2c0,49.7,0.1,99.5,0.2,149.2c0,6.1,0,12.3-1,18.3
		c-2.1,9.7-9.1,17.3-16.5,23.4c-11.5,9.1-24.9,15.4-38.4,20.8c-17.8,6.9-36.2,12-54.8,16.4c-43.3,10-87.5,15.7-131.7,19.9
		c-15.1,1.2-30.3,2.6-45.4,3.2c-4.3,0.5-8.6,0.7-13,0.7c-5.9-0.1-11.7,0.9-17.6,0.9c-11.7-0.3-23.4,0.9-35.2,0.9
		c-18.2-0.1-36.4,0.5-54.6-0.8c-17.2,0-34.4-1.6-51.5-3.3c-1.7-0.1-1.1-2.2-1.3-3.2c-0.1-17,0.1-34.1-0.2-51.1
		c10.6-0.2,21.1,0.8,31.6,1c9-0.1,17.9,0.9,26.8,0.7c14.8,0,29.6,0,44.4,0c46.1-1,92.2-3.7,137.9-9.8c39.8-5.3,79.4-12.9,117.8-24.7
		c26.8-8.4,53.4-18.7,77.2-33.8c8.2-5.2,16-11.1,23-17.8c1.9-1.5,1.6-4,1.6-6.2c-0.2-21.7,0.1-43.4-0.2-65
		C1286.1,1213,1286,1204.1,1286,1195.2z"/>
	<path class="st7" d="M298.4,1205.2c7,11.2,16.1,20.9,25.1,30.5c23.5,23,49.5,43.6,78.4,59.4c26.9,14.6,57,25.7,88.1,24.2
		c0.1,16.3,0.1,32.6,0,49c-15.2-0.2-30.4-1.5-45.3-4.9c-30.4-6.8-59-20.7-84.3-38.7c-23.2-16.5-43.8-36.4-62.1-58.2
		C298.3,1246.1,298.1,1225.7,298.4,1205.2z"/>
	<path class="st7" d="M1269.6,1232.8c5.7-3.4,10.5-7.9,16.3-11c0.3,21.7,0,43.4,0.2,65c-0.1,2.1,0.3,4.7-1.6,6.2
		c-7,6.7-14.8,12.6-23,17.8c-23.8,15.1-50.4,25.4-77.2,33.8c-38.4,11.8-78,19.4-117.8,24.7c-45.7,6.1-91.8,8.8-137.9,9.8
		c-14.8,0-29.6,0-44.4,0c-9,0.2-17.9-0.8-26.8-0.7c-10.6-0.2-21.1-1.2-31.6-1c-0.6-20.6-0.7-41.3-0.7-61.9
		c12.3-0.3,24.6,0.1,36.9-0.6c10-0.3,19.9-0.1,29.9-0.8c48.7-1.8,97.3-5.6,145.6-11.9c44.7-6,89.2-14,132.6-26.5
		C1204.6,1265.3,1239,1252.6,1269.6,1232.8z"/>
	<path class="st5" d="M298.3,1266.5c18.2,21.8,38.9,41.7,62.1,58.2c25.3,18,53.9,31.9,84.3,38.7c14.9,3.4,30.1,4.7,45.3,4.9
		c0.2,21,0.2,42.1,0,63.1c-14.4-0.1-28.8-2.1-43-4.5c-28-5-55.4-14-79.9-28.5c-25.3-14.8-47.5-35.4-62.2-60.9
		c-2.4-4.8-5.6-9.3-6.6-14.6C298.2,1304.1,298.2,1285.3,298.3,1266.5z"/>
	<path class="st7" d="M773.3,1334.3c11.7-3.2,23.2-7.4,34.7-11.3c0.2,1,0.5,1.9,0.7,2.9c0.5,16.8,0.2,33.7,0.6,50.6
		c-22.7,14.5-48.7,22.3-74.7,28.3c-65,14.2-133.8,13-197.7-5.9c-10.4-2.9-20.4-7-30.6-10.4c-0.2-20-0.1-40,0-60
		c43.3,16.8,89.9,24.6,136.3,24.2C686.7,1353,730.8,1346,773.3,1334.3z"/>
	<path class="st6" d="M1322.5,1342.2c4.4-1.4,8.5-3.8,13.1-4.7c0.3,6.1,0.7,12.2-0.4,18.3c-1.3,20.7-5.2,41.6-14.8,60.1
		c-4.2,8.6-8.7,17.1-11.8,26.2c-3.3,9.6-4.3,19.7-4.6,29.7c-8,5.4-14.6,12.6-21.3,19.6c-9.3,11-17,23.5-22.2,37
		c-1.3,3.2-2.3,6.5-3.7,9.7c-5.6-3.4-10.5-7.8-16.4-10.7c-12.8-6.7-26.9-11.2-41.3-11.9c1.6-3.8,4.8-6.5,7.4-9.6
		c6.9-6.6,10.7-15.6,13.1-24.7c2.6-10,4.2-20.3,4.7-30.6c1.5-7.6,0.1-15.4,1.1-23.1c0.7-5.2,0.9-10.4,0.8-15.6
		c15.9-6.2,31.9-12.7,46-22.6c6.6-4.7,13.1-9.7,18-16.1c5.9-6.7,9.2-15.2,11.4-23.8C1308.7,1346.7,1315.8,1344.9,1322.5,1342.2z"/>
	<path class="st5" d="M734.6,1404.8c26-6,52.1-13.9,74.7-28.3c0.8,18.8,0.7,37.6,0.6,56.4c-14.7,11.7-31.2,21.3-48.7,28.2
		c-31.5,12.3-65.6,16.6-99.3,16.4c-29.4-0.7-58.8-4.4-87.4-11.6c-21-5.4-42.1-11.7-61.2-22.1c-2.9-2.1-7.8-3.6-7.2-7.9
		c0.1-15.8-0.1-31.6,0.1-47.4c10.2,3.5,20.2,7.6,30.6,10.4C600.9,1417.9,669.6,1419,734.6,1404.8z"/>
	<path class="st6" d="M402.8,1431.7c12.7,3.8,25.5,7.5,38.6,9.9c15.7,2.8,31.6,5,47.6,5.3c1.1,7.2-0.7,14.2-0.7,21.4
		c-1.5,14.5-2.6,29.2-5.5,43.5c-0.7,2.8-0.5,6.4-3.3,8.1c-22.2,16.4-38.4,40.4-46.2,66.8c-3.6-2.1-6.6-5.1-10-7.5
		c-13.5-9.8-29.2-16.3-45.5-19.5c3.7-5.5,9.1-9.5,12.3-15.4c8.8-16.2,10.1-35,11.7-52.9c-0.3-8.1,0-16.2,0.7-24.3
		c0.5-7.3,0-14.7-0.4-22C402.1,1440.7,401.4,1436.1,402.8,1431.7z"/>
	<path class="st6" d="M1071,1443c3.7-0.3,7.4-1.3,11.3-0.9c0.3,9.7-2.5,19.2-4,28.7c-21.8,16.1-39,38.9-47.1,65
		c-0.3,1.8-1.9,0.5-2.6-0.1c-15.2-12.6-34.5-20.6-54.2-22.1c0.7-3.6,3.7-5.8,6-8.3c5.1-5.2,8.3-11.8,10.9-18.5
		c4-11.9,5.7-24.5,6.5-37c1.4-2.1,4.4-1.2,6.5-1.3c5,0.6,9.8-1.2,14.8-0.9c4.7,0.3,9.2-1.3,13.9-0.9
		C1045.7,1445.5,1058.4,1444.5,1071,1443z"/>
	<path class="st6" d="M799.4,1459.4c2.2-1.4,4.3-3.3,7.1-3.4c-1.3,5.4-0.4,10.9-1.5,16.4c-1.1,15.3-3,30.6-6.3,45.6
		c-1.6,2.2-4.1,3.4-6.1,5.2c-19.9,16.5-35,38.8-42,63.7c-3.2-1.6-5.6-4.2-8.4-6.2c-8.5-6.1-17.5-11.6-27.4-15.1
		c-6.4-2.5-13-4.1-19.7-5.7c2.4-4,5.9-7.1,8.9-10.6c7.3-9.4,10.2-21.4,12.2-32.9c1.7-9.1,1.8-18.4,3.1-27.6
		C747.5,1483.7,775.1,1474.6,799.4,1459.4z"/>
	<path class="st8" d="M961.9,1528.4c23.6-0.9,47.7,8.6,63.9,26c0.2,5.2-1.3,10.3-1.2,15.6c0.1,2-2.3,1.8-3.6,1.8
		c-26.9-0.2-53.7,0.1-80.6-0.1C944,1555.8,952.8,1541.7,961.9,1528.4z"/>
	<path class="st8" d="M1187.7,1530.2c23.2-0.5,47,7.6,63.6,24.2c2.1,1.8,1,4.8,0.9,7.2c-0.7,3.2-0.2,6.6-1.2,9.7
		c-1.3,0.4-2.8,0.3-4.1,0.4c-26.5-0.2-53,0.1-79.5-0.2C1170.8,1556.5,1178.8,1542.8,1187.7,1530.2z"/>
	<path class="st8" d="M366,1574.7c6.8-0.6,13.4,1.2,19.8,3.1c16.4,4.9,30.9,14.7,43,26.7c0,4.9-1.2,9.7-1.1,14.6
		c-28,0.1-56.1,0.2-84.1,0C347.6,1602.8,356.5,1588.3,366,1574.7z"/>
	<path class="st8" d="M683.4,1574.6c8.7-0.4,17.3,2.1,25.4,5c13.3,5,25.1,13.2,35.4,22.9c0.9,1,2.4,2,2,3.6
		c-0.5,4.2-1.1,8.5-1.1,12.8c-28,0.3-56.1,0.2-84.1,0C664.9,1602.7,673.7,1588.1,683.4,1574.6z"/>
</g>
</svg>
