<?xml version="1.0" encoding="UTF-8" standalone="no"?>
<!-- Created with Inkscape (http://www.inkscape.org/) -->

<svg
   version="1.1"
   id="svg25726"
   xml:space="preserve"
   width="530.66669"
   height="530.66669"
   viewBox="0 0 530.66669 530.66669"
   sodipodi:docname="swimmer-publicdomainvectors.org.svg"
   inkscape:version="1.1.2 (b8e25be833, 2022-02-05)"
   xmlns:inkscape="http://www.inkscape.org/namespaces/inkscape"
   xmlns:sodipodi="http://sodipodi.sourceforge.net/DTD/sodipodi-0.dtd"
   xmlns="http://www.w3.org/2000/svg"
   xmlns:svg="http://www.w3.org/2000/svg"><defs
     id="defs25730"><clipPath
       clipPathUnits="userSpaceOnUse"
       id="clipPath25740"><path
         d="M 0,398 H 398 V 0 H 0 Z"
         id="path25738" /></clipPath></defs><sodipodi:namedview
     id="namedview25728"
     pagecolor="#ffffff"
     bordercolor="#666666"
     borderopacity="1.0"
     inkscape:pageshadow="2"
     inkscape:pageopacity="0.0"
     inkscape:pagecheckerboard="0"
     showgrid="false"
     inkscape:zoom="1.5659547"
     inkscape:cx="265.33334"
     inkscape:cy="265.33334"
     inkscape:window-width="1920"
     inkscape:window-height="1018"
     inkscape:window-x="-8"
     inkscape:window-y="-8"
     inkscape:window-maximized="1"
     inkscape:current-layer="g25732" /><g
     id="g25732"
     inkscape:groupmode="layer"
     inkscape:label="swimmer-publicdomainvectors.org"
     transform="matrix(1.3333333,0,0,-1.3333333,0,530.66667)"><g
       id="g25734"><g
         id="g25736"
         clip-path="url(#clipPath25740)"><path
           d="m 160.627,119.751 c 70.271,0 127.585,11.745 127.585,26.147 0,14.401 -57.314,26.149 -127.585,26.149 -70.273,0 -127.587,-11.748 -127.587,-26.149 0,-14.402 57.314,-26.147 127.587,-26.147"
           style="fill:#70aeed;fill-opacity:1;fill-rule:evenodd;stroke:none"
           id="path25742" /><path
           d="m 237.896,193.295 c -9.462,-7.987 -19.43,-10.169 -29.734,-8.496 7.181,4.602 12.564,12.305 15.121,24.889 18.484,4.406 28.177,21.267 36.544,40.008 29.402,-7.351 59.435,2.625 90.096,-5.041 5.065,-21.877 12.395,-26.226 21.94,-37.482 0.299,-0.352 0.741,-0.496 1.188,-0.391 0.449,0.106 0.778,0.432 0.887,0.88 0.913,3.738 -4.125,9.081 -6.686,14.942 8.295,-4.342 13.19,-13.024 17.232,-21.729 0.205,-0.439 0.623,-0.702 1.108,-0.693 0.483,0.007 0.895,0.287 1.081,0.734 0.527,1.255 0.378,2.945 -0.451,5.46 1.448,-2.162 2.588,-4.332 3.375,-6.691 0.171,-0.513 0.643,-0.836 1.181,-0.816 0.54,0.021 0.983,0.381 1.115,0.904 0.361,1.43 0.361,3.181 -0.384,4.873 0.358,-0.279 0.831,-0.767 1.33,-1.306 0.358,-0.388 0.904,-0.497 1.382,-0.273 0.479,0.224 0.748,0.707 0.684,1.233 -0.467,3.767 -1.741,8.256 -4.577,12.791 4.456,6.103 -6.742,23.142 -28.747,41.426 -32.133,15.962 -66.036,22.46 -100.365,26.697 -7.882,0.973 -14.968,-0.681 -21.606,-5.044 -41.544,-27.316 -71.209,-61.42 -92.878,-100.097 -20.897,-11.443 -41.794,-22.89 -62.692,-34.337 -11.641,-12.848 111.309,-25.006 169.486,-4.095 0.651,4.93 -0.861,8.932 -3.15,12.6 -4.159,13.019 -8.32,26.038 -12.48,39.054"
           style="fill:#ffcc99;fill-opacity:1;fill-rule:evenodd;stroke:none"
           id="path25744" /><path
           d="m 259.827,249.696 c 29.402,-7.351 59.435,2.625 90.096,-5.041 -25.192,11.991 -59.992,5.078 -88.334,16.595 0.235,-4.793 -0.615,-8.464 -1.762,-11.554"
           style="fill:#f0b478;fill-opacity:1;fill-rule:evenodd;stroke:none"
           id="path25746" /><path
           d="m 237.896,193.295 c -1.835,-1.549 -3.692,-2.88 -5.567,-4.009 -1.164,-3.195 -2.204,-6.469 -3.205,-9.698 -2.125,-6.844 -2.188,-13.264 -0.203,-20.147 l 1.698,-5.894 c 0.55,-1.904 1.65,-3.361 3.326,-4.414 l 3.09,-1.938 c 2.029,-1.274 4.254,-1.61 6.571,-0.996 l 3.287,0.872 c 2.118,0.563 4.094,1.151 6.024,1.804 -0.588,1.898 -1.48,3.668 -2.541,5.366 -4.159,13.019 -8.32,26.038 -12.48,39.054"
           style="fill:#f0b478;fill-opacity:1;fill-rule:evenodd;stroke:none"
           id="path25748" /><path
           d="m 268.63,219.627 c 16.528,0 29.928,-13.398 29.928,-29.926 0,-19.624 -16.166,-26.835 -31.471,-33.84 -5.028,-2.298 -9.482,-3.895 -14.824,-5.312 l -3.284,-0.875 c -2.319,-0.612 -4.545,-0.276 -6.575,0.997 l -3.087,1.936 c -1.679,1.054 -2.777,2.51 -3.326,4.416 l -1.701,5.894 c -1.982,6.886 -1.919,13.304 0.203,20.146 5.462,17.594 12.019,36.564 34.137,36.564"
           style="fill:#ffcc99;fill-opacity:1;fill-rule:evenodd;stroke:none"
           id="path25750" /><path
           d="m 243.575,205.36 c 9.298,6.022 6.914,-1.696 1.9,-12.51 7.332,10.162 15.138,14.15 23.313,13.388 18.131,-8.612 24.974,-17.22 25.044,-25.832 -0.576,-6.768 -3.702,-10.398 -7.026,-13.784 29.723,20.835 11.314,52.628 -17.299,57.765 -13.5,-3.028 -21.923,-10.036 -25.932,-19.027"
           style="fill:#333333;fill-opacity:1;fill-rule:evenodd;stroke:none"
           id="path25752" /><path
           d="m 269.424,181.465 c 1.045,-0.647 1.963,-1.461 2.735,-2.462 0.822,-1.061 1.48,-2.326 1.953,-3.811 1.173,0.308 2.48,0.23 3.79,-0.196 1.911,-0.62 3.845,-1.994 5.347,-3.967 1.503,-1.973 2.311,-4.2 2.402,-6.211 0.096,-2.139 -0.612,-4.047 -2.146,-5.215 -1.531,-1.167 -3.56,-1.342 -5.597,-0.678 -1.911,0.621 -3.845,1.992 -5.349,3.967 -1.503,1.972 -2.309,4.2 -2.4,6.209 -0.096,2.125 0.602,4.022 2.113,5.191 -0.408,1.381 -0.985,2.531 -1.712,3.473 -0.687,0.885 -1.517,1.59 -2.484,2.136 l -0.015,-0.011 c -1.534,-1.168 -3.562,-1.342 -5.6,-0.682 -1.912,0.624 -3.846,1.993 -5.348,3.967 -1.503,1.972 -2.31,4.205 -2.401,6.21 -0.097,2.141 0.611,4.049 2.145,5.218 1.532,1.165 3.561,1.341 5.597,0.676 1.912,-0.619 3.846,-1.989 5.35,-3.964 1.503,-1.973 2.308,-4.203 2.399,-6.211 0.062,-1.346 -0.197,-2.604 -0.779,-3.639"
           style="fill:#736460;fill-opacity:1;fill-rule:evenodd;stroke:none"
           id="path25754" /><path
           d="m 268.179,185.013 c -0.072,1.609 -0.743,3.428 -1.993,5.069 -1.251,1.644 -2.828,2.773 -4.362,3.273 -1.406,0.457 -2.763,0.371 -3.735,-0.371 -0.974,-0.74 -1.419,-2.026 -1.353,-3.505 0.075,-1.612 0.743,-3.431 1.993,-5.074 1.251,-1.64 2.828,-2.77 4.362,-3.269 1.406,-0.457 2.766,-0.369 3.738,0.37 0.972,0.742 1.417,2.025 1.35,3.507 m 15.447,-20.288 c -0.074,1.612 -0.744,3.431 -1.993,5.074 -1.251,1.64 -2.826,2.772 -4.361,3.271 -1.408,0.457 -2.766,0.368 -3.739,-0.372 -0.971,-0.74 -1.417,-2.026 -1.349,-3.503 0.072,-1.611 0.743,-3.433 1.994,-5.074 1.249,-1.642 2.823,-2.773 4.357,-3.268 1.41,-0.46 2.767,-0.372 3.739,0.369 0.974,0.737 1.418,2.026 1.352,3.503"
           style="fill:#a3c6cf;fill-opacity:1;fill-rule:evenodd;stroke:none"
           id="path25756" /><path
           d="m 268.054,183.514 -8.18,-0.388 c -0.402,0.386 -0.787,0.812 -1.145,1.279 -0.212,0.282 -0.408,0.567 -0.587,0.854 l 9.966,0.471 c 0.038,-0.242 0.06,-0.484 0.071,-0.717 0.024,-0.532 -0.019,-1.034 -0.125,-1.499 m -0.245,3.496 -10.336,-0.489 c -0.448,1.006 -0.694,2.017 -0.737,2.958 -0.032,0.755 0.066,1.457 0.3,2.064 l 7.404,0.351 c 0.621,-0.505 1.214,-1.11 1.746,-1.812 0.753,-0.988 1.295,-2.04 1.623,-3.072 m 15.425,-20.22 c -0.33,1.011 -0.865,2.04 -1.601,3.009 -0.556,0.727 -1.175,1.357 -1.826,1.872 l -7.296,-0.345 c -0.255,-0.621 -0.363,-1.351 -0.327,-2.131 0.042,-0.923 0.279,-1.911 0.706,-2.896 z m 0.392,-2.065 c -0.012,0.257 -0.039,0.52 -0.082,0.787 l -9.996,-0.472 c 0.191,-0.311 0.4,-0.62 0.63,-0.919 0.337,-0.442 0.698,-0.849 1.077,-1.216 l 8.258,0.392 c 0.099,0.442 0.135,0.926 0.113,1.428"
           style="fill:#c1dce3;fill-opacity:1;fill-rule:evenodd;stroke:none"
           id="path25758" /><path
           d="m 157.156,170.049 c 14.503,3.896 27.588,15.355 40.797,26.145 -16.577,-14.87 -29.944,-30.989 -32.763,-51.348 0.593,11.863 -1.483,20.901 -8.034,25.203"
           style="fill:#f0b478;fill-opacity:1;fill-rule:evenodd;stroke:none"
           id="path25760" /><path
           d="m 254.89,120.157 c -26.253,-4.045 -58.891,-6.441 -94.265,-6.441 -86.727,0 -157.033,14.407 -157.033,32.182 0,11.632 30.105,21.819 75.214,27.473 -38.116,-5.872 -62.771,-15.215 -62.771,-25.741 0,-17.774 70.308,-32.183 157.035,-32.183 29.978,0 57.992,1.723 81.82,4.71"
           style="fill:#70aeed;fill-opacity:1;fill-rule:evenodd;stroke:none"
           id="path25762" /><path
           d="m 303.135,168.263 c 29.731,-6.59 47.909,-15.401 47.909,-25.086 0,-20.411 -80.743,-36.958 -180.345,-36.958 -58.145,0 -109.853,5.639 -142.832,14.396 32.945,-7.302 80.081,-11.879 132.435,-11.879 99.603,0 180.346,16.548 180.346,36.961 0,8.497 -13.999,16.323 -37.513,22.566"
           style="fill:#70aeed;fill-opacity:1;fill-rule:evenodd;stroke:none"
           id="path25764" /></g></g></g></svg>
