<?xml version="1.0"?>
<svg xmlns:rdf="http://www.w3.org/1999/02/22-rdf-syntax-ns#" xmlns="http://www.w3.org/2000/svg" xmlns:cc="http://creativecommons.org/ns#" xmlns:xlink="http://www.w3.org/1999/xlink" xmlns:dc="http://purl.org/dc/elements/1.1/" xmlns:svg="http://www.w3.org/2000/svg" id="svg2" viewBox="0 0 847.6 642.21" version="1.0">
  <defs id="defs4">
    <linearGradient id="linearGradient4747">
      <stop id="stop4749" offset="0"/>
      <stop id="stop4751" stop-opacity="0" offset="1"/>
    </linearGradient>
    <linearGradient id="linearGradient13754">
      <stop id="stop13756" stop-color="#e6e6e6" offset="0"/>
      <stop id="stop13758" stop-color="#646464" offset="1"/>
    </linearGradient>
    <linearGradient id="linearGradient4910">
      <stop id="stop4912" stop-color="#7a8b8b" offset="0"/>
      <stop id="stop4914" stop-color="#f4ffff" offset="1"/>
    </linearGradient>
    <linearGradient id="linearGradient3820" y2="311.99" xlink:href="#linearGradient4910" gradientUnits="userSpaceOnUse" x2="622.51" y1="322.8" x1="625.35"/>
    <linearGradient id="linearGradient4774" y2="116.78" xlink:href="#linearGradient4910" gradientUnits="userSpaceOnUse" x2="189.62" y1="116.78" x1="157.26"/>
    <linearGradient id="linearGradient4841" y2="264.14" gradientUnits="userSpaceOnUse" x2="421.03" gradientTransform="matrix(-1 0 0 1 941.26 21.549)" y1="310.23" x1="314.36">
      <stop id="stop3124" stop-color="#00688b" offset="0"/>
      <stop id="stop3126" stop-color="#00bfff" offset="1"/>
    </linearGradient>
    <radialGradient id="radialGradient4843" xlink:href="#linearGradient13754" gradientUnits="userSpaceOnUse" cy="493.49" cx="383.42" gradientTransform="matrix(.96691 .030028 -.032072 1.0327 28.514 -27.657)" r="64.703"/>
    <radialGradient id="radialGradient4845" xlink:href="#linearGradient13754" spreadMethod="reflect" gradientUnits="userSpaceOnUse" cy="493.49" cx="383.42" gradientTransform="matrix(.96691 .030028 -.032072 1.0327 28.514 -27.657)" r="64.703"/>
    <linearGradient id="linearGradient4851" y2="481.93" gradientUnits="userSpaceOnUse" x2="273.3" y1="481.93" x1="153.22">
      <stop id="stop10559" stop-color="#828282" offset="0"/>
      <stop id="stop10561" stop-color="#646464" offset="1"/>
    </linearGradient>
    <linearGradient id="linearGradient4853" y2="311.99" xlink:href="#linearGradient4910" spreadMethod="reflect" gradientUnits="userSpaceOnUse" x2="622.51" y1="322.8" x1="625.35"/>
    <linearGradient id="linearGradient4855" y2="408.68" xlink:href="#linearGradient4910" spreadMethod="reflect" gradientUnits="userSpaceOnUse" x2="927.99" y1="408.68" x1="356.57"/>
    <radialGradient id="radialGradient4861" xlink:href="#linearGradient13754" gradientUnits="userSpaceOnUse" cy="346.84" cx="556.25" gradientTransform="matrix(2.7114 -.0000036753 .0000024812 1.8271 -951.96 -286.86)" r="39.262"/>
    <radialGradient id="radialGradient4863" gradientUnits="userSpaceOnUse" cy="346.84" cx="556.25" gradientTransform="matrix(2.7114 -.0000036753 .0000024812 1.8271 -951.96 -286.86)" r="39.262">
      <stop id="stop7570" stop-color="#fff" offset="0"/>
      <stop id="stop7572" stop-color="#ee0" offset="1"/>
    </radialGradient>
    <linearGradient id="linearGradient4865" y2="346.84" xlink:href="#linearGradient13754" gradientUnits="userSpaceOnUse" x2="591.09" y1="346.84" x1="507.34"/>
    <radialGradient id="radialGradient4873" gradientUnits="userSpaceOnUse" cy="455.19" cx="605.61" gradientTransform="matrix(.76039 -.10369 .13954 1.0232 82.785 52.657)" r="9.1073">
      <stop id="stop2225" stop-color="#8b5a00" offset="0"/>
      <stop id="stop2227" stop-color="#ffa500" offset="1"/>
    </radialGradient>
    <linearGradient id="linearGradient4879" y2="549.95" xlink:href="#linearGradient4747" gradientUnits="userSpaceOnUse" x2="937.51" y1="663.77" x1="580.06"/>
    <linearGradient id="linearGradient4881" y2="465.68" xlink:href="#linearGradient4747" gradientUnits="userSpaceOnUse" x2="875.47" y1="554.69" x1="281.03"/>
  </defs>
  <g id="layer1" transform="translate(-102.38 -50.94)">
    <g id="g3778" transform="translate(4.4355 -179.74)">
      <path id="path5004" d="m558.47 540.46l358.5-32.92 10.97-73.17-481.65-18.29-86.58 85.36 28.05 43.9 170.71-4.88z" fill="#4b4b4b" fill-rule="evenodd"/>
      <path id="path5002" d="m467.02 450.23l-4.88 174.37-23.17-1.22c-83.92-4.42-87.91-173.15-3.65-173.15h31.7z" fill-rule="evenodd"/>
      <path id="path4996" d="m328.01 535.58a56.701 32.923 0 1 1 -113.4 0 56.701 32.923 0 1 1 113.4 0z" transform="matrix(1.4516 0 0 2.0185 -148.13 -558.3)" fill-rule="evenodd"/>
      <path id="path13779" d="m818.2 568.51c-19.23 0-38.86-53.09-32.01-69.53 6.22-14.95 38.39 3.11 38.39 3.11l33.86 66.42h-40.24z" fill-rule="evenodd"/>
      <path id="path5798" d="m855.35 369.63c-6.47-48.62-41.56-81.28-66.47-98.26-22.83-15.56-110.92-19.1-138.53-25.36-82.4-18.69-141.8-6.97-219.53 10.24-27.72 22.79-50.6 58.07-58.03 77.94l482.56 35.44z" fill="url(#linearGradient4841)" fill-rule="evenodd"/>
      <g id="g4964" fill-rule="evenodd" transform="matrix(1.4921 0 0 .79912 -442.22 114.13)">
        <path id="path13769" d="m501.2 496.09a87.165 129.71 0 1 1 -174.33 0 87.165 129.71 0 1 1 174.33 0z" stroke-opacity=".49804" transform="matrix(-.30490 0 0 .64234 997.95 165.79)" stroke="#141414" stroke-linecap="round" stroke-width="1.7717"/>
        <path id="path13771" d="m474.22 493.49a63.817 91.835 0 1 1 -127.63 0 63.817 91.835 0 1 1 127.63 0z" fill="url(#radialGradient4843)" transform="matrix(-.31607 0 0 .62496 1003.6 176.68)"/>
        <path id="path4947" fill="url(#radialGradient4845)" transform="matrix(-.20253 0 0 .61083 1001.1 432.55)" d="m700.11 144.18l-57.29-43.4 53.46 48.04-54.45-46.91 50.33 51.3-51.39-50.24 47.01 54.36-48.14-53.36 43.5 57.2-44.69-56.28 39.83 59.82-41.07-58.97 35.99 62.2-37.29-61.43 32.02 64.34-33.36-63.66 27.91 66.23-29.29-65.63 23.7 67.85-25.11-67.34 19.39 69.2-20.84-68.78 15.01 70.28-16.48-69.95 10.57 71.09-12.05-70.85 6.08 71.61-7.58-71.47 1.57 71.85-3.07-71.8-2.95 71.81 1.44-71.86-7.44 71.48 5.95-71.62-11.92 70.88 10.43-71.11-16.35 69.98 14.88-70.31-20.71 68.82 19.27-69.24-24.99 67.39 23.57-67.89-29.17 65.68 27.79-66.28-33.24 63.72 31.9-64.4-37.18 61.5 35.88-62.27-40.96 59.05 39.72-59.89-44.59 56.36 43.4-57.28-48.04 53.45 46.91-54.45-51.3 50.33 50.23-51.39-54.36 47.01 53.37-48.14-57.21 43.51 56.28-44.696-59.82 39.826 58.97-41.07-62.2 35.99 61.44-37.284-64.35 32.014 63.66-33.354-66.22 27.914 65.62-29.294-67.84 23.694 67.33-25.11-69.2 19.39 68.78-20.834-70.28 15.004 69.95-16.472-71.08 10.562 70.85-12.048-71.61 6.08 71.46-7.578-71.85 1.572 71.8-3.076-71.8-2.942 71.85 1.438-71.48-7.445 71.62 5.947-70.87-11.919 71.1 10.433-69.98-16.346 70.31 14.877-68.82-20.708 69.24 19.263-67.38-24.988 67.89 23.572-65.68-29.17 66.27 27.789-63.72-33.237 64.41 31.895-61.51-37.172 62.27 35.876-59.05-40.96 59.9 39.715-56.37-44.588 57.29 43.399-53.46-48.04 54.45 46.91-50.33-51.301 51.39 50.236-47.01-54.36 48.14 53.364-43.5-57.204 44.69 56.281-39.83-59.823 41.07 58.976-35.99-62.206 37.29 61.439-32.02-64.343 33.36 63.658-27.91-66.226 29.29 65.628-23.7-67.849 25.11 67.338-19.39-69.203 20.84 68.781-15.01-70.283 16.48 69.954-10.57-71.087 12.05 70.85-6.08-71.61 7.58 71.467-1.57-71.85 3.07 71.801 2.95-71.807-1.44 71.853 7.44-71.481-5.95 71.622 11.92-70.873-10.43 71.107 16.35-69.985-14.88 70.311 20.71-68.819-19.26 69.238 24.98-67.384-23.57 67.892 29.17-65.682-27.79 66.278 33.24-63.72-31.9 64.402 37.18-61.508-35.88 62.273 40.96-59.052-39.71 59.897 44.58-56.364-43.4 57.285 48.04-53.453-46.91 54.447 51.3-50.332-50.23 51.395 54.36-47.011-53.36 48.138 57.2-43.504-56.28 44.692 59.82-39.827-58.97 41.071 62.2-35.992-61.44 37.286 64.35-32.015-63.66 33.355 66.22-27.911-65.62 29.292 67.84-23.699-67.33 25.114 69.2-19.391-68.78 20.835 70.28-15.007-69.95 16.475 71.08-10.565-70.85 12.051 71.61-6.08-71.46 7.578 71.85-1.572-71.8 3.076 71.8 2.942-71.85-1.438 71.48 7.445-71.62-5.947 70.87 11.922-71.1-10.436 69.98 16.346-70.31-14.877 68.82 20.707-69.24-19.262 67.38 24.992-67.89-23.576 65.68 29.166-66.27-27.784 63.72 33.234-64.41-31.893 61.51 37.173-62.27-35.877 59.05 40.957-59.9-39.712 56.37 44.592z"/>
        <path id="path13773" d="m399.51 495.05a14.009 18.678 0 1 1 -28.02 0 14.009 18.678 0 1 1 28.02 0z" transform="matrix(-.31607 0 0 .62496 1003.6 176.68)"/>
      </g>
      <path id="path5126" d="m388.54 543.71s-2.11-18.62 7.36-42.45c9.47-23.82 21.68-49.12 26.22-50.08 0 0 13.57-14.61 34.56-18.65 20.99-4.05 48.79-0.3 48.79-0.3 27.91-0.17 41.63 15.34 48.01 45.2 6.39 29.95 3.35 64.43 3.35 64.43l260.06-20.04s2.93-25.22 7.34-41.74c4.84-18.17 11.08-20.61 28.61-24.34 17.13-3.64 23.01-3.15 37.87-2.44 14.97 0.72 15.26 5.59 19.55 19.55 2.45 7.94-3.66 36.65-3.66 36.65l36.65-8.55s-0.84-13.07 1.84-52.54c1.52-22.5 4.1-47.28-81.26-84.3-4.26-1.86-25.21-51.83-46.22-80.95-13.68-18.96-20.31-24.06-43.11-31.54-112.55-36.94-340.65-19.18-348.3 8.52 67.24-17.4 139.21-13.19 149.02-10.22 19.89 6.01 27.74 12.02 25.64 25.2-1.2 7.49-21.9 43.96-24.15 47.72-4.06 6.79-5.99 8.45-19.44 9.63-5.11 0.45-58.96-7.76-65-7.69-7.12 0.07-117.78 3.08-117.78 3.08-60.09 6.23-142.51 11.83-185.28 44.21-26.45 0.13-47.9 3.42-74.36 16.47l1.69 137.91c88.93 13.14 199.14 23.67 272 17.26zm350.15-278.86l10.69 87.35 88.91 4.43c4.05 0.2 5.5 0.2 3.13-8.34-23.29-83.91-102.73-83.44-102.73-83.44zm-88.66-1.31l78.23 2.09 8.08 85.79-78.48-1.83-7.83-86.05zm-4.95 3.08l6.52 78.8-54.5 1.04c12.26-31.38 30.51-56.81 47.98-79.84z" fill="#ee0" fill-rule="evenodd"/>
      <g id="g6989" fill-rule="evenodd" fill="url(#linearGradient3820)">
        <path id="path6985" d="m615.81 308.58h28.05c6.51 0 4.88 21.89 0 22.04l-27.25 0.8c-2.91 0.08-3.28-22.84-0.8-22.84z"/>
        <path id="path6987" d="m606.59 317.8l14.83 0.4c4.03 0.11 4.01 6.92-0.4 6.81l-16.03-0.4c-4.03-0.1-2.8-6.93 1.6-6.81z"/>
      </g>
      <path id="path8754" d="m154.03 445c14.09-0.77 87.48 1.25 94.52 4.19 9.21 3.84 24.29 9.26 24.22 18.24l-0.29 41.58c-0.04 5.28-6.46 9.33-11.97 9.57-34.07 1.46-72.33-0.59-105.88-6.28-5.83-0.99-10.96-8.13-12.26-13.76-2.69-11.62-1.68-31.23 0.9-43.07 1.3-6.01 4.79-10.15 10.76-10.47z" stroke="#000" stroke-width="1px" fill-rule="evenodd"/>
      <path id="path8801" d="m165.65 445c12.71-0.77 78.96 1.25 85.31 4.19 8.32 3.84 21.92 9.26 21.86 18.24l-0.27 41.58c-0.03 5.28-5.82 9.33-10.79 9.57-30.75 1.46-65.28-0.59-95.57-6.28-5.26-0.99-9.89-8.13-11.06-13.76-2.43-11.62-1.52-31.23 0.81-43.07 1.18-6.01 4.32-10.15 9.71-10.47z" fill-rule="evenodd" stroke="#000" stroke-width=".95002px" fill="url(#linearGradient4851)"/>
      <path id="path10563" d="m111.91 509.56l150 19.05c42.49 5.4 5.07 0.45 20.24 0l40.48-1.19c10.82-0.32 9.05 24.86-3.57 23.81l-42.86-3.57c-16.04-1.34 19.95 5.91-21.43 0l-141.67-20.24c-9.09-1.3-12.49-19.29-1.19-17.86z" fill="url(#linearGradient4853)" fill-rule="evenodd"/>
      <path id="path4043" stroke-linejoin="round" d="m358.35 411.94s229.16-37.12 434.53-2.38c68-16.83 133.34 13.1 133.34 13.1" stroke="url(#linearGradient4855)" stroke-linecap="round" stroke-width="7.0866" fill="none"/>
      <g id="g4954" fill-rule="evenodd" transform="matrix(-.81803 0 0 .64967 800.82 283.79)">
        <path id="path12863" d="m501.2 496.09a87.165 129.71 0 1 1 -174.33 0 87.165 129.71 0 1 1 174.33 0z" stroke-opacity=".49804" transform="matrix(.96464 0 0 1.0278 11.642 -117.62)" stroke="#141414" stroke-linecap="round" stroke-width="1.7717"/>
        <path id="path13742" d="m474.22 493.49a63.817 91.835 0 1 1 -127.63 0 63.817 91.835 0 1 1 127.63 0z" fill="url(#radialGradient4843)" transform="translate(-6.1092 -100.19)"/>
        <path id="path4065" d="m700.11 144.18l-57.29-43.4 53.46 48.04-54.45-46.91 50.33 51.3-51.39-50.24 47.01 54.36-48.14-53.36 43.5 57.2-44.69-56.28 39.83 59.82-41.07-58.97 35.99 62.2-37.29-61.43 32.02 64.34-33.36-63.66 27.91 66.23-29.29-65.63 23.7 67.85-25.11-67.34 19.39 69.2-20.84-68.78 15.01 70.28-16.48-69.95 10.57 71.09-12.05-70.85 6.08 71.61-7.58-71.47 1.57 71.85-3.07-71.8-2.95 71.81 1.44-71.86-7.44 71.48 5.95-71.62-11.92 70.88 10.43-71.11-16.35 69.98 14.88-70.31-20.71 68.82 19.27-69.24-24.99 67.39 23.57-67.89-29.17 65.68 27.79-66.28-33.24 63.72 31.9-64.4-37.18 61.5 35.88-62.27-40.96 59.05 39.72-59.89-44.59 56.36 43.4-57.28-48.04 53.45 46.91-54.45-51.3 50.33 50.23-51.39-54.36 47.01 53.37-48.14-57.21 43.51 56.28-44.696-59.82 39.826 58.97-41.07-62.2 35.99 61.44-37.284-64.35 32.014 63.66-33.354-66.22 27.914 65.62-29.294-67.84 23.694 67.33-25.11-69.2 19.39 68.78-20.834-70.28 15.004 69.95-16.472-71.08 10.562 70.85-12.048-71.61 6.08 71.46-7.578-71.85 1.572 71.8-3.076-71.8-2.942 71.85 1.438-71.48-7.445 71.62 5.947-70.87-11.919 71.1 10.433-69.98-16.346 70.31 14.877-68.82-20.708 69.24 19.263-67.38-24.988 67.89 23.572-65.68-29.17 66.27 27.789-63.72-33.237 64.41 31.895-61.51-37.172 62.27 35.876-59.05-40.96 59.9 39.715-56.37-44.588 57.29 43.399-53.46-48.04 54.45 46.91-50.33-51.301 51.39 50.236-47.01-54.36 48.14 53.364-43.5-57.204 44.69 56.281-39.83-59.823 41.07 58.976-35.99-62.206 37.29 61.439-32.02-64.343 33.36 63.658-27.91-66.226 29.29 65.628-23.7-67.849 25.11 67.338-19.39-69.203 20.84 68.781-15.01-70.283 16.48 69.954-10.57-71.087 12.05 70.85-6.08-71.61 7.58 71.467-1.57-71.85 3.07 71.801 2.95-71.807-1.44 71.853 7.44-71.481-5.95 71.622 11.92-70.873-10.43 71.107 16.35-69.985-14.88 70.311 20.71-68.819-19.26 69.238 24.98-67.384-23.57 67.892 29.17-65.682-27.79 66.278 33.24-63.72-31.9 64.402 37.18-61.508-35.88 62.273 40.96-59.052-39.71 59.897 44.58-56.364-43.4 57.285 48.04-53.453-46.91 54.447 51.3-50.332-50.23 51.395 54.36-47.011-53.36 48.138 57.2-43.504-56.28 44.692 59.82-39.827-58.97 41.071 62.2-35.992-61.44 37.286 64.35-32.015-63.66 33.355 66.22-27.911-65.62 29.292 67.84-23.699-67.33 25.114 69.2-19.391-68.78 20.835 70.28-15.007-69.95 16.475 71.08-10.565-70.85 12.051 71.61-6.08-71.46 7.578 71.85-1.572-71.8 3.076 71.8 2.942-71.85-1.438 71.48 7.445-71.62-5.947 70.87 11.922-71.1-10.436 69.98 16.346-70.31-14.877 68.82 20.707-69.24-19.262 67.38 24.992-67.89-23.576 65.68 29.166-66.27-27.784 63.72 33.234-64.41-31.893 61.51 37.173-62.27-35.877 59.05 40.957-59.9-39.712 56.37 44.592z" fill="url(#radialGradient4845)" transform="matrix(.66187 0 0 .96172 -10.168 309.28)"/>
        <path id="path13744" d="m399.51 495.05a14.009 18.678 0 1 1 -28.02 0 14.009 18.678 0 1 1 28.02 0z" transform="translate(10.996 -102.63)"/>
      </g>
      <path id="path4066" d="m316.22 432.2a24.133 36.615 0 1 1 -48.27 0 24.133 36.615 0 1 1 48.27 0z" fill="url(#radialGradient4861)" fill-rule="evenodd"/>
      <path id="path7574" stroke-linejoin="round" d="m587.59 346.84a38.376 40.485 0 1 1 -76.75 0 38.376 40.485 0 1 1 76.75 0z" fill-rule="evenodd" transform="matrix(-.46882 0 0 .84138 545.27 139.89)" stroke="url(#linearGradient4865)" stroke-linecap="round" stroke-width="5.6417" fill="url(#radialGradient4863)"/>
      <path id="path4070" d="m136.6 422.24a19.18 31.062 0 1 1 -38.36 0 19.18 31.062 0 1 1 38.36 0z" fill="url(#radialGradient4861)" fill-rule="evenodd"/>
      <path id="path8483" d="m587.59 346.84a38.376 40.485 0 1 1 -76.75 0 38.376 40.485 0 1 1 76.75 0z" fill-rule="evenodd" transform="matrix(-.39992 0 0 .65933 334.73 193.78)" stroke="url(#linearGradient4865)" stroke-width="6.9981" fill="url(#radialGradient4863)"/>
      <path id="path4074" d="m132.91 474.61a9.1453 18.291 0 1 1 -18.29 0 9.1453 18.291 0 1 1 18.29 0z" fill-rule="evenodd"/>
      <path id="path2237" d="m611.67 453.08a9.1073 13.131 0 1 1 -18.21 0 9.1073 13.131 0 1 1 18.21 0z" fill="url(#radialGradient4873)" transform="matrix(-.86496 -.29334 -.11346 .89958 693.33 242.4)" fill-rule="evenodd"/>
      <path id="path4949" d="m309.72 497.17a15.242 23.778 0 1 1 -30.48 0 15.242 23.778 0 1 1 30.48 0z" fill-rule="evenodd"/>
      <path id="path2213" d="m611.67 453.08a9.1073 13.131 0 1 1 -18.21 0 9.1073 13.131 0 1 1 18.21 0z" fill="url(#radialGradient4873)" transform="matrix(-1.1339 0 .011007 1 966.88 43.809)" fill-rule="evenodd"/>
      <path id="path5000" d="m733.6 378.37c6.8-0.34 19.76-1.98 27.3 1.17 7.55 3.16 2.89 11.45 2.89 11.45l-9.46-0.18s2.41-4.76-2.71-6.67c-5.11-1.91-13.07-2.25-17.75-1.53-2.34 0.36-2.97-4.1-0.27-4.24z" fill="url(#linearGradient3820)" fill-rule="evenodd"/>
      <path id="path1415" stroke-linejoin="round" d="m263.53 425.4c-22.67-0.53-39.11-0.97-56.58-2.93-8.5-0.96-10.24-5.77-10.71-21.43-0.54-17.69 74.11-41.97 98.81-55.96 24.7-13.98 0 0 0 0m-142.66 78.77c6.35 1.58 15.19 3.14 20.44 1.77 3.88-1.02 6.7-5.03 5.54-9.71-7.33-29.77 81.1-66.19 114.27-77.45m6.11 54.46c80.07-39.02 175.99-48.78 258.5-51.22" stroke="#c8c800" stroke-linecap="round" stroke-width="1px" fill="none"/>
      <path id="path8747" d="m594.07 350.03l-13.1 14.29c16.67 46.43 7.14 111.91 3.57 160.72l179.77-10.72 4.76-120.24c-1.19-11.9-8.33-28.57-28.57-32.14m-559.54 15.48c-15.08 3.96-42.07 32.93-34.53 54.76 22.23 7.54 86.12 10.32 123.82 8.33" stroke="#000" stroke-width="1px" fill="none"/>
    </g>
    <g id="g4757" fill-rule="evenodd" transform="translate(99.703 20.232)">
      <path id="path1566" d="m575.18 599.99c7.65-0.25 15.81-4.63 20.62-11.59h28.99l-2.58 18.04h28.35s7.17-20.08 24.48-20.62l41.23-1.29c15.31-0.48 17.65 18.3 17.65 18.3l30.02-0.26 10.31-21.26 67.65-1.29-1.29 17.4-46.39 1.93-5.15 10.31s3.22-13.91 30.92-5.8c27.34 8 10.1 51.43-6.83 51.67l-36.33 0.51c-19.67 0.28-21.26-23.84-21.26-23.84h32.86l0.64 5.15c0.45 3.6 9.5 5.65 12.88 0.01 3.39-5.64 3.23-16.11 0.65-19.97-2.58-3.87-11.44-1.13-10.95 4.51l-59.92 2.57-1.29 12.24c-1.05 10.01-13.13 21.55-19.97 21.91l-49.6 2.58c-7.53 0.39-17.22-8.52-16.11-17.4l1.93-15.46-27.7-0.64-5.15 36.07-39.3-0.64 9.02-48.32-10.31 1.93 1.93-16.75zm110.07 0.9h10.37c1.59 0 2.78 1.28 2.68 2.86l-2.71 39.38c-0.11 1.58-1.47 2.86-3.06 2.86h-10.37c-1.59 0-2.78-1.28-2.68-2.86l2.71-39.38c0.11-1.58 1.47-2.86 3.06-2.86zm-63.17 7.68l26.08 0.52-2.07 17.29-26.33-0.26 2.32-17.55zm112.3-3.61l28.39-0.52-5.42 17.55-24.52 0.26 1.55-17.29z" fill="url(#linearGradient4879)"/>
      <path id="path2462" d="m330.08 508.59l-1.04-11.36c-0.54-5.99-6.63-5.88-7.58-0.12l-6.36 38.84 42.85-1.55c6.81-0.24 14.53-1.89 14.98-5.16l1.55-11.36h9.81l-0.79 13.43c-0.29 4.92 7.65 4.48 7.85 0.51l0.68-13.94 8.78-0.51-0.64 16.03 31.61-0.03c5.11 0 4.72-1.15 6.72-4.64l4.13-7.23c-12.71-7.43 2.44-17.22 9.29-5.68l9.81 0.51 1.03 15.49 47.5-1.03 8.26-11.87c4.41-6.34 19.17-3.04 21.17 2.58 2.03 5.68-13.94 7.23-13.94 7.23v2.42l44.99 0.43c4.54 0.04 10.46-2.95 11.29-7.5l2.06-11.36h9.81v2.23c20.38-6.3 18.63 9.53 11.36 14.29h39.24c7.22-1.83 4.58-12.1 9.81-14.97 13.68-7.5 18.58 0 18.58 0l2.07-3.1 10.84-1.03-4.13 13.94s-0.71 4.62 4.84 4.61l37.57-0.01c6.45 0 5.39 5.9 5.76 8.75s-2.61 5.23-5.08 0.28c-1-2.01-2.25-1.8-5.92-1.76l-43.37 0.52-3.09-3.1c-2.94 4.77-20.29 7.56-20.65-0.51 0 0-3.17 4.13-3.1 4.13l-51.12 1.59s0-4.82 1.04-8.31c1.03-3.48 3.22-2.71 3.09-4.64-0.12-1.94-0.91-2.28-3.61-3.1s-7.18-0.2-7.18-0.2l-2.11 16.2-9.81 1.04 1.55-6.71-7.75 6.19-51.63 0.52c-7.7 0.07-6.71-4.13-6.71-4.13s-3.51 4.53-9.44 4.6l-52 0.56-0.51-18.07h-5.17v9.29c0 5.03-8.08 10.26-12.37 10.24l-38.18-0.23c0.11 16.91-17.55 17.83-25.34 17.36l0.51-7.23c5.93-0.11 16.21-4.57 16.01-9.81-3.37 0.35-12.67 0.5-16.04-3.69-3.94 1.4-7.68 4.16-11.84 4.21l-45.95 0.51-4.13 12.91c-3.33 10.41-20.41 11.34-23.75-1.03l-5.16-19.11 22.71-0.51 8.78-40.79c2.8-12.99 22.48-14.58 25.3 0l3.1 16.01-10.84-2.07zm-39.45 35.28c4.21 0.07 8.42 0.13 12.64 0.2 0 0-4.35 25.68-12.64-0.2zm240.98-21.43c0 1.8-1.72 3.26-3.85 3.26-2.12 0-3.85-1.46-3.85-3.26s1.73-3.26 3.85-3.26c2.13 0 3.85 1.46 3.85 3.26zm138.28 2.47c-0.77 4.47-3.38 8.1-5.83 8.1-2.46 0-3.83-3.63-3.06-8.1 0.76-4.47 3.37-8.1 5.82-8.1 2.46 0 3.83 3.63 3.07 8.1z" fill="url(#linearGradient4881)"/>
      <g id="g3451" stroke="#000" stroke-width="1px" transform="matrix(5.3789 0 0 5.3789 -784.51 -45.284)" fill="url(#linearGradient4774)">
        <path id="path3433" d="m184.01 100.68l-0.28 8.22s-5.75-0.78-5.82 1.14l-0.14 3.69h9.36c1.48 0 2.01 1 1.99 2.41l-0.14 10.5-11.07-0.14-0.14 6.38-12.06 0.14 0.02-6.5-7.97-0.02 0.14-12.63 8.03-0.04 0.06-7.05c0.02-2.28 2.91-6.28 6.1-6.25l11.92 0.15z"/>
        <path id="path3437" d="m171.95 113.54v12.96"/>
        <path id="path3439" d="m166.1 113.77h11.42"/>
        <path id="path3441" d="m165.98 126.5h11.83"/>
        <path id="path3443" d="m177.93 118.86v7.64"/>
        <path id="path3445" d="m183.97 118.8v7.7"/>
        <path id="path3447" d="m163.43 118.33l8.05-0.06"/>
        <path id="path3449" d="m158.23 122.41h7.22"/>
      </g>
    </g>
  </g>
  <metadata>
    <rdf:RDF>
      <cc:Work>
        <dc:format>image/svg+xml</dc:format>
        <dc:type rdf:resource="http://purl.org/dc/dcmitype/StillImage"/>
        <cc:license rdf:resource="http://creativecommons.org/licenses/publicdomain/"/>
        <dc:publisher>
          <cc:Agent rdf:about="http://openclipart.org/">
            <dc:title>Openclipart</dc:title>
          </cc:Agent>
        </dc:publisher>
        <dc:title>Syrena 105</dc:title>
        <dc:date>2007-01-06T11:37:27</dc:date>
        <dc:description>Polish magic of 4 wheels in '1960s, Syrena 105</dc:description>
        <dc:source>http://openclipart.org/detail/2808/syrena-105-by-koconmus</dc:source>
        <dc:creator>
          <cc:Agent>
            <dc:title>koconmus</dc:title>
          </cc:Agent>
        </dc:creator>
        <dc:subject>
          <rdf:Bag>
            <rdf:li>car</rdf:li>
            <rdf:li>clip art</rdf:li>
            <rdf:li>clipart</rdf:li>
            <rdf:li>image</rdf:li>
            <rdf:li>media</rdf:li>
            <rdf:li>png</rdf:li>
            <rdf:li>poland</rdf:li>
            <rdf:li>public domain</rdf:li>
            <rdf:li>svg</rdf:li>
            <rdf:li>transportation</rdf:li>
            <rdf:li>vehicle</rdf:li>
          </rdf:Bag>
        </dc:subject>
      </cc:Work>
      <cc:License rdf:about="http://creativecommons.org/licenses/publicdomain/">
        <cc:permits rdf:resource="http://creativecommons.org/ns#Reproduction"/>
        <cc:permits rdf:resource="http://creativecommons.org/ns#Distribution"/>
        <cc:permits rdf:resource="http://creativecommons.org/ns#DerivativeWorks"/>
      </cc:License>
    </rdf:RDF>
  </metadata>
</svg>
