<svg version="1.1" id="Layer_1" xmlns="http://www.w3.org/2000/svg" xmlns:xlink="http://www.w3.org/1999/xlink" x="0px" y="0px"
	 width="100%" viewBox="0 0 500 500" enable-background="new 0 0 500 500" xml:space="preserve">
<path fill="#17415F" opacity="1.000000" stroke="none" 
	d="
M225.000000,501.000000 
	C150.000015,501.000000 75.500038,501.000000 1.000040,501.000000 
	C1.000027,334.333405 1.000027,167.666779 1.000013,1.000129 
	C167.666565,1.000086 334.333130,1.000086 500.999756,1.000043 
	C500.999847,167.666534 500.999847,334.333069 500.999939,500.999817 
	C409.166656,501.000000 317.333344,501.000000 225.000000,501.000000 
M266.499756,365.617798 
	C304.949402,365.617798 343.399017,365.617798 382.122742,365.617798 
	C382.122742,346.708313 382.122742,328.304932 382.122742,309.431732 
	C372.780212,309.431732 363.688812,309.431732 354.070557,309.431732 
	C354.070557,307.180511 354.070557,305.393677 354.070557,303.606842 
	C354.070557,261.776642 354.024231,219.946320 354.157562,178.116562 
	C354.168335,174.733017 353.234985,173.215347 350.012848,172.060654 
	C318.725006,160.848297 287.535248,149.361313 256.207092,138.264236 
	C253.088348,137.159515 248.899582,137.161774 245.780655,138.267365 
	C214.612183,149.315796 183.586609,160.766846 152.451019,171.909485 
	C148.876648,173.188660 147.818695,174.863663 147.832596,178.628281 
	C147.986511,220.291245 147.929443,261.954987 147.929443,303.618530 
	C147.929443,305.404694 147.929428,307.190826 147.929428,309.439575 
	C138.303375,309.439575 129.211105,309.439575 119.872559,309.439575 
	C119.872559,328.310303 119.872559,346.712860 119.872559,365.000305 
	C120.437096,365.260132 120.726990,365.510284 121.017128,365.510559 
	C169.177979,365.558014 217.338837,365.587555 266.499756,365.617798 
z"/>
<path fill="#FDFDFE" opacity="1.000000" stroke="none" 
	d="
M265.999725,365.617798 
	C217.338837,365.587555 169.177979,365.558014 121.017128,365.510559 
	C120.726990,365.510284 120.437096,365.260132 119.872559,365.000305 
	C119.872559,346.712860 119.872559,328.310303 119.872559,309.439575 
	C129.211105,309.439575 138.303375,309.439575 147.929428,309.439575 
	C147.929428,307.190826 147.929443,305.404694 147.929443,303.618530 
	C147.929443,261.954987 147.986511,220.291245 147.832596,178.628281 
	C147.818695,174.863663 148.876648,173.188660 152.451019,171.909485 
	C183.586609,160.766846 214.612183,149.315796 245.780655,138.267365 
	C248.899582,137.161774 253.088348,137.159515 256.207092,138.264236 
	C287.535248,149.361313 318.725006,160.848297 350.012848,172.060654 
	C353.234985,173.215347 354.168335,174.733017 354.157562,178.116562 
	C354.024231,219.946320 354.070557,261.776642 354.070557,303.606842 
	C354.070557,305.393677 354.070557,307.180511 354.070557,309.431732 
	C363.688812,309.431732 372.780212,309.431732 382.122742,309.431732 
	C382.122742,328.304932 382.122742,346.708313 382.122742,365.617798 
	C343.399017,365.617798 304.949402,365.617798 265.999725,365.617798 
M280.148712,321.753662 
	C277.729645,321.753662 275.310608,321.753662 273.301941,321.753662 
	C273.301941,331.124939 273.301941,339.854401 273.301941,348.798950 
	C280.062317,348.798950 287.165619,348.798950 294.488037,348.798950 
	C294.181580,346.282776 293.894470,343.925720 293.689880,342.245972 
	C289.811646,344.451477 285.897949,346.677155 281.984283,348.902802 
	C281.283783,348.453949 280.583252,348.005066 279.882751,347.556213 
	C280.247864,339.351776 280.612946,331.147339 281.782288,322.806152 
	C285.777252,324.519012 289.772217,326.231873 293.784821,327.952301 
	C293.923309,326.757172 294.191803,324.440521 294.539490,321.440186 
	C289.760040,321.680298 285.389648,321.899841 280.148712,321.753662 
M190.684875,242.891968 
	C190.758804,246.260208 190.832733,249.628448 190.688446,253.897095 
	C190.757446,257.597900 190.826431,261.298676 190.669266,265.865662 
	C190.740082,270.242889 190.810883,274.620117 190.664078,279.910919 
	C190.664078,284.991180 190.664078,290.071472 190.664078,296.125366 
	C198.688110,291.638580 205.842361,287.638153 213.652008,283.490570 
	C216.668381,281.850708 219.767242,280.342773 222.673004,278.526001 
	C224.718536,277.247070 226.501541,275.548309 228.596939,273.114502 
	C228.720657,262.797974 228.844376,252.481430 229.450577,242.604111 
	C231.975815,246.041473 234.501053,249.478851 237.210541,253.578918 
	C241.406387,259.410156 245.602234,265.241394 250.008698,271.742767 
	C253.665756,276.830994 257.322815,281.919220 261.158752,287.668427 
	C263.998047,291.722412 266.837311,295.776428 269.933624,300.197418 
	C283.431244,292.690002 296.709167,285.304779 310.531830,277.908752 
	C310.746094,277.639587 310.960327,277.370392 311.506500,276.912964 
	C311.706879,276.698669 311.740234,276.460938 311.813263,275.242523 
	C311.759705,266.163605 311.706177,257.084656 311.825531,247.083099 
	C311.767029,241.058472 311.708527,235.033844 311.825195,228.090820 
	C311.767059,223.398102 311.708923,218.705399 311.828339,213.089508 
	C311.778046,206.404480 311.727753,199.719467 311.856262,192.135956 
	C311.856262,188.714066 311.856262,185.292191 311.856262,181.569016 
	C310.771057,181.812439 310.075684,181.813004 309.547363,182.110428 
	C302.658386,185.988449 295.793091,189.908554 288.227539,193.995132 
	C284.217224,196.150864 280.138794,198.193146 276.239502,200.533844 
	C275.119781,201.205978 274.517273,202.739716 273.474915,204.810120 
	C273.509918,214.929764 273.544952,225.049423 273.088928,235.015442 
	C272.753540,235.053680 272.418121,235.091934 271.938751,234.471191 
	C270.673828,232.976685 269.408936,231.482162 268.133575,229.275391 
	C263.090729,222.179764 258.047913,215.084137 252.821869,207.331284 
	C249.367889,202.504135 245.913910,197.677002 242.194550,192.192657 
	C238.616562,187.062897 235.038589,181.933136 231.223297,176.463165 
	C217.601471,184.110474 204.463974,191.485901 190.798553,199.703461 
	C190.835556,208.468002 190.872559,217.232529 190.695602,226.910583 
	C190.765060,231.939316 190.834518,236.968033 190.684875,242.891968 
M229.372253,337.969482 
	C225.915604,334.147400 221.618027,330.783417 219.221115,326.383972 
	C216.403229,321.211853 212.803268,321.142639 208.483246,321.947388 
	C208.483246,331.022339 208.483246,339.907715 208.483246,348.877563 
	C210.023849,348.877563 211.658783,348.877563 213.660782,348.877563 
	C210.707916,342.186310 208.839981,335.557770 210.979553,327.384430 
	C216.080185,333.960388 220.842316,339.537140 224.914124,345.579163 
	C227.056137,348.757599 229.127335,349.838257 232.634171,348.512726 
	C232.264099,345.321289 231.902924,342.206421 231.735687,338.169830 
	C231.973282,332.792999 232.210861,327.416138 232.451202,321.976868 
	C230.656921,321.976868 228.854111,321.976868 228.047958,321.976868 
	C228.739960,327.591400 229.390518,332.869690 229.372253,337.969482 
M258.592194,322.844910 
	C258.139282,322.314636 257.686371,321.784393 256.475494,321.588318 
	C252.859482,321.588318 249.243469,321.588318 245.934326,321.588318 
	C245.934326,330.991577 245.934326,339.828278 245.934326,348.687408 
	C262.144562,350.142731 269.048981,348.754120 270.286591,335.960480 
	C271.009094,328.491882 266.905518,323.203125 261.328979,323.375519 
	C265.765045,329.551422 264.643738,341.436768 258.989471,346.127686 
	C257.858673,347.065857 255.929733,347.761719 254.598923,347.480469 
	C253.742584,347.299500 252.801727,345.140839 252.772934,343.849091 
	C252.669571,339.212036 252.400696,334.462067 253.276138,329.965363 
	C253.768814,327.434692 256.381561,325.316772 258.592194,322.844910 
M242.543625,327.102173 
	C242.724213,325.393066 242.904816,323.683960 243.084152,321.986694 
	C240.013565,321.986694 237.601257,321.986694 235.491714,321.986694 
	C235.491714,331.095276 235.491714,339.901398 235.491714,348.660095 
	C237.966583,348.660095 240.503403,348.660095 242.351212,348.660095 
	C242.351212,341.541565 242.351212,334.774139 242.543625,327.102173 
M289.623108,338.810791 
	C289.623108,336.482727 289.623108,334.154663 289.623108,331.635010 
	C287.173340,333.041992 285.109985,334.227020 283.208008,335.319397 
	C285.147125,336.508240 287.058197,337.679901 289.623108,338.810791 
z"/>
<path fill="#14C6FC" opacity="1.000000" stroke="none" 
	d="
M191.326462,198.861313 
	C204.463974,191.485901 217.601471,184.110474 231.223297,176.463165 
	C235.038589,181.933136 238.616562,187.062897 241.953735,192.598450 
	C239.995880,194.705109 238.247818,196.376099 236.571503,198.116196 
	C235.206100,199.533554 234.186996,201.837662 232.565475,202.362900 
	C223.855850,205.184067 219.303009,212.914642 212.583099,218.166306 
	C206.731812,210.353638 201.619217,202.247940 191.752686,199.203796 
	C191.686646,199.118195 191.326462,198.861313 191.326462,198.861313 
z"/>
<path fill="#0FA4FC" opacity="1.000000" stroke="none" 
	d="
M268.144012,229.987671 
	C269.408936,231.482162 270.673828,232.976685 272.178345,234.968567 
	C272.846466,235.675705 273.274994,235.885498 273.815826,236.429321 
	C275.357727,239.149033 276.787292,241.534698 277.899719,244.090027 
	C276.871826,244.941483 275.938721,245.500473 275.484009,246.323715 
	C269.463257,257.224304 258.174347,262.636078 249.798065,271.072632 
	C245.602234,265.241394 241.406387,259.410156 237.180496,252.915802 
	C240.692322,248.912689 244.061951,245.361679 247.823853,242.291290 
	C251.681870,239.142441 255.814590,236.289642 260.038605,233.645172 
	C262.527985,232.086700 265.428436,231.184830 268.144012,229.987671 
z"/>
<path fill="#10BAFC" opacity="1.000000" stroke="none" 
	d="
M212.858215,218.382263 
	C219.303009,212.914642 223.855850,205.184067 232.565475,202.362900 
	C234.186996,201.837662 235.206100,199.533554 236.571503,198.116196 
	C238.247818,196.376099 239.995880,194.705109 242.086426,192.927063 
	C245.913910,197.677002 249.367889,202.504135 252.741974,207.954987 
	C251.807434,209.793213 251.013214,211.055984 250.088593,212.214645 
	C242.824829,221.316803 236.662750,231.755341 223.509918,233.894257 
	C219.784576,228.592758 216.321396,223.487503 212.858215,218.382263 
z"/>
<path fill="#1237C1" opacity="1.000000" stroke="none" 
	d="
M278.216888,243.920380 
	C276.787292,241.534698 275.357727,239.149033 273.842865,236.190216 
	C273.757599,235.617065 273.579956,235.169067 273.579956,235.169067 
	C273.544952,225.049423 273.509918,214.929764 273.820312,204.549057 
	C276.143463,207.854553 278.121185,211.421097 280.203857,215.318237 
	C282.886963,220.764465 285.465149,225.880081 288.157104,231.324844 
	C291.465790,237.804703 294.660675,243.955429 297.945404,250.450485 
	C299.818787,254.481384 301.475281,258.236450 303.417023,261.837738 
	C306.031708,266.687164 308.866302,271.418060 311.606506,276.199799 
	C311.740234,276.460938 311.706879,276.698669 311.044769,276.959534 
	C310.384399,277.016388 310.185791,277.026703 309.638062,276.951294 
	C300.585907,274.270233 295.273743,267.639160 290.036560,260.469788 
	C286.021423,254.743500 282.119141,249.331940 278.216888,243.920380 
z"/>
<path fill="#118EFC" opacity="1.000000" stroke="none" 
	d="
M290.149445,260.784485 
	C295.273743,267.639160 300.585907,274.270233 309.639313,277.171387 
	C309.989716,277.477234 309.987091,277.919586 309.987091,277.919586 
	C296.709167,285.304779 283.431244,292.690002 269.933624,300.197418 
	C266.837311,295.776428 263.998047,291.722412 261.329468,287.117096 
	C271.049927,277.971985 280.599670,269.378235 290.149445,260.784485 
z"/>
<path fill="#10B0FC" opacity="1.000000" stroke="none" 
	d="
M223.772064,234.090515 
	C236.662750,231.755341 242.824829,221.316803 250.088593,212.214645 
	C251.013214,211.055984 251.807434,209.793213 252.833588,208.283600 
	C258.047913,215.084137 263.090729,222.179764 268.138794,229.631531 
	C265.428436,231.184830 262.527985,232.086700 260.038605,233.645172 
	C255.814590,236.289642 251.681870,239.142441 247.823853,242.291290 
	C244.061951,245.361679 240.692322,248.912689 237.088379,252.584442 
	C234.501053,249.478851 231.975815,246.041473 228.998535,242.118927 
	C226.955002,239.119339 225.363525,236.604935 223.772064,234.090515 
z"/>
<path fill="#1336BF" opacity="1.000000" stroke="none" 
	d="
M223.509918,233.894257 
	C225.363525,236.604935 226.955002,239.119339 228.757294,241.899323 
	C228.844376,252.481430 228.720657,262.797974 228.248459,273.387695 
	C226.259689,270.785217 224.619400,267.909546 222.842239,264.704041 
	C220.796494,260.585175 218.887619,256.796082 216.919373,252.653824 
	C214.934799,248.506607 213.009613,244.712540 210.927948,240.601685 
	C207.911972,234.451569 205.052475,228.618286 202.090057,222.444122 
	C198.597702,214.498657 195.208221,206.894028 191.818741,199.289413 
	C201.619217,202.247940 206.731812,210.353638 212.583099,218.166306 
	C216.321396,223.487503 219.784576,228.592758 223.509918,233.894257 
z"/>
<path fill="#0E95FC" opacity="1.000000" stroke="none" 
	d="
M290.036560,260.469788 
	C280.599670,269.378235 271.049927,277.971985 261.240051,286.786621 
	C257.322815,281.919220 253.665756,276.830994 249.903381,271.407715 
	C258.174347,262.636078 269.463257,257.224304 275.484009,246.323715 
	C275.938721,245.500473 276.871826,244.941483 277.899719,244.090027 
	C282.119141,249.331940 286.021423,254.743500 290.036560,260.469788 
z"/>
<path fill="#1B86F4" opacity="1.000000" stroke="none" 
	d="
M280.098938,214.987640 
	C278.121185,211.421097 276.143463,207.854553 273.921692,204.083191 
	C274.517273,202.739716 275.119781,201.205978 276.239502,200.533844 
	C280.138794,198.193146 284.217224,196.150864 288.846130,194.158325 
	C291.353912,194.144424 293.297516,194.191452 295.122040,193.748230 
	C300.610687,192.414856 306.007294,189.890488 311.677490,193.034439 
	C311.727753,199.719467 311.778046,206.404480 311.388092,213.517242 
	C305.772369,210.026047 300.390381,210.711334 294.550049,212.514328 
	C289.919769,213.943741 284.929413,214.206741 280.098938,214.987640 
z"/>
<path fill="#1D63F1" opacity="1.000000" stroke="none" 
	d="
M222.979111,265.033844 
	C224.619400,267.909546 226.259689,270.785217 228.150879,273.848938 
	C226.501541,275.548309 224.718536,277.247070 222.673004,278.526001 
	C219.767242,280.342773 216.668381,281.850708 213.315964,283.180908 
	C213.042114,279.815338 211.221786,278.981415 208.545609,278.997467 
	C202.657852,279.032745 196.769699,279.001465 190.881683,278.997345 
	C190.810883,274.620117 190.740082,270.242889 191.201004,265.361359 
	C194.006393,264.571808 196.287567,263.995148 198.552322,264.053741 
	C206.697586,264.264465 214.837296,264.689667 222.979111,265.033844 
z"/>
<path fill="#157CF5" opacity="1.000000" stroke="none" 
	d="
M280.203857,215.318237 
	C284.929413,214.206741 289.919769,213.943741 294.550049,212.514328 
	C300.390381,210.711334 305.772369,210.026047 311.299316,213.978836 
	C311.708923,218.705399 311.767059,223.398102 311.359314,228.544128 
	C305.327148,226.648346 300.142761,227.060074 294.876678,230.299057 
	C293.120453,231.379242 290.350128,230.810608 288.043365,230.995697 
	C285.465149,225.880081 282.886963,220.764465 280.203857,215.318237 
z"/>
<path fill="#244B68" opacity="1.000000" stroke="none" 
	d="
M258.039215,323.012939 
	C256.381561,325.316772 253.768814,327.434692 253.276138,329.965363 
	C252.400696,334.462067 252.669571,339.212036 252.772934,343.849091 
	C252.801727,345.140839 253.742584,347.299500 254.598923,347.480469 
	C255.929733,347.761719 257.858673,347.065857 258.989471,346.127686 
	C264.643738,341.436768 265.765045,329.551422 261.328979,323.375519 
	C266.905518,323.203125 271.009094,328.491882 270.286591,335.960480 
	C269.048981,348.754120 262.144562,350.142731 245.934326,348.687408 
	C245.934326,339.828278 245.934326,330.991577 245.934326,321.588318 
	C249.243469,321.588318 252.859482,321.588318 257.089050,321.673889 
	C257.814789,322.177277 257.927002,322.595123 258.039215,323.012939 
z"/>
<path fill="#1571F4" opacity="1.000000" stroke="none" 
	d="
M288.157104,231.324829 
	C290.350128,230.810608 293.120453,231.379242 294.876678,230.299057 
	C300.142761,227.060074 305.327148,226.648346 311.271729,229.003326 
	C311.708527,235.033844 311.767029,241.058472 311.309692,247.544250 
	C306.481079,248.705643 302.168304,249.405899 297.855560,250.106140 
	C294.660675,243.955429 291.465790,237.804703 288.157104,231.324829 
z"/>
<path fill="#156AF4" opacity="1.000000" stroke="none" 
	d="
M222.842239,264.704041 
	C214.837296,264.689667 206.697586,264.264465 198.552322,264.053741 
	C196.287567,263.995148 194.006393,264.571808 191.314087,264.928284 
	C190.826431,261.298676 190.757446,257.597900 191.233765,253.447632 
	C200.178986,253.001099 208.578857,253.004044 216.978760,253.006989 
	C218.887619,256.796082 220.796494,260.585175 222.842239,264.704041 
z"/>
<path fill="#204865" opacity="1.000000" stroke="none" 
	d="
M231.541733,339.091583 
	C231.902924,342.206421 232.264099,345.321289 232.634171,348.512726 
	C229.127335,349.838257 227.056137,348.757599 224.914124,345.579163 
	C220.842316,339.537140 216.080185,333.960388 210.979553,327.384430 
	C208.839981,335.557770 210.707916,342.186310 213.660782,348.877563 
	C211.658783,348.877563 210.023849,348.877563 208.483246,348.877563 
	C208.483246,339.907715 208.483246,331.022339 208.483246,321.947388 
	C212.803268,321.142639 216.403229,321.211853 219.221115,326.383972 
	C221.618027,330.783417 225.915604,334.147400 229.810303,338.275909 
	C230.679489,338.752075 231.110611,338.921844 231.541733,339.091583 
z"/>
<path fill="#147EF5" opacity="1.000000" stroke="none" 
	d="
M202.192963,222.784973 
	C205.052475,228.618286 207.911972,234.451569 210.642822,240.834167 
	C203.977448,241.587906 197.440704,241.792328 190.903992,241.996765 
	C190.834518,236.968033 190.765060,231.939316 191.220123,226.453812 
	C195.227402,224.926346 198.710175,223.855667 202.192963,222.784973 
z"/>
<path fill="#1474F5" opacity="1.000000" stroke="none" 
	d="
M190.794434,242.444366 
	C197.440704,241.792328 203.977448,241.587906 210.799301,241.150970 
	C213.009613,244.712540 214.934799,248.506607 216.919357,252.653824 
	C208.578857,253.004044 200.178986,253.001099 191.342880,252.997421 
	C190.832733,249.628448 190.758804,246.260208 190.794434,242.444366 
z"/>
<path fill="#204865" opacity="1.000000" stroke="none" 
	d="
M280.978058,322.942902 
	C280.612946,331.147339 280.247864,339.351776 279.882751,347.556213 
	C280.583252,348.005066 281.283783,348.453949 281.984283,348.902802 
	C285.897949,346.677155 289.811646,344.451477 293.689880,342.245972 
	C293.894470,343.925720 294.181580,346.282776 294.488037,348.798950 
	C287.165619,348.798950 280.062317,348.798950 273.301941,348.798950 
	C273.301941,339.854401 273.301941,331.124939 273.301941,321.753662 
	C275.310608,321.753662 277.729645,321.753662 280.553955,322.141418 
	C280.959198,322.529175 280.978058,322.942902 280.978058,322.942902 
z"/>
<path fill="#1D5BF1" opacity="1.000000" stroke="none" 
	d="
M190.772888,279.454132 
	C196.769699,279.001465 202.657852,279.032745 208.545609,278.997467 
	C211.221786,278.981415 213.042114,279.815338 212.988266,283.254456 
	C205.842361,287.638153 198.688110,291.638580 190.664078,296.125366 
	C190.664078,290.071472 190.664078,284.991180 190.772888,279.454132 
z"/>
<path fill="#1766F3" opacity="1.000000" stroke="none" 
	d="
M297.945404,250.450470 
	C302.168304,249.405899 306.481079,248.705643 311.223206,248.005554 
	C311.706177,257.084656 311.759705,266.163605 311.709900,275.721161 
	C308.866302,271.418060 306.031708,266.687164 303.417023,261.837738 
	C301.475281,258.236450 299.818787,254.481384 297.945404,250.450470 
z"/>
<path fill="#1B4462" opacity="1.000000" stroke="none" 
	d="
M242.447418,327.554443 
	C242.351212,334.774139 242.351212,341.541565 242.351212,348.660095 
	C240.503403,348.660095 237.966583,348.660095 235.491714,348.660095 
	C235.491714,339.901398 235.491714,331.095276 235.491714,321.986694 
	C237.601257,321.986694 240.013565,321.986694 243.084152,321.986694 
	C242.904816,323.683960 242.724213,325.393066 242.447418,327.554443 
z"/>
<path fill="#1588F5" opacity="1.000000" stroke="none" 
	d="
M202.090057,222.444122 
	C198.710175,223.855667 195.227402,224.926346 191.327087,225.997055 
	C190.872559,217.232529 190.835556,208.468002 191.062500,199.282379 
	C191.326462,198.861313 191.686646,199.118195 191.752686,199.203796 
	C195.208221,206.894028 198.597702,214.498657 202.090057,222.444122 
z"/>
<path fill="#2992F5" opacity="1.000000" stroke="none" 
	d="
M311.766876,192.585205 
	C306.007294,189.890488 300.610687,192.414856 295.122040,193.748230 
	C293.297516,194.191452 291.353912,194.144424 289.193298,194.069794 
	C295.793091,189.908554 302.658386,185.988449 309.547363,182.110428 
	C310.075684,181.813004 310.771057,181.812439 311.856262,181.569016 
	C311.856262,185.292191 311.856262,188.714066 311.766876,192.585205 
z"/>
<path fill="#486981" opacity="1.000000" stroke="none" 
	d="
M231.638702,338.630707 
	C231.110611,338.921844 230.679489,338.752075 230.144714,338.365143 
	C229.390518,332.869690 228.739960,327.591400 228.047958,321.976868 
	C228.854111,321.976868 230.656921,321.976868 232.451202,321.976868 
	C232.210861,327.416138 231.973282,332.792999 231.638702,338.630707 
z"/>
<path fill="#325772" opacity="1.000000" stroke="none" 
	d="
M281.380188,322.874512 
	C280.978058,322.942902 280.959198,322.529175 280.989227,322.324280 
	C285.389648,321.899841 289.760040,321.680298 294.539490,321.440186 
	C294.191803,324.440521 293.923309,326.757172 293.784821,327.952301 
	C289.772217,326.231873 285.777252,324.519012 281.380188,322.874512 
z"/>
<path fill="#41647C" opacity="1.000000" stroke="none" 
	d="
M289.296204,338.831177 
	C287.058197,337.679901 285.147125,336.508240 283.208008,335.319397 
	C285.109985,334.227020 287.173340,333.041992 289.623108,331.635010 
	C289.623108,334.154663 289.623108,336.482727 289.296204,338.831177 
z"/>
<path fill="#FBFCFC" opacity="1.000000" stroke="none" 
	d="
M258.315704,322.928925 
	C257.927002,322.595123 257.814789,322.177277 257.468018,321.506775 
	C257.686371,321.784393 258.139282,322.314636 258.315704,322.928925 
z"/>
<path fill="#1B86F4" opacity="1.000000" stroke="none" 
	d="
M273.334442,235.092255 
	C273.579956,235.169067 273.757599,235.617065 273.730560,235.856171 
	C273.274994,235.885498 272.846466,235.675705 272.250336,235.298050 
	C272.418121,235.091934 272.753540,235.053680 273.334442,235.092255 
z"/>
<path fill="#2992F5" opacity="1.000000" stroke="none" 
	d="
M310.259460,277.914185 
	C309.987091,277.919586 309.989716,277.477234 309.988464,277.257141 
	C310.185791,277.026703 310.384399,277.016388 310.878784,277.053650 
	C310.960327,277.370392 310.746094,277.639587 310.259460,277.914185 
z"/>
</svg>